<svg xmlns="http://www.w3.org/2000/svg" xmlns:v="https://svgstorm.com"
viewBox = "0 0 96 96"
width="96"
height="96">
<g fill="None" fill-opacity="0.0" stroke="#000000" stroke-opacity="0.00" stroke-width="0.3"><path d="
M 0.00 83.00 
C 1.79 82.19 2.96 80.48 4.00 79.00
C 3.31 77.47 4.23 75.94 5.00 75.00
C 5.23 74.72 5.88 74.26 6.00 74.00
C 5.95 73.50 6.00 73.00 6.00 73.00
C 3.28 74.27 4.14 71.43 6.00 72.00
C 7.22 70.80 7.19 70.17 6.00 69.00
C 4.88 70.17 1.71 65.76 5.00 65.00
C 5.00 64.50 5.00 64.00 5.00 64.00
C 4.84 63.77 3.16 64.23 3.00 64.00
C 1.98 62.63 1.76 60.98 2.00 59.00
C 3.60 59.53 2.72 61.75 3.00 63.00
C 4.41 60.31 2.97 59.17 5.00 57.00
C 5.09 56.56 3.98 56.44 4.04 54.96 C 4.09 53.48 5.88 55.35 6.00 55.00
C 5.92 54.16 5.00 53.92 5.00 53.00
C 5.00 52.25 5.93 51.82 6.00 51.00
C 5.21 50.15 5.12 49.10 5.00 48.00
C 4.41 46.16 4.41 46.79 5.00 45.00
C 5.03 44.50 5.16 43.44 5.00 43.00
C 4.42 41.46 3.91 41.14 6.00 40.00
C 6.00 39.50 6.00 39.00 6.00 39.00
C 6.25 37.97 7.06 36.43 8.00 36.00
C 8.41 35.81 9.00 36.00 9.00 36.00
C 8.83 34.44 7.85 35.24 9.00 34.00
C 9.25 33.73 9.00 33.00 9.00 33.00
C 8.16 31.63 9.61 29.24 11.00 28.00
C 11.28 27.75 12.00 28.00 12.00 28.00
C 10.58 25.72 13.02 23.91 14.00 22.00
C 14.80 20.46 14.66 20.23 16.00 19.00
C 16.57 18.48 17.38 17.43 18.00 17.00
C 19.80 14.86 20.22 13.53 23.00 12.00
C 23.21 11.69 23.78 11.26 24.00 11.00
C 24.26 9.07 25.99 9.68 27.00 9.00
C 28.68 6.78 29.99 5.43 34.00 6.00
C 30.72 4.28 35.77 4.87 35.00 5.00
C 35.44 4.58 36.41 4.11 37.00 4.00
C 37.48 3.91 38.00 4.00 38.00 4.00
C 39.20 2.78 39.83 2.81 41.00 4.00
C 41.50 4.00 42.00 4.00 42.00 4.00
C 43.83 3.04 49.10 4.26 52.00 4.00
C 51.92 3.51 52.00 3.00 52.00 3.00
C 51.03 2.84 49.98 3.13 49.00 3.00
C 49.53 1.40 51.75 2.28 53.00 2.00
C 53.33 1.90 55.33 2.99 56.00 3.00
C 56.50 3.00 57.00 3.00 57.00 3.00
C 58.03 3.25 59.57 4.06 60.00 5.00
C 60.19 5.41 60.00 6.00 60.00 6.00
C 60.50 6.02 61.50 6.00 62.00 6.00
C 62.46 3.44 61.54 4.24 64.00 6.00
C 65.84 6.21 66.29 7.31 67.00 9.00
C 67.07 9.18 68.00 9.00 68.00 9.00
C 69.32 8.16 71.72 10.83 73.00 12.00
C 73.26 12.24 73.68 12.81 74.00 13.00
C 75.05 13.63 76.81 14.65 77.00 16.00
C 77.83 16.66 79.63 20.39 77.00 19.00
C 78.36 20.33 82.38 21.78 81.00 24.00
C 80.78 24.36 81.00 25.00 81.00 25.00
C 82.24 25.41 83.22 25.08 83.00 27.00
C 82.94 27.49 83.00 28.00 83.00 28.00
C 84.32 28.79 85.05 29.30 85.00 31.00
C 84.99 31.50 85.00 32.00 85.00 32.00
C 87.50 33.14 87.19 36.68 88.00 39.00
C 88.48 41.18 89.78 42.72 88.00 45.00
C 88.00 45.50 88.00 46.00 88.00 46.00
C 88.25 46.25 89.00 46.00 89.00 46.00
C 91.03 46.73 92.07 48.20 91.00 50.00
C 90.78 50.37 91.00 51.00 91.00 51.00
C 91.00 51.97 90.88 53.04 91.00 54.00
C 91.22 55.73 92.52 55.51 91.00 57.00
C 90.75 57.24 91.00 58.00 91.00 58.00
C 93.05 59.05 92.94 60.76 91.00 62.00
C 90.87 62.22 90.00 62.00 90.00 62.00
C 90.02 62.91 90.17 64.11 90.00 65.00
C 90.27 64.44 91.31 63.30 92.00 63.00
C 91.89 64.00 92.47 65.73 91.00 66.00
C 91.18 66.42 90.96 67.50 91.00 68.00
C 91.62 69.25 93.49 68.54 92.00 70.00
C 92.23 70.35 92.00 71.00 92.00 71.00
C 92.05 71.75 92.05 72.90 91.00 73.00
C 90.68 73.67 89.08 76.61 89.00 77.00
C 88.94 77.29 89.77 77.74 90.00 78.00
C 91.58 77.68 94.33 80.08 93.00 82.00
C 93.23 82.16 93.00 83.00 93.00 83.00
C 93.10 83.08 94.74 83.83 95.00 84.00
C 95.35 84.23 96.00 84.00 96.00 84.00
L 96.00 0.00
L 0.00 0.00
L 0.00 83.00
M 48.00 2.00 
C 44.01 4.79 41.81 0.90 48.00 2.00 Z"/>
</g>
<g fill="None" fill-opacity="0.0" stroke="#009700" stroke-opacity="0.01" stroke-width="0.3"><path d="
M 48.00 2.00 
C 41.81 0.90 44.01 4.79 48.00 2.00 Z"/>
</g>
<g fill="None" fill-opacity="0.0" stroke="#C56255" stroke-opacity="0.01" stroke-width="0.3"><path d="
M 52.00 3.00 
C 52.25 2.75 53.00 3.00 53.00 3.00
C 53.25 2.75 53.00 2.00 53.00 2.00
C 51.75 2.28 49.53 1.40 49.00 3.00
C 49.98 3.13 51.03 2.84 52.00 3.00 Z"/>
</g>
<g fill="None" fill-opacity="0.0" stroke="#ADAE88" stroke-opacity="0.00" stroke-width="0.3"><path d="
M 53.00 3.00 
C 54.20 4.22 54.83 4.19 56.00 3.00
C 55.33 2.99 53.33 1.90 53.00 2.00
C 53.00 2.00 53.25 2.75 53.00 3.00 Z"/>
</g>
<g fill="None" fill-opacity="0.0" stroke="#A1D300" stroke-opacity="0.00" stroke-width="0.3"><path d="
M 38.00 4.00 
C 39.00 4.00 40.00 4.00 41.00 4.00
C 39.83 2.81 39.20 2.78 38.00 4.00 Z"/>
</g>
<g fill="None" fill-opacity="0.0" stroke="#616A36" stroke-opacity="0.95" stroke-width="0.3"><path d="
M 42.00 4.00 
C 41.01 5.15 34.93 7.65 37.00 4.00
C 36.41 4.11 35.44 4.58 35.00 5.00
C 34.74 5.24 34.31 6.04 34.00 6.00
C 29.99 5.43 28.68 6.78 27.00 9.00
C 26.71 9.38 26.52 11.47 24.00 12.00
C 23.74 12.71 22.51 14.57 22.00 15.00
C 20.98 17.67 22.32 22.09 18.00 23.00
C 19.06 25.32 17.29 29.05 20.00 31.00
C 19.47 26.46 24.08 22.69 27.25 26.75 C 30.41 30.82 24.81 36.07 21.00 33.00
C 22.33 35.06 22.24 33.61 24.00 35.00
C 26.97 35.08 26.75 33.35 29.00 32.00
C 28.84 34.31 28.55 38.34 32.00 38.00
C 32.00 37.00 32.00 36.00 32.00 35.00
C 33.13 33.83 33.83 31.51 36.00 32.00
C 31.51 18.42 41.88 6.76 55.00 6.00
C 55.20 5.90 55.00 5.00 55.00 5.00
C 54.02 4.80 52.25 5.53 52.00 4.00
C 49.10 4.26 43.83 3.04 42.00 4.00 Z"/>
</g>
<g fill="None" fill-opacity="0.0" stroke="#434A1C" stroke-opacity="0.24" stroke-width="0.3"><path d="
M 52.00 4.00 
C 52.25 5.53 54.02 4.80 55.00 5.00
C 56.76 5.36 58.08 5.93 60.00 6.00
C 60.00 6.00 60.19 5.41 60.00 5.00
C 58.32 4.51 57.95 4.58 57.00 3.00
C 57.00 3.00 56.50 3.00 56.00 3.00
C 54.83 4.19 54.20 4.22 53.00 3.00
C 53.00 3.00 52.25 2.75 52.00 3.00
C 52.00 3.00 51.92 3.51 52.00 4.00 Z"/>
</g>
<g fill="None" fill-opacity="0.0" stroke="#D2D3BD" stroke-opacity="0.01" stroke-width="0.3"><path d="
M 60.00 5.00 
C 59.57 4.06 58.03 3.25 57.00 3.00
C 57.95 4.58 58.32 4.51 60.00 5.00 Z"/>
</g>
<g fill="None" fill-opacity="0.0" stroke="#FEFFC9" stroke-opacity="0.00" stroke-width="0.3"><path d="
M 34.00 6.00 
C 34.31 6.04 34.74 5.24 35.00 5.00
C 35.77 4.87 30.72 4.28 34.00 6.00 Z"/>
</g>
<g fill="None" fill-opacity="0.0" stroke="#2C3211" stroke-opacity="0.28" stroke-width="0.3"><path d="
M 42.00 4.00 
C 42.00 4.00 41.50 4.00 41.00 4.00
C 40.00 4.00 39.00 4.00 38.00 4.00
C 38.00 4.00 37.48 3.91 37.00 4.00
C 34.93 7.65 41.01 5.15 42.00 4.00 Z"/>
</g>
<g fill="None" fill-opacity="0.0" stroke="#ADAE88" stroke-opacity="0.00" stroke-width="0.3"><path d="
M 62.00 6.00 
C 62.50 6.00 63.51 5.94 64.00 6.00
C 61.54 4.24 62.46 3.44 62.00 6.00 Z"/>
</g>
<g fill="None" fill-opacity="0.0" stroke="#85964D" stroke-opacity="0.96" stroke-width="0.3"><path d="
M 55.00 6.00 
C 44.18 11.37 33.59 19.81 39.00 34.00
C 44.04 33.72 42.33 42.12 44.00 46.00
C 45.28 45.31 47.22 42.89 47.00 46.00
C 48.32 44.17 48.65 41.01 50.00 39.00
C 48.12 40.26 46.53 41.63 44.00 41.00
C 46.59 38.89 45.39 35.55 47.00 33.00
C 46.47 34.17 44.34 35.65 44.00 37.00
C 38.40 31.09 44.21 22.16 45.00 15.00
C 47.80 12.69 54.81 13.23 54.00 8.00
C 60.20 7.27 66.56 11.36 72.00 15.00
C 71.20 14.23 70.62 12.87 70.00 12.00
C 69.00 10.93 67.89 10.19 67.00 9.00
C 66.29 7.31 65.84 6.21 64.00 6.00
C 63.51 5.94 62.50 6.00 62.00 6.00
C 61.50 6.00 60.50 6.02 60.00 6.00
C 58.08 5.93 56.76 5.36 55.00 5.00
C 55.00 5.00 55.20 5.90 55.00 6.00 Z"/>
</g>
<g fill="None" fill-opacity="0.0" stroke="#798446" stroke-opacity="0.97" stroke-width="0.3"><path d="
M 32.00 35.00 
C 35.85 34.73 32.01 38.08 36.00 39.00
C 34.30 41.07 33.45 43.41 33.00 46.00
C 29.25 46.44 29.84 44.00 27.00 43.00
C 27.55 41.54 29.40 40.82 29.00 39.00
C 29.20 39.98 28.80 40.21 26.75 40.19 C 24.69 40.17 26.32 37.53 26.00 37.00
C 24.42 36.19 25.08 35.85 24.00 35.00
C 22.24 33.61 22.33 35.06 21.00 33.00
C 20.53 32.27 20.42 31.89 20.00 31.00
C 17.29 29.05 19.06 25.32 18.00 23.00
C 22.32 22.09 20.98 17.67 22.00 15.00
C 21.42 15.49 20.63 15.65 20.00 16.00
C 19.41 16.33 18.52 16.64 18.00 17.00
C 17.38 17.43 16.57 18.48 16.00 19.00
C 15.86 19.23 16.69 21.05 15.00 22.00
C 14.62 22.21 14.00 22.00 14.00 22.00
C 13.02 23.91 10.58 25.72 12.00 28.00
C 12.22 28.36 12.00 29.00 12.00 29.00
C 13.86 27.91 15.81 27.86 18.00 28.00
C 17.20 34.38 23.27 37.49 25.00 43.00
C 20.45 43.50 19.89 37.93 17.00 37.00
C 19.31 40.29 17.47 41.63 15.00 42.00
C 13.46 39.82 10.43 40.71 9.00 39.00
C 9.01 39.14 8.26 39.76 8.00 40.00
C 7.56 41.78 8.21 43.51 9.00 45.00
C 11.36 44.61 15.16 42.62 17.00 45.00
C 17.31 45.24 18.00 45.00 18.00 45.00
C 21.25 43.19 25.09 49.65 28.00 44.00
C 27.51 48.51 34.75 47.72 36.00 52.00
C 36.19 52.32 36.65 52.97 37.00 53.00
C 38.05 51.50 38.11 49.82 38.00 48.00
C 39.31 54.72 44.35 48.62 47.00 46.00
C 47.22 42.89 45.28 45.31 44.00 46.00
C 42.33 42.12 44.04 33.72 39.00 34.00
C 33.59 19.81 44.18 11.37 55.00 6.00
C 41.88 6.76 31.51 18.42 36.00 32.00
C 33.83 31.51 33.13 33.83 32.00 35.00 Z"/>
</g>
<g fill="None" fill-opacity="0.0" stroke="#9AAC63" stroke-opacity="0.98" stroke-width="0.3"><path d="
M 47.00 33.00 
C 47.49 31.02 47.75 29.07 48.00 27.00
C 51.28 27.21 50.00 33.11 53.00 31.00
C 52.94 28.56 53.30 27.17 54.00 25.00
C 56.42 17.45 69.07 25.47 65.00 33.00
C 67.43 32.39 70.12 29.64 72.00 33.00
C 66.17 33.56 61.47 35.89 60.00 42.00
C 61.87 41.28 71.21 41.72 76.00 41.00
C 78.38 39.82 80.28 39.27 82.00 37.00
C 81.81 33.83 79.04 29.52 81.00 27.00
C 80.78 26.25 79.02 24.20 81.00 24.00
C 82.38 21.78 78.36 20.33 77.00 19.00
C 76.59 18.60 76.10 17.56 76.00 17.00
C 74.46 17.18 73.18 15.75 72.00 15.00
C 66.56 11.36 60.20 7.27 54.00 8.00
C 54.81 13.23 47.80 12.69 45.00 15.00
C 44.21 22.16 38.40 31.09 44.00 37.00
C 44.34 35.65 46.47 34.17 47.00 33.00 Z"/>
</g>
<g fill="None" fill-opacity="0.0" stroke="#FDFF98" stroke-opacity="0.00" stroke-width="0.3"><path d="
M 68.00 9.00 
C 69.51 10.56 71.24 11.17 73.00 12.00
C 71.72 10.83 69.32 8.16 68.00 9.00 Z"/>
</g>
<g fill="None" fill-opacity="0.0" stroke="#575C2E" stroke-opacity="0.26" stroke-width="0.3"><path d="
M 24.00 11.00 
C 23.93 11.49 24.00 12.00 24.00 12.00
C 26.52 11.47 26.71 9.38 27.00 9.00
C 25.99 9.68 24.26 9.07 24.00 11.00 Z"/>
</g>
<g fill="None" fill-opacity="0.0" stroke="#758140" stroke-opacity="0.56" stroke-width="0.3"><path d="
M 70.00 12.00 
C 69.40 11.17 68.69 9.63 68.00 9.00
C 68.00 9.00 67.07 9.18 67.00 9.00
C 67.89 10.19 69.00 10.93 70.00 12.00 Z"/>
</g>
<g fill="None" fill-opacity="0.0" stroke="#65732D" stroke-opacity="0.36" stroke-width="0.3"><path d="
M 70.00 12.00 
C 70.62 12.87 71.20 14.23 72.00 15.00
C 73.18 15.75 74.46 17.18 76.00 17.00
C 75.91 16.52 76.00 16.00 76.00 16.00
C 74.86 15.47 74.76 13.92 74.00 13.00
C 73.68 12.81 73.26 12.24 73.00 12.00
C 71.24 11.17 69.51 10.56 68.00 9.00
C 68.69 9.63 69.40 11.17 70.00 12.00 Z"/>
</g>
<g fill="None" fill-opacity="0.0" stroke="#666C4A" stroke-opacity="0.50" stroke-width="0.3"><path d="
M 23.00 12.00 
C 22.21 13.17 21.00 15.14 20.00 16.00
C 20.63 15.65 21.42 15.49 22.00 15.00
C 22.51 14.57 23.74 12.71 24.00 12.00
C 24.00 12.00 23.93 11.49 24.00 11.00
C 23.78 11.26 23.21 11.69 23.00 12.00 Z"/>
</g>
<g fill="None" fill-opacity="0.0" stroke="#5E612D" stroke-opacity="0.08" stroke-width="0.3"><path d="
M 18.00 17.00 
C 18.52 16.64 19.41 16.33 20.00 16.00
C 21.00 15.14 22.21 13.17 23.00 12.00
C 20.22 13.53 19.80 14.86 18.00 17.00 Z"/>
</g>
<g fill="None" fill-opacity="0.0" stroke="#FEFF00" stroke-opacity="0.00" stroke-width="0.3"><path d="
M 76.00 16.00 
C 76.25 15.75 77.00 16.00 77.00 16.00
C 76.81 14.65 75.05 13.63 74.00 13.00
C 74.76 13.92 74.86 15.47 76.00 16.00 Z"/>
</g>
<g fill="None" fill-opacity="0.0" stroke="#ADB49A" stroke-opacity="0.02" stroke-width="0.3"><path d="
M 76.00 17.00 
C 76.10 17.56 76.59 18.60 77.00 19.00
C 79.63 20.39 77.83 16.66 77.00 16.00
C 77.00 16.00 76.25 15.75 76.00 16.00
C 76.00 16.00 75.91 16.52 76.00 17.00 Z"/>
</g>
<g fill="None" fill-opacity="0.0" stroke="#FEFF8A" stroke-opacity="0.00" stroke-width="0.3"><path d="
M 14.00 22.00 
C 14.00 22.00 14.62 22.21 15.00 22.00
C 15.43 21.32 15.25 19.68 16.00 19.00
C 14.66 20.23 14.80 20.46 14.00 22.00 Z"/>
</g>
<g fill="None" fill-opacity="0.0" stroke="#4C4B17" stroke-opacity="0.13" stroke-width="0.3"><path d="
M 15.00 22.00 
C 16.69 21.05 15.86 19.23 16.00 19.00
C 15.25 19.68 15.43 21.32 15.00 22.00 Z"/>
</g>
<g fill="None" fill-opacity="0.0" stroke="#6E7D4E" stroke-opacity="1.00" stroke-width="0.3"><path d="
M 54.00 25.00 
C 56.55 21.46 63.34 23.06 62.97 28.03 C 62.61 32.99 56.02 31.76 53.00 34.00
C 51.88 32.94 52.52 32.16 53.00 31.00
C 50.00 33.11 51.28 27.21 48.00 27.00
C 47.75 29.07 47.49 31.02 47.00 33.00
C 45.39 35.55 46.59 38.89 44.00 41.00
C 46.53 41.63 48.12 40.26 50.00 39.00
C 51.58 37.94 51.61 34.33 55.00 36.00
C 52.87 40.05 52.10 43.45 51.00 48.00
C 55.18 48.66 56.68 43.39 60.00 42.00
C 61.47 35.89 66.17 33.56 72.00 33.00
C 70.12 29.64 67.43 32.39 65.00 33.00
C 69.07 25.47 56.42 17.45 54.00 25.00
M 49.00 31.00 
C 51.78 36.67 45.46 35.68 49.00 31.00 Z"/>
</g>
<g fill="None" fill-opacity="0.0" stroke="#343F27" stroke-opacity="1.00" stroke-width="0.3"><path d="
M 54.00 25.00 
C 53.30 27.17 52.94 28.56 53.00 31.00
C 52.52 32.16 51.88 32.94 53.00 34.00
C 56.02 31.76 62.61 32.99 62.97 28.03 C 63.34 23.06 56.55 21.46 54.00 25.00 Z"/>
</g>
<g fill="None" fill-opacity="0.0" stroke="#5D6330" stroke-opacity="0.24" stroke-width="0.3"><path d="
M 81.00 27.00 
C 81.43 28.45 81.73 29.43 82.00 31.00
C 82.51 32.22 84.76 33.46 85.00 35.00
C 85.33 33.84 84.65 33.17 85.00 32.00
C 85.00 32.00 84.99 31.50 85.00 31.00
C 84.36 30.15 83.30 29.24 83.00 28.00
C 83.00 28.00 82.94 27.49 83.00 27.00
C 82.28 26.25 81.20 26.27 81.00 25.00
C 81.00 25.00 80.78 24.36 81.00 24.00
C 79.02 24.20 80.78 26.25 81.00 27.00 Z"/>
</g>
<g fill="None" fill-opacity="0.0" stroke="#383820" stroke-opacity="1.00" stroke-width="0.3"><path d="
M 20.00 31.00 
C 20.42 31.89 20.53 32.27 21.00 33.00
C 24.81 36.07 30.41 30.82 27.25 26.75 C 24.08 22.69 19.47 26.46 20.00 31.00
M 23.00 29.00 
C 23.73 29.73 22.29 31.67 21.29 30.63 C 20.30 29.60 22.45 28.45 23.00 29.00 Z"/>
</g>
<g fill="None" fill-opacity="0.0" stroke="#D2D200" stroke-opacity="0.00" stroke-width="0.3"><path d="
M 83.00 27.00 
C 83.22 25.08 82.24 25.41 81.00 25.00
C 81.20 26.27 82.28 26.25 83.00 27.00 Z"/>
</g>
<g fill="None" fill-opacity="0.0" stroke="#758451" stroke-opacity="0.96" stroke-width="0.3"><path d="
M 76.00 41.00 
C 73.50 42.24 65.84 41.08 65.61 45.75 C 65.37 50.43 61.07 45.81 60.00 46.00
C 61.00 51.48 52.79 54.04 55.00 61.00
C 65.29 61.06 65.34 48.94 76.00 47.00
C 74.86 49.54 71.17 50.69 72.00 54.00
C 75.82 50.01 82.58 46.34 88.00 50.00
C 88.25 50.25 89.00 50.00 89.00 50.00
C 89.20 49.69 89.88 49.26 90.00 49.00
C 89.75 48.43 89.73 46.40 89.00 46.00
C 89.00 46.00 88.25 46.25 88.00 46.00
C 86.35 44.40 86.75 41.60 88.00 40.00
C 88.00 39.50 88.00 39.00 88.00 39.00
C 87.19 36.68 87.50 33.14 85.00 32.00
C 84.65 33.17 85.33 33.84 85.00 35.00
C 84.68 36.11 84.67 37.84 83.00 38.00
C 83.29 35.51 81.36 33.61 82.00 31.00
C 81.73 29.43 81.43 28.45 81.00 27.00
C 79.04 29.52 81.81 33.83 82.00 37.00
C 80.28 39.27 78.38 39.82 76.00 41.00 Z"/>
</g>
<g fill="None" fill-opacity="0.0" stroke="#FEFFE8" stroke-opacity="0.00" stroke-width="0.3"><path d="
M 9.00 33.00 
C 9.88 31.25 10.44 29.83 11.00 28.00
C 9.61 29.24 8.16 31.63 9.00 33.00 Z"/>
</g>
<g fill="None" fill-opacity="0.0" stroke="#59632B" stroke-opacity="0.25" stroke-width="0.3"><path d="
M 9.00 33.00 
C 9.00 33.00 9.25 33.73 9.00 34.00
C 10.91 33.32 11.83 30.83 12.00 29.00
C 12.00 29.00 12.22 28.36 12.00 28.00
C 12.00 28.00 11.28 27.75 11.00 28.00
C 10.44 29.83 9.88 31.25 9.00 33.00 Z"/>
</g>
<g fill="None" fill-opacity="0.0" stroke="#AFB37C" stroke-opacity="0.98" stroke-width="0.3"><path d="
M 12.00 29.00 
C 11.83 30.83 10.91 33.32 9.00 34.00
C 7.85 35.24 8.83 34.44 9.00 36.00
C 9.11 36.99 8.93 38.01 9.00 39.00
C 10.43 40.71 13.46 39.82 15.00 42.00
C 17.47 41.63 19.31 40.29 17.00 37.00
C 19.89 37.93 20.45 43.50 25.00 43.00
C 23.27 37.49 17.20 34.38 18.00 28.00
C 15.81 27.86 13.86 27.91 12.00 29.00 Z"/>
</g>
<g fill="None" fill-opacity="0.0" stroke="#FEFFC9" stroke-opacity="0.00" stroke-width="0.3"><path d="
M 85.00 31.00 
C 85.05 29.30 84.32 28.79 83.00 28.00
C 83.30 29.24 84.36 30.15 85.00 31.00 Z"/>
</g>
<g fill="None" fill-opacity="0.0" stroke="#8B8A73" stroke-opacity="1.00" stroke-width="0.3"><path d="
M 23.00 29.00 
C 22.45 28.45 20.30 29.60 21.29 30.63 C 22.29 31.67 23.73 29.73 23.00 29.00 Z"/>
</g>
<g fill="None" fill-opacity="0.0" stroke="#495529" stroke-opacity="1.00" stroke-width="0.3"><path d="
M 49.00 31.00 
C 45.46 35.68 51.78 36.67 49.00 31.00 Z"/>
</g>
<g fill="None" fill-opacity="0.0" stroke="#4A5428" stroke-opacity="0.95" stroke-width="0.3"><path d="
M 85.00 35.00 
C 84.76 33.46 82.51 32.22 82.00 31.00
C 81.36 33.61 83.29 35.51 83.00 38.00
C 84.67 37.84 84.68 36.11 85.00 35.00 Z"/>
</g>
<g fill="None" fill-opacity="0.0" stroke="#A7AB76" stroke-opacity="1.00" stroke-width="0.3"><path d="
M 24.00 35.00 
C 25.08 35.85 24.42 36.19 26.00 37.00
C 27.32 37.68 28.38 37.17 29.00 39.00
C 29.40 40.82 27.55 41.54 27.00 43.00
C 29.84 44.00 29.25 46.44 33.00 46.00
C 33.45 43.41 34.30 41.07 36.00 39.00
C 32.01 38.08 35.85 34.73 32.00 35.00
C 32.00 36.00 32.00 37.00 32.00 38.00
C 28.55 38.34 28.84 34.31 29.00 32.00
C 26.75 33.35 26.97 35.08 24.00 35.00 Z"/>
</g>
<g fill="None" fill-opacity="0.0" stroke="#D1D39E" stroke-opacity="0.00" stroke-width="0.3"><path d="
M 6.00 39.00 
C 7.62 38.03 7.50 37.72 8.00 36.00
C 7.06 36.43 6.25 37.97 6.00 39.00 Z"/>
</g>
<g fill="None" fill-opacity="0.0" stroke="#4D4F18" stroke-opacity="0.24" stroke-width="0.3"><path d="
M 6.00 39.00 
C 6.00 39.00 6.00 39.50 6.00 40.00
C 6.00 40.50 6.00 41.00 6.00 41.00
C 5.94 40.94 7.98 40.01 8.00 40.00
C 8.26 39.76 9.01 39.14 9.00 39.00
C 8.93 38.01 9.11 36.99 9.00 36.00
C 9.00 36.00 8.41 35.81 8.00 36.00
C 7.50 37.72 7.62 38.03 6.00 39.00 Z"/>
</g>
<g fill="None" fill-opacity="0.0" stroke="#515C31" stroke-opacity="1.00" stroke-width="0.3"><path d="
M 50.00 39.00 
C 48.65 41.01 48.32 44.17 47.00 46.00
C 44.35 48.62 39.31 54.72 38.00 48.00
C 38.11 49.82 38.05 51.50 37.00 53.00
C 41.26 53.37 44.08 49.08 48.00 47.00
C 48.00 48.00 48.00 49.00 48.00 50.00
C 49.12 52.14 50.11 56.94 47.00 58.00
C 45.56 55.27 44.35 52.35 47.00 50.00
C 39.96 50.44 45.85 55.40 45.00 61.00 C 44.14 66.60 47.61 68.83 52.56 65.22 C 57.52 61.61 72.05 62.56 73.00 54.00
C 75.09 53.91 82.08 51.56 78.00 55.00
C 81.89 54.99 84.81 51.24 88.00 50.00
C 82.58 46.34 75.82 50.01 72.00 54.00
C 71.17 50.69 74.86 49.54 76.00 47.00
C 65.34 48.94 65.29 61.06 55.00 61.00
C 52.79 54.04 61.00 51.48 60.00 46.00
C 61.07 45.81 65.37 50.43 65.61 45.75 C 65.84 41.08 73.50 42.24 76.00 41.00
C 71.21 41.72 61.87 41.28 60.00 42.00
C 56.68 43.39 55.18 48.66 51.00 48.00
C 52.10 43.45 52.87 40.05 55.00 36.00
C 51.61 34.33 51.58 37.94 50.00 39.00 Z"/>
</g>
<g fill="None" fill-opacity="0.0" stroke="#595D23" stroke-opacity="1.00" stroke-width="0.3"><path d="
M 29.00 39.00 
C 28.38 37.17 27.32 37.68 26.00 37.00
C 26.32 37.53 24.69 40.17 26.75 40.19 C 28.80 40.21 29.20 39.98 29.00 39.00 Z"/>
</g>
<g fill="None" fill-opacity="0.0" stroke="#FFFFFF" stroke-opacity="0.00" stroke-width="0.3"><path d="
M 88.00 40.00 
C 88.00 41.67 88.00 43.33 88.00 45.00
C 89.78 42.72 88.48 41.18 88.00 39.00
C 88.00 39.00 88.00 39.50 88.00 40.00 Z"/>
</g>
<g fill="None" fill-opacity="0.0" stroke="#FDFF98" stroke-opacity="0.00" stroke-width="0.3"><path d="
M 5.00 43.00 
C 5.18 42.34 6.08 42.23 6.00 41.00
C 6.00 41.00 6.00 40.50 6.00 40.00
C 3.91 41.14 4.42 41.46 5.00 43.00 Z"/>
</g>
<g fill="None" fill-opacity="0.0" stroke="#52562F" stroke-opacity="0.98" stroke-width="0.3"><path d="
M 6.00 41.00 
C 6.08 42.23 5.18 42.34 5.00 43.00
C 5.16 43.44 5.03 44.50 5.00 45.00
C 4.94 45.94 4.90 47.07 5.00 48.00
C 5.12 49.10 5.21 50.15 6.00 51.00
C 6.24 51.26 6.91 51.65 7.00 52.00
C 7.97 53.32 9.29 55.28 11.00 56.00
C 10.71 54.46 8.72 49.99 12.00 52.00
C 13.60 64.11 26.67 66.52 36.00 71.00
C 36.00 70.00 36.00 69.00 36.00 68.00
C 33.30 64.63 34.00 56.84 35.00 53.00
C 33.34 51.26 29.77 51.02 30.00 48.00
C 32.05 49.35 33.96 50.70 36.00 52.00
C 34.75 47.72 27.51 48.51 28.00 44.00
C 25.09 49.65 21.25 43.19 18.00 45.00
C 19.26 48.46 31.30 49.13 30.00 55.00
C 26.75 54.09 22.57 46.59 22.00 53.00
C 23.35 48.34 12.61 47.07 17.00 45.00
C 15.16 42.62 11.36 44.61 9.00 45.00
C 8.21 43.51 7.56 41.78 8.00 40.00
C 7.98 40.01 5.94 40.94 6.00 41.00 Z"/>
</g>
<g fill="None" fill-opacity="0.0" stroke="#515D34" stroke-opacity="0.35" stroke-width="0.3"><path d="
M 88.00 46.00 
C 88.00 46.00 88.00 45.50 88.00 45.00
C 88.00 43.33 88.00 41.67 88.00 40.00
C 86.75 41.60 86.35 44.40 88.00 46.00 Z"/>
</g>
<g fill="None" fill-opacity="0.0" stroke="#FEFFC9" stroke-opacity="0.00" stroke-width="0.3"><path d="
M 5.00 48.00 
C 4.90 47.07 4.94 45.94 5.00 45.00
C 4.41 46.79 4.41 46.16 5.00 48.00 Z"/>
</g>
<g fill="None" fill-opacity="0.0" stroke="#343814" stroke-opacity="1.00" stroke-width="0.3"><path d="
M 18.00 45.00 
C 18.00 45.00 17.31 45.24 17.00 45.00
C 12.61 47.07 23.35 48.34 22.00 53.00
C 22.57 46.59 26.75 54.09 30.00 55.00
C 31.30 49.13 19.26 48.46 18.00 45.00 Z"/>
</g>
<g fill="None" fill-opacity="0.0" stroke="#BCBE9F" stroke-opacity="0.00" stroke-width="0.3"><path d="
M 90.00 49.00 
C 90.15 49.34 90.88 49.74 91.00 50.00
C 92.07 48.20 91.03 46.73 89.00 46.00
C 89.73 46.40 89.75 48.43 90.00 49.00 Z"/>
</g>
<g fill="None" fill-opacity="0.0" stroke="#353D25" stroke-opacity="1.00" stroke-width="0.3"><path d="
M 37.00 53.00 
C 36.65 52.97 36.19 52.32 36.00 52.00
C 33.96 50.70 32.05 49.35 30.00 48.00
C 29.77 51.02 33.34 51.26 35.00 53.00
C 34.00 56.84 33.30 64.63 36.00 68.00
C 37.41 69.77 44.51 73.15 42.00 68.00
C 43.05 71.34 44.26 72.65 45.00 68.00
C 46.69 69.21 45.42 73.64 49.00 73.00
C 49.82 69.19 54.30 66.26 58.00 66.00
C 56.16 73.41 46.79 75.50 50.00 83.00
C 46.06 78.07 38.23 79.12 38.00 86.00
C 35.92 83.90 37.50 79.85 37.00 77.00
C 33.61 77.20 29.79 81.37 34.00 86.00
C 33.11 88.14 31.94 90.76 29.00 90.00
C 35.61 90.76 28.46 93.57 32.00 96.00
L 38.00 96.00
C 38.74 94.61 42.32 94.35 43.00 96.00
L 50.00 96.00
C 46.06 93.87 50.03 92.25 53.00 93.00
C 46.87 90.22 53.29 90.36 51.00 85.00
C 53.39 86.05 53.46 90.10 57.00 89.00
C 50.11 90.16 56.84 92.77 58.00 96.00
L 89.00 96.00
C 87.00 92.59 82.45 92.74 79.00 92.00
C 81.52 88.08 74.49 88.52 76.00 84.00
C 79.83 83.37 84.99 85.28 88.00 83.00
C 81.20 81.76 72.62 78.28 71.00 71.00
C 70.42 74.44 69.69 76.48 70.00 79.00
C 64.78 79.18 66.32 74.32 67.00 71.00
C 69.51 73.25 71.14 65.80 76.25 64.25 C 81.36 62.69 82.59 54.44 88.00 54.00
C 88.60 52.97 88.21 51.23 89.00 50.00
C 89.00 50.00 88.25 50.25 88.00 50.00
C 84.81 51.24 81.89 54.99 78.00 55.00
C 82.08 51.56 75.09 53.91 73.00 54.00
C 72.05 62.56 57.52 61.61 52.56 65.22 C 47.61 68.83 44.14 66.60 45.00 61.00 C 45.85 55.40 39.96 50.44 47.00 50.00
C 47.50 49.97 48.00 50.00 48.00 50.00
C 48.00 49.00 48.00 48.00 48.00 47.00
C 44.08 49.08 41.26 53.37 37.00 53.00
M 65.00 72.00 
C 63.85 75.42 64.47 78.28 67.00 81.00
C 64.08 82.57 64.63 89.65 58.00 89.00
C 62.45 84.57 57.52 82.42 58.00 77.00
C 62.29 82.93 61.36 74.54 65.00 72.00
M 54.00 84.00 
C 48.19 81.61 54.49 77.77 54.00 84.00 Z"/>
</g>
<g fill="None" fill-opacity="0.0" stroke="#43502F" stroke-opacity="0.28" stroke-width="0.3"><path d="
M 89.00 50.00 
C 88.21 51.23 88.60 52.97 88.00 54.00
C 88.45 53.85 89.50 54.00 90.00 54.00
C 89.20 52.81 90.41 51.63 91.00 51.00
C 91.00 51.00 90.78 50.37 91.00 50.00
C 90.88 49.74 90.15 49.34 90.00 49.00
C 89.88 49.26 89.20 49.69 89.00 50.00 Z"/>
</g>
<g fill="None" fill-opacity="0.0" stroke="#7C8457" stroke-opacity="1.00" stroke-width="0.3"><path d="
M 48.00 50.00 
C 48.00 50.00 47.50 49.97 47.00 50.00
C 44.35 52.35 45.56 55.27 47.00 58.00
C 50.11 56.94 49.12 52.14 48.00 50.00 Z"/>
</g>
<g fill="None" fill-opacity="0.0" stroke="#443D1E" stroke-opacity="0.57" stroke-width="0.3"><path d="
M 5.00 53.00 
C 5.03 53.10 6.87 54.19 7.00 54.00
C 6.84 53.56 7.12 52.47 7.00 52.00
C 6.91 51.65 6.24 51.26 6.00 51.00
C 5.93 51.82 5.00 52.25 5.00 53.00 Z"/>
</g>
<g fill="None" fill-opacity="0.0" stroke="#2B2D1C" stroke-opacity="1.00" stroke-width="0.3"><path d="
M 7.00 52.00 
C 7.12 52.47 6.84 53.56 7.00 54.00
C 8.03 56.87 6.91 56.31 6.00 59.00
C 7.54 67.80 25.81 72.49 19.00 82.00
C 16.63 80.25 16.20 79.13 17.00 76.00
C 13.86 81.84 6.25 82.59 2.00 87.00
C 9.92 85.81 5.48 88.89 6.00 93.00
C 4.61 94.69 2.17 94.48 1.00 96.00
L 32.00 96.00
C 28.46 93.57 35.61 90.76 29.00 90.00
C 31.94 90.76 33.11 88.14 34.00 86.00
C 29.79 81.37 33.61 77.20 37.00 77.00
C 37.50 79.85 35.92 83.90 38.00 86.00
C 38.23 79.12 46.06 78.07 50.00 83.00
C 46.79 75.50 56.16 73.41 58.00 66.00
C 54.30 66.26 49.82 69.19 49.00 73.00
C 45.42 73.64 46.69 69.21 45.00 68.00
C 44.26 72.65 43.05 71.34 42.00 68.00
C 44.51 73.15 37.41 69.77 36.00 68.00
C 36.00 69.00 36.00 70.00 36.00 71.00
C 26.67 66.52 13.60 64.11 12.00 52.00
C 8.72 49.99 10.71 54.46 11.00 56.00
C 9.29 55.28 7.97 53.32 7.00 52.00 Z"/>
</g>
<g fill="None" fill-opacity="0.0" stroke="#FEFF8A" stroke-opacity="0.00" stroke-width="0.3"><path d="
M 90.00 54.00 
C 90.50 54.00 91.00 54.00 91.00 54.00
C 90.88 53.04 91.00 51.97 91.00 51.00
C 90.41 51.63 89.20 52.81 90.00 54.00 Z"/>
</g>
<g fill="None" fill-opacity="0.0" stroke="#504229" stroke-opacity="0.39" stroke-width="0.3"><path d="
M 6.00 55.00 
C 6.14 56.44 5.76 56.18 5.00 57.00
C 2.97 59.17 4.41 60.31 3.00 63.00
C 3.01 63.50 3.00 64.00 3.00 64.00
C 3.16 64.23 4.84 63.77 5.00 64.00
C 4.73 61.78 5.47 60.56 6.00 59.00
C 6.91 56.31 8.03 56.87 7.00 54.00
C 6.87 54.19 5.03 53.10 5.00 53.00
C 5.00 53.92 5.92 54.16 6.00 55.00 Z"/>
</g>
<g fill="None" fill-opacity="0.0" stroke="#FEFF6A" stroke-opacity="0.00" stroke-width="0.3"><path d="
M 5.00 57.00 
C 5.76 56.18 6.14 56.44 6.00 55.00
C 5.88 55.35 4.09 53.48 4.04 54.96 C 3.98 56.44 5.09 56.56 5.00 57.00 Z"/>
</g>
<g fill="None" fill-opacity="0.0" stroke="#65734B" stroke-opacity="0.98" stroke-width="0.3"><path d="
M 89.00 96.00 
L 90.00 96.00
C 88.33 91.82 84.91 88.04 80.00 87.00
C 85.98 83.15 95.96 87.84 94.00 96.00
L 96.00 96.00
L 96.00 86.00
C 95.20 85.63 93.32 84.57 95.00 84.00
C 94.74 83.83 93.10 83.08 93.00 83.00
C 91.11 82.21 86.61 78.19 87.00 76.00
C 86.07 76.96 86.30 78.33 85.00 79.00
C 82.73 77.11 79.34 75.11 79.00 72.00
C 75.67 81.00 71.77 65.86 78.00 63.00
C 80.33 64.94 82.24 64.37 85.00 64.00
C 86.21 67.03 87.82 70.45 85.00 73.00
C 86.58 74.46 88.30 72.23 90.00 74.00
C 90.05 73.50 90.00 73.00 90.00 73.00
C 89.70 70.90 89.59 67.19 90.00 65.00
C 90.17 64.11 90.02 62.91 90.00 62.00
C 89.96 60.55 89.85 52.57 91.00 57.00
C 92.52 55.51 91.22 55.73 91.00 54.00
C 91.00 54.00 90.50 54.00 90.00 54.00
C 89.50 54.00 88.45 53.85 88.00 54.00
C 82.59 54.44 81.36 62.69 76.25 64.25 C 71.14 65.80 69.51 73.25 67.00 71.00
C 66.32 74.32 64.78 79.18 70.00 79.00
C 69.69 76.48 70.42 74.44 71.00 71.00
C 72.62 78.28 81.20 81.76 88.00 83.00
C 84.99 85.28 79.83 83.37 76.00 84.00
C 74.49 88.52 81.52 88.08 79.00 92.00
C 82.45 92.74 87.00 92.59 89.00 96.00 Z"/>
</g>
<g fill="None" fill-opacity="0.0" stroke="#4D5731" stroke-opacity="0.29" stroke-width="0.3"><path d="
M 90.00 62.00 
C 90.00 62.00 90.87 62.22 91.00 62.00
C 91.43 61.29 91.00 58.85 91.00 58.00
C 91.00 58.00 90.75 57.24 91.00 57.00
C 89.85 52.57 89.96 60.55 90.00 62.00 Z"/>
</g>
<g fill="None" fill-opacity="0.0" stroke="#E0FF96" stroke-opacity="0.00" stroke-width="0.3"><path d="
M 91.00 62.00 
C 92.94 60.76 93.05 59.05 91.00 58.00
C 91.00 58.85 91.43 61.29 91.00 62.00 Z"/>
</g>
<g fill="None" fill-opacity="0.0" stroke="#AFB171" stroke-opacity="0.01" stroke-width="0.3"><path d="
M 3.00 64.00 
C 3.00 64.00 3.01 63.50 3.00 63.00
C 2.72 61.75 3.60 59.53 2.00 59.00
C 1.76 60.98 1.98 62.63 3.00 64.00 Z"/>
</g>
<g fill="None" fill-opacity="0.0" stroke="#4E5232" stroke-opacity="0.98" stroke-width="0.3"><path d="
M 5.00 64.00 
C 5.00 64.00 5.00 64.50 5.00 65.00
C 5.00 65.50 5.00 66.00 5.00 66.00
C 6.22 66.83 7.13 66.90 6.00 68.00
C 6.23 68.35 6.00 69.00 6.00 69.00
C 7.19 70.17 7.22 70.80 6.00 72.00
C 5.75 72.25 6.00 73.00 6.00 73.00
C 6.00 73.00 5.95 73.50 6.00 74.00
C 6.44 78.66 5.34 84.10 0.00 85.00
L 0.00 96.00
L 1.00 96.00
C 2.17 94.48 4.61 94.69 6.00 93.00
C 5.48 88.89 9.92 85.81 2.00 87.00
C 6.25 82.59 13.86 81.84 17.00 76.00
C 16.20 79.13 16.63 80.25 19.00 82.00
C 25.81 72.49 7.54 67.80 6.00 59.00
C 5.47 60.56 4.73 61.78 5.00 64.00
M 12.00 70.00 
C 12.16 72.31 12.45 76.34 9.00 76.00
C 9.12 73.54 7.92 69.02 12.00 70.00 Z"/>
</g>
<g fill="None" fill-opacity="0.0" stroke="#909F76" stroke-opacity="0.99" stroke-width="0.3"><path d="
M 87.00 76.00 
C 88.54 74.42 87.79 75.10 89.00 75.00
C 89.11 74.74 89.97 74.35 90.00 74.00
C 88.30 72.23 86.58 74.46 85.00 73.00
C 87.82 70.45 86.21 67.03 85.00 64.00
C 82.24 64.37 80.33 64.94 78.00 63.00
C 71.77 65.86 75.67 81.00 79.00 72.00
C 79.34 75.11 82.73 77.11 85.00 79.00
C 86.30 78.33 86.07 76.96 87.00 76.00 Z"/>
</g>
<g fill="None" fill-opacity="0.0" stroke="#FEFFD7" stroke-opacity="0.00" stroke-width="0.3"><path d="
M 90.00 65.00 
C 90.01 65.00 90.89 65.74 91.00 66.00
C 92.47 65.73 91.89 64.00 92.00 63.00
C 91.31 63.30 90.27 64.44 90.00 65.00 Z"/>
</g>
<g fill="None" fill-opacity="0.0" stroke="#ACAC00" stroke-opacity="0.01" stroke-width="0.3"><path d="
M 6.00 69.00 
C 6.00 69.00 6.23 68.35 6.00 68.00
C 5.49 67.23 4.92 67.31 5.00 66.00
C 5.00 66.00 5.00 65.50 5.00 65.00
C 1.71 65.76 4.88 70.17 6.00 69.00 Z"/>
</g>
<g fill="None" fill-opacity="0.0" stroke="#515A39" stroke-opacity="0.34" stroke-width="0.3"><path d="
M 90.00 73.00 
C 89.59 72.18 91.75 71.26 92.00 71.00
C 92.00 71.00 92.23 70.35 92.00 70.00
C 91.43 69.15 91.10 69.33 91.00 68.00
C 90.96 67.50 91.18 66.42 91.00 66.00
C 90.89 65.74 90.01 65.00 90.00 65.00
C 89.59 67.19 89.70 70.90 90.00 73.00 Z"/>
</g>
<g fill="None" fill-opacity="0.0" stroke="#384413" stroke-opacity="0.29" stroke-width="0.3"><path d="
M 6.00 68.00 
C 7.13 66.90 6.22 66.83 5.00 66.00
C 4.92 67.31 5.49 67.23 6.00 68.00 Z"/>
</g>
<g fill="None" fill-opacity="0.0" stroke="#FFFFFF" stroke-opacity="0.00" stroke-width="0.3"><path d="
M 92.00 70.00 
C 93.49 68.54 91.62 69.25 91.00 68.00
C 91.10 69.33 91.43 69.15 92.00 70.00 Z"/>
</g>
<g fill="None" fill-opacity="0.0" stroke="#7E8356" stroke-opacity="1.00" stroke-width="0.3"><path d="
M 12.00 70.00 
C 7.92 69.02 9.12 73.54 9.00 76.00
C 12.45 76.34 12.16 72.31 12.00 70.00 Z"/>
</g>
<g fill="None" fill-opacity="0.0" stroke="#ADAD00" stroke-opacity="0.00" stroke-width="0.3"><path d="
M 6.00 73.00 
C 6.00 73.00 5.75 72.25 6.00 72.00
C 4.14 71.43 3.28 74.27 6.00 73.00 Z"/>
</g>
<g fill="None" fill-opacity="0.0" stroke="#8CFF83" stroke-opacity="0.00" stroke-width="0.3"><path d="
M 90.00 73.00 
C 90.25 72.75 91.00 73.00 91.00 73.00
C 92.05 72.90 92.05 71.75 92.00 71.00
C 91.75 71.26 89.59 72.18 90.00 73.00 Z"/>
</g>
<g fill="None" fill-opacity="0.0" stroke="#67725C" stroke-opacity="1.00" stroke-width="0.3"><path d="
M 65.00 72.00 
C 61.36 74.54 62.29 82.93 58.00 77.00
C 57.52 82.42 62.45 84.57 58.00 89.00
C 64.63 89.65 64.08 82.57 67.00 81.00
C 64.47 78.28 63.85 75.42 65.00 72.00 Z"/>
</g>
<g fill="None" fill-opacity="0.0" stroke="#FFFFFF" stroke-opacity="0.00" stroke-width="0.3"><path d="
M 90.00 74.00 
C 89.97 74.35 89.11 74.74 89.00 75.00
C 88.82 75.42 89.13 76.54 89.00 77.00
C 89.08 76.61 90.68 73.67 91.00 73.00
C 91.00 73.00 90.25 72.75 90.00 73.00
C 90.00 73.00 90.05 73.50 90.00 74.00 Z"/>
</g>
<g fill="None" fill-opacity="0.0" stroke="#32351E" stroke-opacity="0.23" stroke-width="0.3"><path d="
M 5.00 75.00 
C 4.67 76.06 5.56 78.07 5.00 79.00
C 4.75 81.32 2.47 83.95 0.00 84.00
L 0.00 85.00
C 5.34 84.10 6.44 78.66 6.00 74.00
C 5.88 74.26 5.23 74.72 5.00 75.00 Z"/>
</g>
<g fill="None" fill-opacity="0.0" stroke="#5C6A45" stroke-opacity="0.50" stroke-width="0.3"><path d="
M 87.00 76.00 
C 86.61 78.19 91.11 82.21 93.00 83.00
C 93.00 83.00 93.23 82.16 93.00 82.00
C 90.91 80.54 88.48 78.81 89.00 77.00
C 89.13 76.54 88.82 75.42 89.00 75.00
C 87.79 75.10 88.54 74.42 87.00 76.00 Z"/>
</g>
<g fill="None" fill-opacity="0.0" stroke="#FFFFFF" stroke-opacity="0.00" stroke-width="0.3"><path d="
M 4.00 79.00 
C 4.16 78.77 5.00 79.00 5.00 79.00
C 5.56 78.07 4.67 76.06 5.00 75.00
C 4.23 75.94 3.31 77.47 4.00 79.00 Z"/>
</g>
<g fill="None" fill-opacity="0.0" stroke="#344225" stroke-opacity="0.13" stroke-width="0.3"><path d="
M 93.00 82.00 
C 92.02 80.73 91.02 79.14 90.00 78.00
C 89.77 77.74 88.94 77.29 89.00 77.00
C 88.48 78.81 90.91 80.54 93.00 82.00 Z"/>
</g>
<g fill="None" fill-opacity="0.0" stroke="#E8FFB7" stroke-opacity="0.00" stroke-width="0.3"><path d="
M 90.00 78.00 
C 91.02 79.14 92.02 80.73 93.00 82.00
C 94.33 80.08 91.58 77.68 90.00 78.00 Z"/>
</g>
<g fill="None" fill-opacity="0.0" stroke="#CBCD6B" stroke-opacity="0.01" stroke-width="0.3"><path d="
M 0.00 83.00 
L 0.00 84.00
C 2.47 83.95 4.75 81.32 5.00 79.00
C 5.00 79.00 4.16 78.77 4.00 79.00
C 2.96 80.48 1.79 82.19 0.00 83.00 Z"/>
</g>
<g fill="None" fill-opacity="0.0" stroke="#707767" stroke-opacity="1.00" stroke-width="0.3"><path d="
M 54.00 84.00 
C 54.49 77.77 48.19 81.61 54.00 84.00 Z"/>
</g>
<g fill="None" fill-opacity="0.0" stroke="#2E3413" stroke-opacity="0.15" stroke-width="0.3"><path d="
M 96.00 86.00 
L 96.00 84.00
C 96.00 84.00 95.35 84.23 95.00 84.00
C 93.32 84.57 95.20 85.63 96.00 86.00 Z"/>
</g>
<g fill="None" fill-opacity="0.0" stroke="#565E47" stroke-opacity="1.00" stroke-width="0.3"><path d="
M 50.00 96.00 
L 58.00 96.00
C 56.84 92.77 50.11 90.16 57.00 89.00
C 53.46 90.10 53.39 86.05 51.00 85.00
C 53.29 90.36 46.87 90.22 53.00 93.00
C 50.03 92.25 46.06 93.87 50.00 96.00 Z"/>
</g>
<g fill="None" fill-opacity="0.0" stroke="#81905E" stroke-opacity="1.00" stroke-width="0.3"><path d="
M 90.00 96.00 
L 94.00 96.00
C 95.96 87.84 85.98 83.15 80.00 87.00
C 84.91 88.04 88.33 91.82 90.00 96.00 Z"/>
</g>
<g fill="None" fill-opacity="0.0" stroke="#3A4029" stroke-opacity="0.73" stroke-width="0.3"><path d="
M 38.00 96.00 
L 43.00 96.00
C 42.32 94.35 38.74 94.61 38.00 96.00 Z"/>
</g>
<g fill="#000000" fill-opacity="0.00" stroke="None">
<path d="
M 0.00 83.00 
C 1.79 82.19 2.96 80.48 4.00 79.00
C 3.31 77.47 4.23 75.94 5.00 75.00
C 5.23 74.72 5.88 74.26 6.00 74.00
C 5.95 73.50 6.00 73.00 6.00 73.00
C 3.28 74.27 4.14 71.43 6.00 72.00
C 7.22 70.80 7.19 70.17 6.00 69.00
C 4.88 70.17 1.71 65.76 5.00 65.00
C 5.00 64.50 5.00 64.00 5.00 64.00
C 4.84 63.77 3.16 64.23 3.00 64.00
C 1.98 62.63 1.76 60.98 2.00 59.00
C 3.60 59.53 2.72 61.75 3.00 63.00
C 4.41 60.31 2.97 59.17 5.00 57.00
C 5.09 56.56 3.98 56.44 4.04 54.96 C 4.09 53.48 5.88 55.35 6.00 55.00
C 5.92 54.16 5.00 53.92 5.00 53.00
C 5.00 52.25 5.93 51.82 6.00 51.00
C 5.21 50.15 5.12 49.10 5.00 48.00
C 4.41 46.16 4.41 46.79 5.00 45.00
C 5.03 44.50 5.16 43.44 5.00 43.00
C 4.42 41.46 3.91 41.14 6.00 40.00
C 6.00 39.50 6.00 39.00 6.00 39.00
C 6.25 37.97 7.06 36.43 8.00 36.00
C 8.41 35.81 9.00 36.00 9.00 36.00
C 8.83 34.44 7.85 35.24 9.00 34.00
C 9.25 33.73 9.00 33.00 9.00 33.00
C 8.16 31.63 9.61 29.24 11.00 28.00
C 11.28 27.75 12.00 28.00 12.00 28.00
C 10.58 25.72 13.02 23.91 14.00 22.00
C 14.80 20.46 14.66 20.23 16.00 19.00
C 16.57 18.48 17.38 17.43 18.00 17.00
C 19.80 14.86 20.22 13.53 23.00 12.00
C 23.21 11.69 23.78 11.26 24.00 11.00
C 24.26 9.07 25.99 9.68 27.00 9.00
C 28.68 6.78 29.99 5.43 34.00 6.00
C 30.72 4.28 35.77 4.87 35.00 5.00
C 35.44 4.58 36.41 4.11 37.00 4.00
C 37.48 3.91 38.00 4.00 38.00 4.00
C 39.20 2.78 39.83 2.81 41.00 4.00
C 41.50 4.00 42.00 4.00 42.00 4.00
C 43.83 3.04 49.10 4.26 52.00 4.00
C 51.92 3.51 52.00 3.00 52.00 3.00
C 51.03 2.84 49.98 3.13 49.00 3.00
C 49.53 1.40 51.75 2.28 53.00 2.00
C 53.33 1.90 55.33 2.99 56.00 3.00
C 56.50 3.00 57.00 3.00 57.00 3.00
C 58.03 3.25 59.57 4.06 60.00 5.00
C 60.19 5.41 60.00 6.00 60.00 6.00
C 60.50 6.02 61.50 6.00 62.00 6.00
C 62.46 3.44 61.54 4.24 64.00 6.00
C 65.84 6.21 66.29 7.31 67.00 9.00
C 67.07 9.18 68.00 9.00 68.00 9.00
C 69.32 8.16 71.72 10.83 73.00 12.00
C 73.26 12.24 73.68 12.81 74.00 13.00
C 75.05 13.63 76.81 14.65 77.00 16.00
C 77.83 16.66 79.63 20.39 77.00 19.00
C 78.36 20.33 82.38 21.78 81.00 24.00
C 80.78 24.36 81.00 25.00 81.00 25.00
C 82.24 25.41 83.22 25.08 83.00 27.00
C 82.94 27.49 83.00 28.00 83.00 28.00
C 84.32 28.79 85.05 29.30 85.00 31.00
C 84.99 31.50 85.00 32.00 85.00 32.00
C 87.50 33.14 87.19 36.68 88.00 39.00
C 88.48 41.18 89.78 42.72 88.00 45.00
C 88.00 45.50 88.00 46.00 88.00 46.00
C 88.25 46.25 89.00 46.00 89.00 46.00
C 91.03 46.73 92.07 48.20 91.00 50.00
C 90.78 50.37 91.00 51.00 91.00 51.00
C 91.00 51.97 90.88 53.04 91.00 54.00
C 91.22 55.73 92.52 55.51 91.00 57.00
C 90.75 57.24 91.00 58.00 91.00 58.00
C 93.05 59.05 92.94 60.76 91.00 62.00
C 90.87 62.22 90.00 62.00 90.00 62.00
C 90.02 62.91 90.17 64.11 90.00 65.00
C 90.27 64.44 91.31 63.30 92.00 63.00
C 91.89 64.00 92.47 65.73 91.00 66.00
C 91.18 66.42 90.96 67.50 91.00 68.00
C 91.62 69.25 93.49 68.54 92.00 70.00
C 92.23 70.35 92.00 71.00 92.00 71.00
C 92.05 71.75 92.05 72.90 91.00 73.00
C 90.68 73.67 89.08 76.61 89.00 77.00
C 88.94 77.29 89.77 77.74 90.00 78.00
C 91.58 77.68 94.33 80.08 93.00 82.00
C 93.23 82.16 93.00 83.00 93.00 83.00
C 93.10 83.08 94.74 83.83 95.00 84.00
C 95.35 84.23 96.00 84.00 96.00 84.00
L 96.00 0.00
L 0.00 0.00
L 0.00 83.00
M 48.00 2.00 
C 44.01 4.79 41.81 0.90 48.00 2.00 Z"/>
</g>
<g fill="#009700" fill-opacity="0.01" stroke="None">
<path d="
M 48.00 2.00 
C 41.81 0.90 44.01 4.79 48.00 2.00 Z"/>
</g>
<g fill="#C56255" fill-opacity="0.01" stroke="None">
<path d="
M 52.00 3.00 
C 52.25 2.75 53.00 3.00 53.00 3.00
C 53.25 2.75 53.00 2.00 53.00 2.00
C 51.75 2.28 49.53 1.40 49.00 3.00
C 49.98 3.13 51.03 2.84 52.00 3.00 Z"/>
</g>
<g fill="#ADAE88" fill-opacity="0.00" stroke="None">
<path d="
M 53.00 3.00 
C 54.20 4.22 54.83 4.19 56.00 3.00
C 55.33 2.99 53.33 1.90 53.00 2.00
C 53.00 2.00 53.25 2.75 53.00 3.00 Z"/>
</g>
<g fill="#A1D300" fill-opacity="0.00" stroke="None">
<path d="
M 38.00 4.00 
C 39.00 4.00 40.00 4.00 41.00 4.00
C 39.83 2.81 39.20 2.78 38.00 4.00 Z"/>
</g>
<g fill="#616A36" fill-opacity="0.95" stroke="None">
<path d="
M 42.00 4.00 
C 41.01 5.15 34.93 7.65 37.00 4.00
C 36.41 4.11 35.44 4.58 35.00 5.00
C 34.74 5.24 34.31 6.04 34.00 6.00
C 29.99 5.43 28.68 6.78 27.00 9.00
C 26.71 9.38 26.52 11.47 24.00 12.00
C 23.74 12.71 22.51 14.57 22.00 15.00
C 20.98 17.67 22.32 22.09 18.00 23.00
C 19.06 25.32 17.29 29.05 20.00 31.00
C 19.47 26.46 24.08 22.69 27.25 26.75 C 30.41 30.82 24.81 36.07 21.00 33.00
C 22.33 35.06 22.24 33.61 24.00 35.00
C 26.97 35.08 26.75 33.35 29.00 32.00
C 28.84 34.31 28.55 38.34 32.00 38.00
C 32.00 37.00 32.00 36.00 32.00 35.00
C 33.13 33.83 33.83 31.51 36.00 32.00
C 31.51 18.42 41.88 6.76 55.00 6.00
C 55.20 5.90 55.00 5.00 55.00 5.00
C 54.02 4.80 52.25 5.53 52.00 4.00
C 49.10 4.26 43.83 3.04 42.00 4.00 Z"/>
</g>
<g fill="#434A1C" fill-opacity="0.24" stroke="None">
<path d="
M 52.00 4.00 
C 52.25 5.53 54.02 4.80 55.00 5.00
C 56.76 5.36 58.08 5.93 60.00 6.00
C 60.00 6.00 60.19 5.41 60.00 5.00
C 58.32 4.51 57.95 4.58 57.00 3.00
C 57.00 3.00 56.50 3.00 56.00 3.00
C 54.83 4.19 54.20 4.22 53.00 3.00
C 53.00 3.00 52.25 2.75 52.00 3.00
C 52.00 3.00 51.92 3.51 52.00 4.00 Z"/>
</g>
<g fill="#D2D3BD" fill-opacity="0.01" stroke="None">
<path d="
M 60.00 5.00 
C 59.57 4.06 58.03 3.25 57.00 3.00
C 57.95 4.58 58.32 4.51 60.00 5.00 Z"/>
</g>
<g fill="#FEFFC9" fill-opacity="0.00" stroke="None">
<path d="
M 34.00 6.00 
C 34.31 6.04 34.74 5.24 35.00 5.00
C 35.77 4.87 30.72 4.28 34.00 6.00 Z"/>
</g>
<g fill="#2C3211" fill-opacity="0.28" stroke="None">
<path d="
M 42.00 4.00 
C 42.00 4.00 41.50 4.00 41.00 4.00
C 40.00 4.00 39.00 4.00 38.00 4.00
C 38.00 4.00 37.48 3.91 37.00 4.00
C 34.93 7.65 41.01 5.15 42.00 4.00 Z"/>
</g>
<g fill="#ADAE88" fill-opacity="0.00" stroke="None">
<path d="
M 62.00 6.00 
C 62.50 6.00 63.51 5.94 64.00 6.00
C 61.54 4.24 62.46 3.44 62.00 6.00 Z"/>
</g>
<g fill="#85964D" fill-opacity="0.96" stroke="None">
<path d="
M 55.00 6.00 
C 44.18 11.37 33.59 19.81 39.00 34.00
C 44.04 33.72 42.33 42.12 44.00 46.00
C 45.28 45.31 47.22 42.89 47.00 46.00
C 48.32 44.17 48.65 41.01 50.00 39.00
C 48.12 40.26 46.53 41.63 44.00 41.00
C 46.59 38.89 45.39 35.55 47.00 33.00
C 46.47 34.17 44.34 35.65 44.00 37.00
C 38.40 31.09 44.21 22.16 45.00 15.00
C 47.80 12.69 54.81 13.23 54.00 8.00
C 60.20 7.27 66.56 11.36 72.00 15.00
C 71.20 14.23 70.62 12.87 70.00 12.00
C 69.00 10.93 67.89 10.19 67.00 9.00
C 66.29 7.31 65.84 6.21 64.00 6.00
C 63.51 5.94 62.50 6.00 62.00 6.00
C 61.50 6.00 60.50 6.02 60.00 6.00
C 58.08 5.93 56.76 5.36 55.00 5.00
C 55.00 5.00 55.20 5.90 55.00 6.00 Z"/>
</g>
<g fill="#798446" fill-opacity="0.97" stroke="None">
<path d="
M 32.00 35.00 
C 35.85 34.73 32.01 38.08 36.00 39.00
C 34.30 41.07 33.45 43.41 33.00 46.00
C 29.25 46.44 29.84 44.00 27.00 43.00
C 27.55 41.54 29.40 40.82 29.00 39.00
C 29.20 39.98 28.80 40.21 26.75 40.19 C 24.69 40.17 26.32 37.53 26.00 37.00
C 24.42 36.19 25.08 35.85 24.00 35.00
C 22.24 33.61 22.33 35.06 21.00 33.00
C 20.53 32.27 20.42 31.89 20.00 31.00
C 17.29 29.05 19.06 25.32 18.00 23.00
C 22.32 22.09 20.98 17.67 22.00 15.00
C 21.42 15.49 20.63 15.65 20.00 16.00
C 19.41 16.33 18.52 16.64 18.00 17.00
C 17.38 17.43 16.57 18.48 16.00 19.00
C 15.86 19.23 16.69 21.05 15.00 22.00
C 14.62 22.21 14.00 22.00 14.00 22.00
C 13.02 23.91 10.58 25.72 12.00 28.00
C 12.22 28.36 12.00 29.00 12.00 29.00
C 13.86 27.91 15.81 27.86 18.00 28.00
C 17.20 34.38 23.27 37.49 25.00 43.00
C 20.45 43.50 19.89 37.93 17.00 37.00
C 19.31 40.29 17.47 41.63 15.00 42.00
C 13.46 39.82 10.43 40.71 9.00 39.00
C 9.01 39.14 8.26 39.76 8.00 40.00
C 7.56 41.78 8.21 43.51 9.00 45.00
C 11.36 44.61 15.16 42.62 17.00 45.00
C 17.31 45.24 18.00 45.00 18.00 45.00
C 21.25 43.19 25.09 49.65 28.00 44.00
C 27.51 48.51 34.75 47.72 36.00 52.00
C 36.19 52.32 36.65 52.97 37.00 53.00
C 38.05 51.50 38.11 49.82 38.00 48.00
C 39.31 54.72 44.35 48.62 47.00 46.00
C 47.22 42.89 45.28 45.31 44.00 46.00
C 42.33 42.12 44.04 33.72 39.00 34.00
C 33.59 19.81 44.18 11.37 55.00 6.00
C 41.88 6.76 31.51 18.42 36.00 32.00
C 33.83 31.51 33.13 33.83 32.00 35.00 Z"/>
</g>
<g fill="#9AAC63" fill-opacity="0.98" stroke="None">
<path d="
M 47.00 33.00 
C 47.49 31.02 47.75 29.07 48.00 27.00
C 51.28 27.21 50.00 33.11 53.00 31.00
C 52.94 28.56 53.30 27.17 54.00 25.00
C 56.42 17.45 69.07 25.47 65.00 33.00
C 67.43 32.39 70.12 29.64 72.00 33.00
C 66.17 33.56 61.47 35.89 60.00 42.00
C 61.87 41.28 71.21 41.72 76.00 41.00
C 78.38 39.82 80.28 39.27 82.00 37.00
C 81.81 33.83 79.04 29.52 81.00 27.00
C 80.78 26.25 79.02 24.20 81.00 24.00
C 82.38 21.78 78.36 20.33 77.00 19.00
C 76.59 18.60 76.10 17.56 76.00 17.00
C 74.46 17.18 73.18 15.75 72.00 15.00
C 66.56 11.36 60.20 7.27 54.00 8.00
C 54.81 13.23 47.80 12.69 45.00 15.00
C 44.21 22.16 38.40 31.09 44.00 37.00
C 44.34 35.65 46.47 34.17 47.00 33.00 Z"/>
</g>
<g fill="#FDFF98" fill-opacity="0.00" stroke="None">
<path d="
M 68.00 9.00 
C 69.51 10.56 71.24 11.17 73.00 12.00
C 71.72 10.83 69.32 8.16 68.00 9.00 Z"/>
</g>
<g fill="#575C2E" fill-opacity="0.26" stroke="None">
<path d="
M 24.00 11.00 
C 23.93 11.49 24.00 12.00 24.00 12.00
C 26.52 11.47 26.71 9.38 27.00 9.00
C 25.99 9.68 24.26 9.07 24.00 11.00 Z"/>
</g>
<g fill="#758140" fill-opacity="0.56" stroke="None">
<path d="
M 70.00 12.00 
C 69.40 11.17 68.69 9.63 68.00 9.00
C 68.00 9.00 67.07 9.18 67.00 9.00
C 67.89 10.19 69.00 10.93 70.00 12.00 Z"/>
</g>
<g fill="#65732D" fill-opacity="0.36" stroke="None">
<path d="
M 70.00 12.00 
C 70.62 12.87 71.20 14.23 72.00 15.00
C 73.18 15.75 74.46 17.18 76.00 17.00
C 75.91 16.52 76.00 16.00 76.00 16.00
C 74.86 15.47 74.76 13.92 74.00 13.00
C 73.68 12.81 73.26 12.24 73.00 12.00
C 71.24 11.17 69.51 10.56 68.00 9.00
C 68.69 9.63 69.40 11.17 70.00 12.00 Z"/>
</g>
<g fill="#666C4A" fill-opacity="0.50" stroke="None">
<path d="
M 23.00 12.00 
C 22.21 13.17 21.00 15.14 20.00 16.00
C 20.63 15.65 21.42 15.49 22.00 15.00
C 22.51 14.57 23.74 12.71 24.00 12.00
C 24.00 12.00 23.93 11.49 24.00 11.00
C 23.78 11.26 23.21 11.69 23.00 12.00 Z"/>
</g>
<g fill="#5E612D" fill-opacity="0.08" stroke="None">
<path d="
M 18.00 17.00 
C 18.52 16.64 19.41 16.33 20.00 16.00
C 21.00 15.14 22.21 13.17 23.00 12.00
C 20.22 13.53 19.80 14.86 18.00 17.00 Z"/>
</g>
<g fill="#FEFF00" fill-opacity="0.00" stroke="None">
<path d="
M 76.00 16.00 
C 76.25 15.75 77.00 16.00 77.00 16.00
C 76.81 14.65 75.05 13.63 74.00 13.00
C 74.76 13.92 74.86 15.47 76.00 16.00 Z"/>
</g>
<g fill="#ADB49A" fill-opacity="0.02" stroke="None">
<path d="
M 76.00 17.00 
C 76.10 17.56 76.59 18.60 77.00 19.00
C 79.63 20.39 77.83 16.66 77.00 16.00
C 77.00 16.00 76.25 15.75 76.00 16.00
C 76.00 16.00 75.91 16.52 76.00 17.00 Z"/>
</g>
<g fill="#FEFF8A" fill-opacity="0.00" stroke="None">
<path d="
M 14.00 22.00 
C 14.00 22.00 14.62 22.21 15.00 22.00
C 15.43 21.32 15.25 19.68 16.00 19.00
C 14.66 20.23 14.80 20.46 14.00 22.00 Z"/>
</g>
<g fill="#4C4B17" fill-opacity="0.13" stroke="None">
<path d="
M 15.00 22.00 
C 16.69 21.05 15.86 19.23 16.00 19.00
C 15.25 19.68 15.43 21.32 15.00 22.00 Z"/>
</g>
<g fill="#6E7D4E" fill-opacity="1.00" stroke="None">
<path d="
M 54.00 25.00 
C 56.55 21.46 63.34 23.06 62.97 28.03 C 62.61 32.99 56.02 31.76 53.00 34.00
C 51.88 32.94 52.52 32.16 53.00 31.00
C 50.00 33.11 51.28 27.21 48.00 27.00
C 47.75 29.07 47.49 31.02 47.00 33.00
C 45.39 35.55 46.59 38.89 44.00 41.00
C 46.53 41.63 48.12 40.26 50.00 39.00
C 51.58 37.94 51.61 34.33 55.00 36.00
C 52.87 40.05 52.10 43.45 51.00 48.00
C 55.18 48.66 56.68 43.39 60.00 42.00
C 61.47 35.89 66.17 33.56 72.00 33.00
C 70.12 29.64 67.43 32.39 65.00 33.00
C 69.07 25.47 56.42 17.45 54.00 25.00
M 49.00 31.00 
C 51.78 36.67 45.46 35.68 49.00 31.00 Z"/>
</g>
<g fill="#343F27" fill-opacity="1.00" stroke="None">
<path d="
M 54.00 25.00 
C 53.30 27.17 52.94 28.56 53.00 31.00
C 52.52 32.16 51.88 32.94 53.00 34.00
C 56.02 31.76 62.61 32.99 62.97 28.03 C 63.34 23.06 56.55 21.46 54.00 25.00 Z"/>
</g>
<g fill="#5D6330" fill-opacity="0.24" stroke="None">
<path d="
M 81.00 27.00 
C 81.43 28.45 81.73 29.43 82.00 31.00
C 82.51 32.22 84.76 33.46 85.00 35.00
C 85.33 33.84 84.65 33.17 85.00 32.00
C 85.00 32.00 84.99 31.50 85.00 31.00
C 84.36 30.15 83.30 29.24 83.00 28.00
C 83.00 28.00 82.94 27.49 83.00 27.00
C 82.28 26.25 81.20 26.27 81.00 25.00
C 81.00 25.00 80.78 24.36 81.00 24.00
C 79.02 24.20 80.78 26.25 81.00 27.00 Z"/>
</g>
<g fill="#383820" fill-opacity="1.00" stroke="None">
<path d="
M 20.00 31.00 
C 20.42 31.89 20.53 32.27 21.00 33.00
C 24.81 36.07 30.41 30.82 27.25 26.75 C 24.08 22.69 19.47 26.46 20.00 31.00
M 23.00 29.00 
C 23.73 29.73 22.29 31.67 21.29 30.63 C 20.30 29.60 22.45 28.45 23.00 29.00 Z"/>
</g>
<g fill="#D2D200" fill-opacity="0.00" stroke="None">
<path d="
M 83.00 27.00 
C 83.22 25.08 82.24 25.41 81.00 25.00
C 81.20 26.27 82.28 26.25 83.00 27.00 Z"/>
</g>
<g fill="#758451" fill-opacity="0.96" stroke="None">
<path d="
M 76.00 41.00 
C 73.50 42.24 65.84 41.08 65.61 45.75 C 65.37 50.43 61.07 45.81 60.00 46.00
C 61.00 51.48 52.79 54.04 55.00 61.00
C 65.29 61.06 65.34 48.94 76.00 47.00
C 74.86 49.54 71.17 50.69 72.00 54.00
C 75.82 50.01 82.58 46.34 88.00 50.00
C 88.25 50.25 89.00 50.00 89.00 50.00
C 89.20 49.69 89.88 49.26 90.00 49.00
C 89.75 48.43 89.73 46.40 89.00 46.00
C 89.00 46.00 88.25 46.25 88.00 46.00
C 86.35 44.40 86.75 41.60 88.00 40.00
C 88.00 39.50 88.00 39.00 88.00 39.00
C 87.19 36.68 87.50 33.14 85.00 32.00
C 84.65 33.17 85.33 33.84 85.00 35.00
C 84.68 36.11 84.67 37.84 83.00 38.00
C 83.29 35.51 81.36 33.61 82.00 31.00
C 81.73 29.43 81.43 28.45 81.00 27.00
C 79.04 29.52 81.81 33.83 82.00 37.00
C 80.28 39.27 78.38 39.82 76.00 41.00 Z"/>
</g>
<g fill="#FEFFE8" fill-opacity="0.00" stroke="None">
<path d="
M 9.00 33.00 
C 9.88 31.25 10.44 29.83 11.00 28.00
C 9.61 29.24 8.16 31.63 9.00 33.00 Z"/>
</g>
<g fill="#59632B" fill-opacity="0.25" stroke="None">
<path d="
M 9.00 33.00 
C 9.00 33.00 9.25 33.73 9.00 34.00
C 10.91 33.32 11.83 30.83 12.00 29.00
C 12.00 29.00 12.22 28.36 12.00 28.00
C 12.00 28.00 11.28 27.75 11.00 28.00
C 10.44 29.83 9.88 31.25 9.00 33.00 Z"/>
</g>
<g fill="#AFB37C" fill-opacity="0.98" stroke="None">
<path d="
M 12.00 29.00 
C 11.83 30.83 10.91 33.32 9.00 34.00
C 7.85 35.24 8.83 34.44 9.00 36.00
C 9.11 36.99 8.93 38.01 9.00 39.00
C 10.43 40.71 13.46 39.82 15.00 42.00
C 17.47 41.63 19.31 40.29 17.00 37.00
C 19.89 37.93 20.45 43.50 25.00 43.00
C 23.27 37.49 17.20 34.38 18.00 28.00
C 15.81 27.86 13.86 27.91 12.00 29.00 Z"/>
</g>
<g fill="#FEFFC9" fill-opacity="0.00" stroke="None">
<path d="
M 85.00 31.00 
C 85.05 29.30 84.32 28.79 83.00 28.00
C 83.30 29.24 84.36 30.15 85.00 31.00 Z"/>
</g>
<g fill="#8B8A73" fill-opacity="1.00" stroke="None">
<path d="
M 23.00 29.00 
C 22.45 28.45 20.30 29.60 21.29 30.63 C 22.29 31.67 23.73 29.73 23.00 29.00 Z"/>
</g>
<g fill="#495529" fill-opacity="1.00" stroke="None">
<path d="
M 49.00 31.00 
C 45.46 35.68 51.78 36.67 49.00 31.00 Z"/>
</g>
<g fill="#4A5428" fill-opacity="0.95" stroke="None">
<path d="
M 85.00 35.00 
C 84.76 33.46 82.51 32.22 82.00 31.00
C 81.36 33.61 83.29 35.51 83.00 38.00
C 84.67 37.84 84.68 36.11 85.00 35.00 Z"/>
</g>
<g fill="#A7AB76" fill-opacity="1.00" stroke="None">
<path d="
M 24.00 35.00 
C 25.08 35.85 24.42 36.19 26.00 37.00
C 27.32 37.68 28.38 37.17 29.00 39.00
C 29.40 40.82 27.55 41.54 27.00 43.00
C 29.84 44.00 29.25 46.44 33.00 46.00
C 33.45 43.41 34.30 41.07 36.00 39.00
C 32.01 38.08 35.85 34.73 32.00 35.00
C 32.00 36.00 32.00 37.00 32.00 38.00
C 28.55 38.34 28.84 34.31 29.00 32.00
C 26.75 33.35 26.97 35.08 24.00 35.00 Z"/>
</g>
<g fill="#D1D39E" fill-opacity="0.00" stroke="None">
<path d="
M 6.00 39.00 
C 7.62 38.03 7.50 37.72 8.00 36.00
C 7.06 36.43 6.25 37.97 6.00 39.00 Z"/>
</g>
<g fill="#4D4F18" fill-opacity="0.24" stroke="None">
<path d="
M 6.00 39.00 
C 6.00 39.00 6.00 39.50 6.00 40.00
C 6.00 40.50 6.00 41.00 6.00 41.00
C 5.94 40.94 7.98 40.01 8.00 40.00
C 8.26 39.76 9.01 39.14 9.00 39.00
C 8.93 38.01 9.11 36.99 9.00 36.00
C 9.00 36.00 8.41 35.81 8.00 36.00
C 7.50 37.72 7.62 38.03 6.00 39.00 Z"/>
</g>
<g fill="#515C31" fill-opacity="1.00" stroke="None">
<path d="
M 50.00 39.00 
C 48.65 41.01 48.32 44.17 47.00 46.00
C 44.35 48.62 39.31 54.72 38.00 48.00
C 38.11 49.82 38.05 51.50 37.00 53.00
C 41.26 53.37 44.08 49.08 48.00 47.00
C 48.00 48.00 48.00 49.00 48.00 50.00
C 49.12 52.14 50.11 56.94 47.00 58.00
C 45.56 55.27 44.35 52.35 47.00 50.00
C 39.96 50.44 45.85 55.40 45.00 61.00 C 44.14 66.60 47.61 68.83 52.56 65.22 C 57.52 61.61 72.05 62.56 73.00 54.00
C 75.09 53.91 82.08 51.56 78.00 55.00
C 81.89 54.99 84.81 51.24 88.00 50.00
C 82.58 46.34 75.82 50.01 72.00 54.00
C 71.17 50.69 74.86 49.54 76.00 47.00
C 65.34 48.94 65.29 61.06 55.00 61.00
C 52.79 54.04 61.00 51.48 60.00 46.00
C 61.07 45.81 65.37 50.43 65.61 45.75 C 65.84 41.08 73.50 42.24 76.00 41.00
C 71.21 41.72 61.87 41.28 60.00 42.00
C 56.68 43.39 55.18 48.66 51.00 48.00
C 52.10 43.45 52.87 40.05 55.00 36.00
C 51.61 34.33 51.58 37.94 50.00 39.00 Z"/>
</g>
<g fill="#595D23" fill-opacity="1.00" stroke="None">
<path d="
M 29.00 39.00 
C 28.38 37.17 27.32 37.68 26.00 37.00
C 26.32 37.53 24.69 40.17 26.75 40.19 C 28.80 40.21 29.20 39.98 29.00 39.00 Z"/>
</g>
<g fill="#FFFFFF" fill-opacity="0.00" stroke="None">
<path d="
M 88.00 40.00 
C 88.00 41.67 88.00 43.33 88.00 45.00
C 89.78 42.72 88.48 41.18 88.00 39.00
C 88.00 39.00 88.00 39.50 88.00 40.00 Z"/>
</g>
<g fill="#FDFF98" fill-opacity="0.00" stroke="None">
<path d="
M 5.00 43.00 
C 5.18 42.34 6.08 42.23 6.00 41.00
C 6.00 41.00 6.00 40.50 6.00 40.00
C 3.91 41.14 4.42 41.46 5.00 43.00 Z"/>
</g>
<g fill="#52562F" fill-opacity="0.98" stroke="None">
<path d="
M 6.00 41.00 
C 6.08 42.23 5.18 42.34 5.00 43.00
C 5.16 43.44 5.03 44.50 5.00 45.00
C 4.94 45.94 4.90 47.07 5.00 48.00
C 5.12 49.10 5.21 50.15 6.00 51.00
C 6.24 51.26 6.91 51.65 7.00 52.00
C 7.97 53.32 9.29 55.28 11.00 56.00
C 10.71 54.46 8.72 49.99 12.00 52.00
C 13.60 64.11 26.67 66.52 36.00 71.00
C 36.00 70.00 36.00 69.00 36.00 68.00
C 33.30 64.63 34.00 56.84 35.00 53.00
C 33.34 51.26 29.77 51.02 30.00 48.00
C 32.05 49.35 33.96 50.70 36.00 52.00
C 34.75 47.72 27.51 48.51 28.00 44.00
C 25.09 49.65 21.25 43.19 18.00 45.00
C 19.26 48.46 31.30 49.13 30.00 55.00
C 26.75 54.09 22.57 46.59 22.00 53.00
C 23.35 48.34 12.61 47.07 17.00 45.00
C 15.16 42.62 11.36 44.61 9.00 45.00
C 8.21 43.51 7.56 41.78 8.00 40.00
C 7.98 40.01 5.94 40.94 6.00 41.00 Z"/>
</g>
<g fill="#515D34" fill-opacity="0.35" stroke="None">
<path d="
M 88.00 46.00 
C 88.00 46.00 88.00 45.50 88.00 45.00
C 88.00 43.33 88.00 41.67 88.00 40.00
C 86.75 41.60 86.35 44.40 88.00 46.00 Z"/>
</g>
<g fill="#FEFFC9" fill-opacity="0.00" stroke="None">
<path d="
M 5.00 48.00 
C 4.90 47.07 4.94 45.94 5.00 45.00
C 4.41 46.79 4.41 46.16 5.00 48.00 Z"/>
</g>
<g fill="#343814" fill-opacity="1.00" stroke="None">
<path d="
M 18.00 45.00 
C 18.00 45.00 17.31 45.24 17.00 45.00
C 12.61 47.07 23.35 48.34 22.00 53.00
C 22.57 46.59 26.75 54.09 30.00 55.00
C 31.30 49.13 19.26 48.46 18.00 45.00 Z"/>
</g>
<g fill="#BCBE9F" fill-opacity="0.00" stroke="None">
<path d="
M 90.00 49.00 
C 90.15 49.34 90.88 49.74 91.00 50.00
C 92.07 48.20 91.03 46.73 89.00 46.00
C 89.73 46.40 89.75 48.43 90.00 49.00 Z"/>
</g>
<g fill="#353D25" fill-opacity="1.00" stroke="None">
<path d="
M 37.00 53.00 
C 36.65 52.97 36.19 52.32 36.00 52.00
C 33.96 50.70 32.05 49.35 30.00 48.00
C 29.77 51.02 33.34 51.26 35.00 53.00
C 34.00 56.84 33.30 64.63 36.00 68.00
C 37.41 69.77 44.51 73.15 42.00 68.00
C 43.05 71.34 44.26 72.65 45.00 68.00
C 46.69 69.21 45.42 73.64 49.00 73.00
C 49.82 69.19 54.30 66.26 58.00 66.00
C 56.16 73.41 46.79 75.50 50.00 83.00
C 46.06 78.07 38.23 79.12 38.00 86.00
C 35.92 83.90 37.50 79.85 37.00 77.00
C 33.61 77.20 29.79 81.37 34.00 86.00
C 33.11 88.14 31.94 90.76 29.00 90.00
C 35.61 90.76 28.46 93.57 32.00 96.00
L 38.00 96.00
C 38.74 94.61 42.32 94.35 43.00 96.00
L 50.00 96.00
C 46.06 93.87 50.03 92.25 53.00 93.00
C 46.87 90.22 53.29 90.36 51.00 85.00
C 53.39 86.05 53.46 90.10 57.00 89.00
C 50.11 90.16 56.84 92.77 58.00 96.00
L 89.00 96.00
C 87.00 92.59 82.45 92.74 79.00 92.00
C 81.52 88.08 74.49 88.52 76.00 84.00
C 79.83 83.37 84.99 85.28 88.00 83.00
C 81.20 81.76 72.62 78.28 71.00 71.00
C 70.42 74.44 69.69 76.48 70.00 79.00
C 64.78 79.18 66.32 74.32 67.00 71.00
C 69.51 73.25 71.14 65.80 76.25 64.25 C 81.36 62.69 82.59 54.44 88.00 54.00
C 88.60 52.97 88.21 51.23 89.00 50.00
C 89.00 50.00 88.25 50.25 88.00 50.00
C 84.81 51.24 81.89 54.99 78.00 55.00
C 82.08 51.56 75.09 53.91 73.00 54.00
C 72.05 62.56 57.52 61.61 52.56 65.22 C 47.61 68.83 44.14 66.60 45.00 61.00 C 45.85 55.40 39.96 50.44 47.00 50.00
C 47.50 49.97 48.00 50.00 48.00 50.00
C 48.00 49.00 48.00 48.00 48.00 47.00
C 44.08 49.08 41.26 53.37 37.00 53.00
M 65.00 72.00 
C 63.85 75.42 64.47 78.28 67.00 81.00
C 64.08 82.57 64.63 89.65 58.00 89.00
C 62.45 84.57 57.52 82.42 58.00 77.00
C 62.29 82.93 61.36 74.54 65.00 72.00
M 54.00 84.00 
C 48.19 81.61 54.49 77.77 54.00 84.00 Z"/>
</g>
<g fill="#43502F" fill-opacity="0.28" stroke="None">
<path d="
M 89.00 50.00 
C 88.21 51.23 88.60 52.97 88.00 54.00
C 88.45 53.85 89.50 54.00 90.00 54.00
C 89.20 52.81 90.41 51.63 91.00 51.00
C 91.00 51.00 90.78 50.37 91.00 50.00
C 90.88 49.74 90.15 49.34 90.00 49.00
C 89.88 49.26 89.20 49.69 89.00 50.00 Z"/>
</g>
<g fill="#7C8457" fill-opacity="1.00" stroke="None">
<path d="
M 48.00 50.00 
C 48.00 50.00 47.50 49.97 47.00 50.00
C 44.35 52.35 45.56 55.27 47.00 58.00
C 50.11 56.94 49.12 52.14 48.00 50.00 Z"/>
</g>
<g fill="#443D1E" fill-opacity="0.57" stroke="None">
<path d="
M 5.00 53.00 
C 5.03 53.10 6.87 54.19 7.00 54.00
C 6.84 53.56 7.12 52.47 7.00 52.00
C 6.91 51.65 6.24 51.26 6.00 51.00
C 5.93 51.82 5.00 52.25 5.00 53.00 Z"/>
</g>
<g fill="#2B2D1C" fill-opacity="1.00" stroke="None">
<path d="
M 7.00 52.00 
C 7.12 52.47 6.84 53.56 7.00 54.00
C 8.03 56.87 6.91 56.31 6.00 59.00
C 7.54 67.80 25.81 72.49 19.00 82.00
C 16.63 80.25 16.20 79.13 17.00 76.00
C 13.86 81.84 6.25 82.59 2.00 87.00
C 9.92 85.81 5.48 88.89 6.00 93.00
C 4.61 94.69 2.17 94.48 1.00 96.00
L 32.00 96.00
C 28.46 93.57 35.61 90.76 29.00 90.00
C 31.94 90.76 33.11 88.14 34.00 86.00
C 29.79 81.37 33.61 77.20 37.00 77.00
C 37.50 79.85 35.92 83.90 38.00 86.00
C 38.23 79.12 46.06 78.07 50.00 83.00
C 46.79 75.50 56.16 73.41 58.00 66.00
C 54.30 66.26 49.82 69.19 49.00 73.00
C 45.42 73.64 46.69 69.21 45.00 68.00
C 44.26 72.65 43.05 71.34 42.00 68.00
C 44.51 73.15 37.41 69.77 36.00 68.00
C 36.00 69.00 36.00 70.00 36.00 71.00
C 26.67 66.52 13.60 64.11 12.00 52.00
C 8.72 49.99 10.71 54.46 11.00 56.00
C 9.29 55.28 7.97 53.32 7.00 52.00 Z"/>
</g>
<g fill="#FEFF8A" fill-opacity="0.00" stroke="None">
<path d="
M 90.00 54.00 
C 90.50 54.00 91.00 54.00 91.00 54.00
C 90.88 53.04 91.00 51.97 91.00 51.00
C 90.41 51.63 89.20 52.81 90.00 54.00 Z"/>
</g>
<g fill="#504229" fill-opacity="0.39" stroke="None">
<path d="
M 6.00 55.00 
C 6.14 56.44 5.76 56.18 5.00 57.00
C 2.97 59.17 4.41 60.31 3.00 63.00
C 3.01 63.50 3.00 64.00 3.00 64.00
C 3.16 64.23 4.84 63.77 5.00 64.00
C 4.73 61.78 5.47 60.56 6.00 59.00
C 6.91 56.31 8.03 56.87 7.00 54.00
C 6.87 54.19 5.03 53.10 5.00 53.00
C 5.00 53.92 5.92 54.16 6.00 55.00 Z"/>
</g>
<g fill="#FEFF6A" fill-opacity="0.00" stroke="None">
<path d="
M 5.00 57.00 
C 5.76 56.18 6.14 56.44 6.00 55.00
C 5.88 55.35 4.09 53.48 4.04 54.96 C 3.98 56.44 5.09 56.56 5.00 57.00 Z"/>
</g>
<g fill="#65734B" fill-opacity="0.98" stroke="None">
<path d="
M 89.00 96.00 
L 90.00 96.00
C 88.33 91.82 84.91 88.04 80.00 87.00
C 85.98 83.15 95.96 87.84 94.00 96.00
L 96.00 96.00
L 96.00 86.00
C 95.20 85.63 93.32 84.57 95.00 84.00
C 94.74 83.83 93.10 83.08 93.00 83.00
C 91.11 82.21 86.61 78.19 87.00 76.00
C 86.07 76.96 86.30 78.33 85.00 79.00
C 82.73 77.11 79.34 75.11 79.00 72.00
C 75.67 81.00 71.77 65.86 78.00 63.00
C 80.33 64.94 82.24 64.37 85.00 64.00
C 86.21 67.03 87.82 70.45 85.00 73.00
C 86.58 74.46 88.30 72.23 90.00 74.00
C 90.05 73.50 90.00 73.00 90.00 73.00
C 89.70 70.90 89.59 67.19 90.00 65.00
C 90.17 64.11 90.02 62.91 90.00 62.00
C 89.96 60.55 89.85 52.57 91.00 57.00
C 92.52 55.51 91.22 55.73 91.00 54.00
C 91.00 54.00 90.50 54.00 90.00 54.00
C 89.50 54.00 88.45 53.85 88.00 54.00
C 82.59 54.44 81.36 62.69 76.25 64.25 C 71.14 65.80 69.51 73.25 67.00 71.00
C 66.32 74.32 64.78 79.18 70.00 79.00
C 69.69 76.48 70.42 74.44 71.00 71.00
C 72.62 78.28 81.20 81.76 88.00 83.00
C 84.99 85.28 79.83 83.37 76.00 84.00
C 74.49 88.52 81.52 88.08 79.00 92.00
C 82.45 92.74 87.00 92.59 89.00 96.00 Z"/>
</g>
<g fill="#4D5731" fill-opacity="0.29" stroke="None">
<path d="
M 90.00 62.00 
C 90.00 62.00 90.87 62.22 91.00 62.00
C 91.43 61.29 91.00 58.85 91.00 58.00
C 91.00 58.00 90.75 57.24 91.00 57.00
C 89.85 52.57 89.96 60.55 90.00 62.00 Z"/>
</g>
<g fill="#E0FF96" fill-opacity="0.00" stroke="None">
<path d="
M 91.00 62.00 
C 92.94 60.76 93.05 59.05 91.00 58.00
C 91.00 58.85 91.43 61.29 91.00 62.00 Z"/>
</g>
<g fill="#AFB171" fill-opacity="0.01" stroke="None">
<path d="
M 3.00 64.00 
C 3.00 64.00 3.01 63.50 3.00 63.00
C 2.72 61.75 3.60 59.53 2.00 59.00
C 1.76 60.98 1.98 62.63 3.00 64.00 Z"/>
</g>
<g fill="#4E5232" fill-opacity="0.98" stroke="None">
<path d="
M 5.00 64.00 
C 5.00 64.00 5.00 64.50 5.00 65.00
C 5.00 65.50 5.00 66.00 5.00 66.00
C 6.22 66.83 7.13 66.90 6.00 68.00
C 6.23 68.35 6.00 69.00 6.00 69.00
C 7.19 70.17 7.22 70.80 6.00 72.00
C 5.75 72.25 6.00 73.00 6.00 73.00
C 6.00 73.00 5.95 73.50 6.00 74.00
C 6.44 78.66 5.34 84.10 0.00 85.00
L 0.00 96.00
L 1.00 96.00
C 2.17 94.48 4.61 94.69 6.00 93.00
C 5.48 88.89 9.92 85.81 2.00 87.00
C 6.25 82.59 13.86 81.84 17.00 76.00
C 16.20 79.13 16.63 80.25 19.00 82.00
C 25.81 72.49 7.54 67.80 6.00 59.00
C 5.47 60.56 4.73 61.78 5.00 64.00
M 12.00 70.00 
C 12.16 72.31 12.45 76.34 9.00 76.00
C 9.12 73.54 7.92 69.02 12.00 70.00 Z"/>
</g>
<g fill="#909F76" fill-opacity="0.99" stroke="None">
<path d="
M 87.00 76.00 
C 88.54 74.42 87.79 75.10 89.00 75.00
C 89.11 74.74 89.97 74.35 90.00 74.00
C 88.30 72.23 86.58 74.46 85.00 73.00
C 87.82 70.45 86.21 67.03 85.00 64.00
C 82.24 64.37 80.33 64.94 78.00 63.00
C 71.77 65.86 75.67 81.00 79.00 72.00
C 79.34 75.11 82.73 77.11 85.00 79.00
C 86.30 78.33 86.07 76.96 87.00 76.00 Z"/>
</g>
<g fill="#FEFFD7" fill-opacity="0.00" stroke="None">
<path d="
M 90.00 65.00 
C 90.01 65.00 90.89 65.74 91.00 66.00
C 92.47 65.73 91.89 64.00 92.00 63.00
C 91.31 63.30 90.27 64.44 90.00 65.00 Z"/>
</g>
<g fill="#ACAC00" fill-opacity="0.01" stroke="None">
<path d="
M 6.00 69.00 
C 6.00 69.00 6.23 68.35 6.00 68.00
C 5.49 67.23 4.92 67.31 5.00 66.00
C 5.00 66.00 5.00 65.50 5.00 65.00
C 1.71 65.76 4.88 70.17 6.00 69.00 Z"/>
</g>
<g fill="#515A39" fill-opacity="0.34" stroke="None">
<path d="
M 90.00 73.00 
C 89.59 72.18 91.75 71.26 92.00 71.00
C 92.00 71.00 92.23 70.35 92.00 70.00
C 91.43 69.15 91.10 69.33 91.00 68.00
C 90.96 67.50 91.18 66.42 91.00 66.00
C 90.89 65.74 90.01 65.00 90.00 65.00
C 89.59 67.19 89.70 70.90 90.00 73.00 Z"/>
</g>
<g fill="#384413" fill-opacity="0.29" stroke="None">
<path d="
M 6.00 68.00 
C 7.13 66.90 6.22 66.83 5.00 66.00
C 4.92 67.31 5.49 67.23 6.00 68.00 Z"/>
</g>
<g fill="#FFFFFF" fill-opacity="0.00" stroke="None">
<path d="
M 92.00 70.00 
C 93.49 68.54 91.62 69.25 91.00 68.00
C 91.10 69.33 91.43 69.15 92.00 70.00 Z"/>
</g>
<g fill="#7E8356" fill-opacity="1.00" stroke="None">
<path d="
M 12.00 70.00 
C 7.92 69.02 9.12 73.54 9.00 76.00
C 12.45 76.34 12.16 72.31 12.00 70.00 Z"/>
</g>
<g fill="#ADAD00" fill-opacity="0.00" stroke="None">
<path d="
M 6.00 73.00 
C 6.00 73.00 5.75 72.25 6.00 72.00
C 4.14 71.43 3.28 74.27 6.00 73.00 Z"/>
</g>
<g fill="#8CFF83" fill-opacity="0.00" stroke="None">
<path d="
M 90.00 73.00 
C 90.25 72.75 91.00 73.00 91.00 73.00
C 92.05 72.90 92.05 71.75 92.00 71.00
C 91.75 71.26 89.59 72.18 90.00 73.00 Z"/>
</g>
<g fill="#67725C" fill-opacity="1.00" stroke="None">
<path d="
M 65.00 72.00 
C 61.36 74.54 62.29 82.93 58.00 77.00
C 57.52 82.42 62.45 84.57 58.00 89.00
C 64.63 89.65 64.08 82.57 67.00 81.00
C 64.47 78.28 63.85 75.42 65.00 72.00 Z"/>
</g>
<g fill="#FFFFFF" fill-opacity="0.00" stroke="None">
<path d="
M 90.00 74.00 
C 89.97 74.35 89.11 74.74 89.00 75.00
C 88.82 75.42 89.13 76.54 89.00 77.00
C 89.08 76.61 90.68 73.67 91.00 73.00
C 91.00 73.00 90.25 72.75 90.00 73.00
C 90.00 73.00 90.05 73.50 90.00 74.00 Z"/>
</g>
<g fill="#32351E" fill-opacity="0.23" stroke="None">
<path d="
M 5.00 75.00 
C 4.67 76.06 5.56 78.07 5.00 79.00
C 4.75 81.32 2.47 83.95 0.00 84.00
L 0.00 85.00
C 5.34 84.10 6.44 78.66 6.00 74.00
C 5.88 74.26 5.23 74.72 5.00 75.00 Z"/>
</g>
<g fill="#5C6A45" fill-opacity="0.50" stroke="None">
<path d="
M 87.00 76.00 
C 86.61 78.19 91.11 82.21 93.00 83.00
C 93.00 83.00 93.23 82.16 93.00 82.00
C 90.91 80.54 88.48 78.81 89.00 77.00
C 89.13 76.54 88.82 75.42 89.00 75.00
C 87.79 75.10 88.54 74.42 87.00 76.00 Z"/>
</g>
<g fill="#FFFFFF" fill-opacity="0.00" stroke="None">
<path d="
M 4.00 79.00 
C 4.16 78.77 5.00 79.00 5.00 79.00
C 5.56 78.07 4.67 76.06 5.00 75.00
C 4.23 75.94 3.31 77.47 4.00 79.00 Z"/>
</g>
<g fill="#344225" fill-opacity="0.13" stroke="None">
<path d="
M 93.00 82.00 
C 92.02 80.73 91.02 79.14 90.00 78.00
C 89.77 77.74 88.94 77.29 89.00 77.00
C 88.48 78.81 90.91 80.54 93.00 82.00 Z"/>
</g>
<g fill="#E8FFB7" fill-opacity="0.00" stroke="None">
<path d="
M 90.00 78.00 
C 91.02 79.14 92.02 80.73 93.00 82.00
C 94.33 80.08 91.58 77.68 90.00 78.00 Z"/>
</g>
<g fill="#CBCD6B" fill-opacity="0.01" stroke="None">
<path d="
M 0.00 83.00 
L 0.00 84.00
C 2.47 83.95 4.75 81.32 5.00 79.00
C 5.00 79.00 4.16 78.77 4.00 79.00
C 2.96 80.48 1.79 82.19 0.00 83.00 Z"/>
</g>
<g fill="#707767" fill-opacity="1.00" stroke="None">
<path d="
M 54.00 84.00 
C 54.49 77.77 48.19 81.61 54.00 84.00 Z"/>
</g>
<g fill="#2E3413" fill-opacity="0.15" stroke="None">
<path d="
M 96.00 86.00 
L 96.00 84.00
C 96.00 84.00 95.35 84.23 95.00 84.00
C 93.32 84.57 95.20 85.63 96.00 86.00 Z"/>
</g>
<g fill="#565E47" fill-opacity="1.00" stroke="None">
<path d="
M 50.00 96.00 
L 58.00 96.00
C 56.84 92.77 50.11 90.16 57.00 89.00
C 53.46 90.10 53.39 86.05 51.00 85.00
C 53.29 90.36 46.87 90.22 53.00 93.00
C 50.03 92.25 46.06 93.87 50.00 96.00 Z"/>
</g>
<g fill="#81905E" fill-opacity="1.00" stroke="None">
<path d="
M 90.00 96.00 
L 94.00 96.00
C 95.96 87.84 85.98 83.15 80.00 87.00
C 84.91 88.04 88.33 91.82 90.00 96.00 Z"/>
</g>
<g fill="#3A4029" fill-opacity="0.73" stroke="None">
<path d="
M 38.00 96.00 
L 43.00 96.00
C 42.32 94.35 38.74 94.61 38.00 96.00 Z"/>
</g>
</svg>