<?xml version="1.0" encoding="UTF-8"?>
<!-- Generator: visioncortex VTracer -->
<svg id="svg" version="1.1" xmlns="http://www.w3.org/2000/svg" style="display: block;" viewBox="0 0 256 256"><path d="M0,0 L128,0 L128,3 L134,3 L136,4 L136,6 L144,8 L144,11 L148,12 L148,15 L150,15 L151,18 L155,19 L156,23 L159,23 L164,33 L164,39 L167,40 L168,51 L168,65 L166,73 L163,79 L159,79 L159,147 L156,147 L156,153 L155,155 L152,155 L152,158 L144,159 L144,161 L140,162 L117,162 L116,159 L104,156 L104,152 L84,150 L81,148 L28,147 L28,150 L20,151 L19,155 L14,155 L15,159 L8,159 L8,161 L4,162 L-19,162 L-20,159 L-27,157 L-32,154 L-32,151 L-35,151 L-36,147 L-37,82 L-40,78 L-40,75 L-43,75 L-44,67 L-46,67 L-47,63 L-47,51 L-46,47 L-44,47 L-44,38 L-44,35 L-40,34 L-40,29 L-36,27 L-36,21 L-32,20 L-31,16 L-28,15 L-28,12 L-24,10 L-20,10 L-20,8 L-17,7 L-16,5 L-8,4 L-8,2 Z M159,27 L160,29 Z M100,150 Z M151,154 Z " transform="translate(68,49)" style="fill: #140D04;"/><path d="M0,0 L108,0 L119,3 L128,9 L133,14 L137,19 L141,26 L143,34 L143,47 L140,49 L73,50 L72,67 L68,70 L40,70 L38,69 L37,50 L-32,49 L-35,46 L-35,33 L-31,22 L-23,11 L-13,4 Z " transform="translate(74,65)" style="fill: #D5BF96;"/><path d="M0,0 L54,0 L55,2 L56,17 L58,19 L64,20 L96,20 L104,19 L106,16 L107,3 L109,0 L159,0 L160,1 L160,65 L158,68 L141,68 L134,65 L130,60 L122,56 L38,56 L31,59 L27,63 L22,68 L4,68 L0,66 Z " transform="translate(48,123)" style="fill: #D3BD94;"/><path d="M0,0 L110,0 L119,4 L126,10 L130,18 L131,23 L71,24 L67,19 L61,16 L49,16 L42,20 L39,24 L-21,23 L-20,18 L-16,10 L-8,3 Z " transform="translate(73,78)" style="fill: #DAC399;"/><path d="M0,0 L30,0 L32,11 L37,17 L43,20 L92,20 L100,16 L104,11 L106,0 L134,0 L134,43 L129,43 L121,36 L111,32 L20,32 L10,37 L4,43 L0,43 Z " transform="translate(61,135)" style="fill: #D6C097;"/><path d="M0,0 L40,0 L41,16 L43,16 L43,18 L49,20 L97,20 L103,18 L105,13 L107,0 L144,0 L144,53 L133,53 L125,46 L116,42 L114,41 L30,41 L19,45 L12,53 L0,53 Z M5,5 L5,48 L10,47 L18,40 L25,37 L116,37 L126,41 L134,48 L139,48 L139,5 L111,5 L109,16 L104,22 L97,25 L48,25 L40,20 L37,16 L35,5 Z " transform="translate(56,130)" style="fill: #090807;"/><path d="M0,0 L110,0 L121,4 L129,10 L134,18 L137,26 L137,33 L77,34 L70,36 L65,28 L63,26 L54,25 L47,28 L43,34 L-25,33 L-24,22 L-19,13 L-15,8 L-4,1 Z M1,5 L-8,9 L-15,15 L-20,25 L-20,28 L40,29 L44,24 L50,21 L62,21 L69,25 L72,29 L132,28 L129,18 L122,10 L114,6 L111,5 Z " transform="translate(72,73)" style="fill: #0D0C09;"/><path d="M0,0 L8,0 L13,5 L13,14 L15,14 L15,16 L19,18 L22,21 L22,29 L18,32 L-10,32 L-12,31 L-13,13 L-10,14 L-9,16 L-7,14 L-11,11 L-11,9 L-5,9 L-4,3 Z " transform="translate(124,103)" style="fill: #CFB991;"/><path d="M0,0 L8,0 L13,5 L13,12 L10,22 L5,27 L2,27 L-3,21 L-5,12 L-5,5 Z " transform="translate(124,103)" style="fill: #070605;"/><path d="M0,0 L15,0 L18,5 L23,6 L23,9 L55,9 L55,10 L-23,10 L-23,9 L12,8 L2,3 L6,6 L8,8 L1,7 L-4,3 Z " transform="translate(109,156)" style="fill: #A69575;"/><path d="M0,0 L4,1 L5,3 L5,10 L2,17 L0,17 L-2,13 L-3,2 Z " transform="translate(127,107)" style="fill: #CDB790;"/></svg>