<?xml version="1.0" encoding="UTF-8"?>
<!-- Generator: visioncortex VTracer -->
<svg id="svg" version="1.1" xmlns="http://www.w3.org/2000/svg" style="display: block;" viewBox="0 0 256 256"><path d="M0,0 L32,0 L44,2 L44,4 L52,5 L52,8 L58,8 L60,9 L60,12 L65,14 L67,15 L67,17 L72,18 L72,20 L76,22 L76,24 L80,26 L83,32 L84,36 L87,36 L92,46 L92,52 L94,52 L96,56 L96,68 L98,68 L99,70 L99,188 L96,188 L95,192 L92,193 L-56,193 L-57,196 L-57,192 L-63,192 L-64,62 L-60,56 L-60,50 L-56,48 L-56,41 L-52,40 L-52,33 L-48,32 L-47,28 L-44,28 L-43,24 L-40,24 L-38,20 L-36,20 L-36,17 L-32,16 L-32,13 L-28,13 L-28,11 L-24,9 L-20,9 L-20,6 L-8,4 L-8,1 Z M71,20 Z M75,24 Z " transform="translate(112,32)" style="fill: #110F0C;"/><path d="M0,0 L32,0 L44,2 L44,4 L52,5 L52,8 L58,8 L60,9 L60,12 L65,14 L67,15 L67,17 L72,18 L72,20 L76,22 L76,24 L80,26 L83,32 L84,36 L87,36 L92,46 L92,52 L94,52 L96,56 L96,68 L98,68 L99,70 L99,188 L96,188 L95,192 L92,193 L-56,193 L-57,196 L-57,192 L-63,192 L-64,62 L-60,56 L-60,50 L-56,48 L-56,41 L-52,40 L-52,33 L-48,32 L-47,28 L-44,28 L-43,24 L-40,24 L-38,20 L-36,20 L-36,17 L-32,16 L-32,13 L-28,13 L-28,11 L-24,9 L-20,9 L-20,6 L-8,4 L-8,1 Z M7,16 L-8,20 L-22,28 L-30,35 L-38,46 L-44,57 L-47,70 L-47,175 L79,175 L79,70 L76,58 L69,44 L60,33 L48,24 L40,20 L25,16 Z M71,20 Z M75,24 Z " transform="translate(112,32)" style="fill: #2C1D09;"/><path d="M0,0 L18,0 L36,5 L48,13 L56,20 L65,33 L70,45 L72,54 L72,159 L-54,159 L-54,54 L-51,41 L-42,25 L-36,18 L-26,10 L-12,3 Z M0,13 L-14,18 L-24,25 L-31,32 L-37,42 L-41,53 L-41,55 L-34,55 L-34,61 L-52,61 L-52,71 L-44,71 L-44,75 L-33,75 L-33,79 L-36,79 L-36,88 L-34,88 L-34,111 L-37,111 L-37,119 L-36,121 L-34,121 L-34,124 L-44,124 L-44,129 L-52,129 L-52,138 L-33,138 L-33,144 L-45,144 L-45,151 L64,151 L64,144 L63,143 L52,143 L52,56 L59,56 L58,49 L50,33 L40,23 L31,17 L16,13 Z " transform="translate(119,48)" style="fill: #D0B991;"/><path d="M0,0 L21,0 L37,4 L50,11 L58,17 L69,28 L73,35 L78,45 L81,53 L83,64 L83,177 L-61,177 L-61,65 L-59,53 L-53,38 L-47,28 L-45,28 L-43,24 L-39,19 L-35,16 L-33,16 L-33,14 L-29,13 L-29,11 L-15,4 Z M2,9 L-13,13 L-27,21 L-35,28 L-43,39 L-49,50 L-52,63 L-52,168 L74,168 L74,63 L71,51 L64,37 L55,26 L43,17 L35,13 L20,9 Z " transform="translate(117,39)" style="fill: #030302;"/><path d="M0,0 L9,1 L20,7 L27,14 L33,24 L34,27 L34,118 L1,118 L0,117 Z " transform="translate(132,73)" style="fill: #D6BE95;"/><path d="M0,0 L3,2 L3,4 L6,5 L5,8 L10,8 L13,7 L14,12 L17,14 L17,16 L20,16 L20,79 L-106,79 L-106,60 L-99,59 L-101,61 L-99,63 L-99,72 L-95,71 L12,71 L11,64 L0,63 Z M13,13 Z M-95,73 Z M-93,74 Z " transform="translate(171,128)" style="fill: #CFB992;"/><path d="M0,0 L9,0 L9,118 L-9,118 L-9,4 Z " transform="translate(119,73)" style="fill: #D5BF95;"/><path d="M0,0 L32,0 L44,2 L44,4 L52,5 L52,8 L58,8 L60,9 L60,12 L65,14 L67,15 L67,17 L72,18 L72,20 L76,22 L76,24 L80,26 L83,32 L84,36 L87,36 L92,46 L92,52 L94,52 L96,56 L96,68 L98,68 L99,70 L99,188 L97,188 L97,80 L96,76 L95,80 L94,179 L93,179 L92,72 L90,72 L90,80 L88,81 L85,60 L80,47 L74,38 L71,33 L60,22 L44,13 L31,9 L26,8 L5,8 L-10,12 L-21,18 L-24,18 L-24,20 L-28,21 L-28,23 L-32,26 L-34,26 L-36,30 L-40,35 L-42,35 L-44,40 L-49,50 L-53,60 L-55,72 L-56,72 L-56,60 L-58,56 L-60,50 L-56,48 L-56,41 L-52,40 L-52,33 L-48,32 L-47,28 L-44,28 L-43,24 L-40,24 L-38,20 L-36,20 L-36,17 L-32,16 L-32,13 L-28,13 L-28,11 L-24,9 L-20,9 L-20,6 L-8,4 L-8,1 Z M71,20 Z M75,24 Z " transform="translate(112,32)" style="fill: #2A1C0B;"/><path d="M0,0 L8,1 L22,5 L34,13 L42,20 L51,33 L56,45 L58,54 L58,96 L55,96 L50,90 L51,87 L49,87 L48,89 L43,88 L39,81 L38,80 L38,56 L45,56 L40,42 L34,32 L26,24 L17,18 L2,14 L1,9 L1,6 L8,11 L4,7 L1,2 Z M51,93 Z " transform="translate(133,48)" style="fill: #D0BA93;"/><path d="M0,0 L2,1 L1,110 L-14,110 L-14,106 L-9,106 L-9,92 L-14,92 L-14,43 L-9,43 L-9,29 L-14,29 L-14,20 L-8,8 Z " transform="translate(104,80)" style="fill: #D4BE94;"/><path d="M0,0 L3,0 L4,8 L4,131 L0,131 L1,135 L3,136 L3,138 L11,137 L149,136 L151,135 L151,139 L3,139 L2,142 L2,138 L-4,138 L-5,8 Z " transform="translate(53,86)" style="fill: #2B1A09;"/><path d="M0,0 L3,1 L4,7 L9,7 L9,20 L5,20 L5,69 L10,69 L10,83 L4,83 L3,89 L1,89 L1,83 L-18,83 L-18,74 L-10,74 L-10,69 L0,69 L0,66 L-2,66 L-3,64 L-3,56 L0,56 L0,33 L-2,33 L-2,24 L1,24 L1,20 L-10,20 L-10,16 L-18,16 L-18,6 L0,6 Z " transform="translate(85,103)" style="fill: #0D0C09;"/><path d="M0,0 L7,0 L7,4 L18,4 L18,8 L15,8 L15,17 L17,17 L17,40 L14,40 L15,50 L17,50 L17,53 L7,53 L7,58 L-1,58 L-1,67 L18,67 L18,73 L6,73 L6,80 L8,80 L7,82 L4,81 L3,72 L0,69 L-3,69 L-3,17 L6,18 L4,15 L8,13 L12,15 L12,12 L10,11 L12,11 L12,5 L8,5 L7,7 L6,8 L4,8 L1,4 Z M6,14 Z M0,3 Z M6,8 Z M9,9 Z M8,82 L10,83 Z M10,83 Z " transform="translate(68,119)" style="fill: #D2BC94;"/><path d="M0,0 L4,0 L4,2 L9,3 L11,7 L13,8 L13,47 L-3,47 L-13,46 L-14,45 L-14,46 L-20,46 L-20,38 L-17,36 L-16,40 L-6,42 L-17,35 L-19,34 L-19,32 L-15,31 L-5,35 L-2,38 L-1,37 L-3,32 L-9,31 L-14,27 L-17,26 L-17,28 L-20,28 L-20,24 L-18,24 L-18,17 L-12,20 L-11,19 L-13,18 L-12,15 L-8,16 L-8,18 L-4,20 L-2,22 L2,21 L0,16 L-2,12 L-1,10 L1,10 L1,13 L4,11 L5,5 L0,2 Z M1,1 Z M5,11 L6,13 Z M1,39 Z M2,9 L4,9 L3,11 Z M2,11 Z M1,19 Z M-20,20 L-18,21 Z M-20,36 Z " transform="translate(153,144)" style="fill: #C7B38D;"/><path d="M0,0 L4,1 L4,4 L9,6 L11,7 L11,9 L16,10 L16,11 L9,10 L8,7 L5,7 L4,9 L2,7 L2,5 L0,4 Z M5,9 L7,10 L5,11 Z M7,10 Z M6,11 Z M8,11 L17,17 L19,18 L20,16 L24,18 L27,24 L28,28 L31,28 L36,38 L36,44 L38,44 L40,48 L40,60 L42,60 L43,62 L43,180 L41,180 L41,72 L40,68 L39,72 L38,171 L37,171 L36,64 L34,64 L34,72 L32,73 L29,52 L24,39 L18,30 L15,25 L9,19 Z M16,12 L20,14 L19,17 L16,16 Z " transform="translate(168,40)" style="fill: #291B08;"/><path d="M0,0 L8,0 L17,6 L25,15 L29,24 L29,36 L26,38 L25,32 L22,31 L22,29 L17,28 L16,26 L12,25 L11,22 L8,21 L3,22 L2,15 L-1,13 L0,9 L0,11 L5,10 L4,7 L6,7 L1,2 Z M0,2 Z M-1,16 L2,17 L1,21 L5,24 L6,28 L6,31 L3,29 L3,27 L1,27 L3,30 L7,34 L7,36 L9,36 L9,38 L16,39 L15,41 L13,41 L12,43 L14,44 L11,44 L10,44 L9,46 L4,44 L3,41 L-2,39 L-4,37 L-4,18 L-1,19 Z M0,26 Z M5,34 Z M9,39 L11,41 L11,39 Z M6,31 L8,31 L9,35 L6,33 Z M12,35 L12,38 Z M17,40 L22,42 L23,46 L20,47 L18,44 L16,41 Z M14,42 L17,43 L16,47 L21,48 L22,51 L17,49 L15,48 L15,46 L13,45 L15,45 Z M9,46 L18,51 L21,54 L21,56 L16,54 L13,51 L8,47 Z M23,46 L25,46 L25,48 L22,49 Z " transform="translate(137,76)" style="fill: #E3CB9F;"/><path d="M0,0 L9,0 L9,47 L5,46 L-2,42 L-2,40 L-6,39 L-1,44 L-2,47 L-1,49 L-4,49 L-6,44 L-9,43 L-9,4 Z M-1,49 L2,50 L3,54 L-3,53 L-5,58 L-7,56 L-6,53 L-4,53 L-3,51 Z M-5,58 Z " transform="translate(119,73)" style="fill: #DCC49A;"/><path d="M0,0 L4,1 L2,2 L4,4 L4,13 L8,12 L80,12 L81,15 L86,13 L92,17 L92,20 L-3,20 L-3,1 Z M8,14 Z M10,15 Z " transform="translate(68,187)" style="fill: #DFC79D;"/><path d="M0,0 L8,1 L22,5 L34,13 L42,20 L51,33 L53,37 L53,40 L51,40 L51,37 L47,36 L46,32 L47,29 L43,28 L39,24 L37,21 L36,23 L38,24 L37,26 L35,26 L35,24 L33,24 L35,27 L38,27 L38,30 L36,30 L36,32 L40,31 L45,36 L48,39 L45,39 L46,44 L49,43 L51,44 L50,46 L48,46 L47,48 L43,49 L35,33 L26,24 L17,18 L2,14 L1,9 L1,6 L8,11 L4,7 L1,2 Z M32,17 L32,20 L36,21 L35,17 Z M40,35 Z M38,26 L41,27 L38,27 Z M49,46 Z M48,47 Z " transform="translate(133,48)" style="fill: #C9B48C;"/><path d="M0,0 L9,1 L11,3 L6,4 L11,8 L10,13 L5,14 L4,16 L9,18 L6,20 L4,19 L4,22 L2,22 L1,99 L4,99 L4,97 L9,97 L9,99 L13,101 L18,103 L22,110 L18,109 L12,105 L5,103 L2,103 L2,105 L8,107 L16,113 L14,114 L7,113 L4,112 L3,108 L2,109 L1,117 L0,117 Z M5,5 Z M1,107 Z M7,20 Z M6,21 L8,22 L8,25 L14,23 L17,25 L17,28 L19,29 L17,29 L18,32 L14,32 L9,30 L10,27 L6,25 Z M20,30 L27,32 L27,34 L31,35 L32,40 L34,39 L34,51 L32,51 L32,49 L28,47 L28,42 L24,43 L24,39 L20,38 L18,32 L20,31 Z M22,110 L24,111 Z M5,115 L8,115 L8,117 L18,117 L18,118 L1,118 Z " transform="translate(132,73)" style="fill: #D6BF96;"/><path d="M0,0 Z M-6,1 L-5,3 L0,1 L1,6 L0,7 L5,9 L9,14 L10,17 L14,16 L14,39 L-17,39 L-19,35 L-25,33 L-28,34 L-29,31 L6,31 L5,24 L-6,23 Z M1,6 L3,7 Z " transform="translate(177,168)" style="fill: #DAC398;"/><path d="M0,0 L8,0 L4,1 L3,5 L-8,6 L-10,12 L-12,12 L-13,16 L-18,20 L-20,20 L-20,22 L-24,25 L-26,25 L-28,29 L-32,34 L-34,34 L-36,39 L-41,49 L-45,59 L-47,71 L-48,71 L-48,59 L-50,55 L-52,49 L-48,47 L-48,40 L-44,39 L-44,32 L-40,31 L-39,27 L-36,27 L-35,23 L-32,23 L-30,19 L-28,19 L-28,16 L-24,15 L-24,12 L-20,12 L-20,10 L-16,8 L-12,8 L-12,5 L0,3 Z M-16,15 Z " transform="translate(104,33)" style="fill: #281B06;"/><path d="M0,0 L1,3 L5,4 L6,6 L14,10 L14,24 L11,23 L11,20 L8,21 L3,26 L9,31 L6,32 L8,39 L4,39 L4,36 L2,32 L-2,30 L-4,30 L-4,6 L0,7 L1,12 L3,11 L3,8 L2,4 L-2,3 L-1,1 Z M4,12 L1,14 L1,16 L-1,16 L-2,20 L0,21 L2,16 L8,17 L6,12 Z M0,21 Z M12,22 Z M6,24 Z M4,25 Z M5,26 Z M9,32 Z M2,36 Z M3,40 L5,41 Z M9,37 L13,41 L13,44 L12,46 L10,46 L11,53 L11,56 L8,56 L8,54 L4,53 L4,51 L-2,49 L-2,45 L1,45 L0,42 L4,42 L8,43 L8,39 Z M8,40 Z M13,45 Z M11,56 L13,57 Z " transform="translate(114,110)" style="fill: #D3BB91;"/><path d="M0,0 L7,0 L10,2 L10,4 L13,4 L15,6 L16,3 L18,3 L19,7 L21,12 L23,12 L23,20 L18,18 L17,15 L14,14 L14,12 L10,12 L12,15 L16,17 L15,23 L14,21 L13,25 L11,25 L11,22 L9,26 L11,28 L13,33 L13,35 L8,35 L2,30 L3,28 L7,27 L6,23 L0,18 L1,16 L3,16 L7,21 L11,20 L8,19 L7,17 L-2,12 L-3,10 L-3,3 Z M11,31 Z M14,1 Z M15,2 Z M18,5 L21,6 L18,6 Z M11,13 Z M5,23 L5,26 Z M13,23 Z M15,23 Z " transform="translate(143,132)" style="fill: #CCB68E;"/><path d="M0,0 L3,0 L5,2 L5,5 L7,5 L8,7 L8,13 L10,13 L11,15 L11,133 L9,133 L9,25 L8,21 L7,25 L6,124 L5,124 L4,17 L2,17 L2,25 L0,26 L-3,5 L-3,1 Z " transform="translate(200,87)" style="fill: #190E05;"/><path d="M0,0 L2,0 L2,3 L7,4 L14,9 L13,11 L6,7 L3,7 L6,11 L5,18 L8,18 L8,20 L12,19 L13,21 L15,24 L15,42 L0,42 L0,38 L5,38 L5,24 L0,24 Z M2,5 L3,7 Z M3,11 L2,14 L5,13 Z M10,12 Z M8,13 L13,13 L15,15 L15,20 L10,18 Z " transform="translate(90,148)" style="fill: #DAC299;"/><path d="M0,0 Z M16,-1 L16,2 L15,4 L12,2 L12,0 Z M1,1 L3,1 L6,5 L5,7 L1,5 Z M6,2 L13,3 L15,6 L15,9 L19,10 L21,13 L23,13 L25,20 L21,18 L20,16 L16,15 L16,13 L9,12 L9,10 L7,10 L8,5 L6,4 Z M12,9 L12,12 Z M6,7 Z M5,8 Z M9,13 L11,13 L10,15 Z M12,14 L16,15 L12,17 Z M8,16 L15,20 L15,22 L20,24 L22,25 L23,22 L25,22 L25,20 L27,20 L27,22 L29,22 L29,42 L27,42 L25,37 L26,36 L24,35 L24,33 L22,33 L21,37 L19,36 L19,34 L16,34 L13,31 L8,29 L8,27 L5,26 L5,24 L9,23 L9,25 L12,26 L12,28 L16,25 L17,28 L21,30 L17,25 L10,21 Z M20,31 Z M21,32 Z M16,16 Z M14,17 L15,19 L13,18 Z M17,17 L20,17 L21,20 L23,21 L21,23 L16,21 Z M8,20 Z M23,35 Z M24,36 Z " transform="translate(137,102)" style="fill: #D6BF96;"/><path d="M0,0 L2,1 L0,2 Z M20,-5 L29,-5 L33,-1 L36,4 L38,7 L34,5 L30,3 L32,5 L32,8 L15,9 L1,14 L-1,15 L-7,15 L-7,13 L-9,12 L-7,12 L-8,8 L-1,9 L-2,7 L2,1 L5,0 L9,1 L10,-1 L13,-1 L13,1 L15,1 L15,3 L21,5 L21,7 L24,6 L20,2 L16,-4 L20,-3 Z M-2,4 Z " transform="translate(104,53)" style="fill: #E4CCA1;"/><path d="M0,0 L5,3 L5,5 L1,4 L12,12 L15,12 L15,14 L17,14 L17,17 L7,17 L7,22 L-1,22 L-1,31 L18,31 L18,37 L6,37 L6,44 L8,44 L7,46 L4,45 L3,36 L0,33 L-3,33 L-3,1 Z M8,46 L10,47 Z M10,47 Z " transform="translate(68,155)" style="fill: #D5BE94;"/><path d="M0,0 L3,2 L3,4 L6,5 L5,8 L10,8 L13,7 L14,12 L17,14 L17,16 L20,16 L20,36 L16,37 L16,34 L9,33 L10,29 L5,23 L5,21 L3,21 L1,17 L2,16 L1,9 L4,9 L0,8 Z M5,11 Z M13,13 Z M4,18 Z M15,32 Z " transform="translate(171,128)" style="fill: #E1C99D;"/><path d="M0,0 Z M-2,1 L0,1 L4,5 L7,4 L7,6 L12,7 L12,15 L8,16 L9,12 L5,10 L0,7 L0,5 L-2,5 Z M1,5 Z M1,1 Z M2,2 Z M-8,3 L0,9 L4,11 L9,17 L9,19 L12,19 L12,31 L9,31 L4,25 L5,22 L3,22 L2,24 L-3,23 L-7,16 L-8,15 Z M3,3 Z M5,28 Z " transform="translate(179,113)" style="fill: #CAB58D;"/><path d="M0,0 L4,0 L4,2 L9,3 L11,7 L13,8 L13,36 L10,35 L10,33 L8,33 L5,29 L0,26 L-1,24 L4,24 L8,28 L10,28 L8,22 L4,20 L5,18 L9,19 L9,21 L11,21 L8,17 L9,15 L11,16 L11,9 L7,9 L5,9 L5,5 L0,2 Z M1,1 Z M3,25 Z M10,29 Z M8,30 Z M9,31 Z M8,9 Z M-18,17 L-12,20 L-10,20 L-10,26 L-6,26 L-6,29 L-4,29 L-4,31 L1,32 L2,30 L6,33 L5,39 L-1,37 L-3,32 L-9,31 L-14,27 L-17,26 L-17,28 L-20,28 L-20,24 L-18,24 Z M2,17 L4,18 Z M-20,20 L-18,21 Z M3,22 Z M7,22 Z M4,23 L9,25 L10,27 L5,25 Z M-1,26 Z M8,34 Z M6,35 L10,35 L10,37 L5,37 Z M10,37 Z " transform="translate(153,144)" style="fill: #DAC399;"/><path d="M0,0 L4,1 L5,4 L7,5 L7,26 L4,23 L4,21 L3,19 L1,20 L-1,17 L-1,13 L1,12 L-2,8 L0,1 Z M2,13 Z M5,3 Z M-3,5 L-1,5 L-2,7 Z M-5,6 L-2,7 L-5,7 Z M-9,10 L-4,12 L-4,14 L-2,15 L-3,19 L-2,21 L-6,24 L-6,26 L-9,26 L-9,30 L-5,31 L-2,34 L-4,35 L-11,31 L-11,11 Z M-5,17 Z M0,20 Z M-2,21 L0,21 L2,26 L-4,24 L-4,22 Z M1,21 Z M5,26 L7,27 L7,32 L5,33 L3,27 Z M-2,35 L1,35 L1,37 L5,39 L4,41 L-2,36 Z " transform="translate(121,129)" style="fill: #E2CA9F;"/><path d="M0,0 L8,1 L7,4 L13,5 L12,4 L13,0 L15,0 L15,27 L9,26 L10,30 L12,31 L8,32 L8,30 L5,30 L5,23 L3,19 L7,18 L13,22 L9,18 L2,15 L2,12 L0,12 Z M13,1 Z M10,24 Z M2,17 Z M3,23 L5,25 L2,26 Z M12,31 L15,32 L14,36 L11,32 Z " transform="translate(90,136)" style="fill: #CEBA92;"/><path d="M0,0 L4,1 L9,6 L10,10 L10,13 L7,11 L7,9 L5,9 L7,12 L11,16 L11,18 L13,18 L13,20 L20,21 L19,23 L17,23 L16,25 L18,26 L15,26 L14,26 L13,28 L8,26 L7,23 L2,21 L0,19 Z M4,8 Z M9,16 Z M13,21 L15,23 L15,21 Z M10,13 L12,13 L13,17 L10,15 Z M16,17 L16,20 Z M21,22 L26,24 L27,28 L24,29 L22,26 L20,23 Z M18,24 L21,25 L20,29 L25,30 L26,33 L21,31 L19,30 L19,28 L17,27 L19,27 Z M13,28 L22,33 L25,36 L25,38 L20,36 L17,33 L12,29 Z M27,28 L29,28 L29,30 L26,31 Z " transform="translate(133,94)" style="fill: #F2DBAB;"/><path d="M0,0 L5,1 L13,7 L15,7 L15,4 L19,4 L19,9 L1,9 L2,19 L6,25 L7,24 L10,24 L14,24 L14,34 L8,33 L8,35 L8,38 L-1,36 L-1,2 Z M10,7 Z M2,22 Z M8,27 Z M11,28 L12,30 Z M5,0 Z M8,33 Z " transform="translate(66,100)" style="fill: #DDC49B;"/><path d="M0,0 L32,0 L33,3 L38,1 L44,5 L44,8 L4,8 L5,3 L0,2 Z M4,1 L7,4 L6,1 Z " transform="translate(116,199)" style="fill: #DDC49A;"/><path d="M0,0 Z M1,-3 L7,-2 L7,13 L-24,13 L-26,9 L-32,7 L-35,8 L-36,5 L-8,5 L-1,9 L2,8 L0,4 L3,4 L1,3 Z M0,7 Z " transform="translate(184,194)" style="fill: #D4BD93;"/><path d="M0,0 L9,0 L9,15 L7,14 L7,12 L2,12 L3,15 L7,17 L8,20 L6,21 L8,23 L2,22 L-3,16 L-9,15 L-9,4 Z " transform="translate(119,73)" style="fill: #D6C096;"/><path d="M0,0 Z M1,1 L3,1 L3,3 L8,5 L10,7 L10,18 L7,18 L7,27 L2,25 L-7,18 L-6,16 L-2,19 L-2,17 L-7,15 L-10,15 L-10,3 L-5,3 L-6,7 L-2,9 L2,11 L5,11 L5,10 L4,6 L1,3 Z M3,12 Z M7,12 Z M-5,5 L-2,6 L-5,6 Z " transform="translate(75,141)" style="fill: #DBC39A;"/><path d="M0,0 L1,0 L1,99 L4,99 L4,97 L9,97 L9,99 L13,101 L18,103 L22,110 L18,109 L12,105 L5,103 L2,103 L2,105 L8,107 L16,113 L14,114 L7,113 L4,112 L3,108 L2,109 L1,117 L0,117 Z M1,107 Z M22,110 L24,111 Z M5,115 L8,115 L8,117 L18,117 L18,118 L1,118 Z " transform="translate(132,73)" style="fill: #85765D;"/><path d="M0,0 L1,4 L-127,4 L-139,3 L-139,2 L-1,1 Z " transform="translate(203,221)" style="fill: #291A0C;"/><path d="M0,0 L2,4 L1,9 L-1,8 Z M-9,8 L-2,8 L8,17 L8,20 L11,20 L11,24 L6,23 L6,21 L2,20 L-1,18 L-3,22 L-1,22 L-1,24 L4,26 L8,29 L6,33 L1,29 L1,27 L-4,25 L-9,20 Z M-1,18 L4,22 L3,24 L-1,20 Z M0,22 Z M8,32 L11,32 L11,36 L8,36 L7,33 Z " transform="translate(180,96)" style="fill: #DAC39A;"/><path d="M0,0 L1,0 L1,90 L0,90 L0,80 L-2,80 L-2,8 L0,8 Z " transform="translate(108,92)" style="fill: #050403;"/><path d="M0,0 L5,0 L5,2 L2,2 L7,8 L7,10 L11,12 L6,12 L6,10 L0,8 L0,6 L-2,6 L-2,4 L-6,6 L-13,6 L-15,4 Z M-17,5 L-15,5 L-14,8 L-16,13 L-15,15 L-22,14 L-22,20 L-17,20 L-22,24 L-23,20 L-28,20 L-31,17 L-30,13 Z M-17,9 Z M-14,6 Z " transform="translate(119,48)" style="fill: #D9C399;"/><path d="M0,0 L4,2 L10,7 L10,10 L12,9 L16,12 L16,18 L-2,18 L-2,3 L3,5 L0,2 Z M6,7 Z M10,8 Z " transform="translate(112,173)" style="fill: #F1DAAB;"/><path d="M0,0 L7,1 L7,3 L11,4 L11,7 L14,8 L16,12 L18,14 L19,18 L21,19 L19,21 L13,16 L-1,8 L-1,3 L-3,2 L0,2 Z M3,2 Z M16,10 L19,10 L22,13 L27,14 L27,19 L22,17 L16,12 Z M17,13 Z M27,19 L32,21 L33,23 L29,22 Z " transform="translate(157,37)" style="fill: #291B09;"/><path d="M0,0 L8,0 L4,1 L3,5 L-8,6 L-10,12 L-12,12 L-13,16 L-18,20 L-20,20 L-20,22 L-24,25 L-26,24 L-25,18 L-28,19 L-28,16 L-24,15 L-24,12 L-20,12 L-20,10 L-16,8 L-12,8 L-12,5 L0,3 Z M-16,15 Z M-27,25 L-27,28 Z " transform="translate(104,33)" style="fill: #291D09;"/><path d="M0,0 L4,2 L4,9 L2,10 L4,14 L-2,12 L-7,10 L-9,5 L-8,3 L-6,3 L-6,6 L-2,2 L0,2 Z M1,2 Z M-2,4 L-1,6 Z M-5,2 L-3,2 L-4,4 Z M-5,4 Z M-20,8 L-15,9 L-15,11 L-11,13 L-9,15 L-3,16 L-7,19 L-10,19 L-11,15 L-17,13 L-20,11 Z M-5,11 L-3,11 L1,15 L3,19 L-5,15 Z M-6,12 Z M0,14 Z M-3,17 Z M-4,18 Z M-2,18 Z M-11,19 Z M-1,19 L4,19 L3,22 L-1,20 Z M-12,20 Z M-11,22 Z M3,22 Z " transform="translate(160,151)" style="fill: #D5BF96;"/><path d="M0,0 L3,0 L4,8 L3,125 L2,125 L2,22 L0,22 L0,14 L-2,6 Z " transform="translate(53,86)" style="fill: #291C0A;"/><path d="M0,0 L7,1 L5,2 L6,5 L2,5 L0,4 Z M8,3 L15,5 L15,7 L19,8 L20,13 L22,12 L22,24 L20,24 L20,22 L16,20 L16,15 L12,16 L12,12 L8,11 L6,5 L8,4 Z " transform="translate(144,100)" style="fill: #CEB991;"/><path d="M0,0 L24,0 L36,2 L36,4 L38,5 L36,8 L36,12 L18,8 L16,7 L16,5 L24,5 L24,3 L19,2 L0,1 Z M24,5 Z M38,5 L44,5 L40,7 Z M40,7 L43,8 Z " transform="translate(120,32)" style="fill: #2A1806;"/><path d="M0,0 L1,4 L2,10 L0,11 L0,126 L2,132 L4,134 L-2,134 L-3,4 Z " transform="translate(51,90)" style="fill: #2A1500;"/><path d="M0,0 Z M-6,1 L-5,3 L0,1 L1,6 L0,7 L5,9 L9,14 L10,18 L6,17 L3,18 L2,21 L-6,16 Z M-1,11 L-2,14 L4,15 L0,11 Z M-5,12 Z M6,14 Z M-3,16 Z M1,6 L3,7 Z M11,16 L14,16 L14,20 L10,19 Z " transform="translate(177,168)" style="fill: #E7CEA2;"/><path d="M0,0 L7,0 L11,4 L11,10 L7,14 L1,14 L-3,10 L-3,3 Z " transform="translate(143,132)" style="fill: #060504;"/><path d="M0,0 L3,0 L4,4 L0,3 Z M5,3 L7,4 L7,7 L11,9 L11,11 L15,12 L15,19 L19,20 L19,23 L22,23 L23,30 L16,27 L14,27 L13,22 L11,21 L15,21 L7,15 L4,15 L4,13 L6,13 L6,10 L2,11 L1,7 L3,7 L3,9 L5,9 L4,4 Z M6,9 L7,11 L9,10 Z M8,18 L10,19 Z M19,29 L21,30 Z " transform="translate(165,65)" style="fill: #D6C096;"/><path d="M0,0 L2,0 L3,80 L0,80 L-1,76 Z " transform="translate(168,112)" style="fill: #000000;"/><path d="M0,0 L7,3 L9,5 L9,16 L3,15 L4,19 L6,20 L2,21 L2,19 L-1,19 L-1,12 L-3,8 L1,7 L7,11 L3,7 L-4,4 L-4,1 Z M4,13 Z M-4,6 Z M-3,12 L-1,14 L-4,15 Z M6,20 L9,21 L8,25 L5,21 Z " transform="translate(96,147)" style="fill: #C5B28C;"/><path d="M0,0 L4,0 L4,2 L0,1 Z M4,2 L12,6 L13,7 L13,22 L-2,22 L-2,18 L3,18 L3,12 L6,14 L6,16 L9,17 L9,19 L11,19 L11,14 L4,9 Z M11,19 Z M10,16 Z " transform="translate(92,168)" style="fill: #C9B48E;"/><path d="M0,0 L3,0 L3,2 L5,2 L7,0 L7,12 L5,13 L4,16 L6,16 L5,18 L-1,16 L-1,14 L-8,12 L-8,4 L-5,4 L-4,2 L-1,4 L1,6 L3,6 L3,8 L5,7 L3,3 L1,3 Z M0,5 Z M5,13 Z " transform="translate(98,124)" style="fill: #DDC69B;"/><path d="M0,0 L16,0 L17,2 L21,3 L20,8 L4,8 L4,5 L-1,3 Z M20,1 L23,2 L22,4 Z " transform="translate(100,199)" style="fill: #D5BE95;"/><path d="M0,0 Z M4,-5 L7,-4 L9,0 L15,2 L17,2 L18,8 L23,8 L23,10 L17,11 L7,10 L6,9 L6,10 L0,10 L0,2 L3,0 L4,4 L14,6 L3,-1 L1,-2 L1,-4 Z " transform="translate(133,180)" style="fill: #E7CFA3;"/><path d="M0,0 L16,0 L16,3 L20,5 L20,8 L0,8 L0,5 L-3,4 L-1,2 L1,2 Z " transform="translate(84,199)" style="fill: #DDC59B;"/><path d="M0,0 L9,0 L13,4 L16,9 L18,12 L14,10 L10,8 L12,10 L12,13 L6,12 L2,10 L-4,1 L0,2 Z " transform="translate(124,48)" style="fill: #E5CDA1;"/><path d="M0,0 L2,1 L1,18 L0,16 L-2,16 L-3,18 L-7,17 L-10,17 L-12,15 L-6,6 Z M-7,18 L-5,18 L-6,20 Z " transform="translate(104,80)" style="fill: #D6C097;"/><path d="M0,0 L2,0 L2,2 L4,3 L2,3 L4,5 L6,7 L4,9 L0,8 L-3,9 L-6,7 L-3,10 L-3,12 L2,14 L7,19 L8,21 L4,21 L-2,18 L-2,15 L-4,14 L-4,12 L-9,12 L-9,4 L0,5 L-2,2 Z M0,1 Z M6,5 Z M6,7 L9,8 Z M9,8 Z M5,9 Z M-5,14 L-3,16 L-5,16 Z M4,21 Z M8,21 Z " transform="translate(74,132)" style="fill: #CCB790;"/><path d="M0,0 L4,3 L7,3 L7,6 L5,6 L5,8 L9,7 L14,12 L17,15 L14,15 L15,20 L18,19 L20,20 L19,22 L17,22 L16,24 L12,25 L4,9 L-1,3 Z M9,11 Z M-3,1 Z M-2,2 Z M7,2 L10,3 L7,3 Z M18,22 Z M17,23 Z " transform="translate(164,72)" style="fill: #CFBA91;"/><path d="M0,0 L20,0 L28,5 L28,8 L12,8 L10,4 L4,2 L1,3 Z " transform="translate(148,199)" style="fill: #D4BD94;"/><path d="M0,0 L2,1 Z M2,1 L3,3 L7,4 L10,3 L15,4 L15,16 L11,15 L4,11 L4,9 L2,9 L1,4 L-1,4 L-1,2 Z " transform="translate(113,104)" style="fill: #D6BF95;"/><path d="M0,0 L6,1 L8,4 L8,24 L2,22 L1,20 L-4,18 L-3,15 L-1,14 L-1,11 L3,11 L3,13 L5,11 L4,9 L6,8 L0,1 Z " transform="translate(120,84)" style="fill: #E8D3A7;"/><path d="M0,0 L4,2 L3,4 L0,2 L1,9 L3,9 L2,11 L2,14 L4,14 L7,19 L3,20 L1,18 L1,22 L4,25 L7,27 L7,30 L11,33 L10,35 L6,34 L7,32 L3,33 L2,30 L-1,29 L-1,1 Z M4,4 Z M3,11 L5,12 Z M7,19 L9,21 L6,20 Z " transform="translate(172,135)" style="fill: #D2BB93;"/><path d="M0,0 L5,0 L4,4 L8,6 L12,8 L15,11 L14,13 L9,11 L4,6 L5,11 L10,12 L11,16 L17,22 L17,24 L12,22 L3,15 L4,13 L8,16 L8,14 L3,12 L0,12 Z M5,2 L8,3 L5,3 Z " transform="translate(65,144)" style="fill: #DDC69B;"/><path d="M0,0 Z M16,-1 L16,2 L15,4 L12,2 L12,0 Z M1,1 L3,1 L6,5 L5,7 L1,5 Z M6,2 L13,3 L15,6 L15,9 L19,10 L21,13 L23,13 L25,20 L21,18 L20,16 L16,15 L16,13 L9,12 L9,10 L7,10 L8,5 L6,4 Z M12,9 L12,12 Z M6,7 Z M5,8 Z M9,13 L11,13 L10,15 Z M25,20 L27,21 L25,23 Z " transform="translate(137,102)" style="fill: #D7C097;"/><path d="M0,0 L2,0 L0,5 L-6,20 L-8,32 L-9,32 L-9,20 L-11,16 L-13,10 L-8,5 L-7,4 L-1,4 Z " transform="translate(65,72)" style="fill: #271A09;"/><path d="M0,0 L7,4 L12,9 L12,11 L17,13 L19,16 L16,17 L12,13 L9,13 L6,10 L0,11 Z M4,7 L5,9 Z M4,12 L9,13 L12,16 L12,18 L15,19 L8,18 L3,13 Z " transform="translate(133,113)" style="fill: #CAB58F;"/><path d="M0,0 L4,4 L9,5 L9,10 L5,12 L5,6 L-1,5 L0,9 L-3,7 L-2,2 Z M-7,9 L-1,10 L1,9 L1,13 L4,14 L2,17 L-6,16 L-10,12 Z " transform="translate(87,63)" style="fill: #CEB992;"/><path d="M0,0 L7,4 L15,11 L24,24 L26,28 L26,31 L24,31 L24,28 L20,27 L19,23 L20,20 L16,19 L12,15 L10,12 L8,11 L8,8 L4,9 L2,4 L0,3 Z " transform="translate(160,57)" style="fill: #C9B38C;"/><path d="M0,0 L4,1 L3,3 Z M-12,0 L-9,0 L-5,5 L-1,4 L-4,3 L-4,1 L-1,0 L1,4 L1,9 L-1,9 L-1,6 L-3,10 L-1,12 L1,17 L1,19 L-4,19 L-10,14 L-9,12 L-5,11 L-6,7 L-12,2 Z M-1,15 Z M2,3 Z M-7,7 L-7,10 Z " transform="translate(155,148)" style="fill: #D1BB93;"/><path d="M0,0 L5,1 L1,3 Z M7,2 L13,2 L13,14 L8,14 L10,13 L8,9 Z M-1,2 L2,4 L2,8 L4,5 L7,5 L6,9 L8,9 L8,13 L2,11 L-2,9 L-2,7 L-4,7 L-6,3 L-1,5 Z M0,5 L-1,7 L1,7 Z M6,10 Z " transform="translate(178,142)" style="fill: #EED6A7;"/><path d="M0,0 L19,0 L19,6 L7,6 L7,13 L9,13 L8,15 L5,14 L4,5 Z M9,15 L11,16 Z M11,16 Z " transform="translate(67,186)" style="fill: #A69575;"/><path d="M0,0 L5,1 L6,4 L9,6 L7,12 L3,14 L-2,13 L-2,1 Z M10,7 Z M9,8 Z M11,8 L13,10 L11,10 Z " transform="translate(112,87)" style="fill: #E1C99C;"/><path d="M0,0 L12,0 L13,3 L18,1 L24,5 L24,8 L8,8 L6,3 L5,2 L0,1 Z M9,3 Z M5,2 Z " transform="translate(136,199)" style="fill: #ECD6A9;"/><path d="M0,0 L4,1 L5,6 L8,7 L5,10 L3,10 L4,15 L5,20 L6,26 L2,24 L0,24 Z " transform="translate(110,116)" style="fill: #CEBA94;"/><path d="M0,0 L3,0 L3,8 L1,11 L-1,10 L-1,8 L-3,9 L-3,11 L-1,11 L2,16 L-1,16 L-1,14 L-7,13 L-8,13 L-12,12 L-12,8 L-6,8 L-6,4 L-2,3 L-2,1 Z M-4,14 Z " transform="translate(102,116)" style="fill: #DCC59B;"/><path d="M0,0 L1,3 L3,3 L6,7 L3,8 L6,9 L6,12 L-1,12 L-1,1 Z M7,8 L11,10 L11,12 L15,14 L16,17 L14,18 L16,20 L10,19 L5,13 L8,12 Z " transform="translate(111,76)" style="fill: #D0BA92;"/><path d="M0,0 L3,2 L3,4 L6,5 L5,8 L10,8 L13,7 L13,12 L11,13 L11,15 L7,16 L6,18 L4,18 L4,16 L2,16 L1,9 L4,9 L0,8 Z M5,11 Z " transform="translate(171,128)" style="fill: #E2CA9F;"/><path d="M0,0 L6,0 L7,4 L11,6 L10,9 L6,7 L1,2 Z M7,5 Z M0,2 Z M4,7 L6,7 L5,9 Z M7,9 L14,10 L16,15 L13,14 L13,12 L8,11 Z M16,15 L18,15 L17,17 Z M20,16 L23,17 L24,20 L26,22 L22,25 L15,21 L14,17 L18,18 L21,19 Z " transform="translate(137,76)" style="fill: #DFC79D;"/><path d="M0,0 L7,0 L7,4 L18,4 L18,8 L15,8 L15,17 L17,18 L12,17 L12,12 L10,11 L12,11 L12,5 L8,5 L7,7 L6,8 L4,8 L1,4 Z M0,3 Z M6,8 Z M9,9 Z " transform="translate(68,119)" style="fill: #CBB58E;"/><path d="M0,0 Z M-2,1 L0,1 L4,5 L7,4 L7,6 L12,7 L12,15 L8,16 L9,12 L5,10 L0,7 L0,5 L-2,5 Z M1,5 Z M1,1 Z M2,2 Z M3,3 Z M-3,8 Z M-2,9 L0,10 Z M0,10 L4,11 L8,17 L4,17 L4,15 L2,15 Z " transform="translate(179,113)" style="fill: #CDB891;"/><path d="M0,0 L6,2 L9,5 L9,7 L12,8 L11,10 L18,10 L15,13 L17,13 L17,15 L10,14 L2,8 L-1,7 Z M4,7 Z M9,14 Z " transform="translate(67,93)" style="fill: #CDB790;"/><path d="M0,0 L4,0 L4,2 L9,3 L11,7 L13,8 L13,24 L9,24 L7,22 L4,20 L5,18 L9,19 L9,21 L11,21 L8,17 L9,15 L11,16 L11,9 L7,9 L5,9 L5,5 L0,2 Z M1,1 Z M8,9 Z M2,17 L4,18 Z M7,22 Z " transform="translate(153,144)" style="fill: #E4C99F;"/><path d="M0,0 L22,1 L27,3 L27,5 L3,5 L-3,3 Z M27,5 L29,6 Z " transform="translate(117,32)" style="fill: #291C0A;"/><path d="M0,0 L2,0 L4,4 L5,9 L5,12 L5,15 L2,15 L2,19 L6,20 L9,23 L7,24 L0,20 Z M2,6 Z M9,24 L12,24 L12,26 L16,28 L15,30 L9,25 Z " transform="translate(110,140)" style="fill: #D5BE96;"/><path d="M0,0 L5,5 L2,7 L6,8 L9,12 L9,14 L10,17 L13,17 L13,19 L11,19 L10,21 L5,20 L1,13 L0,12 Z " transform="translate(171,116)" style="fill: #CDB890;"/><path d="M0,0 L1,3 L5,4 L6,6 L14,10 L14,18 L9,17 L4,12 L2,9 L2,6 L2,4 L-2,3 L-1,1 Z " transform="translate(114,110)" style="fill: #CFB991;"/><path d="M0,0 L3,3 L6,10 L6,18 L3,17 L3,14 L-3,13 L-10,7 L-10,5 L-8,5 L-8,7 L-2,9 L0,9 L0,6 L-1,2 Z M-4,13 Z " transform="translate(160,90)" style="fill: #DDC59B;"/><path d="M0,0 L5,2 L9,5 L9,7 L13,8 L14,11 L16,11 L16,17 L10,13 L0,4 L0,1 Z M6,12 Z M7,13 L11,14 L10,16 Z " transform="translate(112,168)" style="fill: #CCB78F;"/><path d="M0,0 L4,1 L9,6 L10,10 L18,10 L18,11 L0,11 Z " transform="translate(110,180)" style="fill: #D3BE94;"/><path d="M0,0 L1,3 L5,0 L9,2 L10,6 L8,12 L5,12 L5,10 L2,9 L2,7 L-3,7 L-2,2 Z M6,2 Z " transform="translate(71,88)" style="fill: #E0C99D;"/><path d="M0,0 L3,1 L-2,6 L-3,8 L-1,9 L-2,12 L-6,13 L-6,14 L-4,18 L-5,20 L-12,21 L-13,17 L-9,16 L-9,9 L-5,8 L-4,4 L-1,4 Z M-4,9 Z M-9,17 L-10,19 L-8,19 Z M-13,21 Z " transform="translate(69,56)" style="fill: #2C2006;"/><path d="M0,0 L7,3 L6,6 L8,6 L8,8 L13,10 L17,13 L15,17 L10,13 L10,11 L5,9 L0,4 Z M17,16 L20,16 L20,20 L17,20 L16,17 Z " transform="translate(171,112)" style="fill: #DFC79C;"/><path d="M0,0 L3,1 L3,21 L1,21 L-1,16 L0,15 L-2,14 L-1,12 L1,13 L1,9 L-1,8 L-6,5 L-4,4 L-3,1 Z M-2,5 Z M-3,10 Z M-3,14 Z M-2,15 Z " transform="translate(163,123)" style="fill: #E4CDA0;"/><path d="M0,0 L5,0 L5,2 L2,2 L7,8 L7,10 L11,12 L6,12 L6,10 L0,8 L0,6 L-2,6 L-2,4 L-6,6 L-10,5 L-12,3 Z M-9,4 Z " transform="translate(119,48)" style="fill: #CDB790;"/><path d="M0,0 Z M1,1 L5,3 L9,3 L11,9 L15,10 L14,16 L5,11 L4,7 L0,4 Z " transform="translate(146,56)" style="fill: #C6B28B;"/><path d="M0,0 L4,0 L3,3 L8,4 L8,5 L-4,6 L-4,2 L0,2 Z M11,4 L28,4 L24,5 L24,7 L4,7 L8,5 Z " transform="translate(112,32)" style="fill: #291B07;"/><path d="M0,0 L3,1 L4,6 L7,6 L7,14 L4,14 L3,16 L-3,7 L-8,5 L-6,4 L1,6 L1,8 L3,7 L3,5 L1,4 L0,4 L-3,3 Z " transform="translate(184,170)" style="fill: #DCC59B;"/><path d="M0,0 L4,1 L5,4 L7,5 L7,14 L0,11 L-2,8 L0,1 Z M5,3 Z M-3,5 L-1,5 L-2,7 Z M-5,6 L-2,7 L-5,7 Z " transform="translate(121,129)" style="fill: #E3CB9F;"/><path d="M0,0 L2,1 L2,3 L4,3 L4,5 L9,7 L11,11 L19,13 L20,16 L22,17 L21,22 L19,23 L18,17 L15,16 L15,14 L10,13 L9,11 L5,10 L4,7 L-1,6 L-1,1 Z M12,12 Z " transform="translate(144,91)" style="fill: #E6CEA2;"/><path d="M0,0 L5,1 L7,8 L11,9 L11,11 L13,12 L12,14 L10,14 L10,12 L7,13 L5,15 L2,13 L2,6 L-1,4 Z M1,3 Z " transform="translate(158,60)" style="fill: #CEB990;"/><path d="M0,0 L4,1 L7,4 L11,6 L11,9 L14,9 L15,16 L8,13 L6,13 L5,8 L3,7 L7,7 L0,2 Z M0,4 L2,5 Z M11,15 L13,16 Z " transform="translate(173,79)" style="fill: #DFC79E;"/><path d="M0,0 L3,0 L4,6 L6,5 L10,9 L10,14 L7,14 L5,12 L5,9 L-2,10 L-2,1 Z M4,4 Z " transform="translate(198,78)" style="fill: #2A1C0A;"/><path d="M0,0 Z M-2,1 L3,1 L5,3 L5,8 L0,6 Z M-8,4 L-5,4 L-5,6 L-2,6 L-2,8 L2,7 L3,9 L5,12 L4,15 L1,14 L1,12 L-3,11 L-4,7 L-8,6 Z " transform="translate(100,160)" style="fill: #E8D3A7;"/><path d="M0,0 L2,4 L1,9 L-1,8 Z M-9,8 L-2,8 L0,15 L-2,16 L-3,18 L-8,18 L-9,16 Z M-2,9 Z " transform="translate(180,96)" style="fill: #D8C198;"/><path d="M0,0 L12,0 L10,1 L10,3 L16,5 L16,8 L4,8 L5,3 L0,2 Z M4,1 L7,4 L6,1 Z " transform="translate(116,199)" style="fill: #E6CEA4;"/><path d="M0,0 L5,0 L7,1 L7,4 L13,5 L12,8 L14,9 L10,9 L7,7 L7,5 L2,3 Z M14,5 Z M13,6 Z M13,10 L22,15 L25,18 L25,20 L20,18 L17,15 L12,11 Z " transform="translate(133,112)" style="fill: #E6D0A3;"/><path d="M0,0 L4,1 L5,7 L0,8 L0,10 L2,11 L-4,11 L-4,15 L-8,16 L-10,14 L-5,14 L-5,7 L-3,7 L-2,3 L0,3 Z M-4,4 Z " transform="translate(100,109)" style="fill: #D1BB93;"/><path d="M0,0 L5,1 L5,3 L8,3 L7,5 L3,7 L1,7 Z M6,5 L13,5 L12,9 L15,8 L17,14 L14,14 L13,12 L7,10 Z " transform="translate(171,164)" style="fill: #D8C197;"/><path d="M0,0 L1,0 L1,34 L0,34 L0,24 L-2,24 L-2,4 L0,4 Z " transform="translate(108,148)" style="fill: #020101;"/><path d="M0,0 L5,1 L10,5 L14,8 L15,12 L6,8 L0,8 Z " transform="translate(90,140)" style="fill: #CFBA92;"/><path d="M0,0 L5,1 L13,7 L15,7 L15,4 L19,4 L19,9 L2,9 L2,6 L5,6 L0,4 Z M7,7 Z M10,7 Z M5,0 Z " transform="translate(66,100)" style="fill: #E4CBA0;"/><path d="M0,0 Z M1,1 L6,3 L7,5 L2,3 Z M-4,2 L1,2 L5,6 L7,6 L7,2 L10,2 L10,14 L8,14 L2,7 L-3,4 Z M0,3 Z M7,7 Z M5,8 Z M6,9 Z M-4,4 Z " transform="translate(156,166)" style="fill: #E7CD9F;"/><path d="M0,0 L7,0 L12,3 L13,8 L13,10 L10,10 L10,8 L6,7 L6,5 L0,3 Z M13,10 L15,11 Z " transform="translate(112,156)" style="fill: #C0AD86;"/><path d="M0,0 L2,4 L4,7 L1,7 L-4,8 L-6,9 L-4,5 Z M3,2 L9,3 L10,10 L8,11 L5,10 Z M11,7 Z M10,8 Z M-7,9 Z M7,11 Z M6,12 Z " transform="translate(83,66)" style="fill: #C7B28C;"/><path d="M0,0 L5,2 L8,5 L4,6 L4,4 L0,4 Z M15,0 L18,1 L18,12 L11,11 L11,9 L9,9 L8,6 L12,7 L15,8 L14,3 Z M14,6 Z " transform="translate(110,160)" style="fill: #CBB68F;"/><path d="M0,0 L7,1 L5,2 L6,5 L2,5 L0,4 Z M8,3 L13,5 L12,10 L16,12 L15,14 L10,12 L8,11 L6,5 L8,4 Z M13,6 Z " transform="translate(144,100)" style="fill: #C7B28C;"/><path d="M0,0 L4,1 L2,2 L4,4 L4,15 L2,14 L2,12 L0,12 L0,9 L-3,9 L-3,1 Z " transform="translate(68,187)" style="fill: #E4CCA1;"/><path d="M0,0 Z M1,2 L5,4 L5,6 L0,6 L4,10 L6,11 L4,15 L-4,12 L-4,4 Z " transform="translate(137,120)" style="fill: #D7C197;"/><path d="M0,0 L2,0 L2,2 L6,4 L12,8 L12,12 L14,12 L13,14 L7,12 L7,10 L0,8 Z " transform="translate(90,128)" style="fill: #D1BB92;"/><path d="M0,0 L4,1 L9,6 L10,10 L10,13 L7,11 L7,9 L4,8 L4,6 L1,7 L0,6 Z M2,8 L5,9 L2,9 Z M6,12 L8,13 L8,15 L5,14 Z M10,13 L12,13 L13,17 L10,15 Z M8,15 L10,16 Z M10,16 Z " transform="translate(133,94)" style="fill: #ECD6A8;"/><path d="M0,0 L4,2 L4,9 L-1,10 L-1,8 L-4,8 L-6,11 L-9,7 L-8,3 L-6,3 L-6,6 L-2,2 L0,2 Z M1,2 Z M-2,4 L-1,6 Z M-5,2 L-3,2 L-4,4 Z M-5,4 Z " transform="translate(160,151)" style="fill: #DCC59A;"/><path d="M0,0 L4,0 L3,3 L5,4 L6,8 L9,11 L7,12 L5,15 L3,14 L3,12 L0,12 Z M8,8 Z M9,11 L11,12 Z " transform="translate(133,100)" style="fill: #F3E2B0;"/><path d="M0,0 L2,4 L3,9 L3,19 L-2,18 L-3,17 L-3,12 L-1,12 L-1,6 L-2,2 L0,2 Z M-1,12 L0,14 Z " transform="translate(188,93)" style="fill: #C7B18A;"/><path d="M0,0 L4,2 L3,5 L0,4 Z M4,4 L8,6 L11,12 L12,16 L15,16 L18,22 L18,24 L14,22 L8,12 L5,7 L3,5 Z M18,24 Z M19,26 Z " transform="translate(184,52)" style="fill: #1B0D00;"/><path d="M0,0 L2,1 L1,3 Z M-2,1 Z M2,3 L4,4 Z M-1,2 L1,3 L2,7 L4,9 L-1,12 L-7,12 L-7,10 L-9,9 L-7,9 L-8,5 L-1,6 L-2,4 Z " transform="translate(104,56)" style="fill: #E5CDA2;"/><path d="M0,0 L3,0 L3,2 L5,2 L5,4 L7,4 L7,7 L2,8 L3,20 L0,20 Z " transform="translate(65,168)" style="fill: #D7C096;"/><path d="M0,0 L4,1 L4,4 L9,6 L11,7 L11,9 L16,10 L16,11 L9,10 L8,7 L5,7 L4,9 L2,7 L2,5 L0,4 Z M5,9 L7,10 L5,11 Z M7,10 Z M6,11 Z M8,11 L13,15 L10,16 L8,15 Z " transform="translate(168,40)" style="fill: #2A1D09;"/><path d="M0,0 L6,2 L8,6 L8,9 L5,10 L3,5 L0,4 Z M8,10 L11,11 L12,15 L6,14 L4,19 L2,17 L3,14 L5,14 L6,12 Z M4,19 Z " transform="translate(110,112)" style="fill: #E4CC9F;"/><path d="M0,0 L2,1 L1,15 L-1,14 L-1,12 L-3,12 L-3,10 L-7,9 L-5,5 Z " transform="translate(104,80)" style="fill: #EBD5A7;"/><path d="M0,0 L7,1 L8,4 L11,4 L12,7 L3,9 L0,7 Z M1,3 Z M-1,2 Z " transform="translate(105,56)" style="fill: #D0BA92;"/><path d="M0,0 L6,2 L10,7 L11,11 L7,9 L2,7 L0,4 L-3,2 Z M7,7 Z M12,9 L15,9 L15,13 L11,12 Z " transform="translate(176,175)" style="fill: #EAD2A5;"/><path d="M0,0 L2,2 L0,2 Z M2,2 L5,2 L5,4 L10,5 L11,3 L15,6 L14,12 L8,10 L6,5 L2,4 Z M17,7 Z M19,7 Z M15,8 L19,8 L19,10 L14,10 Z M19,10 Z " transform="translate(144,171)" style="fill: #DEC79D;"/><path d="M0,0 L1,2 L6,1 L9,4 L8,13 L4,13 L3,6 L0,4 Z M0,7 L3,8 L2,10 L0,10 Z " transform="translate(136,85)" style="fill: #DAC399;"/><path d="M0,0 L8,1 L15,3 L14,5 L8,5 L9,7 L13,9 L12,11 L7,10 L4,7 L1,2 Z " transform="translate(133,48)" style="fill: #CFB992;"/><path d="M0,0 L5,1 L11,6 L11,10 L7,12 L6,9 L2,7 L1,3 L2,2 Z M9,6 L9,9 Z M-1,1 L1,3 L-1,3 Z " transform="translate(139,149)" style="fill: #E1CA9D;"/><path d="M0,0 Z M1,1 L3,1 L3,3 L8,5 L10,7 L10,15 L3,14 L4,10 L5,10 L4,6 L1,3 Z M7,12 Z M2,12 Z " transform="translate(75,141)" style="fill: #CDB891;"/><path d="M0,0 L2,0 L2,2 L-2,3 L-2,1 Z M-6,3 L-2,3 L-2,6 L-4,7 L-4,9 L0,11 L-2,11 L-2,13 L-6,16 L-8,15 L-7,9 L-10,10 L-10,7 L-6,6 Z M-9,16 L-9,19 Z " transform="translate(86,42)" style="fill: #281B08;"/><path d="M0,0 L5,1 L8,6 L6,7 L7,10 L9,11 L5,12 L5,10 L2,10 L2,3 Z M0,3 L2,5 L-1,6 Z M9,11 L12,12 L11,16 L8,12 Z " transform="translate(93,156)" style="fill: #CDB78F;"/><path d="M0,0 Z M-2,1 L0,2 L-2,6 L2,9 L2,11 L7,11 L2,15 L1,11 L-4,11 L-7,8 L-6,4 Z M0,7 L2,8 Z " transform="translate(95,57)" style="fill: #C8B48E;"/><path d="M0,0 L6,1 L9,5 L8,8 L0,8 L0,5 L-3,4 L-1,2 L1,2 Z " transform="translate(84,199)" style="fill: #E8D0A4;"/><path d="M0,0 L4,5 L3,7 L0,7 L2,14 L0,16 L-3,15 L-3,3 L0,3 Z " transform="translate(136,141)" style="fill: #DCC59B;"/><path d="M0,0 L5,0 L5,3 L10,8 L10,13 L2,13 L5,11 L7,11 L7,8 L5,8 L5,6 L3,6 L3,4 L0,4 Z " transform="translate(65,164)" style="fill: #C8B48D;"/><path d="M0,0 L2,1 L2,3 L7,4 L8,8 L14,14 L14,16 L9,14 L0,7 L1,5 L5,8 L5,6 L1,4 Z " transform="translate(68,152)" style="fill: #EDD5A7;"/><path d="M0,0 L9,4 L14,5 L13,8 L0,7 Z M3,0 L5,1 Z " transform="translate(171,184)" style="fill: #D8C098;"/><path d="M0,0 L13,1 L13,2 L0,5 Z M-6,4 L0,5 L-4,8 L-9,10 L-8,6 L-6,6 Z M-12,9 Z M-11,10 L-9,11 Z " transform="translate(100,39)" style="fill: #281B07;"/><path d="M0,0 L8,3 L10,6 L6,7 L0,3 Z M13,5 Z M10,6 L15,8 L14,12 L11,12 L9,8 Z M14,6 L16,7 Z " transform="translate(140,176)" style="fill: #CFB991;"/><path d="M0,0 Z M-2,1 L3,3 L5,3 L7,1 L10,5 L7,6 L8,10 L2,7 L-5,6 L-2,5 L-3,2 Z M10,5 Z " transform="translate(117,150)" style="fill: #CFBA92;"/><path d="M0,0 L5,3 L5,5 L0,4 Z M-4,3 Z M-3,4 L0,4 L0,7 L3,8 L0,10 L-4,8 L-5,10 L-7,9 L-7,5 Z M-7,10 L-5,10 L-5,13 L-7,13 Z " transform="translate(140,155)" style="fill: #CDB78E;"/><path d="M0,0 L3,0 L3,12 L0,12 L-3,9 L-3,4 L0,4 Z M-4,9 Z " transform="translate(188,132)" style="fill: #C7B28C;"/><path d="M0,0 L5,1 L5,3 L11,4 L11,7 L0,7 Z " transform="translate(65,200)" style="fill: #D8BF96;"/><path d="M0,0 L5,0 L11,4 L11,7 L3,7 L3,4 L1,4 L1,2 L-2,1 Z " transform="translate(165,200)" style="fill: #E5CDA2;"/><path d="M0,0 Z M1,1 L4,1 L4,3 L1,3 Z M5,2 L7,2 L7,4 L13,4 L14,5 L14,12 L12,12 L10,9 L7,8 L4,3 Z " transform="translate(114,167)" style="fill: #DBC399;"/><path d="M0,0 L11,4 L9,8 L7,12 L5,11 L0,2 Z " transform="translate(77,76)" style="fill: #CDB891;"/><path d="M0,0 L1,3 L5,4 L8,9 L7,11 L5,7 L-1,8 L-4,6 L-4,4 L-6,2 Z " transform="translate(119,73)" style="fill: #CFB991;"/><path d="M0,0 L2,1 Z M2,1 L3,3 L7,4 L11,3 L11,9 L6,6 L5,11 L4,9 L2,9 L1,4 L-1,4 L-1,2 Z M5,5 Z " transform="translate(113,104)" style="fill: #E7D0A3;"/><path d="M0,0 L6,0 L7,4 L11,6 L10,9 L6,7 L1,2 Z M7,5 Z M0,2 Z M4,7 L6,7 L5,9 Z M7,9 L14,10 L14,12 L8,11 Z " transform="translate(137,76)" style="fill: #F0D8A9;"/><path d="M0,0 L4,1 L9,6 L10,8 L7,10 L8,13 L5,12 L3,10 L0,8 L1,6 L3,6 L2,3 L0,3 Z " transform="translate(112,76)" style="fill: #E6CCA1;"/><path d="M0,0 L5,1 L6,3 L4,5 L0,4 Z M2,1 Z M3,2 Z M6,3 Z M8,4 L12,6 L13,11 L12,13 L10,12 L7,7 Z M5,5 Z M6,6 Z M9,11 Z M8,12 Z " transform="translate(180,56)" style="fill: #2A1B0A;"/><path d="M0,0 L3,1 L2,5 L5,6 L4,8 L2,7 L2,9 L4,10 L0,12 L-7,8 L-7,7 L0,7 Z M1,2 Z M1,9 Z " transform="translate(183,192)" style="fill: #DFC79D;"/><path d="M0,0 L5,2 L6,5 L12,7 L12,10 L7,9 L3,5 L0,4 Z M12,10 L16,11 L14,13 L14,11 Z " transform="translate(110,176)" style="fill: #F7E3B2;"/><path d="M0,0 L4,1 L6,2 L7,6 L4,9 L4,6 L0,6 Z M7,6 L9,8 L8,10 L10,10 L9,13 L6,9 Z " transform="translate(143,164)" style="fill: #C7B28C;"/><path d="M0,0 L10,0 L10,4 L8,4 L9,7 L6,7 L4,5 L0,2 Z M9,7 L11,8 Z " transform="translate(150,56)" style="fill: #CBB88F;"/><path d="M0,0 L1,4 L-2,9 L-8,11 L-7,4 L-2,1 Z M-4,5 L-4,7 L-2,6 Z M-5,7 Z M-6,8 Z " transform="translate(79,50)" style="fill: #2B1909;"/><path d="M0,0 L12,0 L13,3 L18,1 L17,5 L11,5 L7,2 L0,1 Z M5,2 Z M18,2 Z M19,3 L22,4 L19,4 Z M18,4 Z " transform="translate(136,199)" style="fill: #F4E3B3;"/><path d="M0,0 L6,2 L9,1 L10,6 L6,7 L5,9 L3,9 L3,7 L1,7 Z " transform="translate(172,137)" style="fill: #DDC69A;"/><path d="M0,0 L4,1 L7,0 L12,3 L12,5 L10,5 L9,4 L9,6 L12,8 L11,10 L3,5 L3,3 L0,2 Z M7,2 Z " transform="translate(68,139)" style="fill: #DBC49A;"/><path d="M0,0 L4,1 L5,5 L9,7 L6,9 L0,8 Z M3,9 Z " transform="translate(65,124)" style="fill: #D2BC94;"/><path d="M0,0 L4,1 L9,6 L9,8 L14,10 L16,13 L13,14 L9,10 L7,10 L7,7 L3,6 L0,2 Z " transform="translate(136,116)" style="fill: #C1AD87;"/><path d="M0,0 L2,0 L2,2 L6,3 L7,11 L3,9 L-1,5 L-1,2 L-3,1 Z M0,1 Z " transform="translate(157,105)" style="fill: #C9B48C;"/><path d="M0,0 L5,0 L5,10 L-1,8 L-2,6 L-7,4 L-6,2 L-1,3 L4,8 L4,5 L0,3 Z " transform="translate(123,98)" style="fill: #F9F1C8;"/><path d="M0,0 L3,0 L6,3 L11,4 L11,9 L6,7 L0,2 Z M-2,1 Z M-1,2 Z M1,3 Z M2,4 Z M11,9 L16,11 L17,13 L13,12 Z " transform="translate(173,47)" style="fill: #2C1D09;"/><path d="M0,0 L8,0 L4,1 L3,5 L-8,6 L-9,8 L-12,8 L-12,5 L0,3 Z M-10,8 Z " transform="translate(104,33)" style="fill: #320F01;"/><path d="M0,0 L10,3 L10,9 L7,8 L7,5 L2,6 L2,3 L-1,3 L-1,5 L-3,5 L-2,1 Z M8,7 Z " transform="translate(118,125)" style="fill: #CEB992;"/><path d="M0,0 Z M2,0 L7,2 L8,6 L5,7 L3,4 L1,1 Z M0,2 L2,4 L1,7 L6,8 L7,11 L2,9 L0,8 Z M8,6 L10,6 L10,8 L7,9 Z " transform="translate(152,116)" style="fill: #EED6A7;"/><path d="M0,0 L4,1 L6,2 L6,4 L9,3 L11,4 L10,6 L8,6 L7,8 L3,9 Z M9,6 Z M8,7 Z " transform="translate(173,88)" style="fill: #CCB790;"/><path d="M0,0 L9,2 L8,7 L0,7 L0,4 L2,3 Z M8,0 L11,1 L10,3 Z " transform="translate(112,200)" style="fill: #DEC49B;"/><path d="M0,0 L8,5 L9,9 L8,11 L6,11 L0,4 Z M7,8 Z M8,11 Z " transform="translate(95,176)" style="fill: #F2DDAE;"/><path d="M0,0 L5,1 L6,4 L9,4 L9,8 L5,9 L5,6 L-2,5 L-2,3 L0,1 Z M4,4 Z " transform="translate(182,156)" style="fill: #EBD3A6;"/><path d="M0,0 L8,1 L7,4 L10,4 L10,8 L7,8 L3,5 L0,4 Z " transform="translate(90,136)" style="fill: #CAB58E;"/><path d="M0,0 L5,2 L7,8 L-1,7 Z M7,5 Z M8,6 Z M4,8 L6,9 Z M6,9 Z M7,10 Z " transform="translate(67,93)" style="fill: #CCB790;"/><path d="M0,0 L2,0 L3,10 L1,18 L0,18 L0,10 L-2,6 L-2,2 L0,2 Z " transform="translate(206,94)" style="fill: #321709;"/><path d="M0,0 L4,0 L4,2 L0,1 Z M4,2 L12,6 L13,7 L13,12 L12,8 L4,8 Z " transform="translate(92,168)" style="fill: #C7B38C;"/><path d="M0,0 L5,3 L5,5 L1,4 L3,7 L1,9 L-3,9 L-3,1 Z M0,7 Z " transform="translate(68,155)" style="fill: #D1BA92;"/><path d="M0,0 L3,0 L3,12 L-2,12 L0,11 L-1,8 Z M-4,9 L-2,11 L-4,11 Z " transform="translate(188,144)" style="fill: #E7CFA5;"/><path d="M0,0 Z M2,0 L4,4 L8,8 L6,10 L0,10 L0,2 Z M4,6 Z " transform="translate(133,180)" style="fill: #E5D5A8;"/><path d="M0,0 L6,3 L8,3 L7,7 L5,6 L5,8 L0,7 Z M-2,3 L0,4 Z " transform="translate(135,161)" style="fill: #ECD8A9;"/><path d="M0,0 L8,4 L13,5 L13,9 L10,9 L7,6 L3,6 L0,2 Z M6,1 Z M8,1 L10,2 L10,4 L7,3 Z M4,6 Z M3,7 Z " transform="translate(178,151)" style="fill: #DCC59A;"/><path d="M0,0 L10,5 L7,9 L0,5 Z M6,2 Z " transform="translate(172,152)" style="fill: #C3AF89;"/><path d="M0,0 L3,1 L5,4 L7,4 L9,11 L5,9 L4,7 L0,6 L-2,1 Z M9,11 L11,12 L9,14 Z " transform="translate(153,111)" style="fill: #D2BC93;"/><path d="M0,0 L6,1 L8,4 L8,14 L7,11 L4,10 L6,8 L0,1 Z M5,14 L7,15 Z " transform="translate(120,84)" style="fill: #E6CEA1;"/><path d="M0,0 L5,1 L12,6 L10,7 L3,6 L0,5 L-1,2 Z " transform="translate(136,180)" style="fill: #D7BF96;"/><path d="M0,0 L3,0 L3,10 L0,7 L0,3 Z M1,10 L3,11 L3,16 L1,17 L-1,11 Z " transform="translate(125,145)" style="fill: #E8D0A4;"/><path d="M0,0 L4,0 L4,2 L9,3 L11,9 L7,9 L5,9 L5,5 L0,2 Z M1,1 Z M8,9 Z " transform="translate(153,144)" style="fill: #EAD1A5;"/><path d="M0,0 L2,0 L2,2 L4,3 L2,3 L4,5 L6,7 L4,9 L-2,8 L-3,5 L0,4 L-2,2 Z M0,1 Z M6,5 Z M6,7 L9,8 Z M9,8 Z M5,9 Z " transform="translate(74,132)" style="fill: #C9B58E;"/><path d="M0,0 Z M1,1 L3,2 Z M3,2 L7,3 L11,9 L7,9 L7,7 L5,7 Z M10,3 L15,3 L15,7 L11,8 L12,4 Z " transform="translate(176,121)" style="fill: #D4BE94;"/><path d="M0,0 L4,1 L4,12 L1,10 L0,8 Z " transform="translate(124,107)" style="fill: #D5BF96;"/><path d="M0,0 L4,2 L4,7 L0,5 L-2,2 L0,2 Z M4,7 Z M5,8 L10,9 L10,13 L7,13 Z " transform="translate(181,103)" style="fill: #CEB991;"/><path d="M0,0 L8,0 L9,4 L9,14 L7,11 L7,6 L0,1 Z M6,8 Z " transform="translate(96,176)" style="fill: #D6C096;"/><path d="M0,0 L10,2 L11,7 L6,7 L0,2 Z M9,3 Z " transform="translate(145,160)" style="fill: #C4B08A;"/><path d="M0,0 L5,1 L7,2 L7,8 L3,8 L3,4 L0,4 Z " transform="translate(133,132)" style="fill: #C3AF88;"/><path d="M0,0 L2,1 Z M-9,1 L0,1 L0,4 L0,7 L-9,5 Z M-6,2 Z M0,2 Z " transform="translate(74,131)" style="fill: #D7C097;"/><path d="M0,0 L3,0 L4,4 L0,7 L0,13 L-3,9 L-3,1 L0,2 Z M0,13 Z " transform="translate(117,128)" style="fill: #D9C298;"/><path d="M0,0 L1,4 L-2,3 L0,3 Z M-8,5 Z M-3,4 L-2,4 L-2,13 L0,14 L-5,13 L-5,8 L-7,7 L-5,7 L-5,5 Z " transform="translate(85,123)" style="fill: #A79573;"/><path d="M0,0 L1,0 L1,31 L0,31 L0,12 L-2,12 L-2,8 L0,8 Z " transform="translate(108,92)" style="fill: #000000;"/><path d="M0,0 L3,0 L3,2 L9,0 L12,2 L11,5 L7,4 L7,8 L4,7 L5,4 L1,2 Z " transform="translate(137,96)" style="fill: #CCB58C;"/><path d="M0,0 L4,1 L8,4 L6,8 L-2,3 Z " transform="translate(153,64)" style="fill: #C7B088;"/><path d="M0,0 L6,4 L11,5 L12,7 L11,9 L2,8 L1,3 Z " transform="translate(133,54)" style="fill: #D7BF96;"/><path d="M0,0 L2,0 L2,12 L0,12 L-2,7 L-1,6 L-3,5 L-2,3 L0,4 Z M-4,1 Z M-4,5 Z M-3,6 Z " transform="translate(164,132)" style="fill: #E1CA9D;"/><path d="M0,0 L4,2 L1,3 Z M-1,2 L3,5 L3,8 L1,8 L0,13 L-2,13 L-2,4 Z M1,5 Z " transform="translate(92,96)" style="fill: #E7CEA2;"/><path d="M0,0 Z M1,1 L3,2 L3,4 L6,4 L7,10 L4,9 L5,6 L1,4 Z M-2,4 L3,6 L3,9 L-2,8 L-2,6 L-4,5 Z " transform="translate(150,85)" style="fill: #D4BD95;"/><path d="M0,0 L7,6 L8,11 L6,12 L5,14 L3,7 L2,3 L0,3 Z M2,6 Z " transform="translate(152,81)" style="fill: #DEC49C;"/><path d="M0,0 L12,0 L10,1 L10,3 L12,3 L12,5 L7,4 L5,2 L1,3 Z M5,3 L7,5 L5,5 Z " transform="translate(116,199)" style="fill: #F3DEAF;"/><path d="M0,0 L4,1 L6,0 L8,1 L8,7 L2,7 L1,2 Z " transform="translate(158,183)" style="fill: #DFC79B;"/><path d="M0,0 L3,1 L5,5 L11,8 L12,11 L7,9 L-3,3 L-3,1 Z " transform="translate(137,175)" style="fill: #EED3A6;"/><path d="M0,0 L3,1 L4,6 L7,6 L7,10 L1,10 L0,6 L1,8 L3,7 L3,5 L1,4 L0,4 L-3,3 Z " transform="translate(184,170)" style="fill: #E3C99F;"/><path d="M0,0 L3,0 L3,12 L0,12 L-1,2 Z " transform="translate(188,164)" style="fill: #D9C196;"/><path d="M0,0 L5,2 L8,5 L6,5 L5,8 L1,7 L1,5 L-1,5 Z M4,4 L4,7 Z M6,7 Z M1,8 L3,8 L2,10 Z " transform="translate(145,107)" style="fill: #DDC69C;"/><path d="M0,0 L4,3 L7,3 L7,6 L5,6 L5,8 L1,6 L-1,3 Z M-3,1 Z M-2,2 Z M7,2 L10,3 L7,3 Z " transform="translate(164,72)" style="fill: #C1AD89;"/><path d="M0,0 L5,0 L2,2 Z M6,0 Z M-2,1 L0,1 L1,4 L-1,9 L0,11 L-3,11 L-4,4 Z M-2,5 Z M5,1 Z M1,2 Z " transform="translate(104,52)" style="fill: #DBC49B;"/><path d="M0,0 L2,1 Z M-1,1 L3,2 L3,4 L5,4 L5,7 L-3,7 L-2,2 Z " transform="translate(163,200)" style="fill: #DBC499;"/><path d="M0,0 L12,0 L12,3 L0,3 Z " transform="translate(136,196)" style="fill: #080400;"/><path d="M0,0 L12,0 L12,3 L0,3 Z " transform="translate(84,196)" style="fill: #050400;"/><path d="M0,0 L7,1 L9,4 L6,4 L5,7 L0,4 L0,1 Z M-2,1 L0,3 L-2,3 Z " transform="translate(174,182)" style="fill: #F4DCAC;"/><path d="M0,0 L6,1 L10,8 L6,7 L0,3 Z M-3,1 L0,2 Z M10,8 L12,9 Z " transform="translate(144,175)" style="fill: #C2AE88;"/><path d="M0,0 L5,0 L7,2 L6,5 L3,3 L3,8 L0,8 Z " transform="translate(65,136)" style="fill: #D1BB93;"/><path d="M0,0 L3,1 L0,2 Z M2,2 L11,7 L14,10 L14,12 L9,10 L6,7 L1,3 Z " transform="translate(144,120)" style="fill: #EBD3A7;"/><path d="M0,0 L1,0 L1,12 L-2,13 L-2,1 Z " transform="translate(108,123)" style="fill: #030201;"/><path d="M0,0 L5,1 L8,4 L5,5 L3,4 L3,7 L0,6 Z M6,5 Z M5,6 L7,8 L4,7 Z " transform="translate(133,88)" style="fill: #D2BD94;"/><path d="M0,0 L3,0 L8,9 L8,12 L6,12 L6,9 L2,8 L1,4 L2,1 Z " transform="translate(178,76)" style="fill: #C4B18C;"/><path d="M0,0 L5,2 L8,5 L8,7 L2,6 L-2,2 Z " transform="translate(79,73)" style="fill: #E4CB9F;"/><path d="M0,0 L8,0 L8,7 L0,3 Z " transform="translate(120,73)" style="fill: #E1CB9D;"/><path d="M0,0 L5,1 L8,4 L8,7 L4,7 L4,4 L0,2 Z M4,3 Z M5,0 L9,2 L5,1 Z M9,2 Z " transform="translate(136,200)" style="fill: #E1C89D;"/><path d="M0,0 L1,0 L1,5 L-8,5 L-8,2 Z " transform="translate(84,186)" style="fill: #DAC399;"/><path d="M0,0 L2,0 L2,2 L6,4 L3,5 L6,6 L6,12 L5,8 L0,8 Z " transform="translate(90,164)" style="fill: #D4BD94;"/><path d="M0,0 L4,1 L2,3 L0,2 Z M4,0 L9,0 L9,8 L4,6 L5,2 Z M6,1 Z M6,4 Z " transform="translate(157,144)" style="fill: #D5BE96;"/><path d="M0,0 L3,4 L2,6 L-3,6 L-5,3 Z M2,2 Z M3,6 L6,7 L5,10 L3,9 Z M5,10 Z M4,12 Z M6,12 Z " transform="translate(152,143)" style="fill: #C4B08B;"/><path d="M0,0 L3,0 L7,0 L7,6 L2,6 Z M4,6 Z M5,7 L7,7 L6,9 Z " transform="translate(73,124)" style="fill: #D9C399;"/><path d="M0,0 L3,0 L4,8 L3,18 L2,18 L0,8 Z " transform="translate(53,86)" style="fill: #2C1B09;"/><path d="M0,0 L1,3 L3,3 L6,7 L3,8 L2,7 L1,12 L-1,12 L-1,1 Z " transform="translate(111,76)" style="fill: #D0BA93;"/><path d="M0,0 Z M-1,1 L1,4 L0,8 L-3,11 L-3,8 L-6,7 L-4,4 L-2,4 Z M-6,8 Z " transform="translate(71,57)" style="fill: #291B08;"/><path d="M0,0 L2,0 L2,2 L6,4 L7,6 L0,5 L-2,1 Z M-1,5 L4,5 L4,7 L-1,8 Z " transform="translate(117,54)" style="fill: #EBD2A5;"/><path d="M0,0 L11,0 L16,2 L16,4 L7,3 L0,1 Z M16,4 L18,5 Z " transform="translate(128,33)" style="fill: #2A1C0A;"/><path d="M0,0 L9,5 L12,8 L11,10 L7,9 L8,7 L4,8 L3,5 L0,4 Z " transform="translate(171,160)" style="fill: #E6CDA2;"/><path d="M0,0 Z M2,0 L7,1 L7,4 L7,8 L5,9 L1,4 Z " transform="translate(68,162)" style="fill: #D8C198;"/><path d="M0,0 L3,1 L3,12 L-3,11 L0,8 L-1,3 Z M-1,6 Z " transform="translate(125,160)" style="fill: #D0BA92;"/><path d="M0,0 L3,3 L4,12 L0,10 L-2,10 L-2,6 L1,6 Z " transform="translate(112,130)" style="fill: #CBB58E;"/><path d="M0,0 L1,2 L4,3 L4,5 L7,4 L8,7 L0,6 L0,4 L-3,3 L-3,1 Z " transform="translate(145,125)" style="fill: #DEC59C;"/><path d="M0,0 L4,1 L8,5 L7,8 L7,6 L2,4 L-1,1 Z M9,7 L10,9 L12,9 L12,11 L9,11 L8,8 Z " transform="translate(173,121)" style="fill: #C4B08A;"/><path d="M0,0 L9,1 L10,4 L12,5 L11,10 L9,11 L8,5 L5,4 L5,2 L0,1 Z " transform="translate(154,103)" style="fill: #E2CAA0;"/><path d="M0,0 L1,2 L6,3 L8,5 L5,5 L3,7 L2,10 L0,10 Z M8,5 Z " transform="translate(65,102)" style="fill: #D1BA92;"/><path d="M0,0 L3,1 L-2,6 L-4,11 L-9,12 L-8,8 L-5,8 L-4,4 L-1,4 Z " transform="translate(69,56)" style="fill: #270D00;"/><path d="M0,0 L4,0 L4,4 L1,6 L-4,6 L-4,2 L0,2 Z " transform="translate(112,32)" style="fill: #251A06;"/><path d="M0,0 L4,3 L3,6 L-1,4 Z M-2,2 Z M5,3 L9,7 L6,8 L4,5 Z M0,6 Z M3,6 L5,8 L3,8 Z " transform="translate(118,144)" style="fill: #D4BE95;"/><path d="M0,0 L3,0 L3,4 L7,5 L5,8 L3,8 L0,8 Z " transform="translate(133,136)" style="fill: #D7BF96;"/><path d="M0,0 L4,1 L0,3 Z M4,2 Z M2,3 L3,5 L1,4 Z M5,3 L8,3 L9,6 L11,7 L9,9 L4,7 Z M-1,4 Z M0,5 Z " transform="translate(149,116)" style="fill: #E0C99C;"/><path d="M0,0 L3,4 L7,11 L2,12 L0,11 L0,8 L2,9 L3,10 L3,7 L1,7 Z " transform="translate(76,76)" style="fill: #E8D1A5;"/><path d="M0,0 L2,1 L0,2 Z M-1,2 Z M0,3 L7,4 L9,8 L7,13 L6,13 L5,7 L0,5 Z M8,10 Z " transform="translate(195,72)" style="fill: #2F1C06;"/><path d="M0,0 L3,0 L4,4 L0,3 Z M5,3 L7,4 L6,7 L4,6 Z M7,7 L11,9 L12,12 L9,12 Z M12,12 Z " transform="translate(165,65)" style="fill: #E0C99F;"/><path d="M0,0 L4,2 L10,10 L11,12 L7,10 L3,7 L3,4 L0,3 Z M-1,1 Z " transform="translate(131,48)" style="fill: #EED4A6;"/><path d="M0,0 L4,0 L4,2 L8,3 L8,7 L6,7 L6,5 L0,6 Z " transform="translate(160,38)" style="fill: #2D2207;"/><path d="M0,0 L11,0 L12,1 L12,8 L9,8 L9,1 L0,1 Z " transform="translate(171,191)" style="fill: #393327;"/><path d="M0,0 L6,4 L9,6 L10,10 L6,8 L2,6 L0,3 Z M10,8 Z " transform="translate(68,149)" style="fill: #CDB890;"/><path d="M0,0 L4,1 L9,2 L7,3 L7,5 L10,4 L10,6 L7,6 L6,8 L2,4 L2,2 L0,2 Z " transform="translate(144,146)" style="fill: #E1C99F;"/><path d="M0,0 Z M1,1 Z M2,2 L4,2 L5,6 L7,11 L4,11 L4,9 L1,8 L1,5 Z M4,4 L7,5 L4,5 Z M0,6 Z " transform="translate(157,133)" style="fill: #CEB991;"/><path d="M0,0 L2,0 L3,3 L2,6 L7,5 L5,9 L0,8 Z M3,3 L5,5 L3,5 Z M7,3 Z " transform="translate(110,92)" style="fill: #EDD5A8;"/><path d="M0,0 L5,1 L8,3 L6,5 L6,7 L9,7 L8,10 L6,10 L6,8 L4,8 L2,3 L2,1 Z " transform="translate(142,86)" style="fill: #D9C298;"/><path d="M0,0 Z M2,0 Z M1,1 Z M4,1 Z M0,2 L6,2 L7,6 L-1,6 Z " transform="translate(153,201)" style="fill: #E4CDA2;"/><path d="M0,0 L5,1 L5,3 L9,5 L12,9 L7,7 L0,3 Z " transform="translate(140,159)" style="fill: #E2CA9F;"/><path d="M0,0 L2,0 L1,2 Z M2,2 L7,4 L11,7 L12,11 L5,8 L3,4 Z M3,5 Z M4,6 Z " transform="translate(93,141)" style="fill: #DBC499;"/><path d="M0,0 L4,2 L4,4 L7,4 L7,8 L2,7 L2,5 L-1,4 Z " transform="translate(184,112)" style="fill: #D8BF97;"/><path d="M0,0 Z M1,1 L6,2 L5,8 L2,8 L2,6 L0,6 L0,4 L2,3 Z M5,8 Z " transform="translate(182,97)" style="fill: #DAC399;"/><path d="M0,0 L4,1 L8,7 L1,7 L0,6 Z " transform="translate(133,94)" style="fill: #F2DEAE;"/><path d="M0,0 L2,0 L2,2 L-2,3 L-2,1 Z M-6,3 L-2,3 L-2,6 L-7,7 L-7,9 L-10,10 L-10,7 L-6,6 Z " transform="translate(86,42)" style="fill: #1F0D00;"/><path d="M0,0 L4,1 L4,4 L1,4 L1,6 L5,8 L1,9 L0,8 Z M5,3 L7,4 Z M0,9 Z " transform="translate(133,172)" style="fill: #CAB58E;"/><path d="M0,0 Z M-5,1 L-2,2 L0,6 L-4,7 L-5,4 L-7,3 Z M-2,1 Z M1,1 L1,4 L-1,4 L-1,2 Z M-6,6 Z " transform="translate(186,160)" style="fill: #D8C199;"/><path d="M0,0 L5,2 L5,4 L7,5 L7,8 L2,8 L0,4 Z " transform="translate(112,139)" style="fill: #E0C89D;"/><path d="M0,0 L5,5 L2,7 L4,11 L0,12 Z M1,9 Z " transform="translate(171,116)" style="fill: #D3BD94;"/><path d="M0,0 L6,2 L8,6 L4,8 L3,5 L0,4 Z " transform="translate(110,112)" style="fill: #F3E0B0;"/><path d="M0,0 L5,1 L10,4 L10,8 L7,8 L7,6 L4,5 Z " transform="translate(69,92)" style="fill: #F2DAAC;"/><path d="M0,0 L5,1 L6,4 L8,6 L5,7 L1,4 L-2,5 L-2,1 Z " transform="translate(112,87)" style="fill: #D9C298;"/><path d="M0,0 L4,3 L2,12 L0,9 L-2,2 Z " transform="translate(194,75)" style="fill: #281B08;"/><path d="M0,0 L4,1 L5,3 L9,5 L8,7 L3,6 L0,3 Z " transform="translate(137,52)" style="fill: #D8C299;"/><path d="M0,0 L4,1 L1,2 Z M2,2 L8,3 L12,5 L12,8 L8,8 L6,5 L2,3 Z " transform="translate(92,199)" style="fill: #EDD7AA;"/><path d="M0,0 Z M3,0 L6,3 L8,2 L10,8 L7,8 L6,6 L0,4 L1,1 Z " transform="translate(178,170)" style="fill: #CFBA93;"/><path d="M0,0 L2,4 L5,6 L5,8 L0,7 L-3,3 L-3,1 Z " transform="translate(123,120)" style="fill: #C3AF88;"/><path d="M0,0 L4,1 L5,7 L2,7 L-1,4 Z " transform="translate(100,109)" style="fill: #C7B590;"/><path d="M0,0 L5,1 L8,3 L7,6 L0,4 Z M5,0 Z " transform="translate(66,100)" style="fill: #EAD1A5;"/><path d="M0,0 L4,2 L2,2 L0,7 L-1,7 L-1,1 Z M4,2 L7,6 L4,7 L4,5 L2,4 Z " transform="translate(193,70)" style="fill: #2A1A0A;"/><path d="M0,0 L2,0 L7,7 L3,8 L-1,4 Z " transform="translate(173,68)" style="fill: #CBB68F;"/><path d="M0,0 L3,2 L8,3 L8,8 L4,10 L4,4 L0,2 Z " transform="translate(88,65)" style="fill: #E3CA9F;"/><path d="M0,0 L3,1 L0,1 Z M3,0 L5,1 Z M-3,1 Z M-2,2 Z M0,2 L2,4 L-1,3 Z M3,2 L5,2 L5,4 L10,4 L5,8 L4,8 Z " transform="translate(92,64)" style="fill: #D0BA91;"/><path d="M0,0 L5,1 L5,3 L1,3 L1,5 L-5,4 L-6,1 Z " transform="translate(151,33)" style="fill: #1C1204;"/><path d="M0,0 Z M1,1 L6,3 L7,5 L2,3 Z M-4,2 L1,2 L3,5 L-1,6 Z M0,3 Z M-4,4 Z M3,5 Z " transform="translate(156,166)" style="fill: #E5CCA1;"/><path d="M0,0 L2,1 Z M2,1 L7,2 L7,4 L11,3 L11,7 L7,7 L5,5 L2,3 Z M5,5 Z " transform="translate(155,161)" style="fill: #EAD2A5;"/><path d="M0,0 L6,1 L7,4 L1,2 Z M7,4 L10,4 L10,6 L14,8 L13,10 L7,5 Z " transform="translate(112,160)" style="fill: #EDD5A7;"/><path d="M0,0 L5,2 L4,5 L-4,4 L-4,1 Z " transform="translate(96,147)" style="fill: #C5B08A;"/><path d="M0,0 L4,1 L3,5 L4,7 L0,8 Z M4,4 Z M5,6 Z " transform="translate(110,116)" style="fill: #DAC198;"/><path d="M0,0 L4,1 L2,8 L1,16 L0,16 L0,4 L-1,1 Z " transform="translate(56,88)" style="fill: #261A07;"/><path d="M0,0 L3,1 L1,2 L0,13 L-2,9 L-3,1 Z " transform="translate(200,87)" style="fill: #281B08;"/><path d="M0,0 L3,1 L4,4 L3,7 L0,7 Z M5,2 L7,3 L6,6 L4,4 Z " transform="translate(133,77)" style="fill: #E2C99E;"/><path d="M0,0 L3,1 L3,5 L-2,5 L-4,6 L-2,1 Z M-5,6 L-4,8 L-6,7 Z " transform="translate(65,67)" style="fill: #2C1B0B;"/><path d="M0,0 L5,1 L6,6 L2,7 L-1,4 Z M1,3 Z " transform="translate(158,60)" style="fill: #D9C298;"/><path d="M0,0 L4,2 L3,5 L0,4 Z M4,4 L8,6 L7,10 L3,5 Z " transform="translate(184,52)" style="fill: #200600;"/><path d="M0,0 Z M-3,1 L2,1 L7,6 L7,8 L2,6 Z " transform="translate(75,160)" style="fill: #FDF1C0;"/><path d="M0,0 L2,0 L2,2 L5,2 L10,7 L11,9 L7,8 L7,6 L3,5 L1,4 L1,2 L-1,1 Z " transform="translate(69,125)" style="fill: #ECD2A5;"/><path d="M0,0 Z M1,1 Z M0,2 L3,2 L5,7 L0,8 Z M5,7 L7,9 L5,11 Z " transform="translate(133,104)" style="fill: #FFF1BD;"/><path d="M0,0 L4,1 L4,4 L6,4 L5,8 L3,8 L3,4 L-1,5 Z " transform="translate(201,88)" style="fill: #2C1C0A;"/><path d="M0,0 L4,1 L9,4 L9,7 L5,7 L4,4 Z M9,3 Z " transform="translate(131,200)" style="fill: #CFB990;"/><path d="M0,0 L8,0 L9,2 L8,4 L0,3 Z " transform="translate(176,188)" style="fill: #D1BA91;"/><path d="M0,0 L4,0 L4,2 L16,2 L16,3 L-2,3 L0,2 Z " transform="translate(112,188)" style="fill: #B2A07D;"/><path d="M0,0 L2,0 L3,12 L0,12 L-1,8 Z " transform="translate(168,180)" style="fill: #000100;"/><path d="M0,0 L2,2 L0,2 Z M2,2 L5,2 L5,4 L10,5 L10,7 L12,8 L8,9 L6,5 L2,4 Z " transform="translate(144,171)" style="fill: #EDD3A6;"/><path d="M0,0 L4,4 L3,6 L0,5 Z M-2,5 L0,5 L0,7 L3,6 L3,9 L-2,9 Z " transform="translate(92,155)" style="fill: #E1CAA0;"/><path d="M0,0 L3,0 L3,2 L5,2 L7,0 L7,8 L3,5 L3,3 L1,3 Z " transform="translate(98,124)" style="fill: #C7B58F;"/><path d="M0,0 L0,3 Z M1,3 L4,5 L1,6 L0,8 L2,9 L-1,9 L-2,7 L-1,4 Z M-5,5 L-2,5 L-3,7 Z M2,7 Z M1,10 L3,11 Z " transform="translate(149,111)" style="fill: #FAE6B6;"/><path d="M0,0 L2,2 L1,3 L1,10 L-4,8 Z M1,10 L3,10 L2,12 Z " transform="translate(96,88)" style="fill: #C6B08B;"/><path d="M0,0 L8,1 L10,3 L3,3 L2,5 L0,4 Z " transform="translate(133,73)" style="fill: #C6B089;"/><path d="M0,0 L2,4 L-1,5 L0,9 L-3,7 L-2,2 Z M0,9 L0,12 Z " transform="translate(87,63)" style="fill: #D6BF95;"/><path d="M0,0 L6,3 L7,6 L-1,4 Z " transform="translate(145,60)" style="fill: #CFB991;"/><path d="M0,0 L4,4 L3,7 L-1,7 L-1,3 L-3,2 L0,2 Z " transform="translate(157,37)" style="fill: #2B1C0A;"/><path d="M0,0 L3,0 L4,7 L0,8 Z " transform="translate(65,148)" style="fill: #D9C098;"/><path d="M0,0 Z M1,1 L3,1 L3,3 L6,4 L6,9 L9,10 L9,12 L5,10 L4,6 L1,3 Z " transform="translate(75,141)" style="fill: #D0BB93;"/><path d="M0,0 L4,4 L5,7 L4,9 L1,9 L-2,5 L0,4 Z " transform="translate(152,127)" style="fill: #D4BC95;"/><path d="M0,0 L5,2 L7,3 L5,7 L0,4 L0,1 Z " transform="translate(136,128)" style="fill: #DCC39A;"/><path d="M0,0 L4,0 L4,2 L8,4 L7,6 L2,4 L0,3 Z " transform="translate(152,108)" style="fill: #C3AF89;"/><path d="M0,0 L1,2 L6,3 L6,7 L1,6 L0,5 Z " transform="translate(185,105)" style="fill: #C3AF89;"/><path d="M0,0 L3,4 L-1,7 L-4,1 Z M3,4 L5,4 L4,6 Z " transform="translate(172,79)" style="fill: #CEB68E;"/><path d="M0,0 Z M4,0 L8,2 L8,5 L2,4 L1,1 Z " transform="translate(128,56)" style="fill: #F2DBAB;"/><path d="M0,0 Z M-6,1 L0,1 L0,5 L-6,5 Z M-4,5 Z " transform="translate(94,40)" style="fill: #311709;"/><path d="M0,0 L2,0 L4,6 L6,8 L0,8 Z " transform="translate(49,216)" style="fill: #281600;"/><path d="M0,0 L8,0 L8,3 L0,3 Z " transform="translate(160,196)" style="fill: #000400;"/><path d="M0,0 L8,0 L8,3 L0,3 Z " transform="translate(104,196)" style="fill: #000400;"/><path d="M0,0 L6,3 L5,6 L0,4 L-3,2 Z " transform="translate(176,175)" style="fill: #F0DDAE;"/><path d="M0,0 Z M4,1 L12,6 L11,8 L7,6 L1,3 Z " transform="translate(92,153)" style="fill: #CBB58D;"/><path d="M0,0 L2,2 L0,3 Z M2,2 L4,2 L4,9 L-1,7 L0,5 L1,5 Z " transform="translate(160,151)" style="fill: #D2BD95;"/><path d="M0,0 L3,0 L3,8 L0,8 Z " transform="translate(188,136)" style="fill: #CEBA94;"/><path d="M0,0 L5,0 L3,4 L-1,6 L-2,2 Z " transform="translate(54,80)" style="fill: #290E03;"/><path d="M0,0 L4,0 L4,4 L-1,2 Z M4,4 L8,4 L7,8 Z " transform="translate(148,76)" style="fill: #090B06;"/><path d="M0,0 L2,4 L1,6 L-4,8 L-6,9 L-4,5 Z M-7,9 Z " transform="translate(83,66)" style="fill: #C3AE8B;"/><path d="M0,0 Z M1,1 L7,2 L7,5 L9,6 L7,8 L1,3 Z " transform="translate(169,50)" style="fill: #281B08;"/><path d="M0,0 L3,3 L-1,3 Z M-4,3 L1,4 L1,7 L-3,7 Z " transform="translate(123,183)" style="fill: #E2CA9F;"/><path d="M0,0 L4,2 L8,6 L4,8 L3,4 L0,2 Z M7,7 Z M6,8 Z M7,9 Z " transform="translate(112,173)" style="fill: #E6D1A3;"/><path d="M0,0 L1,0 L1,15 L0,15 L0,5 L-2,5 L-2,1 Z " transform="translate(108,167)" style="fill: #000000;"/><path d="M0,0 L5,1 L8,6 L4,5 L3,7 L1,2 Z " transform="translate(93,156)" style="fill: #D6C096;"/><path d="M0,0 Z M-2,1 L0,1 L0,3 L2,3 L1,6 L-5,6 L-2,5 L-3,2 Z M0,4 Z M2,5 L5,7 L2,7 Z " transform="translate(117,150)" style="fill: #CCB78F;"/><path d="M0,0 L2,4 L2,6 L-4,5 L-5,1 L-1,3 Z M-2,1 Z M2,6 Z " transform="translate(181,147)" style="fill: #F5DEAE;"/><path d="M0,0 L2,0 L4,4 L3,8 L0,8 Z M2,6 Z " transform="translate(110,140)" style="fill: #DAC299;"/><path d="M0,0 L7,3 L5,4 L4,7 L4,4 L1,5 Z M2,5 Z " transform="translate(171,112)" style="fill: #E0C99E;"/><path d="M0,0 Z M1,1 L5,3 L11,8 L8,8 L3,6 Z " transform="translate(177,105)" style="fill: #E1CA9E;"/><path d="M0,0 L3,1 L4,5 L0,3 Z M0,4 L2,6 L0,6 Z M-4,5 L1,7 L-3,8 Z " transform="translate(176,106)" style="fill: #D0B990;"/><path d="M0,0 L1,3 L3,3 L3,7 L1,8 L-1,11 L-1,4 Z " transform="translate(51,97)" style="fill: #2A1B0C;"/><path d="M0,0 L8,1 L9,5 L4,5 L0,2 Z " transform="translate(96,95)" style="fill: #EDD9AC;"/><path d="M0,0 Z M-3,2 L0,2 L0,10 L-2,11 Z " transform="translate(180,94)" style="fill: #D5BD93;"/><path d="M0,0 L2,1 L2,3 L4,3 L4,5 L6,5 L5,7 L-1,6 L-1,1 Z " transform="translate(144,91)" style="fill: #E8D0A4;"/><path d="M0,0 Z M1,1 L4,2 L6,6 L6,10 L3,10 L3,4 L1,4 Z " transform="translate(202,82)" style="fill: #260B00;"/><path d="M0,0 L3,1 L3,5 L-3,5 L-2,1 Z " transform="translate(57,83)" style="fill: #291C0B;"/><path d="M0,0 L4,0 L2,4 L0,8 L-2,7 L-3,4 L0,4 Z " transform="translate(84,80)" style="fill: #C8B38C;"/><path d="M0,0 Z M-3,1 L1,2 L1,4 L-1,4 L-2,7 L-5,5 L-5,2 Z " transform="translate(165,68)" style="fill: #D3BE95;"/><path d="M0,0 L5,3 L5,6 L0,5 L-1,1 Z " transform="translate(168,63)" style="fill: #C2AE89;"/><path d="M0,0 L12,2 L12,3 L0,3 Z " transform="translate(132,61)" style="fill: #12100A;"/><path d="M0,0 L10,1 L10,3 L0,3 Z " transform="translate(90,187)" style="fill: #E0C89C;"/><path d="M0,0 L3,0 L3,5 L-5,5 L-2,3 L0,3 Z " transform="translate(72,172)" style="fill: #C3AD87;"/><path d="M0,0 Z M1,1 L4,1 L4,3 L1,3 Z M5,2 L7,2 L7,4 L11,4 L10,6 L8,5 L7,7 L4,3 Z " transform="translate(114,167)" style="fill: #DEC79D;"/><path d="M0,0 L4,2 L7,5 L4,7 L0,4 Z " transform="translate(172,157)" style="fill: #DBC49A;"/><path d="M0,0 L7,3 L9,7 L3,5 L3,2 L0,3 Z " transform="translate(155,158)" style="fill: #D1BB92;"/><path d="M0,0 L6,1 L8,3 L9,5 L11,5 L10,7 L4,5 L4,3 L0,1 Z " transform="translate(93,135)" style="fill: #E4CDA1;"/><path d="M0,0 L3,1 L3,3 L7,4 L9,7 L6,7 L6,5 L0,4 L0,1 Z M3,5 Z " transform="translate(95,125)" style="fill: #F0DBAC;"/><path d="M0,0 L1,2 L6,4 L8,7 L5,8 L1,4 L-1,4 Z " transform="translate(144,122)" style="fill: #C6B28C;"/><path d="M0,0 L7,0 L6,3 L4,4 L2,5 L0,4 Z M7,1 Z " transform="translate(90,124)" style="fill: #E9D0A2;"/><path d="M0,0 L5,2 L4,5 L-1,5 L-2,2 L0,1 Z M-3,1 Z M-4,2 Z M5,3 Z " transform="translate(152,103)" style="fill: #C8B38D;"/><path d="M0,0 L2,3 L2,11 L-1,10 Z " transform="translate(164,97)" style="fill: #D0B991;"/><path d="M0,0 L4,1 L9,7 L4,5 L0,2 Z M0,4 L2,5 Z " transform="translate(173,79)" style="fill: #EDD6A8;"/><path d="M0,0 L6,2 L5,5 L7,5 L6,8 L1,4 Z " transform="translate(143,76)" style="fill: #CCB790;"/><path d="M0,0 L6,1 L7,5 L4,5 L0,2 Z " transform="translate(150,56)" style="fill: #D2BD93;"/><path d="M0,0 L2,1 Z M-8,1 L0,1 L0,5 L-6,3 Z " transform="translate(164,43)" style="fill: #261A07;"/><path d="M0,0 L4,1 L4,3 L-3,6 L-2,2 L0,2 Z M-6,5 Z M-5,6 L-3,7 Z " transform="translate(94,43)" style="fill: #271A08;"/><path d="M0,0 L7,0 L4,3 L-3,3 L-5,1 Z " transform="translate(113,37)" style="fill: #2A1B0A;"/><path d="M0,0 L1,2 L6,2 L6,4 L0,5 L-2,4 Z " transform="translate(150,186)" style="fill: #EDD6A9;"/><path d="M0,0 L8,1 L10,7 L7,6 L4,3 L0,1 Z M10,7 Z " transform="translate(176,174)" style="fill: #DAC297;"/><path d="M0,0 L5,2 L10,6 L9,8 L4,6 Z " transform="translate(70,149)" style="fill: #E3CBA0;"/><path d="M0,0 L4,0 L4,2 L6,2 L6,5 L8,6 L3,5 L1,4 Z " transform="translate(173,116)" style="fill: #F3DCAD;"/><path d="M0,0 L2,2 L0,2 Z M2,2 L6,4 L8,8 L4,7 L1,3 Z " transform="translate(120,112)" style="fill: #EFD6A8;"/><path d="M0,0 L5,1 L5,4 L0,3 Z M5,4 L7,5 L6,8 L4,5 Z " transform="translate(112,84)" style="fill: #C5B18B;"/><path d="M0,0 L2,1 L1,8 L-3,4 Z " transform="translate(104,80)" style="fill: #C3AF89;"/><path d="M0,0 L3,4 L2,6 L-2,5 L-2,1 Z M3,6 L7,7 L5,8 Z " transform="translate(154,59)" style="fill: #C9B48D;"/><path d="M0,0 L4,0 L4,2 L0,2 L-1,4 L-4,4 L-4,1 Z M-2,4 Z " transform="translate(96,37)" style="fill: #2C1001;"/><path d="M0,0 L4,1 Z M7,0 L11,3 L0,3 L4,1 Z " transform="translate(116,36)" style="fill: #281B07;"/><path d="M0,0 L6,1 L8,4 L3,5 Z " transform="translate(84,199)" style="fill: #F3DCAC;"/><path d="M0,0 L5,0 L9,2 L5,4 L0,1 Z M6,0 Z " transform="translate(178,200)" style="fill: #ECD4A7;"/><path d="M0,0 Z M1,1 L3,2 L3,9 L0,7 L1,5 L-1,5 L-1,3 L1,3 Z " transform="translate(69,189)" style="fill: #D9C399;"/><path d="M0,0 L3,0 L4,4 L2,4 L1,6 L-2,5 L-2,3 L0,1 Z " transform="translate(182,156)" style="fill: #E8CFA2;"/><path d="M0,0 Z M3,0 L6,1 L3,7 L1,5 L1,1 Z M0,3 L1,5 L-1,4 Z " transform="translate(178,144)" style="fill: #DFC89C;"/><path d="M0,0 L2,0 L2,11 L-3,7 L1,7 Z " transform="translate(83,137)" style="fill: #D9C198;"/><path d="M0,0 L5,2 L6,4 L1,5 Z M0,5 Z " transform="translate(68,128)" style="fill: #C8B38D;"/><path d="M0,0 L3,0 L3,8 L0,6 L0,3 L-2,3 L-2,1 Z M1,2 L2,6 Z " transform="translate(102,116)" style="fill: #E2CA9E;"/><path d="M0,0 L4,1 L6,2 L6,4 L3,4 L2,7 Z " transform="translate(173,88)" style="fill: #C1AE8A;"/><path d="M0,0 L2,1 L0,6 L-4,6 L-3,2 Z " transform="translate(100,54)" style="fill: #D7C097;"/><path d="M0,0 L4,1 L4,4 L6,5 L0,4 Z M6,5 L8,6 Z " transform="translate(168,40)" style="fill: #350E00;"/><path d="M0,0 L3,1 L3,5 L-3,4 L-3,1 Z " transform="translate(153,39)" style="fill: #271B07;"/><path d="M0,0 L1,4 Z M-1,4 L0,8 L-2,12 L-5,11 L-4,9 L-2,9 Z " transform="translate(209,212)" style="fill: #3B1100;"/><path d="M0,0 L5,1 L5,3 L7,4 L0,4 Z " transform="translate(65,200)" style="fill: #CEB993;"/><path d="M0,0 L5,2 L6,4 L4,6 L0,4 Z " transform="translate(110,176)" style="fill: #EDD8AA;"/><path d="M0,0 L3,0 L3,8 L1,8 Z " transform="translate(163,168)" style="fill: #DEC49C;"/><path d="M0,0 L1,2 L3,2 L3,5 L-3,5 Z " transform="translate(82,167)" style="fill: #CFBC95;"/><path d="M0,0 L5,0 L5,3 L0,4 Z M3,2 Z " transform="translate(65,160)" style="fill: #CEBA94;"/><path d="M0,0 L5,3 L5,5 L0,4 Z M-4,3 Z M-3,4 L0,5 Z " transform="translate(140,155)" style="fill: #C8B38C;"/><path d="M0,0 L5,1 L3,3 L0,3 Z M5,2 L8,3 L6,5 L4,3 Z " transform="translate(140,152)" style="fill: #DFC79A;"/><path d="M0,0 L5,1 L3,5 L0,4 Z " transform="translate(133,152)" style="fill: #EAD2A6;"/><path d="M0,0 Z M1,1 L6,2 L7,4 L4,5 Z M7,4 L8,6 L5,7 L5,5 Z " transform="translate(112,146)" style="fill: #E6CCA1;"/><path d="M0,0 L4,0 L4,2 L6,3 L2,4 Z M1,1 Z M7,2 L8,5 L6,5 Z " transform="translate(153,144)" style="fill: #E0C89E;"/><path d="M0,0 L4,1 L5,4 L2,4 L2,6 L4,7 L1,7 Z " transform="translate(123,141)" style="fill: #DEC49B;"/><path d="M0,0 L3,2 L3,4 L6,5 L2,6 L0,4 Z M1,6 Z M4,6 Z M2,7 Z " transform="translate(171,128)" style="fill: #DAC49A;"/><path d="M0,0 L3,3 L5,4 L5,9 L3,9 L0,4 Z M2,9 Z " transform="translate(176,126)" style="fill: #D5BE94;"/><path d="M0,0 L2,0 L4,7 L0,5 L-1,1 Z M-2,2 Z M4,7 L6,8 L4,10 Z " transform="translate(158,115)" style="fill: #D6C198;"/><path d="M0,0 Z M-1,1 L5,4 L1,5 Z M4,2 Z M-1,5 L1,6 L-1,8 Z M5,5 L7,6 Z " transform="translate(137,106)" style="fill: #F6E4B3;"/><path d="M0,0 L1,4 L3,4 L3,8 L0,8 L-1,1 Z " transform="translate(52,104)" style="fill: #2C1C09;"/><path d="M0,0 L2,0 L2,2 L6,3 L5,5 L3,4 L2,6 L1,3 L-3,1 Z M0,1 Z " transform="translate(157,105)" style="fill: #D3BD94;"/><path d="M0,0 L3,1 L0,1 Z M6,0 L7,2 L9,3 L5,5 L3,1 Z " transform="translate(115,104)" style="fill: #D4BC93;"/><path d="M0,0 L3,3 L0,3 Z M3,1 Z M7,-1 L8,3 L5,5 L5,1 Z " transform="translate(97,101)" style="fill: #C6B28C;"/><path d="M0,0 L4,2 L3,5 L-3,3 Z " transform="translate(145,96)" style="fill: #D5BD94;"/><path d="M0,0 L2,0 L2,2 L8,4 L8,7 L0,2 Z M8,7 Z " transform="translate(150,95)" style="fill: #CFBA93;"/><path d="M0,0 L1,2 L6,1 L8,3 L6,5 L3,5 L3,3 L0,3 Z " transform="translate(136,85)" style="fill: #E9D0A4;"/><path d="M0,0 L6,1 L8,7 L5,6 L3,4 L0,2 Z " transform="translate(112,82)" style="fill: #DEC69C;"/><path d="M0,0 L5,1 L6,3 L3,4 L2,7 L1,5 L-1,4 L1,4 Z " transform="translate(96,61)" style="fill: #EED5A6;"/><path d="M0,0 L3,0 L5,4 L1,5 L-2,2 Z " transform="translate(153,64)" style="fill: #BFAC85;"/><path d="M0,0 L4,1 L8,5 L8,7 L4,6 Z " transform="translate(120,49)" style="fill: #F2DFAF;"/><path d="M0,0 L4,0 L4,4 L-1,4 Z " transform="translate(96,40)" style="fill: #2B1C09;"/><path d="M0,0 L3,0 L3,3 L5,3 L4,6 L3,4 L0,4 Z M5,5 Z " transform="translate(65,196)" style="fill: #DDC69B;"/><path d="M0,0 Z M2,0 L3,3 L3,5 L0,4 Z M4,4 L5,6 L3,5 Z M5,6 L8,8 L5,8 Z " transform="translate(133,180)" style="fill: #F3D9AA;"/><path d="M0,0 L4,3 L4,6 L0,6 Z " transform="translate(116,184)" style="fill: #D6BE94;"/><path d="M0,0 L3,1 L2,5 L-3,3 L-3,1 Z " transform="translate(137,175)" style="fill: #E3CC9F;"/><path d="M0,0 L5,1 L3,5 L2,4 L0,5 Z M4,5 Z " transform="translate(171,164)" style="fill: #CBB68E;"/><path d="M0,0 L2,0 L3,8 L0,8 Z " transform="translate(110,128)" style="fill: #D6BE94;"/><path d="M0,0 L3,1 L4,3 L7,4 L6,7 L1,4 Z M0,4 Z " transform="translate(145,118)" style="fill: #DBC297;"/><path d="M0,0 L2,1 Z M2,1 L6,3 L5,6 L2,5 L2,3 L0,2 Z M7,5 Z M6,6 Z " transform="translate(179,120)" style="fill: #E8CFA2;"/><path d="M0,0 L3,2 L3,7 L0,7 Z " transform="translate(133,113)" style="fill: #D5BC96;"/><path d="M0,0 L3,0 L3,4 L-1,6 L-1,1 Z " transform="translate(201,92)" style="fill: #2A1B0A;"/><path d="M0,0 L6,0 L8,3 L7,6 L6,4 L0,1 Z " transform="translate(97,92)" style="fill: #C3B08C;"/><path d="M0,0 L6,1 L7,5 L2,4 Z " transform="translate(120,84)" style="fill: #F1DAAA;"/><path d="M0,0 L7,6 L4,7 L2,3 L0,3 Z M2,6 Z " transform="translate(152,81)" style="fill: #D1BB93;"/><path d="M0,0 Z M2,0 L6,4 L7,8 L4,6 L4,4 L2,4 L1,1 Z " transform="translate(120,76)" style="fill: #CEB991;"/><path d="M0,0 L5,2 L2,5 L-2,3 Z M2,5 Z " transform="translate(79,73)" style="fill: #DAC299;"/><path d="M0,0 L4,2 L5,7 L1,5 Z " transform="translate(188,60)" style="fill: #331B0A;"/><path d="M0,0 Z M-1,1 L1,4 L1,6 L-1,6 L-2,9 L-3,7 Z M1,6 L3,7 Z " transform="translate(177,168)" style="fill: #E1C89D;"/><path d="M0,0 L7,1 L5,3 L3,2 L3,4 L0,4 Z " transform="translate(133,168)" style="fill: #D6BE94;"/><path d="M0,0 L4,0 L4,6 L-1,1 Z " transform="translate(78,160)" style="fill: #C5B28C;"/><path d="M0,0 L4,2 L4,4 L-2,3 L-2,1 Z " transform="translate(150,158)" style="fill: #D2BC93;"/><path d="M0,0 L4,0 L4,5 L2,6 Z " transform="translate(124,156)" style="fill: #DDC59B;"/><path d="M0,0 L6,2 L6,5 L0,4 Z M-1,2 Z " transform="translate(78,151)" style="fill: #CFB992;"/><path d="M0,0 L3,0 L3,6 L0,5 L-1,1 Z M1,4 Z " transform="translate(125,128)" style="fill: #D3BE95;"/><path d="M0,0 L5,0 L5,4 L1,5 L2,1 Z M0,5 Z " transform="translate(186,124)" style="fill: #D5BD94;"/><path d="M0,0 L5,3 L4,7 L4,5 L-1,4 Z " transform="translate(100,105)" style="fill: #DFC79D;"/><path d="M0,0 Z M2,2 L7,4 L5,7 L1,3 Z " transform="translate(154,94)" style="fill: #E6CDA2;"/><path d="M0,0 L3,3 L4,6 L-1,5 Z " transform="translate(160,90)" style="fill: #C6B089;"/><path d="M0,0 L2,1 Z M3,0 L7,1 L6,5 L4,5 L2,1 Z " transform="translate(76,87)" style="fill: #D3BF93;"/><path d="M0,0 L2,4 L-3,7 L-2,2 Z M0,6 Z " transform="translate(71,88)" style="fill: #DDC69C;"/><path d="M0,0 Z M1,1 L3,4 L-2,5 L-1,2 Z M4,2 L6,5 L3,5 Z " transform="translate(144,81)" style="fill: #E3CCA0;"/><path d="M0,0 L4,1 L0,5 L-1,1 Z M-1,5 Z " transform="translate(57,72)" style="fill: #2A1300;"/><path d="M0,0 L9,0 L9,3 L5,3 L5,1 L0,1 Z " transform="translate(119,61)" style="fill: #25221C;"/><path d="M0,0 L4,1 L5,5 L0,3 Z " transform="translate(105,60)" style="fill: #D3BD94;"/><path d="M0,0 L3,1 L3,3 L8,4 L8,5 L1,4 Z " transform="translate(176,46)" style="fill: #1A0C00;"/><path d="M0,0 L4,2 L3,6 L0,4 Z " transform="translate(124,48)" style="fill: #D9C39A;"/></svg>