<?xml version="1.0" encoding="UTF-8"?>
<!-- Generator: visioncortex VTracer -->
<svg id="svg" version="1.1" xmlns="http://www.w3.org/2000/svg" style="display: block;" viewBox="0 0 128 128"><path d="M0 0 C0.495 0.99 0.495 0.99 1 2 C4.11785113 3.58925565 4.11785113 3.58925565 5 1 C7 1 7 1 9 5 C10.32 5 11.64 5 13 5 C13 9 13 9 11 9 C10.67313977 11.78446454 10.67313977 11.78446454 16 12 C17.32 14.97 18.64 17.94 20 21 C20.99 22.32 21.98 23.64 23 25 C23.495 27.475 23.495 27.475 24 30 C24.66 30 25.32 30 26 30 C26.495 32.475 26.495 32.475 27 35 C28.01712781 41.81571146 28.01712781 41.81571146 31 43 C31 47 31 47 28 48 C25.20444481 53.05862368 23.13645935 57.31770323 22 63 C21.67 64.65 21.34 66.3 21 68 C21.66 68.33 22.32 68.66 23 69 C23 71.64 23 74.28 23 77 C23.66 77.33 24.32 77.66 25 78 C25.495 76.02 25.495 76.02 26 74 C36.39936102 71.01167787 36.39936102 71.01167787 38.8125 79 C39.16814159 92.27728614 39.16814159 92.27728614 34 94 C33.505 95.485 33.505 95.485 33 97 C26 102 26 102 21 104 C21 105.65 21 107.3 21 109 C18.36 109.33 15.72 109.66 13 110 C13 110.99 13 111.98 13 113 C11.68 113 10.36 113 9 113 C9 115.64 9 118.28 9 121 C7.35 121 5.7 121 4 121 C3.01 121.66 2.02 122.32 1 123 C-10.35869565 122.2826087 -10.35869565 122.2826087 -15 113 C-16.32 113 -17.64 113 -19 113 C-19.66 111.68 -20.32 110.36 -21 109 C-26.77864113 103.70018482 -26.77864113 103.70018482 -34 101 C-40.22088786 93.75929446 -49.46759789 82.85069841 -39 75 C-36.69 75 -34.38 75 -32 75 C-32.33 74.01 -32.66 73.02 -33 72 C-32.34 72 -31.68 72 -31 72 C-30.67 69.69 -30.34 67.38 -30 65 C-29.34 63.68 -28.68 62.36 -28 61 C-26.31980187 52.65485663 -26.31980187 52.65485663 -32 50 C-34.26142927 45.47714146 -34.01759733 30.50879867 -29 28 C-27.68 25.36 -26.36 22.72 -25 20 C-24.34 20 -23.68 20 -23 20 C-23 17.69 -23 15.38 -23 13 C-20 11 -20 11 -16 11 C-16 9.35 -16 7.7 -16 6 C-14.35 6 -12.7 6 -11 6 C-11 5.34 -11 4.68 -11 4 C-9.68 3.67 -8.36 3.34 -7 3 C-5 0 -5 0 0 0 Z " transform="translate(67,3)" style="fill: #050301;"/><path d="M0 0 C-1.65 0.33 -3.3 0.66 -5 1 C-4.505 3.475 -4.505 3.475 -4 6 C-4 6.66 -4 7.32 -4 8 C-2.68 8.99 -1.36 9.98 0 11 C-2 17 -2 17 -4 21 C1.09147332 13.41333163 1.09147332 13.41333163 -3 7 C-3 4 -3 4 1 3 C1.495 5.475 1.495 5.475 2 8 C2.66 8.33 3.32 8.66 4 9 C1.96729364 18.14717864 -0.60027627 21.65975056 -6 29 C-6.66 31.64 -7.32 34.28 -8 37 C-11 37 -11 37 -11 32 C-11.33 33.65 -11.66 35.3 -12 37 C-17.20703125 37.671875 -17.20703125 37.671875 -23.8125 37.75 C-38.39069168 36.79797834 -38.39069168 36.79797834 -41 49 C-40.67 49.66 -40.34 50.32 -40 51 C-48.39339064 49.32132187 -47 44.99464545 -47 37 C-45 31 -45 31 -38 30 C-37.82850141 27.31400566 -37.82850141 27.31400566 -41 23 C-37 15 -37 15 -35 15 C-33.89336263 5.44460203 -33.89336263 5.44460203 -35 -4 C-30.63671875 -4.609375 -30.63671875 -4.609375 -24.6875 -4.75 C-22.75261719 -4.80671875 -20.81773438 -4.8634375 -18.82421875 -4.921875 C0 -5.17437961 0 -5.17437961 0 0 Z " transform="translate(87,41)" style="fill: #BCA581;"/><path d="M0 0 C0 0.99 0 1.98 0 3 C2.5 3.33333333 2.5 3.33333333 2 0 C8.76610633 -0.30659389 15.42151226 -0.41560946 22.1875 -0.375 C25.05791992 -0.39240234 25.05791992 -0.39240234 27.98632812 -0.41015625 C46.65168332 -0.3707917 46.65168332 -0.3707917 50 8 C49.67 9.65 49.34 11.3 49 13 C49.99 13.99 49.99 13.99 51 15 C47 17 47 17 46 16 C46 14.35 46 12.7 46 11 C42.52565835 11.63106761 42.52565835 11.63106761 43 15 C43.99 15.99 44.98 16.98 46 18 C44.27272727 28.36363636 44.27272727 28.36363636 39 31 C40.66666667 27.66666667 42.33333333 24.33333333 44 21 C44.23570226 18.05719096 44.23570226 18.05719096 39 14 C39.66 14 40.32 14 41 14 C40.505 11.525 40.505 11.525 40 9 C41.65 8.67 43.3 8.34 45 8 C42.58980436 0.76941307 32.46098852 4.08389945 26.3125 4.25 C22.00638672 4.35054687 22.00638672 4.35054687 17.61328125 4.453125 C14.33970703 4.72382812 14.33970703 4.72382812 11 5 C11.33 5.99 11.66 6.98 12 8 C12 23 12 23 8 23 C7.34 24.98 6.68 26.96 6 29 C5.67 29.99 5.34 30.98 5 32 C6.32 33.98 7.64 35.96 9 38 C7 39 7 39 0 39 C-1.10369725 45.62218352 -1.32064553 51.39677234 0 58 C1.32 58 2.64 58 4 58 C3.505 57.505 3.505 57.505 3 57 C3 47.28571429 3 47.28571429 12 46 C13 49 13 49 8 51 C7.28542256 56.54307885 7.28542256 56.54307885 13 59 C11 63 11 63 5 65 C13.03659963 70.91036939 13.03659963 70.91036939 22.6875 71.25 C30 72 30 72 30 77 C28 79 28 79 25 79 C24.5 83 24.5 83 31 82 C29.39195998 90.04020011 27.00481285 90 19 90 C14 85 14 85 15 82 C16.32 82 17.64 82 19 82 C19 81.01 19 80.02 19 79 C14.545 79.495 14.545 79.495 10 80 C1.33634565 74.22423043 -5.901687 67.49156498 -8 57 C-12.16666667 57.83333333 -12.16666667 57.83333333 -9 64 C-8.01 65.65 -7.02 67.3 -6 69 C-14.14101274 66.28632909 -18 55.65904248 -18 48 C-14 45 -14 45 -7 45 C-7.495 43.515 -7.495 43.515 -8 42 C-7.34 42 -6.68 42 -6 42 C-5.67 39.69 -5.34 37.38 -5 35 C-3.35 33.35 -1.7 31.7 0 30 C2.94981801 25.17302507 4.88719741 21.56401295 6 16 C6.66 13.69 7.32 11.38 8 9 C6.68 9.33 5.36 9.66 4 10 C4.99 10.33 5.98 10.66 7 11 C6 15 6 15 3 19 C3.33 19.99 3.66 20.98 4 22 C2.68 23.32 1.36 24.64 0 26 C-0.66 23.69 -1.32 21.38 -2 19 C-3.32 19 -4.64 19 -6 19 C-6 0 -6 0 0 0 Z " transform="translate(42,33)" style="fill: #694C1C;"/><path d="M0 0 C2.413125 0.10054688 4.82625 0.20109375 7.3125 0.3046875 C13 1.125 13 1.125 13 4.125 C14.98 4.2075 16.96 4.29 19 4.375 C25 5.125 25 5.125 25 12.125 C18.73282626 18.39217374 12.40240869 17.06498085 3.75 17.3125 C0.63046875 17.45042969 -2.4890625 17.58835937 -5.703125 17.73046875 C-22.40955604 14.05469618 -14.74135348 -0.89771063 0 0 Z " transform="translate(69,78.875)" style="fill: #D09B40;"/><path d="M0 0 C3.93941591 3.93941591 6.84688951 8.4190659 10 13 C9.34 11.68 8.68 10.36 8 9 C7.34 7.02 6.68 5.04 6 3 C12.98276666 1.25430833 13.28773079 8.35405184 16 14 C23.26615737 21.26615737 26.67329353 24 37 24 C37 27 37 27 33 28 C35.9187404 35.296851 35.68734312 34 44 34 C48.0745356 30.52174919 48.0745356 30.52174919 49 27 C47.02 27 45.04 27 43 27 C43 24 43 24 47 22 C47.66 20.02 48.32 18.04 49 16 C52.465 14.02 52.465 14.02 56 12 C58.66666667 10 58.66666667 10 56 8 C58.97 8 61.94 8 65 8 C61.95365217 15.61586958 58.02554278 18.66240954 50 20 C50 21.32 50 22.64 50 24 C58 20.52704628 58 20.52704628 63 15 C66 12 66 12 73 11 C73.99 10.34 74.98 9.68 76 9 C76 15.42803933 69.10537772 16.95784891 64 19 C64 20.65 64 22.3 64 24 C60.04 24.495 60.04 24.495 56 25 C56 25.99 56 26.98 56 28 C54.68 28 53.36 28 52 28 C52 30.64 52 33.28 52 36 C50.35 36 48.7 36 47 36 C46.01 36.66 45.02 37.32 44 38 C32.64130435 37.2826087 32.64130435 37.2826087 28 28 C26.68 28 25.36 28 24 28 C23.34 26.68 22.68 25.36 22 24 C16.22135887 18.70018482 16.22135887 18.70018482 9 16 C0 5.52459016 0 5.52459016 0 0 Z " transform="translate(24,88)" style="fill: #020100;"/><path d="M0 0 C0.495 0.99 0.495 0.99 1 2 C4.11785113 3.58925565 4.11785113 3.58925565 5 1 C7 1 7 1 9 5 C10.32 5 11.64 5 13 5 C13 6.32 13 7.64 13 9 C9 8 9 8 6 7 C5.67 7.66 5.34 8.32 5 9 C4.505 7.515 4.505 7.515 4 6 C1.525 5.505 1.525 5.505 -1 5 C-1 3.68 -1 2.36 -1 1 C-4.33333333 1.66666667 -4.33333333 1.66666667 -5 5 C-6.32 5.33 -7.64 5.66 -9 6 C-9.33 7.98 -9.66 9.96 -10 12 C-10.66 10.68 -11.32 9.36 -12 8 C-15.13137085 7.67001684 -15.13137085 7.67001684 -15 15 C-15.33 14.01 -15.66 13.02 -16 12 C-16.99 12 -17.98 12 -19 12 C-18.4260261 16.20180184 -18.4260261 16.20180184 -15 18 C-18.29058008 21.04683341 -21.62239154 24.04993692 -25 27 C-19.84860713 25.71215178 -16.37643347 22.95871559 -12 20 C-6.90741333 18.30247111 1.11587621 17.5579381 6 20 C6 22 6 22 0 21.9375 C-7.05999458 22.00053567 -12.01802155 23.01201436 -18 27 C-12.83747197 29.58126401 -5.20581772 28.50632457 0.4765625 28.71875 C5 29 5 29 5 30 C-2.29354144 29.99069701 -9.58254067 29.86517541 -16.875 29.7421875 C-23.49955766 28.99929005 -23.49955766 28.99929005 -23 33 C-25 33 -25 33 -25 30 C-30.26714501 35.26714501 -30.80576221 41.81320182 -31 49 C-26.9254644 49.59628479 -26.9254644 49.59628479 -26 47 C-25.34 49.64 -24.68 52.28 -24 55 C-23.01 53.35 -22.02 51.7 -21 50 C-21.66 49.67 -22.32 49.34 -23 49 C-21.02 46.525 -21.02 46.525 -19 44 C-18.5527864 40.8509288 -18.5527864 40.8509288 -21 40 C-20 38 -20 38 -17 39 C-17 45 -17 45 -19 49 C-19.66 50.98 -20.32 52.96 -21 55 C-26 63 -26 63 -28 63 C-27.95875 60.855 -27.9175 58.71 -27.875 56.5 C-26.92928451 49.33345657 -26.92928451 49.33345657 -32 50 C-34.26142927 45.47714146 -34.01759733 30.50879867 -29 28 C-27.68 25.36 -26.36 22.72 -25 20 C-24.34 20 -23.68 20 -23 20 C-23 17.69 -23 15.38 -23 13 C-20 11 -20 11 -16 11 C-16 9.35 -16 7.7 -16 6 C-14.35 6 -12.7 6 -11 6 C-11 5.34 -11 4.68 -11 4 C-9.68 3.67 -8.36 3.34 -7 3 C-5 0 -5 0 0 0 Z " transform="translate(67,3)" style="fill: #030200;"/><path d="M0 0 C8.30127201 1.6602544 7.13293603 1.93651176 6 11 C3.6860354 19.09887609 1.73108531 22 -7 22 C-8.65 23.98 -10.3 25.96 -12 28 C-20 33 -20 33 -23 33 C-23 29 -23 29 -14 25 C-12.02 22.36 -10.04 19.72 -8 17 C-15.35929246 16.08169978 -15.35929246 16.08169978 -24.6875 16.625 C-30.45715792 16.79585021 -36.22818684 16.93430942 -42 17 C-39.49343275 11.98686549 -20.06275756 15.28868911 -14.79296875 15.41796875 C-5.73824417 14.93232688 -3.77853888 13.89269442 -2 5 C-0.68 5 0.64 5 2 5 C2.5 1.66666667 2.5 1.66666667 0 2 C0 1.34 0 0.68 0 0 Z " transform="translate(97,79)" style="fill: #040200;"/><path d="M0 0 C0 1.98 0 3.96 0 6 C1.32 6 2.64 6 4 6 C15.36599419 6 28.8186977 9.45609311 33 22 C28 20 28 20 23.4375 16.4375 C12.76719876 8.17177369 -1.68165217 10.68165217 -11 20 C-12.32 19.67 -13.64 19.34 -15 19 C-8 12 -8 12 -5 10 C-5.99 9.34 -6.98 8.68 -8 8 C-8 4 -8 4 -5 4 C-3 -1 -3 -1 0 0 Z " transform="translate(56,11)" style="fill: #D99B38;"/><path d="M0 0 C9.5625 0.75 9.5625 0.75 10.5625 3.75 C12.25375 3.87375 13.945 3.9975 15.6875 4.125 C18.100625 4.434375 18.100625 4.434375 20.5625 4.75 C18.88098199 13.15759005 12.6802713 10.55850414 5 10.625 C0.97619141 10.71394531 0.97619141 10.71394531 -3.12890625 10.8046875 C-15.73049468 8.69792039 -10.97966235 0.87255595 0 0 Z " transform="translate(69.4375,82.25)" style="fill: #BDA680;"/><path d="M0 0 C0.33 1.32 0.66 2.64 1 4 C0.34 4 -0.32 4 -1 4 C-1.41621143 9.32750632 -1.74978694 14.6621213 -2 20 C-1.67 18.35 -1.34 16.7 -1 15 C1 15 1 15 2 20 C2.99 20.33 3.98 20.66 5 21 C5.33 19.68 5.66 18.36 6 17 C16.39936102 14.01167787 16.39936102 14.01167787 18.8125 22 C19 29 19 29 17 36 C15.68 35.67 14.36 35.34 13 35 C13.99 32.36 14.98 29.72 16 27 C16 20.78197804 15.88749365 20.47187341 10 19 C9.66666667 21.33333333 9.66666667 21.33333333 12 21 C12 24 12 24 8 24 C8 25.65 8 27.3 8 29 C7 29 7 29 7 24 C4.36 24 1.72 24 -1 24 C-5 23 -5 23 -5 20 C-6.98 20 -8.96 20 -11 20 C-10.34 19.34 -9.68 18.68 -9 18 C-8.5875 16.47375 -8.175 14.9475 -7.75 13.375 C-6 8 -6 8 0 0 Z " transform="translate(87,60)" style="fill: #0E0D08;"/><path d="M0 0 C0 1.32 0 2.64 0 4 C1.65 4 3.3 4 5 4 C5.66 4.66 6.32 5.32 7 6 C8.32 6.33 9.64 6.66 11 7 C11.33 7.99 11.66 8.98 12 10 C14.475 10.495 14.475 10.495 17 11 C15 15 15 15 8 14 C7.67 13.67 7.34 13.34 7 13 C0.58369826 13.38886677 -5.65748447 13.94291408 -12 15 C-11.34 13.68 -10.68 12.36 -10 11 C-9.34 8.69 -8.68 6.38 -8 4 C-6.68 4 -5.36 4 -4 4 C-3 0 -3 0 0 0 Z " transform="translate(66,4)" style="fill: #0A0601;"/><path d="M0 0 C0 0.99 0 1.98 0 3 C2.2236068 3.2981424 2.2236068 3.2981424 3 1 C6.70254562 4.70254562 6 4.67873141 6 10 C6.33 11.32 6.66 12.64 7 14 C5.68 15.65 4.36 17.3 3 19 C3.33 19.99 3.66 20.98 4 22 C2.68 23.32 1.36 24.64 0 26 C-0.66 23.69 -1.32 21.38 -2 19 C-3.32 19 -4.64 19 -6 19 C-6 0 -6 0 0 0 Z " transform="translate(42,33)" style="fill: #5E7150;"/><path d="M0 0 C3.39345703 -0.03867187 3.39345703 -0.03867187 6.85546875 -0.078125 C14.40266899 0.33758964 16.95577248 1.1081812 19.8125 8.25 C19.4825 9.9 19.1525 11.55 18.8125 13.25 C19.4725 13.91 20.1325 14.57 20.8125 15.25 C16.8125 17.25 16.8125 17.25 15.8125 16.25 C15.8125 14.6 15.8125 12.95 15.8125 11.25 C12.33815835 11.88106761 12.33815835 11.88106761 12.8125 15.25 C13.8025 16.24 14.7925 17.23 15.8125 18.25 C14.08522727 28.61363636 14.08522727 28.61363636 8.8125 31.25 C10.47916667 27.91666667 12.14583333 24.58333333 13.8125 21.25 C14.04820226 18.30719096 14.04820226 18.30719096 8.8125 14.25 C9.4725 14.25 10.1325 14.25 10.8125 14.25 C10.3175 11.775 10.3175 11.775 9.8125 9.25 C11.4625 8.92 13.1125 8.59 14.8125 8.25 C12.40631959 1.03145878 2.33055068 4.33352166 -3.8125 4.5 C-8.10121094 4.60054687 -8.10121094 4.60054687 -12.4765625 4.703125 C-19.68584806 4.16841326 -19.68584806 4.16841326 -19.1875 8.25 C-21.1875 8.25 -21.1875 8.25 -22.1875 3.25 C-16.18881992 3.12415356 -10.18621623 3.12588863 -4.1875 3.25 C-3.85416667 -0.08333333 -3.85416667 -0.08333333 -12.1875 1.25 C-12.1875 -1.02570432 -1.11003458 0.00754698 0 0 Z " transform="translate(72.1875,32.75)" style="fill: #D79A39;"/><path d="M0 0 C-0.66 1.65 -1.32 3.3 -2 5 C-0.35 4.67 1.3 4.34 3 4 C4.44098753 7.62571057 5.754903 11.30243922 7 15 C11.56352881 22.60588136 14.43409812 26.14469937 23 29 C23 30.32 23 31.64 23 33 C11.56533115 30.71306623 4.20802987 21.04014935 2 10 C-2.16666667 10.83333333 -2.16666667 10.83333333 1 17 C1.99 18.65 2.98 20.3 4 22 C-4.08669653 19.30443449 -6.06568572 10.47451426 -7 3 C-4 0 -4 0 0 0 Z " transform="translate(32,80)" style="fill: #D89B38;"/><path d="M0 0 C0 0.66 0 1.32 0 2 C0.66 2 1.32 2 2 2 C2 6 2 6 -1 6 C-1.5 10 -1.5 10 5 9 C3.39195998 17.04020011 1.00481285 17 -7 17 C-12 12 -12 12 -11 9 C-9.68 9 -8.36 9 -7 9 C-6.5 5.66666667 -6.5 5.66666667 -9 6 C-9 3 -9 3 -7 3 C-7 0 -7 0 0 0 Z " transform="translate(68,106)" style="fill: #DC9D38;"/><path d="M0 0 C0 3.00056158 -16.33416116 2.17751228 -19.3125 2.1875 C-21.24738281 2.20167969 -23.18226562 2.21585938 -25.17578125 2.23046875 C-30 2 -30 2 -33 0 C-20.69097267 -7.69314208 -12.65198088 -7.59118853 0 0 Z " transform="translate(81,30)" style="fill: #5C7355;"/><path d="M0 0 C0 0.66 0 1.32 0 2 C0.99 2 1.98 2 3 2 C3 2.66 3 3.32 3 4 C5.64 3.979375 8.28 3.95875 11 3.9375 C19 4 19 4 19 7 C13 7 7 7 1 7 C1 13.44941616 14.22690513 10.03314649 19 10 C19 14.43589744 2.40512821 12 -1 12 C-1 12.66 -1 13.32 -1 14 C-1.66 14 -2.32 14 -3 14 C-3 14.66 -3 15.32 -3 16 C-7.56785505 16 -5.15300328 7.06006557 -5 4 C-2 0 -2 0 0 0 Z " transform="translate(57,48)" style="fill: #BDA983;"/><path d="M0 0 C0.33 1.65 0.66 3.3 1 5 C1.66 5.33 2.32 5.66 3 6 C0.96729364 15.14717864 -1.60027627 18.65975056 -7 26 C-7.66 28.64 -8.32 31.28 -9 34 C-12 34 -12 34 -12 29.3125 C-11 24 -11 24 -6 19 C0.10029979 10.92782622 0.10029979 10.92782622 -4 4 C-4 0 -4 0 0 0 Z " transform="translate(88,44)" style="fill: #D89C3B;"/><path d="M0 0 C0 0.99 0 1.98 0 3 C2.2236068 3.2981424 2.2236068 3.2981424 3 1 C6 4 6 4 6 9 C4 8 4 8 3 5 C2.34 4.67 1.68 4.34 1 4 C0.27228224 8.32349963 -0.39132816 12.65814086 -1 17 C-2 19 -2 19 -6 19 C-6 0 -6 0 0 0 Z " transform="translate(42,33)" style="fill: #040404;"/><path d="M0 0 C-2 7 -2 7 -6 6 C-5.01 3.36 -4.02 0.72 -3 -2 C-3 -8.21802196 -3.11250635 -8.52812659 -9 -10 C-9.33333333 -7.66666667 -9.33333333 -7.66666667 -7 -8 C-7 -5 -7 -5 -11 -5 C-11 -3.35 -11 -1.7 -11 0 C-12 0 -12 0 -12 -5 C-12.66 -5 -13.32 -5 -14 -5 C-14 -20.52363712 -1.09655021 -12.17170733 0 0 Z " transform="translate(106,89)" style="fill: #020100;"/><path d="M0 0 C8.30127201 1.6602544 7.13293603 1.93651176 6 11 C0 19 0 19 -2 20 C-1.484375 18.370625 -0.96875 16.74125 -0.4375 15.0625 C0.036875 13.391875 0.51125 11.72125 1 10 C0.01 10 -0.98 10 -2 10 C-2 5 -2 5 2 5 C2.5 1.66666667 2.5 1.66666667 0 2 C0 1.34 0 0.68 0 0 Z " transform="translate(97,79)" style="fill: #DA9D38;"/><path d="M0 0 C1 2 1 2 0 5 C1.98 7.97 1.98 7.97 4 11 C2 12 2 12 -5 12 C-6.10369725 18.62218352 -6.32064553 24.39677234 -5 31 C-9.10824103 26.89175897 -8.57515129 23.66464951 -9 18 C-9.33 17.01 -9.66 16.02 -10 15 C-8 9 -8 9 -1 7 C-1.33 5.68 -1.66 4.36 -2 3 C-1.34 2.01 -0.68 1.02 0 0 Z " transform="translate(47,60)" style="fill: #D99B39;"/><path d="M0 0 C2.041875 0.06445312 4.08375 0.12890625 6.1875 0.1953125 C11 0.875 11 0.875 11 3.875 C12.629375 4.019375 14.25875 4.16375 15.9375 4.3125 C21 4.875 21 4.875 22 8.875 C18.2690508 14.47142379 10.55579612 12.61041563 4.375 12.75 C1.51585938 12.85054687 -1.34328125 12.95109375 -4.2890625 13.0546875 C-11 11.875 -11 11.875 -12.6484375 6.375 C-10.27209911 -1.55363613 -7.8537252 -0.38673647 0 0 Z M-10 10.875 C-3.42057232 12.17670204 -3.42057232 12.17670204 4.4375 11.75 C7.11746094 11.72679688 9.79742187 11.70359375 12.55859375 11.6796875 C19.63110144 11.83055603 19.63110144 11.83055603 20 5.875 C16.67723755 5.44900481 13.34102662 5.11946536 10 4.875 C9.67 3.885 9.34 2.895 9 1.875 C-6.54225106 -1.24099051 -6.54225106 -1.24099051 -10 10.875 Z " transform="translate(70,81.125)" style="fill: #4E3C22;"/><path d="M0 0 C4 1 4 1 9 4 C18.37826897 6.34456724 24.36676902 5.31661549 33 1 C34.32 0.67 35.64 0.34 37 0 C26.55670784 10.44329216 16.10602474 10.55301237 3 4 C2.01 2.68 1.02 1.36 0 0 Z " transform="translate(46,97)" style="fill: #DB9D39;"/><path d="M0 0 C3.41265023 6.82530046 -10.71636505 15.32272815 -15 18 C-18 18 -18 18 -18 14 C-15.03 12.68 -12.06 11.36 -9 10 C-7.02 7.36 -5.04 4.72 -3 2 C-2.01 1.34 -1.02 0.68 0 0 Z " transform="translate(92,94)" style="fill: #D59937;"/><path d="M0 0 C1.99066874 10.57542768 1.99066874 10.57542768 -6 14 C-6.99 13.67 -7.98 13.34 -9 13 C-8.34 12.01 -7.68 11.02 -7 10 C-6.34 7.69 -5.68 5.38 -5 3 C-3.68 3 -2.36 3 -1 3 C-1 0 -1 0 0 0 Z " transform="translate(63,5)" style="fill: #040200;"/><path d="M0 0 C0 0.66 0 1.32 0 2 C2.124375 2 4.24875 2 6.4375 2 C13 2 13 2 14 4 C10.00036518 4.05404912 5.99985637 4.03389709 2 4 C-11.32250844 2.8433717 -11.32250844 2.8433717 -19 8 C-21 8 -21 8 -22 3 C-16.00131992 2.87415356 -9.99871623 2.87588863 -4 3 C-3.66666667 -0.33333333 -3.66666667 -0.33333333 -12 1 C-12 -1.56241855 -1.71825491 -0.05369547 0 0 Z " transform="translate(72,33)" style="fill: #C68E31;"/><path d="M0 0 C4.78125 -0.3984375 4.78125 -0.3984375 11.5 -0.375 C13.7171875 -0.38273437 15.934375 -0.39046875 18.21875 -0.3984375 C20.58546875 -0.20121094 20.58546875 -0.20121094 23 0 C16.27388324 5.04458757 6.72611676 5.04458757 0 0 Z " transform="translate(53,97)" style="fill: #5B7253;"/><path d="M0 0 C0 8.66666667 0 8.66666667 -4 10 C-8 8 -8 8 -8 4 C-7.01 4 -6.02 4 -5 4 C-3 -1 -3 -1 0 0 Z " transform="translate(56,11)" style="fill: #C99134;"/><path d="M0 0 C0 4.86274768 -15.65006655 2.08815614 -19 2 C-19 -2.86274768 -3.34993345 -0.08815614 0 0 Z " transform="translate(73,62)" style="fill: #100F08;"/><path d="M0 0 C0 4.86274768 -15.65006655 2.08815614 -19 2 C-19 -2.86274768 -3.34993345 -0.08815614 0 0 Z " transform="translate(77,55)" style="fill: #080808;"/><path d="M0 0 C0 4.86274768 -15.65006655 2.08815614 -19 2 C-19 -2.86274768 -3.34993345 -0.08815614 0 0 Z " transform="translate(77,48)" style="fill: #000000;"/><path d="M0 0 C1.30113819 5.20455275 0.35272209 8.85965604 -1 14 C-4 14 -4 14 -3.875 9.25 C-3 4 -3 4 0 0 Z " transform="translate(80,64)" style="fill: #C59A46;"/><path d="M0 0 C3 1 3 1 2 4 C2.99 4.66 3.98 5.32 5 6 C3.27272727 16.36363636 3.27272727 16.36363636 -2 19 C-0.33333333 15.66666667 1.33333333 12.33333333 3 9 C3.23570226 6.05719096 3.23570226 6.05719096 -2 2 C-1.34 2 -0.68 2 0 2 C0 1.34 0 0.68 0 0 Z " transform="translate(83,45)" style="fill: #534427;"/><path d="M0 0 C4.59421875 0.14888672 4.59421875 0.14888672 9.28125 0.30078125 C16.5 0.6875 16.5 0.6875 16.5 1.6875 C11.00113329 1.81544982 5.50034292 1.8634252 0 1.875 C-3.0628125 1.88917969 -6.125625 1.90335937 -9.28125 1.91796875 C-29.03367808 1.28734469 -3.80801204 -0.13302399 0 0 Z " transform="translate(71.5,94.3125)" style="fill: #534023;"/><path d="M0 0 C-0.375 11 -0.375 11 -5 11 C-3.16666667 0 -3.16666667 0 0 0 Z " transform="translate(85,67)" style="fill: #5E6F4D;"/><path d="M0 0 C1.32 0.66 2.64 1.32 4 2 C-1.81045522 3.45261381 -7.09091135 2.64999975 -13 2 C-13 -2.56812323 -3.08861395 -0.11439311 0 0 Z " transform="translate(85,33)" style="fill: #DE9E39;"/><path d="M0 0 C0.75 11 0.75 11 -3 11 C-3.75 0 -3.75 0 0 0 Z " transform="translate(66,4)" style="fill: #DC9D39;"/><path d="M0 0 C4.1765625 0.14888672 4.1765625 0.14888672 8.4375 0.30078125 C15 0.6875 15 0.6875 15 1.6875 C10.0012465 1.81544429 5.00037721 1.86342505 0 1.875 C-4.1765625 1.89626953 -4.1765625 1.89626953 -8.4375 1.91796875 C-26.33444591 1.28944505 -3.71223822 -0.14264619 0 0 Z " transform="translate(73,92.3125)" style="fill: #996F2A;"/><path d="M0 0 C5.15234375 -0.5234375 5.15234375 -0.5234375 11.9375 -0.375 C15.29228516 -0.32472656 15.29228516 -0.32472656 18.71484375 -0.2734375 C24 0 24 0 24 1 C18.53239769 1.25106337 13.06531788 1.38592455 7.59375 1.5234375 C2.50266905 1.28185994 2.50266905 1.28185994 3 5 C1 5 1 5 0 0 Z " transform="translate(50,36)" style="fill: #382F1C;"/><path d="M0 0 C-0.99 2.97 -1.98 5.94 -3 9 C-3.33 11.64 -3.66 14.28 -4 17 C-6.62154186 17 -5.05614206 6.43162255 -5 5 C-2 -1 -2 -1 0 0 Z " transform="translate(42,34)" style="fill: #D49835;"/><path d="M0 0 C0 4.69254063 -10.78430991 2.11484607 -14 2 C-14 -2.69254063 -3.21569009 -0.11484607 0 0 Z " transform="translate(68,69)" style="fill: #3D362A;"/><path d="M0 0 C0 2 0 2 -5 4 C-5.66 4.99 -6.32 5.98 -7 7 C-8.11759031 -0.82313219 -7.63727 -2.54575667 0 0 Z " transform="translate(55,80)" style="fill: #D49938;"/><path d="M0 0 C0 6 0 6 -4 6 C-4 -1.33333333 -4 -1.33333333 0 0 Z " transform="translate(61,9)" style="fill: #DE9E39;"/><path d="M0 0 C0 3.00874016 -5.99307192 0.79190723 -9 0.6875 C-18.99939773 -0.46620264 -18.99939773 -0.46620264 -18 7 C-26.07007 7 -6.14834693 -0.32359721 0 0 Z " transform="translate(79,83)" style="fill: #BE9A4E;"/><path d="M0 0 C0.33 0.66 0.66 1.32 1 2 C1.99 2.33 2.98 2.66 4 3 C4 5 4 5 1 6 C-2.39324165 4.30337918 -6.69608318 0 0 0 Z " transform="translate(51,15)" style="fill: #080603;"/><path d="M0 0 C1 2 1 2 2 8 C2.99 9.485 2.99 9.485 4 11 C-3 11 -3 11 -4 9 C-2.68 9 -1.36 9 0 9 C-0.33 8.67 -0.66 8.34 -1 8 C-1 1 -1 1 0 0 Z " transform="translate(46,82)" style="fill: #2E2413;"/><path d="M0 0 C1 3 1 3 0 6 C-0.26148818 13.54239568 -0.26148818 13.54239568 1 19 C-4.36439512 13.63560488 -2.63342256 6.58355641 0 0 Z " transform="translate(41,72)" style="fill: #604D2F;"/><path d="M0 0 C1 4 1 4 0 8 C-0.66 8 -1.32 8 -2 8 C-2.66 9.32 -3.32 10.64 -4 12 C-5 6 -5 6 -2 5 C-1.34 3.35 -0.68 1.7 0 0 Z " transform="translate(52,48)" style="fill: #CFA246;"/><path d="M0 0 C2.041875 -0.00257812 4.08375 -0.00515625 6.1875 -0.0078125 C11 0.125 11 0.125 11 1.125 C7.33449219 1.22615849 3.66690048 1.25462992 0 1.25 C-2.041875 1.25257812 -4.08375 1.25515625 -6.1875 1.2578125 C-19.51536192 0.88999813 -2.00639351 -0.00253333 0 0 Z " transform="translate(62,30.875)" style="fill: #41523E;"/><path d="M0 0 C0 7 0 7 -3 7 C-3 0 -3 0 0 0 Z " transform="translate(76,10)" style="fill: #DC9E39;"/><path d="M0 0 C0 7 0 7 -3 7 C-3 -0 -3 -0 0 0 Z " transform="translate(71,8)" style="fill: #DE9E39;"/><path d="M0 0 C0.34618423 3.33202321 0.6786019 6.66549472 1 10 C1.33 10.99 1.66 11.98 2 13 C1.01 13.495 1.01 13.495 0 14 C-4 0 -4 0 0 0 Z " transform="translate(37,79)" style="fill: #0D0902;"/><path d="M0 0 C0 2.35001036 -17.19002765 1.02381543 -19 1 C-19 -1.35001036 -1.80997235 -0.02381543 0 0 Z " transform="translate(73,64)" style="fill: #8D7E64;"/><path d="M0 0 C0 2.35001036 -17.19002765 1.02381543 -19 1 C-19 -1.35001036 -1.80997235 -0.02381543 0 0 Z " transform="translate(77,57)" style="fill: #80745A;"/><path d="M0 0 C2 0 2 0 3 5 C2 6 2 6 -3 6 C-3.33 6.66 -3.66 7.32 -4 8 C-4 5 -4 5 1 4 C0.67 2.68 0.34 1.36 0 0 Z " transform="translate(86,37)" style="fill: #776241;"/><path d="M0 0 C0 6 0 6 -3 6 C-2 0 -2 0 0 0 Z " transform="translate(79,72)" style="fill: #D89B39;"/><path d="M0 0 C-1 7 -1 7 -3 7 C-2 0 -2 0 0 0 Z " transform="translate(88,75)" style="fill: #D19733;"/><path d="M0 0 C-2 1 -2 1 -9 1 C-3 -3 -3 -3 0 0 Z " transform="translate(51,71)" style="fill: #997131;"/><path d="M0 0 C1 2 1 2 0 5 C0.66 6.32 1.32 7.64 2 9 C-2 6 -2 6 -1 1 C-0.67 0.67 -0.34 0.34 0 0 Z " transform="translate(47,60)" style="fill: #504123;"/><path d="M0 0 C0.99 0.33 1.98 0.66 3 1 C2.34 1 1.68 1 1 1 C0.5 4.5 0.5 4.5 4 4 C3.67 5.32 3.34 6.64 3 8 C3 7.01 3 6.02 3 5 C2.01 5 1.02 5 0 5 C0 3.35 0 1.7 0 0 Z " transform="translate(95,84)" style="fill: #D09634;"/><path d="M0 0 C0 2.43478645 -11.25918936 1.03347713 -13 1 C-13 -1.43478645 -1.74081064 -0.03347713 0 0 Z " transform="translate(67,71)" style="fill: #796A53;"/><path d="M0 0 C0.33 0.66 0.66 1.32 1 2 C-11.7018576 1.33148118 -14.57149969 -0.49117415 0 0 Z " transform="translate(85,35)" style="fill: #181408;"/><path d="M0 0 C0 1 0 1 -7 1 C-7 1.99 -7 2.98 -7 4 C-9.40370085 2.79814957 -2.68741925 0 0 0 Z " transform="translate(68,105)" style="fill: #3B2A11;"/><path d="M0 0 C0 2.44148877 -10.27541054 1.03592895 -12 1 C-12 -1.44148877 -1.72458946 -0.03592895 0 0 Z " transform="translate(71,102)" style="fill: #473313;"/><path d="M0 0 C0 2.44148877 -10.27541054 1.03592895 -12 1 C-12 -1.44148877 -1.72458946 -0.03592895 0 0 Z " transform="translate(67,70)" style="fill: #000000;"/><path d="M0 0 C3 3 3 3 3 5 C-1 4 -1 4 0 0 Z " transform="translate(41,64)" style="fill: #070400;"/><path d="M0 0 C0 3.01846171 -5.98153829 1 -9 1 C-9 -2.99374694 -1.85432654 -0.46358164 0 0 Z " transform="translate(52,32)" style="fill: #161610;"/><path d="M0 0 C0 4 0 4 -3 4 C-3 0 -3 0 0 0 Z " transform="translate(81,15)" style="fill: #D69A39;"/><path d="M0 0 C0 4 0 4 -3 4 C-3 0 -3 0 0 0 Z " transform="translate(51,15)" style="fill: #DE9E39;"/><path d="M0 0 C0 5 0 5 -2 5 C-2 0 -2 0 0 0 Z " transform="translate(55,12)" style="fill: #DCA039;"/><path d="M0 0 C0 3.01846171 -5.98153829 1 -9 1 C-9 -2.01846171 -3.01846171 0 0 0 Z " transform="translate(69,100)" style="fill: #473313;"/><path d="M0 0 C0 3 0 3 -3 6 C-1 1 -1 1 0 0 Z " transform="translate(80,64)" style="fill: #6F5731;"/><path d="M0 0 C0 9 0 9 -1 9 C-1 0 -1 0 0 0 Z " transform="translate(37,42)" style="fill: #966A26;"/><path d="M0 0 C3 1 3 1 3 3 C2.01 3.33 1.02 3.66 0 4 C0 2.68 0 1.36 0 0 Z " transform="translate(80,44)" style="fill: #B59A73;"/><path d="M0 0 C0 3.01846171 -5.98153829 1 -9 1 C-9 -2.01846171 -3.01846171 0 0 0 Z " transform="translate(69,24)" style="fill: #3E4D3B;"/><path d="M0 0 C0.99 0.33 1.98 0.66 3 1 C2.34 1 1.68 1 1 1 C1 2.98 1 4.96 1 7 C0 7 0 7 0 0 Z " transform="translate(73,10)" style="fill: #966C27;"/><path d="M0 0 C0 9 0 9 -1 9 C-1 0 -1 0 0 0 Z " transform="translate(63,5)" style="fill: #4D3613;"/><path d="M0 0 C0.33 1.32 0.66 2.64 1 4 C-0.65 4 -2.3 4 -4 4 C-2.68 3.67 -1.36 3.34 0 3 C0 2.01 0 1.02 0 0 Z " transform="translate(61,112)" style="fill: #8B6222;"/><path d="M0 0 C2 0 2 0 2 7 C1 7 1 7 0 0 Z " transform="translate(92,84)" style="fill: #8A6223;"/><path d="M0 0 C0 8 0 8 -1 8 C-1 0 -1 0 0 0 Z " transform="translate(39,43)" style="fill: #4F3713;"/><path d="M0 0 C0 2.68741925 -5.31258075 1 -8 1 C-8 -1.68741925 -2.68741925 0 0 0 Z " transform="translate(68,33)" style="fill: #916826;"/><path d="M0 0 C0 2.68741925 -5.31258075 1 -8 1 C-8 -1.68741925 -2.68741925 0 0 0 Z " transform="translate(84,32)" style="fill: #9C7028;"/><path d="M0 0 C-1.65 0.33 -3.3 0.66 -5 1 C-4 -1 -4 -1 0 0 Z " transform="translate(77,32)" style="fill: #1C1D13;"/><path d="M0 0 C1.65 0 3.3 0 5 0 C4.67 0.99 4.34 1.98 4 3 C4 2.34 4 1.68 4 1 C2.68 0.67 1.36 0.34 0 0 Z " transform="translate(68,115)" style="fill: #7E591F;"/><path d="M0 0 C0 7 0 7 -1 7 C-1 0 -1 0 0 0 Z " transform="translate(37,79)" style="fill: #5F441A;"/><path d="M0 0 C1 4 1 4 -1 6 C-0.67 4.02 -0.34 2.04 0 0 Z " transform="translate(52,48)" style="fill: #312418;"/><path d="M0 0 C0 7 0 7 -1 7 C-1 0 -1 0 0 0 Z " transform="translate(54,41)" style="fill: #181408;"/><path d="M0 0 C-0.66 1.32 -1.32 2.64 -2 4 C-2 0 -2 0 0 0 Z " transform="translate(26,96)" style="fill: #000000;"/><path d="M0 0 C0.33 0.99 0.66 1.98 1 3 C-1.30745272 2.23084909 -4.45043075 0 0 0 Z " transform="translate(47,88)" style="fill: #5A4B31;"/><path d="M0 0 C0 6 0 6 -1 6 C-1 0 -1 0 0 0 Z " transform="translate(61,84)" style="fill: #786A54;"/><path d="M0 0 C0 6 0 6 -1 6 C-1 0 -1 0 0 0 Z " transform="translate(58,84)" style="fill: #8E6722;"/><path d="M0 0 C0 1.65 0 3.3 0 5 C-1.21523404 3.78476596 -3.93311092 0 0 0 Z " transform="translate(77,70)" style="fill: #8E6626;"/><path d="M0 0 C1 4 1 4 -1 5 C-0.67 3.35 -0.34 1.7 0 0 Z " transform="translate(91,50)" style="fill: #080400;"/><path d="M0 0 C0 6 0 6 -1 6 C-1 0 -1 0 0 0 Z " transform="translate(41,44)" style="fill: #1E251B;"/><path d="M0 0 C1.65 0 3.3 0 5 0 C1 2 1 2 0 0 Z " transform="translate(83,43)" style="fill: #C6A263;"/><path d="M0 0 C1.32 0.33 2.64 0.66 4 1 C3.01 1 2.02 1 1 1 C0.67 1.66 0.34 2.32 0 3 C0 2.01 0 1.02 0 0 Z " transform="translate(82,42)" style="fill: #292015;"/><path d="M0 0 C0.33 0.99 0.66 1.98 1 3 C0.01 2.67 -0.98 2.34 -2 2 C-1.34 1.34 -0.68 0.68 0 0 Z " transform="translate(87,40)" style="fill: #846B43;"/><path d="M0 0 C0 1 0 1 -6 1 C-6 0 -6 0 0 0 Z " transform="translate(74,36)" style="fill: #312C21;"/><path d="M0 0 C0 3 0 3 -2 3 C-2 0 -2 0 0 0 Z " transform="translate(80,16)" style="fill: #DE9E39;"/><path d="M0 0 C0 6 0 6 -1 6 C-1 0 -1 0 0 0 Z " transform="translate(56,11)" style="fill: #735521;"/><path d="M0 0 C0 6 0 6 -1 6 C-1 0 -1 0 0 0 Z " transform="translate(77,11)" style="fill: #835D20;"/><path d="M0 0 C0 6 0 6 -1 6 C-1 0 -1 0 0 0 Z " transform="translate(61,9)" style="fill: #966A26;"/><path d="M0 0 C0 6 0 6 -1 6 C-1 0 -1 0 0 0 Z " transform="translate(58,9)" style="fill: #966A26;"/><path d="M0 0 C0.66 0 1.32 0 2 0 C1.67 0.99 1.34 1.98 1 3 C0.67 2.01 0.34 1.02 0 0 Z " transform="translate(70,108)" style="fill: #100C08;"/><path d="M0 0 C0 1 0 1 -5 1 C-5 0 -5 0 0 0 Z " transform="translate(53,95)" style="fill: #9A6E27;"/><path d="M0 0 C2 1 2 1 1 4 C0.67 2.68 0.34 1.36 0 0 Z " transform="translate(30,91)" style="fill: #080800;"/><path d="M0 0 C0 5 0 5 -1 5 C-1 0 -1 0 0 0 Z " transform="translate(60,85)" style="fill: #896420;"/><path d="M0 0 C0 5 0 5 -1 5 C-1 0 -1 0 0 0 Z " transform="translate(104,82)" style="fill: #9C7028;"/><path d="M0 0 C0 5 0 5 -1 5 C-1 0 -1 0 0 0 Z " transform="translate(40,80)" style="fill: #251A0E;"/><path d="M0 0 C0.33 1.32 0.66 2.64 1 4 C-1 2 -1 2 0 0 Z " transform="translate(47,62)" style="fill: #CE9E4B;"/><path d="M0 0 C0.99 0.33 1.98 0.66 3 1 C2.01 1.33 1.02 1.66 0 2 C0 1.34 0 0.68 0 0 Z " transform="translate(83,45)" style="fill: #413826;"/><path d="M0 0 C0 5 0 5 -1 5 C-1 0 -1 0 0 0 Z " transform="translate(53,42)" style="fill: #C6A673;"/><path d="M0 0 C0.66 1.32 1.32 2.64 2 4 C0 3 0 3 0 0 Z " transform="translate(46,38)" style="fill: #2A3022;"/><path d="M0 0 C0 1 0 1 -5 1 C-5 0 -5 0 0 0 Z " transform="translate(90,33)" style="fill: #3F2C0D;"/><path d="M0 0 C0 1 0 1 -5 1 C-5 0 -5 0 0 0 Z " transform="translate(48,32)" style="fill: #533B17;"/><path d="M0 0 C0 5 0 5 -1 5 C-1 0 -1 0 0 0 Z " transform="translate(72,9)" style="fill: #4C3513;"/><path d="M0 0 C0.99 0.33 1.98 0.66 3 1 C0 1 0 1 0 0 Z " transform="translate(33,100)" style="fill: #79541F;"/><path d="M0 0 C-0.99 0 -1.98 0 -3 0 C-2 -1 -2 -1 0 0 Z " transform="translate(96,100)" style="fill: #584016;"/><path d="M0 0 C2 1 2 1 1 3 C0.67 2.01 0.34 1.02 0 0 Z " transform="translate(40,88)" style="fill: #5D4C31;"/><path d="M0 0 C1 4 1 4 1 4 Z " transform="translate(25,83)" style="fill: #946926;"/><path d="M0 0 C4 1 4 1 4 1 Z " transform="translate(86,83)" style="fill: #161005;"/><path d="M0 0 C-0.99 -0.33 -1.98 -0.66 -3 -1 C-1 -2 -1 -2 0 0 Z " transform="translate(55,82)" style="fill: #8E6626;"/><path d="M0 0 C-0.99 -0.33 -1.98 -0.66 -3 -1 C-1 -2 -1 -2 0 0 Z " transform="translate(52,80)" style="fill: #86745A;"/><path d="M0 0 C4 1 4 1 4 1 Z " transform="translate(42,71)" style="fill: #161516;"/><path d="M0 0 C-0.99 -0.33 -1.98 -0.66 -3 -1 C-2 -2 -2 -2 0 0 Z " transform="translate(51,71)" style="fill: #292010;"/><path d="M0 0 C0.99 0.495 0.99 0.495 2 1 C1.34 1.66 0.68 2.32 0 3 C0 2.01 0 1.02 0 0 Z " transform="translate(88,56)" style="fill: #CE9631;"/><path d="M0 0 C0 2 0 2 -2 2 C-2 0 -2 0 0 0 Z " transform="translate(52,54)" style="fill: #D6A242;"/><path d="M0 0 C1 4 1 4 1 4 Z " transform="translate(50,43)" style="fill: #916826;"/><path d="M0 0 C0.99 0.33 1.98 0.66 3 1 C0 1 0 1 0 0 Z " transform="translate(83,35)" style="fill: #292010;"/><path d="M0 0 C4 1 4 1 4 1 Z " transform="translate(74,36)" style="fill: #948368;"/><path d="M0 0 C0.99 0.495 0.99 0.495 2 1 C1.34 1.66 0.68 2.32 0 3 C0 2.01 0 1.02 0 0 Z " transform="translate(40,33)" style="fill: #DE9E39;"/><path d="" transform="translate(0,0)" style="fill: #523C18;"/><path d="" transform="translate(0,0)" style="fill: #4F3713;"/><path d="M0 0 C0.33 0.66 0.66 1.32 1 2 C0.34 1.67 -0.32 1.34 -1 1 C-0.67 0.67 -0.34 0.34 0 0 Z " transform="translate(92,94)" style="fill: #8B6523;"/><path d="M0 0 C3 1 3 1 3 1 Z " transform="translate(46,93)" style="fill: #9E7228;"/><path d="" transform="translate(0,0)" style="fill: #100C08;"/><path d="M0 0 C0.66 0.66 1.32 1.32 2 2 C0 2 0 2 0 0 Z " transform="translate(40,90)" style="fill: #C6A673;"/><path d="" transform="translate(0,0)" style="fill: #443210;"/><path d="M0 0 C0.66 0 1.32 0 2 0 C1.67 0.66 1.34 1.32 1 2 C0.67 1.34 0.34 0.68 0 0 Z " transform="translate(49,88)" style="fill: #080400;"/><path d="M0 0 C0.99 0.495 0.99 0.495 2 1 C1.01 1.495 1.01 1.495 0 2 C0 1.34 0 0.68 0 0 Z " transform="translate(45,88)" style="fill: #8B7652;"/><path d="M0 0 C3 1 3 1 3 1 Z " transform="translate(88,86)" style="fill: #181810;"/><path d="M0 0 C3 1 3 1 3 1 Z " transform="translate(31,85)" style="fill: #926826;"/><path d="M0 0 C3 1 3 1 3 1 Z " transform="translate(95,84)" style="fill: #876325;"/><path d="M0 0 C3 1 3 1 3 1 Z " transform="translate(83,83)" style="fill: #916826;"/><path d="M0 0 C0.33 0.66 0.66 1.32 1 2 C0.34 1.67 -0.32 1.34 -1 1 C-0.67 0.67 -0.34 0.34 0 0 Z " transform="translate(80,82)" style="fill: #543C18;"/><path d="M0 0 C0.33 0.66 0.66 1.32 1 2 C0.34 1.67 -0.32 1.34 -1 1 C-0.67 0.67 -0.34 0.34 0 0 Z " transform="translate(46,82)" style="fill: #5A4B31;"/><path d="" transform="translate(0,0)" style="fill: #473313;"/><path d="M0 0 C0.99 0.495 0.99 0.495 2 1 C1.01 1.495 1.01 1.495 0 2 C0 1.34 0 0.68 0 0 Z " transform="translate(47,80)" style="fill: #473313;"/><path d="" transform="translate(0,0)" style="fill: #907E62;"/><path d="" transform="translate(0,0)" style="fill: #956B27;"/><path d="" transform="translate(0,0)" style="fill: #3C4B36;"/><path d="" transform="translate(0,0)" style="fill: #2F2511;"/><path d="M0 0 C3 1 3 1 3 1 Z " transform="translate(41,68)" style="fill: #473313;"/><path d="M0 0 C0.33 0.66 0.66 1.32 1 2 C0.34 1.67 -0.32 1.34 -1 1 C-0.67 0.67 -0.34 0.34 0 0 Z " transform="translate(83,62)" style="fill: #C6A26B;"/><path d="M0 0 C0.99 0.495 0.99 0.495 2 1 C1.01 1.495 1.01 1.495 0 2 C0 1.34 0 0.68 0 0 Z " transform="translate(83,60)" style="fill: #625033;"/><path d="M0 0 C0.66 0 1.32 0 2 0 C1.67 0.66 1.34 1.32 1 2 C0.67 1.34 0.34 0.68 0 0 Z " transform="translate(44,53)" style="fill: #413E23;"/><path d="" transform="translate(0,0)" style="fill: #231D10;"/><path d="" transform="translate(0,0)" style="fill: #101008;"/><path d="M0 0 C0.33 0.66 0.66 1.32 1 2 C0.34 1.67 -0.32 1.34 -1 1 C-0.67 0.67 -0.34 0.34 0 0 Z " transform="translate(93,47)" style="fill: #271C0A;"/><path d="M0 0 C0.66 0 1.32 0 2 0 C1.67 0.66 1.34 1.32 1 2 C0.67 1.34 0.34 0.68 0 0 Z " transform="translate(81,47)" style="fill: #352C1B;"/><path d="" transform="translate(0,0)" style="fill: #8E6626;"/><path d="M0 0 C0.99 0.495 0.99 0.495 2 1 C1.01 1.495 1.01 1.495 0 2 C0 1.34 0 0.68 0 0 Z " transform="translate(89,44)" style="fill: #8E6626;"/><path d="" transform="translate(0,0)" style="fill: #473311;"/><path d="M0 0 C0.66 0.66 1.32 1.32 2 2 C0 2 0 2 0 0 Z " transform="translate(46,41)" style="fill: #000000;"/><path d="M0 0 C0.66 0 1.32 0 2 0 C1.67 0.66 1.34 1.32 1 2 C0.67 1.34 0.34 0.68 0 0 Z " transform="translate(50,36)" style="fill: #181408;"/><path d="M0 0 C3 1 3 1 3 1 Z " transform="translate(74,35)" style="fill: #5A4218;"/><path d="M0 0 C3 1 3 1 3 1 Z " transform="translate(49,35)" style="fill: #996D28;"/><path d="M0 0 C3 1 3 1 3 1 Z " transform="translate(76,32)" style="fill: #5A4218;"/><path d="M0 0 C3 1 3 1 3 1 Z " transform="translate(63,16)" style="fill: #4F3713;"/><path d="M0 0 C3 1 3 1 3 1 Z " transform="translate(78,15)" style="fill: #AB792C;"/><path d="M0 0 C3 1 3 1 3 1 Z " transform="translate(48,15)" style="fill: #A07128;"/><path d="M0 0 C3 1 3 1 3 1 Z " transform="translate(63,4)" style="fill: #D69A39;"/><path d="" transform="translate(0,0)" style="fill: #946926;"/><path d="M0 0 C2 1 2 1 2 1 Z " transform="translate(59,111)" style="fill: #BA8831;"/><path d="" transform="translate(0,0)" style="fill: #543C18;"/><path d="" transform="translate(0,0)" style="fill: #4F3713;"/><path d="M0 0 C2 1 2 1 2 1 Z " transform="translate(68,108)" style="fill: #543C18;"/><path d="M0 0 C2 1 2 1 2 1 Z " transform="translate(59,108)" style="fill: #735521;"/><path d="M0 0 C2 1 2 1 2 1 Z " transform="translate(77,107)" style="fill: #D69A39;"/><path d="M0 0 C2 1 2 1 2 1 Z " transform="translate(71,104)" style="fill: #523C18;"/><path d="M0 0 C2 1 2 1 2 1 Z " transform="translate(74,103)" style="fill: #4F3713;"/><path d="M0 0 C2 1 2 1 2 1 Z " transform="translate(57,102)" style="fill: #966A26;"/><path d="" transform="translate(0,0)" style="fill: #996D28;"/><path d="M0 0 C2 1 2 1 2 1 Z " transform="translate(44,95)" style="fill: #9F7428;"/><path d="" transform="translate(0,0)" style="fill: #2C200B;"/><path d="" transform="translate(0,0)" style="fill: #100C08;"/><path d="M0 0 C2 1 2 1 2 1 Z " transform="translate(48,92)" style="fill: #181408;"/><path d="" transform="translate(0,0)" style="fill: #4B3713;"/><path d="" transform="translate(0,0)" style="fill: #BD9E6B;"/><path d="" transform="translate(0,0)" style="fill: #543C18;"/><path d="" transform="translate(0,0)" style="fill: #544324;"/><path d="" transform="translate(0,0)" style="fill: #4B3513;"/><path d="" transform="translate(0,0)" style="fill: #4C3613;"/><path d="M0 0 C2 1 2 1 2 1 Z " transform="translate(86,86)" style="fill: #524129;"/><path d="" transform="translate(0,0)" style="fill: #845E20;"/><path d="" transform="translate(0,0)" style="fill: #5A4218;"/><path d="M0 0 C2 1 2 1 2 1 Z " transform="translate(92,84)" style="fill: #473313;"/><path d="" transform="translate(0,0)" style="fill: #483313;"/><path d="M0 0 C2 1 2 1 2 1 Z " transform="translate(86,83)" style="fill: #473313;"/><path d="" transform="translate(0,0)" style="fill: #080400;"/><path d="" transform="translate(0,0)" style="fill: #473313;"/><path d="" transform="translate(0,0)" style="fill: #8E6626;"/><path d="M0 0 C2 1 2 1 2 1 Z " transform="translate(102,80)" style="fill: #181408;"/><path d="" transform="translate(0,0)" style="fill: #896420;"/><path d="" transform="translate(0,0)" style="fill: #443210;"/><path d="M0 0 C2 1 2 1 2 1 Z " transform="translate(52,79)" style="fill: #BDA273;"/><path d="M0 0 C2 1 2 1 2 1 Z " transform="translate(49,79)" style="fill: #4F4231;"/><path d="M0 0 C2 1 2 1 2 1 Z " transform="translate(30,79)" style="fill: #523C18;"/><path d="M0 0 C2 1 2 1 2 1 Z " transform="translate(97,78)" style="fill: #4F3713;"/><path d="M0 0 C2 1 2 1 2 1 Z " transform="translate(76,78)" style="fill: #5A4218;"/><path d="" transform="translate(0,0)" style="fill: #3C4B36;"/><path d="M0 0 C2 1 2 1 2 1 Z " transform="translate(39,77)" style="fill: #5A4C36;"/><path d="" transform="translate(0,0)" style="fill: #20180C;"/><path d="" transform="translate(0,0)" style="fill: #976B27;"/><path d="" transform="translate(0,0)" style="fill: #3C4B36;"/><path d="" transform="translate(0,0)" style="fill: #312C21;"/><path d="" transform="translate(0,0)" style="fill: #4F422E;"/><path d="" transform="translate(0,0)" style="fill: #000204;"/><path d="" transform="translate(0,0)" style="fill: #786952;"/><path d="" transform="translate(0,0)" style="fill: #181810;"/><path d="" transform="translate(0,0)" style="fill: #CE9A42;"/><path d="" transform="translate(0,0)" style="fill: #4F3713;"/><path d="" transform="translate(0,0)" style="fill: #86745A;"/><path d="" transform="translate(0,0)" style="fill: #443E31;"/><path d="M0 0 C2 1 2 1 2 1 Z " transform="translate(45,63)" style="fill: #916E31;"/><path d="" transform="translate(0,0)" style="fill: #312818;"/><path d="" transform="translate(0,0)" style="fill: #CE9A42;"/><path d="" transform="translate(0,0)" style="fill: #312818;"/><path d="" transform="translate(0,0)" style="fill: #292010;"/><path d="" transform="translate(0,0)" style="fill: #80745A;"/><path d="" transform="translate(0,0)" style="fill: #312418;"/><path d="" transform="translate(0,0)" style="fill: #1E251B;"/><path d="" transform="translate(0,0)" style="fill: #4F3713;"/><path d="M0 0 C2 1 2 1 2 1 Z " transform="translate(86,54)" style="fill: #5A4C36;"/><path d="" transform="translate(0,0)" style="fill: #3C4B36;"/><path d="" transform="translate(0,0)" style="fill: #4C3613;"/><path d="" transform="translate(0,0)" style="fill: #544320;"/><path d="M0 0 C2 1 2 1 2 1 Z " transform="translate(84,51)" style="fill: #CE9A42;"/><path d="M0 0 C2 1 2 1 2 1 Z " transform="translate(51,51)" style="fill: #494231;"/><path d="" transform="translate(0,0)" style="fill: #292010;"/><path d="" transform="translate(0,0)" style="fill: #80745A;"/><path d="M0 0 C2 1 2 1 2 1 Z " transform="translate(90,48)" style="fill: #916826;"/><path d="M0 0 C2 1 2 1 2 1 Z " transform="translate(84,46)" style="fill: #181408;"/><path d="" transform="translate(0,0)" style="fill: #7B694C;"/><path d="" transform="translate(0,0)" style="fill: #B59A73;"/><path d="" transform="translate(0,0)" style="fill: #3C4B36;"/><path d="" transform="translate(0,0)" style="fill: #8E6626;"/><path d="M0 0 C2 1 2 1 2 1 Z " transform="translate(53,40)" style="fill: #C6A673;"/><path d="" transform="translate(0,0)" style="fill: #9C7028;"/><path d="M0 0 C2 1 2 1 2 1 Z " transform="translate(86,36)" style="fill: #C6A673;"/><path d="M0 0 C2 1 2 1 2 1 Z " transform="translate(74,36)" style="fill: #756852;"/><path d="M0 0 C2 1 2 1 2 1 Z " transform="translate(72,36)" style="fill: #524939;"/><path d="M0 0 C2 1 2 1 2 1 Z " transform="translate(43,36)" style="fill: #373B29;"/><path d="M0 0 C2 1 2 1 2 1 Z " transform="translate(83,35)" style="fill: #966A26;"/><path d="M0 0 C2 1 2 1 2 1 Z " transform="translate(72,35)" style="fill: #9C7028;"/><path d="" transform="translate(0,0)" style="fill: #4F3713;"/><path d="M0 0 C2 1 2 1 2 1 Z " transform="translate(85,33)" style="fill: #4F3713;"/><path d="M0 0 C2 1 2 1 2 1 Z " transform="translate(82,32)" style="fill: #5A4218;"/><path d="M0 0 C2 1 2 1 2 1 Z " transform="translate(40,32)" style="fill: #4F3713;"/><path d="M0 0 C2 1 2 1 2 1 Z " transform="translate(69,24)" style="fill: #1E251B;"/><path d="M0 0 C2 1 2 1 2 1 Z " transform="translate(73,23)" style="fill: #966A26;"/><path d="M0 0 C2 1 2 1 2 1 Z " transform="translate(69,22)" style="fill: #4A3413;"/><path d="M0 0 C2 1 2 1 2 1 Z " transform="translate(58,22)" style="fill: #4A3413;"/><path d="M0 0 C2 1 2 1 2 1 Z " transform="translate(73,19)" style="fill: #473313;"/><path d="" transform="translate(0,0)" style="fill: #4C3613;"/><path d="M0 0 C2 1 2 1 2 1 Z " transform="translate(74,17)" style="fill: #473313;"/><path d="M0 0 C2 1 2 1 2 1 Z " transform="translate(68,17)" style="fill: #473313;"/><path d="M0 0 C2 1 2 1 2 1 Z " transform="translate(53,17)" style="fill: #473313;"/><path d="M0 0 C2 1 2 1 2 1 Z " transform="translate(53,10)" style="fill: #996D28;"/><path d="M0 0 C2 1 2 1 2 1 Z " transform="translate(60,8)" style="fill: #080400;"/><path d="" transform="translate(0,0)" style="fill: #473313;"/><path d="" transform="translate(0,0)" style="fill: #8E6626;"/><path d="" transform="translate(0,0)" style="fill: #946926;"/><path d="" transform="translate(0,0)" style="fill: #4A3413;"/><path d="" transform="translate(0,0)" style="fill: #8E6626;"/><path d="" transform="translate(0,0)" style="fill: #422F10;"/><path d="" transform="translate(0,0)" style="fill: #422F10;"/><path d="" transform="translate(0,0)" style="fill: #966A26;"/><path d="" transform="translate(0,0)" style="fill: #946926;"/><path d="" transform="translate(0,0)" style="fill: #34240D;"/><path d="" transform="translate(0,0)" style="fill: #4A3413;"/><path d="" transform="translate(0,0)" style="fill: #9C6D29;"/><path d="" transform="translate(0,0)" style="fill: #473313;"/><path d="" transform="translate(0,0)" style="fill: #AF7D2E;"/><path d="" transform="translate(0,0)" style="fill: #422F10;"/><path d="" transform="translate(0,0)" style="fill: #473313;"/><path d="" transform="translate(0,0)" style="fill: #473313;"/><path d="" transform="translate(0,0)" style="fill: #805C23;"/><path d="" transform="translate(0,0)" style="fill: #8E6626;"/><path d="" transform="translate(0,0)" style="fill: #362810;"/><path d="" transform="translate(0,0)" style="fill: #996D28;"/><path d="" transform="translate(0,0)" style="fill: #996D28;"/><path d="" transform="translate(0,0)" style="fill: #966A26;"/><path d="" transform="translate(0,0)" style="fill: #8E6626;"/><path d="" transform="translate(0,0)" style="fill: #473313;"/><path d="" transform="translate(0,0)" style="fill: #996D28;"/><path d="" transform="translate(0,0)" style="fill: #8E6626;"/><path d="" transform="translate(0,0)" style="fill: #845E20;"/><path d="" transform="translate(0,0)" style="fill: #8E6626;"/><path d="" transform="translate(0,0)" style="fill: #473313;"/><path d="" transform="translate(0,0)" style="fill: #422F10;"/><path d="" transform="translate(0,0)" style="fill: #996D28;"/><path d="" transform="translate(0,0)" style="fill: #4F3713;"/><path d="" transform="translate(0,0)" style="fill: #473313;"/><path d="" transform="translate(0,0)" style="fill: #8E6626;"/><path d="" transform="translate(0,0)" style="fill: #473313;"/><path d="" transform="translate(0,0)" style="fill: #4C3613;"/><path d="" transform="translate(0,0)" style="fill: #8E6626;"/><path d="" transform="translate(0,0)" style="fill: #473313;"/><path d="" transform="translate(0,0)" style="fill: #422F10;"/><path d="" transform="translate(0,0)" style="fill: #543C18;"/><path d="" transform="translate(0,0)" style="fill: #8E6626;"/><path d="" transform="translate(0,0)" style="fill: #473313;"/><path d="" transform="translate(0,0)" style="fill: #543C18;"/><path d="" transform="translate(0,0)" style="fill: #8E6626;"/><path d="" transform="translate(0,0)" style="fill: #8E6626;"/><path d="" transform="translate(0,0)" style="fill: #4C3613;"/><path d="" transform="translate(0,0)" style="fill: #8E6626;"/><path d="" transform="translate(0,0)" style="fill: #8E6626;"/><path d="" transform="translate(0,0)" style="fill: #916826;"/><path d="" transform="translate(0,0)" style="fill: #8E6626;"/><path d="" transform="translate(0,0)" style="fill: #473313;"/><path d="" transform="translate(0,0)" style="fill: #996D28;"/><path d="" transform="translate(0,0)" style="fill: #473313;"/><path d="" transform="translate(0,0)" style="fill: #4C3613;"/><path d="" transform="translate(0,0)" style="fill: #966A26;"/><path d="" transform="translate(0,0)" style="fill: #966A26;"/><path d="" transform="translate(0,0)" style="fill: #4F3713;"/><path d="" transform="translate(0,0)" style="fill: #473313;"/><path d="" transform="translate(0,0)" style="fill: #473313;"/><path d="" transform="translate(0,0)" style="fill: #966A26;"/><path d="" transform="translate(0,0)" style="fill: #8E6626;"/><path d="" transform="translate(0,0)" style="fill: #966A26;"/><path d="" transform="translate(0,0)" style="fill: #34240D;"/><path d="" transform="translate(0,0)" style="fill: #2C200B;"/><path d="" transform="translate(0,0)" style="fill: #4F3713;"/><path d="" transform="translate(0,0)" style="fill: #4F3713;"/><path d="" transform="translate(0,0)" style="fill: #4F3713;"/><path d="" transform="translate(0,0)" style="fill: #4F3713;"/><path d="" transform="translate(0,0)" style="fill: #473313;"/><path d="" transform="translate(0,0)" style="fill: #966A26;"/><path d="" transform="translate(0,0)" style="fill: #8E6626;"/><path d="" transform="translate(0,0)" style="fill: #4C3613;"/><path d="" transform="translate(0,0)" style="fill: #966A26;"/><path d="" transform="translate(0,0)" style="fill: #4F3713;"/><path d="" transform="translate(0,0)" style="fill: #4F3713;"/><path d="" transform="translate(0,0)" style="fill: #966A26;"/><path d="" transform="translate(0,0)" style="fill: #8E6626;"/><path d="" transform="translate(0,0)" style="fill: #4F3713;"/><path d="" transform="translate(0,0)" style="fill: #68481B;"/><path d="" transform="translate(0,0)" style="fill: #4F3713;"/><path d="" transform="translate(0,0)" style="fill: #966A26;"/><path d="" transform="translate(0,0)" style="fill: #4C3613;"/><path d="" transform="translate(0,0)" style="fill: #845E20;"/><path d="" transform="translate(0,0)" style="fill: #966A26;"/><path d="" transform="translate(0,0)" style="fill: #966E26;"/><path d="" transform="translate(0,0)" style="fill: #232F23;"/><path d="" transform="translate(0,0)" style="fill: #3C4B36;"/><path d="" transform="translate(0,0)" style="fill: #1E251B;"/><path d="" transform="translate(0,0)" style="fill: #966A26;"/><path d="" transform="translate(0,0)" style="fill: #966A26;"/><path d="" transform="translate(0,0)" style="fill: #4C3613;"/><path d="" transform="translate(0,0)" style="fill: #473313;"/><path d="" transform="translate(0,0)" style="fill: #DE9E39;"/><path d="" transform="translate(0,0)" style="fill: #966A26;"/><path d="" transform="translate(0,0)" style="fill: #4F3B13;"/><path d="" transform="translate(0,0)" style="fill: #232F23;"/><path d="" transform="translate(0,0)" style="fill: #1E251B;"/><path d="" transform="translate(0,0)" style="fill: #4F3713;"/><path d="" transform="translate(0,0)" style="fill: #8E6626;"/><path d="" transform="translate(0,0)" style="fill: #473313;"/><path d="" transform="translate(0,0)" style="fill: #996D28;"/><path d="" transform="translate(0,0)" style="fill: #916826;"/><path d="" transform="translate(0,0)" style="fill: #473313;"/><path d="" transform="translate(0,0)" style="fill: #473313;"/><path d="" transform="translate(0,0)" style="fill: #966A26;"/><path d="" transform="translate(0,0)" style="fill: #916826;"/><path d="" transform="translate(0,0)" style="fill: #4C3613;"/><path d="" transform="translate(0,0)" style="fill: #966A26;"/><path d="" transform="translate(0,0)" style="fill: #4F3B13;"/><path d="" transform="translate(0,0)" style="fill: #3E523E;"/><path d="" transform="translate(0,0)" style="fill: #1E251B;"/><path d="" transform="translate(0,0)" style="fill: #4F3713;"/><path d="" transform="translate(0,0)" style="fill: #8E6626;"/><path d="" transform="translate(0,0)" style="fill: #473313;"/><path d="" transform="translate(0,0)" style="fill: #473313;"/><path d="" transform="translate(0,0)" style="fill: #916826;"/><path d="" transform="translate(0,0)" style="fill: #543C18;"/><path d="" transform="translate(0,0)" style="fill: #996D28;"/><path d="" transform="translate(0,0)" style="fill: #4C3613;"/><path d="" transform="translate(0,0)" style="fill: #DE9E39;"/><path d="" transform="translate(0,0)" style="fill: #4F3713;"/><path d="" transform="translate(0,0)" style="fill: #4F3713;"/><path d="" transform="translate(0,0)" style="fill: #966E26;"/><path d="" transform="translate(0,0)" style="fill: #966E26;"/><path d="" transform="translate(0,0)" style="fill: #966A26;"/><path d="" transform="translate(0,0)" style="fill: #966A26;"/><path d="" transform="translate(0,0)" style="fill: #996D28;"/><path d="" transform="translate(0,0)" style="fill: #966A26;"/><path d="" transform="translate(0,0)" style="fill: #966A26;"/><path d="" transform="translate(0,0)" style="fill: #4F3713;"/><path d="" transform="translate(0,0)" style="fill: #473313;"/><path d="" transform="translate(0,0)" style="fill: #916826;"/><path d="" transform="translate(0,0)" style="fill: #4F3B13;"/><path d="" transform="translate(0,0)" style="fill: #4F3B13;"/><path d="" transform="translate(0,0)" style="fill: #4C3613;"/><path d="" transform="translate(0,0)" style="fill: #4F3713;"/><path d="" transform="translate(0,0)" style="fill: #584016;"/><path d="" transform="translate(0,0)" style="fill: #543C18;"/><path d="" transform="translate(0,0)" style="fill: #4F3713;"/><path d="" transform="translate(0,0)" style="fill: #966A26;"/><path d="" transform="translate(0,0)" style="fill: #2C200B;"/><path d="" transform="translate(0,0)" style="fill: #100C08;"/><path d="" transform="translate(0,0)" style="fill: #996D28;"/><path d="" transform="translate(0,0)" style="fill: #966A26;"/><path d="" transform="translate(0,0)" style="fill: #9C7028;"/><path d="" transform="translate(0,0)" style="fill: #8E6626;"/><path d="" transform="translate(0,0)" style="fill: #473313;"/><path d="" transform="translate(0,0)" style="fill: #4C3613;"/><path d="" transform="translate(0,0)" style="fill: #8E6626;"/><path d="" transform="translate(0,0)" style="fill: #8E6626;"/><path d="" transform="translate(0,0)" style="fill: #896420;"/><path d="" transform="translate(0,0)" style="fill: #422F10;"/><path d="" transform="translate(0,0)" style="fill: #89714A;"/><path d="" transform="translate(0,0)" style="fill: #211808;"/><path d="" transform="translate(0,0)" style="fill: #8E6626;"/><path d="" transform="translate(0,0)" style="fill: #292010;"/><path d="" transform="translate(0,0)" style="fill: #917952;"/><path d="" transform="translate(0,0)" style="fill: #4C3613;"/><path d="" transform="translate(0,0)" style="fill: #916826;"/><path d="" transform="translate(0,0)" style="fill: #422F10;"/><path d="" transform="translate(0,0)" style="fill: #211808;"/><path d="" transform="translate(0,0)" style="fill: #473313;"/><path d="" transform="translate(0,0)" style="fill: #966A26;"/><path d="" transform="translate(0,0)" style="fill: #917952;"/><path d="" transform="translate(0,0)" style="fill: #292010;"/><path d="" transform="translate(0,0)" style="fill: #4C3613;"/><path d="" transform="translate(0,0)" style="fill: #8E6626;"/><path d="" transform="translate(0,0)" style="fill: #8E6626;"/><path d="" transform="translate(0,0)" style="fill: #8E6626;"/><path d="" transform="translate(0,0)" style="fill: #896420;"/><path d="" transform="translate(0,0)" style="fill: #554429;"/><path d="" transform="translate(0,0)" style="fill: #4F3713;"/><path d="" transform="translate(0,0)" style="fill: #292010;"/><path d="" transform="translate(0,0)" style="fill: #5D4C31;"/><path d="" transform="translate(0,0)" style="fill: #4C3613;"/><path d="" transform="translate(0,0)" style="fill: #4F3713;"/><path d="" transform="translate(0,0)" style="fill: #5A4B31;"/><path d="" transform="translate(0,0)" style="fill: #292010;"/><path d="" transform="translate(0,0)" style="fill: #916826;"/><path d="" transform="translate(0,0)" style="fill: #916826;"/><path d="" transform="translate(0,0)" style="fill: #9C7028;"/><path d="" transform="translate(0,0)" style="fill: #5A4218;"/><path d="" transform="translate(0,0)" style="fill: #916E31;"/><path d="" transform="translate(0,0)" style="fill: #917952;"/><path d="" transform="translate(0,0)" style="fill: #756852;"/><path d="" transform="translate(0,0)" style="fill: #A48149;"/><path d="" transform="translate(0,0)" style="fill: #524129;"/><path d="" transform="translate(0,0)" style="fill: #99876B;"/><path d="" transform="translate(0,0)" style="fill: #BA8831;"/><path d="" transform="translate(0,0)" style="fill: #8E6626;"/><path d="" transform="translate(0,0)" style="fill: #292010;"/><path d="" transform="translate(0,0)" style="fill: #9C8A6E;"/><path d="" transform="translate(0,0)" style="fill: #916826;"/><path d="" transform="translate(0,0)" style="fill: #473313;"/><path d="" transform="translate(0,0)" style="fill: #917239;"/><path d="" transform="translate(0,0)" style="fill: #8E6626;"/><path d="" transform="translate(0,0)" style="fill: #5A4218;"/><path d="" transform="translate(0,0)" style="fill: #543C18;"/><path d="" transform="translate(0,0)" style="fill: #996D28;"/><path d="" transform="translate(0,0)" style="fill: #080400;"/><path d="" transform="translate(0,0)" style="fill: #8E6626;"/><path d="" transform="translate(0,0)" style="fill: #292010;"/><path d="" transform="translate(0,0)" style="fill: #8E6626;"/><path d="" transform="translate(0,0)" style="fill: #473313;"/><path d="" transform="translate(0,0)" style="fill: #8E6626;"/><path d="" transform="translate(0,0)" style="fill: #4C3613;"/><path d="" transform="translate(0,0)" style="fill: #292010;"/><path d="" transform="translate(0,0)" style="fill: #8B7652;"/><path d="" transform="translate(0,0)" style="fill: #8E6626;"/><path d="" transform="translate(0,0)" style="fill: #8E6626;"/><path d="" transform="translate(0,0)" style="fill: #5A4218;"/><path d="" transform="translate(0,0)" style="fill: #8E6626;"/><path d="" transform="translate(0,0)" style="fill: #5A4B31;"/><path d="" transform="translate(0,0)" style="fill: #473313;"/><path d="" transform="translate(0,0)" style="fill: #473313;"/><path d="" transform="translate(0,0)" style="fill: #3F2C0D;"/><path d="" transform="translate(0,0)" style="fill: #AD7D29;"/><path d="" transform="translate(0,0)" style="fill: #4F3713;"/><path d="" transform="translate(0,0)" style="fill: #181008;"/><path d="" transform="translate(0,0)" style="fill: #86745A;"/><path d="" transform="translate(0,0)" style="fill: #4F4231;"/><path d="" transform="translate(0,0)" style="fill: #86745A;"/><path d="" transform="translate(0,0)" style="fill: #5A4218;"/><path d="" transform="translate(0,0)" style="fill: #996D28;"/><path d="" transform="translate(0,0)" style="fill: #966A26;"/><path d="" transform="translate(0,0)" style="fill: #4F3713;"/><path d="" transform="translate(0,0)" style="fill: #4F422E;"/><path d="" transform="translate(0,0)" style="fill: #4F3713;"/><path d="" transform="translate(0,0)" style="fill: #5F5442;"/><path d="" transform="translate(0,0)" style="fill: #867454;"/><path d="" transform="translate(0,0)" style="fill: #4F3713;"/><path d="" transform="translate(0,0)" style="fill: #8E6626;"/><path d="" transform="translate(0,0)" style="fill: #8E7D63;"/><path d="" transform="translate(0,0)" style="fill: #867454;"/><path d="" transform="translate(0,0)" style="fill: #181008;"/><path d="" transform="translate(0,0)" style="fill: #BDA67B;"/><path d="" transform="translate(0,0)" style="fill: #966A26;"/><path d="" transform="translate(0,0)" style="fill: #373623;"/><path d="" transform="translate(0,0)" style="fill: #8B795D;"/><path d="" transform="translate(0,0)" style="fill: #5D4829;"/><path d="" transform="translate(0,0)" style="fill: #473313;"/><path d="" transform="translate(0,0)" style="fill: #8E6626;"/><path d="" transform="translate(0,0)" style="fill: #4F3713;"/><path d="" transform="translate(0,0)" style="fill: #373623;"/><path d="" transform="translate(0,0)" style="fill: #916E31;"/><path d="" transform="translate(0,0)" style="fill: #544320;"/><path d="" transform="translate(0,0)" style="fill: #5D4829;"/><path d="" transform="translate(0,0)" style="fill: #373623;"/><path d="" transform="translate(0,0)" style="fill: #8B795D;"/><path d="" transform="translate(0,0)" style="fill: #8B795D;"/><path d="" transform="translate(0,0)" style="fill: #966A26;"/><path d="" transform="translate(0,0)" style="fill: #373623;"/><path d="" transform="translate(0,0)" style="fill: #916E31;"/><path d="" transform="translate(0,0)" style="fill: #544320;"/><path d="" transform="translate(0,0)" style="fill: #8B795D;"/><path d="" transform="translate(0,0)" style="fill: #292010;"/><path d="" transform="translate(0,0)" style="fill: #8E6626;"/><path d="" transform="translate(0,0)" style="fill: #BDA684;"/><path d="" transform="translate(0,0)" style="fill: #292010;"/><path d="" transform="translate(0,0)" style="fill: #8B795D;"/><path d="" transform="translate(0,0)" style="fill: #4F3713;"/><path d="" transform="translate(0,0)" style="fill: #996D28;"/><path d="" transform="translate(0,0)" style="fill: #4F3713;"/><path d="" transform="translate(0,0)" style="fill: #000000;"/><path d="" transform="translate(0,0)" style="fill: #996D28;"/><path d="" transform="translate(0,0)" style="fill: #292010;"/><path d="" transform="translate(0,0)" style="fill: #3C4B36;"/><path d="" transform="translate(0,0)" style="fill: #100C08;"/><path d="" transform="translate(0,0)" style="fill: #8B795D;"/><path d="" transform="translate(0,0)" style="fill: #101008;"/><path d="" transform="translate(0,0)" style="fill: #8E7139;"/><path d="" transform="translate(0,0)" style="fill: #4F3713;"/><path d="" transform="translate(0,0)" style="fill: #94794F;"/><path d="" transform="translate(0,0)" style="fill: #544320;"/><path d="" transform="translate(0,0)" style="fill: #946926;"/><path d="" transform="translate(0,0)" style="fill: #625033;"/><path d="" transform="translate(0,0)" style="fill: #181810;"/><path d="" transform="translate(0,0)" style="fill: #4A3413;"/><path d="" transform="translate(0,0)" style="fill: #966A26;"/><path d="" transform="translate(0,0)" style="fill: #946926;"/><path d="" transform="translate(0,0)" style="fill: #4F3713;"/><path d="" transform="translate(0,0)" style="fill: #966A26;"/><path d="" transform="translate(0,0)" style="fill: #312818;"/><path d="" transform="translate(0,0)" style="fill: #9C8A6E;"/><path d="" transform="translate(0,0)" style="fill: #181810;"/><path d="" transform="translate(0,0)" style="fill: #181810;"/><path d="" transform="translate(0,0)" style="fill: #8C7D63;"/><path d="" transform="translate(0,0)" style="fill: #966A26;"/><path d="" transform="translate(0,0)" style="fill: #4F3713;"/><path d="" transform="translate(0,0)" style="fill: #1E251B;"/><path d="" transform="translate(0,0)" style="fill: #896420;"/><path d="" transform="translate(0,0)" style="fill: #8E7C5A;"/><path d="" transform="translate(0,0)" style="fill: #966A26;"/><path d="" transform="translate(0,0)" style="fill: #1E251B;"/><path d="" transform="translate(0,0)" style="fill: #3C4B36;"/><path d="" transform="translate(0,0)" style="fill: #181810;"/><path d="" transform="translate(0,0)" style="fill: #8E7C5A;"/><path d="" transform="translate(0,0)" style="fill: #4F3713;"/><path d="" transform="translate(0,0)" style="fill: #896420;"/><path d="" transform="translate(0,0)" style="fill: #8E7C5A;"/><path d="" transform="translate(0,0)" style="fill: #BDA67B;"/><path d="" transform="translate(0,0)" style="fill: #966A26;"/><path d="" transform="translate(0,0)" style="fill: #4F3713;"/><path d="" transform="translate(0,0)" style="fill: #8B795D;"/><path d="" transform="translate(0,0)" style="fill: #292010;"/><path d="" transform="translate(0,0)" style="fill: #9F7834;"/><path d="" transform="translate(0,0)" style="fill: #9F7834;"/><path d="" transform="translate(0,0)" style="fill: #7B703E;"/><path d="" transform="translate(0,0)" style="fill: #966A26;"/><path d="" transform="translate(0,0)" style="fill: #9F7834;"/><path d="" transform="translate(0,0)" style="fill: #966A26;"/><path d="" transform="translate(0,0)" style="fill: #9C8A6E;"/><path d="" transform="translate(0,0)" style="fill: #9F7834;"/><path d="" transform="translate(0,0)" style="fill: #916826;"/><path d="" transform="translate(0,0)" style="fill: #9CA26B;"/><path d="" transform="translate(0,0)" style="fill: #916E31;"/><path d="" transform="translate(0,0)" style="fill: #181810;"/><path d="" transform="translate(0,0)" style="fill: #101008;"/><path d="" transform="translate(0,0)" style="fill: #393E29;"/><path d="" transform="translate(0,0)" style="fill: #393E29;"/><path d="" transform="translate(0,0)" style="fill: #4F3713;"/><path d="" transform="translate(0,0)" style="fill: #916826;"/><path d="" transform="translate(0,0)" style="fill: #292010;"/><path d="" transform="translate(0,0)" style="fill: #916826;"/><path d="" transform="translate(0,0)" style="fill: #393E29;"/><path d="" transform="translate(0,0)" style="fill: #523C18;"/><path d="" transform="translate(0,0)" style="fill: #8B795D;"/><path d="" transform="translate(0,0)" style="fill: #83745A;"/><path d="" transform="translate(0,0)" style="fill: #494231;"/><path d="" transform="translate(0,0)" style="fill: #9C6D29;"/><path d="" transform="translate(0,0)" style="fill: #9C7028;"/><path d="" transform="translate(0,0)" style="fill: #080800;"/><path d="" transform="translate(0,0)" style="fill: #7B694C;"/><path d="" transform="translate(0,0)" style="fill: #52442B;"/><path d="" transform="translate(0,0)" style="fill: #8C754F;"/><path d="" transform="translate(0,0)" style="fill: #473313;"/><path d="" transform="translate(0,0)" style="fill: #473313;"/><path d="" transform="translate(0,0)" style="fill: #473313;"/><path d="" transform="translate(0,0)" style="fill: #5A4218;"/><path d="" transform="translate(0,0)" style="fill: #080800;"/><path d="" transform="translate(0,0)" style="fill: #473313;"/><path d="" transform="translate(0,0)" style="fill: #080800;"/><path d="" transform="translate(0,0)" style="fill: #523C18;"/><path d="" transform="translate(0,0)" style="fill: #8B795D;"/><path d="" transform="translate(0,0)" style="fill: #292010;"/><path d="" transform="translate(0,0)" style="fill: #3C4B36;"/><path d="" transform="translate(0,0)" style="fill: #896420;"/><path d="" transform="translate(0,0)" style="fill: #5D4B31;"/><path d="" transform="translate(0,0)" style="fill: #5A4C36;"/><path d="" transform="translate(0,0)" style="fill: #5A4218;"/><path d="" transform="translate(0,0)" style="fill: #000000;"/><path d="" transform="translate(0,0)" style="fill: #52442B;"/><path d="" transform="translate(0,0)" style="fill: #8C754F;"/><path d="" transform="translate(0,0)" style="fill: #3C4B36;"/><path d="" transform="translate(0,0)" style="fill: #3C4B36;"/><path d="" transform="translate(0,0)" style="fill: #473313;"/><path d="" transform="translate(0,0)" style="fill: #91764A;"/><path d="" transform="translate(0,0)" style="fill: #8C754F;"/><path d="" transform="translate(0,0)" style="fill: #181408;"/><path d="" transform="translate(0,0)" style="fill: #443210;"/><path d="" transform="translate(0,0)" style="fill: #4A3413;"/><path d="" transform="translate(0,0)" style="fill: #946926;"/><path d="" transform="translate(0,0)" style="fill: #80745A;"/><path d="" transform="translate(0,0)" style="fill: #8E6626;"/><path d="" transform="translate(0,0)" style="fill: #8E6626;"/><path d="" transform="translate(0,0)" style="fill: #946926;"/><path d="" transform="translate(0,0)" style="fill: #292010;"/><path d="" transform="translate(0,0)" style="fill: #917952;"/><path d="" transform="translate(0,0)" style="fill: #373B29;"/><path d="" transform="translate(0,0)" style="fill: #473313;"/><path d="" transform="translate(0,0)" style="fill: #4A3413;"/><path d="" transform="translate(0,0)" style="fill: #292010;"/><path d="" transform="translate(0,0)" style="fill: #917952;"/><path d="" transform="translate(0,0)" style="fill: #9C7028;"/><path d="" transform="translate(0,0)" style="fill: #373B29;"/><path d="" transform="translate(0,0)" style="fill: #373B29;"/><path d="" transform="translate(0,0)" style="fill: #373B29;"/><path d="" transform="translate(0,0)" style="fill: #946926;"/><path d="" transform="translate(0,0)" style="fill: #917952;"/><path d="" transform="translate(0,0)" style="fill: #8C7D63;"/><path d="" transform="translate(0,0)" style="fill: #A5AA6B;"/><path d="" transform="translate(0,0)" style="fill: #373B29;"/><path d="" transform="translate(0,0)" style="fill: #6E724A;"/><path d="" transform="translate(0,0)" style="fill: #8E6626;"/><path d="" transform="translate(0,0)" style="fill: #AD7D29;"/><path d="" transform="translate(0,0)" style="fill: #5A4218;"/><path d="" transform="translate(0,0)" style="fill: #422F10;"/><path d="" transform="translate(0,0)" style="fill: #966A26;"/><path d="" transform="translate(0,0)" style="fill: #966A26;"/><path d="" transform="translate(0,0)" style="fill: #080400;"/><path d="" transform="translate(0,0)" style="fill: #966A26;"/><path d="" transform="translate(0,0)" style="fill: #996D28;"/><path d="" transform="translate(0,0)" style="fill: #422F10;"/><path d="" transform="translate(0,0)" style="fill: #966A26;"/><path d="" transform="translate(0,0)" style="fill: #362810;"/><path d="" transform="translate(0,0)" style="fill: #8E6626;"/><path d="" transform="translate(0,0)" style="fill: #473313;"/><path d="" transform="translate(0,0)" style="fill: #8E6626;"/><path d="" transform="translate(0,0)" style="fill: #8E6626;"/><path d="" transform="translate(0,0)" style="fill: #4F3713;"/><path d="" transform="translate(0,0)" style="fill: #3C4B36;"/><path d="" transform="translate(0,0)" style="fill: #966A26;"/><path d="" transform="translate(0,0)" style="fill: #8E6626;"/><path d="" transform="translate(0,0)" style="fill: #966A26;"/><path d="" transform="translate(0,0)" style="fill: #3C4B36;"/><path d="" transform="translate(0,0)" style="fill: #3C4B36;"/><path d="" transform="translate(0,0)" style="fill: #966A26;"/><path d="" transform="translate(0,0)" style="fill: #473313;"/><path d="" transform="translate(0,0)" style="fill: #966A26;"/><path d="" transform="translate(0,0)" style="fill: #1E251B;"/><path d="" transform="translate(0,0)" style="fill: #966A26;"/><path d="" transform="translate(0,0)" style="fill: #473313;"/><path d="" transform="translate(0,0)" style="fill: #4A3413;"/><path d="" transform="translate(0,0)" style="fill: #473313;"/><path d="" transform="translate(0,0)" style="fill: #473313;"/><path d="" transform="translate(0,0)" style="fill: #3C4B36;"/><path d="" transform="translate(0,0)" style="fill: #473313;"/><path d="" transform="translate(0,0)" style="fill: #473313;"/><path d="" transform="translate(0,0)" style="fill: #4A3413;"/><path d="" transform="translate(0,0)" style="fill: #8E6626;"/><path d="" transform="translate(0,0)" style="fill: #1E251B;"/><path d="" transform="translate(0,0)" style="fill: #3C4B36;"/><path d="" transform="translate(0,0)" style="fill: #3C4B36;"/><path d="" transform="translate(0,0)" style="fill: #8E6626;"/><path d="" transform="translate(0,0)" style="fill: #473313;"/><path d="" transform="translate(0,0)" style="fill: #473313;"/><path d="" transform="translate(0,0)" style="fill: #473313;"/><path d="" transform="translate(0,0)" style="fill: #3C4B36;"/><path d="" transform="translate(0,0)" style="fill: #3C4B36;"/><path d="" transform="translate(0,0)" style="fill: #473313;"/><path d="" transform="translate(0,0)" style="fill: #473313;"/><path d="" transform="translate(0,0)" style="fill: #473313;"/><path d="" transform="translate(0,0)" style="fill: #8E6626;"/><path d="" transform="translate(0,0)" style="fill: #1E251B;"/><path d="" transform="translate(0,0)" style="fill: #1E251B;"/><path d="" transform="translate(0,0)" style="fill: #1E251B;"/><path d="" transform="translate(0,0)" style="fill: #5A7152;"/><path d="" transform="translate(0,0)" style="fill: #473313;"/><path d="" transform="translate(0,0)" style="fill: #8E6626;"/><path d="" transform="translate(0,0)" style="fill: #4F3713;"/><path d="" transform="translate(0,0)" style="fill: #5A4218;"/><path d="" transform="translate(0,0)" style="fill: #9C7028;"/><path d="" transform="translate(0,0)" style="fill: #8E6626;"/><path d="" transform="translate(0,0)" style="fill: #4C3613;"/><path d="" transform="translate(0,0)" style="fill: #946926;"/><path d="" transform="translate(0,0)" style="fill: #946926;"/><path d="" transform="translate(0,0)" style="fill: #473313;"/><path d="" transform="translate(0,0)" style="fill: #916826;"/><path d="" transform="translate(0,0)" style="fill: #8E6626;"/><path d="" transform="translate(0,0)" style="fill: #966A26;"/><path d="" transform="translate(0,0)" style="fill: #9C7028;"/><path d="" transform="translate(0,0)" style="fill: #4F3713;"/><path d="" transform="translate(0,0)" style="fill: #8E6626;"/><path d="" transform="translate(0,0)" style="fill: #8E6626;"/><path d="" transform="translate(0,0)" style="fill: #473313;"/><path d="" transform="translate(0,0)" style="fill: #543C18;"/><path d="" transform="translate(0,0)" style="fill: #8E6626;"/><path d="" transform="translate(0,0)" style="fill: #8E6626;"/><path d="" transform="translate(0,0)" style="fill: #8E6626;"/><path d="" transform="translate(0,0)" style="fill: #966A26;"/><path d="" transform="translate(0,0)" style="fill: #473313;"/><path d="" transform="translate(0,0)" style="fill: #4F3713;"/><path d="" transform="translate(0,0)" style="fill: #473313;"/><path d="" transform="translate(0,0)" style="fill: #8E6626;"/><path d="" transform="translate(0,0)" style="fill: #835D20;"/><path d="" transform="translate(0,0)" style="fill: #835D20;"/><path d="" transform="translate(0,0)" style="fill: #966A26;"/><path d="" transform="translate(0,0)" style="fill: #966A26;"/><path d="" transform="translate(0,0)" style="fill: #4F3713;"/><path d="" transform="translate(0,0)" style="fill: #4F3713;"/><path d="" transform="translate(0,0)" style="fill: #543C18;"/><path d="" transform="translate(0,0)" style="fill: #966E26;"/><path d="" transform="translate(0,0)" style="fill: #4F3B13;"/><path d="" transform="translate(0,0)" style="fill: #543C18;"/><path d="" transform="translate(0,0)" style="fill: #946926;"/><path d="" transform="translate(0,0)" style="fill: #4F3713;"/><path d="" transform="translate(0,0)" style="fill: #4F3713;"/><path d="" transform="translate(0,0)" style="fill: #8E6626;"/><path d="" transform="translate(0,0)" style="fill: #946926;"/></svg>