<?xml version="1.0" encoding="UTF-8"?>
<!-- Generator: visioncortex VTracer -->
<svg id="svg" version="1.1" xmlns="http://www.w3.org/2000/svg" style="display: block;" viewBox="0 0 256 256"><path d="M0,0 L20,0 L22,1 L22,4 L26,6 L27,12 L29,12 L30,16 L28,28 L26,28 L25,35 L26,37 L24,40 L22,40 L21,47 L18,48 L16,55 L12,60 L8,62 L5,68 L2,69 L-3,75 L-6,80 L-11,85 L-20,96 L-24,100 L-28,102 L-33,109 L-27,115 L-22,118 L-22,120 L-18,122 L-18,124 L-14,126 L-14,145 L-16,148 L-18,148 L-18,152 L-26,157 L-28,160 L-35,160 L-37,164 L-91,164 L-93,168 L-96,172 L-98,172 L-100,179 L-104,184 L-110,184 L-110,187 L-130,187 L-130,184 L-136,184 L-138,183 L-138,180 L-142,179 L-142,176 L-146,175 L-146,172 L-148,172 L-149,169 L-150,146 L-146,144 L-144,140 L-142,140 L-141,136 L-136,134 L-133,133 L-131,129 L-130,126 L-130,108 L-133,108 L-133,84 L-134,74 L-130,72 L-130,66 L-127,61 L-124,56 L-122,56 L-120,52 L-115,49 L-100,48 L-98,52 L-94,54 L-94,56 L-90,58 L-90,60 L-85,62 L-82,65 L-79,67 L-74,62 L-70,60 L-68,56 L-66,56 L-65,52 L-62,52 L-60,48 L-58,48 L-56,44 L-54,44 L-52,40 L-50,40 L-49,36 L-46,36 L-45,32 L-42,31 L-40,27 L-38,27 L-38,23 L-34,21 L-34,19 L-29,16 L-23,12 L-22,9 L-14,7 L-14,5 L-2,1 Z M13,55 Z M-19,91 Z M-23,95 Z M-103,179 Z " transform="translate(190,36)" style="fill: #040302;"/><path d="M0,0 L20,0 L22,1 L22,4 L26,6 L27,12 L29,12 L30,16 L28,28 L26,28 L25,35 L26,37 L24,40 L22,40 L21,47 L18,48 L16,55 L12,60 L8,62 L5,68 L2,69 L-3,75 L-6,80 L-11,85 L-20,96 L-24,100 L-28,102 L-33,109 L-27,115 L-22,118 L-22,120 L-18,122 L-18,124 L-14,126 L-14,145 L-16,148 L-18,148 L-18,152 L-26,157 L-28,160 L-35,160 L-37,164 L-91,164 L-93,168 L-96,172 L-98,172 L-100,179 L-104,184 L-110,184 L-110,187 L-130,187 L-130,184 L-136,184 L-138,183 L-138,180 L-142,179 L-142,176 L-146,175 L-146,172 L-148,172 L-149,169 L-150,146 L-146,144 L-144,140 L-142,140 L-141,136 L-136,134 L-133,133 L-131,129 L-130,126 L-130,108 L-133,108 L-133,84 L-134,74 L-130,72 L-130,66 L-127,61 L-124,56 L-122,56 L-120,52 L-115,49 L-100,48 L-98,52 L-94,54 L-94,56 L-90,58 L-90,60 L-85,62 L-82,65 L-79,67 L-74,62 L-70,60 L-68,56 L-66,56 L-65,52 L-62,52 L-60,48 L-58,48 L-56,44 L-54,44 L-52,40 L-50,40 L-49,36 L-46,36 L-45,32 L-42,31 L-40,27 L-38,27 L-38,23 L-34,21 L-34,19 L-29,16 L-23,12 L-22,9 L-14,7 L-14,5 L-2,1 Z M5,7 L-5,10 L-16,16 L-26,24 L-37,35 L-44,43 L-58,57 L-65,65 L-78,78 L-83,83 L-85,83 L-84,77 L-91,69 L-101,60 L-105,57 L-112,57 L-118,62 L-124,74 L-125,79 L-125,97 L-121,115 L-120,129 L-129,141 L-135,143 L-140,148 L-142,151 L-142,160 L-139,168 L-132,175 L-126,177 L-117,177 L-108,171 L-104,161 L-95,154 L-94,153 L-78,153 L-69,155 L-50,155 L-39,152 L-31,148 L-23,140 L-22,135 L-25,130 L-38,118 L-42,114 L-48,113 L-52,115 L-50,111 L-37,97 L-30,89 L-16,74 L-7,64 L3,53 L10,43 L16,31 L18,23 L18,11 L14,7 Z M13,55 Z M-19,91 Z M-23,95 Z M-103,179 Z " transform="translate(190,36)" style="fill: #291A08;"/><path d="M0,0 L3,1 L2,10 L-2,21 L-9,32 L-21,45 L-28,53 L-42,68 L-51,78 L-63,91 L-67,96 L-68,110 L-72,112 L-74,106 L-72,104 L-75,102 L-74,105 L-76,106 L-76,104 L-82,103 L-82,101 L-80,101 L-82,91 L-92,90 L-91,93 L-99,92 L-99,96 L-95,97 L-94,101 L-98,100 L-98,99 L-105,98 L-107,89 L-107,84 L-112,83 L-113,81 L-119,80 L-113,104 L-113,124 L-108,125 L-104,129 L-106,133 L-119,144 L-121,144 L-121,150 L-125,155 L-131,156 L-139,152 L-143,145 L-142,138 L-138,135 L-132,135 L-130,130 L-121,118 L-120,112 L-122,97 L-126,80 L-126,68 L-123,58 L-119,52 L-116,50 L-101,64 L-101,67 L-105,74 L-106,78 L-88,77 L-79,68 L-72,60 L-47,35 L-40,27 L-24,11 L-13,4 Z " transform="translate(198,50)" style="fill: #DDC59B;"/><path d="M0,0 L6,0 L8,3 L12,4 L14,13 L14,18 L21,18 L22,20 L25,21 L23,17 L20,16 L20,12 L27,12 L27,10 L37,10 L39,17 L39,21 L37,21 L37,23 L43,24 L43,22 L46,22 L48,25 L46,27 L48,31 L51,30 L52,28 L52,34 L62,29 L65,27 L77,38 L81,41 L79,45 L73,50 L62,53 L41,53 L33,51 L15,50 L13,46 L6,44 L5,24 L0,3 Z " transform="translate(79,130)" style="fill: #D5BF96;"/><path d="M0,0 L8,6 L17,15 L12,24 L11,28 L20,28 L23,30 L23,32 L27,33 L28,37 L32,40 L25,40 L26,43 L18,42 L18,46 L22,47 L23,51 L19,50 L19,49 L12,48 L10,39 L10,34 L5,33 L4,31 L-2,30 L4,54 L4,74 L9,75 L13,79 L11,83 L-2,94 L-4,94 L-4,100 L-8,105 L-14,106 L-22,102 L-26,95 L-25,88 L-21,85 L-15,85 L-13,80 L-4,68 L-3,62 L-5,47 L-9,30 L-9,18 L-6,8 L-2,2 Z " transform="translate(81,100)" style="fill: #D6C097;"/><path d="M0,0 L8,6 L8,8 L12,9 L12,12 L16,13 L17,16 L21,17 L15,25 L6,34 L3,38 L2,52 L-2,54 L-4,48 L-2,46 L-5,44 L-4,47 L-6,48 L-6,46 L-12,45 L-12,43 L-10,43 L-12,33 L-20,30 L-20,25 L-24,24 L-27,20 L-18,19 L-9,10 L-2,2 Z " transform="translate(128,108)" style="fill: #D5BF96;"/><path d="M0,0 L6,0 L8,3 L12,4 L14,13 L14,20 L23,22 L28,28 L30,32 L30,35 L46,35 L46,40 L51,40 L51,47 L41,47 L32,45 L6,44 L5,24 L0,3 Z " transform="translate(79,130)" style="fill: #080706;"/><path d="M0,0 L3,1 L2,10 L-2,21 L-9,32 L-14,37 L-14,35 L-20,33 L-21,30 L-25,29 L-25,31 L-31,32 L-33,29 L-38,28 L-42,30 L-36,23 L-24,11 L-13,4 Z " transform="translate(198,50)" style="fill: #D0BB92;"/><path d="M0,0 Z M-5,1 L0,3 L2,9 L6,7 L7,9 L10,8 L10,6 L12,6 L14,11 L4,20 L-1,24 L-3,24 L-3,30 L-7,35 L-13,36 L-21,32 L-25,25 L-24,18 L-20,15 L-14,15 L-12,10 Z " transform="translate(80,170)" style="fill: #D2BC94;"/><path d="M0,0 L1,3 L3,3 L6,4 L8,9 L11,8 L12,11 L16,12 L16,14 L13,14 L18,20 L7,32 L2,31 L0,28 L-3,27 L-3,24 L-7,23 L-7,21 L-11,19 L-14,17 L-13,13 Z " transform="translate(143,93)" style="fill: #CAB58E;"/><path d="M0,0 L10,0 L12,7 L12,11 L10,11 L10,13 L16,14 L16,12 L19,12 L21,15 L19,17 L21,21 L24,20 L25,18 L26,26 L29,26 L30,29 L27,31 L26,36 L24,36 L24,30 L19,30 L19,25 L3,25 L-2,15 L-7,12 L-13,10 L-13,8 L-6,8 L-5,10 L-2,11 L-4,7 L-7,6 L-7,2 L0,2 Z " transform="translate(106,140)" style="fill: #CCB790;"/><path d="M0,0 L8,6 L8,8 L12,9 L12,12 L16,13 L17,16 L21,17 L15,25 L6,34 L3,38 L2,43 L1,43 L0,38 L-2,36 L2,35 L1,32 L4,31 L3,24 L0,22 L0,20 L-5,19 L-10,13 L-8,8 Z " transform="translate(128,108)" style="fill: #C3AF89;"/><path d="M0,0 L16,0 L25,2 L44,2 L53,0 L61,0 L63,6 L61,6 L61,8 L52,9 L52,4 L40,5 L40,9 L24,9 L20,10 L6,8 L5,6 L1,5 L-3,3 Z M57,1 Z " transform="translate(96,188)" style="fill: #2A1C09;"/><path d="M0,0 L8,6 L17,15 L14,20 L11,20 L11,12 L8,12 L7,16 L4,22 L-3,23 L-8,24 L-8,30 L-9,30 L-9,18 L-6,8 L-2,2 Z " transform="translate(81,100)" style="fill: #D7C096;"/><path d="M0,0 L2,0 L3,6 L7,8 L10,12 L10,18 L7,21 L1,22 L-7,18 L-11,11 L-10,4 L-6,1 Z " transform="translate(66,184)" style="fill: #D8C198;"/><path d="M0,0 L6,2 L8,4 L13,4 L13,2 L17,3 L18,5 L24,8 L23,10 L18,13 L18,10 L11,8 L11,11 L10,12 L9,14 L6,12 L8,19 L1,16 L-1,18 L-4,17 L-4,15 L-1,15 L-1,11 L-3,12 L-6,12 L-6,13 L-5,14 L-5,20 L-7,16 L-11,11 L-5,3 Z " transform="translate(160,77)" style="fill: #DEC69C;"/><path d="M0,0 L1,0 L2,5 L2,12 L-2,18 L-9,21 L-13,25 L-13,28 L-13,43 L-15,47 L-15,48 L-14,55 L-8,57 L-7,59 L-9,59 L-8,63 L-6,64 L-3,67 L-9,66 L-9,63 L-13,62 L-13,59 L-17,58 L-17,55 L-19,55 L-20,52 L-21,29 L-17,27 L-15,23 L-13,23 L-12,19 L-7,17 L-4,16 L-2,12 L-1,9 Z " transform="translate(61,153)" style="fill: #2A1906;"/><path d="M0,0 L4,2 L4,4 L8,6 L8,8 L12,10 L12,12 L17,14 L20,17 L23,19 L28,14 L32,12 L34,8 L37,9 L35,9 L35,11 L33,11 L34,15 L37,16 L35,20 L28,26 L28,20 L25,22 L25,25 L18,24 L13,20 L9,18 L10,15 L6,10 L5,7 L2,5 L2,2 L-11,3 L-14,6 L-24,12 L-22,8 L-20,8 L-18,4 L-13,1 Z " transform="translate(88,84)" style="fill: #281504;"/><path d="M0,0 L8,6 L15,13 L17,14 L15,18 L9,23 L1,25 L1,23 L4,23 L4,21 L-2,20 L-3,15 L-2,11 L0,11 L-1,8 L-7,6 L-2,2 Z " transform="translate(143,157)" style="fill: #AA9978;"/><path d="M0,0 L4,1 L5,4 L10,6 L10,8 L12,8 L11,11 L8,11 L10,15 L7,16 L9,22 L9,31 L5,33 L3,27 L5,25 L2,23 L3,26 L1,27 L1,25 L-5,24 L-5,22 L-3,22 L-3,19 L-1,19 L-2,10 L-7,8 L-3,6 L0,1 Z " transform="translate(121,129)" style="fill: #E3CA9F;"/><path d="M0,0 L4,2 L5,6 L8,11 L7,13 L6,10 L4,12 L8,14 L9,13 L12,13 L13,16 L15,18 L14,22 L10,23 L10,21 L8,21 L8,19 L3,20 L-2,18 L-2,16 L-6,14 L-9,12 L-8,8 Z " transform="translate(138,98)" style="fill: #F3DFAF;"/><path d="M0,0 L1,4 L0,7 L6,8 L9,4 L11,5 L-1,20 L-5,24 L-10,26 L-12,16 L-14,15 Z M0,15 Z M-4,19 Z " transform="translate(171,112)" style="fill: #291907;"/><path d="M0,0 L7,2 L15,3 L15,5 L2,5 L0,9 L-3,13 L-5,13 L-7,20 L-11,25 L-19,25 L-16,23 L-15,22 L-17,22 L-18,18 L-22,16 L-16,12 L-13,6 L-10,5 L-10,9 L-6,11 L-4,11 L-6,7 L-6,4 L-4,4 L-4,6 L1,6 L-1,2 Z M-10,20 Z " transform="translate(97,195)" style="fill: #271506;"/><path d="M0,0 L6,2 L8,4 L12,5 L15,10 L17,8 L21,12 L18,12 L19,15 L11,14 L11,18 L15,19 L16,23 L12,22 L12,21 L5,20 L3,11 L3,6 L-2,5 L0,3 Z " transform="translate(88,128)" style="fill: #CFB992;"/><path d="M0,0 L10,0 L12,7 L12,11 L10,11 L10,18 L6,17 L2,11 L-4,7 L-7,6 L-7,2 L0,2 Z " transform="translate(106,140)" style="fill: #0B0A07;"/><path d="M0,0 L6,2 L9,5 L13,2 L13,5 L-1,20 L-2,18 L-6,16 L-6,10 L-3,10 L-4,5 L-1,5 L0,2 Z " transform="translate(170,84)" style="fill: #D1BB93;"/><path d="M0,0 L8,1 L9,5 L7,5 L8,9 L6,9 L7,13 L13,15 L13,17 L10,17 L10,19 L2,20 L2,17 L-2,16 L-2,14 L0,12 L-2,6 L1,5 L1,3 L-2,3 L-2,1 Z " transform="translate(134,163)" style="fill: #D0BA92;"/><path d="M0,0 L7,1 L12,22 L11,26 L11,24 L7,26 L5,30 L3,15 L0,4 Z " transform="translate(73,132)" style="fill: #CAB58E;"/><path d="M0,0 L5,1 L9,4 L9,7 L5,6 L4,5 L6,9 L8,11 L9,14 L14,17 L14,22 L10,20 L0,13 L-5,8 L-2,8 L-4,4 Z " transform="translate(126,112)" style="fill: #D5BF96;"/><path d="M0,0 L7,6 L12,9 L12,11 L16,13 L15,15 L13,14 L13,16 L17,18 L18,20 L14,20 L14,18 L11,18 L12,20 L12,26 L8,21 L-2,12 L1,11 L5,12 L4,11 L4,6 L0,2 Z " transform="translate(156,145)" style="fill: #221506;"/><path d="M0,0 L7,4 L7,6 L9,6 L11,12 L10,13 L12,14 L12,16 L14,17 L11,18 L3,7 L1,6 L0,8 L2,8 L5,11 L6,15 L2,14 L1,12 L-3,11 L-2,9 L-4,9 L-5,12 L-8,10 L-6,6 Z " transform="translate(172,63)" style="fill: #D9C299;"/><path d="M0,0 L3,1 L2,10 L-1,19 L-2,19 L-2,11 L-4,12 L-4,15 L-8,14 L-11,11 L-10,9 L-5,10 L-8,7 L-11,7 L-10,3 Z " transform="translate(198,50)" style="fill: #CBB58F;"/><path d="M0,0 L20,0 L27,6 L23,7 L5,6 L3,2 L0,1 Z " transform="translate(89,174)" style="fill: #E2CEA3;"/><path d="M0,0 L2,0 L2,2 L7,3 L11,6 L11,11 L5,18 L0,17 L-2,14 L-5,13 L-4,10 L-1,9 L1,10 L1,12 L7,13 L5,4 L2,4 L3,7 L1,7 L1,5 L-4,3 L-3,1 L-1,1 L0,2 Z " transform="translate(145,107)" style="fill: #DDC79C;"/><path d="M0,0 L5,3 L9,8 L10,11 L5,9 L5,11 L9,13 L14,16 L14,18 L6,18 L1,8 L-4,5 L-10,3 L-10,1 L-3,1 L-2,3 L1,4 Z " transform="translate(103,147)" style="fill: #C0AD88;"/><path d="M0,0 L8,6 L10,11 L11,14 L15,15 L16,20 L10,21 L5,16 L1,11 L0,8 L3,8 L4,10 L7,11 L6,8 L1,5 L-4,5 Z " transform="translate(128,108)" style="fill: #CDB890;"/><path d="M0,0 L5,4 L4,10 L1,13 L-5,14 L-10,15 L-10,21 L-11,21 L-11,9 L-10,11 L-7,10 L-6,6 L-4,9 Z " transform="translate(83,109)" style="fill: #786B56;"/><path d="M0,0 L6,0 L7,5 L11,4 L7,9 L-9,9 L-9,6 L-5,4 L-1,3 Z " transform="translate(73,212)" style="fill: #2B1D0A;"/><path d="M0,0 L5,0 L5,6 L10,7 L12,5 L13,10 L15,10 L15,12 L18,13 L15,15 L9,14 L3,10 L0,4 Z " transform="translate(55,191)" style="fill: #CBB68F;"/><path d="M0,0 L4,0 L4,6 L7,7 L5,10 L-1,9 L-2,13 L-7,11 L-7,3 Z " transform="translate(80,121)" style="fill: #D5BF96;"/><path d="M0,0 L5,0 L4,3 L8,4 L7,8 L2,13 L-5,12 L-3,3 Z " transform="translate(175,108)" style="fill: #2B1C09;"/><path d="M0,0 L5,2 L9,2 L10,5 L10,14 L6,16 L4,10 L6,8 L3,6 L4,9 L2,10 L2,8 L-4,7 L-4,5 L-2,5 L-2,2 L0,2 Z " transform="translate(120,146)" style="fill: #DDC69C;"/><path d="M0,0 L1,0 L2,5 L2,12 L-2,18 L-9,21 L-13,25 L-16,28 L-18,35 L-20,35 L-21,29 L-17,27 L-15,23 L-13,23 L-12,19 L-7,17 L-4,16 L-2,12 L-1,9 Z " transform="translate(61,153)" style="fill: #1C0800;"/><path d="M0,0 L8,0 L8,4 L10,5 L11,4 L14,5 L14,8 L19,11 L19,20 L16,19 L15,13 L7,10 L7,5 L3,4 Z " transform="translate(101,128)" style="fill: #C6B18C;"/><path d="M0,0 L0,3 Z M-2,3 L0,7 L7,13 L7,15 L9,17 L6,18 L6,24 L4,20 L0,15 L-3,12 L-3,8 L-5,7 Z " transform="translate(71,176)" style="fill: #C7B18B;"/><path d="M0,0 L5,1 L5,3 L8,3 L8,5 L5,5 L5,7 L9,6 L10,9 L7,9 L3,9 L-1,9 L-1,10 L0,11 L0,17 L-2,13 L-6,8 Z " transform="translate(155,80)" style="fill: #E4CBA0;"/><path d="M0,0 L9,3 L12,9 L12,11 L1,11 Z " transform="translate(91,156)" style="fill: #698462;"/><path d="M0,0 L2,0 L2,2 L6,1 L14,2 L15,4 L14,7 L3,8 L2,5 L-1,3 L-11,7 L-14,6 L-12,4 L-2,1 Z " transform="translate(190,36)" style="fill: #2E1806;"/><path d="M0,0 L2,3 L5,3 L6,6 L3,7 L2,7 L3,10 L7,9 L6,7 L10,6 L9,14 L3,15 L-2,10 L-3,5 L-1,5 L-2,2 Z " transform="translate(187,54)" style="fill: #E5CCA1;"/><path d="M0,0 L5,5 L4,7 L-1,6 L-1,12 L-5,12 L-4,15 L-6,15 L-6,13 L-9,12 L-8,8 Z " transform="translate(117,120)" style="fill: #D9C398;"/><path d="M0,0 L4,2 L5,6 L8,11 L7,13 L6,10 L1,11 L0,6 L-3,10 L-6,9 L-9,9 Z " transform="translate(138,98)" style="fill: #E8D4A9;"/><path d="M0,0 L2,1 L6,3 L11,4 L10,6 L6,6 L6,9 L22,9 L22,11 L2,11 L3,5 L-1,3 Z " transform="translate(58,212)" style="fill: #271604;"/><path d="M0,0 L2,0 L2,36 L-1,36 L-1,12 L-2,2 Z " transform="translate(58,108)" style="fill: #250C00;"/><path d="M0,0 L5,1 L9,4 L9,7 L5,6 L4,5 L6,9 L6,12 L4,12 L4,10 L0,9 L-4,5 L-2,1 Z " transform="translate(126,112)" style="fill: #E3CCA0;"/><path d="M0,0 L4,2 L4,4 L9,4 L9,6 L12,6 L14,14 L9,13 L9,9 L7,11 L2,9 L1,4 L-2,3 Z " transform="translate(58,188)" style="fill: #E5CDA2;"/><path d="M0,0 L1,4 L0,7 L6,8 L9,4 L11,5 L2,16 L1,14 L1,11 L-2,10 L-2,8 L-7,11 L-6,6 Z " transform="translate(171,112)" style="fill: #211306;"/><path d="M0,0 L4,2 L5,0 L7,0 L9,5 L10,9 L4,10 L2,7 L-3,6 L-7,8 L-1,1 Z " transform="translate(163,72)" style="fill: #C8B48D;"/><path d="M0,0 L9,3 L11,6 L8,7 L8,11 L5,12 L2,9 L0,8 Z " transform="translate(120,138)" style="fill: #E6CEA2;"/><path d="M0,0 L2,2 L0,8 L2,9 L1,13 L3,13 L2,21 L0,21 L-1,33 L-2,33 L-2,13 Z " transform="translate(61,103)" style="fill: #2D1E0A;"/><path d="M0,0 L2,0 L2,2 L5,2 L5,5 L2,5 L2,3 L-4,4 L-4,6 L-6,6 L-6,8 L-12,12 L-17,17 L-22,17 L-18,13 L-13,9 L-7,5 L-6,2 Z " transform="translate(174,43)" style="fill: #231601;"/><path d="M0,0 L2,4 L4,11 L3,15 L3,13 L-1,15 L-3,19 L-4,5 L-1,5 Z " transform="translate(81,143)" style="fill: #C3AE88;"/><path d="M0,0 L4,0 L5,2 L5,15 L-1,11 L-1,2 Z " transform="translate(80,156)" style="fill: #DCC89F;"/><path d="M0,0 L3,0 L3,4 L6,5 L4,6 L5,7 L7,12 L7,16 L4,15 L2,11 L-4,6 L-1,1 Z " transform="translate(73,176)" style="fill: #E1CAA0;"/><path d="M0,0 L4,4 L2,7 L0,7 L-1,12 L-7,10 L-7,4 L-2,2 Z " transform="translate(167,180)" style="fill: #2B1A09;"/><path d="M0,0 L18,0 L20,1 L19,4 L15,4 L18,8 L16,8 L15,11 L12,8 L12,3 L0,2 Z " transform="translate(192,36)" style="fill: #231805;"/><path d="M0,0 L8,1 L9,5 L7,5 L8,9 L2,7 L2,10 L-2,8 L-1,6 L1,5 L1,3 L-2,3 L-2,1 Z " transform="translate(134,163)" style="fill: #E2CCA1;"/><path d="M0,0 L4,1 L4,4 L8,5 L9,8 L13,9 L7,17 L4,18 L4,12 L8,12 L7,7 L3,6 L0,2 Z " transform="translate(136,116)" style="fill: #C7B28D;"/><path d="M0,0 L2,0 L6,5 L8,10 L8,13 L2,10 L2,8 L-3,7 L-4,4 Z " transform="translate(148,88)" style="fill: #D4BE95;"/><path d="M0,0 L5,1 L7,0 L9,2 L7,2 L7,5 L4,5 L6,7 L10,5 L12,6 L12,13 L7,11 L3,10 L2,4 L0,3 Z " transform="translate(152,87)" style="fill: #D7C198;"/><path d="M0,0 L5,2 L6,5 L8,5 L10,11 L9,12 L11,13 L11,15 L13,16 L10,17 L2,6 L-1,3 Z " transform="translate(173,64)" style="fill: #E7CFA3;"/></svg>