<?xml version="1.0" encoding="UTF-8"?>
<!-- Generator: visioncortex VTracer -->
<svg id="svg" version="1.1" xmlns="http://www.w3.org/2000/svg" style="display: block;" viewBox="0 0 128 128"><path d="M0,0 L11,0 L11,1 L14,1 L14,2 L17,2 L17,3 L18,3 L18,4 L19,4 L19,5 L20,5 L20,6 L21,6 L21,7 L22,7 L22,8 L23,8 L23,9 L24,9 L24,11 L25,11 L25,12 L26,12 L26,14 L27,14 L27,15 L29,15 L29,16 L30,16 L30,17 L32,17 L32,18 L36,18 L36,19 L41,19 L41,20 L42,20 L42,21 L43,21 L43,22 L44,22 L44,29 L43,29 L43,31 L42,31 L42,32 L41,32 L41,33 L40,33 L40,35 L39,35 L39,37 L38,37 L38,39 L37,39 L37,42 L36,42 L36,46 L35,46 L35,50 L34,50 L34,54 L33,54 L33,60 L34,60 L34,62 L36,62 L36,63 L37,63 L37,64 L39,64 L39,65 L40,65 L40,66 L41,66 L41,67 L42,67 L42,68 L43,68 L43,69 L44,69 L44,71 L45,71 L45,81 L44,81 L44,86 L43,86 L43,88 L42,88 L42,90 L41,90 L41,91 L40,91 L40,92 L39,92 L39,93 L38,93 L38,94 L36,94 L36,95 L34,95 L34,96 L33,96 L33,97 L31,97 L31,98 L30,98 L30,99 L28,99 L28,100 L27,100 L27,101 L26,101 L26,102 L24,102 L24,103 L23,103 L23,104 L22,104 L22,105 L21,105 L21,106 L20,106 L20,107 L19,107 L19,108 L17,108 L17,109 L16,109 L16,110 L15,110 L15,111 L14,111 L14,112 L13,112 L13,113 L11,113 L11,114 L10,114 L10,115 L-1,115 L-1,114 L-2,114 L-2,113 L-3,113 L-3,112 L-4,112 L-4,111 L-5,111 L-5,110 L-6,110 L-6,109 L-7,109 L-7,108 L-8,108 L-8,107 L-9,107 L-9,106 L-10,106 L-10,105 L-11,105 L-11,104 L-13,104 L-13,103 L-14,103 L-14,102 L-16,102 L-16,101 L-18,101 L-18,100 L-19,100 L-19,99 L-21,99 L-21,98 L-22,98 L-22,97 L-23,97 L-23,96 L-25,96 L-25,95 L-26,95 L-26,94 L-27,94 L-27,93 L-28,93 L-28,92 L-29,92 L-29,91 L-30,91 L-30,90 L-31,90 L-31,88 L-32,88 L-32,86 L-33,86 L-33,83 L-34,83 L-34,71 L-33,71 L-33,70 L-32,70 L-32,69 L-30,69 L-30,68 L-28,68 L-28,67 L-27,67 L-27,66 L-26,66 L-26,65 L-24,65 L-24,64 L-23,64 L-23,58 L-24,58 L-24,56 L-25,56 L-25,55 L-26,55 L-26,52 L-27,52 L-27,50 L-28,50 L-28,48 L-29,48 L-29,45 L-30,45 L-30,43 L-31,43 L-31,41 L-32,41 L-32,38 L-33,38 L-33,35 L-34,35 L-34,31 L-35,31 L-35,22 L-34,22 L-34,20 L-33,20 L-33,18 L-32,18 L-32,17 L-30,17 L-30,16 L-28,16 L-28,15 L-25,15 L-25,14 L-22,14 L-22,13 L-20,13 L-20,12 L-18,12 L-18,11 L-16,11 L-16,10 L-15,10 L-15,9 L-13,9 L-13,8 L-11,8 L-11,7 L-10,7 L-10,6 L-7,6 L-7,5 L-6,5 L-6,4 L-4,4 L-4,3 L-3,3 L-3,2 L-1,2 L-1,1 L0,1 Z " transform="translate(60,7)" style="fill: #000000;"/><path d="M0,0 L4,0 L4,1 L5,1 L5,6 L6,6 L6,8 L7,8 L7,9 L8,9 L8,10 L9,10 L9,12 L10,12 L10,13 L11,13 L11,14 L12,14 L12,16 L13,16 L13,17 L14,17 L14,19 L15,19 L15,20 L16,20 L16,21 L17,21 L17,23 L18,23 L18,17 L16,17 L16,16 L15,16 L15,12 L16,12 L16,11 L18,11 L18,10 L19,10 L19,11 L21,11 L21,13 L22,13 L22,15 L21,15 L21,21 L20,21 L20,25 L21,25 L21,27 L22,27 L22,28 L23,28 L23,29 L24,29 L24,31 L25,31 L25,27 L23,27 L23,22 L24,22 L24,21 L28,21 L28,22 L29,22 L29,23 L30,23 L30,25 L29,25 L29,27 L28,27 L28,35 L29,35 L29,37 L30,37 L30,38 L31,38 L31,35 L32,35 L32,32 L33,32 L33,27 L34,27 L34,23 L35,23 L35,20 L34,20 L34,18 L33,18 L33,17 L34,17 L34,15 L35,15 L35,14 L39,14 L39,15 L40,15 L40,17 L41,17 L41,18 L40,18 L40,20 L39,20 L39,21 L37,21 L37,26 L36,26 L36,30 L37,30 L37,28 L38,28 L38,27 L39,27 L39,26 L40,26 L40,24 L41,24 L41,23 L42,23 L42,21 L43,21 L43,20 L44,20 L44,19 L45,19 L45,17 L46,17 L46,11 L45,11 L45,10 L44,10 L44,9 L43,9 L43,7 L44,7 L44,5 L46,5 L46,4 L48,4 L48,5 L49,5 L49,6 L50,6 L50,10 L49,10 L49,11 L48,11 L48,14 L50,14 L50,13 L52,13 L52,12 L53,12 L53,11 L55,11 L55,10 L57,10 L57,9 L58,9 L58,8 L59,8 L59,5 L60,5 L60,3 L65,3 L65,5 L66,5 L66,8 L65,8 L65,9 L64,9 L64,10 L59,10 L59,11 L57,11 L57,12 L56,12 L56,13 L54,13 L54,14 L53,14 L53,15 L51,15 L51,16 L50,16 L50,17 L49,17 L49,18 L48,18 L48,19 L47,19 L47,20 L46,20 L46,22 L45,22 L45,23 L44,23 L44,25 L43,25 L43,26 L42,26 L42,27 L41,27 L41,28 L46,28 L46,27 L49,27 L49,25 L50,25 L50,24 L52,24 L52,23 L53,23 L53,24 L55,24 L55,25 L56,25 L56,29 L55,29 L55,30 L47,30 L47,31 L44,31 L44,32 L41,32 L41,33 L38,33 L38,34 L37,34 L37,35 L36,35 L36,37 L35,37 L35,40 L34,40 L34,56 L35,56 L35,57 L36,57 L36,58 L37,58 L37,59 L39,59 L39,60 L41,60 L41,61 L43,61 L43,62 L45,62 L45,63 L48,63 L48,64 L49,64 L49,66 L47,66 L47,65 L44,65 L44,64 L42,64 L42,66 L43,66 L43,68 L42,68 L42,67 L41,67 L41,66 L40,66 L40,65 L39,65 L39,64 L38,64 L38,63 L37,63 L37,62 L36,62 L36,61 L35,61 L35,60 L33,60 L33,63 L34,63 L34,64 L35,64 L35,66 L36,66 L36,67 L37,67 L37,68 L38,68 L38,70 L39,70 L39,71 L37,71 L37,70 L36,70 L36,69 L35,69 L35,68 L34,68 L34,67 L33,67 L33,69 L32,69 L32,74 L31,74 L31,73 L30,73 L30,60 L28,60 L28,69 L26,69 L26,65 L25,65 L25,64 L24,64 L24,65 L23,65 L23,66 L22,66 L22,68 L20,68 L20,65 L21,65 L21,64 L18,64 L18,63 L19,63 L19,62 L20,62 L20,61 L22,61 L22,60 L24,60 L24,59 L26,59 L26,58 L27,58 L27,57 L28,57 L28,56 L29,56 L29,42 L28,42 L28,40 L27,40 L27,39 L26,39 L26,37 L25,37 L25,36 L24,36 L24,35 L23,35 L23,33 L22,33 L22,32 L21,32 L21,31 L20,31 L20,30 L19,30 L19,28 L18,28 L18,27 L16,27 L16,26 L12,26 L12,25 L7,25 L7,26 L3,26 L3,25 L2,25 L2,21 L3,21 L3,20 L4,20 L4,19 L7,19 L7,20 L8,20 L8,21 L9,21 L9,22 L11,22 L11,23 L14,23 L14,22 L13,22 L13,20 L12,20 L12,19 L11,19 L11,18 L10,18 L10,16 L9,16 L9,14 L8,14 L8,13 L7,13 L7,12 L6,12 L6,10 L5,10 L5,9 L4,9 L4,7 L0,7 L0,6 L-1,6 L-1,5 L-2,5 L-2,1 L0,1 Z M41,63 L41,64 L42,64 L42,63 Z " transform="translate(33,28)" style="fill: #BDA684;"/><path d="M0,0 L4,0 L4,1 L5,1 L5,6 L6,6 L6,8 L7,8 L7,9 L8,9 L8,10 L9,10 L9,12 L10,12 L10,13 L11,13 L11,14 L12,14 L12,16 L13,16 L13,17 L14,17 L14,19 L15,19 L15,20 L16,20 L16,21 L17,21 L17,23 L18,23 L18,17 L16,17 L16,16 L15,16 L15,12 L16,12 L16,11 L18,11 L18,10 L19,10 L19,11 L21,11 L21,13 L22,13 L22,15 L21,15 L21,21 L20,21 L20,25 L21,25 L21,27 L22,27 L22,28 L23,28 L23,29 L24,29 L24,31 L25,31 L25,27 L23,27 L23,22 L24,22 L24,21 L28,21 L28,22 L29,22 L29,23 L30,23 L30,25 L29,25 L29,27 L28,27 L28,32 L24,32 L24,33 L22,33 L22,32 L21,32 L21,31 L20,31 L20,30 L19,30 L19,28 L18,28 L18,27 L16,27 L16,26 L12,26 L12,25 L7,25 L7,26 L3,26 L3,25 L2,25 L2,21 L3,21 L3,20 L4,20 L4,19 L7,19 L7,20 L8,20 L8,21 L9,21 L9,22 L11,22 L11,23 L14,23 L14,22 L13,22 L13,20 L12,20 L12,19 L11,19 L11,18 L10,18 L10,16 L9,16 L9,14 L8,14 L8,13 L7,13 L7,12 L6,12 L6,10 L5,10 L5,9 L4,9 L4,7 L0,7 L0,6 L-1,6 L-1,5 L-2,5 L-2,1 L0,1 Z " transform="translate(33,28)" style="fill: #B59E7B;"/><path d="M0,0 L13,0 L13,1 L15,1 L15,2 L17,2 L17,4 L16,4 L16,11 L17,11 L17,13 L16,13 L16,12 L14,12 L14,11 L10,11 L10,12 L8,12 L8,13 L7,13 L7,14 L6,14 L6,20 L5,20 L5,19 L4,19 L4,18 L-1,18 L-1,10 L-2,10 L-2,9 L-3,9 L-3,8 L-10,8 L-10,6 L-9,6 L-9,5 L-7,5 L-7,4 L-6,4 L-6,3 L-4,3 L-4,2 L-2,2 L-2,1 L0,1 Z M17,13 L18,13 L18,14 L17,14 Z " transform="translate(58,28)" style="fill: #706557;"/><path d="M0,0 L1,0 L1,1 L5,1 L5,2 L6,2 L6,4 L7,4 L7,5 L8,5 L8,6 L9,6 L9,8 L10,8 L10,9 L11,9 L11,10 L12,10 L12,12 L13,12 L13,13 L14,13 L14,14 L15,14 L15,27 L14,27 L14,28 L12,28 L12,29 L11,29 L11,30 L9,30 L9,31 L7,31 L7,32 L6,32 L6,31 L5,31 L5,28 L4,28 L4,19 L3,19 L3,14 L2,14 L2,8 L1,8 L1,2 L0,2 Z " transform="translate(44,56)" style="fill: #6B655A;"/><path d="M0,0 L4,0 L4,2 L3,2 L3,8 L2,8 L2,14 L1,14 L1,19 L0,19 L0,26 L-1,26 L-1,27 L-2,27 L-2,26 L-4,26 L-4,25 L-6,25 L-6,24 L-8,24 L-8,23 L-9,23 L-9,22 L-10,22 L-10,7 L-9,7 L-9,5 L-8,5 L-8,3 L-6,3 L-6,2 L-3,2 L-3,1 L0,1 Z " transform="translate(80,61)" style="fill: #706557;"/><path d="M0,0 L3,0 L3,1 L2,1 L2,2 L1,2 L1,5 L4,5 L4,4 L6,4 L6,9 L7,9 L7,12 L8,12 L8,14 L9,14 L9,16 L10,16 L10,18 L11,18 L11,20 L12,20 L12,21 L13,21 L13,22 L14,22 L14,23 L15,23 L15,24 L17,24 L17,25 L19,25 L19,26 L23,26 L23,30 L21,30 L21,29 L18,29 L18,28 L17,28 L17,27 L15,27 L15,26 L14,26 L14,25 L13,25 L13,24 L12,24 L12,23 L11,23 L11,22 L10,22 L10,21 L9,21 L9,19 L8,19 L8,18 L7,18 L7,16 L6,16 L6,14 L5,14 L5,11 L4,11 L4,9 L1,9 L1,13 L2,13 L2,15 L3,15 L3,17 L2,17 L2,16 L1,16 L1,15 L0,15 L0,14 L-1,14 L-1,11 L-2,11 L-2,9 L-3,9 L-3,2 L-2,2 L-2,1 L0,1 Z " transform="translate(33,77)" style="fill: #CE9A4A;"/><path d="M0,0 L2,0 L2,1 L5,1 L5,2 L6,2 L6,10 L5,10 L5,12 L4,12 L4,13 L3,13 L3,15 L2,15 L2,16 L1,16 L1,17 L0,17 L0,18 L-1,18 L-1,16 L0,16 L0,15 L1,15 L1,13 L2,13 L2,10 L1,10 L1,9 L-1,9 L-1,10 L-2,10 L-2,13 L-3,13 L-3,15 L-4,15 L-4,17 L-5,17 L-5,19 L-6,19 L-6,20 L-7,20 L-7,22 L-8,22 L-8,23 L-9,23 L-9,24 L-10,24 L-10,25 L-11,25 L-11,26 L-13,26 L-13,27 L-14,27 L-14,28 L-15,28 L-15,29 L-18,29 L-18,30 L-20,30 L-20,26 L-16,26 L-16,25 L-14,25 L-14,24 L-12,24 L-12,23 L-11,23 L-11,22 L-10,22 L-10,21 L-9,21 L-9,20 L-8,20 L-8,18 L-7,18 L-7,16 L-6,16 L-6,14 L-5,14 L-5,12 L-4,12 L-4,8 L-3,8 L-3,4 L-2,4 L-2,5 L2,5 L2,2 L1,2 L1,1 L0,1 Z " transform="translate(93,76)" style="fill: #C6964A;"/><path d="M0,0 L7,0 L7,1 L10,1 L10,2 L12,2 L12,3 L14,3 L14,4 L16,4 L16,5 L17,5 L17,6 L19,6 L19,7 L20,7 L20,8 L21,8 L21,9 L19,9 L19,8 L18,8 L18,9 L17,9 L17,8 L15,8 L15,7 L13,7 L13,6 L11,6 L11,5 L-4,5 L-4,6 L-6,6 L-6,7 L-8,7 L-8,8 L-10,8 L-10,9 L-11,9 L-11,10 L-13,10 L-13,11 L-14,11 L-14,12 L-15,12 L-15,14 L-16,14 L-16,15 L-18,15 L-18,12 L-17,12 L-17,11 L-16,11 L-16,10 L-15,10 L-15,9 L-14,9 L-14,8 L-13,8 L-13,7 L-12,7 L-12,6 L-10,6 L-10,5 L-9,5 L-9,4 L-7,4 L-7,3 L-5,3 L-5,2 L-3,2 L-3,1 L0,1 Z " transform="translate(61,21)" style="fill: #CE9A4A;"/><path d="M0,0 L4,0 L4,4 L8,4 L8,20 L4,20 L4,16 L0,16 L0,11 L-1,11 L-1,8 L0,8 Z " transform="translate(48,64)" style="fill: #706557;"/><path d="M0,0 L3,0 L3,1 L4,1 L4,2 L6,2 L6,1 L8,1 L8,0 L11,0 L11,2 L10,2 L10,3 L8,3 L8,6 L13,6 L13,8 L12,8 L12,10 L11,10 L11,11 L10,11 L10,12 L8,12 L8,13 L3,13 L3,12 L1,12 L1,11 L0,11 L0,10 L-1,10 L-1,8 L-2,8 L-2,6 L3,6 L3,3 L0,3 Z " transform="translate(59,103)" style="fill: #CE9A4A;"/><path d="M0,0 L4,0 L4,1 L5,1 L5,2 L6,2 L6,4 L5,4 L5,6 L4,6 L4,11 L0,11 L0,12 L-2,12 L-2,11 L-3,11 L-3,10 L-4,10 L-4,9 L-5,9 L-5,8 L-4,8 L-4,7 L-5,7 L-5,3 L-4,3 L-4,4 L-3,4 L-3,6 L-2,6 L-2,7 L-1,7 L-1,8 L0,8 L0,10 L1,10 L1,6 L-1,6 L-1,1 L0,1 Z " transform="translate(57,49)" style="fill: #BDA684;"/><path d="M0,0 L4,0 L4,1 L5,1 L5,6 L6,6 L6,8 L7,8 L7,9 L8,9 L8,10 L9,10 L9,12 L10,12 L10,13 L11,13 L11,14 L12,14 L12,16 L11,16 L11,18 L10,18 L10,16 L9,16 L9,14 L8,14 L8,13 L7,13 L7,12 L6,12 L6,10 L5,10 L5,9 L4,9 L4,7 L0,7 L0,6 L-1,6 L-1,5 L-2,5 L-2,1 L0,1 Z " transform="translate(33,28)" style="fill: #BDAA84;"/><path d="M0,0 L5,0 L5,2 L6,2 L6,5 L5,5 L5,6 L4,6 L4,7 L-1,7 L-1,8 L-3,8 L-3,9 L-4,9 L-4,10 L-6,10 L-6,11 L-7,11 L-7,12 L-9,12 L-9,13 L-10,13 L-10,14 L-11,14 L-11,12 L-10,12 L-10,10 L-8,10 L-8,9 L-7,9 L-7,8 L-5,8 L-5,7 L-3,7 L-3,6 L-2,6 L-2,5 L-1,5 L-1,2 L0,2 Z M-12,14 L-11,14 L-11,15 L-12,15 Z " transform="translate(93,31)" style="fill: #BDA684;"/><path d="M0,0 L1,0 L1,1 L3,1 L3,2 L4,2 L4,6 L3,6 L3,7 L-5,7 L-5,8 L-8,8 L-8,9 L-9,9 L-9,6 L-11,6 L-11,5 L-6,5 L-6,4 L-3,4 L-3,2 L-2,2 L-2,1 L0,1 Z " transform="translate(85,51)" style="fill: #BAA681;"/><path d="M0,0 L3,0 L3,1 L2,1 L2,3 L1,3 L1,5 L0,5 L0,7 L-1,7 L-1,8 L-2,8 L-2,10 L-3,10 L-3,11 L-4,11 L-4,12 L-5,12 L-5,13 L-6,13 L-6,14 L-8,14 L-8,15 L-9,15 L-9,16 L-10,16 L-10,17 L-13,17 L-13,18 L-15,18 L-15,14 L-11,14 L-11,13 L-9,13 L-9,12 L-7,12 L-7,11 L-6,11 L-6,10 L-5,10 L-5,9 L-4,9 L-4,8 L-3,8 L-3,6 L-2,6 L-2,4 L-1,4 L-1,2 L0,2 Z " transform="translate(88,88)" style="fill: #CE9A4A;"/><path d="M0,0 L1,0 L1,1 L5,1 L5,2 L6,2 L6,4 L7,4 L7,5 L8,5 L8,6 L9,6 L9,9 L8,9 L8,8 L4,8 L4,16 L3,16 L3,14 L2,14 L2,8 L1,8 L1,2 L0,2 Z " transform="translate(44,56)" style="fill: #6B655A;"/><path d="M0,0 L4,0 L4,1 L5,1 L5,3 L6,3 L6,4 L5,4 L5,6 L4,6 L4,7 L2,7 L2,12 L1,12 L1,11 L0,11 L0,14 L-1,14 L-1,15 L-2,15 L-2,13 L-1,13 L-1,9 L0,9 L0,6 L-1,6 L-1,4 L-2,4 L-2,3 L-1,3 L-1,1 L0,1 Z " transform="translate(68,42)" style="fill: #BDA683;"/><path d="M0,0 L3,0 L3,1 L5,1 L5,2 L7,2 L7,4 L6,4 L6,11 L7,11 L7,13 L6,13 L6,12 L4,12 L4,11 L0,11 L0,8 L4,8 L4,4 L0,4 Z M7,13 L8,13 L8,14 L7,14 Z " transform="translate(68,28)" style="fill: #6B655A;"/><path d="M0,0 L3,0 L3,1 L5,1 L5,2 L7,2 L7,3 L9,3 L9,4 L10,4 L10,5 L12,5 L12,6 L13,6 L13,7 L14,7 L14,8 L12,8 L12,7 L11,7 L11,8 L10,8 L10,7 L8,7 L8,6 L6,6 L6,5 L4,5 L4,4 L-8,4 L-8,3 L-1,3 L-1,2 L0,2 Z " transform="translate(68,22)" style="fill: #CE9A4A;"/><path d="M0,0 L3,0 L3,1 L2,1 L2,2 L1,2 L1,5 L0,5 L0,3 L-2,3 L-2,8 L-1,8 L-1,7 L3,7 L3,9 L1,9 L1,13 L2,13 L2,15 L3,15 L3,17 L2,17 L2,16 L1,16 L1,15 L0,15 L0,14 L-1,14 L-1,11 L-2,11 L-2,9 L-3,9 L-3,2 L-2,2 L-2,1 L0,1 Z M4,4 L6,4 L6,5 L5,5 L5,6 L4,6 L4,7 L3,7 L3,6 L2,6 L2,5 L4,5 Z " transform="translate(33,77)" style="fill: #C69A4A;"/><path d="M0,0 L3,0 L3,1 L4,1 L4,2 L5,2 L5,3 L7,3 L7,5 L5,5 L5,6 L3,6 L3,7 L-1,7 L-1,6 L-2,6 L-2,2 L-1,2 L-1,1 L0,1 Z " transform="translate(37,47)" style="fill: #BDA683;"/><path d="M0,0 L2,0 L2,2 L4,2 L4,3 L5,3 L5,4 L1,4 L1,5 L0,5 Z M7,2 L8,2 L8,6 L9,6 L9,9 L10,9 L10,12 L8,12 L8,11 L7,11 L7,8 L6,8 L6,6 L5,6 L5,4 L6,4 L6,3 L7,3 Z " transform="translate(31,80)" style="fill: #CE9A4A;"/><path d="M0,0 L4,0 L4,2 L3,2 L3,8 L2,8 L2,14 L1,14 L1,15 L0,15 Z " transform="translate(80,61)" style="fill: #6B655A;"/><path d="M0,0 L2,0 L2,1 L1,1 L1,4 L2,4 L2,5 L3,5 L3,7 L4,7 L4,8 L5,8 L5,9 L6,9 L6,11 L7,11 L7,12 L5,12 L5,11 L4,11 L4,10 L3,10 L3,9 L2,9 L2,8 L1,8 L1,10 L0,10 L0,9 L-1,9 L-1,1 L0,1 Z " transform="translate(65,87)" style="fill: #B5A27B;"/><path d="M0,0 L4,0 L4,1 L5,1 L5,2 L6,2 L6,4 L5,4 L5,5 L4,5 L4,6 L3,6 L3,7 L1,7 L1,6 L-1,6 L-1,1 L0,1 Z " transform="translate(57,49)" style="fill: #BDA684;"/><path d="M0,0 L3,0 L3,1 L4,1 L4,2 L6,2 L6,1 L8,1 L8,0 L11,0 L11,2 L10,2 L10,3 L8,3 L8,5 L3,5 L3,3 L0,3 Z " transform="translate(59,103)" style="fill: #C69A4A;"/><path d="M0,0 L2,0 L2,1 L4,1 L4,2 L6,2 L6,3 L9,3 L9,4 L10,4 L10,6 L8,6 L8,5 L5,5 L5,4 L3,4 L3,6 L4,6 L4,8 L3,8 L3,7 L2,7 L2,6 L1,6 L1,5 L0,5 Z M2,3 L2,4 L3,4 L3,3 Z " transform="translate(72,88)" style="fill: #B59E7B;"/><path d="M0,0 L2,0 L2,1 L3,1 L3,2 L4,2 L4,4 L1,4 L1,8 L0,8 L0,7 L-1,7 L-1,6 L-2,6 L-2,5 L-3,5 L-3,3 L-2,3 L-2,1 L0,1 Z M1,8 L2,8 L2,10 L3,10 L3,11 L1,11 Z " transform="translate(79,32)" style="fill: #BDA684;"/><path d="M0,0 L4,0 L4,4 L7,4 L7,6 L5,6 L5,7 L3,7 L3,8 L2,8 L2,7 L1,7 L1,4 L0,4 Z " transform="translate(48,80)" style="fill: #6B655A;"/><path d="M0,0 L2,0 L2,4 L3,4 L3,12 L4,12 L4,15 L5,15 L5,17 L3,17 L3,15 L2,15 L2,10 L1,10 L1,2 L0,2 Z " transform="translate(43,73)" style="fill: #C69A4A;"/><path d="M0,0 L3,0 L3,6 L2,6 L2,7 L0,7 L0,6 L-1,6 L-1,5 L-2,5 L-2,1 L0,1 Z " transform="translate(33,28)" style="fill: #BAA681;"/><path d="M0,0 L3,0 L3,3 L7,3 L7,6 L10,6 L10,7 L5,7 L5,6 L3,6 L3,5 L2,5 L2,4 L1,4 L1,2 L0,2 Z " transform="translate(57,109)" style="fill: #C69A4A;"/><path d="M0,0 L1,0 L1,15 L0,15 L0,14 L-1,14 L-1,1 L0,1 Z " transform="translate(71,69)" style="fill: #6B655A;"/><path d="M0,0 L1,0 L1,1 L4,1 L4,2 L2,2 L2,3 L1,3 L1,4 L-1,4 L-1,5 L-2,5 L-2,6 L-3,6 L-3,8 L-4,8 L-4,9 L-6,9 L-6,6 L-5,6 L-5,5 L-4,5 L-4,4 L-3,4 L-3,3 L-2,3 L-2,2 L-1,2 L-1,1 L0,1 Z " transform="translate(49,27)" style="fill: #C6964A;"/><path d="M0,0 L1,0 L1,8 L0,8 L0,14 L-1,14 L-1,16 L-3,16 L-3,15 L-2,15 L-2,10 L-1,10 L-1,2 L0,2 Z " transform="translate(84,73)" style="fill: #C6964A;"/><path d="M0,0 L3,0 L3,9 L0,9 Z " transform="translate(63,10)" style="fill: #CE9A4A;"/><path d="M0,0 L1,0 L1,1 L3,1 L3,3 L4,3 L4,5 L3,5 L3,11 L2,11 L2,13 L1,13 L1,2 L0,2 Z " transform="translate(51,38)" style="fill: #BDA684;"/><path d="M0,0 L1,0 L1,5 L2,5 L2,7 L1,7 L1,6 L-1,6 L-1,5 L-5,5 L-5,2 L-1,2 L-1,1 L0,1 Z M2,7 L3,7 L3,8 L2,8 Z " transform="translate(73,34)" style="fill: #6B655A;"/><path d="M0,0 L2,0 L2,1 L5,1 L5,2 L6,2 L6,4 L3,4 L3,8 L-1,8 L-1,6 L1,6 L1,5 L2,5 L2,2 L1,2 L1,1 L0,1 Z " transform="translate(93,76)" style="fill: #C69A4A;"/><path d="M0,0 L2,0 L2,1 L8,1 L8,5 L7,5 L7,4 L5,4 L5,3 L1,3 L1,2 L-2,2 L-2,1 L0,1 Z M8,0 L9,0 L9,1 L8,1 Z M8,5 L9,5 L9,6 L8,6 Z " transform="translate(44,51)" style="fill: #BDA684;"/><path d="M0,0 L3,0 L3,8 L0,8 Z " transform="translate(64,76)" style="fill: #B5A27B;"/><path d="M0,0 L3,0 L3,2 L2,2 L2,3 L1,3 L1,4 L0,4 Z M-1,4 L0,4 L0,7 L2,7 L2,9 L1,9 L1,11 L0,11 L0,12 L-2,12 L-2,11 L-1,11 L-1,10 L0,10 L0,9 L-1,9 Z M2,6 L3,6 L3,7 L2,7 Z " transform="translate(80,36)" style="fill: #B5A27B;"/><path d="M0,0 L2,0 L2,1 L4,1 L4,3 L1,3 L1,4 L-2,4 L-2,5 L-3,5 L-3,2 L-5,2 L-5,1 L0,1 Z " transform="translate(79,55)" style="fill: #B5A27B;"/><path d="M0,0 L5,0 L5,2 L6,2 L6,5 L5,5 L5,6 L4,6 L4,7 L0,7 L0,6 L2,6 L2,5 L3,5 L3,1 L0,1 Z " transform="translate(93,31)" style="fill: #BDA684;"/><path d="M0,0 L1,0 L1,1 L4,1 L4,2 L2,2 L2,4 L5,4 L5,5 L2,5 L2,6 L1,6 L1,8 L-1,8 L-1,4 L0,4 Z " transform="translate(90,80)" style="fill: #C6964A;"/><path d="M0,0 L2,0 L2,4 L5,4 L5,7 L4,7 L4,6 L-1,6 L-1,4 L0,4 Z " transform="translate(58,40)" style="fill: #6B655A;"/><path d="M0,0 L3,0 L3,1 L2,1 L2,3 L1,3 L1,5 L0,5 L0,7 L-1,7 L-1,8 L-3,8 L-3,6 L-2,6 L-2,4 L-1,4 L-1,2 L0,2 Z " transform="translate(88,88)" style="fill: #C69A4A;"/><path d="M0,0 L2,0 L2,1 L3,1 L3,5 L2,5 L2,6 L0,6 L0,5 L-1,5 L-1,1 L0,1 Z " transform="translate(49,39)" style="fill: #BAA681;"/><path d="M0,0 L4,0 L4,3 L3,3 L3,4 L-4,4 L-4,3 L0,3 Z M-5,2 L-4,2 L-4,3 L-5,3 Z " transform="translate(64,21)" style="fill: #C69A4A;"/><path d="M0,0 L8,0 L8,3 L7,3 L7,4 L6,4 L6,3 L4,3 L4,2 L2,2 L2,1 L0,1 Z " transform="translate(72,84)" style="fill: #6B655A;"/><path d="M0,0 L2,0 L2,1 L1,1 L1,4 L5,4 L5,6 L0,6 L0,4 L-2,4 L-2,3 L-1,3 L-1,1 L0,1 Z " transform="translate(83,52)" style="fill: #BDA684;"/><path d="M0,0 L5,0 L5,4 L3,4 L3,8 L2,8 L2,2 L1,2 L1,1 L0,1 Z " transform="translate(55,36)" style="fill: #706552;"/><path d="M0,0 L3,0 L3,6 L2,6 L2,7 L1,7 L1,6 L0,6 Z " transform="translate(58,13)" style="fill: #C6964A;"/><path d="M0,0 L1,0 L1,2 L2,2 L2,4 L3,4 L3,8 L2,8 L2,7 L1,7 L1,5 L0,5 L0,4 L-1,4 L-1,2 L-2,2 L-2,1 L0,1 Z " transform="translate(41,91)" style="fill: #C6964A;"/><path d="M0,0 L1,0 L1,1 L0,1 Z M-1,1 L0,1 L0,6 L-5,6 L-5,3 L-4,3 L-4,5 L-3,5 L-3,2 L-1,2 Z " transform="translate(61,54)" style="fill: #B5A27B;"/><path d="M0,0 L2,0 L2,1 L1,1 L1,2 L0,2 Z M-1,2 L0,2 L0,3 L1,3 L1,5 L0,5 L0,6 L-1,6 L-1,8 L-2,8 L-2,7 L-4,7 L-4,6 L-3,6 L-3,4 L-2,4 L-2,3 L-1,3 Z " transform="translate(78,45)" style="fill: #B5A27B;"/><path d="M0,0 L3,0 L3,4 L2,4 L2,5 L0,5 L0,4 L-1,4 L-1,1 L0,1 Z M-1,5 L0,5 L0,6 L-1,6 Z " transform="translate(93,32)" style="fill: #BAA681;"/><path d="M0,0 L1,0 L1,1 L2,1 L2,6 L3,6 L3,8 L2,8 L2,9 L1,9 L1,7 L-1,7 L-1,6 L0,6 Z " transform="translate(36,28)" style="fill: #B59E7B;"/><path d="M0,0 L3,0 L3,6 L0,6 Z " transform="translate(72,15)" style="fill: #CE9A4A;"/><path d="M0,0 L4,0 L4,1 L5,1 L5,3 L6,3 L6,4 L5,4 L5,5 L4,5 L4,2 L0,2 L0,4 L-2,4 L-2,3 L-1,3 L-1,1 L0,1 Z " transform="translate(68,42)" style="fill: #B59E7B;"/><path d="M0,0 L3,0 L3,1 L4,1 L4,2 L5,2 L5,5 L3,5 L3,3 L0,3 Z " transform="translate(59,103)" style="fill: #C6964A;"/><path d="M0,0 L2,0 L2,6 L0,6 L0,5 L-1,5 L-1,1 L0,1 Z " transform="translate(54,15)" style="fill: #8E6A34;"/><path d="M0,0 L2,0 L2,2 L4,2 L4,3 L5,3 L5,4 L1,4 L1,5 L0,5 Z M5,4 L6,4 L6,5 L5,5 Z " transform="translate(31,80)" style="fill: #CE9A4A;"/><path d="M0,0 L2,0 L2,1 L3,1 L3,3 L4,3 L4,6 L2,6 L2,4 L1,4 L1,3 L0,3 Z " transform="translate(44,44)" style="fill: #BDA684;"/><path d="M0,0 L3,0 L3,4 L4,4 L4,5 L5,5 L5,6 L3,6 L3,5 L2,5 L2,4 L1,4 L1,2 L0,2 Z " transform="translate(57,109)" style="fill: #C6964A;"/><path d="M0,0 L3,0 L3,1 L2,1 L2,2 L1,2 L1,5 L0,5 L0,3 L-2,3 L-2,4 L-3,4 L-3,2 L-2,2 L-2,1 L0,1 Z " transform="translate(33,77)" style="fill: #B7893F;"/><path d="M0,0 L2,0 L2,4 L-2,4 L-2,1 L0,1 Z " transform="translate(58,28)" style="fill: #6B655A;"/><path d="M0,0 L1,0 L1,4 L-4,4 L-4,3 L-3,3 L-3,2 L-2,2 L-2,1 L0,1 Z " transform="translate(55,88)" style="fill: #ACA07E;"/><path d="M0,0 L1,0 L1,1 L2,1 L2,2 L3,2 L3,4 L-1,4 L-1,1 L0,1 Z M3,4 L4,4 L4,5 L3,5 Z " transform="translate(53,64)" style="fill: #6B655A;"/><path d="M0,0 L2,0 L2,1 L1,1 L1,3 L-1,3 L-1,4 L-2,4 L-2,5 L-3,5 L-3,4 L-5,4 L-5,3 L-3,3 L-3,2 L-1,2 L-1,1 L0,1 Z " transform="translate(91,36)" style="fill: #BDAA84;"/><path d="M0,0 L3,0 L3,4 L0,4 Z " transform="translate(96,80)" style="fill: #CE9A4A;"/><path d="M0,0 L3,0 L3,4 L0,4 Z " transform="translate(64,76)" style="fill: #B59E7B;"/><path d="M0,0 L3,0 L3,2 L2,2 L2,3 L1,3 L1,5 L0,5 L0,4 L-1,4 L-1,2 L0,2 Z " transform="translate(73,52)" style="fill: #BDAA84;"/><path d="M0,0 L1,0 L1,1 L2,1 L2,2 L4,2 L4,4 L2,4 L2,5 L1,5 L1,4 L0,4 Z " transform="translate(40,48)" style="fill: #ACA07E;"/><path d="M0,0 L2,0 L2,6 L0,6 Z " transform="translate(88,44)" style="fill: #73562C;"/><path d="M0,0 L2,0 L2,1 L3,1 L3,2 L4,2 L4,4 L3,4 L3,5 L2,5 L2,4 L1,4 L1,2 L0,2 Z " transform="translate(38,36)" style="fill: #B5A27B;"/><path d="M0,0 L1,0 L1,4 L-3,4 L-3,2 L-2,2 L-2,1 L0,1 Z " transform="translate(51,32)" style="fill: #6B655A;"/><path d="M0,0 L2,0 L2,6 L0,6 Z " transform="translate(68,13)" style="fill: #CE9A4A;"/><path d="M0,0 L1,0 L1,1 L2,1 L2,2 L3,2 L3,3 L4,3 L4,5 L2,5 L2,4 L1,4 L1,3 L0,3 Z " transform="translate(44,97)" style="fill: #BD8E42;"/><path d="M0,0 L2,0 L2,6 L1,6 L1,5 L0,5 Z " transform="translate(63,96)" style="fill: #BDA684;"/><path d="M0,0 L1,0 L1,1 L0,1 Z M-2,1 L0,1 L0,3 L-1,3 L-1,5 L-2,5 L-2,6 L-4,6 L-4,5 L-3,5 L-3,4 L-2,4 L-2,3 L-3,3 L-3,2 L-2,2 Z " transform="translate(82,42)" style="fill: #B59E7B;"/><path d="M0,0 L1,0 L1,1 L4,1 L4,2 L2,2 L2,3 L1,3 L1,4 L-1,4 L-1,1 L0,1 Z " transform="translate(49,27)" style="fill: #C69A4A;"/><path d="M0,0 L1,0 L1,3 L0,3 L0,4 L-1,4 L-1,5 L-2,5 L-2,6 L-3,6 L-3,4 L-2,4 L-2,3 L-1,3 L-1,1 L0,1 Z " transform="translate(95,88)" style="fill: #C6964A;"/><path d="M0,0 L2,0 L2,1 L3,1 L3,4 L1,4 L1,3 L0,3 Z " transform="translate(38,88)" style="fill: #C69A4A;"/><path d="M0,0 L2,0 L2,4 L3,4 L3,6 L1,6 L1,2 L0,2 Z " transform="translate(43,73)" style="fill: #C6964A;"/><path d="M0,0 L4,0 L4,2 L3,2 L3,3 L1,3 L1,2 L0,2 Z " transform="translate(32,32)" style="fill: #BDA684;"/><path d="M0,0 L3,0 L3,1 L4,1 L4,3 L2,3 L2,2 L0,2 Z " transform="translate(78,91)" style="fill: #B59E7B;"/><path d="M0,0 L3,0 L3,4 L2,4 L2,3 L1,3 L1,2 L0,2 Z " transform="translate(69,88)" style="fill: #BDA684;"/><path d="M0,0 L3,0 L3,2 L-3,2 L-3,1 L0,1 Z " transform="translate(77,62)" style="fill: #706552;"/><path d="M0,0 L3,0 L3,3 L0,3 Z " transform="translate(77,33)" style="fill: #BDAA84;"/><path d="M0,0 L9,0 L9,1 L0,1 Z " transform="translate(60,25)" style="fill: #896834;"/><path d="M0,0 L1,0 L1,9 L0,9 Z " transform="translate(65,10)" style="fill: #946D34;"/><path d="M0,0 L1,0 L1,1 L0,1 Z M1,1 L2,1 L2,2 L1,2 Z M-1,2 L1,2 L1,3 L0,3 L0,4 L-1,4 L-1,5 L-2,5 L-2,3 L-1,3 Z M-3,5 L-2,5 L-2,6 L-3,6 Z " transform="translate(84,96)" style="fill: #C6964A;"/><path d="M0,0 L3,0 L3,2 L4,2 L4,4 L3,4 L3,3 L2,3 L2,2 L1,2 L1,1 L0,1 Z " transform="translate(72,92)" style="fill: #B5A27B;"/><path d="M0,0 L2,0 L2,2 L3,2 L3,4 L1,4 L1,2 L0,2 Z " transform="translate(45,86)" style="fill: #C69A4A;"/><path d="M0,0 L1,0 L1,3 L0,3 L0,5 L-2,5 L-2,4 L-1,4 L-1,1 L0,1 Z " transform="translate(83,84)" style="fill: #CE9A4A;"/><path d="M0,0 L2,0 L2,1 L3,1 L3,3 L0,3 Z " transform="translate(96,77)" style="fill: #C6964A;"/><path d="M0,0 L2,0 L2,1 L4,1 L4,3 L1,3 L1,1 L0,1 Z " transform="translate(79,55)" style="fill: #B59E7B;"/><path d="M0,0 L1,0 L1,1 L2,1 L2,3 L3,3 L3,4 L0,4 Z " transform="translate(52,52)" style="fill: #B5A27B;"/><path d="M0,0 L1,0 L1,1 L0,1 Z M1,1 L8,1 L8,2 L1,2 Z " transform="translate(59,23)" style="fill: #C6964A;"/><path d="M0,0 L3,0 L3,3 L1,3 L1,2 L0,2 Z " transform="translate(76,20)" style="fill: #C6964A;"/><path d="M0,0 L3,0 L3,3 L1,3 L1,2 L0,2 Z " transform="translate(49,20)" style="fill: #C6964A;"/><path d="M0,0 L2,0 L2,4 L0,4 Z " transform="translate(54,17)" style="fill: #CE9A4A;"/><path d="M0,0 L3,0 L3,3 L2,3 L2,2 L0,2 Z " transform="translate(52,104)" style="fill: #C6964A;"/><path d="M0,0 L4,0 L4,1 L3,1 L3,2 L0,2 Z " transform="translate(73,102)" style="fill: #C6964A;"/><path d="M0,0 L2,0 L2,4 L3,4 L3,5 L1,5 L1,1 L0,1 Z " transform="translate(58,92)" style="fill: #B59E7B;"/><path d="M0,0 L1,0 L1,7 L0,7 Z " transform="translate(63,89)" style="fill: #BDA684;"/><path d="M0,0 L1,0 L1,1 L2,1 L2,2 L4,2 L4,3 L0,3 Z " transform="translate(68,85)" style="fill: #ACA07E;"/><path d="M0,0 L1,0 L1,2 L0,2 L0,4 L-2,4 L-2,2 L-1,2 L-1,1 L0,1 Z " transform="translate(91,84)" style="fill: #CE9A4A;"/><path d="M0,0 L1,0 L1,5 L0,5 L0,6 L-1,6 L-1,4 L0,4 Z " transform="translate(67,51)" style="fill: #B59E7B;"/><path d="M0,0 L1,0 L1,1 L2,1 L2,2 L3,2 L3,4 L2,4 L2,3 L0,3 Z " transform="translate(60,49)" style="fill: #B59E7B;"/><path d="M0,0 L2,0 L2,1 L1,1 L1,2 L0,2 L0,4 L-2,4 L-2,3 L-1,3 L-1,1 L0,1 Z " transform="translate(68,42)" style="fill: #B59E7B;"/><path d="M0,0 L1,0 L1,1 L2,1 L2,4 L0,4 Z " transform="translate(36,28)" style="fill: #ACA07E;"/><path d="M0,0 L4,0 L4,1 L5,1 L5,2 L3,2 L3,1 L2,1 L2,2 L1,2 L1,1 L0,1 Z " transform="translate(77,28)" style="fill: #CE9A4A;"/><path d="M0,0 L2,0 L2,1 L4,1 L4,2 L1,2 L1,3 L0,3 Z " transform="translate(76,26)" style="fill: #C6964A;"/><path d="M0,0 L3,0 L3,2 L0,2 Z M-1,2 L0,2 L0,3 L-1,3 Z " transform="translate(68,22)" style="fill: #C6964A;"/><path d="M0,0 L2,0 L2,4 L1,4 L1,3 L0,3 Z " transform="translate(58,16)" style="fill: #BD8E42;"/><path d="M0,0 L3,0 L3,1 L2,1 L2,2 L1,2 L1,3 L0,3 Z " transform="translate(68,112)" style="fill: #C6964A;"/><path d="M0,0 L3,0 L3,1 L1,1 L1,2 L2,2 L2,3 L0,3 Z " transform="translate(59,103)" style="fill: #AA8F47;"/><path d="M0,0 L2,0 L2,2 L3,2 L3,3 L1,3 L1,2 L0,2 Z " transform="translate(69,96)" style="fill: #B5A27B;"/><path d="M0,0 L1,0 L1,2 L0,2 L0,3 L-2,3 L-2,1 L0,1 Z " transform="translate(87,93)" style="fill: #C69A4A;"/><path d="M0,0 L2,0 L2,3 L1,3 L1,2 L-1,2 L-1,1 L0,1 Z " transform="translate(76,90)" style="fill: #B5A27B;"/><path d="M0,0 L1,0 L1,4 L0,4 L0,5 L-1,5 L-1,3 L0,3 Z " transform="translate(83,80)" style="fill: #C6964A;"/><path d="M0,0 L2,0 L2,2 L0,2 L0,3 L-1,3 L-1,1 L0,1 Z " transform="translate(31,78)" style="fill: #BB8C41;"/><path d="M0,0 L1,0 L1,1 L0,1 Z M-1,1 L0,1 L0,6 L-1,6 Z " transform="translate(61,54)" style="fill: #948263;"/><path d="M0,0 L2,0 L2,1 L1,1 L1,2 L0,2 L0,3 L-1,3 L-1,1 L0,1 Z M-2,3 L-1,3 L-1,4 L-2,4 Z " transform="translate(83,52)" style="fill: #BDA684;"/><path d="M0,0 L1,0 L1,3 L-2,3 L-2,2 L-1,2 L-1,1 L0,1 Z " transform="translate(59,49)" style="fill: #BDAA84;"/><path d="M0,0 L2,0 L2,1 L1,1 L1,3 L-1,3 L-1,2 L0,2 Z M-2,3 L-1,3 L-1,4 L-2,4 Z " transform="translate(91,36)" style="fill: #BDAA84;"/><path d="M0,0 L2,0 L2,4 L1,4 L1,2 L0,2 Z " transform="translate(38,36)" style="fill: #ACA07E;"/><path d="M0,0 L2,0 L2,2 L-2,2 L-2,1 L0,1 Z " transform="translate(54,30)" style="fill: #786952;"/><path d="M0,0 L1,0 L1,6 L0,6 Z " transform="translate(72,15)" style="fill: #946D34;"/><path d="M0,0 L5,0 L5,1 L0,1 Z " transform="translate(62,115)" style="fill: #946D34;"/><path d="M0,0 L1,0 L1,1 L0,1 Z M1,1 L3,1 L3,2 L4,2 L4,3 L2,3 L2,2 L1,2 Z " transform="translate(58,112)" style="fill: #B78E44;"/><path d="M0,0 L3,0 L3,1 L2,1 L2,2 L0,2 Z " transform="translate(73,104)" style="fill: #C69A4A;"/><path d="M0,0 L3,0 L3,2 L1,2 L1,1 L0,1 Z " transform="translate(45,100)" style="fill: #C6964A;"/><path d="M0,0 L1,0 L1,1 L0,1 Z M-2,1 L0,1 L0,2 L-2,2 Z M-3,2 L-2,2 L-2,3 L-3,3 Z M-4,3 L-3,3 L-3,4 L-4,4 Z " transform="translate(85,96)" style="fill: #C6964A;"/><path d="M0,0 L1,0 L1,2 L2,2 L2,4 L1,4 L1,3 L0,3 Z " transform="translate(34,90)" style="fill: #C49549;"/><path d="M0,0 L1,0 L1,5 L0,5 Z " transform="translate(30,81)" style="fill: #B1843F;"/><path d="M0,0 L2,0 L2,3 L1,3 L1,2 L0,2 Z " transform="translate(43,73)" style="fill: #B5925A;"/><path d="M0,0 L1,0 L1,3 L0,3 L0,4 L-1,4 L-1,2 L0,2 Z " transform="translate(71,66)" style="fill: #6B655A;"/><path d="M0,0 L1,0 L1,3 L2,3 L2,4 L0,4 Z " transform="translate(60,60)" style="fill: #B59E7B;"/><path d="M0,0 L1,0 L1,3 L0,3 Z M-1,3 L0,3 L0,4 L-1,4 Z M-2,4 L-1,4 L-1,5 L-2,5 Z " transform="translate(68,53)" style="fill: #BDA684;"/><path d="M0,0 L2,0 L2,1 L1,1 L1,2 L0,2 L0,3 L-1,3 L-1,1 L0,1 Z " transform="translate(57,49)" style="fill: #BDAA84;"/><path d="M0,0 L1,0 L1,2 L0,2 L0,3 L-2,3 L-2,2 L-1,2 L-1,1 L0,1 Z " transform="translate(85,46)" style="fill: #5A5542;"/><path d="M0,0 L1,0 L1,5 L0,5 Z " transform="translate(53,44)" style="fill: #7E6E58;"/><path d="M0,0 L1,0 L1,1 L3,1 L3,2 L2,2 L2,3 L1,3 L1,2 L0,2 Z " transform="translate(51,38)" style="fill: #BDA684;"/><path d="M0,0 L1,0 L1,1 L2,1 L2,2 L-2,2 L-2,1 L0,1 Z " transform="translate(95,36)" style="fill: #B5A27B;"/><path d="M0,0 L5,0 L5,1 L0,1 Z " transform="translate(93,31)" style="fill: #ACA07E;"/><path d="M0,0 L5,0 L5,1 L0,1 Z " transform="translate(71,2)" style="fill: #000000;"/><path d="M0,0 L1,0 L1,4 L0,4 Z " transform="translate(55,103)" style="fill: #896834;"/><path d="M0,0 L1,0 L1,2 L0,2 L0,3 L-1,3 L-1,1 L0,1 Z " transform="translate(93,91)" style="fill: #BF9147;"/><path d="M0,0 L2,0 L2,2 L0,2 Z " transform="translate(78,91)" style="fill: #B59E7B;"/><path d="M0,0 L1,0 L1,4 L0,4 Z " transform="translate(33,88)" style="fill: #C6964A;"/><path d="M0,0 L2,0 L2,2 L0,2 Z " transform="translate(45,86)" style="fill: #C6964A;"/><path d="M0,0 L1,0 L1,4 L0,4 Z " transform="translate(31,80)" style="fill: #C6964A;"/><path d="M0,0 L1,0 L1,4 L0,4 Z " transform="translate(29,80)" style="fill: #2F2412;"/><path d="M0,0 L2,0 L2,1 L3,1 L3,2 L1,2 L1,1 L0,1 Z " transform="translate(96,77)" style="fill: #6E5329;"/><path d="M0,0 L2,0 L2,1 L3,1 L3,2 L1,2 L1,1 L0,1 Z " transform="translate(93,76)" style="fill: #AA843F;"/><path d="M0,0 L1,0 L1,4 L0,4 Z " transform="translate(80,76)" style="fill: #78613C;"/><path d="M0,0 L2,0 L2,3 L1,3 L1,1 L0,1 Z " transform="translate(84,72)" style="fill: #593F1D;"/><path d="M0,0 L1,0 L1,2 L-1,2 L-1,1 L0,1 Z M1,2 L2,2 L2,3 L1,3 Z " transform="translate(83,54)" style="fill: #BDA684;"/><path d="M0,0 L2,0 L2,1 L1,1 L1,2 L0,2 Z M-1,2 L0,2 L0,3 L-1,3 Z " transform="translate(73,52)" style="fill: #BDAA84;"/><path d="M0,0 L2,0 L2,3 L1,3 L1,1 L0,1 Z " transform="translate(88,44)" style="fill: #5A401E;"/><path d="M0,0 L1,0 L1,4 L0,4 Z " transform="translate(88,45)" style="fill: #CE9A4A;"/><path d="M0,0 L2,0 L2,1 L1,1 L1,2 L0,2 Z M-1,2 L0,2 L0,3 L-1,3 Z " transform="translate(78,45)" style="fill: #BDA684;"/><path d="M0,0 L1,0 L1,4 L0,4 Z " transform="translate(63,44)" style="fill: #4A443C;"/><path d="M0,0 L1,0 L1,1 L0,1 Z M-2,1 L0,1 L0,2 L-2,2 Z M-3,2 L-2,2 L-2,3 L-3,3 Z " transform="translate(82,42)" style="fill: #BDA684;"/><path d="M0,0 L1,0 L1,4 L0,4 Z " transform="translate(57,40)" style="fill: #47433C;"/><path d="M0,0 L1,0 L1,4 L0,4 Z " transform="translate(73,34)" style="fill: #47433C;"/><path d="M0,0 L1,0 L1,1 L0,1 Z M-1,1 L0,1 L0,2 L-1,2 Z M-2,2 L-1,2 L-1,3 L-2,3 Z M-3,3 L-2,3 L-2,4 L-3,4 Z " transform="translate(47,29)" style="fill: #C6964A;"/><path d="M0,0 L2,0 L2,2 L0,2 Z " transform="translate(54,15)" style="fill: #CC9849;"/><path d="M0,0 L3,0 L3,1 L1,1 L1,2 L0,2 Z " transform="translate(58,13)" style="fill: #C6964A;"/><path d="M0,0 L2,0 L2,2 L1,2 L1,1 L0,1 Z " transform="translate(60,112)" style="fill: #C69A4A;"/><path d="M0,0 L2,0 L2,2 L1,2 L1,1 L0,1 Z " transform="translate(57,109)" style="fill: #C6964A;"/><path d="M0,0 L1,0 L1,2 L0,2 Z M-1,2 L0,2 L0,3 L-1,3 Z " transform="translate(69,103)" style="fill: #896631;"/><path d="M0,0 L2,0 L2,2 L1,2 L1,1 L0,1 Z " transform="translate(50,104)" style="fill: #AD8242;"/><path d="M0,0 L3,0 L3,1 L0,1 Z " transform="translate(52,103)" style="fill: #BD8E42;"/><path d="M0,0 L2,0 L2,2 L1,2 L1,1 L0,1 Z " transform="translate(63,100)" style="fill: #AD9263;"/><path d="M0,0 L1,0 L1,1 L0,1 Z M1,1 L2,1 L2,2 L1,2 Z M0,2 L1,2 L1,3 L0,3 Z " transform="translate(84,96)" style="fill: #8C6831;"/><path d="M0,0 L1,0 L1,1 L2,1 L2,2 L0,2 Z " transform="translate(68,94)" style="fill: #B59E7B;"/><path d="M0,0 L1,0 L1,3 L0,3 Z " transform="translate(60,93)" style="fill: #BDA684;"/><path d="M0,0 L1,0 L1,1 L2,1 L2,2 L0,2 Z " transform="translate(45,84)" style="fill: #C6964A;"/><path d="M0,0 L2,0 L2,1 L1,1 L1,2 L0,2 Z " transform="translate(89,84)" style="fill: #CE9A4A;"/><path d="M0,0 L1,0 L1,3 L0,3 Z " transform="translate(48,81)" style="fill: #47433C;"/><path d="M0,0 L1,0 L1,2 L-1,2 L-1,1 L0,1 Z " transform="translate(38,82)" style="fill: #C69A4A;"/><path d="M0,0 L1,0 L1,3 L0,3 Z " transform="translate(99,80)" style="fill: #533B1B;"/><path d="M0,0 L1,0 L1,3 L0,3 Z " transform="translate(44,80)" style="fill: #866831;"/><path d="M0,0 L1,0 L1,1 L0,1 Z M-2,1 L0,1 L0,2 L-2,2 Z " transform="translate(37,81)" style="fill: #866831;"/><path d="M0,0 L3,0 L3,1 L0,1 Z " transform="translate(33,77)" style="fill: #6C5125;"/><path d="M0,0 L1,0 L1,3 L0,3 Z " transform="translate(83,75)" style="fill: #78613C;"/><path d="M0,0 L1,0 L1,3 L0,3 Z " transform="translate(84,73)" style="fill: #CE9A4A;"/><path d="M0,0 L1,0 L1,3 L0,3 Z " transform="translate(47,72)" style="fill: #78613C;"/><path d="M0,0 L2,0 L2,1 L1,1 L1,2 L0,2 Z " transform="translate(72,64)" style="fill: #706557;"/><path d="M0,0 L2,0 L2,1 L1,1 L1,2 L0,2 Z " transform="translate(80,61)" style="fill: #6B655A;"/><path d="M0,0 L1,0 L1,1 L0,1 Z M1,1 L2,1 L2,2 L1,2 Z M2,2 L3,2 L3,3 L2,3 Z " transform="translate(52,57)" style="fill: #80715A;"/><path d="M0,0 L1,0 L1,1 L2,1 L2,2 L0,2 Z " transform="translate(52,52)" style="fill: #B5A27B;"/><path d="M0,0 L1,0 L1,1 L2,1 L2,2 L0,2 Z " transform="translate(48,48)" style="fill: #B59E7B;"/><path d="M0,0 L1,0 L1,1 L2,1 L2,2 L0,2 Z " transform="translate(40,48)" style="fill: #ACA07E;"/><path d="M0,0 L3,0 L3,1 L0,1 Z " transform="translate(37,47)" style="fill: #948263;"/><path d="M0,0 L1,0 L1,2 L-1,2 L-1,1 L0,1 Z " transform="translate(79,46)" style="fill: #BDA684;"/><path d="M0,0 L2,0 L2,1 L1,1 L1,2 L0,2 Z " transform="translate(72,45)" style="fill: #B59E7B;"/><path d="M0,0 L1,0 L1,3 L0,3 Z " transform="translate(51,44)" style="fill: #B5A27B;"/><path d="M0,0 L1,0 L1,2 L0,2 Z M1,2 L2,2 L2,3 L1,3 Z " transform="translate(74,39)" style="fill: #685D4C;"/><path d="M0,0 L2,0 L2,1 L1,1 L1,2 L0,2 Z " transform="translate(64,40)" style="fill: #685D4C;"/><path d="M0,0 L1,0 L1,1 L2,1 L2,2 L0,2 Z " transform="translate(40,37)" style="fill: #B5A27B;"/><path d="M0,0 L2,0 L2,1 L0,1 Z M-1,1 L0,1 L0,2 L-1,2 Z " transform="translate(93,36)" style="fill: #B5A27B;"/><path d="M0,0 L2,0 L2,1 L1,1 L1,2 L0,2 Z " transform="translate(77,33)" style="fill: #BDAA84;"/><path d="M0,0 L2,0 L2,1 L1,1 L1,2 L0,2 Z " transform="translate(58,22)" style="fill: #C6964A;"/><path d="M0,0 L1,0 L1,2 L-1,2 L-1,1 L0,1 Z " transform="translate(51,21)" style="fill: #C6964A;"/><path d="M0,0 L1,0 L1,3 L0,3 Z " transform="translate(65,16)" style="fill: #8E6A34;"/><path d="M0,0 L1,0 L1,3 L0,3 Z " transform="translate(63,16)" style="fill: #C6964A;"/><path d="M0,0 L2,0 L2,1 L0,1 Z " transform="translate(62,115)" style="fill: #866831;"/><path d="M0,0 L1,0 L1,1 L0,1 Z M1,1 L2,1 L2,2 L1,2 Z " transform="translate(58,112)" style="fill: #80602E;"/><path d="M0,0 L1,0 L1,2 L0,2 Z " transform="translate(71,109)" style="fill: #896631;"/><path d="M0,0 L1,0 L1,1 L0,1 Z M1,1 L2,1 L2,2 L1,2 Z " transform="translate(57,110)" style="fill: #B78A44;"/><path d="M0,0 L2,0 L2,1 L0,1 Z " transform="translate(59,105)" style="fill: #846431;"/><path d="M0,0 L2,0 L2,1 L0,1 Z " transform="translate(65,104)" style="fill: #866831;"/><path d="M0,0 L1,0 L1,2 L0,2 Z " transform="translate(55,103)" style="fill: #896834;"/><path d="M0,0 L2,0 L2,1 L0,1 Z " transform="translate(67,103)" style="fill: #C6964A;"/><path d="M0,0 L2,0 L2,1 L0,1 Z " transform="translate(73,102)" style="fill: #846431;"/><path d="M0,0 L1,0 L1,1 L0,1 Z M-1,1 L0,1 L0,2 L-1,2 Z " transform="translate(82,100)" style="fill: #8E6A34;"/><path d="M0,0 L1,0 L1,1 L0,1 Z M1,1 L2,1 L2,2 L1,2 Z " transform="translate(42,97)" style="fill: #846431;"/><path d="M0,0 L1,0 L1,1 L0,1 Z M-1,1 L0,1 L0,2 L-1,2 Z " transform="translate(85,96)" style="fill: #CE9A4A;"/><path d="M0,0 L1,0 L1,2 L0,2 Z " transform="translate(65,95)" style="fill: #7E7058;"/><path d="M0,0 L2,0 L2,1 L0,1 Z " transform="translate(53,95)" style="fill: #80715A;"/><path d="M0,0 L2,0 L2,1 L0,1 Z " transform="translate(58,92)" style="fill: #B59E7B;"/><path d="M0,0 L2,0 L2,1 L0,1 Z " transform="translate(78,91)" style="fill: #B5A27B;"/><path d="M0,0 L2,0 L2,1 L0,1 Z " transform="translate(39,91)" style="fill: #C6964A;"/><path d="M0,0 L1,0 L1,2 L0,2 Z " transform="translate(40,89)" style="fill: #C6964A;"/><path d="M0,0 L1,0 L1,2 L0,2 Z " transform="translate(96,87)" style="fill: #BE8E44;"/><path d="M0,0 L2,0 L2,1 L0,1 Z " transform="translate(81,88)" style="fill: #AD8242;"/><path d="M0,0 L2,0 L2,1 L0,1 Z " transform="translate(65,87)" style="fill: #5A5542;"/><path d="M0,0 L1,0 L1,1 L0,1 Z M-1,1 L0,1 L0,2 L-1,2 Z " transform="translate(79,86)" style="fill: #47433C;"/><path d="M0,0 L1,0 L1,1 L0,1 Z M-1,1 L0,1 L0,2 L-1,2 Z " transform="translate(83,84)" style="fill: #CE9A4A;"/><path d="M0,0 L1,0 L1,2 L0,2 Z " transform="translate(82,83)" style="fill: #8E6A34;"/><path d="M0,0 L2,0 L2,1 L0,1 Z " transform="translate(72,84)" style="fill: #6B655A;"/><path d="M0,0 L1,0 L1,1 L0,1 Z M-1,1 L0,1 L0,2 L-1,2 Z " transform="translate(58,82)" style="fill: #47433C;"/><path d="M0,0 L1,0 L1,2 L0,2 Z " transform="translate(30,81)" style="fill: #B08541;"/><path d="M0,0 L2,0 L2,1 L0,1 Z " transform="translate(92,81)" style="fill: #866831;"/><path d="M0,0 L1,0 L1,2 L0,2 Z " transform="translate(33,80)" style="fill: #8C6831;"/><path d="M0,0 L1,0 L1,2 L0,2 Z " transform="translate(31,80)" style="fill: #C6964A;"/><path d="M0,0 L1,0 L1,2 L0,2 Z " transform="translate(29,80)" style="fill: #271E0F;"/><path d="M0,0 L1,0 L1,2 L0,2 Z " transform="translate(84,79)" style="fill: #7B5D29;"/><path d="M0,0 L1,0 L1,2 L0,2 Z " transform="translate(30,79)" style="fill: #775A2C;"/><path d="M0,0 L1,0 L1,2 L0,2 Z " transform="translate(95,78)" style="fill: #C69A4A;"/><path d="M0,0 L1,0 L1,2 L0,2 Z " transform="translate(83,78)" style="fill: #B5925A;"/><path d="M0,0 L2,0 L2,1 L0,1 Z " transform="translate(44,79)" style="fill: #C6964A;"/><path d="M0,0 L1,0 L1,2 L0,2 Z " transform="translate(45,77)" style="fill: #846431;"/><path d="M0,0 L2,0 L2,1 L0,1 Z " transform="translate(31,78)" style="fill: #A27838;"/><path d="M0,0 L2,0 L2,1 L0,1 Z " transform="translate(96,77)" style="fill: #3E2F17;"/><path d="M0,0 L2,0 L2,1 L0,1 Z " transform="translate(93,76)" style="fill: #7C602E;"/><path d="M0,0 L1,0 L1,2 L0,2 Z " transform="translate(81,73)" style="fill: #4A443C;"/><path d="M0,0 L1,0 L1,2 L0,2 Z " transform="translate(43,73)" style="fill: #7B5D29;"/><path d="M0,0 L1,0 L1,2 L0,2 Z " transform="translate(46,68)" style="fill: #4A443C;"/><path d="M0,0 L1,0 L1,2 L0,2 Z " transform="translate(82,67)" style="fill: #47433C;"/><path d="M0,0 L1,0 L1,2 L0,2 Z " transform="translate(71,66)" style="fill: #685D4C;"/><path d="M0,0 L1,0 L1,2 L0,2 Z " transform="translate(64,63)" style="fill: #9C8B6E;"/><path d="M0,0 L2,0 L2,1 L0,1 Z " transform="translate(74,63)" style="fill: #685D4C;"/><path d="M0,0 L1,0 L1,2 L0,2 Z " transform="translate(52,62)" style="fill: #706552;"/><path d="M0,0 L1,0 L1,2 L0,2 Z " transform="translate(45,62)" style="fill: #4A443C;"/><path d="M0,0 L1,0 L1,2 L0,2 Z " transform="translate(83,61)" style="fill: #4A443C;"/><path d="M0,0 L1,0 L1,1 L0,1 Z M1,1 L2,1 L2,2 L1,2 Z " transform="translate(56,62)" style="fill: #7E7058;"/><path d="M0,0 L1,0 L1,2 L0,2 Z " transform="translate(68,57)" style="fill: #80715A;"/><path d="M0,0 L1,0 L1,2 L0,2 Z " transform="translate(56,57)" style="fill: #B5A27B;"/><path d="M0,0 L1,0 L1,1 L0,1 Z M1,1 L2,1 L2,2 L1,2 Z " transform="translate(48,57)" style="fill: #47433C;"/><path d="M0,0 L1,0 L1,2 L0,2 Z " transform="translate(44,56)" style="fill: #4A443C;"/><path d="M0,0 L1,0 L1,2 L0,2 Z " transform="translate(83,56)" style="fill: #B59E7B;"/><path d="M0,0 L2,0 L2,1 L0,1 Z " transform="translate(74,56)" style="fill: #7B7058;"/><path d="M0,0 L1,0 L1,2 L0,2 Z " transform="translate(66,55)" style="fill: #7E7058;"/><path d="M0,0 L2,0 L2,1 L0,1 Z " transform="translate(79,55)" style="fill: #80715A;"/><path d="M0,0 L1,0 L1,2 L0,2 Z " transform="translate(88,53)" style="fill: #A5967B;"/><path d="M0,0 L1,0 L1,1 L0,1 Z M-1,1 L0,1 L0,2 L-1,2 Z " transform="translate(61,54)" style="fill: #7E7058;"/><path d="M0,0 L1,0 L1,2 L0,2 Z " transform="translate(69,52)" style="fill: #7E7058;"/><path d="M0,0 L1,0 L1,2 L0,2 Z " transform="translate(67,51)" style="fill: #B59E7B;"/><path d="M0,0 L1,0 L1,2 L0,2 Z " transform="translate(62,51)" style="fill: #7E7058;"/><path d="M0,0 L2,0 L2,1 L0,1 Z " transform="translate(42,52)" style="fill: #B59E7B;"/><path d="M0,0 L2,0 L2,1 L0,1 Z " transform="translate(46,51)" style="fill: #80715A;"/><path d="M0,0 L1,0 L1,1 L0,1 Z M-1,1 L0,1 L0,2 L-1,2 Z " transform="translate(57,49)" style="fill: #83765A;"/><path d="M0,0 L1,0 L1,2 L0,2 Z " transform="translate(51,47)" style="fill: #B59E7B;"/><path d="M0,0 L1,0 L1,1 L0,1 Z M-1,1 L0,1 L0,2 L-1,2 Z " transform="translate(36,48)" style="fill: #BDA683;"/><path d="M0,0 L1,0 L1,2 L0,2 Z " transform="translate(85,46)" style="fill: #47433C;"/><path d="M0,0 L1,0 L1,2 L0,2 Z " transform="translate(67,46)" style="fill: #B59E7B;"/><path d="M0,0 L2,0 L2,1 L0,1 Z " transform="translate(66,45)" style="fill: #B59E7B;"/><path d="M0,0 L2,0 L2,1 L0,1 Z " transform="translate(88,44)" style="fill: #5A401E;"/><path d="M0,0 L1,0 L1,1 L0,1 Z M-1,1 L0,1 L0,2 L-1,2 Z " transform="translate(82,44)" style="fill: #786952;"/><path d="M0,0 L2,0 L2,1 L0,1 Z " transform="translate(49,44)" style="fill: #B5A27B;"/><path d="M0,0 L1,0 L1,2 L0,2 Z " transform="translate(44,42)" style="fill: #B59E7B;"/><path d="M0,0 L1,0 L1,2 L0,2 Z " transform="translate(54,41)" style="fill: #7E6E58;"/><path d="M0,0 L2,0 L2,1 L0,1 Z " transform="translate(86,39)" style="fill: #B59E7B;"/><path d="M0,0 L1,0 L1,2 L0,2 Z " transform="translate(51,38)" style="fill: #B5A27B;"/><path d="M0,0 L2,0 L2,1 L0,1 Z " transform="translate(49,39)" style="fill: #B5A27B;"/><path d="M0,0 L2,0 L2,1 L0,1 Z " transform="translate(93,37)" style="fill: #786C52;"/><path d="M0,0 L2,0 L2,1 L0,1 Z " transform="translate(91,36)" style="fill: #B5A27B;"/><path d="M0,0 L1,0 L1,2 L0,2 Z " transform="translate(76,35)" style="fill: #7E7058;"/><path d="M0,0 L2,0 L2,1 L0,1 Z " transform="translate(55,36)" style="fill: #706552;"/><path d="M0,0 L2,0 L2,1 L0,1 Z " transform="translate(50,35)" style="fill: #47433C;"/><path d="M0,0 L2,0 L2,1 L0,1 Z " transform="translate(43,35)" style="fill: #C6964A;"/><path d="M0,0 L1,0 L1,2 L0,2 Z " transform="translate(43,33)" style="fill: #BD8E42;"/><path d="M0,0 L1,0 L1,1 L0,1 Z M-1,1 L0,1 L0,2 L-1,2 Z " transform="translate(49,33)" style="fill: #47433C;"/><path d="M0,0 L2,0 L2,1 L0,1 Z " transform="translate(79,32)" style="fill: #7E7058;"/><path d="M0,0 L2,0 L2,1 L0,1 Z " transform="translate(93,31)" style="fill: #ACA07E;"/><path d="M0,0 L1,0 L1,2 L0,2 Z " transform="translate(31,29)" style="fill: #ACA07E;"/><path d="M0,0 L2,0 L2,1 L0,1 Z " transform="translate(80,29)" style="fill: #73562C;"/><path d="M0,0 L1,0 L1,1 L0,1 Z M1,1 L2,1 L2,2 L1,2 Z " transform="translate(36,28)" style="fill: #5A523F;"/><path d="M0,0 L1,0 L1,1 L0,1 Z M-1,1 L0,1 L0,2 L-1,2 Z " transform="translate(51,26)" style="fill: #CE9A4A;"/><path d="M0,0 L2,0 L2,1 L0,1 Z " transform="translate(56,23)" style="fill: #C6964A;"/><path d="M0,0 L1,0 L1,2 L0,2 Z " transform="translate(76,20)" style="fill: #896834;"/><path d="M0,0 L1,0 L1,2 L0,2 Z " transform="translate(49,20)" style="fill: #7E6030;"/><path d="M0,0 L2,0 L2,1 L0,1 Z " transform="translate(77,19)" style="fill: #5A4121;"/><path d="M0,0 L2,0 L2,1 L0,1 Z " transform="translate(50,19)" style="fill: #533B1E;"/><path d="M0,0 L1,0 L1,2 L0,2 Z " transform="translate(53,16)" style="fill: #856331;"/><path d="M0,0 L1,0 L1,2 L0,2 Z " transform="translate(72,15)" style="fill: #946D34;"/><path d="M0,0 L1,0 L1,2 L0,2 Z " transform="translate(70,14)" style="fill: #5A401E;"/><path d="M0,0 L1,0 L1,2 L0,2 Z " transform="translate(67,14)" style="fill: #5A401E;"/><path d="M0,0 L1,0 L1,2 L0,2 Z " transform="translate(60,14)" style="fill: #CE9A4A;"/><path d="M0,0 L2,0 L2,1 L0,1 Z " transform="translate(54,15)" style="fill: #A07C3C;"/><path d="M0,0 L1,0 L1,2 L0,2 Z " transform="translate(65,10)" style="fill: #946D34;"/><path d="M0,0 L2,0 L2,1 L0,1 Z " transform="translate(63,10)" style="fill: #BE8E44;"/><path d="M0,0 L1,0 L1,1 L0,1 Z " transform="translate(66,115)" style="fill: #5A401E;"/><path d="M0,0 L1,0 L1,1 L0,1 Z " transform="translate(62,115)" style="fill: #81642F;"/><path d="M0,0 L1,0 L1,1 L0,1 Z " transform="translate(68,114)" style="fill: #896834;"/><path d="M0,0 L1,0 L1,1 L0,1 Z " transform="translate(60,114)" style="fill: #6E5629;"/><path d="M0,0 L1,0 L1,1 L0,1 Z " transform="translate(61,113)" style="fill: #C49849;"/><path d="M0,0 L1,0 L1,1 L0,1 Z " transform="translate(59,112)" style="fill: #C19045;"/><path d="M0,0 L1,0 L1,1 L0,1 Z " transform="translate(57,111)" style="fill: #49371B;"/><path d="M0,0 L1,0 L1,1 L0,1 Z " transform="translate(58,110)" style="fill: #C49449;"/><path d="M0,0 L1,0 L1,1 L0,1 Z " transform="translate(59,105)" style="fill: #3F351A;"/><path d="M0,0 L1,0 L1,1 L0,1 Z " transform="translate(51,105)" style="fill: #73562C;"/><path d="M0,0 L1,0 L1,1 L0,1 Z " transform="translate(77,104)" style="fill: #624820;"/><path d="M0,0 L1,0 L1,1 L0,1 Z " transform="translate(76,104)" style="fill: #946D31;"/><path d="M0,0 L1,0 L1,1 L0,1 Z " transform="translate(68,104)" style="fill: #CE9A4A;"/><path d="M0,0 L1,0 L1,1 L0,1 Z " transform="translate(62,104)" style="fill: #846431;"/><path d="M0,0 L1,0 L1,1 L0,1 Z " transform="translate(78,103)" style="fill: #8E6A34;"/><path d="M0,0 L1,0 L1,1 L0,1 Z " transform="translate(75,103)" style="fill: #C6964A;"/><path d="M0,0 L1,0 L1,1 L0,1 Z " transform="translate(73,103)" style="fill: #C6964A;"/><path d="M0,0 L1,0 L1,1 L0,1 Z " transform="translate(69,103)" style="fill: #846431;"/><path d="M0,0 L1,0 L1,1 L0,1 Z " transform="translate(67,103)" style="fill: #AD9263;"/><path d="M0,0 L1,0 L1,1 L0,1 Z " transform="translate(61,103)" style="fill: #78613C;"/><path d="M0,0 L1,0 L1,1 L0,1 Z " transform="translate(60,103)" style="fill: #B5925A;"/><path d="M0,0 L1,0 L1,1 L0,1 Z " transform="translate(59,103)" style="fill: #BD8E42;"/><path d="M0,0 L1,0 L1,1 L0,1 Z " transform="translate(55,103)" style="fill: #7E5E2C;"/><path d="M0,0 L1,0 L1,1 L0,1 Z " transform="translate(48,103)" style="fill: #8A6730;"/><path d="M0,0 L1,0 L1,1 L0,1 Z " transform="translate(76,102)" style="fill: #CE9A4A;"/><path d="M0,0 L1,0 L1,1 L0,1 Z " transform="translate(51,102)" style="fill: #8C6831;"/><path d="M0,0 L1,0 L1,1 L0,1 Z " transform="translate(47,102)" style="fill: #876733;"/><path d="M0,0 L1,0 L1,1 L0,1 Z " transform="translate(77,101)" style="fill: #8E6A34;"/><path d="M0,0 L1,0 L1,1 L0,1 Z " transform="translate(64,101)" style="fill: #AD9263;"/><path d="M0,0 L1,0 L1,1 L0,1 Z " transform="translate(49,101)" style="fill: #8C6831;"/><path d="M0,0 L1,0 L1,1 L0,1 Z " transform="translate(79,100)" style="fill: #8E6A34;"/><path d="M0,0 L1,0 L1,1 L0,1 Z " transform="translate(63,100)" style="fill: #B5925A;"/><path d="M0,0 L1,0 L1,1 L0,1 Z " transform="translate(83,99)" style="fill: #846431;"/><path d="M0,0 L1,0 L1,1 L0,1 Z " transform="translate(70,98)" style="fill: #7B6E54;"/><path d="M0,0 L1,0 L1,1 L0,1 Z " transform="translate(70,96)" style="fill: #7B6E54;"/><path d="M0,0 L1,0 L1,1 L0,1 Z " transform="translate(60,96)" style="fill: #7E7058;"/><path d="M0,0 L1,0 L1,1 L0,1 Z " transform="translate(90,95)" style="fill: #73562C;"/><path d="M0,0 L1,0 L1,1 L0,1 Z " transform="translate(86,95)" style="fill: #C69A4A;"/><path d="M0,0 L1,0 L1,1 L0,1 Z " transform="translate(65,95)" style="fill: #7B6E54;"/><path d="M0,0 L1,0 L1,1 L0,1 Z " transform="translate(43,95)" style="fill: #866631;"/><path d="M0,0 L1,0 L1,1 L0,1 Z " transform="translate(37,95)" style="fill: #866831;"/><path d="M0,0 L1,0 L1,1 L0,1 Z " transform="translate(91,94)" style="fill: #AD8242;"/><path d="M0,0 L1,0 L1,1 L0,1 Z " transform="translate(87,94)" style="fill: #866831;"/><path d="M0,0 L1,0 L1,1 L0,1 Z " transform="translate(85,94)" style="fill: #866831;"/><path d="M0,0 L1,0 L1,1 L0,1 Z " transform="translate(40,94)" style="fill: #866631;"/><path d="M0,0 L1,0 L1,1 L0,1 Z " transform="translate(36,94)" style="fill: #C49949;"/><path d="M0,0 L1,0 L1,1 L0,1 Z " transform="translate(35,94)" style="fill: #312511;"/><path d="M0,0 L1,0 L1,1 L0,1 Z " transform="translate(92,93)" style="fill: #C6964A;"/><path d="M0,0 L1,0 L1,1 L0,1 Z " transform="translate(53,93)" style="fill: #80715A;"/><path d="M0,0 L1,0 L1,1 L0,1 Z " transform="translate(42,93)" style="fill: #866631;"/><path d="M0,0 L1,0 L1,1 L0,1 Z " transform="translate(35,93)" style="fill: #C89948;"/><path d="M0,0 L1,0 L1,1 L0,1 Z " transform="translate(34,93)" style="fill: #251C0D;"/><path d="M0,0 L1,0 L1,1 L0,1 Z " transform="translate(92,92)" style="fill: #896834;"/><path d="M0,0 L1,0 L1,1 L0,1 Z " transform="translate(88,92)" style="fill: #AD8242;"/><path d="M0,0 L1,0 L1,1 L0,1 Z " transform="translate(86,92)" style="fill: #866831;"/><path d="M0,0 L1,0 L1,1 L0,1 Z " transform="translate(77,92)" style="fill: #786952;"/><path d="M0,0 L1,0 L1,1 L0,1 Z " transform="translate(74,92)" style="fill: #786C52;"/><path d="M0,0 L1,0 L1,1 L0,1 Z " transform="translate(67,92)" style="fill: #7B6E54;"/><path d="M0,0 L1,0 L1,1 L0,1 Z " transform="translate(58,92)" style="fill: #786952;"/><path d="M0,0 L1,0 L1,1 L0,1 Z " transform="translate(56,92)" style="fill: #B59E7B;"/><path d="M0,0 L1,0 L1,1 L0,1 Z " transform="translate(54,92)" style="fill: #BDA684;"/><path d="M0,0 L1,0 L1,1 L0,1 Z " transform="translate(50,92)" style="fill: #786952;"/><path d="M0,0 L1,0 L1,1 L0,1 Z " transform="translate(39,92)" style="fill: #866831;"/><path d="M0,0 L1,0 L1,1 L0,1 Z " transform="translate(35,92)" style="fill: #916E34;"/><path d="M0,0 L1,0 L1,1 L0,1 Z " transform="translate(34,92)" style="fill: #BF9244;"/><path d="M0,0 L1,0 L1,1 L0,1 Z " transform="translate(94,91)" style="fill: #B78A44;"/><path d="M0,0 L1,0 L1,1 L0,1 Z " transform="translate(93,91)" style="fill: #C6964A;"/><path d="M0,0 L1,0 L1,1 L0,1 Z " transform="translate(87,91)" style="fill: #C6964A;"/><path d="M0,0 L1,0 L1,1 L0,1 Z " transform="translate(80,91)" style="fill: #73562C;"/><path d="M0,0 L1,0 L1,1 L0,1 Z " transform="translate(75,91)" style="fill: #786952;"/><path d="M0,0 L1,0 L1,1 L0,1 Z " transform="translate(58,91)" style="fill: #9C8B6E;"/><path d="M0,0 L1,0 L1,1 L0,1 Z " transform="translate(51,91)" style="fill: #B59E7B;"/><path d="M0,0 L1,0 L1,1 L0,1 Z " transform="translate(41,91)" style="fill: #846431;"/><path d="M0,0 L1,0 L1,1 L0,1 Z " transform="translate(39,91)" style="fill: #C69A4A;"/><path d="M0,0 L1,0 L1,1 L0,1 Z " transform="translate(33,91)" style="fill: #B78B44;"/><path d="M0,0 L1,0 L1,1 L0,1 Z " transform="translate(95,90)" style="fill: #75592C;"/><path d="M0,0 L1,0 L1,1 L0,1 Z " transform="translate(94,90)" style="fill: #C49449;"/><path d="M0,0 L1,0 L1,1 L0,1 Z " transform="translate(87,90)" style="fill: #846431;"/><path d="M0,0 L1,0 L1,1 L0,1 Z " transform="translate(77,90)" style="fill: #786C52;"/><path d="M0,0 L1,0 L1,1 L0,1 Z " transform="translate(52,90)" style="fill: #ACA07E;"/><path d="M0,0 L1,0 L1,1 L0,1 Z " transform="translate(38,90)" style="fill: #866831;"/><path d="M0,0 L1,0 L1,1 L0,1 Z " transform="translate(34,90)" style="fill: #846431;"/><path d="M0,0 L1,0 L1,1 L0,1 Z " transform="translate(32,90)" style="fill: #76592B;"/><path d="M0,0 L1,0 L1,1 L0,1 Z " transform="translate(96,89)" style="fill: #3A2912;"/><path d="M0,0 L1,0 L1,1 L0,1 Z " transform="translate(95,89)" style="fill: #BF9147;"/><path d="M0,0 L1,0 L1,1 L0,1 Z " transform="translate(75,89)" style="fill: #786952;"/><path d="M0,0 L1,0 L1,1 L0,1 Z " transform="translate(53,89)" style="fill: #5A523F;"/><path d="M0,0 L1,0 L1,1 L0,1 Z " transform="translate(40,89)" style="fill: #846431;"/><path d="M0,0 L1,0 L1,1 L0,1 Z " transform="translate(32,89)" style="fill: #B78A44;"/><path d="M0,0 L1,0 L1,1 L0,1 Z " transform="translate(90,88)" style="fill: #866831;"/><path d="M0,0 L1,0 L1,1 L0,1 Z " transform="translate(73,88)" style="fill: #786952;"/><path d="M0,0 L1,0 L1,1 L0,1 Z " transform="translate(56,88)" style="fill: #BDA684;"/><path d="M0,0 L1,0 L1,1 L0,1 Z " transform="translate(55,88)" style="fill: #5A523F;"/><path d="M0,0 L1,0 L1,1 L0,1 Z " transform="translate(47,88)" style="fill: #866831;"/><path d="M0,0 L1,0 L1,1 L0,1 Z " transform="translate(32,88)" style="fill: #BF9147;"/><path d="M0,0 L1,0 L1,1 L0,1 Z " transform="translate(31,88)" style="fill: #5C441E;"/><path d="M0,0 L1,0 L1,1 L0,1 Z " transform="translate(97,87)" style="fill: #75592C;"/><path d="M0,0 L1,0 L1,1 L0,1 Z " transform="translate(96,87)" style="fill: #C49449;"/><path d="M0,0 L1,0 L1,1 L0,1 Z " transform="translate(88,87)" style="fill: #5A401E;"/><path d="M0,0 L1,0 L1,1 L0,1 Z " transform="translate(82,87)" style="fill: #CE9A4A;"/><path d="M0,0 L1,0 L1,1 L0,1 Z " transform="translate(71,87)" style="fill: #5A523F;"/><path d="M0,0 L1,0 L1,1 L0,1 Z " transform="translate(65,87)" style="fill: #7B7058;"/><path d="M0,0 L1,0 L1,1 L0,1 Z " transform="translate(62,87)" style="fill: #7E6E58;"/><path d="M0,0 L1,0 L1,1 L0,1 Z " transform="translate(57,87)" style="fill: #7E7058;"/><path d="M0,0 L1,0 L1,1 L0,1 Z " transform="translate(45,87)" style="fill: #846431;"/><path d="M0,0 L1,0 L1,1 L0,1 Z " transform="translate(37,87)" style="fill: #8C6831;"/><path d="M0,0 L1,0 L1,1 L0,1 Z " transform="translate(33,87)" style="fill: #866831;"/><path d="M0,0 L1,0 L1,1 L0,1 Z " transform="translate(31,87)" style="fill: #B1843F;"/><path d="M0,0 L1,0 L1,1 L0,1 Z " transform="translate(97,86)" style="fill: #BF9147;"/><path d="M0,0 L1,0 L1,1 L0,1 Z " transform="translate(91,86)" style="fill: #5A401E;"/><path d="M0,0 L1,0 L1,1 L0,1 Z " transform="translate(83,86)" style="fill: #8E6A34;"/><path d="M0,0 L1,0 L1,1 L0,1 Z " transform="translate(76,86)" style="fill: #47433C;"/><path d="M0,0 L1,0 L1,1 L0,1 Z " transform="translate(52,86)" style="fill: #47433C;"/><path d="M0,0 L1,0 L1,1 L0,1 Z " transform="translate(39,86)" style="fill: #8C6831;"/><path d="M0,0 L1,0 L1,1 L0,1 Z " transform="translate(31,86)" style="fill: #BD8D44;"/><path d="M0,0 L1,0 L1,1 L0,1 Z " transform="translate(30,86)" style="fill: #47351A;"/><path d="M0,0 L1,0 L1,1 L0,1 Z " transform="translate(98,85)" style="fill: #7E6030;"/><path d="M0,0 L1,0 L1,1 L0,1 Z " transform="translate(94,85)" style="fill: #846431;"/><path d="M0,0 L1,0 L1,1 L0,1 Z " transform="translate(54,85)" style="fill: #47433C;"/><path d="M0,0 L1,0 L1,1 L0,1 Z " transform="translate(46,85)" style="fill: #846431;"/><path d="M0,0 L1,0 L1,1 L0,1 Z " transform="translate(31,85)" style="fill: #C79547;"/><path d="M0,0 L1,0 L1,1 L0,1 Z " transform="translate(30,85)" style="fill: #80602E;"/><path d="M0,0 L1,0 L1,1 L0,1 Z " transform="translate(98,84)" style="fill: #C49449;"/><path d="M0,0 L1,0 L1,1 L0,1 Z " transform="translate(89,84)" style="fill: #946D34;"/><path d="M0,0 L1,0 L1,1 L0,1 Z " transform="translate(72,84)" style="fill: #47433C;"/><path d="M0,0 L1,0 L1,1 L0,1 Z " transform="translate(67,84)" style="fill: #9C8B6E;"/><path d="M0,0 L1,0 L1,1 L0,1 Z " transform="translate(82,83)" style="fill: #846431;"/><path d="M0,0 L1,0 L1,1 L0,1 Z " transform="translate(30,83)" style="fill: #B08541;"/><path d="M0,0 L1,0 L1,1 L0,1 Z " transform="translate(99,82)" style="fill: #533B1B;"/><path d="M0,0 L1,0 L1,1 L0,1 Z " transform="translate(35,82)" style="fill: #8C6831;"/><path d="M0,0 L1,0 L1,1 L0,1 Z " transform="translate(29,82)" style="fill: #2F2311;"/><path d="M0,0 L1,0 L1,1 L0,1 Z " transform="translate(30,81)" style="fill: #AA803F;"/><path d="M0,0 L1,0 L1,1 L0,1 Z " transform="translate(99,80)" style="fill: #573E1D;"/><path d="M0,0 L1,0 L1,1 L0,1 Z " transform="translate(31,80)" style="fill: #BF9147;"/><path d="M0,0 L1,0 L1,1 L0,1 Z " transform="translate(29,80)" style="fill: #181209;"/><path d="M0,0 L1,0 L1,1 L0,1 Z " transform="translate(98,79)" style="fill: #B78A44;"/><path d="M0,0 L1,0 L1,1 L0,1 Z " transform="translate(97,79)" style="fill: #BF9147;"/><path d="M0,0 L1,0 L1,1 L0,1 Z " transform="translate(84,79)" style="fill: #896834;"/><path d="M0,0 L1,0 L1,1 L0,1 Z " transform="translate(33,79)" style="fill: #BD8E42;"/><path d="M0,0 L1,0 L1,1 L0,1 Z " transform="translate(31,79)" style="fill: #B0843E;"/><path d="M0,0 L1,0 L1,1 L0,1 Z " transform="translate(30,79)" style="fill: #4A381A;"/><path d="M0,0 L1,0 L1,1 L0,1 Z " transform="translate(97,78)" style="fill: #856431;"/><path d="M0,0 L1,0 L1,1 L0,1 Z " transform="translate(96,78)" style="fill: #B78A44;"/><path d="M0,0 L1,0 L1,1 L0,1 Z " transform="translate(95,78)" style="fill: #C49849;"/><path d="M0,0 L1,0 L1,1 L0,1 Z " transform="translate(31,78)" style="fill: #614922;"/><path d="M0,0 L1,0 L1,1 L0,1 Z " transform="translate(30,78)" style="fill: #0F0B04;"/><path d="M0,0 L1,0 L1,1 L0,1 Z " transform="translate(96,77)" style="fill: #664D26;"/><path d="M0,0 L1,0 L1,1 L0,1 Z " transform="translate(94,77)" style="fill: #BF9547;"/><path d="M0,0 L1,0 L1,1 L0,1 Z " transform="translate(83,77)" style="fill: #78613C;"/><path d="M0,0 L1,0 L1,1 L0,1 Z " transform="translate(35,77)" style="fill: #403016;"/><path d="M0,0 L1,0 L1,1 L0,1 Z " transform="translate(33,77)" style="fill: #684E24;"/><path d="M0,0 L1,0 L1,1 L0,1 Z " transform="translate(32,77)" style="fill: #2C210E;"/><path d="M0,0 L1,0 L1,1 L0,1 Z " transform="translate(95,76)" style="fill: #322712;"/><path d="M0,0 L1,0 L1,1 L0,1 Z " transform="translate(93,76)" style="fill: #725829;"/><path d="M0,0 L1,0 L1,1 L0,1 Z " transform="translate(83,75)" style="fill: #4A443C;"/><path d="M0,0 L1,0 L1,1 L0,1 Z " transform="translate(85,74)" style="fill: #5A401E;"/><path d="M0,0 L1,0 L1,1 L0,1 Z " transform="translate(85,72)" style="fill: #533A1B;"/><path d="M0,0 L1,0 L1,1 L0,1 Z " transform="translate(58,70)" style="fill: #47433C;"/><path d="M0,0 L1,0 L1,1 L0,1 Z " transform="translate(61,69)" style="fill: #80715A;"/><path d="M0,0 L1,0 L1,1 L0,1 Z " transform="translate(70,68)" style="fill: #47433C;"/><path d="M0,0 L1,0 L1,1 L0,1 Z " transform="translate(67,67)" style="fill: #7B7058;"/><path d="M0,0 L1,0 L1,1 L0,1 Z " transform="translate(59,66)" style="fill: #7E7058;"/><path d="M0,0 L1,0 L1,1 L0,1 Z " transform="translate(72,64)" style="fill: #6B6552;"/><path d="M0,0 L1,0 L1,1 L0,1 Z " transform="translate(68,64)" style="fill: #9C8A73;"/><path d="M0,0 L1,0 L1,1 L0,1 Z " transform="translate(64,63)" style="fill: #7E6E58;"/><path d="M0,0 L1,0 L1,1 L0,1 Z " transform="translate(61,63)" style="fill: #786952;"/><path d="M0,0 L1,0 L1,1 L0,1 Z " transform="translate(80,61)" style="fill: #4A443C;"/><path d="M0,0 L1,0 L1,1 L0,1 Z " transform="translate(73,60)" style="fill: #685D4C;"/><path d="M0,0 L1,0 L1,1 L0,1 Z " transform="translate(72,60)" style="fill: #9C8A73;"/><path d="M0,0 L1,0 L1,1 L0,1 Z " transform="translate(65,60)" style="fill: #7E6E58;"/><path d="M0,0 L1,0 L1,1 L0,1 Z " transform="translate(55,60)" style="fill: #A5967B;"/><path d="M0,0 L1,0 L1,1 L0,1 Z " transform="translate(76,59)" style="fill: #786C52;"/><path d="M0,0 L1,0 L1,1 L0,1 Z " transform="translate(75,59)" style="fill: #9C8B6E;"/><path d="M0,0 L1,0 L1,1 L0,1 Z " transform="translate(79,58)" style="fill: #786C52;"/><path d="M0,0 L1,0 L1,1 L0,1 Z " transform="translate(87,57)" style="fill: #7E7058;"/><path d="M0,0 L1,0 L1,1 L0,1 Z " transform="translate(82,57)" style="fill: #786952;"/><path d="M0,0 L1,0 L1,1 L0,1 Z " transform="translate(56,57)" style="fill: #7B6E54;"/><path d="M0,0 L1,0 L1,1 L0,1 Z " transform="translate(88,56)" style="fill: #6B5939;"/><path d="M0,0 L1,0 L1,1 L0,1 Z " transform="translate(74,56)" style="fill: #5A5542;"/><path d="M0,0 L1,0 L1,1 L0,1 Z " transform="translate(73,56)" style="fill: #9C8B6E;"/><path d="M0,0 L1,0 L1,1 L0,1 Z " transform="translate(70,56)" style="fill: #80715A;"/><path d="M0,0 L1,0 L1,1 L0,1 Z " transform="translate(55,56)" style="fill: #80715A;"/><path d="M0,0 L1,0 L1,1 L0,1 Z " transform="translate(51,56)" style="fill: #47433C;"/><path d="M0,0 L1,0 L1,1 L0,1 Z " transform="translate(88,55)" style="fill: #A5967B;"/><path d="M0,0 L1,0 L1,1 L0,1 Z " transform="translate(79,55)" style="fill: #5A5542;"/><path d="M0,0 L1,0 L1,1 L0,1 Z " transform="translate(66,55)" style="fill: #786952;"/><path d="M0,0 L1,0 L1,1 L0,1 Z " transform="translate(56,54)" style="fill: #7E6E58;"/><path d="M0,0 L1,0 L1,1 L0,1 Z " transform="translate(49,54)" style="fill: #7E6E58;"/><path d="M0,0 L1,0 L1,1 L0,1 Z " transform="translate(88,53)" style="fill: #706552;"/><path d="M0,0 L1,0 L1,1 L0,1 Z " transform="translate(82,53)" style="fill: #80715A;"/><path d="M0,0 L1,0 L1,1 L0,1 Z " transform="translate(75,53)" style="fill: #83765A;"/><path d="M0,0 L1,0 L1,1 L0,1 Z " transform="translate(53,53)" style="fill: #7B6E54;"/><path d="M0,0 L1,0 L1,1 L0,1 Z " transform="translate(45,53)" style="fill: #7E7058;"/><path d="M0,0 L1,0 L1,1 L0,1 Z " transform="translate(36,53)" style="fill: #80715A;"/><path d="M0,0 L1,0 L1,1 L0,1 Z " transform="translate(87,52)" style="fill: #86795D;"/><path d="M0,0 L1,0 L1,1 L0,1 Z " transform="translate(84,52)" style="fill: #BAA681;"/><path d="M0,0 L1,0 L1,1 L0,1 Z " transform="translate(76,52)" style="fill: #5A5542;"/><path d="M0,0 L1,0 L1,1 L0,1 Z " transform="translate(73,52)" style="fill: #83765A;"/><path d="M0,0 L1,0 L1,1 L0,1 Z " transform="translate(41,52)" style="fill: #786952;"/><path d="M0,0 L1,0 L1,1 L0,1 Z " transform="translate(40,52)" style="fill: #B59E7B;"/><path d="M0,0 L1,0 L1,1 L0,1 Z " transform="translate(35,52)" style="fill: #8C7952;"/><path d="M0,0 L1,0 L1,1 L0,1 Z " transform="translate(85,51)" style="fill: #5A5542;"/><path d="M0,0 L1,0 L1,1 L0,1 Z " transform="translate(67,51)" style="fill: #5A5542;"/><path d="M0,0 L1,0 L1,1 L0,1 Z " transform="translate(62,51)" style="fill: #786952;"/><path d="M0,0 L1,0 L1,1 L0,1 Z " transform="translate(51,51)" style="fill: #B59E7B;"/><path d="M0,0 L1,0 L1,1 L0,1 Z " transform="translate(47,50)" style="fill: #BDA684;"/><path d="M0,0 L1,0 L1,1 L0,1 Z " transform="translate(43,50)" style="fill: #5A523F;"/><path d="M0,0 L1,0 L1,1 L0,1 Z " transform="translate(89,49)" style="fill: #73562C;"/><path d="M0,0 L1,0 L1,1 L0,1 Z " transform="translate(78,49)" style="fill: #786C52;"/><path d="M0,0 L1,0 L1,1 L0,1 Z " transform="translate(75,49)" style="fill: #7B6E54;"/><path d="M0,0 L1,0 L1,1 L0,1 Z " transform="translate(49,49)" style="fill: #786952;"/><path d="M0,0 L1,0 L1,1 L0,1 Z " transform="translate(46,49)" style="fill: #80715A;"/><path d="M0,0 L1,0 L1,1 L0,1 Z " transform="translate(41,49)" style="fill: #5A523F;"/><path d="M0,0 L1,0 L1,1 L0,1 Z " transform="translate(88,48)" style="fill: #AD8242;"/><path d="M0,0 L1,0 L1,1 L0,1 Z " transform="translate(83,48)" style="fill: #5A5542;"/><path d="M0,0 L1,0 L1,1 L0,1 Z " transform="translate(71,48)" style="fill: #7E7058;"/><path d="M0,0 L1,0 L1,1 L0,1 Z " transform="translate(89,47)" style="fill: #946D34;"/><path d="M0,0 L1,0 L1,1 L0,1 Z " transform="translate(84,47)" style="fill: #6B655A;"/><path d="M0,0 L1,0 L1,1 L0,1 Z " transform="translate(72,47)" style="fill: #B59E7B;"/><path d="M0,0 L1,0 L1,1 L0,1 Z " transform="translate(51,47)" style="fill: #B5A27B;"/><path d="M0,0 L1,0 L1,1 L0,1 Z " transform="translate(39,47)" style="fill: #655842;"/><path d="M0,0 L1,0 L1,1 L0,1 Z " transform="translate(51,46)" style="fill: #7B6E54;"/><path d="M0,0 L1,0 L1,1 L0,1 Z " transform="translate(44,46)" style="fill: #80715A;"/><path d="M0,0 L1,0 L1,1 L0,1 Z " transform="translate(78,45)" style="fill: #80715A;"/><path d="M0,0 L1,0 L1,1 L0,1 Z " transform="translate(73,45)" style="fill: #786952;"/><path d="M0,0 L1,0 L1,1 L0,1 Z " transform="translate(66,45)" style="fill: #786952;"/><path d="M0,0 L1,0 L1,1 L0,1 Z " transform="translate(46,45)" style="fill: #80715A;"/><path d="M0,0 L1,0 L1,1 L0,1 Z " transform="translate(43,45)" style="fill: #5A523F;"/><path d="M0,0 L1,0 L1,1 L0,1 Z " transform="translate(88,44)" style="fill: #946D34;"/><path d="M0,0 L1,0 L1,1 L0,1 Z " transform="translate(68,44)" style="fill: #BDA783;"/><path d="M0,0 L1,0 L1,1 L0,1 Z " transform="translate(43,44)" style="fill: #ACA07E;"/><path d="M0,0 L1,0 L1,1 L0,1 Z " transform="translate(72,43)" style="fill: #9C8A73;"/><path d="M0,0 L1,0 L1,1 L0,1 Z " transform="translate(67,43)" style="fill: #9C8A73;"/><path d="M0,0 L1,0 L1,1 L0,1 Z " transform="translate(42,43)" style="fill: #83765A;"/><path d="M0,0 L1,0 L1,1 L0,1 Z " transform="translate(85,42)" style="fill: #80715A;"/><path d="M0,0 L1,0 L1,1 L0,1 Z " transform="translate(81,42)" style="fill: #7E7058;"/><path d="M0,0 L1,0 L1,1 L0,1 Z " transform="translate(71,42)" style="fill: #786952;"/><path d="M0,0 L1,0 L1,1 L0,1 Z " transform="translate(68,42)" style="fill: #786952;"/><path d="M0,0 L1,0 L1,1 L0,1 Z " transform="translate(44,42)" style="fill: #786952;"/><path d="M0,0 L1,0 L1,1 L0,1 Z " transform="translate(83,41)" style="fill: #7E7058;"/><path d="M0,0 L1,0 L1,1 L0,1 Z " transform="translate(43,41)" style="fill: #83765A;"/><path d="M0,0 L1,0 L1,1 L0,1 Z " transform="translate(88,40)" style="fill: #8C7952;"/><path d="M0,0 L1,0 L1,1 L0,1 Z " transform="translate(40,40)" style="fill: #83765A;"/><path d="M0,0 L1,0 L1,1 L0,1 Z " transform="translate(86,39)" style="fill: #786952;"/><path d="M0,0 L1,0 L1,1 L0,1 Z " transform="translate(74,39)" style="fill: #47433C;"/><path d="M0,0 L1,0 L1,1 L0,1 Z " transform="translate(72,39)" style="fill: #47433C;"/><path d="M0,0 L1,0 L1,1 L0,1 Z " transform="translate(53,39)" style="fill: #786952;"/><path d="M0,0 L1,0 L1,1 L0,1 Z " transform="translate(52,39)" style="fill: #B59E7B;"/><path d="M0,0 L1,0 L1,1 L0,1 Z " transform="translate(39,39)" style="fill: #5A523F;"/><path d="M0,0 L1,0 L1,1 L0,1 Z " transform="translate(91,38)" style="fill: #83765A;"/><path d="M0,0 L1,0 L1,1 L0,1 Z " transform="translate(88,38)" style="fill: #83765A;"/><path d="M0,0 L1,0 L1,1 L0,1 Z " transform="translate(51,38)" style="fill: #7B6E54;"/><path d="M0,0 L1,0 L1,1 L0,1 Z " transform="translate(41,38)" style="fill: #786C52;"/><path d="M0,0 L1,0 L1,1 L0,1 Z " transform="translate(96,37)" style="fill: #7E6E58;"/><path d="M0,0 L1,0 L1,1 L0,1 Z " transform="translate(91,36)" style="fill: #83765A;"/><path d="M0,0 L1,0 L1,1 L0,1 Z " transform="translate(55,36)" style="fill: #786952;"/><path d="M0,0 L1,0 L1,1 L0,1 Z " transform="translate(47,36)" style="fill: #5A5542;"/><path d="M0,0 L1,0 L1,1 L0,1 Z " transform="translate(37,36)" style="fill: #5A523F;"/><path d="M0,0 L1,0 L1,1 L0,1 Z " transform="translate(25,36)" style="fill: #030000;"/><path d="M0,0 L1,0 L1,1 L0,1 Z " transform="translate(98,35)" style="fill: #7E7058;"/><path d="M0,0 L1,0 L1,1 L0,1 Z " transform="translate(76,35)" style="fill: #83765A;"/><path d="M0,0 L1,0 L1,1 L0,1 Z " transform="translate(43,35)" style="fill: #BD8E42;"/><path d="M0,0 L1,0 L1,1 L0,1 Z " transform="translate(45,34)" style="fill: #846431;"/><path d="M0,0 L1,0 L1,1 L0,1 Z " transform="translate(38,34)" style="fill: #786952;"/><path d="M0,0 L1,0 L1,1 L0,1 Z " transform="translate(35,34)" style="fill: #7E7058;"/><path d="M0,0 L1,0 L1,1 L0,1 Z " transform="translate(33,34)" style="fill: #7E7058;"/><path d="M0,0 L1,0 L1,1 L0,1 Z " transform="translate(77,33)" style="fill: #83765A;"/><path d="M0,0 L1,0 L1,1 L0,1 Z " transform="translate(43,33)" style="fill: #7E5E2C;"/><path d="M0,0 L1,0 L1,1 L0,1 Z " transform="translate(92,32)" style="fill: #524D39;"/><path d="M0,0 L1,0 L1,1 L0,1 Z " transform="translate(79,32)" style="fill: #83765A;"/><path d="M0,0 L1,0 L1,1 L0,1 Z " transform="translate(31,32)" style="fill: #948263;"/><path d="M0,0 L1,0 L1,1 L0,1 Z " transform="translate(97,31)" style="fill: #5A523F;"/><path d="M0,0 L1,0 L1,1 L0,1 Z " transform="translate(93,31)" style="fill: #5A523F;"/><path d="M0,0 L1,0 L1,1 L0,1 Z " transform="translate(31,31)" style="fill: #ACA07E;"/><path d="M0,0 L1,0 L1,1 L0,1 Z " transform="translate(49,30)" style="fill: #866831;"/><path d="M0,0 L1,0 L1,1 L0,1 Z " transform="translate(78,29)" style="fill: #8C6831;"/><path d="M0,0 L1,0 L1,1 L0,1 Z " transform="translate(56,29)" style="fill: #6B655A;"/><path d="M0,0 L1,0 L1,1 L0,1 Z " transform="translate(32,29)" style="fill: #BAA681;"/><path d="M0,0 L1,0 L1,1 L0,1 Z " transform="translate(31,29)" style="fill: #5A523F;"/><path d="M0,0 L1,0 L1,1 L0,1 Z " transform="translate(80,28)" style="fill: #AD8242;"/><path d="M0,0 L1,0 L1,1 L0,1 Z " transform="translate(76,28)" style="fill: #8C6831;"/><path d="M0,0 L1,0 L1,1 L0,1 Z " transform="translate(70,28)" style="fill: #47433C;"/><path d="M0,0 L1,0 L1,1 L0,1 Z " transform="translate(58,28)" style="fill: #47433C;"/><path d="M0,0 L1,0 L1,1 L0,1 Z " transform="translate(52,28)" style="fill: #786952;"/><path d="M0,0 L1,0 L1,1 L0,1 Z " transform="translate(48,28)" style="fill: #C69A4A;"/><path d="M0,0 L1,0 L1,1 L0,1 Z " transform="translate(33,28)" style="fill: #B4A07C;"/><path d="M0,0 L1,0 L1,1 L0,1 Z " transform="translate(32,28)" style="fill: #4B4734;"/><path d="M0,0 L1,0 L1,1 L0,1 Z " transform="translate(79,27)" style="fill: #846431;"/><path d="M0,0 L1,0 L1,1 L0,1 Z " transform="translate(74,27)" style="fill: #946D34;"/><path d="M0,0 L1,0 L1,1 L0,1 Z " transform="translate(54,27)" style="fill: #8E6A34;"/><path d="M0,0 L1,0 L1,1 L0,1 Z " transform="translate(49,27)" style="fill: #8C6831;"/><path d="M0,0 L1,0 L1,1 L0,1 Z " transform="translate(72,26)" style="fill: #946D34;"/><path d="M0,0 L1,0 L1,1 L0,1 Z " transform="translate(56,26)" style="fill: #8C6831;"/><path d="M0,0 L1,0 L1,1 L0,1 Z " transform="translate(76,25)" style="fill: #846431;"/><path d="M0,0 L1,0 L1,1 L0,1 Z " transform="translate(68,25)" style="fill: #8C6831;"/><path d="M0,0 L1,0 L1,1 L0,1 Z " transform="translate(52,25)" style="fill: #8E6A34;"/><path d="M0,0 L1,0 L1,1 L0,1 Z " transform="translate(74,24)" style="fill: #946D34;"/><path d="M0,0 L1,0 L1,1 L0,1 Z " transform="translate(68,24)" style="fill: #CE9A4A;"/><path d="M0,0 L1,0 L1,1 L0,1 Z " transform="translate(54,24)" style="fill: #8E6A34;"/><path d="M0,0 L1,0 L1,1 L0,1 Z " transform="translate(72,23)" style="fill: #8C6831;"/><path d="M0,0 L1,0 L1,1 L0,1 Z " transform="translate(71,23)" style="fill: #C6964A;"/><path d="M0,0 L1,0 L1,1 L0,1 Z " transform="translate(70,22)" style="fill: #846431;"/><path d="M0,0 L1,0 L1,1 L0,1 Z " transform="translate(60,22)" style="fill: #CE9A4A;"/><path d="M0,0 L1,0 L1,1 L0,1 Z " transform="translate(58,22)" style="fill: #846431;"/><path d="M0,0 L1,0 L1,1 L0,1 Z " transform="translate(67,21)" style="fill: #866831;"/><path d="M0,0 L1,0 L1,1 L0,1 Z " transform="translate(61,21)" style="fill: #8C6831;"/><path d="M0,0 L1,0 L1,1 L0,1 Z " transform="translate(72,20)" style="fill: #8C6831;"/><path d="M0,0 L1,0 L1,1 L0,1 Z " transform="translate(50,20)" style="fill: #BF9147;"/><path d="M0,0 L1,0 L1,1 L0,1 Z " transform="translate(49,20)" style="fill: #74582C;"/><path d="M0,0 L1,0 L1,1 L0,1 Z " transform="translate(85,19)" style="fill: #0C0000;"/><path d="M0,0 L1,0 L1,1 L0,1 Z " transform="translate(59,19)" style="fill: #7E5E2C;"/><path d="M0,0 L1,0 L1,1 L0,1 Z " transform="translate(50,19)" style="fill: #3B2B16;"/><path d="M0,0 L1,0 L1,1 L0,1 Z " transform="translate(47,19)" style="fill: #020100;"/><path d="M0,0 L1,0 L1,1 L0,1 Z " transform="translate(54,16)" style="fill: #BE8E44;"/><path d="M0,0 L1,0 L1,1 L0,1 Z " transform="translate(53,16)" style="fill: #574120;"/><path d="M0,0 L1,0 L1,1 L0,1 Z " transform="translate(74,15)" style="fill: #946D34;"/><path d="M0,0 L1,0 L1,1 L0,1 Z " transform="translate(72,15)" style="fill: #5A401E;"/><path d="M0,0 L1,0 L1,1 L0,1 Z " transform="translate(54,15)" style="fill: #604A24;"/><path d="M0,0 L1,0 L1,1 L0,1 Z " transform="translate(60,13)" style="fill: #946D34;"/><path d="M0,0 L1,0 L1,1 L0,1 Z " transform="translate(58,13)" style="fill: #896834;"/><path d="M0,0 L1,0 L1,1 L0,1 Z " transform="translate(54,12)" style="fill: #020100;"/><path d="M0,0 L1,0 L1,1 L0,1 Z " transform="translate(65,10)" style="fill: #8F6932;"/><path d="M0,0 L1,0 L1,1 L0,1 Z " transform="translate(63,10)" style="fill: #BC8C43;"/><path d="M0,0 L1,0 L1,1 L0,1 Z " transform="translate(64,9)" style="fill: #322310;"/><path d="M0,0 L1,0 L1,1 L0,1 Z " transform="translate(66,7)" style="fill: #030100;"/></svg>