<?xml version="1.0" encoding="UTF-8"?>
<!-- Generator: visioncortex VTracer -->
<svg id="svg" version="1.1" xmlns="http://www.w3.org/2000/svg" style="display: block;" viewBox="0 0 256 256"><path d="M0 0 C2.26300375 2.46693722 4.07918152 5.26337322 6 8 C7.4964921 10.01827784 9.0183452 12.01795056 10.5625 14 C11.28566406 14.94875 12.00882813 15.8975 12.75390625 16.875 C15.39489665 19.37360657 16.47562873 19.49551793 20 19 C20.495 21.475 20.495 21.475 21 24 C24.51869056 22.90799258 24.97263015 22.06544963 26.4375 18.5625 C28.20562282 14.53117996 29.28798066 14.04161064 33 12 C35.53806697 8.58673752 36 7.36087656 36 3 C36.78375 2.71125 37.5675 2.4225 38.375 2.125 C41.09671632 1.15087746 41.09671632 1.15087746 43 -1 C45.1640625 -1.1953125 45.1640625 -1.1953125 47.625 -1.125 C48.85089844 -1.09792969 48.85089844 -1.09792969 50.1015625 -1.0703125 C51.04128906 -1.03550781 51.04128906 -1.03550781 52 -1 C51.41508117 3.65820896 50.11195652 7.41471932 48.1875 11.6875 C47.64946895 12.92119031 47.11302742 14.15557497 46.578125 15.390625 C45.59724133 17.63403221 44.60900104 19.87425611 43.609375 22.109375 C41.088369 28.19340282 40.20420942 31.36753655 44 37 C45.485 37.495 45.485 37.495 47 38 C47.33 37.01 47.66 36.02 48 35 C50.64 35 53.28 35 56 35 C56.495 37.97 56.495 37.97 57 41 C59.31 41.66 61.62 42.32 64 43 C64 44.65 64 46.3 64 48 C64.66 48 65.32 48 66 48 C66.05845196 51.37492629 66.09374742 54.74972087 66.125 58.125 C66.14175781 59.07632813 66.15851563 60.02765625 66.17578125 61.0078125 C66.2106261 66.02547078 66.19181888 70.36521632 64 75 C62.35767228 75.72455635 60.68375165 76.37774395 59 77 C52.08817776 82.33384018 49.83464019 84.76835705 50.16015625 93.4921875 C50 96 50 96 49.05859375 97.83984375 C47.51752481 100.98453424 47.35127912 104.24887217 47 107.6875 C46.43132469 112.69765806 45.77303053 117.59535121 44.57421875 122.49609375 C43.73293409 126.16455271 43.06112905 129.86231845 42.375 133.5625 C42.239729 134.29082031 42.10445801 135.01914063 41.96508789 135.76953125 C41.64217635 137.51279611 41.32091417 139.25636635 41 141 C40.67 141 40.34 141 40 141 C39.81824219 141.85722656 39.63648438 142.71445313 39.44921875 143.59765625 C38.09902814 149.73929253 36.61515872 155.29419916 34 161 C33.835 161.86625 33.67 162.7325 33.5 163.625 C32.88347005 166.55351726 31.54389066 168.4268489 30 171 C28.90377276 173.61219947 27.87728251 176.24401947 26.8671875 178.890625 C26 181 26 181 25 182 C23.00041636 182.04080783 20.99954746 182.04254356 19 182 C17.0265271 178.22549357 15.19394042 174.6666702 14 170.5625 C13.28467758 167.8177461 13.28467758 167.8177461 10.875 167.125 C10.25625 167.08375 9.6375 167.0425 9 167 C9 165.68 9 164.36 9 163 C9.66 163 10.32 163 11 163 C10.0443848 160.41563186 9.08562111 157.83250699 8.125 155.25 C7.85558594 154.52039063 7.58617188 153.79078125 7.30859375 153.0390625 C6.0220236 149.58728894 4.66628499 146.28793734 3 143 C1.46226522 138.31085813 0.75210638 133.95787239 1 129 C-1.475 129.99 -1.475 129.99 -4 131 C-3.67 128.36 -3.34 125.72 -3 123 C-2.34 123 -1.68 123 -1 123 C-1.19335938 122.07703125 -1.38671875 121.1540625 -1.5859375 120.203125 C-1.85136893 118.88590013 -2.11416289 117.56814233 -2.375 116.25 C-2.51437988 115.54713867 -2.65375977 114.84427734 -2.79736328 114.12011719 C-3.57852515 109.95814469 -4.14109028 105.84816979 -4.46875 101.625 C-4.57437256 100.28453613 -4.57437256 100.28453613 -4.68212891 98.91699219 C-4.80891687 97.16378749 -4.91595772 95.40902257 -5.00146484 93.65332031 C-5.39821933 88.19876132 -6.09026673 85.99287079 -11 83 C-12.4056048 81.8451247 -13.80211316 80.67905263 -15.1875 79.5 C-16.19876953 78.64921875 -16.19876953 78.64921875 -17.23046875 77.78125 C-19.05538783 75.94424537 -19.8578262 74.29374821 -21 72 C-21.99 71.34 -22.98 70.68 -24 70 C-24.37231445 68.00048828 -24.37231445 68.00048828 -24.36328125 65.5703125 C-24.36263672 64.69246094 -24.36199219 63.81460938 -24.36132812 62.91015625 C-24.34521484 61.99105469 -24.32910156 61.07195312 -24.3125 60.125 C-24.31572266 59.21363281 -24.31894531 58.30226562 -24.32226562 57.36328125 C-24.27373144 51.33621729 -24.03419908 47.88535524 -19.4375 43.625 C-16.67718624 40.65235442 -16.27745015 38.97678555 -16 35 C-14.68 35 -13.36 35 -12 35 C-12 35.66 -12 36.32 -12 37 C-6.18328497 38.74501451 -2.94514122 36.92441092 2 34 C2.08886184 30.80097361 1.91058531 28.07322544 1 25 C-0.65 25.66 -2.3 26.32 -4 27 C-4 25.68 -4 24.36 -4 23 C-3.01 23 -2.02 23 -1 23 C-1.80906755 20.68624595 -2.62206917 18.37401052 -3.4375 16.0625 C-3.66759766 15.40314453 -3.89769531 14.74378906 -4.13476562 14.06445312 C-5.11964592 10.77671378 -5.11964592 10.77671378 -7 8 C-7.14115161 5.32941149 -7.04247107 2.67567762 -7 0 C-4.08941266 -1.45529367 -3.05378563 -1.17987172 0 0 Z " transform="translate(108,37)" style="fill: #211D18;"/><path d="M0 0 C4.28872082 0.44366077 4.96606059 2.42026663 7 6 C7.721875 6.721875 8.44375 7.44375 9.1875 8.1875 C11.70665346 10.70665346 13.77215512 13.24424578 15.9375 16.0625 C20.93510831 22.86401473 20.93510831 22.86401473 28.5625 24.6875 C31.40422793 22.7201499 32.934017 20.63607427 34.7890625 17.75390625 C36.0436836 15.93672924 37.43295795 14.55144959 39 13 C40.18603861 11.53632054 41.35161484 10.05590439 42.5 8.5625 C43.0878125 7.80066406 43.675625 7.03882813 44.28125 6.25390625 C45.86492507 4.17713235 47.43679758 2.09221299 49 0 C50.65 0.33 52.3 0.66 54 1 C53.03485392 5.08244405 51.59981568 8.95414856 50.125 12.875 C49.86847656 13.56980469 49.61195313 14.26460937 49.34765625 14.98046875 C48.14272536 18.19563609 46.878854 21.24143886 45.3359375 24.31640625 C43.71451309 27.5734781 43.38880914 29.40925371 44 33 C46.87903159 36.53709595 50.00899852 38.83345634 54 41 C54.33 40.01 54.66 39.02 55 38 C56.32 38 57.64 38 59 38 C59.226875 38.598125 59.45375 39.19625 59.6875 39.8125 C61.34673922 42.5778987 63.24216078 43.38565509 66 45 C70.05463182 48.72795532 69.34306939 53.14413291 69.1875 58.25 C69.16719727 59.51070312 69.16719727 59.51070312 69.14648438 60.796875 C69.11123464 62.86485938 69.0574302 64.93251271 69 67 C67.515 67.495 67.515 67.495 66 68 C65.21625 67.278125 64.4325 66.55625 63.625 65.8125 C59.67207702 62.2006922 54.89854823 61.25474753 49.828125 59.89453125 C47 59 47 59 45 57 C41.22588763 58.25803746 41.83147951 58.46621209 41 62 C40.03259701 63.03156747 39.03514907 64.03643039 38 65 C38.433125 66.04800781 38.433125 66.04800781 38.875 67.1171875 C39.24625 68.02726562 39.6175 68.93734375 40 69.875 C40.37125 70.77992187 40.7425 71.68484375 41.125 72.6171875 C42 75 42 75 42 77 C42.66 77 43.32 77 44 77 C45.00926479 81.15626368 45.10239579 85.04365094 45.0625 89.3125 C45.05347656 90.56675781 45.04445312 91.82101563 45.03515625 93.11328125 C45.02355469 94.06589844 45.01195312 95.01851563 45 96 C40.125 97.125 40.125 97.125 39 96 C37.865625 95.896875 36.73125 95.79375 35.5625 95.6875 C32 95 32 95 30.78515625 93.34765625 C29.79242292 90.37933421 29.80708448 87.87411392 29.875 84.75 C29.89304688 83.67234375 29.91109375 82.5946875 29.9296875 81.484375 C29.95289063 80.66453125 29.97609375 79.8446875 30 79 C32.475 78.505 32.475 78.505 35 78 C33.47793991 75.37098712 32.15634036 73.15634036 30 71 C30.30485405 67.54960644 31.57399257 66.18436224 34.25 64.125 C40.81509301 59.18013227 40.81509301 59.18013227 42.75 51.8125 C42.5025 50.884375 42.255 49.95625 42 49 C42.33 48.01 42.66 47.02 43 46 C41.76635576 41.65355353 41.76635576 41.65355353 38.12109375 39.42578125 C36.01358696 39.16323211 36.01358696 39.16323211 33.9375 39.10546875 C32 39 32 39 29 38 C28.67 38.99 28.34 39.98 28 41 C27.34 41 26.68 41 26 41 C25.505 41.99 25.505 41.99 25 43 C25.99 43.33 26.98 43.66 28 44 C26.35 44 24.7 44 23 44 C22.67 42.35 22.34 40.7 22 39 C15.04966718 39.43389936 15.04966718 39.43389936 10 44 C9.01 44.495 9.01 44.495 8 45 C7.31068656 47.34907875 7.31068656 47.34907875 6.875 50.0625 C6.70742187 50.98160156 6.53984375 51.90070313 6.3671875 52.84765625 C6.24601562 53.55792969 6.12484375 54.26820312 6 55 C4.02 55.495 4.02 55.495 2 56 C2 56.99 2 57.98 2 59 C1.40832031 59.17015625 0.81664063 59.3403125 0.20703125 59.515625 C-3.70228836 60.71456804 -6.5809414 61.66475312 -9.8125 64.25 C-12.50072163 66.40057731 -12.90922922 66.01081812 -16 65 C-15.7452486 63.68428397 -15.47065859 62.37239624 -15.1875 61.0625 C-15.03667969 60.33160156 -14.88585937 59.60070312 -14.73046875 58.84765625 C-14 57 -14 57 -11 56 C-9.90833725 54.06669397 -9.90833725 54.06669397 -9 52 C-8.34 51.34 -7.68 50.68 -7 50 C-6.89775008 48.60542476 -6.81731073 47.20919768 -6.75 45.8125 C-5.41428594 38.57152378 2.87757414 36.48573687 9 34 C9.63612597 27.91136576 7.36511481 23.1783507 5.0625 17.6875 C4.50272461 16.30981445 4.50272461 16.30981445 3.93164062 14.90429688 C2.45025303 10.65383648 2.45025303 10.65383648 0 7 C-0.04092937 4.66702567 -0.04241723 2.33294775 0 0 Z " transform="translate(103,38)" style="fill: #968974;"/><path d="M0 0 C2.26300375 2.46693722 4.07918152 5.26337322 6 8 C7.4964921 10.01827784 9.0183452 12.01795056 10.5625 14 C11.28566406 14.94875 12.00882813 15.8975 12.75390625 16.875 C15.39489665 19.37360657 16.47562873 19.49551793 20 19 C20.495 21.475 20.495 21.475 21 24 C24.51869056 22.90799258 24.97263015 22.06544963 26.4375 18.5625 C28.20562282 14.53117996 29.28798066 14.04161064 33 12 C35.53806697 8.58673752 36 7.36087656 36 3 C36.78375 2.71125 37.5675 2.4225 38.375 2.125 C41.09671632 1.15087746 41.09671632 1.15087746 43 -1 C45.1640625 -1.1953125 45.1640625 -1.1953125 47.625 -1.125 C48.85089844 -1.09792969 48.85089844 -1.09792969 50.1015625 -1.0703125 C51.04128906 -1.03550781 51.04128906 -1.03550781 52 -1 C51.41508117 3.65820896 50.11195652 7.41471932 48.1875 11.6875 C47.64946895 12.92119031 47.11302742 14.15557497 46.578125 15.390625 C45.59724133 17.63403221 44.60900104 19.87425611 43.609375 22.109375 C41.088369 28.19340282 40.20420942 31.36753655 44 37 C45.485 37.495 45.485 37.495 47 38 C47.33 37.01 47.66 36.02 48 35 C50.64 35 53.28 35 56 35 C56.495 37.97 56.495 37.97 57 41 C59.31 41.66 61.62 42.32 64 43 C64 44.65 64 46.3 64 48 C64.66 48 65.32 48 66 48 C66.05845196 51.37492629 66.09374742 54.74972087 66.125 58.125 C66.14175781 59.07632813 66.15851563 60.02765625 66.17578125 61.0078125 C66.21104528 66.08583255 66.03333617 70.24487525 64 75 C62.02 74.505 62.02 74.505 60 74 C61.875 69.125 61.875 69.125 63 68 C63.18098107 65.06870011 63.27823019 62.18349593 63.3125 59.25 C63.34150391 58.43789062 63.37050781 57.62578125 63.40039062 56.7890625 C63.45560959 51.57299375 62.98563245 48.74692851 59 45 C58.0925 44.46375 57.185 43.9275 56.25 43.375 C54 42 54 42 54 39 C50.77758996 39.46030492 50.77758996 39.46030492 49 42 C44.37434146 41.46627017 40.06334898 38.12669795 38 34 C37.5453998 28.99939777 38.76288589 26.40139194 41 22 C42.10948515 19.31646695 43.11933491 16.59888684 44.125 13.875 C44.38925781 13.17246094 44.65351563 12.46992187 44.92578125 11.74609375 C46.1260798 8.52295703 47.20899633 5.345844 48 2 C42.7174184 2.29347676 41.59628552 4.64494042 39 9 C37.67618483 10.67423683 36.34423339 12.34211215 35 14 C34.34 14.99 33.68 15.98 33 17 C32.34 17 31.68 17 31 17 C30.773125 17.556875 30.54625 18.11375 30.3125 18.6875 C28.04399551 22.68438886 25.38100054 25.53966649 21 27 C13.83144797 23.56168998 8.47102828 16.33395673 4 10 C4 9.34 4 8.68 4 8 C3.01 7.67 2.02 7.34 1 7 C0 5.33333333 -1 3.66666667 -2 2 C-2.99 1.67 -3.98 1.34 -5 1 C-4.46887451 8.78984047 -1.10055463 15.58344925 2.21875 22.5625 C6.02227171 30.60423163 6.02227171 30.60423163 5 35 C-1.5427032 40.47761198 -6.09681163 41.63439612 -14 39 C-14.061875 39.721875 -14.12375 40.44375 -14.1875 41.1875 C-15.24812745 44.8589027 -17.19669931 46.47702938 -20 49 C-21.70055336 50.70055336 -21.10682338 52.7032974 -21 55 C-20.814375 55.721875 -20.62875 56.44375 -20.4375 57.1875 C-20 59 -20 59 -21 61 C-21.48471783 66.91355752 -21.37778152 69.62221848 -17 74 C-16.67 74.33 -16.34 74.66 -16 75 C-16 74.34 -16 73.68 -16 73 C-12.68565714 73 -11.23539556 75.71261849 -9 78 C-8.175 78.66 -7.35 79.32 -6.5 80 C-3.79718914 82.16224869 -1.41104118 84.52007193 1 87 C0.97679688 86.30132812 0.95359375 85.60265625 0.9296875 84.8828125 C0.91164063 83.97273438 0.89359375 83.06265625 0.875 82.125 C0.85179688 81.22007813 0.82859375 80.31515625 0.8046875 79.3828125 C1 77 1 77 3 75 C3.70710678 73.35008418 4.37943989 71.68437744 5 70 C5.66 70.33 6.32 70.66 7 71 C6.5609899 73.56089223 6.12169309 75.75292616 4.96875 78.09375 C3.60236653 82.19290041 3.7870183 86.02508389 3.875 90.3125 C3.88402344 91.14845703 3.89304687 91.98441406 3.90234375 92.84570312 C3.92579011 94.89725969 3.96165734 96.94866777 4 99 C6.97 98.505 6.97 98.505 10 98 C10 97.34 10 96.68 10 96 C12.97 95.505 12.97 95.505 16 95 C15.525625 95.495 15.05125 95.99 14.5625 96.5 C12.95185918 99.07702531 12.77830596 100.1329341 12.5625 103.0625 C11.96358528 107.25490307 11.65458943 108.11376029 8 110 C8.309375 109.4225 8.61875 108.845 8.9375 108.25 C9.92583364 106.15705816 10.5168613 104.25464725 11 102 C10.34 102 9.68 102 9 102 C8.67 102.66 8.34 103.32 8 104 C6.68 104 5.36 104 4 104 C3.67 104.66 3.34 105.32 3 106 C3 104.68 3 103.36 3 102 C2.34 102 1.68 102 1 102 C-0.485 97.545 -0.485 97.545 -2 93 C-1.67 98.94 -1.34 104.88 -1 111 C-0.34 111 0.32 111 1 111 C1.16930395 112.89559964 1.33532864 114.79149231 1.5 116.6875 C1.5928125 117.74324219 1.685625 118.79898438 1.78125 119.88671875 C2 123 2 123 1.98046875 125.69921875 C2.00226279 128.26655719 2.60241864 130.44336911 3.35546875 132.88671875 C4.16942151 135.55549718 4.89556189 138.24445598 5.625 140.9375 C5.88539062 141.89527344 6.14578125 142.85304687 6.4140625 143.83984375 C6.60742188 144.55269531 6.80078125 145.26554688 7 146 C7.99 144.02 7.99 144.02 9 142 C8.96519531 142.56847656 8.93039063 143.13695312 8.89453125 143.72265625 C8.69769408 149.33720226 9.44504683 152.99655005 12 158 C11.505 154.535 11.505 154.535 11 151 C14.25379543 152.75950767 14.92423508 153.51134564 15.50390625 157.25 C15.52324219 158.4875 15.54257813 159.725 15.5625 161 C15.51795957 166.80092993 15.51795957 166.80092993 19 171 C18.979375 171.825 18.95875 172.65 18.9375 173.5 C19.02168423 176.86736934 20.21402476 177.3458272 23 179 C23.66 177.68 24.32 176.36 25 175 C25 176.32 25 177.64 25 179 C25.25394531 178.154375 25.50789063 177.30875 25.76953125 176.4375 C28.33110047 167.99487487 30.88512688 159.83785356 35 152 C37.35297503 157.88243757 33.79151277 163.62927336 31.08203125 168.8046875 C29.44933002 172.11724378 28.15273578 175.54963373 26.83203125 178.99609375 C26 181 26 181 25 182 C23.00041636 182.04080783 20.99954746 182.04254356 19 182 C17.0265271 178.22549357 15.19394042 174.6666702 14 170.5625 C13.28467758 167.8177461 13.28467758 167.8177461 10.875 167.125 C10.25625 167.08375 9.6375 167.0425 9 167 C9 165.68 9 164.36 9 163 C9.66 163 10.32 163 11 163 C10.0443848 160.41563186 9.08562111 157.83250699 8.125 155.25 C7.85558594 154.52039063 7.58617188 153.79078125 7.30859375 153.0390625 C6.0220236 149.58728894 4.66628499 146.28793734 3 143 C1.46226522 138.31085813 0.75210638 133.95787239 1 129 C-1.475 129.99 -1.475 129.99 -4 131 C-3.67 128.36 -3.34 125.72 -3 123 C-2.34 123 -1.68 123 -1 123 C-1.19335938 122.07703125 -1.38671875 121.1540625 -1.5859375 120.203125 C-1.85136893 118.88590013 -2.11416289 117.56814233 -2.375 116.25 C-2.51437988 115.54713867 -2.65375977 114.84427734 -2.79736328 114.12011719 C-3.57852515 109.95814469 -4.14109028 105.84816979 -4.46875 101.625 C-4.57437256 100.28453613 -4.57437256 100.28453613 -4.68212891 98.91699219 C-4.80891687 97.16378749 -4.91595772 95.40902257 -5.00146484 93.65332031 C-5.39821933 88.19876132 -6.09026673 85.99287079 -11 83 C-12.4056048 81.8451247 -13.80211316 80.67905263 -15.1875 79.5 C-16.19876953 78.64921875 -16.19876953 78.64921875 -17.23046875 77.78125 C-19.05538783 75.94424537 -19.8578262 74.29374821 -21 72 C-21.99 71.34 -22.98 70.68 -24 70 C-24.37231445 68.00048828 -24.37231445 68.00048828 -24.36328125 65.5703125 C-24.36263672 64.69246094 -24.36199219 63.81460938 -24.36132812 62.91015625 C-24.34521484 61.99105469 -24.32910156 61.07195312 -24.3125 60.125 C-24.31572266 59.21363281 -24.31894531 58.30226562 -24.32226562 57.36328125 C-24.27373144 51.33621729 -24.03419908 47.88535524 -19.4375 43.625 C-16.67718624 40.65235442 -16.27745015 38.97678555 -16 35 C-14.68 35 -13.36 35 -12 35 C-12 35.66 -12 36.32 -12 37 C-6.18328497 38.74501451 -2.94514122 36.92441092 2 34 C2.08886184 30.80097361 1.91058531 28.07322544 1 25 C-0.65 25.66 -2.3 26.32 -4 27 C-4 25.68 -4 24.36 -4 23 C-3.01 23 -2.02 23 -1 23 C-1.80906755 20.68624595 -2.62206917 18.37401052 -3.4375 16.0625 C-3.66759766 15.40314453 -3.89769531 14.74378906 -4.13476562 14.06445312 C-5.11964592 10.77671378 -5.11964592 10.77671378 -7 8 C-7.14115161 5.32941149 -7.04247107 2.67567762 -7 0 C-4.08941266 -1.45529367 -3.05378563 -1.17987172 0 0 Z " transform="translate(108,37)" style="fill: #1A1612;"/><path d="M0 0 C4.28872082 0.44366077 4.96606059 2.42026663 7 6 C7.721875 6.721875 8.44375 7.44375 9.1875 8.1875 C11.70665346 10.70665346 13.77215512 13.24424578 15.9375 16.0625 C20.93510831 22.86401473 20.93510831 22.86401473 28.5625 24.6875 C31.40422793 22.7201499 32.934017 20.63607427 34.7890625 17.75390625 C36.04303672 15.93766617 37.43962324 14.55649523 39 13 C40.79331842 10.67683751 42.53879115 8.32242779 44.28125 5.9609375 C46 4 46 4 49 3 C48.7215625 4.3921875 48.7215625 4.3921875 48.4375 5.8125 C47.75876119 9.01343771 47.75876119 9.01343771 49 12 C47.68 12.33 46.36 12.66 45 13 C44.814375 13.8353125 44.814375 13.8353125 44.625 14.6875 C42.86580087 21.1965368 42.86580087 21.1965368 40.53515625 23.359375 C38.66334528 25.35978367 38.10629197 27.07932638 37.3125 29.6875 C36.93544922 30.89986328 36.93544922 30.89986328 36.55078125 32.13671875 C36.36902344 32.75160156 36.18726563 33.36648437 36 34 C35.67 33.34 35.34 32.68 35 32 C32.36 32.66 29.72 33.32 27 34 C26.67 33.01 26.34 32.02 26 31 C25.67 34.96 25.34 38.92 25 43 C25.99 43.33 26.98 43.66 28 44 C26.35 44 24.7 44 23 44 C22.67 42.35 22.34 40.7 22 39 C15.04966718 39.43389936 15.04966718 39.43389936 10 44 C9.01 44.495 9.01 44.495 8 45 C7.31068656 47.34907875 7.31068656 47.34907875 6.875 50.0625 C6.70742187 50.98160156 6.53984375 51.90070313 6.3671875 52.84765625 C6.24601562 53.55792969 6.12484375 54.26820312 6 55 C4.02 55.495 4.02 55.495 2 56 C2 56.99 2 57.98 2 59 C1.40832031 59.17015625 0.81664063 59.3403125 0.20703125 59.515625 C-3.70228836 60.71456804 -6.5809414 61.66475312 -9.8125 64.25 C-12.50072163 66.40057731 -12.90922922 66.01081812 -16 65 C-15.7452486 63.68428397 -15.47065859 62.37239624 -15.1875 61.0625 C-15.03667969 60.33160156 -14.88585937 59.60070312 -14.73046875 58.84765625 C-14 57 -14 57 -11 56 C-9.90833725 54.06669397 -9.90833725 54.06669397 -9 52 C-8.34 51.34 -7.68 50.68 -7 50 C-6.89775008 48.60542476 -6.81731073 47.20919768 -6.75 45.8125 C-5.41428594 38.57152378 2.87757414 36.48573687 9 34 C9.63612597 27.91136576 7.36511481 23.1783507 5.0625 17.6875 C4.50272461 16.30981445 4.50272461 16.30981445 3.93164062 14.90429688 C2.45025303 10.65383648 2.45025303 10.65383648 0 7 C-0.04092937 4.66702567 -0.04241723 2.33294775 0 0 Z " transform="translate(103,38)" style="fill: #9A8F7B;"/><path d="M0 0 C2.71094566 0 3.29474736 0.98470143 5 3 C5 3.66 5 4.32 5 5 C6.65 5.66 8.3 6.32 10 7 C10 7.66 10 8.32 10 9 C10.66 9 11.32 9 12 9 C11.45032426 12.84773017 9.67967752 14.32032248 7 17 C7 17.99 7 18.98 7 20 C8.65 20 10.3 20 12 20 C12.09038099 25.15171623 11.84681133 29.91913204 11 35 C7.535 35.495 7.535 35.495 4 36 C4 36.66 4 37.32 4 38 C1.03 38.495 1.03 38.495 -2 39 C-4.00834823 30.28636011 -4.00834016 22.01668032 0 14 C-0.33 13.01 -0.66 12.02 -1 11 C-1.309375 11.804375 -1.61875 12.60875 -1.9375 13.4375 C-3 16 -3 16 -4 17 C-4.23287008 18.68183948 -4.41264166 20.3712416 -4.5625 22.0625 C-4.64628906 22.98160156 -4.73007813 23.90070313 -4.81640625 24.84765625 C-4.90728516 25.91306641 -4.90728516 25.91306641 -5 27 C-8.875 25.375 -8.875 25.375 -10 22 C-11.32338632 21.31379969 -12.65949948 20.65213539 -14 20 C-22.35062241 13.48651452 -22.35062241 13.48651452 -22 7 C-21.34 7 -20.68 7 -20 7 C-20 6.34 -20 5.68 -20 5 C-7.61498029 -1.16498759 -7.61498029 -1.16498759 -1 3 C-0.67 3.33 -0.34 3.66 0 4 C0 2.68 0 1.36 0 0 Z " transform="translate(114,97)" style="fill: #716656;"/><path d="M0 0 C2.31 0.33 4.62 0.66 7 1 C9.75759075 9.32621393 9.08617762 17.73593561 8.80810547 26.39575195 C8.747821 28.40531345 8.71337219 30.41559794 8.6796875 32.42578125 C8.62917236 34.21109253 8.62917236 34.21109253 8.57763672 36.0324707 C9.08524153 39.59890801 9.91302158 40.30197155 13 42 C12.67 42.66 12.34 43.32 12 44 C11.01 44 10.02 44 9 44 C9 47.3 9 50.6 9 54 C8.34 54 7.68 54 7 54 C6.67 50.04 6.34 46.08 6 42 C3.72024802 42.80639227 3.72024802 42.80639227 3.5859375 45.28515625 C3.51632813 46.20167969 3.44671875 47.11820313 3.375 48.0625 C3.30023438 48.98160156 3.22546875 49.90070313 3.1484375 50.84765625 C3.09945312 51.55792969 3.05046875 52.26820313 3 53 C0.42820837 50.42820837 0.75047975 49.25402058 0.625 45.6875 C0.29524911 40.94655331 -0.41082388 38.35761637 -4 35 C-3.67 34.34 -3.34 33.68 -3 33 C-2.01 33.66 -1.02 34.32 0 35 C-0.66 33.68 -1.32 32.36 -2 31 C-2.66 31 -3.32 31 -4 31 C-4 28 -4 28 -2 26 C-2.33 25.67 -2.66 25.34 -3 25 C-3.66 25.66 -4.32 26.32 -5 27 C-7 25 -7 25 -7 22 C-6.01 22 -5.02 22 -4 22 C-4.804375 21.690625 -5.60875 21.38125 -6.4375 21.0625 C-10.2867227 17.96434514 -9.90620946 14.72860631 -10 10 C-10.01546875 9.29230469 -10.0309375 8.58460938 -10.046875 7.85546875 C-10.06006043 6.23695745 -10.03442976 4.61819877 -10 3 C-9.34 2.67 -8.68 2.34 -8 2 C-7.67 3.65 -7.34 5.3 -7 7 C-6.34 5.02 -5.68 3.04 -5 1 C-3.35 1.33 -1.7 1.66 0 2 C0 1.34 0 0.68 0 0 Z " transform="translate(122,151)" style="fill: #504A42;"/><path d="M0 0 C2.96175123 0.61277612 4.38058783 1.25372522 7 3 C6.01 3.495 6.01 3.495 5 4 C4.23648712 5.94893777 4.23648712 5.94893777 3.625 8.25 C2.14255913 12.96685732 0.11193235 16.20094652 -3.6875 19.4375 C-5.62281124 21.74144195 -5.67477257 24.07295311 -6 27 C-3.13003234 26.57481961 -1.96427463 25.96824411 0.25 24 C3.92721728 21.32566016 6.50614577 21.30466808 11 21 C10.67 20.01 10.34 19.02 10 18 C10.9590625 17.64228516 10.9590625 17.64228516 11.9375 17.27734375 C14.63295686 15.60799831 14.59632841 14.63545 15 11.5625 C15.69492432 7.70318813 16.2407071 5.76216855 20 4 C20.66 4 21.32 4 22 4 C22.33 3.01 22.66 2.02 23 1 C24.485 1.495 24.485 1.495 26 2 C25.34 3.65 24.68 5.3 24 7 C25.32 7 26.64 7 28 7 C27.67 8.32 27.34 9.64 27 11 C26.01 10.67 25.02 10.34 24 10 C24 9.34 24 8.68 24 8 C20.22091642 9.25969453 20.39269649 9.91040711 19.3125 13.5625 C19.06113281 14.38878906 18.80976562 15.21507813 18.55078125 16.06640625 C18.36902344 16.70449219 18.18726562 17.34257813 18 18 C18.66 18 19.32 18 20 18 C20.36256858 19.4562672 20.71479793 20.91511185 21.0625 22.375 C21.35833984 23.59316406 21.35833984 23.59316406 21.66015625 24.8359375 C22 27 22 27 21 29 C20.34 27.35 19.68 25.7 19 24 C11.85234068 22.76147031 6.68688919 23.14111259 0 26 C0 26.66 0 27.32 0 28 C-0.66 28 -1.32 28 -2 28 C-1.87625 29.258125 -1.7525 30.51625 -1.625 31.8125 C-1.55539063 32.52019531 -1.48578125 33.22789063 -1.4140625 33.95703125 C-1.07334609 36.29988142 -1.07334609 36.29988142 1 39 C-3.21538757 37.49450444 -4.71281051 34.70682435 -7 31 C-7.33 30.67 -7.66 30.34 -8 30 C-8.15269408 25.41917752 -7.9516006 21.48611714 -7 17 C-7.33 16.67 -7.66 16.34 -8 16 C-8.647953 11.33473839 -7.16012552 9.34070412 -4 6 C-3.01 5.34 -2.02 4.68 -1 4 C-0.27617533 1.94074861 -0.27617533 1.94074861 0 0 Z " transform="translate(94,76)" style="fill: #363028;"/><path d="M0 0 C2.4375 1.5 2.4375 1.5 3.4375 2.5 C3.15019945 4.83944736 2.81813221 7.1739143 2.4375 9.5 C1.7775 9.5 1.1175 9.5 0.4375 9.5 C0.128125 10.3353125 0.128125 10.3353125 -0.1875 11.1875 C-1.53096753 13.44696811 -2.61407702 14.4998656 -4.625 16.125 C-7.57074713 18.17119397 -7.57074713 18.17119397 -8.5625 20.5 C-9.2225 20.5 -9.8825 20.5 -10.5625 20.5 C-10.90023437 19.81292969 -11.23796875 19.12585938 -11.5859375 18.41796875 C-12.03195313 17.51691406 -12.47796875 16.61585937 -12.9375 15.6875 C-13.37835938 14.79417969 -13.81921875 13.90085937 -14.2734375 12.98046875 C-15.58116905 10.35443619 -15.58116905 10.35443619 -17.5625 7.5 C-18.0078016 4.0118041 -17.92491293 2.14245928 -16.1875 -0.9375 C-11.03701666 -4.0032639 -5.25663343 -2.21331934 0 0 Z " transform="translate(161.5625,101.5)" style="fill: #817768;"/><path d="M0 0 C0.33 0 0.66 0 1 0 C1 3.63 1 7.26 1 11 C1.66 11 2.32 11 3 11 C3.33 9.68 3.66 8.36 4 7 C9.445 7.99 9.445 7.99 15 9 C15.33 9.99 15.66 10.98 16 12 C13.69 12.66 11.38 13.32 9 14 C9.33 15.32 9.66 16.64 10 18 C9.01 18 8.02 18 7 18 C6.67 17.34 6.34 16.68 6 16 C3.27893306 18.72106694 3.39344428 20.84776311 2.875 24.625 C2.70742187 25.81351563 2.53984375 27.00203125 2.3671875 28.2265625 C2.24601563 29.14179687 2.12484375 30.05703125 2 31 C0.02 31 -1.96 31 -4 31 C-3.67 31.66 -3.34 32.32 -3 33 C-2.01 33 -1.02 33 0 33 C0.33 34.32 0.66 35.64 1 37 C1.66 37 2.32 37 3 37 C3 37.66 3 38.32 3 39 C-1.17187726 38.50583686 -2.87297679 36.32634126 -5.5625 33.25 C-6.32691406 32.38890625 -7.09132813 31.5278125 -7.87890625 30.640625 C-13.29804772 23.89414317 -13.29804772 23.89414317 -12 20 C-8.7 20.66 -5.4 21.32 -2 22 C-3.30155006 17.92035719 -3.30155006 17.92035719 -5 14 C-4.34 14 -3.68 14 -3 14 C-2.67 13.01 -2.34 12.02 -2 11 C-2 11.99 -2 12.98 -2 14 C-1.34 13.67 -0.68 13.34 0 13 C0 8.71 0 4.42 0 0 Z " transform="translate(128,68)" style="fill: #41382E;"/><path d="M0 0 C0.99 0.33 1.98 0.66 3 1 C3 3.97 3 6.94 3 10 C4.32 10.33 5.64 10.66 7 11 C7.33 13.97 7.66 16.94 8 20 C7.34 20 6.68 20 6 20 C5.67 20.99 5.34 21.98 5 23 C5.66 23.33 6.32 23.66 7 24 C7 23.34 7 22.68 7 22 C7.66 22 8.32 22 9 22 C9 26.95 9 31.9 9 37 C8.01 37.495 8.01 37.495 7 38 C9.31 38 11.62 38 14 38 C14 38.99 14 39.98 14 41 C13.01 41 12.02 41 11 41 C11 44.3 11 47.6 11 51 C10.34 51 9.68 51 9 51 C8.67 47.04 8.34 43.08 8 39 C5.72024802 39.80639227 5.72024802 39.80639227 5.5859375 42.28515625 C5.51632813 43.20167969 5.44671875 44.11820313 5.375 45.0625 C5.26285156 46.44115234 5.26285156 46.44115234 5.1484375 47.84765625 C5.09945312 48.55792969 5.05046875 49.26820313 5 50 C2.42820837 47.42820837 2.75047975 46.25402058 2.625 42.6875 C2.29524911 37.94655331 1.58917612 35.35761637 -2 32 C-1.67 31.34 -1.34 30.68 -1 30 C0.485 30.99 0.485 30.99 2 32 C1.34 30.68 0.68 29.36 0 28 C-0.66 28 -1.32 28 -2 28 C-2 25 -2 25 0.5 23.125 C3.47500121 20.59624897 3.52043701 19.7471465 3 16 C2.01 15.67 1.02 15.34 0 15 C0.17402344 14.45859375 0.34804687 13.9171875 0.52734375 13.359375 C1.09766505 10.51248191 0.87137301 8.13281478 0.5625 5.25 C0.46066406 4.26515625 0.35882813 3.2803125 0.25390625 2.265625 C0.17011719 1.51796875 0.08632812 0.7703125 0 0 Z " transform="translate(120,154)" style="fill: #5B5349;"/><path d="M0 0 C1.32 0 2.64 0 4 0 C4.226875 0.598125 4.45375 1.19625 4.6875 1.8125 C6.34673922 4.5778987 8.24216078 5.38565509 11 7 C15.05463182 10.72795532 14.34306939 15.14413291 14.1875 20.25 C14.16719727 21.51070312 14.16719727 21.51070312 14.14648438 22.796875 C14.11123464 24.86485938 14.0574302 26.93251271 14 29 C11 30 11 30 7.9375 27.6875 C6.26312484 26.15562486 4.6047077 24.6047077 3 23 C4.32 22.67 5.64 22.34 7 22 C7 20.68 7 19.36 7 18 C5.68 18 4.36 18 3 18 C3.2475 17.4225 3.495 16.845 3.75 16.25 C4.11908901 12.92819889 2.33186504 12.19053988 0 10 C0 9.01 0 8.02 0 7 C-0.66 6.67 -1.32 6.34 -2 6 C-2.33 5.01 -2.66 4.02 -3 3 C-2.34 3 -1.68 3 -1 3 C-0.67 2.01 -0.34 1.02 0 0 Z " transform="translate(158,76)" style="fill: #544D43;"/><path d="M0 0 C-1.423125 1.0209375 -1.423125 1.0209375 -2.875 2.0625 C-7.41338751 6.65403022 -7.22917942 12.61128839 -7.77587891 18.70898438 C-8.18840526 22.92592047 -8.7818334 27.11774549 -9.375 31.3125 C-9.49955566 32.19397705 -9.62411133 33.0754541 -9.75244141 33.98364258 C-10.65123714 40.11907074 -11.7513271 46.18934504 -13.0625 52.25 C-13.22476074 53.01868408 -13.38702148 53.78736816 -13.55419922 54.5793457 C-14.75391081 59.8769554 -14.75391081 59.8769554 -17 61 C-17.12561335 53.58881256 -17.12561335 53.58881256 -16.5 50.65625 C-15.8973676 47.45476538 -15.90461667 44.44294982 -15.9375 41.1875 C-15.94652344 40.02605469 -15.95554688 38.86460937 -15.96484375 37.66796875 C-15.97644531 36.78753906 -15.98804688 35.90710938 -16 35 C-16.66 35 -17.32 35 -18 35 C-18 34.01 -18 33.02 -18 32 C-18.66 32 -19.32 32 -20 32 C-22.43160605 28.63316085 -23 27.26649636 -23 23 C-21.35 23.33 -19.7 23.66 -18 24 C-18 24.66 -18 25.32 -18 26 C-16.35 26 -14.7 26 -13 26 C-12.52328945 24.33151306 -12.04774268 22.66268469 -11.578125 20.9921875 C-11.0494782 19.17049921 -10.46499245 17.36525472 -9.875 15.5625 C-9.11950017 12.48653639 -9.0117272 10.89879536 -9.25 7.875 C-8.90931425 2.59437084 -5.90840032 -1.96946677 0 0 Z " transform="translate(162,116)" style="fill: #4E473D;"/><path d="M0 0 C1.98 0 3.96 0 6 0 C6.66 1.32 7.32 2.64 8 4 C8.66 4 9.32 4 10 4 C10 4.99 10 5.98 10 7 C10.99 6.67 11.98 6.34 13 6 C13.02707139 8.24993359 13.04642829 10.49996095 13.0625 12.75 C13.07410156 14.00296875 13.08570313 15.2559375 13.09765625 16.546875 C13.02021027 19.28536501 12.82780815 21.41880293 12 24 C11.01 24 10.02 24 9 24 C9.16371094 24.56203125 9.32742187 25.1240625 9.49609375 25.703125 C10.02864997 28.13059056 10.09898681 30.26889681 10.0625 32.75 C10.05347656 33.54921875 10.04445312 34.3484375 10.03515625 35.171875 C10.02355469 35.77515625 10.01195312 36.3784375 10 37 C9.67 37 9.34 37 9 37 C9 35.02 9 33.04 9 31 C8.34 31 7.68 31 7 31 C7 30.34 7 29.68 7 29 C3.80097361 28.91113816 1.07322544 29.08941469 -2 30 C-2 29.34 -2 28.68 -2 28 C-1.34 28 -0.68 28 0 28 C0.12375 27.4225 0.2475 26.845 0.375 26.25 C1.00648824 23.97664233 1.88858191 22.0746471 3 20 C3.99 20 4.98 20 6 20 C6.16873478 18.56274129 6.33490737 17.12518162 6.5 15.6875 C6.5928125 14.88699219 6.685625 14.08648437 6.78125 13.26171875 C7.04813463 10.88103445 7.04813463 10.88103445 7 8 C5.02 8 3.04 8 1 8 C0.67 5.36 0.34 2.72 0 0 Z " transform="translate(134,144)" style="fill: #14110E;"/><path d="M0 0 C1.65 0.33 3.3 0.66 5 1 C5.68707555 3.49064888 6 5.37886292 6 8 C6.66 8.33 7.32 8.66 8 9 C7.67 9.99 7.34 10.98 7 12 C7.09406754 14.29453495 7.09406754 14.29453495 7.4375 16.6875 C7.53933594 17.49574219 7.64117187 18.30398437 7.74609375 19.13671875 C7.82988281 19.75160156 7.91367188 20.36648437 8 21 C8.33 20.01 8.66 19.02 9 18 C9.99 18 10.98 18 12 18 C11.67 17.01 11.34 16.02 11 15 C10.34 15 9.68 15 9 15 C9 14.01 9 13.02 9 12 C9.66 12 10.32 12 11 12 C10.67 9.69 10.34 7.38 10 5 C10.66 5 11.32 5 12 5 C13.00926479 9.15626368 13.10239579 13.04365094 13.0625 17.3125 C13.05347656 18.56675781 13.04445312 19.82101563 13.03515625 21.11328125 C13.02355469 22.06589844 13.01195312 23.01851562 13 24 C8.125 25.125 8.125 25.125 7 24 C5.865625 23.896875 4.73125 23.79375 3.5625 23.6875 C0 23 0 23 -1.21484375 21.34765625 C-2.20757708 18.37933421 -2.19291552 15.87411392 -2.125 12.75 C-2.10695312 11.67234375 -2.08890625 10.5946875 -2.0703125 9.484375 C-2.04710937 8.66453125 -2.02390625 7.8446875 -2 7 C-0.35 6.67 1.3 6.34 3 6 C2.01 4.02 1.02 2.04 0 0 Z " transform="translate(135,110)" style="fill: #8A7C66;"/><path d="M0 0 C0.85329541 3.09319586 1 5.79336115 1 9 C-0.32 9.33 -1.64 9.66 -3 10 C-3.12375 10.556875 -3.2475 11.11375 -3.375 11.6875 C-5.13419913 18.1965368 -5.13419913 18.1965368 -7.46484375 20.359375 C-9.33665472 22.35978367 -9.89370803 24.07932638 -10.6875 26.6875 C-10.93886719 27.49574219 -11.19023437 28.30398437 -11.44921875 29.13671875 C-11.63097656 29.75160156 -11.81273437 30.36648437 -12 31 C-12.33 30.34 -12.66 29.68 -13 29 C-15.64 29.66 -18.28 30.32 -21 31 C-21.33 29.35 -21.66 27.7 -22 26 C-21.34 26 -20.68 26 -20 26 C-19.79375 25.34 -19.5875 24.68 -19.375 24 C-17.24778369 19.35880078 -14.16744564 15.14438771 -10.53125 11.546875 C-7.93568932 8.92482901 -5.83610349 5.9047569 -3.62109375 2.9609375 C-2 1 -2 1 0 0 Z " transform="translate(151,41)" style="fill: #A79984;"/><path d="M0 0 C0.33 1.32 0.66 2.64 1 4 C2.32 4.33 3.64 4.66 5 5 C4.51219512 9.63414634 4.51219512 9.63414634 2.25 11.25 C-0.15143459 12.0504782 -2.50429527 12.58404921 -5 13 C-3.86695008 16.39914975 -2.87481525 17.05254451 0 19 C-0.33 19.66 -0.66 20.32 -1 21 C-2.62918007 19.73452987 -4.25320642 18.46242272 -5.875 17.1875 C-6.77992187 16.47980469 -7.68484375 15.77210937 -8.6171875 15.04296875 C-12.36648044 11.82841103 -13.26060089 9.82111653 -13 5 C-12.34 5 -11.68 5 -11 5 C-11 4.34 -11 3.68 -11 3 C-7.14243493 0.84694043 -4.44870215 -0.39253254 0 0 Z " transform="translate(105,99)" style="fill: #7D7466;"/><path d="M0 0 C3.39237224 0 4.19479458 3.06096361 5.8359375 5.7578125 C6.91626195 7.83870591 7.57002482 9.67056748 8.125 11.9375 C8.64119043 15.33890084 8.64119043 15.33890084 12 16 C10.42105263 32.57894737 10.42105263 32.57894737 7 36 C4.375 35.625 4.375 35.625 2 35 C2 33.02 2 31.04 2 29 C-0.64 29 -3.28 29 -6 29 C-6 28.34 -6 27.68 -6 27 C-6.99 27 -7.98 27 -9 27 C-9 26.34 -9 25.68 -9 25 C-7.60386935 25.14295891 -6.20810692 25.28951558 -4.8125 25.4375 C-4.03519531 25.51871094 -3.25789062 25.59992188 -2.45703125 25.68359375 C0.04640786 26.00597621 2.52490524 26.50498105 5 27 C5 20.73 5 14.46 5 8 C4.34 8 3.68 8 3 8 C0 2.25 0 2.25 0 0 Z " transform="translate(142,107)" style="fill: #17130F;"/><path d="M0 0 C4.32600759 -0.19663671 7.79238595 -0.20761405 11 3 C11.33 2.01 11.66 1.02 12 0 C14.23551759 3.35327639 14.17283528 3.90743657 13.625 7.6875 C13.45871094 8.89986328 13.45871094 8.89986328 13.2890625 10.13671875 C13.19367188 10.75160156 13.09828125 11.36648437 13 12 C12.01 11.34 11.02 10.68 10 10 C9.690625 10.804375 9.38125 11.60875 9.0625 12.4375 C8 15 8 15 7 16 C6.76712992 17.68183948 6.58735834 19.3712416 6.4375 21.0625 C6.35371094 21.98160156 6.26992187 22.90070313 6.18359375 23.84765625 C6.12300781 24.55792969 6.06242187 25.26820312 6 26 C2.07519886 24.2873595 1.49342375 22.98246332 0 19 C-0.99 18.34 -1.98 17.68 -3 17 C-3 16.01 -3 15.02 -3 14 C-2.43410156 13.84144531 -1.86820312 13.68289062 -1.28515625 13.51953125 C3.50420962 12.23391188 3.50420962 12.23391188 6 8.3125 C6 7.549375 6 6.78625 6 6 C5.01 5.67 4.02 5.34 3 5 C2.6278958 3.67696283 2.29369827 2.34262065 2 1 C1.34 0.67 0.68 0.34 0 0 Z " transform="translate(103,98)" style="fill: #6C6258;"/><path d="M0 0 C0 0.66 0 1.32 0 2 C0.66 2 1.32 2 2 2 C4.80541099 6.20811648 3.85569482 8.09920241 3 13 C2.67 13.66 2.34 14.32 2 15 C1.34 15 0.68 15 0 15 C-0.33 15.66 -0.66 16.32 -1 17 C-1 16.34 -1 15.68 -1 15 C-1.99 15 -2.98 15 -4 15 C-4 15.99 -4 16.98 -4 18 C-4.66 18 -5.32 18 -6 18 C-6.185625 17.1028125 -6.185625 17.1028125 -6.375 16.1875 C-6.95475985 13.73768652 -6.95475985 13.73768652 -9 11 C-9.66563945 4.01078582 -9.66563945 4.01078582 -7.3125 0.4375 C-4.40378426 -1.3706206 -3.178623 -1.059541 0 0 Z " transform="translate(141,173)" style="fill: #413E37;"/><path d="M0 0 C2.71094566 0 3.29474736 0.98470143 5 3 C5 3.66 5 4.32 5 5 C7.475 5.99 7.475 5.99 10 7 C10 7.66 10 8.32 10 9 C10.66 9 11.32 9 12 9 C11.45463844 12.81753091 9.80462625 14.45033977 7 17 C6.34 17.66 5.68 18.32 5 19 C4.34 19 3.68 19 3 19 C2.67 19.66 2.34 20.32 2 21 C1.34 21 0.68 21 0 21 C0.33 22.32 0.66 23.64 1 25 C0.34 25 -0.32 25 -1 25 C-0.67 29.29 -0.34 33.58 0 38 C-0.66 38 -1.32 38 -2 38 C-4.64534322 29.00149641 -3.60466992 20.64228178 0.90625 12.53515625 C2.84772122 8.03510331 2.55364202 4.14966829 0 0 Z " transform="translate(114,97)" style="fill: #887B68;"/><path d="M0 0 C0.66 0 1.32 0 2 0 C1.67 0.7425 1.34 1.485 1 2.25 C-0.71820548 6.97506507 0.2523478 9.61594335 2.265625 13.984375 C3.56145541 17.54101591 3.7530872 21.24522264 4 25 C3.34 25 2.68 25 2 25 C2 25.99 2 26.98 2 28 C2.99 27.67 3.98 27.34 5 27 C5 28.32 5 29.64 5 31 C4.01 31 3.02 31 2 31 C1.67 32.32 1.34 33.64 1 35 C-0.30828506 30.51445123 -1 25.66553608 -1 21 C-1.81561782 15.51962414 -1.81561782 15.51962414 -6.125 12.5625 C-7.07375 12.376875 -8.0225 12.19125 -9 12 C-8.44397475 8.43217129 -7.31393174 7.07770886 -4.5 4.875 C-1.8119616 2.80112319 -1.8119616 2.80112319 0 0 Z " transform="translate(142,97)" style="fill: #948770;"/><path d="M0 0 C-0.96514608 4.08244405 -2.40018432 7.95414856 -3.875 11.875 C-4.25978516 12.91720703 -4.25978516 12.91720703 -4.65234375 13.98046875 C-5.8585075 17.19892579 -7.12091356 20.23900863 -8.67578125 23.3125 C-10.92848979 27.88436867 -10.65486453 31.68584513 -8 36 C-9.65 35.34 -11.3 34.68 -13 34 C-13 31.69 -13 29.38 -13 27 C-13.66 27 -14.32 27 -15 27 C-15 25.35 -15 23.7 -15 22 C-14.01 21.67 -13.02 21.34 -12 21 C-11.87625 20.2575 -11.7525 19.515 -11.625 18.75 C-10.18604651 12.41860465 -10.18604651 12.41860465 -6.875 11.25 C-5.946875 11.12625 -5.946875 11.12625 -5 11 C-5 10.34 -5 9.68 -5 9 C-5.66 8.67 -6.32 8.34 -7 8 C-6.835 7.236875 -6.67 6.47375 -6.5 5.6875 C-5.90854604 2.96403764 -5.90854604 2.96403764 -6 0 C-4.25903764 -1.74096236 -2.20864831 -0.50968807 0 0 Z " transform="translate(157,39)" style="fill: #6C6252;"/><path d="M0 0 C4 1 4 1 4.75 3.25 C5.09039874 6.99438616 3.88418144 7.77506003 1 10 C0.34 10 -0.32 10 -1 10 C-1.061875 10.61875 -1.12375 11.2375 -1.1875 11.875 C-2.35594934 14.93094444 -3.94428664 15.18017446 -7 16 C-10.02600532 14.48699734 -10.58742015 12.00173218 -12 9 C-12.4125 8.2575 -12.825 7.515 -13.25 6.75 C-14 5 -14 5 -13 3 C-12.34 3 -11.68 3 -11 3 C-11 3.66 -11 4.32 -11 5 C-10.01 4.67 -9.02 4.34 -8 4 C-8 4.66 -8 5.32 -8 6 C-7.01 5.67 -6.02 5.34 -5 5 C-4.34 5.33 -3.68 5.66 -3 6 C-3 5.34 -3 4.68 -3 4 C-2.360625 3.87625 -1.72125 3.7525 -1.0625 3.625 C1.19602897 3.21318657 1.19602897 3.21318657 2 1 C1.34 0.67 0.68 0.34 0 0 Z " transform="translate(158,103)" style="fill: #504B44;"/><path d="M0 0 C4.28872082 0.44366077 4.96606059 2.42026663 7 6 C7.845625 6.845625 8.69125 7.69125 9.5625 8.5625 C11.70847194 10.70847194 12.8726615 12.23289641 14 15 C13.01 15.33 12.02 15.66 11 16 C8 12.25 8 12.25 8 10 C7.01 10.495 7.01 10.495 6 11 C7.07182608 14.57275361 8.37098325 17.78460344 10.125 21.0625 C11.74338653 24.1853866 12.44752547 26.41979628 12 30 C11.34 30 10.68 30 10 30 C9.76812988 29.44538086 9.53625977 28.89076172 9.29736328 28.31933594 C8.24133155 25.79562592 7.18318748 23.27280684 6.125 20.75 C5.76019531 19.87730469 5.39539063 19.00460938 5.01953125 18.10546875 C4.66503906 17.26113281 4.31054688 16.41679688 3.9453125 15.546875 C3.62062988 14.77182617 3.29594727 13.99677734 2.96142578 13.19824219 C2.03511528 10.99513711 2.03511528 10.99513711 0.88623047 8.95019531 C-0.45628772 5.99591562 -0.12281859 3.19328327 0 0 Z " transform="translate(103,38)" style="fill: #8A7F6E;"/><path d="M0 0 C1.57554035 2.88628401 2.46276373 5.53342384 3.125 8.75 C3.29257813 9.54921875 3.46015625 10.3484375 3.6328125 11.171875 C3.81457031 12.07679688 3.81457031 12.07679688 4 13 C4.66 13 5.32 13 6 13 C6.33 13.66 6.66 14.32 7 15 C9.31 14.34 11.62 13.68 14 13 C13.49701212 17.40114397 11.91227269 19.71195019 9 23 C6 22 6 22 5 19 C4.67 19.99 4.34 20.98 4 22 C3.34 22 2.68 22 2 22 C0.57374434 14.58856436 -0.30071865 7.55137932 0 0 Z " transform="translate(105,126)" style="fill: #3F382F;"/><path d="M0 0 C0.66 0.33 1.32 0.66 2 1 C2 1.66 2 2.32 2 3 C3.7325 3.12375 3.7325 3.12375 5.5 3.25 C12.62853082 4.16002521 17.96074968 6.94112452 22 13 C20.35 15.31 18.7 17.62 17 20 C15 19 15 19 14 17 C14.66 17 15.32 17 16 17 C16.99808343 10.14141079 16.99808343 10.14141079 13.625 8.5625 C9.21602576 6.66208007 4.82719174 5.6178127 0 6 C-2.64712983 8.04123123 -3.43592253 9.72835069 -4 13 C-7 12 -7 12 -7.6875 9.9375 C-7.790625 9.298125 -7.89375 8.65875 -8 8 C-7.34 8 -6.68 8 -6 8 C-5.67 7.01 -5.34 6.02 -5 5 C-3.37347684 3.29413425 -1.70993434 1.6222454 0 0 Z " transform="translate(148,94)" style="fill: #342E27;"/><path d="M0 0 C0.66 0 1.32 0 2 0 C3.00926479 4.15626368 3.10239579 8.04365094 3.0625 12.3125 C3.05347656 13.56675781 3.04445312 14.82101563 3.03515625 16.11328125 C3.02355469 17.06589844 3.01195312 18.01851562 3 19 C-1.875 20.125 -1.875 20.125 -3 19 C-5.32817964 18.63239269 -7.6618385 18.29758419 -10 18 C-10.33 16.68 -10.66 15.36 -11 14 C-8.92446352 13.4465236 -7.15634036 13 -5 13 C-5.33 10.36 -5.66 7.72 -6 5 C-5.34 5 -4.68 5 -4 5 C-3.34 7.97 -2.68 10.94 -2 14 C-1.67 13.67 -1.34 13.34 -1 13 C-0.01 13 0.98 13 2 13 C1.67 12.01 1.34 11.02 1 10 C0.34 10 -0.32 10 -1 10 C-1 9.01 -1 8.02 -1 7 C-0.34 7 0.32 7 1 7 C0.67 4.69 0.34 2.38 0 0 Z " transform="translate(145,115)" style="fill: #746856;"/><path d="M0 0 C1.65 0.33 3.3 0.66 5 1 C5 1.66 5 2.32 5 3 C7.97 3.495 7.97 3.495 11 4 C12.125 8.75 12.125 8.75 11 11 C10.01 11 9.02 11 8 11 C8.33 11.66 8.66 12.32 9 13 C9.99 13 10.98 13 12 13 C12.33 14.32 12.66 15.64 13 17 C13.66 17 14.32 17 15 17 C15 17.66 15 18.32 15 19 C10.82812274 18.50583686 9.12702321 16.32634126 6.4375 13.25 C5.67308594 12.38890625 4.90867187 11.5278125 4.12109375 10.640625 C-1.29804772 3.89414317 -1.29804772 3.89414317 0 0 Z " transform="translate(116,88)" style="fill: #352E24;"/><path d="M0 0 C3 1 3 1 5 3 C5.99 3 6.98 3 8 3 C10 3.5 10 3.5 12 4 C12.99 4 13.98 4 15 4 C14.195625 4.556875 13.39125 5.11375 12.5625 5.6875 C8.26093942 9.84324497 9.08990753 16.41755981 9 22 C9.99 22.33 10.98 22.66 12 23 C10.35 23 8.7 23 7 23 C6.67 21.35 6.34 19.7 6 18 C3.36 18 0.72 18 -2 18 C-1.01 17.67 -0.02 17.34 1 17 C2.21869929 14.49552484 2.21869929 14.49552484 3 12 C4.32 12 5.64 12 7 12 C7.33 10.68 7.66 9.36 8 8 C7.01 7.67 6.02 7.34 5 7 C5 6.34 5 5.68 5 5 C4.01 4.67 3.02 4.34 2 4 C0.8125 1.9375 0.8125 1.9375 0 0 Z " transform="translate(119,59)" style="fill: #877A64;"/><path d="M0 0 C0.66 0 1.32 0 2 0 C2.680625 1.2375 2.680625 1.2375 3.375 2.5 C4.86637305 5.55896241 4.86637305 5.55896241 9 5 C9 5.99 9 6.98 9 8 C8.01 8.495 8.01 8.495 7 9 C7.66 9.66 8.32 10.32 9 11 C9.5625 12.875 9.5625 12.875 10 15 C10.185625 15.7425 10.37125 16.485 10.5625 17.25 C10.706875 17.8275 10.85125 18.405 11 19 C12.32 19 13.64 19 15 19 C15 19.99 15 20.98 15 22 C13.33157466 21.67558396 11.66519519 21.34060811 10 21 C8.97132812 20.86078125 8.97132812 20.86078125 7.921875 20.71875 C5.23211435 19.71282325 5.20817429 18.65372114 4.5 15.9375 C3.33070318 11.86444941 1.76097705 8.40519872 -0.328125 4.7265625 C-1 3 -1 3 0 0 Z " transform="translate(109,48)" style="fill: #A79B86;"/><path d="M0 0 C1.26237731 2.52475462 1.09856404 4.31200466 1.0625 7.125 C1.05347656 8.03507813 1.04445312 8.94515625 1.03515625 9.8828125 C1.02355469 10.58148438 1.01195312 11.28015625 1 12 C1.66 12 2.32 12 3 12 C2.67 8.7 2.34 5.4 2 2 C2.99 1.34 3.98 0.68 5 0 C7.17315341 2.17315341 6.35520023 6.15378517 6 9 C4.8833948 12.43758368 3.50708089 15.71671663 2 19 C-2.0784062 12.88239071 -3.80454206 8.34918227 -3 1 C-2 0 -2 0 0 0 Z " transform="translate(128,193)" style="fill: #16140F;"/><path d="M0 0 C0.33 0.99 0.66 1.98 1 3 C2.31266518 4.35368596 3.64567325 5.68799596 5 7 C6.35439668 9.70879335 6.06501451 12.00933268 6 15 C3 16 3 16 -0.0625 13.6875 C-1.73687516 12.15562486 -3.3952923 10.6047077 -5 9 C-3.68 8.67 -2.36 8.34 -1 8 C-1 6.68 -1 5.36 -1 4 C-2.32 4 -3.64 4 -5 4 C-5 3.01 -5 2.02 -5 1 C-3 0 -3 0 0 0 Z " transform="translate(166,90)" style="fill: #60594E;"/><path d="M0 0 C0.66 0 1.32 0 2 0 C2 4.95 2 9.9 2 15 C1.01 15.495 1.01 15.495 0 16 C2.31 16 4.62 16 7 16 C7 16.99 7 17.98 7 19 C6.01 19 5.02 19 4 19 C4 22.3 4 25.6 4 29 C3.34 29 2.68 29 2 29 C1.67 25.04 1.34 21.08 1 17 C-0.98 17.99 -0.98 17.99 -3 19 C-2.6920761 16.20775806 -2.37887563 13.41628573 -2.0625 10.625 C-1.97548828 9.8309375 -1.88847656 9.036875 -1.79882812 8.21875 C-1.11328125 2.2265625 -1.11328125 2.2265625 0 0 Z " transform="translate(127,176)" style="fill: #827867;"/><path d="M0 0 C-0.33 1.32 -0.66 2.64 -1 4 C0.32 4.99 1.64 5.98 3 7 C2.67 7.99 2.34 8.98 2 10 C1.34 10 0.68 10 0 10 C0.33 11.32 0.66 12.64 1 14 C-2 14 -2 14 -4 12 C-7.17708333 12.61458333 -7.17708333 12.61458333 -7.6875 15.0625 C-7.790625 15.701875 -7.89375 16.34125 -8 17 C-8.6875 15.1875 -8.6875 15.1875 -9 13 C-8.505 12.54625 -8.01 12.0925 -7.5 11.625 C-5.59257235 9.99571828 -5.59257235 9.99571828 -6.5625 7.0625 C-7 4 -7 4 -5.25 1.625 C-3 0 -3 0 0 0 Z " transform="translate(152,83)" style="fill: #7F7361;"/><path d="M0 0 C2.96175123 0.61277612 4.38058783 1.25372522 7 3 C6.01 3.495 6.01 3.495 5 4 C4.67 4.99 4.34 5.98 4 7 C3.01 7 2.02 7 1 7 C1 7.66 1 8.32 1 9 C0.34 9 -0.32 9 -1 9 C-1.33 10.98 -1.66 12.96 -2 15 C-4.475 14.01 -4.475 14.01 -7 13 C-6.59332615 8.11991385 -4.74556487 6.90281278 -1 4 C-0.13034494 1.87053397 -0.13034494 1.87053397 0 0 Z " transform="translate(94,76)" style="fill: #4C463E;"/><path d="M0 0 C0.99 0.33 1.98 0.66 3 1 C3 3.97 3 6.94 3 10 C4.32 10.33 5.64 10.66 7 11 C7.33 13.97 7.66 16.94 8 20 C7.34 20 6.68 20 6 20 C5.34 21.32 4.68 22.64 4 24 C3.01 23.67 2.02 23.34 1 23 C1.66 22.34 2.32 21.68 3 21 C3.16687448 18.41645782 3.16687448 18.41645782 3 16 C2.01 15.67 1.02 15.34 0 15 C0.17402344 14.45859375 0.34804687 13.9171875 0.52734375 13.359375 C1.09766505 10.51248191 0.87137301 8.13281478 0.5625 5.25 C0.46066406 4.26515625 0.35882813 3.2803125 0.25390625 2.265625 C0.17011719 1.51796875 0.08632812 0.7703125 0 0 Z " transform="translate(120,154)" style="fill: #81796B;"/><path d="M0 0 C0.99 2.97 1.98 5.94 3 9 C1.02 9.33 -0.96 9.66 -3 10 C-3.33 9.34 -3.66 8.68 -4 8 C-6.02463255 7.34786708 -6.02463255 7.34786708 -8 7 C-8.33 5.35 -8.66 3.7 -9 2 C-5.86501708 0.14223235 -3.62528568 -0.20140476 0 0 Z " transform="translate(105,99)" style="fill: #9C9080;"/><path d="M0 0 C1.32 0 2.64 0 4 0 C4 0.66 4 1.32 4 2 C5.65 2 7.3 2 9 2 C9 4.64 9 7.28 9 10 C8.67 10 8.34 10 8 10 C8 8.02 8 6.04 8 4 C7.01 4.495 7.01 4.495 6 5 C6 5.99 6 6.98 6 8 C5.34 8 4.68 8 4 8 C4 7.01 4 6.02 4 5 C3.01 5 2.02 5 1 5 C0.5978125 6.7015625 0.5978125 6.7015625 0.1875 8.4375 C-1 12 -1 12 -4 13 C-4.08004482 9.4780279 -4.04005702 6.38018531 -3 3 C-2.34 3 -1.68 3 -1 3 C-0.67 2.01 -0.34 1.02 0 0 Z " transform="translate(117,115)" style="fill: #6D614F;"/><path d="M0 0 C1.33521524 6.31192661 1.33521524 6.31192661 -0.1875 9.4375 C-2 11 -2 11 -6 11 C-7.50662097 7.98675805 -7.17770373 5.31713623 -7 2 C-4.48380552 -0.51619448 -3.42535143 -0.18028165 0 0 Z " transform="translate(141,152)" style="fill: #4D483E;"/><path d="M0 0 C1.98 0.99 1.98 0.99 4 2 C4 2.66 4 3.32 4 4 C4.66 4 5.32 4 6 4 C6.33 6.64 6.66 9.28 7 12 C6.34 12 5.68 12 5 12 C5 12.99 5 13.98 5 15 C5.99 14.67 6.98 14.34 8 14 C8 15.32 8 16.64 8 18 C7.01 18 6.02 18 5 18 C4.67 19.32 4.34 20.64 4 22 C2.69171494 17.51445123 2 12.66553608 2 8 C1.68956008 6.61965107 1.35353423 5.24494513 1 3.875 C0.814375 3.15054688 0.62875 2.42609375 0.4375 1.6796875 C0.293125 1.12539062 0.14875 0.57109375 0 0 Z " transform="translate(139,110)" style="fill: #91856F;"/><path d="M0 0 C1.32 0 2.64 0 4 0 C4.226875 0.598125 4.45375 1.19625 4.6875 1.8125 C6.33811133 4.56351888 8.1972081 5.52484637 11 7 C10.34 7.66 9.68 8.32 9 9 C8.01 8.67 7.02 8.34 6 8 C5.01 8.33 4.02 8.66 3 9 C3 8.34 3 7.68 3 7 C2.34 7 1.68 7 1 7 C0.67 7.99 0.34 8.98 0 10 C0 9.01 0 8.02 0 7 C-0.66 6.67 -1.32 6.34 -2 6 C-2.33 5.01 -2.66 4.02 -3 3 C-2.34 3 -1.68 3 -1 3 C-0.67 2.01 -0.34 1.02 0 0 Z " transform="translate(158,76)" style="fill: #615A4E;"/><path d="M0 0 C4.32600759 -0.19663671 7.79238595 -0.20761405 11 3 C11.33 2.01 11.66 1.02 12 0 C14.23551759 3.35327639 14.17283528 3.90743657 13.625 7.6875 C13.45871094 8.89986328 13.45871094 8.89986328 13.2890625 10.13671875 C13.19367188 10.75160156 13.09828125 11.36648437 13 12 C8.2 9.66153846 8.2 9.66153846 7.1875 6.3125 C7.125625 5.549375 7.06375 4.78625 7 4 C5.35 3.67 3.7 3.34 2 3 C2 2.34 2 1.68 2 1 C1.34 0.67 0.68 0.34 0 0 Z " transform="translate(103,98)" style="fill: #5A5247;"/><path d="M0 0 C2.88437779 1.29299694 4.87219421 2.65941363 7 5 C7.28875 4.360625 7.5775 3.72125 7.875 3.0625 C9 1 9 1 11 0 C10.69320312 0.52078125 10.38640625 1.0415625 10.0703125 1.578125 C8.72751849 4.61656401 8.3350559 7.46388645 7.875 10.75 C7.62363281 12.50570312 7.62363281 12.50570312 7.3671875 14.296875 C7.24601563 15.18890625 7.12484375 16.0809375 7 17 C6.34 17 5.68 17 5 17 C4.67 14.69 4.34 12.38 4 10 C1.03 9.505 1.03 9.505 -2 9 C-2 8.67 -2 8.34 -2 8 C-0.35 8 1.3 8 3 8 C1.69844994 3.92035719 1.69844994 3.92035719 0 0 Z " transform="translate(123,82)" style="fill: #6B6050;"/><path d="M0 0 C0.85329541 3.09319586 1 5.79336115 1 9 C0.360625 9.103125 -0.27875 9.20625 -0.9375 9.3125 C-3.38541667 9.82291667 -3.38541667 9.82291667 -4 13 C-4 12.34 -4 11.68 -4 11 C-5.65 11.33 -7.3 11.66 -9 12 C-7.44435978 7.19165749 -4.66320233 2.33160117 0 0 Z " transform="translate(151,41)" style="fill: #958975;"/><path d="M0 0 C0.66 0 1.32 0 2 0 C4.29342747 5.89738492 5.34548714 10.66606918 5 17 C4.67 15.68 4.34 14.36 4 13 C3.01 13 2.02 13 1 13 C0.67 13.66 0.34 14.32 0 15 C-1.2063366 9.77254141 -0.75612577 5.23471686 0 0 Z " transform="translate(123,152)" style="fill: #676259;"/><path d="M0 0 C0.66 0.33 1.32 0.66 2 1 C1.01 2.485 1.01 2.485 0 4 C1.65 4 3.3 4 5 4 C3.75006004 7.74981988 2.2769294 8.86618551 -1 11 C-3.16796875 10.609375 -3.16796875 10.609375 -5 10 C-3.375 2.25 -3.375 2.25 0 0 Z " transform="translate(92,93)" style="fill: #7C7367;"/><path d="M0 0 C1.86147585 3.12094438 2.18021788 4.94729191 1.609375 8.51953125 C1.47660156 9.37740234 1.34382812 10.23527344 1.20703125 11.11914062 C1.05621094 12.00794922 0.90539062 12.89675781 0.75 13.8125 C0.61464844 14.68970703 0.47929687 15.56691406 0.33984375 16.47070312 C-0.45584477 21.44189731 -1.50479312 26.19304104 -3 31 C-3.33 31 -3.66 31 -4 31 C-4.18550299 25.8986679 -3.79419638 21.5948053 -2.578125 16.65234375 C-1.38158119 11.16279476 -0.74422555 5.56585703 0 0 Z " transform="translate(149,146)" style="fill: #615A50;"/><path d="M0 0 C-0.32433508 5.35152885 -3.49704824 8.28280043 -7 12 C-8.32 11.67 -9.64 11.34 -11 11 C-10.54625 10.62875 -10.0925 10.2575 -9.625 9.875 C-7.53405682 7.46237325 -6.96337027 5.01856017 -6 2 C-4 0 -4 0 0 0 Z " transform="translate(144,56)" style="fill: #B1A592;"/><path d="M0 0 C-1.423125 1.0209375 -1.423125 1.0209375 -2.875 2.0625 C-7.24283119 6.30700419 -7.17246249 12.0010119 -7.67578125 17.734375 C-8 21 -8 21 -9 23 C-9.66 23 -10.32 23 -11 23 C-10.855625 22.030625 -10.71125 21.06125 -10.5625 20.0625 C-10.03708809 16.42161749 -9.64532072 12.77349226 -9.28125 9.11328125 C-8.56789328 3.75319813 -6.49732188 -2.16577396 0 0 Z " transform="translate(162,116)" style="fill: #423C32;"/><path d="M0 0 C1.65 0.33 3.3 0.66 5 1 C5.33 4.3 5.66 7.6 6 11 C5.34 10.34 4.68 9.68 4 9 C3.01 10.485 3.01 10.485 2 12 C0.68 12 -0.64 12 -2 12 C-1.67 12.99 -1.34 13.98 -1 15 C-2.65 14.67 -4.3 14.34 -6 14 C-6 13.01 -6 12.02 -6 11 C-5.43410156 10.84144531 -4.86820312 10.68289062 -4.28515625 10.51953125 C0.50420962 9.23391188 0.50420962 9.23391188 3 5.3125 C3 4.549375 3 3.78625 3 3 C2.01 2.67 1.02 2.34 0 2 C0 1.34 0 0.68 0 0 Z " transform="translate(106,101)" style="fill: #665D55;"/><path d="M0 0 C2.71094566 0 3.29474736 0.98470143 5 3 C5 3.66 5 4.32 5 5 C6.32 5.33 7.64 5.66 9 6 C8.49763033 9.76777251 8.49763033 9.76777251 6.125 10.875 C3.03948202 12.50850952 2.35580128 14.88165706 1 18 C-0.26517183 14.45751888 0.37090453 13.25819093 2 10 C2.33083127 6.0300247 2.09972674 3.41205596 0 0 Z " transform="translate(114,97)" style="fill: #9D907B;"/><path d="M0 0 C0 0.66 0 1.32 0 2 C-2.97 1.505 -2.97 1.505 -6 1 C-6 1.66 -6 2.32 -6 3 C-7.65 2.67 -9.3 2.34 -11 2 C-11.33 4.64 -11.66 7.28 -12 10 C-14.46278801 7.53721199 -14.99771255 5.29323018 -16 2 C-10.02735588 -1.19467011 -6.33824416 -3.07857574 0 0 Z " transform="translate(128,150)" style="fill: #3B3732;"/><path d="M0 0 C4.15623251 0.44932243 6.16275702 1.12137593 8 5 C7.6875 8.75 7.6875 8.75 7 12 C6.34 12 5.68 12 5 12 C5 11.01 5 10.02 5 9 C4.34 9 3.68 9 3 9 C0.56839395 5.63316085 0 4.26649636 0 0 Z " transform="translate(139,139)" style="fill: #534A3C;"/><path d="M0 0 C2 0 2 0 3 1.625 C4.48169728 5.14403104 4.72908847 8.54182307 3 12 C2.34 12 1.68 12 1 12 C1 11.01 1 10.02 1 9 C0.01 8.67 -0.98 8.34 -2 8 C-1.67 7.34 -1.34 6.68 -1 6 C-1.9590625 5.566875 -1.9590625 5.566875 -2.9375 5.125 C-5 4 -5 4 -6 2 C-3.525 2.99 -3.525 2.99 -1 4 C-0.67 2.68 -0.34 1.36 0 0 Z " transform="translate(156,84)" style="fill: #9A8E7B;"/><path d="M0 0 C3 1 3 1 5 3 C5.99 3 6.98 3 8 3 C10 3.5 10 3.5 12 4 C12.99 4 13.98 4 15 4 C13.7934375 5.051875 13.7934375 5.051875 12.5625 6.125 C9.76566189 9.26291593 9.28691249 10.88758763 9 15 C8.67 15 8.34 15 8 15 C8 12.69 8 10.38 8 8 C7.01 7.67 6.02 7.34 5 7 C5 6.34 5 5.68 5 5 C4.01 4.67 3.02 4.34 2 4 C0.8125 1.9375 0.8125 1.9375 0 0 Z " transform="translate(119,59)" style="fill: #7B6F5C;"/><path d="M0 0 C0.66 0.66 1.32 1.32 2 2 C2.66 2 3.32 2 4 2 C4 4 4 4 1 6 C1 7.32 1 8.64 1 10 C1.66 10.33 2.32 10.66 3 11 C3 11.66 3 12.32 3 13 C1.35 13 -0.3 13 -2 13 C-3.58512383 9.82975235 -3.42372144 6.45332972 -3 3 C-1.5 1 -1.5 1 0 0 Z " transform="translate(135,173)" style="fill: #73695D;"/><path d="M0 0 C4.8 1.35384615 4.8 1.35384615 5.8125 4.625 C5.874375 5.40875 5.93625 6.1925 6 7 C4.02 7.99 4.02 7.99 2 9 C1.67 8.67 1.34 8.34 1 8 C0.34 8.66 -0.32 9.32 -1 10 C-3 8 -3 8 -3 5 C-2.01 5 -1.02 5 0 5 C0 3.35 0 1.7 0 0 Z " transform="translate(118,168)" style="fill: #453F37;"/><path d="M0 0 C0.66 0 1.32 0 2 0 C2 0.66 2 1.32 2 2 C2.99 1.67 3.98 1.34 5 1 C5 1.66 5 2.32 5 3 C5.99 2.67 6.98 2.34 8 2 C8.66 2.33 9.32 2.66 10 3 C10.33 2.34 10.66 1.68 11 1 C10.67 2.65 10.34 4.3 10 6 C8.02 6 6.04 6 4 6 C4.33 7.32 4.66 8.64 5 10 C0.125 5.375 0.125 5.375 -1 2 C-0.67 1.34 -0.34 0.68 0 0 Z " transform="translate(145,106)" style="fill: #665F55;"/><path d="M0 0 C0 0.66 0 1.32 0 2 C-0.66 2 -1.32 2 -2 2 C-1.34 3.98 -0.68 5.96 0 8 C-5.94 8.495 -5.94 8.495 -12 9 C-8 7 -8 7 -6 7 C-6 5.68 -6 4.36 -6 3 C-6.66 2.67 -7.32 2.34 -8 2 C-2.25 0 -2.25 0 0 0 Z " transform="translate(144,80)" style="fill: #0F0C08;"/><path d="M0 0 C1.32 0.33 2.64 0.66 4 1 C4 1.99 4 2.98 4 4 C4.66 4 5.32 4 6 4 C5.67 2.68 5.34 1.36 5 0 C5.99 0 6.98 0 8 0 C8.05395478 1.62463842 8.09277195 3.24978541 8.125 4.875 C8.14820312 5.77992187 8.17140625 6.68484375 8.1953125 7.6171875 C8 10 8 10 6 12 C5.67 11.34 5.34 10.68 5 10 C4.01 9.67 3.02 9.34 2 9 C3.32 8.67 4.64 8.34 6 8 C6 7.34 6 6.68 6 6 C5.01 6.33 4.02 6.66 3 7 C2.01 4.69 1.02 2.38 0 0 Z " transform="translate(117,119)" style="fill: #928570;"/><path d="M0 0 C3.03758616 0.30375862 3.76726789 0.58994818 5.3125 3.3125 C6.02519579 6.09849265 6.20533413 7.40389571 5 10 C4.01 10.33 3.02 10.66 2 11 C-0.32590854 7.36576791 -0.16265833 4.22911669 0 0 Z " transform="translate(103,38)" style="fill: #897F73;"/><path d="M0 0 C0.66 0 1.32 0 2 0 C2.09796875 0.62648438 2.1959375 1.25296875 2.296875 1.8984375 C2.52117187 3.12433594 2.52117187 3.12433594 2.75 4.375 C2.88921875 5.18710938 3.0284375 5.99921875 3.171875 6.8359375 C4.22138702 9.57853024 5.31055491 10.00512397 8 11 C7.34 11.66 6.68 12.32 6 13 C5.34 12.67 4.68 12.34 4 12 C2.68 12 1.36 12 0 12 C0 8.04 0 4.08 0 0 Z " transform="translate(133,117)" style="fill: #887E68;"/><path d="M0 0 C2.64 0 5.28 0 8 0 C8.33 0.99 8.66 1.98 9 3 C6.69 3.66 4.38 4.32 2 5 C2.33 6.32 2.66 7.64 3 9 C2.01 9 1.02 9 0 9 C-1.4606285 6.35261084 -2 5.10551666 -2 2 C-0.68 2 0.64 2 2 2 C1.34 1.67 0.68 1.34 0 1 C0 0.67 0 0.34 0 0 Z " transform="translate(135,77)" style="fill: #41392E;"/><path d="M0 0 C0 0.99 0 1.98 0 3 C0.66 3 1.32 3 2 3 C1.95875 4.2375 1.9175 5.475 1.875 6.75 C1.86341709 10.01637962 2.1431298 12.2146947 4 15 C1.525 14.01 1.525 14.01 -1 13 C-1 10.69 -1 8.38 -1 6 C-1.66 6 -2.32 6 -3 6 C-3.15384615 0 -3.15384615 0 0 0 Z " transform="translate(145,60)" style="fill: #796E5D;"/><path d="M0 0 C-0.66 0.66 -1.32 1.32 -2 2 C-2 3.32 -2 4.64 -2 6 C-3.175625 6.2165625 -3.175625 6.2165625 -4.375 6.4375 C-6.96421018 6.87798925 -6.96421018 6.87798925 -9 8 C-9.36407767 3.50970874 -9.36407767 3.50970874 -7.75 1.25 C-5.03027335 -0.69266189 -3.07077395 -1.53538697 0 0 Z " transform="translate(113,77)" style="fill: #AB9F8A;"/><path d="M0 0 C1.32 0.99 2.64 1.98 4 3 C3.67 3.99 3.34 4.98 3 6 C3.66 6 4.32 6 5 6 C5 5.01 5 4.02 5 3 C5.99 3 6.98 3 8 3 C7.67 4.65 7.34 6.3 7 8 C6.34 8 5.68 8 5 8 C4.67 9.32 4.34 10.64 4 12 C1.34668279 7.84698176 0 4.92975386 0 0 Z " transform="translate(132,185)" style="fill: #171410;"/><path d="M0 0 C0.598125 0.78375 1.19625 1.5675 1.8125 2.375 C3.91085249 5.14574323 3.91085249 5.14574323 7 7 C7.33 7.99 7.66 8.98 8 10 C9.99665314 11.68538601 9.99665314 11.68538601 12 13 C11.67 13.66 11.34 14.32 11 15 C-0.29612756 7.1070615 -0.29612756 7.1070615 0 0 Z " transform="translate(93,105)" style="fill: #958877;"/><path d="M0 0 C3.48003168 2.61002376 3.27793052 4.8310422 3 9 C2.01 9.33 1.02 9.66 0 10 C-1.65 8.35 -3.3 6.7 -5 5 C-3.68 4.67 -2.36 4.34 -1 4 C-0.67 2.68 -0.34 1.36 0 0 Z " transform="translate(169,96)" style="fill: #6F6457;"/><path d="M0 0 C0.66 0 1.32 0 2 0 C1.49701212 4.40114397 -0.08772731 6.71195019 -3 10 C-3.99 9.67 -4.98 9.34 -6 9 C-5.6875 7.0625 -5.6875 7.0625 -5 5 C-4.01 4.67 -3.02 4.34 -2 4 C-2 3.34 -2 2.68 -2 2 C-1.34 2 -0.68 2 0 2 C0 1.34 0 0.68 0 0 Z " transform="translate(117,139)" style="fill: #6E6353;"/><path d="M0 0 C0.33 0 0.66 0 1 0 C1.16961386 2.04142394 1.33555596 4.08315311 1.5 6.125 C1.5928125 7.26195312 1.685625 8.39890625 1.78125 9.5703125 C1.9825221 12.72597149 2.03842904 15.83921165 2 19 C-1.29278 17.35361 -1.20119707 14.42344111 -2 11 C-2.125 8.0625 -2.125 8.0625 -2 6 C-1.67 6 -1.34 6 -1 6 C-0.67 4.02 -0.34 2.04 0 0 Z " transform="translate(111,154)" style="fill: #3B3630;"/><path d="M0 0 C0 1.65 0 3.3 0 5 C-3.77897651 6.0497157 -5.64919071 6.10976881 -9 4 C-6.58953923 -0.28526359 -4.76510196 -0.42356462 0 0 Z " transform="translate(155,100)" style="fill: #958977;"/><path d="M0 0 C1.65 0 3.3 0 5 0 C5.99 2.97 6.98 5.94 8 9 C6.02 9.33 4.04 9.66 2 10 C2.875 6.125 2.875 6.125 4 5 C4 4.34 4 3.68 4 3 C2.68 3 1.36 3 0 3 C0 2.01 0 1.02 0 0 Z " transform="translate(100,99)" style="fill: #8F8475;"/><path d="M0 0 C0.33 0 0.66 0 1 0 C1 1.65 1 3.3 1 5 C1.66 5 2.32 5 3 5 C3.33 5.99 3.66 6.98 4 8 C3.01 8.495 3.01 8.495 2 9 C-1 7 -1 7 -1 5 C-1.66 5 -2.32 5 -3 5 C-3.33 5.99 -3.66 6.98 -4 8 C-4.99 7.01 -5.98 6.02 -7 5 C-4.35261084 3.5393715 -3.10551666 3 0 3 C0 2.01 0 1.02 0 0 Z " transform="translate(111,89)" style="fill: #5A5041;"/><path d="M0 0 C3.95313492 3.08838665 4.89191046 6.19827866 6 11 C3 8.25 3 8.25 3 6 C-0.63 5.34 -4.26 4.68 -8 4 C-6.68 3.34 -5.36 2.68 -4 2 C-2 0 -2 0 0 0 Z " transform="translate(110,94)" style="fill: #2D251C;"/><path d="M0 0 C3.52002448 5.28003672 1.1059187 11.3842168 -1 17 C-1.33 17 -1.66 17 -2 17 C-1.85978195 14.35375716 -1.71310224 11.70815422 -1.5625 9.0625 C-1.52318359 8.30775391 -1.48386719 7.55300781 -1.44335938 6.77539062 C-1.11328125 1.11328125 -1.11328125 1.11328125 0 0 Z " transform="translate(135,194)" style="fill: #2F2A22;"/><path d="M0 0 C1.65 0 3.3 0 5 0 C4.34 5.94 3.68 11.88 3 18 C2.67 18 2.34 18 2 18 C1.93941406 17.03578125 1.87882813 16.0715625 1.81640625 15.078125 C1.73261719 13.81484375 1.64882812 12.5515625 1.5625 11.25 C1.48128906 9.99703125 1.40007812 8.7440625 1.31640625 7.453125 C1.07484478 4.81682447 0.75716066 2.51962706 0 0 Z " transform="translate(145,142)" style="fill: #3D372E;"/><path d="M0 0 C0.66 0 1.32 0 2 0 C3.00926479 4.15626368 3.10239579 8.04365094 3.0625 12.3125 C3.05347656 13.56675781 3.04445312 14.82101563 3.03515625 16.11328125 C3.01775391 17.54220703 3.01775391 17.54220703 3 19 C2.67 19 2.34 19 2 19 C1.67 16.03 1.34 13.06 1 10 C0.34 10 -0.32 10 -1 10 C-1 9.01 -1 8.02 -1 7 C-0.34 7 0.32 7 1 7 C0.67 4.69 0.34 2.38 0 0 Z " transform="translate(145,115)" style="fill: #5B5445;"/><path d="M0 0 C0.66 0.66 1.32 1.32 2 2 C1.01 2.33 0.02 2.66 -1 3 C-1.33 3.99 -1.66 4.98 -2 6 C-5.8180453 4.72731823 -5.78274506 3.65176482 -7 0 C-5.09191263 -1.90808737 -2.38384126 -0.53514804 0 0 Z " transform="translate(161,101)" style="fill: #706557;"/><path d="M0 0 C0.99 0.33 1.98 0.66 3 1 C2.34 2.65 1.68 4.3 1 6 C2.32 6 3.64 6 5 6 C4.67 7.32 4.34 8.64 4 10 C3.01 9.67 2.02 9.34 1 9 C1 8.34 1 7.68 1 7 C-0.32 6.67 -1.64 6.34 -3 6 C-2.34 5.34 -1.68 4.68 -1 4 C-0.3574765 1.93125966 -0.3574765 1.93125966 0 0 Z " transform="translate(117,77)" style="fill: #544C3F;"/><path d="M0 0 C2.125 5.75 2.125 5.75 1 8 C-1.0625 8.625 -1.0625 8.625 -3 9 C-3.95173011 5.57377159 -4.90879282 0 0 0 Z " transform="translate(116,161)" style="fill: #4B453E;"/><path d="M0 0 C1.98 0.99 1.98 0.99 4 2 C4 2.66 4 3.32 4 4 C4.66 4 5.32 4 6 4 C6.33 6.64 6.66 9.28 7 12 C1.73687062 8.67591829 1.0717779 5.84606128 0 0 Z " transform="translate(139,110)" style="fill: #9E947D;"/><path d="M0 0 C1.32 0.33 2.64 0.66 4 1 C3.525625 1.37125 3.05125 1.7425 2.5625 2.125 C0.43694214 4.67566943 0.20892184 6.72689117 0 10 C0.66 10.66 1.32 11.32 2 12 C1.625 14.125 1.625 14.125 1 16 C-2.50797466 13.66135023 -2.37862824 11.01139499 -2.23828125 7.0078125 C-1.93342574 4.43902997 -1.1533851 2.3067702 0 0 Z " transform="translate(88,93)" style="fill: #4F4940;"/><path d="M0 0 C0.66 0.33 1.32 0.66 2 1 C1 5 1 5 0 9 C-1.98 9.33 -3.96 9.66 -6 10 C-4.68 7.36 -3.36 4.72 -2 2 C-1.34 2 -0.68 2 0 2 C0 1.34 0 0.68 0 0 Z " transform="translate(105,88)" style="fill: #8A7E6B;"/><path d="M0 0 C0 3 0 3 0 3 Z M-3 3 C-0.38692381 4.3065381 -0.34201056 5.17841285 0 8 C-2 10 -2 10 -5 10 C-6 7 -6 7 -4.5625 4.8125 C-4.046875 4.214375 -3.53125 3.61625 -3 3 Z " transform="translate(126,107)" style="fill: #1F1C17;"/><path d="M0 0 C0.66 0.33 1.32 0.66 2 1 C1.39009109 4.55780196 0.4216319 7.6828589 -1 11 C-1.99 11 -2.98 11 -4 11 C-3.39301257 6.87248551 -1.96189209 3.6678852 0 0 Z " transform="translate(113,107)" style="fill: #211D17;"/><path d="M0 0 C-0.99 0.66 -1.98 1.32 -3 2 C-4.35251497 3.31387169 -5.68945377 4.64426252 -7 6 C-6.34 7.32 -5.68 8.64 -5 10 C-7.475 9.01 -7.475 9.01 -10 8 C-9.30934731 1.61146258 -6.34000751 -0.52833396 0 0 Z " transform="translate(97,81)" style="fill: #70685F;"/><path d="M0 0 C2.31 0.33 4.62 0.66 7 1 C7.33 2.32 7.66 3.64 8 5 C0.57142857 5.14285714 0.57142857 5.14285714 -3 4 C-3 3.34 -3 2.68 -3 2 C-2.01 2 -1.02 2 0 2 C0 1.34 0 0.68 0 0 Z " transform="translate(134,72)" style="fill: #736757;"/><path d="M0 0 C-0.639375 0.268125 -1.27875 0.53625 -1.9375 0.8125 C-4.33131686 1.88667752 -4.33131686 1.88667752 -5 5 C-5.99 5 -6.98 5 -8 5 C-8.33 5.66 -8.66 6.32 -9 7 C-8.51432469 0.44338336 -8.51432469 0.44338336 -6.1875 -1.5625 C-3.4306531 -2.11386938 -2.32303176 -1.49337756 0 0 Z " transform="translate(106,79)" style="fill: #847A6B;"/><path d="M0 0 C0 1.65 0 3.3 0 5 C-0.66 5 -1.32 5 -2 5 C-2 5.66 -2 6.32 -2 7 C-2.99 6.67 -3.98 6.34 -5 6 C-3.92307692 0 -3.92307692 0 0 0 Z " transform="translate(140,177)" style="fill: #171511;"/><path d="M0 0 C-0.61488281 0.59748047 -0.61488281 0.59748047 -1.2421875 1.20703125 C-1.78101563 1.73683594 -2.31984375 2.26664062 -2.875 2.8125 C-3.40867188 3.33457031 -3.94234375 3.85664062 -4.4921875 4.39453125 C-6.20776561 6.13259904 -6.20776561 6.13259904 -8 9 C-9.23016231 2.84918845 -8.70820706 3.73414421 -4.60546875 -0.00390625 C-3 -1 -3 -1 0 0 Z " transform="translate(162,116)" style="fill: #342F29;"/><path d="M0 0 C0.5625 1.9375 0.5625 1.9375 1 4 C0.67 4.33 0.34 4.66 0 5 C-0.23287008 6.68183948 -0.41264166 8.3712416 -0.5625 10.0625 C-0.68818359 11.44115234 -0.68818359 11.44115234 -0.81640625 12.84765625 C-0.87699219 13.55792969 -0.93757813 14.26820312 -1 15 C-1.99 14.67 -2.98 14.34 -4 14 C-3.52525225 11.85318469 -3.04508251 9.70756772 -2.5625 7.5625 C-2.29566406 6.36753906 -2.02882813 5.17257813 -1.75390625 3.94140625 C-1 1 -1 1 0 0 Z " transform="translate(110,109)" style="fill: #7B7262;"/><path d="M0 0 C0.99 0.33 1.98 0.66 3 1 C3 1.66 3 2.32 3 3 C4.65 3 6.3 3 8 3 C6 5 6 5 3 6 C3 5.34 3 4.68 3 4 C2.34 4 1.68 4 1 4 C0.67 4.99 0.34 5.98 0 7 C-1.125 1.125 -1.125 1.125 0 0 Z " transform="translate(132,75)" style="fill: #140F0B;"/><path d="M0 0 C1.175625 0.309375 1.175625 0.309375 2.375 0.625 C1.24195008 4.02414975 0.24981525 4.67754451 -2.625 6.625 C-3.285 4.975 -3.945 3.325 -4.625 1.625 C-2.625 -0.375 -2.625 -0.375 0 0 Z " transform="translate(154.625,38.375)" style="fill: #565048;"/><path d="M0 0 C0.61875 0.20625 1.2375 0.4125 1.875 0.625 C0.885 0.955 -0.105 1.285 -1.125 1.625 C-1.455 4.265 -1.785 6.905 -2.125 9.625 C-2.785 9.295 -3.445 8.965 -4.125 8.625 C-4.47368421 -0.78947368 -4.47368421 -0.78947368 0 0 Z " transform="translate(138.125,152.375)" style="fill: #5E5951;"/><path d="M0 0 C2.87744317 1.43872158 2.43984711 2.91915908 3 6 C3.63437344 7.6792238 4.29289322 9.35008418 5 11 C1.78042985 11 0.86076928 9.50241386 -1 7 C-0.75 3.25 -0.75 3.25 0 0 Z " transform="translate(140,103)" style="fill: #7A6F5B;"/><path d="M0 0 C0.33 0 0.66 0 1 0 C1 2.64 1 5.28 1 8 C1.66 8.33 2.32 8.66 3 9 C3 10.65 3 12.3 3 14 C2.01 14 1.02 14 0 14 C0 9.38 0 4.76 0 0 Z " transform="translate(130,176)" style="fill: #312E29;"/><path d="M0 0 C0.33 0.99 0.66 1.98 1 3 C1.99 3.33 2.98 3.66 4 4 C3.34 4.66 2.68 5.32 2 6 C2 6.33 2 6.66 2 7 C0.35 7 -1.3 7 -3 7 C-2.25 2.25 -2.25 2.25 0 0 Z " transform="translate(134,83)" style="fill: #221B17;"/><path d="M0 0 C0.99 0.33 1.98 0.66 3 1 C3.66 4.3 4.32 7.6 5 11 C1.47240796 7.47240796 0 5.006085 0 0 Z " transform="translate(116,185)" style="fill: #3A342E;"/><path d="M0 0 C0.99 0.33 1.98 0.66 3 1 C-3.27027027 9 -3.27027027 9 -6 9 C-6.33 7.68 -6.66 6.36 -7 5 C-5.824375 4.87625 -5.824375 4.87625 -4.625 4.75 C-1.4307897 3.83736849 -1.07799196 3.03797734 0 0 Z " transform="translate(157,113)" style="fill: #797062;"/><path d="M0 0 C0.99 0.33 1.98 0.66 3 1 C5.14255793 0.61067144 5.14255793 0.61067144 7 0 C7 1.32 7 2.64 7 4 C4.69 3.67 2.38 3.34 0 3 C0 2.01 0 1.02 0 0 Z " transform="translate(159,83)" style="fill: #2F2A24;"/><path d="M0 0 C0.66 0.33 1.32 0.66 2 1 C1.2884375 1.8353125 1.2884375 1.8353125 0.5625 2.6875 C-1.12395996 5.18346074 -1.58953107 7.0446237 -2 10 C-3.32 9.67 -4.64 9.34 -6 9 C-4 6 -2 3 0 0 Z " transform="translate(139,54)" style="fill: #948A76;"/><path d="M0 0 C2.17200303 1.72531861 2.98104949 2.42250803 3.07421875 5.26171875 C2.94660156 6.06222656 2.81898437 6.86273438 2.6875 7.6875 C2.50767578 8.89986328 2.50767578 8.89986328 2.32421875 10.13671875 C2.21722656 10.75160156 2.11023438 11.36648437 2 12 C1.01 10.68 0.02 9.36 -1 8 C-0.34 7.01 0.32 6.02 1 5 C0.6878236 2.35367713 0.6878236 2.35367713 0 0 Z " transform="translate(114,98)" style="fill: #4A4237;"/><path d="M0 0 C0.99 0.33 1.98 0.66 3 1 C2.67 2.65 2.34 4.3 2 6 C1.01 6.33 0.02 6.66 -1 7 C-1.73323796 9.01508358 -1.73323796 9.01508358 -2 11 C-2.6875 9.1875 -2.6875 9.1875 -3 7 C-2.02149805 5.97895449 -1.02019573 4.9793879 0 4 C0 2.68 0 1.36 0 0 Z " transform="translate(146,89)" style="fill: #6B6354;"/><path d="M0 0 C1.32 0.66 2.64 1.32 4 2 C3.34 3.32 2.68 4.64 2 6 C1.34 5.67 0.68 5.34 0 5 C0 4.34 0 3.68 0 3 C-1.65 3 -3.3 3 -5 3 C-5.33 2.34 -5.66 1.68 -6 1 C-4.7934375 1.0309375 -4.7934375 1.0309375 -3.5625 1.0625 C-1.06645115 1.29633621 -1.06645115 1.29633621 0 0 Z " transform="translate(167,87)" style="fill: #24201A;"/><path d="M0 0 C1.093125 0.33 2.18625 0.66 3.3125 1 C6.84578884 2.13086649 6.84578884 2.13086649 10 2 C7.53387212 5.1151089 5.89156016 5.31553191 2 5 C1.34 3.35 0.68 1.7 0 0 Z " transform="translate(124,61)" style="fill: #5E5749;"/><path d="M0 0 C2.51787814 1.25893907 3.87873668 2.09587497 4.265625 4.98046875 C4.25140615 6.98888143 4.13142025 8.99584122 4 11 C1.55160412 7.32740617 0 4.45351799 0 0 Z " transform="translate(119,188)" style="fill: #181410;"/><path d="M0 0 C0.99 0.66 1.98 1.32 3 2 C2.67 4.31 2.34 6.62 2 9 C0.68 9 -0.64 9 -2 9 C-2 8.34 -2 7.68 -2 7 C-1.01 7 -0.02 7 1 7 C0.67 4.69 0.34 2.38 0 0 Z " transform="translate(116,162)" style="fill: #766C61;"/><path d="M0 0 C4 2.5 4 2.5 4 7 C3.34 7 2.68 7 2 7 C2 6.34 2 5.68 2 5 C1.01 4.67 0.02 4.34 -1 4 C-0.67 2.68 -0.34 1.36 0 0 Z " transform="translate(117,95)" style="fill: #231E17;"/><path d="M0 0 C1.32 0.66 2.64 1.32 4 2 C3.01 2.495 3.01 2.495 2 3 C2 4.98 2 6.96 2 9 C1.67 8.01 1.34 7.02 1 6 C0.34 5.67 -0.32 5.34 -1 5 C-1.33 4.01 -1.66 3.02 -2 2 C-1.34 2 -0.68 2 0 2 C0 1.34 0 0.68 0 0 Z " transform="translate(157,77)" style="fill: #4E473F;"/><path d="M0 0 C0.66 0 1.32 0 2 0 C2.33 0.66 2.66 1.32 3 2 C5.01669827 3.13350534 5.01669827 3.13350534 7 4 C5 6 5 6 2.375 5.625 C1.59125 5.41875 0.8075 5.2125 0 5 C0 3.35 0 1.7 0 0 Z " transform="translate(134,124)" style="fill: #9F9076;"/><path d="M0 0 C0.66 0.33 1.32 0.66 2 1 C1.67 1.99 1.34 2.98 1 4 C1.59793673 6.35188447 2.25881795 8.68925595 3 11 C2.01 10.67 1.02 10.34 0 10 C-0.19412181 8.52168779 -0.38012131 7.04230684 -0.5625 5.5625 C-0.66691406 4.73878906 -0.77132812 3.91507812 -0.87890625 3.06640625 C-1 1 -1 1 0 0 Z " transform="translate(136,116)" style="fill: #6F6554;"/><path d="M0 0 C4.875 2.75 4.875 2.75 6 5 C5.34 5 4.68 5 4 5 C3.67 5.66 3.34 6.32 3 7 C0 3.375 0 3.375 0 0 Z " transform="translate(149,75)" style="fill: #847763;"/><path d="M0 0 C1.32 0 2.64 0 4 0 C4.33 1.32 4.66 2.64 5 4 C3.35 4.33 1.7 4.66 0 5 C0 3.35 0 1.7 0 0 Z " transform="translate(92,72)" style="fill: #0C0908;"/><path d="M0 0 C2.64 0 5.28 0 8 0 C7.67 1.32 7.34 2.64 7 4 C6.67 3.67 6.34 3.34 6 3 C4.00041636 2.95919217 1.99954746 2.95745644 0 3 C0 2.01 0 1.02 0 0 Z " transform="translate(156,72)" style="fill: #000000;"/><path d="M0 0 C1.485 0.99 1.485 0.99 3 2 C2.67 4.64 2.34 7.28 2 10 C1.34 10 0.68 10 0 10 C0 6.7 0 3.4 0 0 Z " transform="translate(129,69)" style="fill: #8C7F6A;"/><path d="M0 0 C0.66 0 1.32 0 2 0 C2.33 1.98 2.66 3.96 3 6 C1.02 6.99 1.02 6.99 -1 8 C-0.67 5.36 -0.34 2.72 0 0 Z " transform="translate(105,160)" style="fill: #020000;"/><path d="M0 0 C-0.66 1.98 -1.32 3.96 -2 6 C-3.32 5.67 -4.64 5.34 -6 5 C-2.25 0 -2.25 0 0 0 Z " transform="translate(102,90)" style="fill: #A69B8A;"/><path d="M0 0 C0.33 1.32 0.66 2.64 1 4 C-1.31 4.33 -3.62 4.66 -6 5 C-5.34 4.67 -4.68 4.34 -4 4 C-4 3.34 -4 2.68 -4 2 C-2.68 1.34 -1.36 0.68 0 0 Z " transform="translate(164,94)" style="fill: #7B7164;"/><path d="M0 0 C1.175625 0.309375 1.175625 0.309375 2.375 0.625 C2.045 1.285 1.715 1.945 1.375 2.625 C0.715 2.295 0.055 1.965 -0.625 1.625 C-0.955 2.615 -1.285 3.605 -1.625 4.625 C-2.615 3.635 -3.605 2.645 -4.625 1.625 C-2.625 -0.375 -2.625 -0.375 0 0 Z " transform="translate(108.625,92.375)" style="fill: #726755;"/><path d="M0 0 C0.99 0 1.98 0 3 0 C3 1.98 3 3.96 3 6 C2.01 6 1.02 6 0 6 C-1.125 2.25 -1.125 2.25 0 0 Z " transform="translate(145,76)" style="fill: #897F6B;"/><path d="M0 0 C1.9375 0.3125 1.9375 0.3125 4 1 C4.33 1.99 4.66 2.98 5 4 C4.01 4 3.02 4 2 4 C1.67 4.99 1.34 5.98 1 7 C0.67 7 0.34 7 0 7 C0 4.69 0 2.38 0 0 Z " transform="translate(103,38)" style="fill: #5F5A52;"/><path d="M0 0 C0.99 0.33 1.98 0.66 3 1 C2.67 2.32 2.34 3.64 2 5 C1.01 5 0.02 5 -1 5 C-0.67 3.35 -0.34 1.7 0 0 Z " transform="translate(137,154)" style="fill: #0E0C07;"/><path d="M0 0 C1.32 0.33 2.64 0.66 4 1 C3.67 2.65 3.34 4.3 3 6 C2.34 6 1.68 6 1 6 C0.67 4.02 0.34 2.04 0 0 Z " transform="translate(139,139)" style="fill: #6A6050;"/><path d="M0 0 C0.33 1.32 0.66 2.64 1 4 C1.99 4 2.98 4 4 4 C3.67 4.99 3.34 5.98 3 7 C1.68 6.67 0.36 6.34 -1 6 C-0.67 4.02 -0.34 2.04 0 0 Z " transform="translate(88,97)" style="fill: #918473;"/><path d="M0 0 C0.33 0.66 0.66 1.32 1 2 C1.66 2 2.32 2 3 2 C3 3.32 3 4.64 3 6 C2.01 6 1.02 6 0 6 C-1.125 1.125 -1.125 1.125 0 0 Z " transform="translate(107,82)" style="fill: #8D836E;"/></svg>