<?xml version="1.0" encoding="UTF-8"?>
<!-- Generator: visioncortex VTracer -->
<svg id="svg" version="1.1" xmlns="http://www.w3.org/2000/svg" style="display: block;" viewBox="0 0 96 96"><path d="M0 0 C0.25652344 0.93457031 0.51304688 1.86914062 0.77734375 2.83203125 C4.92586575 17.29680589 10.78627904 31.96796439 20 44 C20.433125 43.34 20.86625 42.68 21.3125 42 C21.869375 41.34 22.42625 40.68 23 40 C23.99 40 24.98 40 26 40 C25.51119715 44.39922563 24.37178485 46.16856746 21 49 C18.45192246 50.25615472 15.97673774 51.36819641 13.34765625 52.41796875 C12.61050888 52.72068192 11.87336151 53.02339508 11.11387634 53.33528137 C9.56003593 53.97104192 8.00420191 54.60194912 6.4465332 55.22827148 C4.06966165 56.18461847 1.69956313 57.15637457 -0.66992188 58.13085938 C-2.18452265 58.74831203 -3.69948506 59.36487851 -5.21484375 59.98046875 C-5.9201976 60.26899216 -6.62555145 60.55751556 -7.35227966 60.8547821 C-12.85539219 63.05880888 -17.06993496 64.43298708 -22.94213867 63.27490234 C-23.89630173 63.09075775 -24.85046478 62.90661316 -25.83354187 62.71688843 C-27.36033318 62.40456772 -27.36033318 62.40456772 -28.91796875 62.0859375 C-29.97156082 61.87442047 -31.02515289 61.66290344 -32.110672 61.44497681 C-34.3332354 60.99445288 -36.55471333 60.53854506 -38.77514648 60.07763672 C-42.18117443 59.3763025 -45.59279825 58.70911176 -49.00585938 58.04296875 C-51.16448947 57.6010388 -53.32270882 57.15709674 -55.48046875 56.7109375 C-57.01636909 56.41683487 -57.01636909 56.41683487 -58.58329773 56.11679077 C-60.00035759 55.81220444 -60.00035759 55.81220444 -61.44604492 55.50146484 C-62.27923752 55.33190277 -63.11243011 55.1623407 -63.97087097 54.98764038 C-66 54 -66 54 -67.28462219 51.65615845 C-68 49 -68 49 -68 45 C-67.01 45 -66.02 45 -65 45 C-64.34 46.32 -63.68 47.64 -63 49 C-54.36492905 35.89445635 -47.416862 21.73537985 -42 7 C-40.89785156 6.90203125 -39.79570313 6.8040625 -38.66015625 6.703125 C-25.96358781 5.48379207 -12.42396754 0 0 0 Z " transform="translate(69,16)" style="fill: #C22E00;"/><path d="M0 0 C1.74419282 2.61628923 2.50413839 4.25564176 3.375 7.18359375 C6.31715649 16.71687931 9.57225956 25.82471308 14.0625 34.75 C14.46146484 35.54591553 14.86042969 36.34183105 15.27148438 37.16186523 C17.8166485 42.08303318 20.68928975 46.58890955 23.95874023 51.06347656 C24.30235596 51.7025293 24.64597168 52.34158203 25 53 C24.67 53.99 24.34 54.98 24 56 C17.19442684 54.69821353 10.396211 53.36228552 3.60205078 52.00219727 C1.28915695 51.54341865 -1.02531664 51.09253172 -3.34130859 50.6496582 C-6.66689102 50.01231425 -9.98579115 49.34696199 -13.3046875 48.67578125 C-14.34430634 48.48284988 -15.38392517 48.28991852 -16.45504761 48.09114075 C-17.41589264 47.89131088 -18.37673767 47.69148102 -19.36669922 47.4855957 C-20.21497284 47.31904984 -21.06324646 47.15250397 -21.93722534 46.98091125 C-24 46 -24 46 -25.2895813 43.65715027 C-26 41 -26 41 -26 37 C-25.01 37 -24.02 37 -23 37 C-22.34 38.32 -21.68 39.64 -21 41 C-12.47379014 28.05967605 -6.24413053 14.14383806 0 0 Z " transform="translate(27,24)" style="fill: #FE3D00;"/><path d="M0 0 C0.33 0 0.66 0 1 0 C1.71929322 4.28553369 2.43109738 8.5722267 3.13623047 12.86010742 C3.37672869 14.31617081 3.61920815 15.77190848 3.86376953 17.22729492 C4.21658589 19.32907238 4.56206875 21.43194959 4.90625 23.53515625 C5.11572266 24.797229 5.32519531 26.05930176 5.54101562 27.35961914 C5.99366196 30.94973058 6.08144523 34.38586804 6 38 C4.41632253 37.85795259 2.83306682 37.71119847 1.25 37.5625 C0.36828125 37.48128906 -0.5134375 37.40007812 -1.421875 37.31640625 C-3.69350452 37.03761535 -5.79851823 36.61209423 -8 36 C-7.30590576 28.89421025 -5.70234182 22.11330104 -4 15.1875 C-3.59007812 13.49077148 -3.59007812 13.49077148 -3.171875 11.75976562 C-1.1595467 3.47864011 -1.1595467 3.47864011 0 0 Z " transform="translate(26,37)" style="fill: #771D00;"/><path d="M0 0 C3.14595427 4.7189314 4.88630236 10.06638124 6.90551758 15.34179688 C7.68381782 17.36542609 8.47938275 19.38172017 9.27539062 21.3984375 C9.77191952 22.68968702 10.26739742 23.98134127 10.76171875 25.2734375 C11.21506592 26.44310059 11.66841309 27.61276367 12.13549805 28.81787109 C13.02229074 32.08204957 12.98236181 33.80741783 12 37 C8.535 37.495 8.535 37.495 5 38 C4.28196118 33.55350644 3.57008828 29.10608148 2.86376953 24.65771484 C2.62292582 23.14638017 2.3804358 21.63530685 2.13623047 20.12451172 C1.78434004 17.94566362 1.43849388 15.76592635 1.09375 13.5859375 C0.9843811 12.91694427 0.87501221 12.24795105 0.7623291 11.5586853 C0.15385675 7.6672169 -0.10654555 3.93685818 0 0 Z " transform="translate(27,37)" style="fill: #FED38E;"/><path d="M0 0 C1.28150991 3.64745858 0.72028539 6.25197335 -0.14453125 9.97265625 C-0.40943359 11.11927734 -0.67433594 12.26589844 -0.94726562 13.44726562 C-1.23279297 14.64029297 -1.51832031 15.83332031 -1.8125 17.0625 C-2.22338867 18.8578418 -2.22338867 18.8578418 -2.64257812 20.68945312 C-4.73370332 29.60055498 -4.73370332 29.60055498 -7 33 C-9.0625 31.375 -9.0625 31.375 -11 29 C-10.64201754 24.75825957 -9.43233079 21.25259343 -7.71484375 17.3828125 C-7.04291992 15.85527344 -7.04291992 15.85527344 -6.35742188 14.296875 C-5.88884766 13.25015625 -5.42027344 12.2034375 -4.9375 11.125 C-4.46505859 10.05507813 -3.99261719 8.98515625 -3.50585938 7.8828125 C-2.34332699 5.2524362 -1.17455398 2.62502483 0 0 Z " transform="translate(24,39)" style="fill: #FED38E;"/><path d="M0 0 C-0.54723683 3.37462715 -1.0549 5.08235 -3 8 C-3.66 8 -4.32 8 -5 8 C-3.98181818 0 -3.98181818 0 0 0 Z " transform="translate(95,56)" style="fill: #7B2F00;"/><path d="M0 0 C0.99 0 1.98 0 3 0 C3.33 2.31 3.66 4.62 4 7 C3.01 7 2.02 7 1 7 C0.67 4.69 0.34 2.38 0 0 Z " transform="translate(1,61)" style="fill: #7A3000;"/><path d="M0 0 C2.18975773 3.28463659 2.99806563 6.20696275 4 10 C3.01 10.33 2.02 10.66 1 11 C0.67 7.37 0.34 3.74 0 0 Z " transform="translate(27,37)" style="fill: #FFD28E;"/><path d="M0 0 C0.33 0.99 0.66 1.98 1 3 C1.60328125 3.04898438 2.2065625 3.09796875 2.828125 3.1484375 C3.62734375 3.22320312 4.4265625 3.29796875 5.25 3.375 C6.03890625 3.44460937 6.8278125 3.51421875 7.640625 3.5859375 C10.085877 4.01507113 11.84836903 4.78600638 14 6 C12.41632253 5.85795259 10.83306682 5.71119847 9.25 5.5625 C8.36828125 5.48128906 7.4865625 5.40007812 6.578125 5.31640625 C4.30649548 5.03761535 2.20148177 4.61209423 0 4 C0 2.68 0 1.36 0 0 Z " transform="translate(18,69)" style="fill: #9B2500;"/><path d="M0 0 C1.00000429 4.00001715 0.80688405 6.05523353 0 10 C-0.99 9.67 -1.98 9.34 -3 9 C-2.01 6.03 -1.02 3.06 0 0 Z " transform="translate(24,39)" style="fill: #FEC682;"/><path d="M0 0 C0.66 0.33 1.32 0.66 2 1 C1.01 2.98 0.02 4.96 -1 7 C-1.66 7 -2.32 7 -3 7 C-1.125 1.125 -1.125 1.125 0 0 Z " transform="translate(56,73)" style="fill: #7D3000;"/><path d="M0 0 C2.64 0.33 5.28 0.66 8 1 C8 1.33 8 1.66 8 2 C5.36 1.67 2.72 1.34 0 1 C0 0.67 0 0.34 0 0 Z " transform="translate(24,73)" style="fill: #B62A00;"/><path d="M0 0 C0.33 1.32 0.66 2.64 1 4 C0.01 3.67 -0.98 3.34 -2 3 C-2 2.34 -2 1.68 -2 1 C-1.34 0.67 -0.68 0.34 0 0 Z " transform="translate(23,45)" style="fill: #FFD18C;"/><path d="M0 0 C0.66 1.32 1.32 2.64 2 4 C1.34 4.66 0.68 5.32 0 6 C0 4.02 0 2.04 0 0 Z " transform="translate(27,37)" style="fill: #FBBC7A;"/><path d="M0 0 C0.66 0.33 1.32 0.66 2 1 C1.67 1.66 1.34 2.32 1 3 C0.34 3 -0.32 3 -1 3 C-0.67 2.01 -0.34 1.02 0 0 Z " transform="translate(56,73)" style="fill: #7B3000;"/><path d="M0 0 C0.33 1.32 0.66 2.64 1 4 C0.01 4.495 0.01 4.495 -1 5 C-0.67 3.35 -0.34 1.7 0 0 Z " transform="translate(26,37)" style="fill: #4C1500;"/><path d="M0 0 C0.33 0.66 0.66 1.32 1 2 C0.01 3.485 0.01 3.485 -1 5 C-0.67 3.35 -0.34 1.7 0 0 Z " transform="translate(26,35)" style="fill: #F19759;"/><path d="M0 0 C1.65 0 3.3 0 5 0 C5 0.33 5 0.66 5 1 C3.35 1 1.7 1 0 1 C0 0.67 0 0.34 0 0 Z " transform="translate(32,75)" style="fill: #FF3D00;"/><path d="M0 0 C4 1 4 1 4 1 Z " transform="translate(24,73)" style="fill: #BA2D00;"/><path d="M0 0 C1 4 1 4 1 4 Z " transform="translate(18,69)" style="fill: #D23300;"/><path d="M0 0 C1 4 1 4 1 4 Z " transform="translate(29,54)" style="fill: #752406;"/><path d="M0 0 C0 3 0 3 0 3 Z " transform="translate(23,43)" style="fill: #FFD48F;"/><path d="M0 0 C0.99 0.495 0.99 0.495 2 1 C1.01 1.495 1.01 1.495 0 2 C0 1.34 0 0.68 0 0 Z " transform="translate(54,76)" style="fill: #7B3000;"/><path d="M0 0 C2 1 2 1 2 1 Z " transform="translate(56,73)" style="fill: #803202;"/><path d="" transform="translate(0,0)" style="fill: #ED9A5B;"/><path d="M0 0 C0.33 0.66 0.66 1.32 1 2 C0.34 1.67 -0.32 1.34 -1 1 C-0.67 0.67 -0.34 0.34 0 0 Z " transform="translate(4,68)" style="fill: #D33900;"/><path d="M0 0 C0.99 0.495 0.99 0.495 2 1 C1.01 1.495 1.01 1.495 0 2 C0 1.34 0 0.68 0 0 Z " transform="translate(91,57)" style="fill: #7D3101;"/><path d="M0 0 C3 1 3 1 3 1 Z " transform="translate(92,56)" style="fill: #B2612F;"/><path d="" transform="translate(0,0)" style="fill: #FFD48F;"/><path d="" transform="translate(0,0)" style="fill: #D53600;"/><path d="" transform="translate(0,0)" style="fill: #AD3100;"/><path d="M0 0 C2 1 2 1 2 1 Z " transform="translate(32,75)" style="fill: #FF3B00;"/><path d="M0 0 C2 1 2 1 2 1 Z " transform="translate(36,74)" style="fill: #FF4D0F;"/><path d="M0 0 C2 1 2 1 2 1 Z " transform="translate(27,74)" style="fill: #CD3200;"/><path d="M0 0 C2 1 2 1 2 1 Z " transform="translate(22,73)" style="fill: #D43300;"/><path d="M0 0 C2 1 2 1 2 1 Z " transform="translate(56,72)" style="fill: #B45E2B;"/><path d="" transform="translate(0,0)" style="fill: #FF4E10;"/><path d="M0 0 C2 1 2 1 2 1 Z " transform="translate(19,72)" style="fill: #BA2D00;"/><path d="" transform="translate(0,0)" style="fill: #FFCA85;"/><path d="" transform="translate(0,0)" style="fill: #D46C37;"/><path d="" transform="translate(0,0)" style="fill: #B35023;"/><path d="" transform="translate(0,0)" style="fill: #FF9150;"/><path d="" transform="translate(0,0)" style="fill: #FFBD7A;"/><path d="" transform="translate(0,0)" style="fill: #E0884D;"/><path d="" transform="translate(0,0)" style="fill: #7E3000;"/><path d="" transform="translate(0,0)" style="fill: #BF5928;"/><path d="" transform="translate(0,0)" style="fill: #812202;"/><path d="" transform="translate(0,0)" style="fill: #FFC37F;"/><path d="" transform="translate(0,0)" style="fill: #FFCC87;"/><path d="" transform="translate(0,0)" style="fill: #B4582A;"/><path d="" transform="translate(0,0)" style="fill: #CF703A;"/><path d="" transform="translate(0,0)" style="fill: #FFCF8B;"/><path d="" transform="translate(0,0)" style="fill: #E39055;"/><path d="" transform="translate(0,0)" style="fill: #FFBD7A;"/><path d="M0 0 C2 1 2 1 2 1 Z " transform="translate(93,57)" style="fill: #883C0B;"/><path d="" transform="translate(0,0)" style="fill: #B85B2B;"/><path d="" transform="translate(0,0)" style="fill: #FFC480;"/><path d="" transform="translate(0,0)" style="fill: #B86131;"/><path d="" transform="translate(0,0)" style="fill: #FFCB87;"/><path d="" transform="translate(0,0)" style="fill: #E8985C;"/><path d="" transform="translate(0,0)" style="fill: #CB723D;"/><path d="" transform="translate(0,0)" style="fill: #FFBE7A;"/><path d="" transform="translate(0,0)" style="fill: #9B4B23;"/><path d="" transform="translate(0,0)" style="fill: #FFC682;"/><path d="" transform="translate(0,0)" style="fill: #B45C2E;"/><path d="" transform="translate(0,0)" style="fill: #D8874E;"/><path d="" transform="translate(0,0)" style="fill: #FFCD88;"/><path d="" transform="translate(0,0)" style="fill: #974820;"/><path d="" transform="translate(0,0)" style="fill: #FFC17C;"/><path d="" transform="translate(0,0)" style="fill: #A2542A;"/><path d="" transform="translate(0,0)" style="fill: #FFD38D;"/><path d="" transform="translate(0,0)" style="fill: #F43A00;"/><path d="" transform="translate(0,0)" style="fill: #481500;"/><path d="" transform="translate(0,0)" style="fill: #8E4621;"/><path d="" transform="translate(0,0)" style="fill: #F13900;"/><path d="" transform="translate(0,0)" style="fill: #F13800;"/><path d="M0 0 C2 1 2 1 2 1 Z " transform="translate(27,23)" style="fill: #C32D00;"/><path d="" transform="translate(0,0)" style="fill: #7B3000;"/><path d="" transform="translate(0,0)" style="fill: #FF2A00;"/><path d="" transform="translate(0,0)" style="fill: #8B2F00;"/><path d="" transform="translate(0,0)" style="fill: #DC3400;"/><path d="" transform="translate(0,0)" style="fill: #FF5500;"/><path d="" transform="translate(0,0)" style="fill: #CC3300;"/><path d="" transform="translate(0,0)" style="fill: #992F00;"/><path d="" transform="translate(0,0)" style="fill: #AB2F00;"/><path d="" transform="translate(0,0)" style="fill: #F23A00;"/><path d="" transform="translate(0,0)" style="fill: #B62F00;"/><path d="" transform="translate(0,0)" style="fill: #862F00;"/><path d="" transform="translate(0,0)" style="fill: #8D3000;"/><path d="" transform="translate(0,0)" style="fill: #A53000;"/><path d="" transform="translate(0,0)" style="fill: #D63300;"/><path d="" transform="translate(0,0)" style="fill: #FF3E00;"/><path d="" transform="translate(0,0)" style="fill: #EF3000;"/><path d="" transform="translate(0,0)" style="fill: #CC3300;"/><path d="" transform="translate(0,0)" style="fill: #AB2F00;"/><path d="" transform="translate(0,0)" style="fill: #EB3900;"/><path d="" transform="translate(0,0)" style="fill: #FF8342;"/><path d="" transform="translate(0,0)" style="fill: #FFAE6B;"/><path d="" transform="translate(0,0)" style="fill: #FFCB86;"/><path d="" transform="translate(0,0)" style="fill: #DF7F46;"/><path d="" transform="translate(0,0)" style="fill: #AA2800;"/><path d="" transform="translate(0,0)" style="fill: #C32E00;"/><path d="" transform="translate(0,0)" style="fill: #EB2700;"/><path d="" transform="translate(0,0)" style="fill: #8C3707;"/><path d="" transform="translate(0,0)" style="fill: #9F2F00;"/><path d="" transform="translate(0,0)" style="fill: #C83000;"/><path d="" transform="translate(0,0)" style="fill: #FF8E4D;"/><path d="" transform="translate(0,0)" style="fill: #FFCF8B;"/><path d="" transform="translate(0,0)" style="fill: #9B2500;"/><path d="" transform="translate(0,0)" style="fill: #AE2900;"/><path d="" transform="translate(0,0)" style="fill: #C42E00;"/><path d="" transform="translate(0,0)" style="fill: #FF4000;"/><path d="" transform="translate(0,0)" style="fill: #FF0000;"/><path d="" transform="translate(0,0)" style="fill: #BD3809;"/><path d="" transform="translate(0,0)" style="fill: #B35927;"/><path d="" transform="translate(0,0)" style="fill: #DC3500;"/><path d="" transform="translate(0,0)" style="fill: #FFB774;"/><path d="" transform="translate(0,0)" style="fill: #F8B271;"/><path d="" transform="translate(0,0)" style="fill: #AD2900;"/><path d="" transform="translate(0,0)" style="fill: #C62F00;"/><path d="" transform="translate(0,0)" style="fill: #F33B00;"/><path d="" transform="translate(0,0)" style="fill: #FF7030;"/><path d="" transform="translate(0,0)" style="fill: #FECB86;"/><path d="" transform="translate(0,0)" style="fill: #B04116;"/><path d="" transform="translate(0,0)" style="fill: #FFAE6C;"/><path d="" transform="translate(0,0)" style="fill: #FF6D2E;"/><path d="" transform="translate(0,0)" style="fill: #CE3200;"/><path d="" transform="translate(0,0)" style="fill: #99330D;"/><path d="" transform="translate(0,0)" style="fill: #BF4000;"/><path d="" transform="translate(0,0)" style="fill: #E53700;"/><path d="" transform="translate(0,0)" style="fill: #FF9554;"/><path d="" transform="translate(0,0)" style="fill: #ED9557;"/><path d="" transform="translate(0,0)" style="fill: #BF4000;"/><path d="" transform="translate(0,0)" style="fill: #FF5D1E;"/><path d="" transform="translate(0,0)" style="fill: #CD6C38;"/><path d="" transform="translate(0,0)" style="fill: #FCB977;"/><path d="" transform="translate(0,0)" style="fill: #FF6626;"/><path d="" transform="translate(0,0)" style="fill: #CF3800;"/><path d="" transform="translate(0,0)" style="fill: #DC3500;"/><path d="" transform="translate(0,0)" style="fill: #962F0A;"/><path d="" transform="translate(0,0)" style="fill: #FFAC68;"/><path d="" transform="translate(0,0)" style="fill: #802A00;"/><path d="" transform="translate(0,0)" style="fill: #C73900;"/><path d="" transform="translate(0,0)" style="fill: #F53A00;"/><path d="" transform="translate(0,0)" style="fill: #FF8443;"/><path d="" transform="translate(0,0)" style="fill: #F0A263;"/><path d="" transform="translate(0,0)" style="fill: #D43300;"/><path d="" transform="translate(0,0)" style="fill: #FF4D10;"/><path d="" transform="translate(0,0)" style="fill: #FABB79;"/><path d="" transform="translate(0,0)" style="fill: #E08148;"/><path d="" transform="translate(0,0)" style="fill: #FFAF6C;"/><path d="" transform="translate(0,0)" style="fill: #FF0000;"/><path d="" transform="translate(0,0)" style="fill: #EF3900;"/><path d="" transform="translate(0,0)" style="fill: #FFA967;"/><path d="" transform="translate(0,0)" style="fill: #F5A968;"/><path d="" transform="translate(0,0)" style="fill: #FF6F2F;"/><path d="" transform="translate(0,0)" style="fill: #804000;"/><path d="" transform="translate(0,0)" style="fill: #A53000;"/><path d="" transform="translate(0,0)" style="fill: #CC3000;"/><path d="" transform="translate(0,0)" style="fill: #FF7131;"/><path d="" transform="translate(0,0)" style="fill: #953914;"/><path d="" transform="translate(0,0)" style="fill: #FFCB87;"/><path d="" transform="translate(0,0)" style="fill: #B72F00;"/><path d="" transform="translate(0,0)" style="fill: #E73800;"/><path d="" transform="translate(0,0)" style="fill: #A44319;"/><path d="" transform="translate(0,0)" style="fill: #FF8544;"/><path d="" transform="translate(0,0)" style="fill: #CA3100;"/><path d="" transform="translate(0,0)" style="fill: #FF9755;"/><path d="" transform="translate(0,0)" style="fill: #CF753F;"/><path d="" transform="translate(0,0)" style="fill: #FF490B;"/><path d="" transform="translate(0,0)" style="fill: #000000;"/><path d="" transform="translate(0,0)" style="fill: #7B3100;"/><path d="" transform="translate(0,0)" style="fill: #555500;"/><path d="" transform="translate(0,0)" style="fill: #E53700;"/><path d="" transform="translate(0,0)" style="fill: #FF5F1F;"/><path d="" transform="translate(0,0)" style="fill: #EC975B;"/><path d="" transform="translate(0,0)" style="fill: #FF9C5A;"/><path d="" transform="translate(0,0)" style="fill: #FF0000;"/><path d="" transform="translate(0,0)" style="fill: #C93100;"/><path d="" transform="translate(0,0)" style="fill: #F3AB6B;"/><path d="" transform="translate(0,0)" style="fill: #FCBC7A;"/><path d="" transform="translate(0,0)" style="fill: #FF5A1B;"/><path d="" transform="translate(0,0)" style="fill: #C63900;"/><path d="" transform="translate(0,0)" style="fill: #E43700;"/><path d="" transform="translate(0,0)" style="fill: #FF8544;"/><path d="" transform="translate(0,0)" style="fill: #FCC480;"/><path d="" transform="translate(0,0)" style="fill: #882D0C;"/><path d="" transform="translate(0,0)" style="fill: #FFB26F;"/><path d="" transform="translate(0,0)" style="fill: #8B3E0D;"/><path d="" transform="translate(0,0)" style="fill: #000000;"/><path d="" transform="translate(0,0)" style="fill: #FF4E10;"/><path d="" transform="translate(0,0)" style="fill: #FF7232;"/><path d="" transform="translate(0,0)" style="fill: #AE6230;"/><path d="" transform="translate(0,0)" style="fill: #A75826;"/><path d="" transform="translate(0,0)" style="fill: #E33700;"/><path d="" transform="translate(0,0)" style="fill: #FFAB68;"/><path d="" transform="translate(0,0)" style="fill: #95421B;"/><path d="" transform="translate(0,0)" style="fill: #DE844B;"/><path d="" transform="translate(0,0)" style="fill: #FF0100;"/><path d="" transform="translate(0,0)" style="fill: #FF7232;"/><path d="" transform="translate(0,0)" style="fill: #F5AC6B;"/><path d="" transform="translate(0,0)" style="fill: #FF8947;"/><path d="" transform="translate(0,0)" style="fill: #E23700;"/><path d="" transform="translate(0,0)" style="fill: #D27E47;"/><path d="" transform="translate(0,0)" style="fill: #FFCE89;"/><path d="" transform="translate(0,0)" style="fill: #FF4B0C;"/><path d="" transform="translate(0,0)" style="fill: #C83100;"/><path d="" transform="translate(0,0)" style="fill: #FF9856;"/><path d="" transform="translate(0,0)" style="fill: #9D441D;"/><path d="" transform="translate(0,0)" style="fill: #FF9F5D;"/><path d="" transform="translate(0,0)" style="fill: #BF2001;"/><path d="" transform="translate(0,0)" style="fill: #E63700;"/><path d="" transform="translate(0,0)" style="fill: #FF6021;"/><path d="" transform="translate(0,0)" style="fill: #F6B371;"/><path d="" transform="translate(0,0)" style="fill: #FF5E20;"/><path d="" transform="translate(0,0)" style="fill: #CB3100;"/><path d="" transform="translate(0,0)" style="fill: #FECB86;"/><path d="" transform="translate(0,0)" style="fill: #EB9A5D;"/><path d="" transform="translate(0,0)" style="fill: #FFB571;"/><path d="" transform="translate(0,0)" style="fill: #EA3800;"/><path d="" transform="translate(0,0)" style="fill: #FF8645;"/><path d="" transform="translate(0,0)" style="fill: #732C0D;"/><path d="" transform="translate(0,0)" style="fill: #FCC07D;"/><path d="" transform="translate(0,0)" style="fill: #FF7535;"/><path d="" transform="translate(0,0)" style="fill: #FF3300;"/><path d="" transform="translate(0,0)" style="fill: #CF3200;"/><path d="" transform="translate(0,0)" style="fill: #FF4F11;"/><path d="" transform="translate(0,0)" style="fill: #7D2F0F;"/><path d="" transform="translate(0,0)" style="fill: #F33A00;"/><path d="" transform="translate(0,0)" style="fill: #FFAB69;"/><path d="" transform="translate(0,0)" style="fill: #BD6A39;"/><path d="" transform="translate(0,0)" style="fill: #FF8C4B;"/><path d="" transform="translate(0,0)" style="fill: #FF5500;"/><path d="" transform="translate(0,0)" style="fill: #D83400;"/><path d="" transform="translate(0,0)" style="fill: #FF7334;"/><path d="" transform="translate(0,0)" style="fill: #DC884E;"/><path d="" transform="translate(0,0)" style="fill: #FF4D0F;"/><path d="" transform="translate(0,0)" style="fill: #FF4407;"/><path d="" transform="translate(0,0)" style="fill: #FFD48F;"/><path d="" transform="translate(0,0)" style="fill: #EDA163;"/><path d="" transform="translate(0,0)" style="fill: #F6B06E;"/><path d="" transform="translate(0,0)" style="fill: #FFA260;"/><path d="" transform="translate(0,0)" style="fill: #FF5500;"/><path d="" transform="translate(0,0)" style="fill: #D42A00;"/><path d="" transform="translate(0,0)" style="fill: #E13600;"/><path d="" transform="translate(0,0)" style="fill: #FF9A57;"/><path d="" transform="translate(0,0)" style="fill: #FABB79;"/><path d="" transform="translate(0,0)" style="fill: #5F1D04;"/><path d="" transform="translate(0,0)" style="fill: #FF6223;"/><path d="" transform="translate(0,0)" style="fill: #C93100;"/><path d="" transform="translate(0,0)" style="fill: #FE6122;"/><path d="" transform="translate(0,0)" style="fill: #FFB875;"/><path d="" transform="translate(0,0)" style="fill: #FF0000;"/><path d="" transform="translate(0,0)" style="fill: #FF0000;"/><path d="" transform="translate(0,0)" style="fill: #ED3900;"/><path d="" transform="translate(0,0)" style="fill: #FFD48F;"/><path d="" transform="translate(0,0)" style="fill: #793515;"/><path d="" transform="translate(0,0)" style="fill: #CA7540;"/><path d="" transform="translate(0,0)" style="fill: #FF7838;"/><path d="" transform="translate(0,0)" style="fill: #D53300;"/><path d="" transform="translate(0,0)" style="fill: #FF8847;"/><path d="" transform="translate(0,0)" style="fill: #EC9E60;"/><path d="" transform="translate(0,0)" style="fill: #FF3300;"/><path d="" transform="translate(0,0)" style="fill: #FF0000;"/><path d="" transform="translate(0,0)" style="fill: #FF5113;"/><path d="" transform="translate(0,0)" style="fill: #FFD38E;"/><path d="" transform="translate(0,0)" style="fill: #C47440;"/><path d="" transform="translate(0,0)" style="fill: #FF8F4D;"/><path d="" transform="translate(0,0)" style="fill: #E33701;"/><path d="" transform="translate(0,0)" style="fill: #FFAE6B;"/><path d="" transform="translate(0,0)" style="fill: #DF8F55;"/><path d="" transform="translate(0,0)" style="fill: #743011;"/><path d="" transform="translate(0,0)" style="fill: #FF5011;"/><path d="" transform="translate(0,0)" style="fill: #FF4400;"/><path d="" transform="translate(0,0)" style="fill: #FF0000;"/><path d="" transform="translate(0,0)" style="fill: #CD3200;"/><path d="" transform="translate(0,0)" style="fill: #FF7535;"/><path d="" transform="translate(0,0)" style="fill: #F1AA6B;"/><path d="" transform="translate(0,0)" style="fill: #4A1500;"/><path d="" transform="translate(0,0)" style="fill: #B16031;"/><path d="" transform="translate(0,0)" style="fill: #FFA563;"/><path d="" transform="translate(0,0)" style="fill: #FF4407;"/><path d="" transform="translate(0,0)" style="fill: #DD8C51;"/><path d="" transform="translate(0,0)" style="fill: #FF6526;"/><path d="" transform="translate(0,0)" style="fill: #DF3600;"/><path d="" transform="translate(0,0)" style="fill: #FE9A59;"/><path d="" transform="translate(0,0)" style="fill: #531D06;"/><path d="" transform="translate(0,0)" style="fill: #CA3100;"/><path d="" transform="translate(0,0)" style="fill: #FF6324;"/><path d="" transform="translate(0,0)" style="fill: #FD7738;"/><path d="" transform="translate(0,0)" style="fill: #CB6933;"/><path d="" transform="translate(0,0)" style="fill: #FF4407;"/><path d="" transform="translate(0,0)" style="fill: #FF0000;"/><path d="" transform="translate(0,0)" style="fill: #DD3500;"/><path d="" transform="translate(0,0)" style="fill: #F1440A;"/><path d="" transform="translate(0,0)" style="fill: #CB3100;"/><path d="" transform="translate(0,0)" style="fill: #FF3700;"/><path d="" transform="translate(0,0)" style="fill: #BF4000;"/><path d="" transform="translate(0,0)" style="fill: #E33600;"/><path d="" transform="translate(0,0)" style="fill: #D03200;"/><path d="" transform="translate(0,0)" style="fill: #FF5500;"/><path d="" transform="translate(0,0)" style="fill: #DF3600;"/><path d="" transform="translate(0,0)" style="fill: #CB3000;"/><path d="" transform="translate(0,0)" style="fill: #FF3901;"/><path d="" transform="translate(0,0)" style="fill: #E93800;"/><path d="" transform="translate(0,0)" style="fill: #CC2600;"/><path d="" transform="translate(0,0)" style="fill: #FF0000;"/><path d="" transform="translate(0,0)" style="fill: #D42A00;"/><path d="" transform="translate(0,0)" style="fill: #B62400;"/><path d="" transform="translate(0,0)" style="fill: #BF4000;"/><path d="" transform="translate(0,0)" style="fill: #B92E00;"/><path d="" transform="translate(0,0)" style="fill: #D42A00;"/><path d="" transform="translate(0,0)" style="fill: #D42A00;"/></svg>