<?xml version="1.0" encoding="UTF-8"?>
<!-- Generator: visioncortex VTracer -->
<svg id="svg" version="1.1" xmlns="http://www.w3.org/2000/svg" style="display: block;" viewBox="0 0 512 512"><path d="M0 0 C0 1.32 0 2.64 0 4 C2.97 4.33 5.94 4.66 9 5 C15.32450407 7.35486854 21.09040988 10.04991379 27 13.3125 C31.64113287 16.31562874 31.64113287 16.31562874 36 16 C36.66 17.98 37.32 19.96 38 22 C39.65 23.65 41.3 25.3 43 27 C47 32 47 32 48 36 C49.32 36 50.64 36 52 36 C52.33 37.98 52.66 39.96 53 42 C55.2236068 42.2981424 55.2236068 42.2981424 56 40 C58.31 39.01 60.62 38.02 63 37 C63.33 35.35 63.66 33.7 64 32 C65.65 32.33 67.3 32.66 69 33 C73.94463635 31.66436384 73.94463635 31.66436384 75 29 C87.26190476 24 87.26190476 24 90 24 C90 23.34 90 22.68 90 22 C103.95052303 17.76186642 117.54278343 16.68570758 132 18 C132.33 17.34 132.66 16.68 133 16 C136 16 136 16 136 21 C137.65 21.33 139.3 21.66 141 22 C157.36778594 29.57767868 168.56121414 38.44348257 178 54 C179.65 56.64 181.3 59.28 183 62 C183 61.34 183 60.68 183 60 C188.58829747 61.86276582 191 70.38992411 191 76 C192.32 76.33 193.64 76.66 195 77 C195.33 77.99 195.66 78.98 196 80 C195.01 80 194.02 80 193 80 C193.90689989 84.68564941 194.93461633 89.34782466 196 94 C198.51680019 107.68201673 199.46404831 120.6660164 199.375 134.5625 C199.38660156 136.37685547 199.39820313 138.19121094 199.41015625 140.06054688 C199.38062551 153.77757744 198.36963374 166.89109879 194 180 C194 181.65 194 183.3 194 185 C193.34 185.66 192.68 186.32 192 187 C188.9141623 193.53647642 188.9141623 193.53647642 188 199 C187.34 199.66 186.68 200.32 186 201 C185.67 202.65 185.34 204.3 185 206 C182 213 182 213 180 213 C178.515 217.455 178.515 217.455 177 222 C176.34 222 175.68 222 175 222 C174.67 224.31 174.34 226.62 174 229 C171.77479353 232.08105511 169.43307507 235.08030992 167 238 C165.35 240.31 163.7 242.62 162 245 C161.34 245 160.68 245 160 245 C160 246.32 160 247.64 160 249 C159.34 249 158.68 249 158 249 C157.34 250.32 156.68 251.64 156 253 C154.35 254.65 152.7 256.3 151 258 C149.02 260.64 147.04 263.28 145 266 C144.34 266 143.68 266 143 266 C142.34 267.32 141.68 268.64 141 270 C124.5 292 124.5 292 118 292 C117.67 293.32 117.34 294.64 117 296 C112 299 112 299 106 301 C105.34 303.31 104.68 305.62 104 308 C100 308 100 308 100 305 C93.80071449 302.95158492 93.80071449 302.95158492 93 307 C92 307 91 307 90 307 C87.36 307.33 84.72 307.66 82 308 C80.33333333 308 78.66666667 308 77 308 C76.67 309.32 76.34 310.64 76 312 C72 316 72 316 69 316 C69.09580557 322.65759595 69.09580557 322.65759595 74 322 C74.33 323.65 74.66 325.3 75 327 C75.99 327 76.98 327 78 327 C77 329 77 329 75 329 C73.64452766 335.7773617 77.69160526 340.84580263 84 344 C84.99 345.65 85.98 347.3 87 349 C89.62467962 351.70800279 92.29199721 354.37532038 95 357 C99 361 99 361 98 365 C91.2997849 365 87.52024472 360.52024472 83 356 C81.68 355.67 80.36 355.34 79 355 C79.928125 356.381875 80.85625 357.76375 81.8125 359.1875 C85 364 85 364 84 368 C80 368 80 368 80 364 C78.35 363.34 76.7 362.68 75 362 C74.01 361.01 73.02 360.02 72 359 C71.01 359 70.02 359 69 359 C69 358.01 69 357.02 69 356 C66.03 355.67 63.06 355.34 60 355 C59.01 354.34 58.02 353.68 57 353 C56.34 353.33 55.68 353.66 55 354 C54.34 353.34 53.68 352.68 53 352 C49.00997076 350.96092989 45.00963437 349.96064157 41 349 C40.34 348.67 39.68 348.34 39 348 C39.33 349.32 39.66 350.64 40 352 C36 352 36 352 36 348 C30.66682942 347.9583346 25.33317058 347.9583346 20 348 C20 347.01 20 346.02 20 345 C17.06579265 346.05290714 17.06579265 346.05290714 19.875 351.0625 C24.70274674 366.82367317 22.71993714 394.07001571 3 399 C-3.25 399.5 -3.25 399.5 -9 399 C-9 388 -9 388 -3 388 C-3 387.34 -3 386.68 -3 386 C-1.515 384.515 -1.515 384.515 0 383 C-0.33 382.34 -0.66 381.68 -1 381 C-0.95875 378.81375 -0.9175 376.6275 -0.875 374.375 C0.05290219 367.50009609 0.05290219 367.50009609 -4 368 C-4 364 -4 364 -2 362 C-2.38605939 356.64917679 -2.38605939 356.64917679 -7 355 C-8.60875 353.865625 -10.2175 352.73125 -11.875 351.5625 C-17.97679027 347.32101164 -21.47977797 345 -29 345 C-29.33 344.01 -29.66 343.02 -30 342 C-32.31 341.67 -34.62 341.34 -37 341 C-46.23564523 336.96368097 -53.91568053 333.06323961 -62 327 C-72.00983276 321.35292643 -72.00983276 321.35292643 -77.4375 329.25 C-77.623125 331.4775 -77.80875 333.705 -78 336 C-77.34 336 -76.68 336 -76 336 C-76 337.65 -76 339.3 -76 341 C-77.32 340.67 -78.64 340.34 -80 340 C-80.33 341.98 -80.66 343.96 -81 346 C-81.99 346.33 -82.98 346.66 -84 347 C-83.34 344.69 -82.68 342.38 -82 340 C-79.88489109 331.97169885 -79.88489109 331.97169885 -84 327 C-84.66 325.14375 -85.32 323.2875 -86 321.375 C-87.27701017 315.20377784 -87.27701017 315.20377784 -91 317 C-89.33251682 323.48635326 -89.33251682 323.48635326 -85 328 C-84 337 -84 337 -84 344 C-84.66 344 -85.32 344 -86 344 C-86.33 345.98 -86.66 347.96 -87 350 C-90.56444252 359.46420944 -97.14553871 366.71517957 -107 370 C-107.33 370.66 -107.66 371.32 -108 372 C-116.15667266 373.79048912 -123.05290202 375.17883919 -131 372 C-131 370.68 -131 369.36 -131 368 C-131.99 368.66 -132.98 369.32 -134 370 C-144 369.51807229 -144 369.51807229 -144 367 C-142.35 366.67 -140.7 366.34 -139 366 C-139 365.34 -139 364.68 -139 364 C-136.03 363.01 -133.06 362.02 -130 361 C-124.70934082 359.52595471 -124.70934082 359.52595471 -123 355 C-122.67 354.67 -122.34 354.34 -122 354 C-121.63018704 345.95656823 -122.33427519 339.58706292 -125 332 C-125.66 330.02 -126.32 328.04 -127 326 C-127.66 326 -128.32 326 -129 326 C-134 320 -134 320 -134 318 C-135.32 317.34 -136.64 316.68 -138 316 C-142.27535853 310.04040933 -145.6745996 304.97620119 -148 298 C-148.99 297.67 -149.98 297.34 -151 297 C-151.495 295.515 -151.495 295.515 -152 294 C-153.65 292.35 -155.3 290.7 -157 289 C-173 271.90909091 -173 271.90909091 -173 268 C-173.66 268 -174.32 268 -175 268 C-175 267.34 -175 266.68 -175 266 C-175.66 266 -176.32 266 -177 266 C-179.37841958 262.36241712 -181.70332559 258.68973922 -184 255 C-185.134375 253.39125 -186.26875 251.7825 -187.4375 250.125 C-190.19819939 246.15346754 -192.79183398 242.06554725 -195.3125 237.9375 C-198.15470285 232.20436762 -198.15470285 232.20436762 -201 231 C-201.66 228.36 -202.32 225.72 -203 223 C-203.66 223 -204.32 223 -205 223 C-205.66 220.69 -206.32 218.38 -207 216 C-207.66 215.67 -208.32 215.34 -209 215 C-209.680625 212.2465625 -209.680625 212.2465625 -210.375 209.4375 C-211.24503759 203.36124743 -211.24503759 203.36124743 -216 204 C-216 200 -216 200 -214 200 C-215.29101384 196.31821979 -216.6341149 192.65466553 -218 189 C-222.5876784 174.00182061 -223.37464107 159.04062818 -223.6875 143.4375 C-223.73455078 141.63474609 -223.78160156 139.83199219 -223.83007812 137.97460938 C-224.13332338 124.66661689 -224.13332338 124.66661689 -223 119 C-221.03196741 113.08577504 -221.03196741 113.08577504 -224 112 C-224 108 -224 108 -221 108 C-219.97344937 102.67171339 -218.98026456 97.33699596 -218 92 C-215.50566477 83.12209059 -212.63564098 74.48316228 -209 66 C-208.67 64.02 -208.34 62.04 -208 60 C-207.01 60 -206.02 60 -205 60 C-204.34 58.02 -203.68 56.04 -203 54 C-187.84065491 30.41879653 -156.95360443 14.68213186 -129 24 C-124.545 24.99 -124.545 24.99 -120 26 C-120 25.34 -120 24.68 -120 24 C-116 24 -116 24 -116 28 C-114.02 28.33 -112.04 28.66 -110 29 C-96 36.85365854 -96 36.85365854 -96 40 C-94.68 40 -93.36 40 -92 40 C-91.67 40.66 -91.34 41.32 -91 42 C-88.69 42.66 -86.38 43.32 -84 44 C-84 42.68 -84 41.36 -84 40 C-82.68 39.67 -81.36 39.34 -80 39 C-78.31290874 36.01143833 -76.65106809 33.00861296 -75 30 C-65.24339785 17.08685009 -53.49875247 6.74979208 -37 4 C-37 7 -37 7 -40 7 C-39.67 7.99 -39.34 8.98 -39 10 C-36.03 8.68 -33.06 7.36 -30 6 C-26.00229352 4.99087021 -22.0026315 3.98941453 -18 3 C-17.34 2.34 -16.68 1.68 -16 1 C-16 1.66 -16 2.32 -16 3 C-8.42558845 4.3403082 -8.42558845 4.3403082 -4 1 C-2 0 -2 0 0 0 Z M-45 10 C-50.75418224 12.32251426 -50.75418224 12.32251426 -49 15 C-43.22682671 13.65572925 -43.22682671 13.65572925 -45 10 Z M-24 20 C-24.99 20 -25.98 20 -27 20 C-27.66 21.32 -28.32 22.64 -29 24 C-17.49363623 23.56721506 -17.49363623 23.56721506 -11 16 C-8 16 -8 16 -8 19 C0.5 20.33333333 0.5 20.33333333 0 16 C-14.95392195 11.94122755 -14.95392195 11.94122755 -24 20 Z M-37 20 C-34.88214887 21.35355339 -34.88214887 21.35355339 -32 20 C-33 17.16666667 -33 17.16666667 -37 20 Z M8 19 C9.98 19.99 9.98 19.99 12 21 C12.33333333 18.33333333 12.33333333 18.33333333 8 19 Z M17 23 C17.99 23.99 18.98 24.98 20 26 C19.42163702 22.68377223 19.42163702 22.68377223 17 23 Z M-65 27 C-63.68 26.34 -62.36 25.68 -61 25 C-63.33075929 23.42117124 -63.33075929 23.42117124 -65 27 Z M-66 27 C-65 29 -65 29 -65 29 Z M22 29 C23.98 29.99 23.98 29.99 26 31 C26.99 32.485 26.99 32.485 28 34 C28.66 34 29.32 34 30 34 C30.33 34.99 30.66 35.98 31 37 C32.32 37.66 33.64 38.32 35 39 C32.80263021 34.60526041 27.14239375 23.85760625 22 29 Z M72 45 C80.3559803 47.38882453 80.3559803 47.38882453 81 42 C81.99 42.33 82.98 42.66 84 43 C84 42.34 84 41.68 84 41 C85.32 40.67 86.64 40.34 88 40 C88 41.65 88 43.3 88 45 C88.33 44.34 88.66 43.68 89 43 C89.99 42.67 90.98 42.34 92 42 C92 41.34 92 40.68 92 40 C96 40 96 40 96 42 C103.18825692 41.58785729 103.18825692 41.58785729 104 36 C108 36 108 36 109 39 C112.87137055 39.16896487 116.75111131 39.15760745 120.625 39.0625 C127.88366805 38.89175932 132.96634427 38.99038408 140 41 C141.32 41 142.64 41 144 41 C126.21480957 23.21480957 85.7290888 22.11818533 72 45 Z M-151 36 C-146.6723047 38.16384765 -138.61430716 39.22861432 -136 34 C-142.56040368 33.78306954 -142.56040368 33.78306954 -151 36 Z M-61 45 C-56.5 44.5 -56.5 44.5 -56 40 C-54.68 39.34 -53.36 38.68 -52 38 C-51.67 37.34 -51.34 36.68 -51 36 C-56.84895973 36 -61 37.86357225 -61 45 Z M-155 39 C-151.66666667 39.5 -151.66666667 39.5 -152 37 C-155.33333333 36.5 -155.33333333 36.5 -155 39 Z M35 39 C35.33 39.99 35.66 40.98 36 42 C36.5 38.83333333 36.5 38.83333333 35 39 Z M37 42 C37.66 43.98 38.32 45.96 39 48 C39.66 47.67 40.32 47.34 41 47 C38.88607602 41.85708451 38.88607602 41.85708451 37 42 Z M-84 44 C-83.67 44.99 -83.34 45.98 -83 47 C-82.34 46.01 -81.68 45.02 -81 44 C-81.99 44 -82.98 44 -84 44 Z M-62 45 C-62.33 45.99 -62.66 46.98 -63 48 C-62.01 47.67 -61.02 47.34 -60 47 C-60.66 46.34 -61.32 45.68 -62 45 Z M-56 72 C-55 74 -55 74 -55 74 Z M-210 80 C-209 82 -209 82 -209 82 Z M-211 83 C-210 85 -210 85 -210 85 Z M-200 96 C-201.32 96 -202.64 96 -204 96 C-204.66 97.98 -205.32 99.96 -206 102 C-206.99 102.99 -207.98 103.98 -209 105 C-210.80743508 111.97790489 -210.80743508 111.97790489 -210 119 C-210.66 119 -211.32 119 -212 119 C-213.66114309 124.74922159 -213.66114309 124.74922159 -211 128 C-211.66 129.32 -212.32 130.64 -213 132 C-213.28169226 140.49613894 -213.28169226 140.49613894 -209 140 C-208.505 137.03 -208.505 137.03 -208 134 C-207.484375 131.463125 -206.96875 128.92625 -206.4375 126.3125 C-204.90355525 119.75146533 -204.90355525 119.75146533 -205 116 C-205.99 116 -206.98 116 -208 116 C-208 112 -208 112 -203 111 C-203.33 108.69 -203.66 106.38 -204 104 C-203.01 104 -202.02 104 -201 104 C-201 102.68 -201 101.36 -201 100 C-200.34 99.67 -199.68 99.34 -199 99 C-199.33 98.34 -199.66 97.68 -200 97 C-198.68 96.67 -197.36 96.34 -196 96 C-195.34 94.02 -194.68 92.04 -194 90 C-198.97962898 90 -200 91.26237987 -200 96 Z M-66 93 C-62 94 -62 94 -62 94 Z M-73 106 C-72.01 107.485 -72.01 107.485 -71 109 C-69.54685336 104.39467611 -69.54685336 104.39467611 -71 102 C-70.01 102.33 -69.02 102.66 -68 103 C-67.66666667 100.66666667 -67.66666667 100.66666667 -70 101 C-70 99 -70 99 -67 98 C-66.67 96.68 -66.34 95.36 -66 94 C-73.44368719 94 -72.35611115 100.20500035 -73 106 Z M-84 108 C-85.32 108 -86.64 108 -88 108 C-88 109.32 -88 110.64 -88 112 C-89.65 112.33 -91.3 112.66 -93 113 C-96.90902715 121.4060008 -96.90902715 121.4060008 -99 128 C-94.67661917 127.60633906 -94.67661917 127.60633906 -95 125 C-92.69 124.34 -90.38 123.68 -88 123 C-88 122.01 -88 121.02 -88 120 C-80 120 -80 120 -79 122 C-76.99893616 112.99521273 -77.41136968 110.3632672 -80 102 C-80 100.35 -80 98.7 -80 97 C-85.16264877 97 -84 104.41270224 -84 108 Z M179 99 C178.67 99.66 178.34 100.32 178 101 C178.66 101 179.32 101 180 101 C179.67 100.34 179.34 99.68 179 99 Z M-26 101 C-26.5 105.5 -26.5 105.5 -17 104 C-16.67 103.01 -16.34 102.02 -16 101 C-21.69430998 99.6411465 -21.69430998 99.6411465 -26 101 Z M68 101 C68.63106761 104.47434165 68.63106761 104.47434165 72 104 C72.33 105.65 72.66 107.3 73 109 C73.99 109.33 74.98 109.66 76 110 C76.33 111.98 76.66 113.96 77 116 C77.99 116 78.98 116 80 116 C79.67 117.32 79.34 118.64 79 120 C82.56591646 120.48507125 82.56591646 120.48507125 83 116 C82.01 115.67 81.02 115.34 80 115 C79.67 113.02 79.34 111.04 79 109 C74.65741124 103.79991832 74.65741124 103.79991832 70 103 C70 102.34 70 101.68 70 101 C69.34 101 68.68 101 68 101 Z M-39 105 C-37.35 104.67 -35.7 104.34 -34 104 C-36.22739701 102.52453352 -36.22739701 102.52453352 -39 105 Z M-49 108 C-47.02 108.99 -47.02 108.99 -45 110 C-44.67 108.68 -44.34 107.36 -44 106 C-47.11785113 105.64644661 -47.11785113 105.64644661 -49 108 Z M1 107 C0.34627955 111.7190925 0.34627955 111.7190925 6 112 C7.65 111.67 9.3 111.34 11 111 C9.35555556 106.06666667 5.66666667 105.44444444 1 107 Z M-55 108 C-54.67 108.99 -54.34 109.98 -54 111 C-53.34 110.01 -52.68 109.02 -52 108 C-52.99 108 -53.98 108 -55 108 Z M-60 112 C-58.35 112 -56.7 112 -55 112 C-56.51643835 108.9671233 -58.48356165 108.9671233 -60 112 Z M55 111 C56.32 112.32 57.64 113.64 59 115 C57.59628479 110.7018576 57.59628479 110.7018576 55 111 Z M-64 116 C-59.7018576 114.59628479 -59.7018576 114.59628479 -60 112 C-63.56591646 111.51492875 -63.56591646 111.51492875 -64 116 Z M-52 112 C-52 112.66 -52 113.32 -52 114 C-51.34 113.67 -50.68 113.34 -50 113 C-50.66 112.67 -51.32 112.34 -52 112 Z M-157 115 C-156 117 -156 117 -156 117 Z M-72 115 C-72 115.66 -72 116.32 -72 117 C-73.65 117.66 -75.3 118.32 -77 119 C-76.67 120.65 -76.34 122.3 -76 124 C-77.32 124 -78.64 124 -80 124 C-81.33264018 129.33056071 -80.31542931 133.73828275 -79 139 C-79 138.34 -79 137.68 -79 137 C-78.34 136.67 -77.68 136.34 -77 136 C-77.33 135.01 -77.66 134.02 -78 133 C-75.69 133.33 -73.38 133.66 -71 134 C-72 131.25464401 -72 131.25464401 -77 132 C-76 128 -76 128 -71 127 C-71.66 126.67 -72.32 126.34 -73 126 C-73 124 -73 124 -69 124 C-68.67 123.34 -68.34 122.68 -68 122 C-67.01 121.67 -66.02 121.34 -65 121 C-65 120.34 -65 119.68 -65 119 C-64.34 118.67 -63.68 118.34 -63 118 C-63.66 118 -64.32 118 -65 118 C-65 117.34 -65 116.68 -65 116 C-67.31 115.67 -69.62 115.34 -72 115 Z M59 116 C60.68377223 119.89459074 60.68377223 119.89459074 63 122 C62.4260261 117.79819816 62.4260261 117.79819816 59 116 Z M-172 123 C-168.10540926 125.73786479 -168.10540926 125.73786479 -166 123 C-164.22572607 114.12863037 -169.62658461 115.87975382 -172 123 Z M-159 124 C-156.21553546 124.32686023 -156.21553546 124.32686023 -156 119 C-157.83562902 118.84525388 -157.83562902 118.84525388 -159 124 Z M181 122 C181.01360608 128.16439899 181.01360608 128.16439899 183 128 C183.48820345 120.31382321 183.48820345 120.31382321 181 122 Z M63 122 C64.95815944 129.46954402 64.95815944 129.46954402 69 138 C70.71979899 143.65076812 72.38851488 149.31739456 74 155 C74.66 157.31 75.32 159.62 76 162 C77.58391518 155.66433926 75.55719976 150.22879905 74 144 C73.34 144 72.68 144 72 144 C72 142.02 72 140.04 72 138 C68.92358089 128.88157206 68.92358089 128.88157206 63 122 Z M82 122 C82 122.99 82 123.98 82 125 C82.66 124.67 83.32 124.34 84 124 C83.34 123.34 82.68 122.68 82 122 Z M-68 125 C-66.68 124.34 -65.36 123.68 -64 123 C-67.1490712 122.5527864 -67.1490712 122.5527864 -68 125 Z M-69 126 C-68.67 126.66 -68.34 127.32 -68 128 C-67.67 127.34 -67.34 126.68 -67 126 C-67.66 126 -68.32 126 -69 126 Z M83 126 C83.66 126.66 84.32 127.32 85 128 C85.33333333 125.66666667 85.33333333 125.66666667 83 126 Z M85 128 C86 131 86 131 86 131 Z M-160 129 C-159 131 -159 131 -159 131 Z M-72 131 C-69.66666667 131.33333333 -69.66666667 131.33333333 -70 129 C-72.33333333 128.66666667 -72.33333333 128.66666667 -72 131 Z M-101 131 C-101 131.66 -101 132.32 -101 133 C-100.34 132.67 -99.68 132.34 -99 132 C-99.66 131.67 -100.32 131.34 -101 131 Z M89 145 C89.33 146.32 89.66 147.64 90 149 C91.47434165 146.84188612 91.47434165 146.84188612 89 145 Z M-212 152 C-211.34 152 -210.68 152 -210 152 C-211.24402644 147.02389424 -212 146.19480834 -212 152 Z M90 150 C91 152 91 152 91 152 Z M-211 154 C-210 156 -210 156 -210 156 Z M91 154 C91 155.98 91 157.96 91 160 C93.73786479 157.89459074 93.73786479 157.89459074 91 154 Z M-83 158 C-80.66666667 158.33333333 -80.66666667 158.33333333 -81 156 C-83.33333333 155.66666667 -83.33333333 155.66666667 -83 158 Z M-211 157 C-210 161 -210 161 -210 161 Z M-84 158 C-84 159.32 -84 160.64 -84 162 C-83.01 161.67 -82.02 161.34 -81 161 C-81.66 160.67 -82.32 160.34 -83 160 C-83.33 159.34 -83.66 158.68 -84 158 Z M46 174 C46.33 174.99 46.66 175.98 47 177 C46.34 177.33 45.68 177.66 45 178 C45.7763932 180.2981424 45.7763932 180.2981424 48 180 C49.11286235 176.70263006 50.11640857 173.36606258 51 170 C50.67 170 50.34 170 50 170 C49.67 167.03 49.34 164.06 49 161 C46.55462525 161 46.22863247 172.25259473 46 174 Z M92 168 C94.16666667 168.16666667 94.16666667 168.16666667 93 161 C90.83333333 160.83333333 90.83333333 160.83333333 92 168 Z M-84 164 C-83.67 164.66 -83.34 165.32 -83 166 C-82.67 165.34 -82.34 164.68 -82 164 C-82.66 164 -83.32 164 -84 164 Z M77 164 C78 168 78 168 78 168 Z M-22 169 C-21.67 169.99 -21.34 170.98 -21 172 C-20.5 168.83333333 -20.5 168.83333333 -22 169 Z M-211 171 C-210 173 -210 173 -210 173 Z M92 172 C93 174 93 174 93 174 Z M-210 175 C-209 178 -209 178 -209 178 Z M43 188 C43.66 189.32 44.32 190.64 45 192 C45.66 189.36 46.32 186.72 47 184 C44.40371521 183.7018576 44.40371521 183.7018576 43 188 Z M41 192 C41.57836298 195.31622777 41.57836298 195.31622777 44 195 C44.5 191.5 44.5 191.5 41 192 Z M67 214 C66.67 214.66 66.34 215.32 66 216 C66.66 216 67.32 216 68 216 C67.67 215.34 67.34 214.68 67 214 Z M63 221 C59.28248235 222.79819816 59.28248235 222.79819816 61 227 C64.59628479 223.4472136 64.59628479 223.4472136 63 221 Z M-95 228 C-94.34 228.66 -93.68 229.32 -93 230 C-94.65 230.33 -96.3 230.66 -98 231 C-97.01 231.33 -96.02 231.66 -95 232 C-95.33 233.32 -95.66 234.64 -96 236 C-91.53695382 237.38301351 -91.53695382 237.38301351 -85 236 C-86.58397485 232.7226499 -86.58397485 232.7226499 -89 233 C-89.66 231.68 -90.32 230.36 -91 229 C-92.32 228.67 -93.64 228.34 -95 228 Z M56 229 C56 229.99 56 230.98 56 232 C56.66 231.34 57.32 230.68 58 230 C57.34 229.67 56.68 229.34 56 229 Z M49 237 C52.1490712 237.4472136 52.1490712 237.4472136 53 235 C50.76429774 234.76429774 50.76429774 234.76429774 49 237 Z M48 238 C49 240 49 240 49 240 Z M45 240 C44.01 241.485 44.01 241.485 43 243 C43.99 243.33 44.98 243.66 46 244 C45.67 242.68 45.34 241.36 45 240 Z M39 244 C39.33 245.32 39.66 246.64 40 248 C39.01 247.67 38.02 247.34 37 247 C37 247.66 37 248.32 37 249 C36.01 249 35.02 249 34 249 C34.33 248.01 34.66 247.02 35 246 C34.34 246 33.68 246 33 246 C33.33 247.98 33.66 249.96 34 252 C32 252 32 252 31 249 C30.01 249.99 29.02 250.98 28 252 C28.66 252.33 29.32 252.66 30 253 C29 255 29 255 24 256 C24 255.34 24 254.68 24 254 C19.5702369 254 19 255.80685823 19 260 C16.69 259.01 14.38 258.02 12 257 C12 257.99 12 258.98 12 260 C11.34 260.33 10.68 260.66 10 261 C9.67 261.99 9.34 262.98 9 264 C22.38253406 265.91179058 32.97609399 255.0191248 43 247 C42.36893239 243.52565835 42.36893239 243.52565835 39 244 Z M-71 256 C-67.36893239 259.5797509 -67.36893239 259.5797509 -64 258 C-67.7018576 255.7763932 -67.7018576 255.7763932 -71 256 Z M-1 260 C2.51075999 263.81672291 2.51075999 263.81672291 6 261 C6.66 260.67 7.32 260.34 8 260 C8 255.2855032 1.42995852 259.19001383 -1 260 Z M38 267 C38.66 267.33 39.32 267.66 40 268 C40 270 40 270 37 271 C36.34 270.34 35.68 269.68 35 269 C29.01669667 271.99165166 22 276.53050603 22 284 C21.34 284 20.68 284 20 284 C20 288.79876806 29.69163039 293 34 293 C35.32 290.69 36.64 288.38 38 286 C38.66 285.34 39.32 284.68 40 284 C40 282.68 40 281.36 40 280 C42.64 280.33 45.28 280.66 48 281 C53.33588609 277.80670585 53.33588609 277.80670585 58 274 C58.99 273.34 59.98 272.68 61 272 C60.34 272 59.68 272 59 272 C59 270.02 59 268.04 59 266 C56.21553546 265.67313977 56.21553546 265.67313977 56 271 C54.68 270.67 53.36 270.34 52 270 C52 270.66 52 271.32 52 272 C50 272 50 272 50 270 C48.68 270 47.36 270 46 270 C46 267.69 46 265.38 46 263 C43.01857603 263 40.58860092 265.52079948 38 267 Z M-148 284 C-147.67 285.32 -147.34 286.64 -147 288 C-144.41074435 287.11785113 -144.41074435 287.11785113 -146 284 C-146.66 284 -147.32 284 -148 284 Z M-144 288 C-142.37473651 294.50105397 -137.60872059 303 -130 303 C-129.34 304.32 -128.68 305.64 -128 307 C-126.68 307.99 -125.36 308.98 -124 310 C-126.2498345 303.08062978 -126.2498345 303.08062978 -132 300 C-132 299.34 -132 298.68 -132 298 C-134.475 297.01 -134.475 297.01 -137 296 C-137.66 294.68 -138.32 293.36 -139 292 C-142.17504209 287.88214887 -142.17504209 287.88214887 -144 288 Z M100 299 C100.66 299.66 101.32 300.32 102 301 C102.33333333 298.66666667 102.33333333 298.66666667 100 299 Z M97 300 C98 302 98 302 98 302 Z M-100 301 C-97.04495491 308.72690198 -97.04495491 308.72690198 -92 313 C-92 311.35 -92 309.7 -92 308 C-91.34 307.67 -90.68 307.34 -90 307 C-90.99 306.67 -91.98 306.34 -93 306 C-93 305.34 -93 304.68 -93 304 C-95.31 303.01 -97.62 302.02 -100 301 Z M49 304 C49 308.7314229 51.73784356 309 56 309 C56.99 308.01 57.98 307.02 59 306 C60.32 305.01 61.64 304.02 63 303 C59.33059873 297.49589809 54.18368885 301.90446621 49 304 Z M92 302 C93 304 93 304 93 304 Z M-124 311 C-123.34 311.66 -122.68 312.32 -122 313 C-121.66666667 310.66666667 -121.66666667 310.66666667 -124 311 Z M-89 312 C-88 314 -88 314 -88 314 Z M10 327 C10.66 327 11.32 327 12 327 C12.66 328.98 13.32 330.96 14 333 C22.43483405 335.29094258 30.55851759 335.36873026 39.25 334.4375 C44 334 44 334 49 335 C50.32 334.34 51.64 333.68 53 333 C46.69952804 326.69952804 35.47106454 326.94122939 27 326 C22.545 325.01 22.545 325.01 18 324 C17.01 324 16.02 324 15 324 C11.67642489 323.58397485 11.67642489 323.58397485 10 327 Z M-110 344 C-109.25310073 352.48507125 -109.25310073 352.48507125 -105 352 C-104.67 353.65 -104.34 355.3 -104 357 C-102.35 355.68 -100.7 354.36 -99 353 C-100.32 353 -101.64 353 -103 353 C-103.33 351.35 -103.66 349.7 -104 348 C-107.911632 338.42908521 -107.911632 338.42908521 -110 344 Z M0 366 C0.33 366.66 0.66 367.32 1 368 C1.33 367.34 1.66 366.68 2 366 C1.34 366 0.68 366 0 366 Z M3 378 C2.67 379.32 2.34 380.64 2 382 C2.99 381.67 3.98 381.34 5 381 C4.34 380.01 3.68 379.02 3 378 Z " transform="translate(268,112)" style="fill: #221304;"/><path d="M0 0 C0.33 0.66 0.66 1.32 1 2 C7.04145373 2.14802949 13.05982982 1.99160763 19.1015625 1.875 C34.46976111 2.20068368 42.25811246 8.88154139 52 20 C53.98 21.98 53.98 21.98 56 24 C57.76118606 27.284374 59.40780049 30.63046151 61 34 C62.216875 36.495625 63.43375 38.99125 64.6875 41.5625 C68 49 68 49 70 58 C70.49331193 61.78981909 70.49331193 61.78981909 73 64 C73.69993484 71.38820108 74 78.56976804 74 86 C74.66462155 89.3337417 75.33137036 92.66705986 76 96 C77.21287251 114.64438907 75.58191297 133.44823207 69 151 C68.54625 152.60875 68.0925 154.2175 67.625 155.875 C65.89995106 161.31553896 63.6466857 165.94188955 61 171 C59.1128125 174.83625 59.1128125 174.83625 57.1875 178.75 C41.42357395 209.80728715 19.18904491 237.54063672 -10 257 C-10 257.66 -10 258.32 -10 259 C-10.66 259 -11.32 259 -12 259 C-12.33333333 261.66666667 -12.33333333 261.66666667 -8 261 C-7.67 260.34 -7.34 259.68 -7 259 C-4.504375 257.72125 -2.00875 256.4425 0.5625 255.125 C9.85970459 250.31961517 17.71878517 244.37580257 26 238 C26.66 238 27.32 238 28 238 C26.4751658 244.09933679 16.64230751 256 10 256 C9.67 257.32 9.34 258.64 9 260 C4 263 4 263 -2 265 C-2.66 267.31 -3.32 269.62 -4 272 C-8 272 -8 272 -8 269 C-14.19928551 266.95158492 -14.19928551 266.95158492 -15 271 C-16 271 -17 271 -18 271 C-20.64 271.33 -23.28 271.66 -26 272 C-28 271 -28 271 -27 267 C-25.02 266.34 -23.04 265.68 -21 265 C-21 264.34 -21 263.68 -21 263 C-22.32 263.66 -23.64 264.32 -25 265 C-26.65 265 -28.3 265 -30 265 C-30 265.66 -30 266.32 -30 267 C-44.59473684 268.60789474 -44.59473684 268.60789474 -47 265 C-51.01676392 266.28194593 -55.01655636 267.61798894 -59 269 C-60.32 268.67 -61.64 268.34 -63 268 C-61 265 -61 265 -57 263 C-56.401875 261.39125 -55.80375 259.7825 -55.1875 258.125 C-49.81199843 245.53096775 -28.45324452 240.51939519 -16 237 C-11.05536365 235.66436384 -11.05536365 235.66436384 -10 233 C-7.03 232.01 -4.06 231.02 -1 230 C10.97066026 223.15962271 21.16190104 214.57415411 30 204 C31.299375 202.453125 32.59875 200.90625 33.9375 199.3125 C42.09001754 188.65151552 49.336661 177.31669499 52 164 C45.86798708 170.26248128 40.11809842 176.6103634 34.625 183.4375 C10.87640449 212 10.87640449 212 2 212 C2 212.66 2 213.32 2 214 C-8.37931034 221 -8.37931034 221 -11 221 C-11 221.66 -11 222.32 -11 223 C-12.98 223.33 -14.96 223.66 -17 224 C-17.33 224.66 -17.66 225.32 -18 226 C-18.99 226 -19.98 226 -21 226 C-21 226.66 -21 227.32 -21 228 C-22.98 228.33 -24.96 228.66 -27 229 C-27 229.66 -27 230.32 -27 231 C-31.455 231.99 -31.455 231.99 -36 233 C-38.660625 233.804375 -38.660625 233.804375 -41.375 234.625 C-48.7295082 236.81147541 -48.7295082 236.81147541 -51 230 C-51 231.65 -51 233.3 -51 235 C-56 236 -56 236 -58 236 C-58 235.34 -58 234.68 -58 234 C-59.32 234 -60.64 234 -62 234 C-64.073499 223.632505 -53.27924652 217.82339722 -46 212 C-44.68 210.68 -43.36 209.36 -42 208 C-42.33 209.65 -42.66 211.3 -43 213 C-41.35 212.01 -39.7 211.02 -38 210 C-36.68 209.34 -35.36 208.68 -34 208 C-34 207.34 -34 206.68 -34 206 C-31.525 204.02 -31.525 204.02 -29 202 C-18.24091898 186.10101605 -18.24091898 186.10101605 -13 168 C-12.67 167.67 -12.34 167.34 -12 167 C-11.29777394 163.00608926 -10.63449183 159.00522965 -10 155 C-9.67 153.02 -9.34 151.04 -9 149 C-9.32925811 145.66626166 -9.66248982 142.33291301 -10 139 C-9.67 137.35 -9.34 135.7 -9 134 C-9.73122906 126.80360688 -9.73122906 126.80360688 -11 121 C-11.95468206 126.98846022 -11.99848567 132.00908598 -11 138 C-12 147 -12 147 -13 149 C-13.28875 150.8975 -13.5775 152.795 -13.875 154.75 C-16.08 167 -16.08 167 -19 167 C-18.28358209 156.85074627 -18.28358209 156.85074627 -17 153 C-16.65815894 148.00057445 -16.32523793 143.00053311 -16 138 C-15.67 136.02 -15.34 134.04 -15 132 C-16.18394189 122.07310259 -17.83085242 112.50744275 -21 103 C-21.33 100.751875 -21.66 98.50375 -22 96.1875 C-22.12511271 90.09926909 -22.12511271 90.09926909 -25 89 C-25.33 86.03 -25.66 83.06 -26 80 C-26.66 79.67 -27.32 79.34 -28 79 C-28.99 75.04 -28.99 75.04 -30 71 C-31.32 70.34 -32.64 69.68 -34 69 C-38 67 -38 67 -38 65 C-40.97 64.01 -40.97 64.01 -44 63 C-46.145 61.164375 -48.29 59.32875 -50.5 57.4375 C-56.38439883 51.58171403 -56.38439883 51.58171403 -63 51 C-67.455 49.02 -67.455 49.02 -72 47 C-79.45917852 45.32313604 -79.45917852 45.32313604 -86 45 C-80.19402712 54.67662146 -71.35830829 60.08382809 -62 66 C-37.80883134 86.21034344 -26.67800782 123.41198564 -31.75 154 C-32.07484375 156.02125 -32.3996875 158.0425 -32.734375 160.125 C-34.34631189 167.60757123 -36.39093064 173.85457419 -41 180 C-41.66 181.65 -42.32 183.3 -43 185 C-45.475 185.99 -45.475 185.99 -48 187 C-47.67 188.65 -47.34 190.3 -47 192 C-48 194 -48 194 -52 195 C-56.73647686 199.20943058 -56.73647686 199.20943058 -58 202 C-58.66 202 -59.32 202 -60 202 C-60.33 202.99 -60.66 203.98 -61 205 C-62.98 205.99 -62.98 205.99 -65 207 C-65.33 207.66 -65.66 208.32 -66 209 C-66.66 209.33 -67.32 209.66 -68 210 C-68 210.66 -68 211.32 -68 212 C-69.98 212.33 -71.96 212.66 -74 213 C-74 213.99 -74 214.98 -74 216 C-76 216 -76 216 -78 214 C-79.5 215.16666667 -79.5 215.16666667 -77 217 C-79 220 -79 220 -84 220 C-84.33 220.66 -84.66 221.32 -85 222 C-85 221.01 -85 220.02 -85 219 C-85.66 218.67 -86.32 218.34 -87 218 C-87.99 220.97 -87.99 220.97 -89 224 C-93 223 -93 223 -95 222 C-95.33 222.66 -95.66 223.32 -96 224 C-100 224 -100 224 -100 222 C-102.31 222.99 -104.62 223.98 -107 225 C-106.01 225.99 -105.02 226.98 -104 228 C-114.11455448 236.09164359 -117.351027 230.01743491 -127 223 C-131.29064373 220.58906686 -135.62376815 218.25184746 -140 216 C-143.465 214.1128125 -143.465 214.1128125 -147 212.1875 C-152.74125592 208.99946618 -152.74125592 208.99946618 -158 207 C-189.96 190.08 -189.96 190.08 -197 176 C-198.423125 173.4940625 -198.423125 173.4940625 -199.875 170.9375 C-207.90470026 155.6810695 -209.9038951 141.92360005 -210.5 124.875 C-210.665 121.61625 -210.83 118.3575 -211 115 C-212.75844619 121.72347071 -213 128.07035367 -213 135 C-217.52402408 135 -215.89054165 125.0921984 -216 122 C-209.11111111 91 -209.11111111 91 -203 91 C-203 90.34 -203 89.68 -203 89 C-199.535 88.01 -199.535 88.01 -196 87 C-196 86.01 -196 85.02 -196 84 C-193.36 84 -190.72 84 -188 84 C-187.01 82.02 -186.02 80.04 -185 78 C-181 73 -181 73 -179 73 C-179 70.69 -179 68.38 -179 66 C-178.67 65.67 -178.34 65.34 -178 65 C-178 64.34 -178 63.68 -178 63 C-177.01 62.01 -176.02 61.02 -175 60 C-174.505 59.01 -174.505 59.01 -174 58 C-172.55625 57.731875 -171.1125 57.46375 -169.625 57.1875 C-163.94822748 56.20841079 -163.94822748 56.20841079 -158.875 53.625 C-141.57987927 45.89739287 -124.08599857 45.41935843 -105.625 48.3125 C-99.34166777 50.02923696 -99.34166777 50.02923696 -99 44 C-94.545 43.505 -94.545 43.505 -90 43 C-86.28949973 41.43334433 -82.6191442 39.76748903 -79 38 C-76.69 37.01 -74.38 36.02 -72 35 C-62.32817972 29.17360224 -53.16240476 22.73392192 -44.75 15.1875 C-35.24 7.104 -35.24 7.104 -28 10 C-27.67 8.68 -27.34 7.36 -27 6 C-26.67 5.67 -26.34 5.34 -26 5 C-26 4.67 -26 4.34 -26 4 C-20 4 -20 4 -19 7 C-18.01 6.01 -17.02 5.02 -16 4 C-12 4 -12 4 -12 6 C-1.47915706 3.36978926 -7.12689756 0 0 0 Z M-134 65 C-134.5 69.5 -134.5 69.5 -125 68 C-124.67 67.01 -124.34 66.02 -124 65 C-129.69430998 63.6411465 -129.69430998 63.6411465 -134 65 Z M-147 69 C-145.35 68.67 -143.7 68.34 -142 68 C-144.22739701 66.52453352 -144.22739701 66.52453352 -147 69 Z M-157 72 C-155.02 72.99 -155.02 72.99 -153 74 C-152.67 72.68 -152.34 71.36 -152 70 C-155.11785113 69.64644661 -155.11785113 69.64644661 -157 72 Z M-107 71 C-107.65372045 75.7190925 -107.65372045 75.7190925 -102 76 C-100.35 75.67 -98.7 75.34 -97 75 C-98.64444444 70.06666667 -102.33333333 69.44444444 -107 71 Z M-163 72 C-162.67 72.99 -162.34 73.98 -162 75 C-161.34 74.01 -160.68 73.02 -160 72 C-160.99 72 -161.98 72 -163 72 Z M-168 76 C-166.35 76 -164.7 76 -163 76 C-164.51643835 72.9671233 -166.48356165 72.9671233 -168 76 Z M-172 80 C-167.7018576 78.59628479 -167.7018576 78.59628479 -168 76 C-171.56591646 75.51492875 -171.56591646 75.51492875 -172 80 Z M-160 76 C-160 76.66 -160 77.32 -160 78 C-159.34 77.67 -158.68 77.34 -158 77 C-158.66 76.67 -159.32 76.34 -160 76 Z M-180 79 C-180 79.66 -180 80.32 -180 81 C-181.65 81.66 -183.3 82.32 -185 83 C-184.67 84.65 -184.34 86.3 -184 88 C-185.32 88 -186.64 88 -188 88 C-189.33264018 93.33056071 -188.31542931 97.73828275 -187 103 C-187 102.34 -187 101.68 -187 101 C-186.34 100.67 -185.68 100.34 -185 100 C-185.33 99.01 -185.66 98.02 -186 97 C-183.69 97.33 -181.38 97.66 -179 98 C-180 95.25464401 -180 95.25464401 -185 96 C-184 92 -184 92 -179 91 C-179.66 90.67 -180.32 90.34 -181 90 C-181 88 -181 88 -177 88 C-176.67 87.34 -176.34 86.68 -176 86 C-175.01 85.67 -174.02 85.34 -173 85 C-173 84.34 -173 83.68 -173 83 C-172.34 82.67 -171.68 82.34 -171 82 C-171.66 82 -172.32 82 -173 82 C-173 81.34 -173 80.68 -173 80 C-175.31 79.67 -177.62 79.34 -180 79 Z M-176 89 C-174.68 88.34 -173.36 87.68 -172 87 C-175.1490712 86.5527864 -175.1490712 86.5527864 -176 89 Z M-177 90 C-176.67 90.66 -176.34 91.32 -176 92 C-175.67 91.34 -175.34 90.68 -175 90 C-175.66 90 -176.32 90 -177 90 Z M-180 95 C-177.66666667 95.33333333 -177.66666667 95.33333333 -178 93 C-180.33333333 92.66666667 -180.33333333 92.66666667 -180 95 Z M-191 122 C-188.66666667 122.33333333 -188.66666667 122.33333333 -189 120 C-191.33333333 119.66666667 -191.33333333 119.66666667 -191 122 Z M-192 122 C-192 123.32 -192 124.64 -192 126 C-191.01 125.67 -190.02 125.34 -189 125 C-189.66 124.67 -190.32 124.34 -191 124 C-191.33 123.34 -191.66 122.68 -192 122 Z M-62 138 C-61.67 138.99 -61.34 139.98 -61 141 C-61.66 141.33 -62.32 141.66 -63 142 C-62.2236068 144.2981424 -62.2236068 144.2981424 -60 144 C-58.88713765 140.70263006 -57.88359143 137.36606258 -57 134 C-57.33 134 -57.66 134 -58 134 C-58.33 131.03 -58.66 128.06 -59 125 C-61.44537475 125 -61.77136753 136.25259473 -62 138 Z M-192 128 C-191.67 128.66 -191.34 129.32 -191 130 C-190.67 129.34 -190.34 128.68 -190 128 C-190.66 128 -191.32 128 -192 128 Z M-130 133 C-129.67 133.99 -129.34 134.98 -129 136 C-128.5 132.83333333 -128.5 132.83333333 -130 133 Z M-65 152 C-64.34 153.32 -63.68 154.64 -63 156 C-62.34 153.36 -61.68 150.72 -61 148 C-63.59628479 147.7018576 -63.59628479 147.7018576 -65 152 Z M-67 156 C-66.42163702 159.31622777 -66.42163702 159.31622777 -64 159 C-63.5 155.5 -63.5 155.5 -67 156 Z M-8 263 C-7.34 263.66 -6.68 264.32 -6 265 C-5.66666667 262.66666667 -5.66666667 262.66666667 -8 263 Z M-11 264 C-10 266 -10 266 -10 266 Z M-16 266 C-15 268 -15 268 -15 268 Z " transform="translate(376,148)" style="fill: #E2E2CF;"/><path d="M0 0 C2.64 0.99 5.28 1.98 8 3 C23.29121396 11.19963647 29 22.57129612 29 39 C29.33 41.31 29.66 43.62 30 46 C27.38056598 55.16801905 22.9547679 58.91457809 16 65 C14.68 66.65 13.36 68.3 12 70 C10.515 70.495 10.515 70.495 9 71 C6.90734451 74.61458676 4.92691107 78.29440178 3 82 C1.1746875 85.3103125 1.1746875 85.3103125 -0.6875 88.6875 C-4.34057077 95.64901222 -6.84162145 102.44567507 -9 110 C-9.99 110.495 -9.99 110.495 -11 111 C-15.34906035 134.91983192 -3.55283252 159.02603447 10 178 C10 178.66 10 179.32 10 180 C11.299375 181.093125 12.59875 182.18625 13.9375 183.3125 C18 187 18 187 19 192 C18.01 192.33 17.02 192.66 16 193 C15.67 194.32 15.34 195.64 15 197 C16.93875 196.773125 18.8775 196.54625 20.875 196.3125 C29.44631366 195.93656519 30.81076534 197.42097157 37 203 C45.07439028 208.09037648 53.06834738 211.67438466 62 215 C62.66 215.66 63.32 216.32 64 217 C66.31 217.99 68.62 218.98 71 220 C73.3925 221.27875 75.785 222.5575 78.25 223.875 C82.90513654 226.35273396 87.62240765 228.72457041 92.4375 230.875 C97 233 97 233 97 235 C98.32 235.33 99.64 235.66 101 236 C105.02738935 237.94425693 109.02298404 239.95467751 113 242 C115.206875 243.093125 117.41375 244.18625 119.6875 245.3125 C128.88603156 250.68589962 135.14185461 257.97726388 142 266 C143.98 268.31 145.96 270.62 148 273 C148 273.66 148 274.32 148 275 C148.66 275 149.32 275 150 275 C153.05431613 278.62154627 156.05020441 282.29282447 159 286 C160.32 287.65 161.64 289.3 163 291 C162 293 162 293 157 291 C150.62496287 289.57400485 144.52261014 288.72473446 138 288 C135.03 287.34 132.06 286.68 129 286 C128.01 286.33 127.02 286.66 126 287 C126 286.34 126 285.68 126 285 C120.92040876 286.70934082 120.92040876 286.70934082 124 292 C112.10919995 289.62183999 103.30027995 276.30027995 95 268 C92.525 266.515 92.525 266.515 90 265 C86.101875 262.3084375 86.101875 262.3084375 82.125 259.5625 C69.11455725 250.65535073 55.46596593 243.48865531 40.5 238.5 C34 236 34 236 31 231 C27.04 229.02 27.04 229.02 23 227 C13.12962232 220.85843166 3.96322918 214.40440671 -5 207 C-6.711875 205.63875 -8.42375 204.2775 -10.1875 202.875 C-13.33104032 200.34383767 -16.41867309 197.7411774 -19.4375 195.0625 C-22.65686398 191.90402709 -22.65686398 191.90402709 -26 191 C-23.27773234 201.88907063 -18.26623164 208.52272975 -11 217 C-18.81230506 219.60410169 -30.19128488 207.59293754 -36 203 C-36 202.34 -36 201.68 -36 201 C-36.66 201 -37.32 201 -38 201 C-41 198 -41 198 -41 196 C-41.99 196 -42.98 196 -44 196 C-44.99 194.02 -44.99 194.02 -46 192 C-47.98 190.35 -49.96 188.7 -52 187 C-57.45415228 179.60327294 -62.03250274 172.27506571 -66 164 C-67.32 162.02 -68.64 160.04 -70 158 C-71 154 -71 154 -71.4375 147.125 C-71.623125 145.10375 -71.80875 143.0825 -72 141 C-83.49378117 152.49378117 -66.3092266 178.25436453 -59 188 C-59 188.66 -59 189.32 -59 190 C-58.34 190 -57.68 190 -57 190 C-56.0925 191.19625 -55.185 192.3925 -54.25 193.625 C-44.65968321 205.75393006 -32.05782595 218.97108702 -18 226 C-18 226.66 -18 227.32 -18 228 C-16.35 228.66 -14.7 229.32 -13 230 C-10.03 231.32 -7.06 232.64 -4 234 C-2.35 234.66 -0.7 235.32 1 236 C1.99 236.99 2.98 237.98 4 239 C5.98 239.99 5.98 239.99 8 241 C16.21990489 251.64851316 24.52893567 264.413193 20 278 C20.66 279.588125 21.32 281.17625 22 282.8125 C24.91502338 290.37334189 22.76980662 296.58087513 20 304 C18.35 304.33 16.7 304.66 15 305 C13.35 305.66 11.7 306.32 10 307 C9.01 307 8.02 307 7 307 C6.67 307.66 6.34 308.32 6 309 C2.54446262 303.26694934 -0.13501939 297.64219861 -2.5 291.375 C-4.78585562 285.54606816 -7.49632279 281.13329452 -11 276 C-11 274.68 -11 273.36 -11 272 C-11.66 272 -12.32 272 -13 272 C-14.32 269.69 -15.64 267.38 -17 265 C-18.98 263.02 -18.98 263.02 -21 261 C-21 260.34 -21 259.68 -21 259 C-22.65 258.34 -24.3 257.68 -26 257 C-29 253 -29 253 -29 251 C-30.65 250.34 -32.3 249.68 -34 249 C-34.33 247.68 -34.66 246.36 -35 245 C-36.98 244.01 -36.98 244.01 -39 243 C-44.93127434 236.86652312 -49.75610834 231.42681041 -54 224 C-55.216875 222.453125 -56.43375 220.90625 -57.6875 219.3125 C-61 215 -61 215 -62 211 C-62.66 211 -63.32 211 -64 211 C-68 205 -68 205 -69 202 C-69.99 201.01 -70.98 200.02 -72 199 C-80 185 -80 185 -80 183 C-80.66 183 -81.32 183 -82 183 C-83.3407871 179.66965785 -84.67359954 176.33609813 -86 173 C-86.99 172.01 -87.98 171.02 -89 170 C-90.02640656 166.34063748 -91.02316343 162.67290549 -92 159 C-93.32 156.03 -94.64 153.06 -96 150 C-99.47269452 136.75231351 -100 123.64732794 -100 110 C-100.33 107.36 -100.66 104.72 -101 102 C-99.515 101.505 -99.515 101.505 -98 101 C-98.33 99.68 -98.66 98.36 -99 97 C-98.08245622 92.98028441 -97.07475284 88.98056608 -96 85 C-95.34 82.36 -94.68 79.72 -94 77 C-94.99 77 -95.98 77 -97 77 C-97 73 -97 73 -93 72 C-93 69.69 -93 67.38 -93 65 C-92.01 65 -91.02 65 -90 65 C-89.67 62.69 -89.34 60.38 -89 58 C-87.515 57.505 -87.515 57.505 -86 57 C-85.01 55.02 -84.02 53.04 -83 51 C-86.37788919 52.21604011 -89.70823373 53.56711351 -93 55 C-95 54 -95 54 -93 45 C-91.68 43.68 -90.36 42.36 -89 41 C-88.2575 39.659375 -87.515 38.31875 -86.75 36.9375 C-76.89432835 19.24208955 -63.53690376 4.51230125 -44 -2 C-44 -1.34 -44 -0.68 -44 0 C-40.66666667 0.5 -40.66666667 0.5 -41 -2 C-36.545 -2.495 -36.545 -2.495 -32 -3 C-19.90504818 -6.45570052 -11.110677 -5.82633062 0 0 Z M-46 76 C-45 78 -45 78 -45 78 Z M-61 84 C-57.10540926 86.73786479 -57.10540926 86.73786479 -55 84 C-53.22572607 75.12863037 -58.62658461 76.87975382 -61 84 Z M-48 85 C-45.21553546 85.32686023 -45.21553546 85.32686023 -45 80 C-46.83562902 79.84525388 -46.83562902 79.84525388 -48 85 Z M-49 90 C-48 92 -48 92 -48 92 Z M40 217 C43.63106761 220.5797509 43.63106761 220.5797509 47 219 C43.2981424 216.7763932 43.2981424 216.7763932 40 217 Z M11 262 C13.95504509 269.72690198 13.95504509 269.72690198 19 274 C19 272.35 19 270.7 19 269 C19.66 268.67 20.32 268.34 21 268 C20.01 267.67 19.02 267.34 18 267 C18 266.34 18 265.68 18 265 C15.69 264.01 13.38 263.02 11 262 Z " transform="translate(157,151)" style="fill: #706B94;"/><path d="M0 0 C0.495 0.99 0.495 0.99 1 2 C7.04145373 2.14802949 13.05982982 1.99160763 19.1015625 1.875 C34.46976111 2.20068368 42.25811246 8.88154139 52 20 C53.98 21.98 53.98 21.98 56 24 C57.76118606 27.284374 59.40780049 30.63046151 61 34 C62.216875 36.495625 63.43375 38.99125 64.6875 41.5625 C68 49 68 49 70 58 C70.49331193 61.78981909 70.49331193 61.78981909 73 64 C73.69993484 71.38820108 74 78.56976804 74 86 C74.66462155 89.3337417 75.33137036 92.66705986 76 96 C77.21287251 114.64438907 75.58191297 133.44823207 69 151 C68.54625 152.60875 68.0925 154.2175 67.625 155.875 C65.89995106 161.31553896 63.6466857 165.94188955 61 171 C59.1128125 174.83625 59.1128125 174.83625 57.1875 178.75 C41.42357395 209.80728715 19.18904491 237.54063672 -10 257 C-10 257.66 -10 258.32 -10 259 C-10.66 259 -11.32 259 -12 259 C-12.33333333 261.66666667 -12.33333333 261.66666667 -8 261 C-7.67 260.34 -7.34 259.68 -7 259 C-3.2565625 257.081875 -3.2565625 257.081875 0.5625 255.125 C9.85970459 250.31961517 17.71878517 244.37580257 26 238 C26.66 238 27.32 238 28 238 C26.4751658 244.09933679 16.64230751 256 10 256 C9.67 257.32 9.34 258.64 9 260 C4 263 4 263 -2 265 C-2.66 267.31 -3.32 269.62 -4 272 C-8 272 -8 272 -8 269 C-14.19928551 266.95158492 -14.19928551 266.95158492 -15 271 C-16 271 -17 271 -18 271 C-20.64 271.33 -23.28 271.66 -26 272 C-28 271 -28 271 -27 267 C-25.02 266.34 -23.04 265.68 -21 265 C-21 264.34 -21 263.68 -21 263 C-22.32 263.66 -23.64 264.32 -25 265 C-26.65 265 -28.3 265 -30 265 C-30 265.66 -30 266.32 -30 267 C-44.59473684 268.60789474 -44.59473684 268.60789474 -47 265 C-51.01676392 266.28194593 -55.01655636 267.61798894 -59 269 C-60.32 268.67 -61.64 268.34 -63 268 C-61 265 -61 265 -57 263 C-56.401875 261.39125 -55.80375 259.7825 -55.1875 258.125 C-49.81199843 245.53096775 -28.45324452 240.51939519 -16 237 C-11.05536365 235.66436384 -11.05536365 235.66436384 -10 233 C-7.03 232.01 -4.06 231.02 -1 230 C10.97066026 223.15962271 21.16190104 214.57415411 30 204 C31.299375 202.453125 32.59875 200.90625 33.9375 199.3125 C42.09001754 188.65151552 49.336661 177.31669499 52 164 C45.86798708 170.26248128 40.11809842 176.6103634 34.625 183.4375 C10.87640449 212 10.87640449 212 2 212 C2 212.66 2 213.32 2 214 C-8.37931034 221 -8.37931034 221 -11 221 C-11 221.66 -11 222.32 -11 223 C-12.98 223.33 -14.96 223.66 -17 224 C-17.33 224.66 -17.66 225.32 -18 226 C-18.99 226 -19.98 226 -21 226 C-21 226.66 -21 227.32 -21 228 C-22.98 228.33 -24.96 228.66 -27 229 C-27 229.66 -27 230.32 -27 231 C-31.455 231.99 -31.455 231.99 -36 233 C-38.660625 233.804375 -38.660625 233.804375 -41.375 234.625 C-48.7295082 236.81147541 -48.7295082 236.81147541 -51 230 C-51 231.65 -51 233.3 -51 235 C-56 236 -56 236 -58 236 C-58 235.34 -58 234.68 -58 234 C-59.32 234 -60.64 234 -62 234 C-64.073499 223.632505 -53.27924652 217.82339722 -46 212 C-44.02 210.02 -44.02 210.02 -42 208 C-42.33 209.65 -42.66 211.3 -43 213 C-41.35 212.01 -39.7 211.02 -38 210 C-36.02 209.01 -36.02 209.01 -34 208 C-34 207.34 -34 206.68 -34 206 C-32.35 204.68 -30.7 203.36 -29 202 C-18.24091898 186.10101605 -18.24091898 186.10101605 -13 168 C-12.67 167.67 -12.34 167.34 -12 167 C-11.29777394 163.00608926 -10.63449183 159.00522965 -10 155 C-9.505 152.03 -9.505 152.03 -9 149 C-9.32925811 145.66626166 -9.66248982 142.33291301 -10 139 C-9.67 137.35 -9.34 135.7 -9 134 C-9.73122906 126.80360688 -9.73122906 126.80360688 -11 121 C-11.95468206 126.98846022 -11.99848567 132.00908598 -11 138 C-12 147 -12 147 -13 149 C-13.28875 150.8975 -13.5775 152.795 -13.875 154.75 C-16.08 167 -16.08 167 -19 167 C-18.28358209 156.85074627 -18.28358209 156.85074627 -17 153 C-16.65815894 148.00057445 -16.32523793 143.00053311 -16 138 C-15.505 135.03 -15.505 135.03 -15 132 C-16.18394189 122.07310259 -17.83085242 112.50744275 -21 103 C-21.495 99.6278125 -21.495 99.6278125 -22 96.1875 C-22.12511271 90.09926909 -22.12511271 90.09926909 -25 89 C-25.495 84.545 -25.495 84.545 -26 80 C-26.66 79.67 -27.32 79.34 -28 79 C-28.99 75.04 -28.99 75.04 -30 71 C-31.98 70.01 -31.98 70.01 -34 69 C-38 67 -38 67 -38 65 C-39.98 64.34 -41.96 63.68 -44 63 C-46.145 61.164375 -48.29 59.32875 -50.5 57.4375 C-56.38439883 51.58171403 -56.38439883 51.58171403 -63 51 C-67.455 49.02 -67.455 49.02 -72 47 C-79.45917852 45.32313604 -79.45917852 45.32313604 -86 45 C-82.94729537 50.68516016 -82.94729537 50.68516016 -76 56 C-79 57 -79 57 -88 53 C-90.18625 52.54625 -92.3725 52.0925 -94.625 51.625 C-100 50 -100 50 -99 44 C-94.545 43.505 -94.545 43.505 -90 43 C-86.28949973 41.43334433 -82.6191442 39.76748903 -79 38 C-76.69 37.01 -74.38 36.02 -72 35 C-62.32817972 29.17360224 -53.16240476 22.73392192 -44.75 15.1875 C-35.24 7.104 -35.24 7.104 -28 10 C-27.67 8.68 -27.34 7.36 -27 6 C-26.67 5.67 -26.34 5.34 -26 5 C-26 4.67 -26 4.34 -26 4 C-20 4 -20 4 -19 7 C-18.01 6.01 -17.02 5.02 -16 4 C-12 4 -12 4 -12 6 C-1.47915706 3.36978926 -7.12689756 0 0 0 Z M-8 263 C-7.34 263.66 -6.68 264.32 -6 265 C-5.66666667 262.66666667 -5.66666667 262.66666667 -8 263 Z M-11 264 C-10 266 -10 266 -10 266 Z M-16 266 C-15 268 -15 268 -15 268 Z " transform="translate(376,148)" style="fill: #6F6B93;"/><path d="M0 0 C0.99 2.475 0.99 2.475 2 5 C2.99 5.99 2.99 5.99 4 7 C4.99 9.31 5.98 11.62 7 14 C7.99 15.65 8.98 17.3 10 19 C10 21 10 23 10 25 C10.99 25 11.98 25 13 25 C13 26.32 13 27.64 13 29 C13.66 29 14.32 29 15 29 C15 29.99 15 30.98 15 32 C15.66 32 16.32 32 17 32 C17.495 34.97 17.495 34.97 18 38 C19.485 38.495 19.485 38.495 21 39 C20.67 40.65 20.34 42.3 20 44 C20.33 44.66 20.66 45.32 21 46 C23.35143998 43.34928584 25.68397516 40.68171298 28 38 C28.66 38 29.32 38 30 38 C30.66 36.68 31.32 35.36 32 34 C36.0703125 31.74609375 36.0703125 31.74609375 41.125 29.4375 C42.77757812 28.67308594 44.43015625 27.90867187 46.1328125 27.12109375 C61.28961014 20.51584406 61.28961014 20.51584406 70 24 C72.475 22.02 72.475 22.02 75 20 C83 17 83 17 89 17 C89.33 18.98 89.66 20.96 90 23 C88.35 23 86.7 23 85 23 C79.92849271 32.76265153 77.73737643 43.40143998 75 54 C73.70331345 57.67978616 72.38680336 61.35322078 71 65 C71 65.66 71 66.32 71 67 C70.34 67 69.68 67 69 67 C68.34 68.98 67.68 70.96 67 73 C55.16853933 90.96629213 55.16853933 90.96629213 45 93 C44.01 93.99 43.02 94.98 42 96 C28.39534884 101 28.39534884 101 21 101 C14.86618116 101.36054767 14.86618116 101.36054767 17 108 C16.34 108 15.68 108 15 108 C15 108.66 15 109.32 15 110 C9 110 9 110 8 107 C7.34 107 6.68 107 6 107 C6 105.68 6 104.36 6 103 C4.68 103 3.36 103 2 103 C2 102.01 2 101.02 2 100 C-0.59628479 99.7018576 -0.59628479 99.7018576 -2 104 C-9.74296556 104 -12.7017461 98.59650781 -16 92 C-16.66 91.67 -17.32 91.34 -18 91 C-18.33 90.34 -18.66 89.68 -19 89 C-18.67 90.98 -18.34 92.96 -18 95 C-18 103 -18 103 -20 108 C-24 106 -24 106 -29 101 C-34.23570226 97.52859548 -34.23570226 97.52859548 -42 96 C-42 96.99 -42 97.98 -42 99 C-46 99 -46 99 -46 96 C-48.97 95.34 -51.94 94.68 -55 94 C-70 85.76470588 -70 85.76470588 -70 83 C-71.65 82.34 -73.3 81.68 -75 81 C-76.32 79.35 -77.64 77.7 -79 76 C-79.99 75.01 -80.98 74.02 -82 73 C-82 72.34 -82 71.68 -82 71 C-83.32 71 -84.64 71 -86 71 C-86 69.35 -86 67.7 -86 66 C-87.32 63.03 -88.64 60.06 -90 57 C-91.43897 50.14756779 -92.58989284 43.27502905 -93.75390625 36.37109375 C-94.19404112 30.51293608 -94.19404112 30.51293608 -98 31 C-98 28.36 -98 25.72 -98 23 C-88 24.25 -88 24.25 -88 28 C-86.659375 27.855625 -85.31875 27.71125 -83.9375 27.5625 C-65.524974 25.81815543 -49.24364297 31.60508562 -35 43 C-33.68 40.03 -32.36 37.06 -31 34 C-26.48349517 26.73816871 -21.89898903 22.01744657 -15 17 C-14.67 16.34 -14.34 15.68 -14 15 C-12.68 15 -11.36 15 -10 15 C-10.30575577 11.33093078 -10.64153634 7.66429521 -11 4 C-8 0 -8 0 0 0 Z M-21 39 C-21.66 40.32 -22.32 41.64 -23 43 C-23 44.32 -23 45.64 -23 47 C-23.66 47 -24.32 47 -25 47 C-26.87185729 53.21312067 -26.87185729 53.21312067 -22 57 C-22 56.34 -22 55.68 -22 55 C-21.34 55 -20.68 55 -20 55 C-20 54.34 -20 53.68 -20 53 C-19.34 52.67 -18.68 52.34 -18 52 C-18.33 50.68 -18.66 49.36 -19 48 C-18.34 45.36 -17.68 42.72 -17 40 C-17.33 39.01 -17.66 38.02 -18 37 C-17.34 36.67 -16.68 36.34 -16 36 C-16 26.91601751 -17.20772246 31.41544492 -21 39 Z M-84 35 C-83.67 35.66 -83.34 36.32 -83 37 C-82.67 36.34 -82.34 35.68 -82 35 C-82.66 35 -83.32 35 -84 35 Z M9 47 C9 47.99 9 48.98 9 50 C9.66 49.67 10.32 49.34 11 49 C10.34 48.34 9.68 47.68 9 47 Z M8 67 C10.78446454 67.32686023 10.78446454 67.32686023 11 62 C8.52967515 49.64837574 8.21992012 63.48127813 8 67 Z M54 71 C55 73 55 73 55 73 Z M17 85 C23.23570226 83.70710678 23.23570226 83.70710678 25 79 C19.0116547 73.0116547 19.91770199 76.24689404 17 85 Z M2 90 C1.25464401 95 1.25464401 95 4 96 C4.74535599 91 4.74535599 91 2 90 Z M6 102 C10 103 10 103 10 103 Z " transform="translate(262,1)" style="fill: #211402;"/><path d="M0 0 C-0.33 1.98 -0.66 3.96 -1 6 C-0.34 6 0.32 6 1 6 C1 9.66666667 1 13.33333333 1 17 C1.66 18.65 2.32 20.3 3 22 C3 23.98 3 25.96 3 28 C3.66 29.98 4.32 31.96 5 34 C5.42046705 37.95184062 5.768103 41.91177313 6.0625 45.875 C5.97607233 52.05129898 5.97607233 52.05129898 8 57 C7.938125 53.535 7.938125 53.535 7.875 50 C8 43 8 43 11 43 C11.66 41.68 12.32 40.36 13 39 C20 50.70689655 20 50.70689655 20 55 C20.66 55 21.32 55 22 55 C22.99 57.31 23.98 59.62 25 62 C25.845625 63.77375 26.69125 65.5475 27.5625 67.375 C33.15151515 80.27272727 33.15151515 80.27272727 30 85 C29.67 84.01 29.34 83.02 29 82 C26.66666667 81.66666667 26.66666667 81.66666667 27 84 C26.01 84.66 25.02 85.32 24 86 C27.28708796 87.75611549 30.62881848 89.41128227 34 91 C35.32 91.99 36.64 92.98 38 94 C37.87627959 89.40097849 37.87627959 89.40097849 37 84 C36 77 36 77 38 74 C44 76.4 44 76.4 44 86 C45.65 86.33 47.3 86.66 49 87 C50 88 50 88 49 96 C47.02 95.67 45.04 95.34 43 95 C43 95.66 43 96.32 43 97 C42.01 97.495 42.01 97.495 41 98 C41.33 99.32 41.66 100.64 42 102 C42.4094308 109.69729904 41.31959327 126 30 126 C30 126.66 30 127.32 30 128 C28.515 128.680625 27.03 129.36125 25.5 130.0625 C18.30002447 133.90794148 13.65512629 138.68974741 10 146 C1.58155321 144.31631064 4.35975687 137.94196388 4.3125 130.25 C4.48915421 119.86841722 4.48915421 119.86841722 2 110 C2.020625 108.081875 2.04125 106.16375 2.0625 104.1875 C2.85862242 98.50003629 2.85862242 98.50003629 -1 99 C-3.83333333 105.5 -3.83333333 105.5 0 114 C2.06956369 121.24347291 2.18619497 126.97512971 1.5 134.4375 C0.86570997 140.56315552 0.86570997 140.56315552 1 149 C-1 149 -1 149 -3.125 143.9375 C-7.39845595 135.11188446 -12.5829056 131.80976823 -21 127 C-31.20273257 118.49772286 -36.46189623 108.74442453 -31 96 C-30.01 95.01 -29.02 94.02 -28 93 C-28 92.34 -28 91.68 -28 91 C-26.68 91 -25.36 91 -24 91 C-23.49382893 85.89727017 -23.49382893 85.89727017 -31 81 C-31 71 -31 71 -28 63 C-27.97252712 58.51917371 -28.11288657 54.03573771 -28.375 49.5625 C-29.64858882 27 -29.64858882 27 -24 27 C-24 24.36 -24 21.72 -24 19 C-23.34 19 -22.68 19 -22 19 C-22.33 18.67 -22.66 18.34 -23 18 C-23.57142857 1 -23.57142857 1 -14 1 C-14 1.66 -14 2.32 -14 3 C-9.00439087 2.16739848 -4.3998913 -1.46663043 0 0 Z M-10 68 C-9.67 68.99 -9.34 69.98 -9 71 C-8.5 67.83333333 -8.5 67.83333333 -10 68 Z " transform="translate(256,213)" style="fill: #E0DFCB;"/><path d="M0 0 C0 0.99 0 1.98 0 3 C7.7763932 4.19256959 7.7763932 4.19256959 9 1 C23.01369863 4.01369863 23.01369863 4.01369863 28 9 C30.31 10.98 32.62 12.96 35 15 C36.32 16.65 37.64 18.3 39 20 C40.65 21.65 42.3 23.3 44 25 C50.47058824 35.35294118 50.47058824 35.35294118 42 41 C41.01 41 40.02 41 39 41 C38.67 41.99 38.34 42.98 38 44 C32 44 32 44 30 42 C29.34 41.67 28.68 41.34 28 41 C28 39.35 28 37.7 28 36 C27.34 36 26.68 36 26 36 C26 35.01 26 34.02 26 33 C24.35 32.67 22.7 32.34 21 32 C22.65 34.31 24.3 36.62 26 39 C28 46 28 46 25 47 C21 41 21 41 19 35 C17.68 34.34 16.36 33.68 15 33 C13.63875 32.154375 12.2775 31.30875 10.875 30.4375 C2.9681682 27.15700595 -4.51038785 27.3773161 -13 27 C-13.495 25.515 -13.495 25.515 -14 24 C-19.03704919 25.9047665 -24.03761393 27.90841579 -29 30 C-29.66 30 -30.32 30 -31 30 C-31.66 31.32 -32.32 32.64 -33 34 C-33.99 35.44375 -34.98 36.8875 -36 38.375 C-40.23342063 44.90152348 -41.11764485 48.0756476 -40.125 55.875 C-41.45276572 66.68680661 -47.42429806 67.16971922 -57 71 C-59.31 72.32 -61.62 73.64 -64 75 C-64.3515625 69.80078125 -64.3515625 69.80078125 -63.625 62.3125 C-63.41101563 59.87488281 -63.19703125 57.43726563 -62.9765625 54.92578125 C-60.10376214 34.55188107 -60.10376214 34.55188107 -53 31 C-53 30.34 -53 29.68 -53 29 C-52.01 28.67 -51.02 28.34 -50 28 C-49.34 26.68 -48.68 25.36 -48 24 C-35.75323065 14.81492298 -19.98660787 4 -4 4 C-3 0 -3 0 0 0 Z M-48 56 C-47 58 -47 58 -47 58 Z " transform="translate(260,128)" style="fill: #E2E2CE;"/><path d="M0 0 C0 19.90138887 -5.51285952 26 -25 26 C-24.67 27.32 -24.34 28.64 -24 30 C-24.66 30 -25.32 30 -26 30 C-26.33 32.64 -26.66 35.28 -27 38 C-27.66 40.64 -28.32 43.28 -29 46 C-30.51179592 59.60616327 -31.26667448 74.88887586 -24 87 C-23.071875 88.753125 -22.14375 90.50625 -21.1875 92.3125 C-17.83715474 98.58459729 -17.83715474 98.58459729 -12 106 C-12 106.66 -12 107.32 -12 108 C-18.30416617 104.84791692 -20.449063 98.89816654 -24 93 C-23.67 94.32 -23.34 95.64 -23 97 C-23.33 98.32 -23.66 99.64 -24 101 C-34.16263815 88.06573326 -37.28603501 73.71519298 -37.25 57.5625 C-37.25515625 55.25378906 -37.2603125 52.94507813 -37.265625 50.56640625 C-37 44 -37 44 -35.609375 38.33984375 C-34.1912452 33.2194734 -34.1912452 33.2194734 -41 31 C-54.64025474 17.35974526 -53.18511151 2.91348202 -42 -12 C-27.39187483 -23.68650014 -6.75382524 -16.88456309 0 0 Z " transform="translate(137,197)" style="fill: #231407;"/><path d="M0 0 C1.98 0.66 3.96 1.32 6 2 C8.9390625 2.5878125 8.9390625 2.5878125 11.9375 3.1875 C19.91289355 5.23428242 26.62808716 8.34450603 34 12 C36.31 13.11375 38.62 14.2275 41 15.375 C52.62596016 21.39558651 64.65136024 27.65136024 74 37 C75.485 37.99 75.485 37.99 77 39 C85 45 85 45 89 52 C89.66 52.66 90.32 53.32 91 54 C91 54.99 91 55.98 91 57 C92.485 57.495 92.485 57.495 94 58 C94.99 60.475 94.99 60.475 96 63 C96.99 64.485 96.99 64.485 98 66 C97.67 66.33 97.34 66.66 97 67 C97.99 67.99 98.98 68.98 100 70 C99.505 71.98 99.505 71.98 99 74 C99.66 74 100.32 74 101 74 C101 74.66 101 75.32 101 76 C98 75 98 75 93 69 C86.36571779 66.06985869 80.12240189 63.42448038 73 62 C70.958125 61.525625 68.91625 61.05125 66.8125 60.5625 C62.81014165 59.6445279 58.79233643 58.78434579 54.75 58.0625 C39 54.53947368 39 54.53947368 39 43 C30.49972964 35.82766129 30.49972964 35.82766129 20 33 C18.68 30.03 17.36 27.06 16 24 C13.72358783 20.62753752 11.3882841 17.29418497 9 14 C5.8823029 9.38341006 2.86636518 4.7772753 0 0 Z " transform="translate(169,386)" style="fill: #6F6B94;"/><path d="M0 0 C0 14.11082448 -2.08069015 19.52017254 -16 23 C-16.48881609 27.97104444 -16.48881609 27.97104444 -15.4375 33.6875 C-14.50446754 40.41515513 -14.0303135 45.21219448 -15 52 C-14.34 52 -13.68 52 -13 52 C-13 63.66666667 -13 63.66666667 -17 65 C-16.67 65.33 -16.34 65.66 -16 66 C-15 68 -15 68 -16 72 C-16.99 72 -17.98 72 -19 72 C-19.495 73.98 -19.495 73.98 -20 76 C-19.34 76 -18.68 76 -18 76 C-23.33333333 92 -23.33333333 92 -28 92 C-27.90889804 86.16947428 -26.74060602 80.86904223 -25.4375 75.1875 C-22.51220125 56.49102538 -23.52768643 37.69687141 -26 19 C-26 17.02 -26 15.04 -26 13 C-28.31 13 -30.62 13 -33 13 C-41.88461538 0.88461538 -41.88461538 0.88461538 -37 -4 C-19 -4.62790698 -19 -4.62790698 -19 9 C-19.66 10.32 -20.32 11.64 -21 13 C-12.92124473 13 -15 1.12819987 -15 -4 C-19.88882542 -13.77765083 -24.52934586 -14.16340602 -35 -13 C-48.61464622 -4.49084611 -48.65476013 2.15238378 -40 16 C-35.55438006 18.92397019 -35.55438006 18.92397019 -31 21 C-27 23 -27 23 -27 26 C-43.34049018 26 -54 17.34980668 -54 0 C-52.35 -2.64 -50.7 -5.28 -49 -8 C-48.34 -9.98 -47.68 -11.96 -47 -14 C-28.76053706 -29.63382538 -8.94941719 -20.13618868 0 0 Z " transform="translate(430,203)" style="fill: #231305;"/><path d="M0 0 C3.32993888 7.15244777 3.32993888 7.15244777 9 10 C9.33 10.99 9.66 11.98 10 13 C14.93211739 14.93601329 19.93998176 16.54027142 24.9765625 18.18359375 C29 20 29 20 28 24 C8.71172241 38.46620819 -16.96669418 26.42196533 -30 10 C-33 4 -33 4 -33 0 C-34.32 0 -35.64 0 -37 0 C-37 -4 -37 -4 -35 -5 C-38.65179678 -13.95360246 -38.65179678 -13.95360246 -46 -18 C-46 -18.66 -46 -19.32 -46 -20 C-46.99 -20 -47.98 -20 -49 -20 C-49 -24 -49 -24 -46 -24 C-45.67 -22.68 -45.34 -21.36 -45 -20 C-42.5 -19.66666667 -42.5 -19.66666667 -43 -23 C-23.25920577 -32.87039712 -8.45284246 -15.54232323 0 0 Z M-30 -17 C-30.48507125 -13.43408354 -30.48507125 -13.43408354 -26 -13 C-25.34 -13.66 -24.68 -14.32 -24 -15 C-25.98 -15.66 -27.96 -16.32 -30 -17 Z M-20 0 C-16.91952428 8.96649271 -16.91952428 8.96649271 -9 12 C-9 12.99 -9 13.98 -9 15 C-8.34 15 -7.68 15 -7 15 C-7.9820154 10.08992302 -14.10824545 0 -20 0 Z " transform="translate(401,456)" style="fill: #201301;"/><path d="M0 0 C1 1 1 1 1 10 C3.475 10.495 3.475 10.495 6 11 C7 12 7 12 6 20 C4.02 19.67 2.04 19.34 0 19 C0 19.66 0 20.32 0 21 C-0.99 21.495 -0.99 21.495 -2 22 C-1.505 23.98 -1.505 23.98 -1 26 C-0.5905692 33.69729904 -1.68040673 50 -13 50 C-13 50.66 -13 51.32 -13 52 C-15.2275 53.0209375 -15.2275 53.0209375 -17.5 54.0625 C-24.69997553 57.90794148 -29.34487371 62.68974741 -33 70 C-41.41844679 68.31631064 -38.64024313 61.94196388 -38.6875 54.25 C-38.51084579 43.86841722 -38.51084579 43.86841722 -41 34 C-41 16.81741558 -31.85272738 12 -16 12 C-9 15 -9 15 -5 18 C-5.12372041 13.40097849 -5.12372041 13.40097849 -6 8 C-7.57575758 -3.03030303 -7.57575758 -3.03030303 0 0 Z " transform="translate(299,289)" style="fill: #241506;"/><path d="M0 0 C3.12030433 8.3543632 4.15673789 16.68652423 0 25 C0.99 25.495 0.99 25.495 2 26 C2 27.32 2 28.64 2 30 C0.35 29.67 -1.3 29.34 -3 29 C-3.99 30.65 -4.98 32.3 -6 34 C-34.04123711 48.23969072 -34.04123711 48.23969072 -51 44 C-51 43.34 -51 42.68 -51 42 C-53.97 42.66 -56.94 43.32 -60 44 C-60 40 -60 40 -56 36 C-55.34 34.35 -54.68 32.7 -54 31 C-53 29 -53 29 -51 29 C-50.34 27.68 -49.68 26.36 -49 25 C-48.01 24.01 -47.02 23.02 -46 22 C-46 20.68 -46 19.36 -46 18 C-42.01323558 17.25827639 -38.00975336 16.60524579 -34 16 C-30.6415524 14.73125313 -27.29983165 13.41421356 -24 12 C-23.34 12 -22.68 12 -22 12 C-22 11.34 -22 10.68 -22 10 C-19.525 8.515 -19.525 8.515 -17 7 C-16.01 5.35 -15.02 3.7 -14 2 C-13.34 2 -12.68 2 -12 2 C-12 -0.97 -12 -3.94 -12 -7 C-5.49003348 -10.25498326 -3.43331902 -4.80664662 0 0 Z M-19 22 C-22.465 24.97 -22.465 24.97 -26 28 C-27.65 29.32 -29.3 30.64 -31 32 C-30.34 32 -29.68 32 -29 32 C-28.67 32.99 -28.34 33.98 -28 35 C-22.48663351 31.42452606 -22.48663351 31.42452606 -20 26 C-19.34 26 -18.68 26 -18 26 C-18.33 24.68 -18.66 23.36 -19 22 Z M-45 31 C-46.485 32.98 -46.485 32.98 -48 35 C-43.33333333 33.5 -43.33333333 33.5 -45 31 Z M-51 37 C-50.01 36.67 -49.02 36.34 -48 36 C-50.16666667 34.5 -50.16666667 34.5 -51 37 Z " transform="translate(134,438)" style="fill: #201301;"/><path d="M0 0 C0 0.66 0 1.32 0 2 C0.66 2.33 1.32 2.66 2 3 C0.1746875 5.784375 0.1746875 5.784375 -1.6875 8.625 C-3.3271875 11.285625 -3.3271875 11.285625 -5 14 C-3.35 13.67 -1.7 13.34 0 13 C-5.8487395 42 -5.8487395 42 -12 42 C-12.33 43.32 -12.66 44.64 -13 46 C-14.32 47.32 -15.64 48.64 -17 50 C-17.33 50.99 -17.66 51.98 -18 53 C-21.32531971 54.02633324 -24.6586286 55.02719567 -28 56 C-28 56.66 -28 57.32 -28 58 C-35 61 -35 61 -38 60 C-36.02 57.36 -34.04 54.72 -32 52 C-30.7625 50.185 -29.525 48.37 -28.25 46.5 C-25 42 -25 42 -23 42 C-22.34 39.69 -21.68 37.38 -21 35 C-21.66 35 -22.32 35 -23 35 C-22.67 35.99 -22.34 36.98 -22 38 C-22.99 38.495 -22.99 38.495 -24 39 C-27.40765251 41.72612201 -30.76069829 44.52159111 -34.0625 47.375 C-39.62678 51.46016759 -40.27808048 51.72191952 -45 47 C-45 42 -45 42 -43 42 C-43.33 40.68 -43.66 39.36 -44 38 C-41.73314647 34.62110512 -39.39559712 31.28887062 -37 28 C-36.34 26.35 -35.68 24.7 -35 23 C-34.34 23 -33.68 23 -33 23 C-32.34 21.35 -31.68 19.7 -31 18 C-27 14 -27 14 -23 12 C-22.01 11.01 -21.02 10.02 -20 9 C-19.01 8.67 -18.02 8.34 -17 8 C-16.01 6.68 -15.02 5.36 -14 4 C-10.69808915 2.59064781 -7.36505722 1.25111102 -4 0 C-3 -1 -3 -1 0 0 Z " transform="translate(328,30)" style="fill: #767D30;"/><path d="M0 0 C2 1 2 1 6 9 C6.99 9.33 7.98 9.66 9 10 C8.01 10.495 8.01 10.495 7 11 C7.99 12.65 8.98 14.3 10 16 C10.66 17.98 11.32 19.96 12 22 C12.99 22.66 13.98 23.32 15 24 C19.5222303 37.56669089 19.64645015 55.29462487 8 65 C-0.00788221 62.33070593 2.89969855 42.92232711 2.5625 35.9375 C2.376875 33.648125 2.19125 31.35875 2 29 C-2.17116133 31.08558066 -0.20855094 40.24014522 -0.1875 44.125 C-0.18105469 46.72632813 -0.17460937 49.32765625 -0.16796875 52.0078125 C-0.13655254 59.0241865 -0.13655254 59.0241865 1 66 C-1 66 -1 66 -1 64 C-2.32 63.34 -3.64 62.68 -5 62 C-11.23527979 57.01177617 -10.92393945 54.69797161 -12 47 C-12.66 44.03 -13.32 41.06 -14 38 C-13.34 38 -12.68 38 -12 38 C-12 36.68 -12 35.36 -12 34 C-11 25 -11 25 -9 19 C-8.34 16.03 -7.68 13.06 -7 10 C-6.01 9.01 -5.02 8.02 -4 7 C-3.67 5.68 -3.34 4.36 -3 3 C-2.34 3 -1.68 3 -1 3 C-0.67 2.01 -0.34 1.02 0 0 Z " transform="translate(254,18)" style="fill: #757D30;"/><path d="M0 0 C2.97115953 5.18952084 2.97115953 5.18952084 9.1875 7.6875 C8.5275 9.6675 7.8675 11.6475 7.1875 13.6875 C8.6725 18.1425 8.6725 18.1425 10.1875 22.6875 C12.25706369 29.93097291 12.37369497 35.66262971 11.6875 43.125 C11.05320997 49.25065552 11.05320997 49.25065552 11.1875 57.6875 C9.1875 57.6875 9.1875 57.6875 7.0625 52.625 C2.78904405 43.79938446 -2.3954056 40.49726823 -10.8125 35.6875 C-21.01523257 27.18522286 -26.27439623 17.43192453 -20.8125 4.6875 C-16.8125 1.6875 -16.8125 1.6875 -12.8125 1.6875 C-12.8125 1.0275 -12.8125 0.3675 -12.8125 -0.3125 C-3.62697964 -5.56136878 -3.62697964 -5.56136878 0 0 Z " transform="translate(245.8125,304.3125)" style="fill: #231406;"/><path d="M0 0 C5.31509689 7.54169153 7.84882141 11.79057124 9 21 C9.495 23.475 9.495 23.475 10 26 C4 22 4 22 0.0625 18 C-4.13247541 13.52868046 -4.13247541 13.52868046 -11 10 C-10.34 11.32 -9.68 12.64 -9 14 C-9 14.99 -9 15.98 -9 17 C-7.68 17.66 -6.36 18.32 -5 19 C-1 25 -1 25 -1 27 C0.32 27.66 1.64 28.32 3 29 C7.9375 34.125 7.9375 34.125 12 39 C9 39 9 39 6 38 C4.68 37.67 3.36 37.34 2 37 C2.495 36.01 2.495 36.01 3 35 C2.01 34.505 2.01 34.505 1 34 C1 33.34 1 32.68 1 32 C-0.32 31.67 -1.64 31.34 -3 31 C-6 29 -6 29 -6 27 C-7.98 26.67 -9.96 26.34 -12 26 C-12.33 25.01 -12.66 24.02 -13 23 C-14.32 22.34 -15.64 21.68 -17 21 C-18.65 19.68 -20.3 18.36 -22 17 C-22.66 16.67 -23.32 16.34 -24 16 C-24 15.34 -24 14.68 -24 14 C-25.32 13.34 -26.64 12.68 -28 12 C-29.73399116 8.70118755 -31.39932549 5.36552076 -33 2 C-33.99 0.68 -34.98 -0.64 -36 -2 C-36 -3.32 -36 -4.64 -36 -6 C-36.66 -6 -37.32 -6 -38 -6 C-41.20170377 -28.41192638 -7.38782511 -7.12079528 0 0 Z " transform="translate(217,51)" style="fill: #767E31;"/><path d="M0 0 C0 5.35837517 -0.35996527 20 -8 20 C-8 20.66 -8 21.32 -8 22 C-15 23 -15 23 -19 22 C-19 20.02 -19 18.04 -19 16 C-23.32338083 16.39366094 -23.32338083 16.39366094 -23 19 C-25 19 -25 19 -25 17 C-27.475 16.01 -27.475 16.01 -30 15 C-38.95266909 6.04733091 -38.01357573 -1.65082832 -30 -11 C-16.44389908 -16.80975754 -6.748921 -13.497842 0 0 Z " transform="translate(132,200)" style="fill: #8E4620;"/><path d="M0 0 C0 7 0 7 -5 8 C-5.66 7.01 -6.32 6.02 -7 5 C-10.465 7.97 -10.465 7.97 -14 11 C-30.13455454 17.91480909 -42.8115659 10.32975967 -51 -4 C-51.66 -4.66 -52.32 -5.32 -53 -6 C-53 -9 -53 -9 -46.125 -9.4375 C-38.34071699 -9.55681614 -38.34071699 -9.55681614 -32.875 -12.0625 C-18.61159954 -17.73128736 -7.01067236 -13.30230139 0 0 Z M-37 -1 C-32.39090008 1.75725936 -32.39090008 1.75725936 -24 0 C-24 -5.92990641 -33.81464152 -4.18535848 -37 -1 Z M-23 8 C-18.74129533 9.61442358 -18.74129533 9.61442358 -15 6 C-19.1490712 5.7018576 -19.1490712 5.7018576 -23 8 Z " transform="translate(439,422)" style="fill: #201301;"/><path d="M0 0 C-0.33 1.98 -0.66 3.96 -1 6 C-0.34 6 0.32 6 1 6 C1 9.66666667 1 13.33333333 1 17 C1.66 18.65 2.32 20.3 3 22 C3 23.98 3 25.96 3 28 C3.66 29.98 4.32 31.96 5 34 C5.39861589 37.80622815 5.72471435 41.62036951 6 45.4375 C6.5522751 53.08552398 7.56144845 59.68434536 10 67 C10 82.4 10 82.4 2 84 C-5.85378519 76.14621481 -6.07174866 68.55969615 -4 57.8125 C-1.72973921 42.34634834 -2.99713749 26.5443689 -4 11 C-4 9 -4 9 -2 8 C-2.66 7.67 -3.32 7.34 -4 7 C-4 -1.33333333 -4 -1.33333333 0 0 Z " transform="translate(256,213)" style="fill: #221407;"/><path d="M0 0 C0 18 0 18 -7 18 C-7 14 -7 14 -6 13 C-6 -1.21256533 -10.02944781 0.45501882 -23 1 C-26.93305462 4.93305462 -20.7938842 12.86070265 -19 16 C-16.69 16.33 -14.38 16.66 -12 17 C-10.5 22.1875 -10.5 22.1875 -11 27 C-26.91788271 23.46269273 -33.62016355 15.12425232 -33 -1 C-23.7087935 -11.95035052 -6.49765265 -16.24413162 0 0 Z " transform="translate(416,199)" style="fill: #8E4620;"/><path d="M0 0 C3.81358136 1.90679068 7.4773927 4.10473769 11.125 6.3125 C19.27901146 11.16607825 27.29059902 15.26739958 36 19 C41.14221364 21.57110682 46.2505223 24.2118197 51.3125 26.9375 C55.950309 29.38837468 60.64787573 31.7359445 65.4375 33.875 C70 36 70 36 70 38 C71.98 38.495 71.98 38.495 74 39 C96.41481481 49.82962963 96.41481481 49.82962963 98 53 C81.07295388 53 63.75203082 41.37601541 49 34 C47.02 33.34 45.04 32.68 43 32 C42.505 31.01 42.505 31.01 42 30 C39.36 29.67 36.72 29.34 34 29 C33.01 28.01 32.02 27.02 31 26 C26.34976405 23.63409048 21.68357353 21.29920882 17 19 C16 18 16 18 16 12 C14.68 11.67 13.36 11.34 12 11 C1.34234234 2.68468468 1.34234234 2.68468468 0 0 Z " transform="translate(184,348)" style="fill: #E4E4D1;"/><path d="M0 0 C0.40917152 5.72840126 0.51128143 11.44674482 0.65625 17.1875 C0.21962216 22.33248623 0.21962216 22.33248623 3 22 C8.37967236 35.13640925 13.5197989 52.34865762 -2 59 C-11.60364146 50.76830732 -10.27701007 46.40536019 -6 35 C-5.56298894 27.83553978 -5.49704384 20.70384031 -5.40625 13.52734375 C-4.56433273 0 -4.56433273 0 0 0 Z " transform="translate(234,241)" style="fill: #211406;"/><path d="M0 0 C4.20632342 4.20632342 8 9.89307822 8 16 C8.66 16 9.32 16 10 16 C10.99 18.31 11.98 20.62 13 23 C13.845625 24.77375 14.69125 26.5475 15.5625 28.375 C21.15151515 41.27272727 21.15151515 41.27272727 18 46 C17.67 45.01 17.34 44.02 17 43 C14.525 43.495 14.525 43.495 12 44 C1.31512502 44 2.92245854 29.30212689 2 21 C1.62875 18.504375 1.2575 16.00875 0.875 13.4375 C0 7 0 7 0 0 Z " transform="translate(268,252)" style="fill: #231608;"/><path d="M0 0 C3.27535292 6.55070585 4.54376041 10.45623959 -1 16 C-12.52001868 16 -17 14.00004984 -17 2 C-11.93531833 -3.06468167 -6.65812946 -1.01060894 0 0 Z " transform="translate(119,197)" style="fill: #241202;"/><path d="M0 0 C0 8 0 8 -2 8 C-2.495 4.04 -2.495 4.04 -3 0 C-13.96190375 -11.52862703 -13.96190375 -11.52862703 -27 -6 C-27.33 -5.34 -27.66 -4.68 -28 -4 C-29.32 -4 -30.64 -4 -32 -4 C-32.5726776 3.36299769 -32.34068732 7.31862536 -29 14 C-36.95758481 10.02120759 -36.80917928 4.09179275 -36 -4 C-24.02541274 -17.9703518 -8.66904052 -17.33808103 0 0 Z " transform="translate(132,200)" style="fill: #716B91;"/><path d="M0 0 C4.82673097 5.79207717 8 10.21502227 8 18 C7.34 18 6.68 18 6 18 C6.33 18.99 6.66 19.98 7 21 C-5.53362377 21 -5 8.45864211 -5 -1 C-4 -2 -4 -2 0 0 Z " transform="translate(215,312)" style="fill: #25190D;"/><path d="M0 0 C0 8 0 8 -2 8 C-2.15091852 13.24913483 -1.99093176 18.47312126 -1.875 23.72265625 C-2 29 -2 29 -4 36 C-2.02 36 -0.04 36 2 36 C-2 43 -2 43 -7 42 C-7.55859375 37.08984375 -7.55859375 37.08984375 -7.4375 30.9375 C-7.41558594 28.90464844 -7.39367187 26.87179687 -7.37109375 24.77734375 C-7 20 -7 20 -5 20 C-4.95699065 14.66684009 -4.95959712 9.33318029 -5 4 C-4 0 -4 0 0 0 Z " transform="translate(268,316)" style="fill: #21160B;"/><path d="M0 0 C0 9 0 9 -4 18 C-12.6611369 16.26777262 -9.49761057 9.52635991 -9 2 C-6 0 -6 0 0 0 Z " transform="translate(242,214)" style="fill: #201407;"/><path d="M0 0 C0.33 0.99 0.66 1.98 1 3 C2.32 3 3.64 3 5 3 C5.33 4.65 5.66 6.3 6 8 C6.99 8 7.98 8 9 8 C8 10 8 10 6 10 C5.67 11.32 5.34 12.64 5 14 C0.11563495 11.55781748 -4 8.15216725 -4 2 C-4.66 2 -5.32 2 -6 2 C-6 0 -6 0 0 0 Z " transform="translate(337,431)" style="fill: #6D6992;"/><path d="M0 0 C0 8 0 8 -2 8 C-2.10714652 13.21756949 -1.92585889 18.40885857 -1.77734375 23.625 C-2 28 -2 28 -5 28 C-5.328125 22.890625 -5.328125 22.890625 -5.25 16.25 C-5.23453125 14.06890625 -5.2190625 11.8878125 -5.203125 9.640625 C-4.85595568 0 -4.85595568 0 0 0 Z " transform="translate(268,316)" style="fill: #7C7463;"/><path d="M0 0 C-0.33 1.98 -0.66 3.96 -1 6 C-0.34 6 0.32 6 1 6 C1 14 1 14 -3 14 C-4 9 -4 9 -2 8 C-2.66 7.67 -3.32 7.34 -4 7 C-4 -1.33333333 -4 -1.33333333 0 0 Z " transform="translate(256,213)" style="fill: #756E62;"/><path d="M0 0 C0.33 2.31 0.66 4.62 1 7 C1.66 7 2.32 7 3 7 C5 12 5 12 4 14 C0.8575599 12.42877995 -8.87587331 0 0 0 Z " transform="translate(206,296)" style="fill: #29221A;"/><path d="M0 0 C7.7858617 1.11226596 14.62447016 3.30002926 22 6 C21 8 21 8 15 8 C14.67 7.01 14.34 6.02 14 5 C11.69 4.67 9.38 4.34 7 4 C0 1 0 1 0 0 Z " transform="translate(224,449)" style="fill: #6C668D;"/><path d="M0 0 C5.09090909 1.27272727 5.09090909 1.27272727 4 10 C1 10 1 10 1 8 C0.01 7.67 -0.98 7.34 -2 7 C-1.34 7 -0.68 7 0 7 C0 4.69 0 2.38 0 0 Z " transform="translate(301,299)" style="fill: #22160A;"/><path d="M0 0 C6.15686862 2.05228954 5.19305498 5.54443986 6 12 C-0.13502044 8.93248978 0 6.77855568 0 0 Z " transform="translate(288,271)" style="fill: #3C3327;"/><path d="M0 0 C0.66 0.66 1.32 1.32 2 2 C6.32899611 2.69427296 10.66233743 3.36210845 15 4 C15 7.18795537 1.06117514 6.8701622 -1 7 C-0.67 4.69 -0.34 2.38 0 0 Z " transform="translate(228,181)" style="fill: #DEDDCE;"/><path d="M0 0 C0 6.92951155 -1.7699972 6 -8 6 C-7 2 -7 2 -6 1 C-6 0 -6 0 0 0 Z " transform="translate(356,152)" style="fill: #3231CE;"/><path d="M0 0 C0.33 0.99 0.66 1.98 1 3 C1.99 3.33 2.98 3.66 4 4 C3 9 3 9 1 9 C0.34 7.68 -0.32 6.36 -1 5 C-1.99 4.67 -2.98 4.34 -4 4 C-4 0 -4 0 0 0 Z " transform="translate(232,316)" style="fill: #2D200D;"/><path d="M0 0 C1.32 1.65 2.64 3.3 4 5 C7.11785113 6.58925565 7.11785113 6.58925565 8 4 C8.66 5.98 9.32 7.96 10 10 C2.77090676 10 0 7.86480347 0 0 Z " transform="translate(167,310)" style="fill: #574E42;"/><path d="M0 0 C-1 9 -1 9 -5 9 C-5 2 -5 2 -3 2 C-3 0 -3 0 0 0 Z " transform="translate(185,211)" style="fill: #625FAC;"/><path d="M0 0 C-2 10 -2 10 -7 10 C-5 4 -5 4 -3 4 C-3.33 3.01 -3.66 2.02 -4 1 C-3 -1 -3 -1 0 0 Z " transform="translate(403,297)" style="fill: #30222B;"/><path d="M0 0 C-2 4 -2 4 -7 7 C-7 2.11638297 -5.37455691 0 0 0 Z " transform="translate(396,308)" style="fill: #231614;"/><path d="M0 0 C5.80943271 2.90471635 6 5.72225929 6 12 C0 3 0 3 0 0 Z " transform="translate(410,192)" style="fill: #726B91;"/><path d="M0 0 C-1 4 -1 4 -4 4 C-4 3.34 -4 2.68 -4 2 C-4.99 2 -5.98 2 -7 2 C-6 -1 -6 -1 0 0 Z " transform="translate(285,387)" style="fill: #D4D2CD;"/><path d="M0 0 C2 4 2 4 1 9 C-1 8 -1 8 -1 6 C-1.99 6 -2.98 6 -4 6 C-4 4 -4 4 0 3 C0 2.01 0 1.02 0 0 Z " transform="translate(286,289)" style="fill: #4A4134;"/><path d="M0 0 C3 1 3 1 2 7 C0 7 0 7 0 0 Z " transform="translate(253,212)" style="fill: #19110B;"/><path d="M0 0 C1.32 0 2.64 0 4 0 C3 5 3 5 1 5 C0.67 3.35 0.34 1.7 0 0 Z " transform="translate(232,320)" style="fill: #7B7365;"/><path d="M0 0 C0.33 1.32 0.66 2.64 1 4 C-4.30952381 4 -5.36309524 0 0 0 Z " transform="translate(143,444)" style="fill: #000000;"/><path d="M0 0 C0 4 0 4 -4 4 C-3 0 -3 0 0 0 Z " transform="translate(348,152)" style="fill: #0000B6;"/><path d="M0 0 C0 4 0 4 -4 4 C-4 0.33549219 -3.55551799 0 0 0 Z " transform="translate(324,84)" style="fill: #000000;"/><path d="M0 0 C1.98 0.99 1.98 0.99 4 2 C1 3 1 3 0 0 Z " transform="translate(174,344)" style="fill: #6F6B93;"/><path d="M0 0 C0.99 0.33 1.98 0.66 3 1 C2.01 1.33 1.02 1.66 0 2 C0 1.34 0 0.68 0 0 Z " transform="translate(293,397)" style="fill: #211300;"/><path d="M0 0 C2 1 2 1 1 3 C0.67 2.01 0.34 1.02 0 0 Z " transform="translate(341,217)" style="fill: #70709C;"/><path d="" transform="translate(0,0)" style="fill: #7E7BAC;"/><path d="M0 0 C2 1 2 1 2 1 Z " transform="translate(200,231)" style="fill: #DFDFD6;"/><path d="" transform="translate(0,0)" style="fill: #E5E5CF;"/><path d="" transform="translate(0,0)" style="fill: #FFFFFF;"/><path d="" transform="translate(0,0)" style="fill: #7A7AB1;"/><path d="" transform="translate(0,0)" style="fill: #330000;"/><path d="" transform="translate(0,0)" style="fill: #000000;"/><path d="" transform="translate(0,0)" style="fill: #242400;"/><path d="" transform="translate(0,0)" style="fill: #808000;"/></svg>