<?xml version="1.0" encoding="UTF-8"?>
<!-- Generator: visioncortex VTracer -->
<svg id="svg" version="1.1" xmlns="http://www.w3.org/2000/svg" style="display: block;" viewBox="0 0 128 128"><path d="M0 0 C0 3.3 0 6.6 0 10 C0.38982978 16.03544037 0.38982978 16.03544037 8 16 C13.59309851 19.3558591 15.42204953 21.68819811 17 28 C18.093125 29.216875 19.18625 30.43375 20.3125 31.6875 C30.236832 43.29392217 31.34259056 57.48611416 23 70 C22.896875 71.835625 22.79375 73.67125 22.6875 75.5625 C22 81 22 81 17 83 C14.62960245 85.63377505 12.29946568 88.30407472 10 91 C3 97 3 97 -6 100 C-7.98 101.65 -9.96 103.3 -12 105 C-13.98 105 -15.96 105 -18 105 C-18 105.66 -18 106.32 -18 107 C-22 106 -22 106 -26 104 C-28.64 103.67 -31.28 103.34 -34 103 C-34 103.66 -34 104.32 -34 105 C-38 105 -38 105 -39 102 C-45.64045375 97.90194193 -45.64045375 97.90194193 -52 96 C-54.72588462 93.73612973 -57.38326384 91.38919389 -60 89 C-61.918125 87.47375 -63.83625 85.9475 -65.8125 84.375 C-72.01583198 79.14327423 -74 77.17565585 -74 69 C-74.66 69 -75.32 69 -76 69 C-75.67 67.02 -75.34 65.04 -75 63 C-75.33 61.68 -75.66 60.36 -76 59 C-75.979375 56.40125 -75.95875 53.8025 -75.9375 51.125 C-76.00621265 40.82347027 -76.00621265 40.82347027 -82 33 C-82 30 -82 30 -75 30 C-72.793125 30.845625 -70.58625 31.69125 -68.3125 32.5625 C-57.57228043 33.30687165 -59.45832217 25.13036489 -58 16 C-54 11 -54 11 -49 10 C-48.34 8.68 -47.68 7.36 -47 6 C-41.48442705 0.48442705 -26.047358 6.90193702 -20 9 C-11.98937978 11.88959011 -11.98937978 11.88959011 -8 6 C-3 0 -3 0 0 0 Z " transform="translate(90,11)" style="fill: #000000;"/><path d="M0 0 C2.64 0.66 5.28 1.32 8 2 C12 6 12 6 14 15 C14.66 15 15.32 15 16 15 C16.495 17.475 16.495 17.475 17 20 C17.4125 21.60875 17.825 23.2175 18.25 24.875 C20.15191261 37.87140283 7.18220133 46.27259956 -4 50 C-6.64 50 -9.28 50 -12 50 C-21.93150765 51.45072786 -21.93150765 51.45072786 -29 58 C-40.76923077 54.07692308 -40.76923077 54.07692308 -44 46 C-45.32 45.34 -46.64 44.68 -48 44 C-52.89109524 35.8481746 -53.14394109 33.64773492 -51 24 C-50.62875 21.504375 -50.2575 19.00875 -49.875 16.4375 C-48 10 -48 10 -40 10 C-38 15 -38 15 -39 20 C-38.34 22.31 -37.68 24.62 -37 27 C-36.67 29.31 -36.34 31.62 -36 34 C-34.35 34.66 -32.7 35.32 -31 36 C-30.34 36.99 -29.68 37.98 -29 39 C-14.68322674 41.38612888 -2.59234195 40.59234195 8 30 C8.99 29.67 9.98 29.34 11 29 C7.71860587 15.87442347 -2.15686127 8 -16 8 C-24.62091482 12.31045741 -25.65034671 14.72378651 -23 24 C-14.2981954 27.26317672 -8.8430347 28.6860694 -4 19 C2.35294118 20.58823529 2.35294118 20.58823529 1 26 C-8.29937643 33.97089408 -15.7054497 37.64727515 -27 32 C-33.59858933 21.00235112 -32.54978572 7.92987143 -21 1 C-14.29946031 -2.35026985 -6.70036595 -4.46691063 0 0 Z " transform="translate(75,44)" style="fill: #843A2E;"/><path d="M0 0 C2.31 1.32 4.62 2.64 7 4 C9.475 6.475 9.475 6.475 12 9 C13.340625 10.11375 14.68125 11.2275 16.0625 12.375 C27.70748017 23.0957754 27.56667753 38.75831433 20 52 C19.34 52 18.68 52 18 52 C18.495 53.98 18.495 53.98 19 56 C13.26934208 64.59598688 7.01395532 69.16642975 -2 74 C-3.65 75.32 -5.3 76.64 -7 78 C-12.7734375 78.53125 -12.7734375 78.53125 -19.375 78.5 C-21.56898437 78.5103125 -23.76296875 78.520625 -26.0234375 78.53125 C-27.66570313 78.3559375 -29.30796875 78.180625 -31 78 C-29.28847839 71.15391357 -25.67550417 70.99281379 -19.125 71.0625 C-1.27170688 70.88032354 12.07401845 53.1042695 11.9375 36.3125 C10.9321741 24.65800736 10.9321741 24.65800736 4 16 C3.505 14.515 3.505 14.515 3 13 C1.68 12.34 0.36 11.68 -1 11 C-1.99 9.68 -2.98 8.36 -4 7 C-7.9983306 6.64720612 -11.99822104 6.31124947 -16 6 C-13 3 -13 3 -10 3 C-9.67 1.68 -9.34 0.36 -9 -1 C-5 -4 -5 -4 0 0 Z " transform="translate(88,30)" style="fill: #80382D;"/><path d="M0 0 C1.98 0.66 3.96 1.32 6 2 C6 12.46883913 -3.23406827 10.07689041 -11 10 C-11.33 10.99 -11.66 11.98 -12 13 C-13.98 13.99 -13.98 13.99 -16 15 C-16.33 15.99 -16.66 16.98 -17 18 C-17.99 18.33 -18.98 18.66 -20 19 C-22.475 22.96 -22.475 22.96 -25 27 C-27 27 -27 27 -27 24 C-29.475 23.01 -29.475 23.01 -32 22 C-32 12.0276316 -31.40770727 11.62491768 -25 5 C-24.01 3.02 -23.02 1.04 -22 -1 C-14.60564953 -3.11267156 -6.76531265 -4.51020843 0 0 Z " transform="translate(65,25)" style="fill: #863B2F;"/><path d="M0 0 C2.31 1.32 4.62 2.64 7 4 C17 14 17 14 16 17 C12 13 12 13 11 11 C8.69 10.01 6.38 9.02 4 8 C4 7.34 4 6.68 4 6 C2.68 6 1.36 6 0 6 C1.42720536 10.28161608 3.61428807 11 8 11 C8 14 8 14 5 15 C-1 11 -1 11 -4 7 C-7.9983306 6.64720612 -11.99822104 6.31124947 -16 6 C-13 3 -13 3 -10 3 C-9.67 1.68 -9.34 0.36 -9 -1 C-5 -4 -5 -4 0 0 Z " transform="translate(88,30)" style="fill: #974334;"/><path d="M0 0 C0 0.99 0 1.98 0 3 C2.475 3.99 2.475 3.99 5 5 C5 7 5 7 2 7 C1.51492875 10.56591646 1.51492875 10.56591646 6 11 C5 15 5 15 0 14 C0.83462035 18.71058562 0.83462035 18.71058562 2 22 C0 23 0 23 -3 18 C-4.46461865 13.60614404 -6.70686575 0 0 0 Z " transform="translate(27,65)" style="fill: #984335;"/><path d="M0 0 C-1.32 0.33 -2.64 0.66 -4 1 C-3.67 2.65 -3.34 4.3 -3 6 C-16.55941731 3.28811654 -11.74974383 -1.9818845 0 0 Z M-15 5 C-7 6 -7 6 -7 9 C-14 10 -14 10 -15 5 Z " transform="translate(62,23)" style="fill: #7B362B;"/><path d="M0 0 C9 1 9 1 9 5 C9.66 5 10.32 5 11 5 C12 8 12 8 9 10 C6.69 10 4.38 10 2 10 C4 8 4 8 7 8 C6.11785113 5.64644661 6.11785113 5.64644661 3 5 C2.67 5.99 2.34 6.98 2 8 C1.34 8 0.68 8 0 8 C1 4 1 4 2 1 C1.34 0.67 0.68 0.34 0 0 Z " transform="translate(50,85)" style="fill: #944133;"/><path d="M0 0 C0 1.98 0 3.96 0 6 C3.465 5.505 3.465 5.505 7 5 C7 10 7 10 3 14 C3.33 12.68 3.66 11.36 4 10 C1.36 9.67 -1.28 9.34 -4 9 C-4 0 -4 0 0 0 Z " transform="translate(104,67)" style="fill: #8C3D32;"/><path d="M0 0 C0 2 0 2 -3 4 C-3 4.99 -3 5.98 -3 7 C-1.02 6.34 0.96 5.68 3 5 C3 7 3 7 0 10 C-0.33 10.66 -0.66 11.32 -1 12 C-5.01059296 12 -8 9.01059296 -8 5 C-7.34 5 -6.68 5 -6 5 C-6.66 3.68 -7.32 2.36 -8 1 C-7 0 -7 0 0 0 Z " transform="translate(44,36)" style="fill: #8C3D30;"/><path d="M0 0 C-1 4 -1 4 -5 6 C-5.33333333 8.33333333 -5.33333333 8.33333333 -3 8 C-2.67 9.65 -2.34 11.3 -2 13 C-8.53534188 11.36616453 -8 7.06403819 -8 1 C-5 -1 -5 -1 0 0 Z " transform="translate(107,52)" style="fill: #81392D;"/><path d="M0 0 C0.66 1.65 1.32 3.3 2 5 C1 6 1 6 -4 6 C-4 4.68 -4 3.36 -4 2 C-4.99 1.34 -5.98 0.68 -7 0 C-7 -6.09077395 -1.39695046 -5.58780186 0 0 Z " transform="translate(91,63)" style="fill: #6E3127;"/><path d="M0 0 C4 2 4 2 3 6 C4.98 5.67 6.96 5.34 9 5 C10 11 10 11 9 13 C5 12 5 12 5 9 C4.01 9 3.02 9 2 9 C1.34 6.03 0.68 3.06 0 0 Z " transform="translate(84,63)" style="fill: #964235;"/><path d="M0 0 C3.22222222 6.44444444 3.22222222 6.44444444 1 12 C-3 12 -3 12 -4 5 C-2 2 -2 2 0 2 C0 1.34 0 0.68 0 0 Z " transform="translate(110,58)" style="fill: #833A2E;"/><path d="M0 0 C-0.99 0.495 -0.99 0.495 -2 1 C-2 2.32 -2 3.64 -2 5 C-3.98 5 -5.96 5 -8 5 C-9.65 5.66 -11.3 6.32 -13 7 C-11.15537793 -0.37848826 -6.97188683 0 0 0 Z " transform="translate(70,101)" style="fill: #8A3C31;"/><path d="M0 0 C2 5 2 5 1 7 C-2 6 -2 6 -1 1 C-3.2981424 1.7763932 -3.2981424 1.7763932 -3 4 C-3.66 4 -4.32 4 -5 4 C-5 4.66 -5 5.32 -5 6 C-5.99 6 -6.98 6 -8 6 C-8 7.65 -8 9.3 -8 11 C-9 11 -9 11 -9 4 C-8 0 -8 0 0 0 Z " transform="translate(35,54)" style="fill: #743328;"/><path d="M0 0 C1 4 1 4 -1 7 C-5 7 -5 7 -9 1 C-6 -1 -6 -1 0 0 Z " transform="translate(69,85)" style="fill: #944132;"/><path d="M0 0 C0 0.99 0 1.98 0 3 C1.32 3 2.64 3 4 3 C4 3.66 4 4.32 4 5 C1.36 4.67 -1.28 4.34 -4 4 C-4 5.32 -4 6.64 -4 8 C-7 8 -7 8 -8 5 C-7 3 -7 3 -5 3 C-4 0 -4 0 0 0 Z " transform="translate(80,47)" style="fill: #753428;"/><path d="M0 0 C0 9 0 9 -6 9 C-3.72413793 -1.24137931 -3.72413793 -1.24137931 0 0 Z " transform="translate(39,78)" style="fill: #903F31;"/><path d="M0 0 C0 6 0 6 -5 7 C-6.86720692 3.26558617 -4.01366045 0 0 0 Z " transform="translate(32,62)" style="fill: #7D382D;"/><path d="M0 0 C1.65 0.99 3.3 1.98 5 3 C5 2.34 5 1.68 5 1 C5.66 1 6.32 1 7 1 C5 5 5 5 0 7 C0 4.69 0 2.38 0 0 Z " transform="translate(80,100)" style="fill: #813A2F;"/><path d="M0 0 C2 4 2 4 2 9 C-0.31 8.67 -2.62 8.34 -5 8 C-4.01 6.68 -3.02 5.36 -2 4 C-1.34 2.68 -0.68 1.36 0 0 Z " transform="translate(83,28)" style="fill: #7D372A;"/><path d="M0 0 C0 0.66 0 1.32 0 2 C0.99 2.33 1.98 2.66 3 3 C1.02 3.66 -0.96 4.32 -3 5 C-3 4.34 -3 3.68 -3 3 C-3.99 2.67 -4.98 2.34 -6 2 C-4 0 -4 0 0 0 Z " transform="translate(61,74)" style="fill: #7A372D;"/><path d="M0 0 C-1 4 -1 4 -7 3 C-5 -1 -5 -1 0 0 Z " transform="translate(107,52)" style="fill: #9C4537;"/><path d="M0 0 C0 4 0 4 -3 4 C-3.2981424 6.2236068 -3.2981424 6.2236068 -1 7 C-5 6 -5 6 -5 3 C-4.34 3 -3.68 3 -3 3 C-3 0 -3 0 0 0 Z " transform="translate(41,92)" style="fill: #7A372B;"/><path d="M0 0 C-3.4 6.8 -3.4 6.8 -7 5 C-6 2 -6 2 -4 2 C-4 0 -4 0 0 0 Z " transform="translate(92,78)" style="fill: #733328;"/><path d="M0 0 C1 4 1 4 -2 6 C-4 5 -4 5 -3 0 C-2 -1 -2 -1 0 0 Z " transform="translate(96,93)" style="fill: #692E24;"/><path d="M0 0 C0 0.99 0 1.98 0 3 C1.32 3 2.64 3 4 3 C4 3.66 4 4.32 4 5 C0.62379459 4.32475892 -10.58256012 0 0 0 Z " transform="translate(80,47)" style="fill: #5F2A21;"/><path d="M0 0 C0 1 0 1 -7 2 C-7.66 1.67 -8.32 1.34 -9 1 C-9 1.66 -9 2.32 -9 3 C-19.03168588 -0.34389529 -2.70416936 -0.37298888 0 0 Z " transform="translate(62,23)" style="fill: #72332B;"/><path d="M0 0 C0 0.66 0 1.32 0 2 C1.65 2.33 3.3 2.66 5 3 C5 4 5 4 -2 4 C-6.00448212 1.99775894 -3.32002578 0 0 0 Z " transform="translate(76,104)" style="fill: #753428;"/><path d="M0 0 C-1 3 -1 3 -7 1 C-5 -1 -5 -1 0 0 Z " transform="translate(47,99)" style="fill: #723227;"/><path d="M0 0 C1 6 1 6 -3 7 C-3 3 -3 3 -1 3 C-1 0 -1 0 0 0 Z " transform="translate(36,64)" style="fill: #7F382D;"/><path d="M0 0 C0 1.32 0 2.64 0 4 C-1.65 3.67 -3.3 3.34 -5 3 C-2 0 -2 0 0 0 Z " transform="translate(88,72)" style="fill: #7B3831;"/><path d="M0 0 C0 2.42451937 -12.24462644 1.03134596 -14 1 C-14 -1.42451937 -1.75537356 -0.03134596 0 0 Z " transform="translate(72,108)" style="fill: #3C1A14;"/><path d="M0 0 C2.97 0.495 2.97 0.495 6 1 C4.68 1.99 3.36 2.98 2 4 C1.34 2.68 0.68 1.36 0 0 Z " transform="translate(38,79)" style="fill: #692E24;"/><path d="M0 0 C1.98 0 3.96 0 6 0 C5 3 5 3 1 2 C0.67 1.34 0.34 0.68 0 0 Z " transform="translate(48,30)" style="fill: #592820;"/><path d="M0 0 C0 2.43478645 -11.25918936 1.03347713 -13 1 C-13 -1.43478645 -1.74081064 -0.03347713 0 0 Z " transform="translate(71,107)" style="fill: #AD4D3E;"/><path d="M0 0 C0.33 0.99 0.66 1.98 1 3 C-5.26190476 3 -6.45238095 0 0 0 Z " transform="translate(68,73)" style="fill: #5D2921;"/><path d="M0 0 C0 3 0 3 -4 3 C-4 0 -4 0 0 0 Z " transform="translate(48,113)" style="fill: #000000;"/><path d="M0 0 C3 2 3 2 3 5 C0 5 0 5 0 0 Z " transform="translate(24,83)" style="fill: #080400;"/><path d="M0 0 C-1 4 -1 4 -6 4 C-2 0 -2 0 0 0 Z " transform="translate(81,77)" style="fill: #672D25;"/><path d="M0 0 C-2 4 -2 4 -5 5 C-5 1.74860662 -3.25139338 0 0 0 Z " transform="translate(87,101)" style="fill: #B55141;"/><path d="M0 0 C1 3 1 3 0 5 C-3.85714286 5 -3.85714286 0 0 0 Z " transform="translate(50,56)" style="fill: #6E3126;"/><path d="M0 0 C0 0.99 0 1.98 0 3 C0.66 3.33 1.32 3.66 2 4 C-0.52435744 3.36891064 -5.47361906 0 0 0 Z " transform="translate(38,95)" style="fill: #703127;"/><path d="M0 0 C5 0 5 0 5 3 C3 3 3 3 3 1 C2.01 0.67 1.02 0.34 0 0 Z " transform="translate(55,76)" style="fill: #662D25;"/><path d="M0 0 C-3 2 -3 2 -6 2 C-6 0 -6 0 0 0 Z " transform="translate(78,100)" style="fill: #080400;"/><path d="M0 0 C0 0.99 0 1.98 0 3 C-6 2 -6 2 -6 1 C-4.02 0.67 -2.04 0.34 0 0 Z " transform="translate(71,91)" style="fill: #6C3027;"/><path d="M0 0 C3 1 3 1 3 3 C2.34 3 1.68 3 1 3 C0.67 3.66 0.34 4.32 0 5 C0 3.35 0 1.7 0 0 Z " transform="translate(99,75)" style="fill: #703228;"/><path d="M0 0 C3 1 3 1 3 4 C0 3 0 3 0 0 Z " transform="translate(47,72)" style="fill: #9C4536;"/><path d="M0 0 C0 1.32 0 2.64 0 4 C-3.67227947 2.77590684 -4.09699389 0 0 0 Z " transform="translate(29,65)" style="fill: #672E25;"/><path d="M0 0 C2 3 2 3 -1 5 C-0.67 3.35 -0.34 1.7 0 0 Z " transform="translate(45,58)" style="fill: #893C31;"/><path d="M0 0 C1.98 0.99 1.98 0.99 4 2 C2.02 2.99 2.02 2.99 0 4 C0 2.68 0 1.36 0 0 Z " transform="translate(76,87)" style="fill: #924031;"/><path d="M0 0 C0 2.68741925 -5.31258075 1 -8 1 C-8 -1.68741925 -2.68741925 0 0 0 Z " transform="translate(62,85)" style="fill: #371813;"/><path d="M0 0 C0 1.65 0 3.3 0 5 C-3.75 0 -3.75 0 0 0 Z " transform="translate(112,48)" style="fill: #080400;"/><path d="M0 0 C-1 3 -1 3 -4 2 C-4 0 -4 0 0 0 Z " transform="translate(96,44)" style="fill: #703226;"/><path d="M0 0 C0 2.68741925 -5.31258075 1 -8 1 C-8 -1.68741925 -2.68741925 0 0 0 Z " transform="translate(70,41)" style="fill: #3F1C16;"/><path d="M0 0 C0 2.68741925 -5.31258075 1 -8 1 C-8 -1.68741925 -2.68741925 0 0 0 Z " transform="translate(67,35)" style="fill: #080400;"/><path d="M0 0 C0 0.66 0 1.32 0 2 C-1.32 1.67 -2.64 1.34 -4 1 C-3 0 -3 0 0 0 Z " transform="translate(32,73)" style="fill: #652D22;"/><path d="M0 0 C0 7 0 7 -1 7 C-1 0 -1 0 0 0 Z " transform="translate(27,58)" style="fill: #3C1A15;"/><path d="M0 0 C-0.99 1.485 -0.99 1.485 -2 3 C-2.6565044 0.37398242 -2.42355408 -4.84710815 0 0 Z " transform="translate(100,53)" style="fill: #5C2820;"/><path d="M0 0 C0 1 0 1 -6 1 C-6 0 -6 0 0 0 Z " transform="translate(81,107)" style="fill: #301612;"/><path d="M0 0 C-1.98 0.99 -1.98 0.99 -4 2 C-2 -1 -2 -1 0 0 Z " transform="translate(85,97)" style="fill: #A34839;"/><path d="M0 0 C1.32 0 2.64 0 4 0 C3.67 0.66 3.34 1.32 3 2 C2.01 1.34 1.02 0.68 0 0 Z " transform="translate(66,84)" style="fill: #753428;"/><path d="M0 0 C1.98 0.99 1.98 0.99 4 2 C1 2 1 2 0 0 Z " transform="translate(42,81)" style="fill: #9C4535;"/><path d="M0 0 C0 6 0 6 -1 6 C-1 0 -1 0 0 0 Z " transform="translate(86,67)" style="fill: #311510;"/><path d="M0 0 C0 2 0 2 -3 2 C-3 0 -3 0 0 0 Z " transform="translate(67,61)" style="fill: #371813;"/><path d="M0 0 C2 2 2 2 1 5 C0.67 3.35 0.34 1.7 0 0 Z " transform="translate(27,54)" style="fill: #5A2821;"/><path d="M0 0 C2.475 0.495 2.475 0.495 5 1 C2 2 2 2 0 0 Z " transform="translate(70,54)" style="fill: #23100C;"/><path d="M0 0 C1.65 0 3.3 0 5 0 C4 2 4 2 0 0 Z " transform="translate(30,54)" style="fill: #3C1B13;"/><path d="M0 0 C-1.98 0.99 -1.98 0.99 -4 2 C-3 -1 -3 -1 0 0 Z " transform="translate(48,44)" style="fill: #000000;"/><path d="M0 0 C0 6 0 6 -1 6 C-1 0 -1 0 0 0 Z " transform="translate(34,41)" style="fill: #3F1C15;"/><path d="M0 0 C-1.65 0.33 -3.3 0.66 -5 1 C-4 -1 -4 -1 0 0 Z " transform="translate(77,35)" style="fill: #7A362A;"/><path d="M0 0 C0 1 0 1 -5 1 C-5 0 -5 0 0 0 Z " transform="translate(63,108)" style="fill: #6F3229;"/><path d="M0 0 C0.99 0.495 0.99 0.495 2 1 C1.01 2.485 1.01 2.485 0 4 C0 2.68 0 1.36 0 0 Z " transform="translate(56,104)" style="fill: #291410;"/><path d="M0 0 C0 0.66 0 1.32 0 2 C-3.62932319 0.7902256 -4.50585422 0 0 0 Z " transform="translate(28,101)" style="fill: #000000;"/><path d="M0 0 C-1.32 0.33 -2.64 0.66 -4 1 C-2 -1 -2 -1 0 0 Z " transform="translate(56,94)" style="fill: #A54939;"/><path d="M0 0 C0.33 0.99 0.66 1.98 1 3 C0.34 3 -0.32 3 -1 3 C-0.67 2.01 -0.34 1.02 0 0 Z " transform="translate(70,72)" style="fill: #A54939;"/><path d="M0 0 C0.66 1.32 1.32 2.64 2 4 C0 4 0 4 0 0 Z " transform="translate(43,64)" style="fill: #1E0E0B;"/><path d="M0 0 C0.99 0.33 1.98 0.66 3 1 C2.67 1.66 2.34 2.32 2 3 C1.34 2.01 0.68 1.02 0 0 Z " transform="translate(81,47)" style="fill: #A54939;"/><path d="M0 0 C0 0.66 0 1.32 0 2 C-3.62932319 0.7902256 -4.50585422 0 0 0 Z " transform="translate(52,48)" style="fill: #703226;"/><path d="M0 0 C-1.32 -0.33 -2.64 -0.66 -4 -1 C-2 -2 -2 -2 0 0 Z " transform="translate(69,26)" style="fill: #080400;"/><path d="M0 0 C0 1 0 1 -5 1 C-5 0 -5 0 0 0 Z " transform="translate(62,23)" style="fill: #49201B;"/><path d="M0 0 C4 1 4 1 4 1 Z " transform="translate(55,94)" style="fill: #6A2F26;"/><path d="M0 0 C4 1 4 1 4 1 Z " transform="translate(65,92)" style="fill: #23100D;"/><path d="M0 0 C4 1 4 1 4 1 Z " transform="translate(52,84)" style="fill: #100808;"/><path d="M0 0 C4 1 4 1 4 1 Z " transform="translate(46,83)" style="fill: #26110D;"/><path d="M0 0 C1 4 1 4 1 4 Z " transform="translate(22,77)" style="fill: #361713;"/><path d="M0 0 C0 3 0 3 0 3 Z " transform="translate(82,75)" style="fill: #8C3C31;"/><path d="M0 0 C0.99 0.33 1.98 0.66 3 1 C0 1 0 1 0 0 Z " transform="translate(84,73)" style="fill: #5F2B25;"/><path d="M0 0 C1 4 1 4 1 4 Z " transform="translate(100,70)" style="fill: #080400;"/><path d="M0 0 C4 1 4 1 4 1 Z " transform="translate(60,71)" style="fill: #23100D;"/><path d="M0 0 C0 2 0 2 -2 2 C-2 0 -2 0 0 0 Z " transform="translate(110,67)" style="fill: #9C4539;"/><path d="M0 0 C0 2 0 2 -2 2 C-2 0 -2 0 0 0 Z " transform="translate(77,67)" style="fill: #9C4535;"/><path d="M0 0 C1 4 1 4 1 4 Z " transform="translate(43,59)" style="fill: #2F1511;"/><path d="M0 0 C1 4 1 4 1 4 Z " transform="translate(110,58)" style="fill: #A94B39;"/><path d="M0 0 C0 3 0 3 0 3 Z " transform="translate(45,58)" style="fill: #B14F3F;"/><path d="M0 0 C0.99 1.485 0.99 1.485 2 3 C0 3 0 3 0 0 Z " transform="translate(27,57)" style="fill: #6D3029;"/><path d="M0 0 C0.66 0.66 1.32 1.32 2 2 C1.01 2.495 1.01 2.495 0 3 C0 2.01 0 1.02 0 0 Z " transform="translate(45,55)" style="fill: #7B372C;"/><path d="M0 0 C4 1 4 1 4 1 Z " transform="translate(59,50)" style="fill: #2E1410;"/><path d="M0 0 C4 1 4 1 4 1 Z " transform="translate(78,35)" style="fill: #692F24;"/><path d="M0 0 C0.99 0.33 1.98 0.66 3 1 C2.01 1.33 1.02 1.66 0 2 C0 1.34 0 0.68 0 0 Z " transform="translate(59,24)" style="fill: #AD4D3D;"/><path d="M0 0 C0.99 0.33 1.98 0.66 3 1 C2.01 1.33 1.02 1.66 0 2 C0 1.34 0 0.68 0 0 Z " transform="translate(42,23)" style="fill: #381813;"/><path d="M0 0 C4 1 4 1 4 1 Z " transform="translate(53,22)" style="fill: #27110F;"/><path d="M0 0 C3 1 3 1 3 1 Z " transform="translate(69,108)" style="fill: #23100D;"/><path d="M0 0 C3 1 3 1 3 1 Z " transform="translate(72,101)" style="fill: #3C1B13;"/><path d="M0 0 C3 1 3 1 3 1 Z " transform="translate(67,101)" style="fill: #622B23;"/><path d="M0 0 C3 1 3 1 3 1 Z " transform="translate(37,98)" style="fill: #371813;"/><path d="M0 0 C0.66 0.66 1.32 1.32 2 2 C0 2 0 2 0 0 Z " transform="translate(31,87)" style="fill: #54261E;"/><path d="M0 0 C0.99 0.495 0.99 0.495 2 1 C1.01 1.495 1.01 1.495 0 2 C0 1.34 0 0.68 0 0 Z " transform="translate(27,86)" style="fill: #A54939;"/><path d="" transform="translate(0,0)" style="fill: #4F241B;"/><path d="M0 0 C3 1 3 1 3 1 Z " transform="translate(54,85)" style="fill: #662C24;"/><path d="M0 0 C3 1 3 1 3 1 Z " transform="translate(66,84)" style="fill: #3B1B16;"/><path d="M0 0 C0.99 0.495 0.99 0.495 2 1 C1.01 1.495 1.01 1.495 0 2 C0 1.34 0 0.68 0 0 Z " transform="translate(106,82)" style="fill: #080400;"/><path d="M0 0 C0.66 0 1.32 0 2 0 C1.67 0.66 1.34 1.32 1 2 C0.67 1.34 0.34 0.68 0 0 Z " transform="translate(100,76)" style="fill: #5A2821;"/><path d="M0 0 C3 1 3 1 3 1 Z " transform="translate(49,76)" style="fill: #6E3026;"/><path d="" transform="translate(0,0)" style="fill: #341713;"/><path d="" transform="translate(0,0)" style="fill: #BD5542;"/><path d="" transform="translate(0,0)" style="fill: #3F1C16;"/><path d="" transform="translate(0,0)" style="fill: #311510;"/><path d="" transform="translate(0,0)" style="fill: #2E1410;"/><path d="M0 0 C0.33 0.66 0.66 1.32 1 2 C0.34 1.67 -0.32 1.34 -1 1 C-0.67 0.67 -0.34 0.34 0 0 Z " transform="translate(69,67)" style="fill: #8E3F33;"/><path d="" transform="translate(0,0)" style="fill: #210E0B;"/><path d="" transform="translate(0,0)" style="fill: #5A2821;"/><path d="M0 0 C3 1 3 1 3 1 Z " transform="translate(71,63)" style="fill: #75352B;"/><path d="" transform="translate(0,0)" style="fill: #733429;"/><path d="" transform="translate(0,0)" style="fill: #291210;"/><path d="" transform="translate(0,0)" style="fill: #080400;"/><path d="" transform="translate(0,0)" style="fill: #482019;"/><path d="" transform="translate(0,0)" style="fill: #2E1410;"/><path d="" transform="translate(0,0)" style="fill: #391C18;"/><path d="M0 0 C0.66 0 1.32 0 2 0 C1.67 0.66 1.34 1.32 1 2 C0.67 1.34 0.34 0.68 0 0 Z " transform="translate(109,48)" style="fill: #080400;"/><path d="M0 0 C0.66 0.66 1.32 1.32 2 2 C0 2 0 2 0 0 Z " transform="translate(107,47)" style="fill: #924133;"/><path d="M0 0 C3 1 3 1 3 1 Z " transform="translate(80,46)" style="fill: #4F241B;"/><path d="" transform="translate(0,0)" style="fill: #A54939;"/><path d="M0 0 C3 1 3 1 3 1 Z " transform="translate(45,43)" style="fill: #311410;"/><path d="M0 0 C0.33 0.66 0.66 1.32 1 2 C0.34 1.67 -0.32 1.34 -1 1 C-0.67 0.67 -0.34 0.34 0 0 Z " transform="translate(46,41)" style="fill: #A54939;"/><path d="M0 0 C3 1 3 1 3 1 Z " transform="translate(61,34)" style="fill: #703226;"/><path d="M0 0 C3 1 3 1 3 1 Z " transform="translate(56,34)" style="fill: #622B20;"/><path d="M0 0 C3 1 3 1 3 1 Z " transform="translate(75,32)" style="fill: #3D1B14;"/><path d="M0 0 C3 1 3 1 3 1 Z " transform="translate(88,30)" style="fill: #311510;"/><path d="M0 0 C0.99 0.495 0.99 0.495 2 1 C1.01 1.495 1.01 1.495 0 2 C0 1.34 0 0.68 0 0 Z " transform="translate(40,28)" style="fill: #080400;"/><path d="M0 0 C2 1 2 1 2 1 Z " transform="translate(63,108)" style="fill: #4B2119;"/><path d="M0 0 C2 1 2 1 2 1 Z " transform="translate(79,107)" style="fill: #3F1C16;"/><path d="" transform="translate(0,0)" style="fill: #080400;"/><path d="M0 0 C2 1 2 1 2 1 Z " transform="translate(59,103)" style="fill: #A54939;"/><path d="M0 0 C2 1 2 1 2 1 Z " transform="translate(61,102)" style="fill: #6E3026;"/><path d="M0 0 C2 1 2 1 2 1 Z " transform="translate(89,101)" style="fill: #291210;"/><path d="M0 0 C2 1 2 1 2 1 Z " transform="translate(44,101)" style="fill: #4C221B;"/><path d="M0 0 C2 1 2 1 2 1 Z " transform="translate(76,100)" style="fill: #391C18;"/><path d="M0 0 C2 1 2 1 2 1 Z " transform="translate(40,99)" style="fill: #57251D;"/><path d="" transform="translate(0,0)" style="fill: #873C30;"/><path d="M0 0 C2 1 2 1 2 1 Z " transform="translate(53,95)" style="fill: #3C1B13;"/><path d="" transform="translate(0,0)" style="fill: #944131;"/><path d="M0 0 C2 1 2 1 2 1 Z " transform="translate(61,93)" style="fill: #622B20;"/><path d="M0 0 C2 1 2 1 2 1 Z " transform="translate(74,92)" style="fill: #311510;"/><path d="M0 0 C2 1 2 1 2 1 Z " transform="translate(69,92)" style="fill: #47201B;"/><path d="M0 0 C2 1 2 1 2 1 Z " transform="translate(78,89)" style="fill: #311510;"/><path d="" transform="translate(0,0)" style="fill: #622B20;"/><path d="M0 0 C2 1 2 1 2 1 Z " transform="translate(64,85)" style="fill: #682E23;"/><path d="M0 0 C2 1 2 1 2 1 Z " transform="translate(60,85)" style="fill: #622B20;"/><path d="M0 0 C2 1 2 1 2 1 Z " transform="translate(70,84)" style="fill: #944131;"/><path d="M0 0 C2 1 2 1 2 1 Z " transform="translate(52,84)" style="fill: #391915;"/><path d="M0 0 C2 1 2 1 2 1 Z " transform="translate(70,83)" style="fill: #7B3831;"/><path d="" transform="translate(0,0)" style="fill: #391C18;"/><path d="M0 0 C2 1 2 1 2 1 Z " transform="translate(58,78)" style="fill: #341713;"/><path d="M0 0 C2 1 2 1 2 1 Z " transform="translate(54,78)" style="fill: #703226;"/><path d="" transform="translate(0,0)" style="fill: #080400;"/><path d="M0 0 C2 1 2 1 2 1 Z " transform="translate(39,78)" style="fill: #29110D;"/><path d="" transform="translate(0,0)" style="fill: #26110D;"/><path d="M0 0 C2 1 2 1 2 1 Z " transform="translate(61,77)" style="fill: #291210;"/><path d="" transform="translate(0,0)" style="fill: #682D23;"/><path d="" transform="translate(0,0)" style="fill: #341713;"/><path d="" transform="translate(0,0)" style="fill: #B55142;"/><path d="" transform="translate(0,0)" style="fill: #682E26;"/><path d="" transform="translate(0,0)" style="fill: #A54939;"/><path d="" transform="translate(0,0)" style="fill: #944131;"/><path d="" transform="translate(0,0)" style="fill: #291410;"/><path d="M0 0 C2 1 2 1 2 1 Z " transform="translate(56,70)" style="fill: #6E3026;"/><path d="" transform="translate(0,0)" style="fill: #C6554A;"/><path d="" transform="translate(0,0)" style="fill: #371813;"/><path d="" transform="translate(0,0)" style="fill: #311510;"/><path d="" transform="translate(0,0)" style="fill: #311510;"/><path d="" transform="translate(0,0)" style="fill: #26110D;"/><path d="M0 0 C2 1 2 1 2 1 Z " transform="translate(75,66)" style="fill: #5C281E;"/><path d="" transform="translate(0,0)" style="fill: #572820;"/><path d="" transform="translate(0,0)" style="fill: #A54939;"/><path d="" transform="translate(0,0)" style="fill: #1B0D0A;"/><path d="M0 0 C2 1 2 1 2 1 Z " transform="translate(65,62)" style="fill: #6E3026;"/><path d="" transform="translate(0,0)" style="fill: #341713;"/><path d="" transform="translate(0,0)" style="fill: #100808;"/><path d="" transform="translate(0,0)" style="fill: #391C18;"/><path d="M0 0 C2 1 2 1 2 1 Z " transform="translate(65,61)" style="fill: #371813;"/><path d="" transform="translate(0,0)" style="fill: #27110E;"/><path d="" transform="translate(0,0)" style="fill: #1F0E0B;"/><path d="" transform="translate(0,0)" style="fill: #5A2821;"/><path d="" transform="translate(0,0)" style="fill: #291210;"/><path d="" transform="translate(0,0)" style="fill: #A54939;"/><path d="" transform="translate(0,0)" style="fill: #411D16;"/><path d="" transform="translate(0,0)" style="fill: #341713;"/><path d="M0 0 C2 1 2 1 2 1 Z " transform="translate(28,54)" style="fill: #A54939;"/><path d="M0 0 C2 1 2 1 2 1 Z " transform="translate(28,53)" style="fill: #3C1B13;"/><path d="" transform="translate(0,0)" style="fill: #A54939;"/><path d="" transform="translate(0,0)" style="fill: #5A2821;"/><path d="M0 0 C2 1 2 1 2 1 Z " transform="translate(57,51)" style="fill: #2E1410;"/><path d="" transform="translate(0,0)" style="fill: #A54939;"/><path d="M0 0 C2 1 2 1 2 1 Z " transform="translate(103,50)" style="fill: #883C30;"/><path d="M0 0 C2 1 2 1 2 1 Z " transform="translate(49,48)" style="fill: #703226;"/><path d="" transform="translate(0,0)" style="fill: #A54939;"/><path d="M0 0 C2 1 2 1 2 1 Z " transform="translate(81,47)" style="fill: #DE6552;"/><path d="" transform="translate(0,0)" style="fill: #100808;"/><path d="M0 0 C2 1 2 1 2 1 Z " transform="translate(36,47)" style="fill: #572820;"/><path d="" transform="translate(0,0)" style="fill: #703226;"/><path d="" transform="translate(0,0)" style="fill: #3C1B13;"/><path d="M0 0 C2 1 2 1 2 1 Z " transform="translate(54,45)" style="fill: #9C4539;"/><path d="M0 0 C2 1 2 1 2 1 Z " transform="translate(105,44)" style="fill: #080400;"/><path d="M0 0 C2 1 2 1 2 1 Z " transform="translate(56,43)" style="fill: #26110D;"/><path d="M0 0 C2 1 2 1 2 1 Z " transform="translate(62,41)" style="fill: #26110D;"/><path d="" transform="translate(0,0)" style="fill: #2B1310;"/><path d="" transform="translate(0,0)" style="fill: #291210;"/><path d="" transform="translate(0,0)" style="fill: #1B0D0A;"/><path d="M0 0 C2 1 2 1 2 1 Z " transform="translate(72,35)" style="fill: #3F1C16;"/><path d="M0 0 C2 1 2 1 2 1 Z " transform="translate(65,35)" style="fill: #4F241B;"/><path d="M0 0 C2 1 2 1 2 1 Z " transform="translate(54,35)" style="fill: #291410;"/><path d="M0 0 C2 1 2 1 2 1 Z " transform="translate(50,33)" style="fill: #733329;"/><path d="" transform="translate(0,0)" style="fill: #BD5542;"/><path d="" transform="translate(0,0)" style="fill: #7E382C;"/><path d="M0 0 C2 1 2 1 2 1 Z " transform="translate(65,25)" style="fill: #3C1B13;"/><path d="M0 0 C2 1 2 1 2 1 Z " transform="translate(46,23)" style="fill: #4A2018;"/><path d="M0 0 C2 1 2 1 2 1 Z " transform="translate(51,22)" style="fill: #5A2820;"/><path d="" transform="translate(0,0)" style="fill: #4C221B;"/><path d="" transform="translate(0,0)" style="fill: #23100D;"/><path d="" transform="translate(0,0)" style="fill: #5D2820;"/><path d="" transform="translate(0,0)" style="fill: #572820;"/><path d="" transform="translate(0,0)" style="fill: #3F1C16;"/><path d="" transform="translate(0,0)" style="fill: #7E382C;"/><path d="" transform="translate(0,0)" style="fill: #371813;"/><path d="" transform="translate(0,0)" style="fill: #B55142;"/><path d="" transform="translate(0,0)" style="fill: #572820;"/><path d="" transform="translate(0,0)" style="fill: #6E3026;"/><path d="" transform="translate(0,0)" style="fill: #6E3026;"/><path d="" transform="translate(0,0)" style="fill: #411D16;"/><path d="" transform="translate(0,0)" style="fill: #7B372C;"/><path d="" transform="translate(0,0)" style="fill: #A54939;"/><path d="" transform="translate(0,0)" style="fill: #371813;"/><path d="" transform="translate(0,0)" style="fill: #522520;"/><path d="" transform="translate(0,0)" style="fill: #703226;"/><path d="" transform="translate(0,0)" style="fill: #3C1B13;"/><path d="" transform="translate(0,0)" style="fill: #703226;"/><path d="" transform="translate(0,0)" style="fill: #341713;"/><path d="" transform="translate(0,0)" style="fill: #341713;"/><path d="" transform="translate(0,0)" style="fill: #6E3026;"/><path d="" transform="translate(0,0)" style="fill: #522520;"/><path d="" transform="translate(0,0)" style="fill: #753428;"/><path d="" transform="translate(0,0)" style="fill: #26110D;"/><path d="" transform="translate(0,0)" style="fill: #26110D;"/><path d="" transform="translate(0,0)" style="fill: #2E1410;"/><path d="" transform="translate(0,0)" style="fill: #47201B;"/><path d="" transform="translate(0,0)" style="fill: #311410;"/><path d="" transform="translate(0,0)" style="fill: #3C1B13;"/><path d="" transform="translate(0,0)" style="fill: #682E23;"/><path d="" transform="translate(0,0)" style="fill: #8C3C31;"/><path d="" transform="translate(0,0)" style="fill: #3C1B13;"/><path d="" transform="translate(0,0)" style="fill: #682E26;"/><path d="" transform="translate(0,0)" style="fill: #371813;"/><path d="" transform="translate(0,0)" style="fill: #311510;"/><path d="" transform="translate(0,0)" style="fill: #8C3C31;"/><path d="" transform="translate(0,0)" style="fill: #341713;"/><path d="" transform="translate(0,0)" style="fill: #682E26;"/><path d="" transform="translate(0,0)" style="fill: #421D16;"/><path d="" transform="translate(0,0)" style="fill: #622A23;"/><path d="" transform="translate(0,0)" style="fill: #622B20;"/><path d="" transform="translate(0,0)" style="fill: #291210;"/><path d="" transform="translate(0,0)" style="fill: #5D2820;"/><path d="" transform="translate(0,0)" style="fill: #341713;"/><path d="" transform="translate(0,0)" style="fill: #622B20;"/><path d="" transform="translate(0,0)" style="fill: #291210;"/><path d="" transform="translate(0,0)" style="fill: #2E1410;"/><path d="" transform="translate(0,0)" style="fill: #47201B;"/><path d="" transform="translate(0,0)" style="fill: #311510;"/><path d="" transform="translate(0,0)" style="fill: #291210;"/><path d="" transform="translate(0,0)" style="fill: #632C21;"/><path d="" transform="translate(0,0)" style="fill: #47201B;"/><path d="" transform="translate(0,0)" style="fill: #6B3029;"/><path d="" transform="translate(0,0)" style="fill: #311410;"/><path d="" transform="translate(0,0)" style="fill: #311510;"/><path d="" transform="translate(0,0)" style="fill: #311510;"/><path d="" transform="translate(0,0)" style="fill: #391C18;"/><path d="" transform="translate(0,0)" style="fill: #311510;"/><path d="" transform="translate(0,0)" style="fill: #311510;"/><path d="" transform="translate(0,0)" style="fill: #26110D;"/><path d="" transform="translate(0,0)" style="fill: #7E382C;"/><path d="" transform="translate(0,0)" style="fill: #622B20;"/><path d="" transform="translate(0,0)" style="fill: #26110D;"/><path d="" transform="translate(0,0)" style="fill: #3F1C16;"/><path d="" transform="translate(0,0)" style="fill: #BD5542;"/><path d="" transform="translate(0,0)" style="fill: #4C221B;"/><path d="" transform="translate(0,0)" style="fill: #26110D;"/><path d="" transform="translate(0,0)" style="fill: #180C08;"/><path d="" transform="translate(0,0)" style="fill: #5A2821;"/><path d="" transform="translate(0,0)" style="fill: #964436;"/><path d="" transform="translate(0,0)" style="fill: #311510;"/><path d="" transform="translate(0,0)" style="fill: #311510;"/><path d="" transform="translate(0,0)" style="fill: #A54939;"/><path d="" transform="translate(0,0)" style="fill: #DE6552;"/><path d="" transform="translate(0,0)" style="fill: #311510;"/><path d="" transform="translate(0,0)" style="fill: #311510;"/><path d="" transform="translate(0,0)" style="fill: #311510;"/><path d="" transform="translate(0,0)" style="fill: #572820;"/><path d="" transform="translate(0,0)" style="fill: #622B20;"/><path d="" transform="translate(0,0)" style="fill: #311510;"/><path d="" transform="translate(0,0)" style="fill: #5A2821;"/><path d="" transform="translate(0,0)" style="fill: #341713;"/><path d="" transform="translate(0,0)" style="fill: #522520;"/><path d="" transform="translate(0,0)" style="fill: #7E372B;"/><path d="" transform="translate(0,0)" style="fill: #311410;"/><path d="" transform="translate(0,0)" style="fill: #3C1B13;"/><path d="" transform="translate(0,0)" style="fill: #26110D;"/><path d="" transform="translate(0,0)" style="fill: #311510;"/><path d="" transform="translate(0,0)" style="fill: #7E372B;"/><path d="" transform="translate(0,0)" style="fill: #A54939;"/><path d="" transform="translate(0,0)" style="fill: #682E26;"/><path d="" transform="translate(0,0)" style="fill: #4C221B;"/><path d="" transform="translate(0,0)" style="fill: #311510;"/><path d="" transform="translate(0,0)" style="fill: #682E26;"/><path d="" transform="translate(0,0)" style="fill: #311510;"/><path d="" transform="translate(0,0)" style="fill: #682E26;"/><path d="" transform="translate(0,0)" style="fill: #4C221B;"/><path d="" transform="translate(0,0)" style="fill: #471F18;"/><path d="" transform="translate(0,0)" style="fill: #5A2821;"/><path d="" transform="translate(0,0)" style="fill: #682E26;"/><path d="" transform="translate(0,0)" style="fill: #23100D;"/><path d="" transform="translate(0,0)" style="fill: #341713;"/><path d="" transform="translate(0,0)" style="fill: #572820;"/><path d="" transform="translate(0,0)" style="fill: #23100D;"/><path d="" transform="translate(0,0)" style="fill: #682E26;"/><path d="" transform="translate(0,0)" style="fill: #341713;"/><path d="" transform="translate(0,0)" style="fill: #210E0B;"/><path d="" transform="translate(0,0)" style="fill: #47201B;"/><path d="" transform="translate(0,0)" style="fill: #3C1B13;"/><path d="" transform="translate(0,0)" style="fill: #311510;"/><path d="" transform="translate(0,0)" style="fill: #682E26;"/><path d="" transform="translate(0,0)" style="fill: #632C21;"/><path d="" transform="translate(0,0)" style="fill: #622A23;"/><path d="" transform="translate(0,0)" style="fill: #1B0D0A;"/><path d="" transform="translate(0,0)" style="fill: #522520;"/><path d="" transform="translate(0,0)" style="fill: #682E26;"/><path d="" transform="translate(0,0)" style="fill: #3C1B13;"/><path d="" transform="translate(0,0)" style="fill: #3F1C16;"/><path d="" transform="translate(0,0)" style="fill: #B55142;"/><path d="" transform="translate(0,0)" style="fill: #23100D;"/><path d="" transform="translate(0,0)" style="fill: #682E26;"/><path d="" transform="translate(0,0)" style="fill: #341713;"/><path d="" transform="translate(0,0)" style="fill: #703226;"/><path d="" transform="translate(0,0)" style="fill: #572820;"/><path d="" transform="translate(0,0)" style="fill: #522520;"/><path d="" transform="translate(0,0)" style="fill: #291410;"/><path d="" transform="translate(0,0)" style="fill: #522520;"/><path d="" transform="translate(0,0)" style="fill: #9C4539;"/><path d="" transform="translate(0,0)" style="fill: #47201B;"/><path d="" transform="translate(0,0)" style="fill: #47201B;"/><path d="" transform="translate(0,0)" style="fill: #6E3026;"/><path d="" transform="translate(0,0)" style="fill: #371813;"/><path d="" transform="translate(0,0)" style="fill: #5D2820;"/><path d="" transform="translate(0,0)" style="fill: #703226;"/><path d="" transform="translate(0,0)" style="fill: #371813;"/><path d="" transform="translate(0,0)" style="fill: #622B20;"/><path d="" transform="translate(0,0)" style="fill: #210E0B;"/><path d="" transform="translate(0,0)" style="fill: #703226;"/><path d="" transform="translate(0,0)" style="fill: #471F18;"/><path d="" transform="translate(0,0)" style="fill: #371813;"/><path d="" transform="translate(0,0)" style="fill: #6E3026;"/><path d="" transform="translate(0,0)" style="fill: #311510;"/><path d="" transform="translate(0,0)" style="fill: #632C21;"/><path d="" transform="translate(0,0)" style="fill: #B55142;"/><path d="" transform="translate(0,0)" style="fill: #632C21;"/><path d="" transform="translate(0,0)" style="fill: #6B3029;"/><path d="" transform="translate(0,0)" style="fill: #632C21;"/><path d="" transform="translate(0,0)" style="fill: #A54939;"/><path d="" transform="translate(0,0)" style="fill: #3C1B13;"/><path d="" transform="translate(0,0)" style="fill: #391C18;"/><path d="" transform="translate(0,0)" style="fill: #1B0D0A;"/><path d="" transform="translate(0,0)" style="fill: #341713;"/><path d="" transform="translate(0,0)" style="fill: #421D16;"/><path d="" transform="translate(0,0)" style="fill: #682E26;"/><path d="" transform="translate(0,0)" style="fill: #A54939;"/><path d="" transform="translate(0,0)" style="fill: #3C1B13;"/><path d="" transform="translate(0,0)" style="fill: #4C221B;"/><path d="" transform="translate(0,0)" style="fill: #341713;"/><path d="" transform="translate(0,0)" style="fill: #703226;"/><path d="" transform="translate(0,0)" style="fill: #682E26;"/><path d="" transform="translate(0,0)" style="fill: #733429;"/><path d="" transform="translate(0,0)" style="fill: #311410;"/><path d="" transform="translate(0,0)" style="fill: #311510;"/><path d="" transform="translate(0,0)" style="fill: #682E26;"/><path d="" transform="translate(0,0)" style="fill: #1B0D0A;"/><path d="" transform="translate(0,0)" style="fill: #26110D;"/><path d="" transform="translate(0,0)" style="fill: #4C221B;"/><path d="" transform="translate(0,0)" style="fill: #3F1C16;"/><path d="" transform="translate(0,0)" style="fill: #26110D;"/><path d="" transform="translate(0,0)" style="fill: #5F2C23;"/><path d="" transform="translate(0,0)" style="fill: #26110D;"/><path d="" transform="translate(0,0)" style="fill: #3F1C16;"/><path d="" transform="translate(0,0)" style="fill: #291210;"/><path d="" transform="translate(0,0)" style="fill: #A54939;"/><path d="" transform="translate(0,0)" style="fill: #4C221B;"/><path d="" transform="translate(0,0)" style="fill: #6E3026;"/><path d="" transform="translate(0,0)" style="fill: #391915;"/><path d="" transform="translate(0,0)" style="fill: #BD5542;"/><path d="" transform="translate(0,0)" style="fill: #7E382C;"/><path d="" transform="translate(0,0)" style="fill: #8C3C31;"/><path d="" transform="translate(0,0)" style="fill: #522520;"/><path d="" transform="translate(0,0)" style="fill: #622B20;"/><path d="" transform="translate(0,0)" style="fill: #26110D;"/><path d="" transform="translate(0,0)" style="fill: #522520;"/><path d="" transform="translate(0,0)" style="fill: #522520;"/><path d="" transform="translate(0,0)" style="fill: #311510;"/><path d="" transform="translate(0,0)" style="fill: #3C1B13;"/><path d="" transform="translate(0,0)" style="fill: #411D16;"/><path d="" transform="translate(0,0)" style="fill: #47201B;"/><path d="" transform="translate(0,0)" style="fill: #944131;"/><path d="" transform="translate(0,0)" style="fill: #8C3E31;"/><path d="" transform="translate(0,0)" style="fill: #311510;"/><path d="" transform="translate(0,0)" style="fill: #23100D;"/><path d="" transform="translate(0,0)" style="fill: #23100D;"/><path d="" transform="translate(0,0)" style="fill: #4C221B;"/><path d="" transform="translate(0,0)" style="fill: #311510;"/><path d="" transform="translate(0,0)" style="fill: #703226;"/><path d="" transform="translate(0,0)" style="fill: #753428;"/><path d="" transform="translate(0,0)" style="fill: #472018;"/><path d="" transform="translate(0,0)" style="fill: #2E1410;"/><path d="" transform="translate(0,0)" style="fill: #622B20;"/><path d="" transform="translate(0,0)" style="fill: #A54939;"/><path d="" transform="translate(0,0)" style="fill: #472018;"/><path d="" transform="translate(0,0)" style="fill: #2E1410;"/><path d="" transform="translate(0,0)" style="fill: #682E26;"/><path d="" transform="translate(0,0)" style="fill: #341713;"/><path d="" transform="translate(0,0)" style="fill: #703226;"/><path d="" transform="translate(0,0)" style="fill: #311510;"/><path d="" transform="translate(0,0)" style="fill: #A54939;"/><path d="" transform="translate(0,0)" style="fill: #5D2820;"/><path d="" transform="translate(0,0)" style="fill: #2E1410;"/><path d="" transform="translate(0,0)" style="fill: #2E1410;"/><path d="" transform="translate(0,0)" style="fill: #311510;"/><path d="" transform="translate(0,0)" style="fill: #180A08;"/><path d="" transform="translate(0,0)" style="fill: #311810;"/><path d="" transform="translate(0,0)" style="fill: #2E1410;"/><path d="" transform="translate(0,0)" style="fill: #4A2018;"/><path d="" transform="translate(0,0)" style="fill: #180A08;"/><path d="" transform="translate(0,0)" style="fill: #4C221B;"/><path d="" transform="translate(0,0)" style="fill: #311510;"/><path d="" transform="translate(0,0)" style="fill: #572820;"/><path d="" transform="translate(0,0)" style="fill: #291410;"/><path d="" transform="translate(0,0)" style="fill: #5D2820;"/><path d="" transform="translate(0,0)" style="fill: #341713;"/><path d="" transform="translate(0,0)" style="fill: #522520;"/><path d="" transform="translate(0,0)" style="fill: #7B3831;"/><path d="" transform="translate(0,0)" style="fill: #733329;"/><path d="" transform="translate(0,0)" style="fill: #A54939;"/><path d="" transform="translate(0,0)" style="fill: #5D2820;"/><path d="" transform="translate(0,0)" style="fill: #2E1410;"/><path d="" transform="translate(0,0)" style="fill: #5D2820;"/><path d="" transform="translate(0,0)" style="fill: #47201B;"/><path d="" transform="translate(0,0)" style="fill: #522520;"/><path d="" transform="translate(0,0)" style="fill: #3C1B13;"/><path d="" transform="translate(0,0)" style="fill: #3C1B13;"/><path d="" transform="translate(0,0)" style="fill: #8C3E31;"/><path d="" transform="translate(0,0)" style="fill: #3C1B13;"/><path d="" transform="translate(0,0)" style="fill: #3C1B13;"/><path d="" transform="translate(0,0)" style="fill: #4C221B;"/><path d="" transform="translate(0,0)" style="fill: #3C1B13;"/><path d="" transform="translate(0,0)" style="fill: #47201B;"/><path d="" transform="translate(0,0)" style="fill: #522520;"/><path d="" transform="translate(0,0)" style="fill: #47201B;"/><path d="" transform="translate(0,0)" style="fill: #A54939;"/><path d="" transform="translate(0,0)" style="fill: #4F241B;"/><path d="" transform="translate(0,0)" style="fill: #964436;"/><path d="" transform="translate(0,0)" style="fill: #682E26;"/><path d="" transform="translate(0,0)" style="fill: #682E23;"/><path d="" transform="translate(0,0)" style="fill: #944131;"/><path d="" transform="translate(0,0)" style="fill: #391C18;"/><path d="" transform="translate(0,0)" style="fill: #3C1B13;"/><path d="" transform="translate(0,0)" style="fill: #3C1B13;"/><path d="" transform="translate(0,0)" style="fill: #964436;"/><path d="" transform="translate(0,0)" style="fill: #682E26;"/><path d="" transform="translate(0,0)" style="fill: #3C1B15;"/><path d="" transform="translate(0,0)" style="fill: #622A23;"/><path d="" transform="translate(0,0)" style="fill: #682E23;"/><path d="" transform="translate(0,0)" style="fill: #3C1B13;"/><path d="" transform="translate(0,0)" style="fill: #682E23;"/><path d="" transform="translate(0,0)" style="fill: #341713;"/><path d="" transform="translate(0,0)" style="fill: #1B0D0A;"/><path d="" transform="translate(0,0)" style="fill: #311510;"/><path d="" transform="translate(0,0)" style="fill: #733429;"/><path d="" transform="translate(0,0)" style="fill: #57251D;"/><path d="" transform="translate(0,0)" style="fill: #341713;"/><path d="" transform="translate(0,0)" style="fill: #682E26;"/><path d="" transform="translate(0,0)" style="fill: #341713;"/><path d="" transform="translate(0,0)" style="fill: #3F1C16;"/><path d="" transform="translate(0,0)" style="fill: #4C221B;"/><path d="" transform="translate(0,0)" style="fill: #26110D;"/><path d="" transform="translate(0,0)" style="fill: #682E26;"/><path d="" transform="translate(0,0)" style="fill: #682E26;"/><path d="" transform="translate(0,0)" style="fill: #341713;"/><path d="" transform="translate(0,0)" style="fill: #341713;"/><path d="" transform="translate(0,0)" style="fill: #682E26;"/><path d="" transform="translate(0,0)" style="fill: #6B3029;"/><path d="" transform="translate(0,0)" style="fill: #1B0D0A;"/><path d="" transform="translate(0,0)" style="fill: #1B0D0A;"/><path d="" transform="translate(0,0)" style="fill: #5D2820;"/><path d="" transform="translate(0,0)" style="fill: #291210;"/><path d="" transform="translate(0,0)" style="fill: #311510;"/><path d="" transform="translate(0,0)" style="fill: #682E26;"/><path d="" transform="translate(0,0)" style="fill: #2E1410;"/><path d="" transform="translate(0,0)" style="fill: #5D2820;"/><path d="" transform="translate(0,0)" style="fill: #522520;"/><path d="" transform="translate(0,0)" style="fill: #682E26;"/><path d="" transform="translate(0,0)" style="fill: #682E26;"/><path d="" transform="translate(0,0)" style="fill: #682E26;"/><path d="" transform="translate(0,0)" style="fill: #291410;"/><path d="" transform="translate(0,0)" style="fill: #682E26;"/><path d="" transform="translate(0,0)" style="fill: #371813;"/><path d="" transform="translate(0,0)" style="fill: #7E382C;"/><path d="" transform="translate(0,0)" style="fill: #311510;"/><path d="" transform="translate(0,0)" style="fill: #572820;"/><path d="" transform="translate(0,0)" style="fill: #B55142;"/><path d="" transform="translate(0,0)" style="fill: #26110D;"/><path d="" transform="translate(0,0)" style="fill: #6E3026;"/><path d="" transform="translate(0,0)" style="fill: #3F1C16;"/><path d="" transform="translate(0,0)" style="fill: #DE6552;"/><path d="" transform="translate(0,0)" style="fill: #B55142;"/><path d="" transform="translate(0,0)" style="fill: #6E3026;"/><path d="" transform="translate(0,0)" style="fill: #BD5542;"/><path d="" transform="translate(0,0)" style="fill: #3F1C16;"/><path d="" transform="translate(0,0)" style="fill: #4F241B;"/><path d="" transform="translate(0,0)" style="fill: #26110D;"/><path d="" transform="translate(0,0)" style="fill: #371813;"/><path d="" transform="translate(0,0)" style="fill: #703226;"/><path d="" transform="translate(0,0)" style="fill: #291410;"/><path d="" transform="translate(0,0)" style="fill: #26110D;"/><path d="" transform="translate(0,0)" style="fill: #311510;"/><path d="" transform="translate(0,0)" style="fill: #311510;"/><path d="" transform="translate(0,0)" style="fill: #291210;"/><path d="" transform="translate(0,0)" style="fill: #622B20;"/><path d="" transform="translate(0,0)" style="fill: #622B20;"/><path d="" transform="translate(0,0)" style="fill: #311510;"/><path d="" transform="translate(0,0)" style="fill: #311510;"/><path d="" transform="translate(0,0)" style="fill: #391C18;"/><path d="" transform="translate(0,0)" style="fill: #1B0D0A;"/><path d="" transform="translate(0,0)" style="fill: #471F18;"/><path d="" transform="translate(0,0)" style="fill: #4C221B;"/><path d="" transform="translate(0,0)" style="fill: #311510;"/><path d="" transform="translate(0,0)" style="fill: #311510;"/><path d="" transform="translate(0,0)" style="fill: #3F1C16;"/><path d="" transform="translate(0,0)" style="fill: #311510;"/><path d="" transform="translate(0,0)" style="fill: #703226;"/><path d="" transform="translate(0,0)" style="fill: #291410;"/><path d="" transform="translate(0,0)" style="fill: #BD5542;"/><path d="" transform="translate(0,0)" style="fill: #311510;"/><path d="" transform="translate(0,0)" style="fill: #180A08;"/><path d="" transform="translate(0,0)" style="fill: #6B3029;"/><path d="" transform="translate(0,0)" style="fill: #23100D;"/><path d="" transform="translate(0,0)" style="fill: #311510;"/></svg>