<?xml version="1.0" encoding="UTF-8"?>
<!-- Generator: visioncortex VTracer -->
<svg id="svg" version="1.1" xmlns="http://www.w3.org/2000/svg" style="display: block;" viewBox="0 0 128 128"><path d="M0 0 C2.65448821 -0.13809586 5.28116215 -0.2130974 7.9375 -0.23828125 C8.732771 -0.246353 9.52804199 -0.25442474 10.34741211 -0.26274109 C12.03204153 -0.27659305 13.71669914 -0.28731022 15.40136719 -0.29516602 C17.98946483 -0.31242973 20.57630188 -0.35630905 23.1640625 -0.40039062 C24.79686556 -0.41051255 26.42967952 -0.41903021 28.0625 -0.42578125 C28.84165771 -0.44328934 29.62081543 -0.46079742 30.42358398 -0.47883606 C32.59765625 -0.4699707 32.59765625 -0.4699707 36 0 C36.495 1.98 36.495 1.98 37 4 C37.99 4 38.98 4 40 4 C44 4 44 4 48 5.125 C52.11775361 6.46447258 52.11775361 6.46447258 56 4 C59.4375 4.25 59.4375 4.25 63 5 C63.969375 5.144375 64.93875 5.28875 65.9375 5.4375 C66.618125 5.953125 67.29875 6.46875 68 7 C68.30934901 9.58239172 68.24623179 11.99565027 68.078125 14.58984375 C67.8558317 17.14549029 67.8558317 17.14549029 69 20 C69.66 20 70.32 20 71 20 C71.495 21.485 71.495 21.485 72 23 C73.32 23.66 74.64 24.32 76 25 C78.22598502 30.29996434 78.02527588 34.40758613 77 40 C76.67 40.99 76.34 41.98 76 43 C77.485 43.495 77.485 43.495 79 44 C80.45289291 48.1165299 79.91719986 51.79616731 79 56 C78.02798869 57.35387289 77.04115841 58.69855198 76 60 C76.99 60 77.98 60 79 60 C80.09854739 65.07021874 80.35864429 67.28271142 78 72 C75.12562212 74.71012772 73.12676886 75.96132476 69.3125 77.125 C68.219375 77.74375 67.12625 78.3625 66 79 C65.32296113 81.34778528 65.32296113 81.34778528 65.0625 84 C64.6875 86.6796875 64.6875 86.6796875 64 89 C59.14510416 92.00120834 55.73975435 92.07073443 50.125 91.8125 C47.37441487 91.65360756 47.37441487 91.65360756 45 92 C43.31695644 94.71511048 43.31695644 94.71511048 43 98 C42.46375 98.639375 41.9275 99.27875 41.375 99.9375 C39.66664142 102.04064337 39.66664142 102.04064337 40.25 105.25390625 C40 109 40 109 37.6640625 112.125 C36.15972656 113.548125 36.15972656 113.548125 34.625 115 C33.62726563 115.969375 32.62953125 116.93875 31.6015625 117.9375 C30.74304688 118.618125 29.88453125 119.29875 29 120 C28.01 119.505 28.01 119.505 27 119 C25.7625 119.2784375 25.7625 119.2784375 24.5 119.5625 C23.675 119.706875 22.85 119.85125 22 120 C21.01 119.01 21.01 119.01 20 118 C19.67 118.66 19.34 119.32 19 120 C16.49609375 117.96484375 16.49609375 117.96484375 13.4375 114.9375 C12.42558594 113.95652344 11.41367187 112.97554688 10.37109375 111.96484375 C8 109 8 109 7.53515625 106.19140625 C7.76525391 105.10666016 7.76525391 105.10666016 8 104 C8.66 103.67 9.32 103.34 10 103 C8.81337335 101.32827649 8.81337335 101.32827649 7.0625 99.5625 C5.28515625 97.69140625 5.28515625 97.69140625 4 96 C4.33 95.34 4.66 94.68 5 94 C4.34 94 3.68 94 3 94 C2.67 93.34 2.34 92.68 2 92 C-0.73090391 91.85337429 -3.40927916 92.00688775 -6.140625 92.125 C-9.223914 91.99021141 -11.24753077 91.36674334 -14 90 C-14.66 89.34 -15.32 88.68 -16 88 C-16.04125 86.535625 -16.0825 85.07125 -16.125 83.5625 C-16.24479235 81.13632018 -16.24479235 81.13632018 -17 79 C-20.75738673 77.13238059 -20.75738673 77.13238059 -25 76 C-27.89926382 73.47890103 -29.87205617 71.19191574 -32 68 C-31.8125 63.8125 -31.8125 63.8125 -31 60 C-30.01 60 -29.02 60 -28 60 C-28.8971875 59.0409375 -28.8971875 59.0409375 -29.8125 58.0625 C-32.0875757 54.87739402 -32.33295681 54.0363258 -32.375 50.3125 C-32.25125 48.889375 -32.1275 47.46625 -32 46 C-31.34 45.34 -30.68 44.68 -30 44 C-29.83261861 41.30242321 -29.83261861 41.30242321 -30 38.25 C-30.11997194 29.92194808 -30.11997194 29.92194808 -28 26 C-26.68 25.67 -25.36 25.34 -24 25 C-23.64159778 22.67038557 -23.31151288 20.33634657 -23 18 C-21.6949419 16.31110128 -20.36639342 14.6396721 -19 13 C-19.33 12.01 -19.66 11.02 -20 10 C-18.68 9.67 -17.36 9.34 -16 9 C-16 8.34 -16 7.68 -16 7 C-17.32 7.33 -18.64 7.66 -20 8 C-20 6.68 -20 5.36 -20 4 C-18.68 4 -17.36 4 -16 4 C-16 4.66 -16 5.32 -16 6 C-14.32110979 5.36474424 -12.65583225 4.69313908 -11 4 C-7.33333333 4 -3.66666667 4 0 4 C-0.33 3.01 -0.66 2.02 -1 1 C-0.67 0.67 -0.34 0.34 0 0 Z M1 3 C1 3.66 1 4.32 1 5 C1.99 5.33 2.98 5.66 4 6 C4 5.01 4 4.02 4 3 C3.01 3 2.02 3 1 3 Z M5 3 C5 3.66 5 4.32 5 5 C5.99 5.33 6.98 5.66 8 6 C8 5.01 8 4.02 8 3 C7.01 3 6.02 3 5 3 Z M9 3 C9 3.66 9 4.32 9 5 C9.99 5.33 10.98 5.66 12 6 C12 5.01 12 4.02 12 3 C11.01 3 10.02 3 9 3 Z " transform="translate(40,4)" style="fill: #000000;"/><path d="M0 0 C0.33 0 0.66 0 1 0 C1.67728546 2.66398948 2.34243841 5.33107356 3 8 C3.34417969 8.79535156 3.68835938 9.59070313 4.04296875 10.41015625 C5.79354063 15.14741811 5.56814293 20.03031018 5 25 C3.85240685 28.12145336 2.44523599 31.0024735 1 34 C3.42930582 33.17491743 3.42930582 33.17491743 6 30 C7.24239399 27.39016588 8.24223197 24.77203064 9.203125 22.046875 C9.46609375 21.37140625 9.7290625 20.6959375 10 20 C10.33 20 10.66 20 11 20 C11.65084122 25.06209835 11.98037741 28.30337598 9.390625 32.78515625 C6.50222953 36.471661 4.0484643 39.39490942 -0.0390625 41.75390625 C-0.68617187 42.16511719 -1.33328125 42.57632813 -2 43 C4.29997469 43.83115596 4.29997469 43.83115596 10.0546875 41.69921875 C11.37754524 40.47446768 12.69034693 39.23886102 14 38 C14.125 39.9375 14.125 39.9375 13 43 C10.70614672 45.75262393 9.42647711 46.85784096 6 48 C2.09566999 48.51282039 -1.81378101 48.95889518 -5.7265625 49.40234375 C-6.80679688 49.59957031 -7.88703125 49.79679687 -9 50 C-9.33 50.66 -9.66 51.32 -10 52 C-8.9790625 52.185625 -8.9790625 52.185625 -7.9375 52.375 C-5 53 -5 53 -2.3125 55.0625 C2.21900852 57.71300499 5.88569475 57.31689327 11 57 C11.99 57 12.98 57 14 57 C10.76718483 59.79594826 8.44130254 60.94212426 4.1875 61.5 C-0.14583034 60.98258742 -2.9028082 59.77925274 -6.7578125 57.8984375 C-10.24598661 56.50073707 -13.31050892 56.61832851 -17 57 C-20.23785312 58.77546996 -20.23785312 58.77546996 -21.4375 62.1875 C-21.953125 63.115625 -22.46875 64.04375 -23 65 C-24.32 64.67 -25.64 64.34 -27 64 C-26.84537464 59.28392645 -26.11919045 56.23838089 -24 52 C-23.99872558 47.92683235 -23.99872558 47.92683235 -25 44 C-27.1775231 42.06637509 -27.1775231 42.06637509 -29 41 C-26.9375 40.625 -26.9375 40.625 -24 41 C-23.01 41.99 -22.02 42.98 -21 44 C-21 44.66 -21 45.32 -21 46 C-20.34 46 -19.68 46 -19 46 C-16.15624204 40.31248407 -14.4211142 36.48352094 -15 30 C-16.40460697 27.12694028 -17.74510999 25.25489001 -20 23 C-17.9375 23 -17.9375 23 -15 24 C-11.69458903 27.15516501 -10.17618051 29.20041152 -9.1875 33.6875 C-9.06853413 35.78923041 -9 37.89490532 -9 40 C-4.82873441 33.40670922 -3.28945941 27.77647204 -4 20 C-5.72024924 14.26583588 -8.11500481 11.41949664 -13 8 C-17.25133697 5.52005343 -21.30588388 5.90459407 -26.0859375 6.125 C-26.71757813 6.08375 -27.34921875 6.0425 -28 6 C-27.67 5.34 -27.34 4.68 -27 4 C-24.453125 3.296875 -24.453125 3.296875 -21.25 2.75 C-19.67992188 2.46382812 -19.67992188 2.46382812 -18.078125 2.171875 C-14.67189017 1.98167915 -12.99275524 2.41472866 -10 4 C-5.3105671 7.40971586 -1.84705482 10.91597353 1 16 C0.5338378 14.1353512 0.05804202 12.27292335 -0.4453125 10.41796875 C-1.17723534 7.22740369 -1.1994244 4.25726514 -1 1 C-0.67 0.67 -0.34 0.34 0 0 Z " transform="translate(99,13)" style="fill: #D69C38;"/><path d="M0 0 C0.66 0.33 1.32 0.66 2 1 C1.9765625 3.1796875 1.9765625 3.1796875 1.625 5.875 C1.2789778 8.63513057 1 11.21375038 1 14 C2.46574706 12.58676997 2.46574706 12.58676997 4.125 10.4375 C9.76923281 3.87130087 9.76923281 3.87130087 14 2 C19.60803898 1.82832534 23.96704101 2.48352051 29 5 C26.50787318 6.24606341 25.13618789 5.90548852 22.375 5.6875 C18.19722561 5.63308615 15.92728771 6.25918313 12.5625 8.75 C8.52657435 12.08658989 6.28416157 14.86335371 5 20 C4.56015374 27.587348 5.74362682 32.2931012 9.75 38.875 C10.1625 39.24625 10.575 39.6175 11 40 C10.7525 38.576875 10.7525 38.576875 10.5 37.125 C10 33 10 33 11.125 29.8125 C13.13785295 26.79322057 14.92396616 24.92252115 18 23 C18.99 23.33 19.98 23.66 21 24 C19.68946944 25.02970259 18.35113205 26.02418241 17 27 C15.80385059 30.58844824 15.74403544 33.22452277 16 37 C17.35814007 40.21712945 17.35814007 40.21712945 19 43 C19.33 43.99 19.66 44.98 20 46 C20.66 46 21.32 46 22 46 C22.66 44.68 23.32 43.36 24 42 C26.8125 41.0625 26.8125 41.0625 29 41 C28.01 41.99 27.02 42.98 26 44 C24.5677452 50.13823487 25.35619469 53.39513275 28 59 C28.4375 61.875 28.4375 61.875 28 64 C26.02 64.495 26.02 64.495 24 65 C21.875 61.625 21.875 61.625 20 58 C16.62601493 56.31300746 13.72497149 56.73767806 10 57 C7.72697113 57.87190037 7.72697113 57.87190037 5.5 59 C1.14831582 61.09719719 -2.11858302 61.64018583 -7 61 C-10.6875 59 -10.6875 59 -13 57 C-10 57 -10 57 -7.80078125 57.17578125 C-0.85206412 57.55757889 2.35015604 55.96480278 8 52 C8.99 52 9.98 52 11 52 C10.67 51.34 10.34 50.68 10 50 C5.99508631 49.3828044 1.98716804 49.03788937 -2.046875 48.66015625 C-5.87218138 48.0213452 -7.95885489 47.33717633 -11 45 C-11.66 44.01 -12.32 43.02 -13 42 C-12.67 40.68 -12.34 39.36 -12 38 C-11.360625 38.7425 -10.72125 39.485 -10.0625 40.25 C-7.31463031 43.18928753 -7.31463031 43.18928753 -4.1640625 43.55859375 C-0.97090084 43.79854825 -0.97090084 43.79854825 3 43 C0.10661458 40.49140193 0.10661458 40.49140193 -2.53515625 38.76171875 C-6.05432843 36.24643087 -7.96526289 33.81513209 -10 30 C-10.47364471 26.46012904 -10.35907841 23.59078411 -10 20 C-8 23 -8 23 -6.125 27 C-4.76422401 29.7786838 -3.71832951 31.28871226 -1.5 33.5625 C-1.005 33.706875 -0.51 33.85125 0 34 C-0.5775 32.824375 -1.155 31.64875 -1.75 30.4375 C-4.50209216 24.60377715 -4.76395385 19.36035997 -4 13 C-2.5625 9.125 -2.5625 9.125 -1 6 C-0.814375 4.845 -0.62875 3.69 -0.4375 2.5 C-0.293125 1.675 -0.14875 0.85 0 0 Z " transform="translate(28,13)" style="fill: #D69C38;"/><path d="M0 0 C2 1 2 1 3.3125 3.75 C5.13127935 7.25283431 7.11934315 9.33012292 10 12 C12.36807369 14.30041444 14.15764797 16.23647196 16 19 C16.66 19 17.32 19 18 19 C18.33 19.99 18.66 20.98 19 22 C19.268125 21.01 19.53625 20.02 19.8125 19 C21.32384512 13.90915328 23.35208618 11.24598362 27.5625 8.0625 C30.25270224 6.0654518 30.25270224 6.0654518 31.6875 2.5625 C32.120625 1.716875 32.55375 0.87125 33 0 C33.66 0.99 34.32 1.98 35 3 C36.32 2.34 37.64 1.68 39 1 C38 4 38 4 35.5 5.875 C32.58037945 9.52452569 32.6657857 10.88357403 32.5 15.4375 C32.26332463 21.61194265 32.26332463 21.61194265 29.625 25.5 C28.325625 26.7375 28.325625 26.7375 27 28 C25.0645852 30.39056942 25.0645852 30.39056942 24 33 C24.20625 34.010625 24.4125 35.02125 24.625 36.0625 C24.74875 37.031875 24.8725 38.00125 25 39 C22.9375 41.375 22.9375 41.375 20 43 C16.875 43.375 16.875 43.375 14 43 C13.01 42.34 12.02 41.68 11 41 C11 40.01 11 39.02 11 38 C10.34 37.67 9.68 37.34 9 37 C9.33 35.68 9.66 34.36 10 33 C8.88823366 30.88398028 8.88823366 30.88398028 7.1875 28.9375 C6.64480469 28.26589844 6.10210937 27.59429687 5.54296875 26.90234375 C4.77919922 25.96068359 4.77919922 25.96068359 4 25 C1.6468527 21.47027906 1.77828395 19.80106167 1.6875 15.625 C1.42489513 10.27147413 1.42489513 10.27147413 -1.5625 5.875 C-2.366875 5.25625 -3.17125 4.6375 -4 4 C-4 3.01 -4 2.02 -4 1 C-2.515 1.99 -2.515 1.99 -1 3 C-0.67 2.01 -0.34 1.02 0 0 Z " transform="translate(47,72)" style="fill: #A57A2D;"/><path d="M0 0 C1.051875 0.350625 2.10375 0.70125 3.1875 1.0625 C3.625 4.875 3.625 4.875 3.1875 9.0625 C3.1875 10.3825 3.1875 11.7025 3.1875 13.0625 C0.8125 16.3125 0.8125 16.3125 -1.8125 19.0625 C-2.4725 19.0625 -3.1325 19.0625 -3.8125 19.0625 C-5.390625 17.671875 -5.390625 17.671875 -7.0625 15.8125 C-7.62453125 15.20921875 -8.1865625 14.6059375 -8.765625 13.984375 C-9.28382812 13.03304687 -9.28382812 13.03304687 -9.8125 12.0625 C-9.1525 10.7425 -8.4925 9.4225 -7.8125 8.0625 C-8.039375 6.845625 -8.26625 5.62875 -8.5 4.375 C-8.603125 3.281875 -8.70625 2.18875 -8.8125 1.0625 C-5.92120559 -0.38314721 -3.22906521 0.0529355 0 0 Z " transform="translate(66.8125,68.9375)" style="fill: #D29B39;"/><path d="M0 0 C0.66 0.99 1.32 1.98 2 3 C3.32 2.34 4.64 1.68 6 1 C5 4 5 4 2.5625 6.25 C-0.2779434 8.8567791 -0.2779434 8.8567791 -0.9375 12.6875 C-1.288125 13.780625 -1.63875 14.87375 -2 16 C-5.0625 17.375 -5.0625 17.375 -8 18 C-8.33 18.33 -8.66 18.66 -9 19 C-9.22563726 21.2886065 -9.44809255 23.57790766 -9.62109375 25.87109375 C-10 28 -10 28 -12 30 C-12 30.86625 -12 31.7325 -12 32.625 C-12 33.40875 -12 34.1925 -12 35 C-12.66 35 -13.32 35 -14 35 C-15.36623674 32.26752652 -15.128426 30.01801098 -15 27 C-14.67 26.67 -14.34 26.34 -14 26 C-13.9175 24.63875 -13.835 23.2775 -13.75 21.875 C-13.23275738 16.79147489 -11.36095311 13.89565019 -8 10 C-7.13375 9.319375 -6.2675 8.63875 -5.375 7.9375 C-2.73057362 6.05512499 -2.73057362 6.05512499 -1.3125 2.5625 C-0.879375 1.716875 -0.44625 0.87125 0 0 Z " transform="translate(80,72)" style="fill: #D09A38;"/><path d="M0 0 C0.66 0 1.32 0 2 0 C2.68255989 2.32873375 3.35050775 4.66182791 4 7 C4.33 6.34 4.66 5.68 5 5 C5.66 5 6.32 5 7 5 C6.75970636 7.88352373 6.28195071 9.63581367 4.5 11.9375 C2.60369561 14.54491853 2.49960145 16.85964804 2 20 C1.34 20 0.68 20 0 20 C-0.309375 18.741875 -0.61875 17.48375 -0.9375 16.1875 C-1.66476495 11.82375119 -1.66476495 11.82375119 -5 9 C-5 7.68 -5 6.36 -5 5 C-4.34 5 -3.68 5 -3 5 C-2.67 5.66 -2.34 6.32 -2 7 C-1.690625 5.88625 -1.38125 4.7725 -1.0625 3.625 C-0.711875 2.42875 -0.36125 1.2325 0 0 Z " transform="translate(63,31)" style="fill: #52674B;"/><path d="M0 0 C2.25 -0.4375 2.25 -0.4375 5 0 C7.25 1.375 7.25 1.375 9 4 C9.4649133 6.59681304 9.68744224 9.12388767 9.82421875 11.7578125 C9.86149196 14.03626682 9.86149196 14.03626682 11 16 C8.625 16.6875 8.625 16.6875 6 16 C5.3125 11.75 5.3125 11.75 5.23828125 9.359375 C5.10185696 6.61192036 5.10185696 6.61192036 3 3 C2.01 3 1.02 3 0 3 C0 2.01 0 1.02 0 0 Z " transform="translate(52,84)" style="fill: #D39B38;"/><path d="M0 0 C0.66 0.33 1.32 0.66 2 1 C0 5 0 5 -3 7 C-7.07490752 7.33957563 -8.53001271 7.31332486 -12 5 C-11.67 3.68 -11.34 2.36 -11 1 C-8.75 0.64453125 -8.75 0.64453125 -6 0.8125 C-4.33446058 0.90003545 -2.66753408 0.96815473 -1 1 C-0.67 0.67 -0.34 0.34 0 0 Z " transform="translate(70,108)" style="fill: #D19B39;"/><path d="M0 0 C2.6875 0.875 2.6875 0.875 3.6875 1.875 C3.875 4.8125 3.875 4.8125 3.6875 7.875 C3.0275 8.535 2.3675 9.195 1.6875 9.875 C0.3675 9.875 -0.9525 9.875 -2.3125 9.875 C-2.1875 7.4375 -2.1875 7.4375 -1.3125 4.875 C-0.6525 4.545 0.0075 4.215 0.6875 3.875 C-2.14517579 3.62413276 -2.14517579 3.62413276 -5.3125 3.875 C-7.62872777 5.98040926 -7.62872777 5.98040926 -9.3125 9.875 C-9.8125 7.9375 -9.8125 7.9375 -9.3125 4.875 C-6.22088283 1.4889431 -4.68356945 -0.17673847 0 0 Z " transform="translate(94.3125,78.125)" style="fill: #51664A;"/><path d="M0 0 C3.52358374 1.00673821 4.92455197 1.91476426 7.0625 4.875 C7.4375 7.875 7.4375 7.875 7.0625 9.875 C6.4025 8.555 5.7425 7.235 5.0625 5.875 C4.4025 5.215 3.7425 4.555 3.0625 3.875 C-0.14730136 3.53986406 -0.14730136 3.53986406 -2.9375 3.875 C-1.9475 4.535 -0.9575 5.195 0.0625 5.875 C0.0625 7.195 0.0625 8.515 0.0625 9.875 C-2.375 9.6875 -2.375 9.6875 -4.9375 8.875 C-5.2675 8.545 -5.5975 8.215 -5.9375 7.875 C-6.1875 4.9375 -6.1875 4.9375 -5.9375 1.875 C-2.9375 -0.125 -2.9375 -0.125 0 0 Z " transform="translate(35.9375,78.125)" style="fill: #51664A;"/><path d="M0 0 C1.32 0.33 2.64 0.66 4 1 C4.5625 3.1875 4.5625 3.1875 4 6 C1.625 9.3125 1.625 9.3125 -1 12 C-1.66 12 -2.32 12 -3 12 C-3.4494201 5.79800258 -3.4494201 5.79800258 -3 3 C-2.01 2.01 -1.02 1.02 0 0 Z " transform="translate(73,88)" style="fill: #000000;"/><path d="M0 0 C4 1 4 1 6 3 C6.4262911 6.11690762 6.22976324 8.82926728 6 12 C2.22840309 10.74280103 1.16687282 9.2876691 -1 6 C-1.3125 3.25 -1.3125 3.25 -1 1 C-0.67 0.67 -0.34 0.34 0 0 Z " transform="translate(52,88)" style="fill: #000000;"/><path d="M0 0 C0.99 0 1.98 0 3 0 C3.33 1.32 3.66 2.64 4 4 C1.5625 5 1.5625 5 -1 5 C-1 3.68 -1 2.36 -1 1 C-0.67 0.67 -0.34 0.34 0 0 Z " transform="translate(63,61)" style="fill: #52674A;"/><path d="M0 0 C0.66 0 1.32 0 2 0 C2.6875 2.375 2.6875 2.375 3 5 C2.67 5.66 2.34 6.32 2 7 C1.01 6.67 0.02 6.34 -1 6 C-0.8125 2.9375 -0.8125 2.9375 0 0 Z " transform="translate(63,91)" style="fill: #D09B39;"/><path d="M0 0 C0.66 0.33 1.32 0.66 2 1 C0 2.625 0 2.625 -3 4 C-6.3125 3.75 -6.3125 3.75 -9 3 C-9 2.67 -9 2.34 -9 2 C-6.33398946 1.66145898 -3.6672932 1.32828224 -1 1 C-0.67 0.67 -0.34 0.34 0 0 Z " transform="translate(111,69)" style="fill: #8C6B2D;"/><path d="M0 0 C3.73976976 0.23786521 7.38266601 1.04018592 11 2 C11 2.33 11 2.66 11 3 C7.75 3.8125 7.75 3.8125 4 4 C0.875 1.9375 0.875 1.9375 0 0 Z " transform="translate(15,69)" style="fill: #8C6B2D;"/><path d="M0 0 C1.32 0.33 2.64 0.66 4 1 C4 1.99 4 2.98 4 4 C3.01 3.67 2.02 3.34 1 3 C0.67 2.01 0.34 1.02 0 0 Z " transform="translate(54,96)" style="fill: #755721;"/><path d="M0 0 C0.99 0.33 1.98 0.66 3 1 C2.01 2.485 2.01 2.485 1 4 C0.34 4 -0.32 4 -1 4 C-0.67 2.68 -0.34 1.36 0 0 Z " transform="translate(71,96)" style="fill: #755721;"/><path d="M0 0 C0.66 0 1.32 0 2 0 C2.25 2.5 2.25 2.5 2 5 C1.34 5 0.68 5 0 5 C-0.25 2.5 -0.25 2.5 0 0 Z " transform="translate(63,80)" style="fill: #000000;"/><path d="M0 0 C1.66412307 -0.10103604 3.33281901 -0.12963106 5 -0.125 C6.3921875 -0.12886719 6.3921875 -0.12886719 7.8125 -0.1328125 C8.8953125 -0.06707031 8.8953125 -0.06707031 10 0 C10 0.33 10 0.66 10 1 C8.33587693 1.10103604 6.66718099 1.12963106 5 1.125 C3.6078125 1.12886719 3.6078125 1.12886719 2.1875 1.1328125 C1.1046875 1.06707031 1.1046875 1.06707031 0 1 C0 0.67 0 0.34 0 0 Z " transform="translate(95,57)" style="fill: #946E28;"/><path d="M0 0 C1.66412307 -0.10103604 3.33281901 -0.12963106 5 -0.125 C6.3921875 -0.12886719 6.3921875 -0.12886719 7.8125 -0.1328125 C8.8953125 -0.06707031 8.8953125 -0.06707031 10 0 C10 0.33 10 0.66 10 1 C8.33587693 1.10103604 6.66718099 1.12963106 5 1.125 C3.6078125 1.12886719 3.6078125 1.12886719 2.1875 1.1328125 C1.1046875 1.06707031 1.1046875 1.06707031 0 1 C0 0.67 0 0.34 0 0 Z " transform="translate(23,57)" style="fill: #946E28;"/><path d="M0 0 C0.33 0 0.66 0 1 0 C0.625 3.75 0.625 3.75 0 7 C-1 3 -1 3 0 0 Z " transform="translate(101,29)" style="fill: #9C732C;"/><path d="M0 0 C0.99 1.485 0.99 1.485 2 3 C1.67 4.32 1.34 5.64 1 7 C0.3125 3.5625 0.3125 3.5625 0 0 Z " transform="translate(26,29)" style="fill: #9C732C;"/><path d="M0 0 C0.66 0 1.32 0 2 0 C2 0.99 2 1.98 2 3 C1.01 3 0.02 3 -1 3 C-0.67 2.01 -0.34 1.02 0 0 Z " transform="translate(63,55)" style="fill: #4B5E44;"/><path d="M0 0 C0.33 0 0.66 0 1 0 C1.125 3.5 1.125 3.5 1 7 C0.67 7 0.34 7 0 7 C-0.125 3.5 -0.125 3.5 0 0 Z " transform="translate(104,29)" style="fill: #6B5626;"/><path d="M0 0 C0.33 0 0.66 0 1 0 C1.125 3.5 1.125 3.5 1 7 C0.67 7 0.34 7 0 7 C-0.125 3.5 -0.125 3.5 0 0 Z " transform="translate(23,29)" style="fill: #6B5626;"/><path d="M0 0 C0.99 0.495 0.99 0.495 2 1 C1.67 1.99 1.34 2.98 1 4 C0.67 2.68 0.34 1.36 0 0 Z " transform="translate(70,108)" style="fill: #423213;"/><path d="M0 0 C3 -0.125 3 -0.125 6 0 C6 0.33 6 0.66 6 1 C3 1.125 3 1.125 0 1 C0 0.67 0 0.34 0 0 Z " transform="translate(61,109)" style="fill: #8E6926;"/><path d="M0 0 C0.99 0.495 0.99 0.495 2 1 C2 1.66 2 2.32 2 3 C1.34 3 0.68 3 0 3 C0 2.01 0 1.02 0 0 Z " transform="translate(70,97)" style="fill: #101410;"/><path d="M0 0 C0.33 0.99 0.66 1.98 1 3 C0.34 3 -0.32 3 -1 3 C-0.67 2.01 -0.34 1.02 0 0 Z " transform="translate(57,97)" style="fill: #101410;"/><path d="M0 0 C0.33 1.32 0.66 2.64 1 4 C0.34 3.01 -0.32 2.02 -1 1 C-0.67 0.67 -0.34 0.34 0 0 Z " transform="translate(99,13)" style="fill: #775E26;"/><path d="M0 0 C0.66 0.66 1.32 1.32 2 2 C1.34 2.66 0.68 3.32 0 4 C0 2.68 0 1.36 0 0 Z " transform="translate(28,13)" style="fill: #775E26;"/><path d="M0 0 C0.66 0.66 1.32 1.32 2 2 C1.01 2.495 1.01 2.495 0 3 C0 2.01 0 1.02 0 0 Z " transform="translate(65,96)" style="fill: #443313;"/><path d="M0 0 C0.66 0 1.32 0 2 0 C2 0.66 2 1.32 2 2 C1.34 2 0.68 2 0 2 C0 1.34 0 0.68 0 0 Z " transform="translate(63,78)" style="fill: #443313;"/><path d="M0 0 C0.99 0.495 0.99 0.495 2 1 C1.67 1.66 1.34 2.32 1 3 C0.67 2.01 0.34 1.02 0 0 Z " transform="translate(66,77)" style="fill: #443313;"/><path d="M0 0 C0 3 0 3 0 3 Z " transform="translate(61,77)" style="fill: #443313;"/><path d="M0 0 C1 4 1 4 1 4 Z " transform="translate(68,73)" style="fill: #3C2F13;"/><path d="M0 0 C1 4 1 4 1 4 Z " transform="translate(59,73)" style="fill: #3C2F13;"/><path d="M0 0 C4 1 4 1 4 1 Z " transform="translate(94,61)" style="fill: #473413;"/><path d="M0 0 C1 4 1 4 1 4 Z " transform="translate(89,46)" style="fill: #8F6A26;"/><path d="M0 0 C1 4 1 4 1 4 Z " transform="translate(38,46)" style="fill: #8F6A26;"/><path d="M0 0 C1 4 1 4 1 4 Z " transform="translate(110,35)" style="fill: #4D3B16;"/><path d="M0 0 C1 4 1 4 1 4 Z " transform="translate(17,35)" style="fill: #4D3B16;"/><path d="M0 0 C0.99 0.33 1.98 0.66 3 1 C2.01 1 1.02 1 0 1 C0 0.67 0 0.34 0 0 Z " transform="translate(77,35)" style="fill: #5A4920;"/><path d="M0 0 C0.99 0.33 1.98 0.66 3 1 C2.01 1 1.02 1 0 1 C0 0.67 0 0.34 0 0 Z " transform="translate(48,35)" style="fill: #5A4920;"/><path d="M0 0 C0.66 0.33 1.32 0.66 2 1 C1.01 1 0.02 1 -1 1 C-0.67 0.67 -0.34 0.34 0 0 Z " transform="translate(69,19)" style="fill: #282210;"/><path d="M0 0 C0.66 0.33 1.32 0.66 2 1 C1.01 1 0.02 1 -1 1 C-0.67 0.67 -0.34 0.34 0 0 Z " transform="translate(45,18)" style="fill: #080C08;"/><path d="M0 0 C0.66 0.33 1.32 0.66 2 1 C1.01 1 0.02 1 -1 1 C-0.67 0.67 -0.34 0.34 0 0 Z " transform="translate(84,15)" style="fill: #5F4A1D;"/><path d="M0 0 C0.99 0.33 1.98 0.66 3 1 C2.01 1 1.02 1 0 1 C0 0.67 0 0.34 0 0 Z " transform="translate(42,15)" style="fill: #5F4A1D;"/><path d="M0 0 C0.66 0.66 1.32 1.32 2 2 C1.34 2 0.68 2 0 2 C0 1.34 0 0.68 0 0 Z " transform="translate(70,108)" style="fill: #A57D2F;"/><path d="M0 0 C0.33 0.66 0.66 1.32 1 2 C0.34 1.67 -0.32 1.34 -1 1 C-0.67 0.67 -0.34 0.34 0 0 Z " transform="translate(57,108)" style="fill: #A57D2F;"/><path d="" transform="translate(0,0)" style="fill: #463313;"/><path d="" transform="translate(0,0)" style="fill: #283124;"/><path d="" transform="translate(0,0)" style="fill: #283124;"/><path d="" transform="translate(0,0)" style="fill: #8E6926;"/><path d="" transform="translate(0,0)" style="fill: #664C1C;"/><path d="" transform="translate(0,0)" style="fill: #664C1C;"/><path d="M0 0 C0.99 0.495 0.99 0.495 2 1 C1.01 1.495 1.01 1.495 0 2 C0 1.34 0 0.68 0 0 Z " transform="translate(111,69)" style="fill: #735924;"/><path d="M0 0 C0.66 0 1.32 0 2 0 C1.67 0.66 1.34 1.32 1 2 C0.67 1.34 0.34 0.68 0 0 Z " transform="translate(15,69)" style="fill: #735924;"/><path d="M0 0 C0.33 0.66 0.66 1.32 1 2 C0.34 1.67 -0.32 1.34 -1 1 C-0.67 0.67 -0.34 0.34 0 0 Z " transform="translate(87,55)" style="fill: #544925;"/><path d="M0 0 C0.66 0.66 1.32 1.32 2 2 C1.34 2 0.68 2 0 2 C0 1.34 0 0.68 0 0 Z " transform="translate(40,55)" style="fill: #544925;"/><path d="M0 0 C0.66 0 1.32 0 2 0 C1.67 0.66 1.34 1.32 1 2 C0.67 1.34 0.34 0.68 0 0 Z " transform="translate(28,48)" style="fill: #82652B;"/><path d="" transform="translate(0,0)" style="fill: #423213;"/><path d="" transform="translate(0,0)" style="fill: #423213;"/><path d="" transform="translate(0,0)" style="fill: #473413;"/><path d="" transform="translate(0,0)" style="fill: #8E6926;"/><path d="" transform="translate(0,0)" style="fill: #8E6926;"/><path d="" transform="translate(0,0)" style="fill: #473413;"/><path d="" transform="translate(0,0)" style="fill: #473413;"/><path d="M0 0 C2 1 2 1 2 1 Z " transform="translate(66,100)" style="fill: #8E6926;"/><path d="M0 0 C2 1 2 1 2 1 Z " transform="translate(60,100)" style="fill: #8E6926;"/><path d="M0 0 C2 1 2 1 2 1 Z " transform="translate(70,99)" style="fill: #52401D;"/><path d="M0 0 C2 1 2 1 2 1 Z " transform="translate(56,99)" style="fill: #52401D;"/><path d="" transform="translate(0,0)" style="fill: #040404;"/><path d="" transform="translate(0,0)" style="fill: #4C3A18;"/><path d="M0 0 C2 1 2 1 2 1 Z " transform="translate(63,91)" style="fill: #473413;"/><path d="" transform="translate(0,0)" style="fill: #846426;"/><path d="" transform="translate(0,0)" style="fill: #846426;"/><path d="M0 0 C2 1 2 1 2 1 Z " transform="translate(63,87)" style="fill: #896626;"/><path d="M0 0 C2 1 2 1 2 1 Z " transform="translate(20,87)" style="fill: #000000;"/><path d="M0 0 C2 1 2 1 2 1 Z " transform="translate(63,84)" style="fill: #443313;"/><path d="" transform="translate(0,0)" style="fill: #8E6926;"/><path d="" transform="translate(0,0)" style="fill: #8E6926;"/><path d="M0 0 C2 1 2 1 2 1 Z " transform="translate(63,78)" style="fill: #896626;"/><path d="" transform="translate(0,0)" style="fill: #3C2F13;"/><path d="" transform="translate(0,0)" style="fill: #3C2F13;"/><path d="M0 0 C2 1 2 1 2 1 Z " transform="translate(105,73)" style="fill: #8E6926;"/><path d="M0 0 C2 1 2 1 2 1 Z " transform="translate(21,73)" style="fill: #8E6926;"/><path d="M0 0 C2 1 2 1 2 1 Z " transform="translate(65,69)" style="fill: #473413;"/><path d="M0 0 C2 1 2 1 2 1 Z " transform="translate(63,69)" style="fill: #8E6926;"/><path d="M0 0 C2 1 2 1 2 1 Z " transform="translate(61,69)" style="fill: #473413;"/><path d="M0 0 C2 1 2 1 2 1 Z " transform="translate(85,68)" style="fill: #624E26;"/><path d="M0 0 C2 1 2 1 2 1 Z " transform="translate(41,68)" style="fill: #624E26;"/><path d="" transform="translate(0,0)" style="fill: #967028;"/><path d="" transform="translate(0,0)" style="fill: #2D3828;"/><path d="" transform="translate(0,0)" style="fill: #2D3828;"/><path d="" transform="translate(0,0)" style="fill: #967028;"/><path d="M0 0 C2 1 2 1 2 1 Z " transform="translate(90,62)" style="fill: #4F3E18;"/><path d="M0 0 C2 1 2 1 2 1 Z " transform="translate(36,62)" style="fill: #967028;"/><path d="M0 0 C2 1 2 1 2 1 Z " transform="translate(94,61)" style="fill: #8E6926;"/><path d="M0 0 C2 1 2 1 2 1 Z " transform="translate(32,61)" style="fill: #8E6926;"/><path d="M0 0 C2 1 2 1 2 1 Z " transform="translate(30,61)" style="fill: #473413;"/><path d="M0 0 C2 1 2 1 2 1 Z " transform="translate(105,60)" style="fill: #392E13;"/><path d="M0 0 C2 1 2 1 2 1 Z " transform="translate(57,54)" style="fill: #473413;"/><path d="M0 0 C2 1 2 1 2 1 Z " transform="translate(98,48)" style="fill: #705A29;"/><path d="" transform="translate(0,0)" style="fill: #AD8A39;"/><path d="" transform="translate(0,0)" style="fill: #AD8A39;"/><path d="" transform="translate(0,0)" style="fill: #473413;"/><path d="" transform="translate(0,0)" style="fill: #473413;"/><path d="" transform="translate(0,0)" style="fill: #544925;"/><path d="" transform="translate(0,0)" style="fill: #544925;"/><path d="" transform="translate(0,0)" style="fill: #967028;"/><path d="" transform="translate(0,0)" style="fill: #967028;"/><path d="" transform="translate(0,0)" style="fill: #392E14;"/><path d="" transform="translate(0,0)" style="fill: #392E14;"/><path d="" transform="translate(0,0)" style="fill: #544925;"/><path d="" transform="translate(0,0)" style="fill: #544925;"/><path d="" transform="translate(0,0)" style="fill: #524521;"/><path d="" transform="translate(0,0)" style="fill: #524521;"/><path d="" transform="translate(0,0)" style="fill: #967028;"/><path d="" transform="translate(0,0)" style="fill: #967028;"/><path d="" transform="translate(0,0)" style="fill: #443313;"/><path d="" transform="translate(0,0)" style="fill: #443313;"/><path d="" transform="translate(0,0)" style="fill: #443313;"/><path d="" transform="translate(0,0)" style="fill: #443313;"/><path d="" transform="translate(0,0)" style="fill: #443313;"/><path d="M0 0 C2 1 2 1 2 1 Z " transform="translate(69,19)" style="fill: #846426;"/><path d="M0 0 C2 1 2 1 2 1 Z " transform="translate(57,19)" style="fill: #846426;"/><path d="M0 0 C2 1 2 1 2 1 Z " transform="translate(81,18)" style="fill: #967028;"/><path d="M0 0 C2 1 2 1 2 1 Z " transform="translate(45,18)" style="fill: #4F3E18;"/><path d="" transform="translate(0,0)" style="fill: #8E6926;"/><path d="" transform="translate(0,0)" style="fill: #8E6926;"/><path d="" transform="translate(0,0)" style="fill: #846426;"/><path d="" transform="translate(0,0)" style="fill: #846426;"/><path d="" transform="translate(0,0)" style="fill: #423213;"/><path d="" transform="translate(0,0)" style="fill: #000000;"/><path d="" transform="translate(0,0)" style="fill: #423213;"/><path d="" transform="translate(0,0)" style="fill: #423213;"/><path d="" transform="translate(0,0)" style="fill: #C69639;"/><path d="" transform="translate(0,0)" style="fill: #C69639;"/><path d="" transform="translate(0,0)" style="fill: #423213;"/><path d="" transform="translate(0,0)" style="fill: #443313;"/><path d="" transform="translate(0,0)" style="fill: #896626;"/><path d="" transform="translate(0,0)" style="fill: #896626;"/><path d="" transform="translate(0,0)" style="fill: #443313;"/><path d="" transform="translate(0,0)" style="fill: #473413;"/><path d="" transform="translate(0,0)" style="fill: #8E6926;"/><path d="" transform="translate(0,0)" style="fill: #8E6926;"/><path d="" transform="translate(0,0)" style="fill: #896626;"/><path d="" transform="translate(0,0)" style="fill: #896626;"/><path d="" transform="translate(0,0)" style="fill: #705A29;"/><path d="" transform="translate(0,0)" style="fill: #000000;"/><path d="" transform="translate(0,0)" style="fill: #000000;"/><path d="" transform="translate(0,0)" style="fill: #705A29;"/><path d="" transform="translate(0,0)" style="fill: #8E6926;"/><path d="" transform="translate(0,0)" style="fill: #8E6926;"/><path d="" transform="translate(0,0)" style="fill: #8E6926;"/><path d="" transform="translate(0,0)" style="fill: #8E6926;"/><path d="" transform="translate(0,0)" style="fill: #8E6926;"/><path d="" transform="translate(0,0)" style="fill: #8E6926;"/><path d="" transform="translate(0,0)" style="fill: #8E6926;"/><path d="" transform="translate(0,0)" style="fill: #8E6926;"/><path d="" transform="translate(0,0)" style="fill: #8E6926;"/><path d="" transform="translate(0,0)" style="fill: #8E6926;"/><path d="" transform="translate(0,0)" style="fill: #8E6926;"/><path d="" transform="translate(0,0)" style="fill: #896626;"/><path d="" transform="translate(0,0)" style="fill: #896626;"/><path d="" transform="translate(0,0)" style="fill: #8E6926;"/><path d="" transform="translate(0,0)" style="fill: #896626;"/><path d="" transform="translate(0,0)" style="fill: #473413;"/><path d="" transform="translate(0,0)" style="fill: #473413;"/><path d="" transform="translate(0,0)" style="fill: #896626;"/><path d="" transform="translate(0,0)" style="fill: #896626;"/><path d="" transform="translate(0,0)" style="fill: #916C28;"/><path d="" transform="translate(0,0)" style="fill: #896626;"/><path d="" transform="translate(0,0)" style="fill: #443313;"/><path d="" transform="translate(0,0)" style="fill: #443313;"/><path d="" transform="translate(0,0)" style="fill: #4C3A18;"/><path d="" transform="translate(0,0)" style="fill: #443313;"/><path d="" transform="translate(0,0)" style="fill: #896626;"/><path d="" transform="translate(0,0)" style="fill: #473413;"/><path d="" transform="translate(0,0)" style="fill: #846426;"/><path d="" transform="translate(0,0)" style="fill: #846426;"/><path d="" transform="translate(0,0)" style="fill: #473413;"/><path d="" transform="translate(0,0)" style="fill: #423213;"/><path d="" transform="translate(0,0)" style="fill: #8E6926;"/><path d="" transform="translate(0,0)" style="fill: #846426;"/><path d="" transform="translate(0,0)" style="fill: #896626;"/><path d="" transform="translate(0,0)" style="fill: #473413;"/><path d="" transform="translate(0,0)" style="fill: #846426;"/><path d="" transform="translate(0,0)" style="fill: #896626;"/><path d="" transform="translate(0,0)" style="fill: #846426;"/><path d="" transform="translate(0,0)" style="fill: #473413;"/><path d="" transform="translate(0,0)" style="fill: #473413;"/><path d="" transform="translate(0,0)" style="fill: #8E6926;"/><path d="" transform="translate(0,0)" style="fill: #443313;"/><path d="" transform="translate(0,0)" style="fill: #443313;"/><path d="" transform="translate(0,0)" style="fill: #443313;"/><path d="" transform="translate(0,0)" style="fill: #443313;"/><path d="" transform="translate(0,0)" style="fill: #8E6926;"/><path d="" transform="translate(0,0)" style="fill: #443313;"/><path d="" transform="translate(0,0)" style="fill: #443313;"/><path d="" transform="translate(0,0)" style="fill: #443313;"/><path d="" transform="translate(0,0)" style="fill: #443313;"/><path d="" transform="translate(0,0)" style="fill: #443313;"/><path d="" transform="translate(0,0)" style="fill: #443313;"/><path d="" transform="translate(0,0)" style="fill: #8E6926;"/><path d="" transform="translate(0,0)" style="fill: #473413;"/><path d="" transform="translate(0,0)" style="fill: #473413;"/><path d="" transform="translate(0,0)" style="fill: #473413;"/><path d="" transform="translate(0,0)" style="fill: #473413;"/><path d="" transform="translate(0,0)" style="fill: #8E6926;"/><path d="" transform="translate(0,0)" style="fill: #473413;"/><path d="" transform="translate(0,0)" style="fill: #473413;"/><path d="" transform="translate(0,0)" style="fill: #8E6926;"/><path d="" transform="translate(0,0)" style="fill: #473413;"/><path d="" transform="translate(0,0)" style="fill: #473413;"/><path d="" transform="translate(0,0)" style="fill: #896626;"/><path d="" transform="translate(0,0)" style="fill: #896626;"/><path d="" transform="translate(0,0)" style="fill: #473413;"/><path d="" transform="translate(0,0)" style="fill: #473413;"/><path d="" transform="translate(0,0)" style="fill: #8E6926;"/><path d="" transform="translate(0,0)" style="fill: #8E6926;"/><path d="" transform="translate(0,0)" style="fill: #8E6926;"/><path d="" transform="translate(0,0)" style="fill: #8E6926;"/><path d="" transform="translate(0,0)" style="fill: #000000;"/><path d="" transform="translate(0,0)" style="fill: #000000;"/><path d="" transform="translate(0,0)" style="fill: #8E6926;"/><path d="" transform="translate(0,0)" style="fill: #8E6926;"/><path d="" transform="translate(0,0)" style="fill: #473413;"/><path d="" transform="translate(0,0)" style="fill: #8E6926;"/><path d="" transform="translate(0,0)" style="fill: #473413;"/><path d="" transform="translate(0,0)" style="fill: #473413;"/><path d="" transform="translate(0,0)" style="fill: #896626;"/><path d="" transform="translate(0,0)" style="fill: #896626;"/><path d="" transform="translate(0,0)" style="fill: #473413;"/><path d="" transform="translate(0,0)" style="fill: #473413;"/><path d="" transform="translate(0,0)" style="fill: #8E6926;"/><path d="" transform="translate(0,0)" style="fill: #473413;"/><path d="" transform="translate(0,0)" style="fill: #473413;"/><path d="" transform="translate(0,0)" style="fill: #8E6926;"/><path d="" transform="translate(0,0)" style="fill: #473413;"/><path d="" transform="translate(0,0)" style="fill: #473413;"/><path d="" transform="translate(0,0)" style="fill: #473413;"/><path d="" transform="translate(0,0)" style="fill: #473413;"/><path d="" transform="translate(0,0)" style="fill: #473413;"/><path d="" transform="translate(0,0)" style="fill: #473413;"/><path d="" transform="translate(0,0)" style="fill: #8E6926;"/><path d="" transform="translate(0,0)" style="fill: #8E6926;"/><path d="" transform="translate(0,0)" style="fill: #8E6926;"/><path d="" transform="translate(0,0)" style="fill: #896626;"/><path d="" transform="translate(0,0)" style="fill: #896626;"/><path d="" transform="translate(0,0)" style="fill: #8E6926;"/><path d="" transform="translate(0,0)" style="fill: #8E6926;"/><path d="" transform="translate(0,0)" style="fill: #8E6926;"/><path d="" transform="translate(0,0)" style="fill: #473413;"/><path d="" transform="translate(0,0)" style="fill: #3C2F13;"/><path d="" transform="translate(0,0)" style="fill: #3C2F13;"/><path d="" transform="translate(0,0)" style="fill: #785E26;"/><path d="" transform="translate(0,0)" style="fill: #916C28;"/><path d="" transform="translate(0,0)" style="fill: #785E26;"/><path d="" transform="translate(0,0)" style="fill: #785E26;"/><path d="" transform="translate(0,0)" style="fill: #916C28;"/><path d="" transform="translate(0,0)" style="fill: #785E26;"/><path d="" transform="translate(0,0)" style="fill: #896626;"/><path d="" transform="translate(0,0)" style="fill: #443313;"/><path d="" transform="translate(0,0)" style="fill: #C69639;"/><path d="" transform="translate(0,0)" style="fill: #423213;"/><path d="" transform="translate(0,0)" style="fill: #3C2F13;"/><path d="" transform="translate(0,0)" style="fill: #785E26;"/><path d="" transform="translate(0,0)" style="fill: #785E26;"/><path d="" transform="translate(0,0)" style="fill: #3C2F13;"/><path d="" transform="translate(0,0)" style="fill: #423213;"/><path d="" transform="translate(0,0)" style="fill: #C69639;"/><path d="" transform="translate(0,0)" style="fill: #443313;"/><path d="" transform="translate(0,0)" style="fill: #896626;"/><path d="" transform="translate(0,0)" style="fill: #312713;"/><path d="" transform="translate(0,0)" style="fill: #896626;"/><path d="" transform="translate(0,0)" style="fill: #423213;"/><path d="" transform="translate(0,0)" style="fill: #4C3A18;"/><path d="" transform="translate(0,0)" style="fill: #3C2F13;"/><path d="" transform="translate(0,0)" style="fill: #3C2F13;"/><path d="" transform="translate(0,0)" style="fill: #423213;"/><path d="" transform="translate(0,0)" style="fill: #896626;"/><path d="" transform="translate(0,0)" style="fill: #312713;"/><path d="" transform="translate(0,0)" style="fill: #8E6926;"/><path d="" transform="translate(0,0)" style="fill: #473413;"/><path d="" transform="translate(0,0)" style="fill: #473413;"/><path d="" transform="translate(0,0)" style="fill: #393821;"/><path d="" transform="translate(0,0)" style="fill: #8E6926;"/><path d="" transform="translate(0,0)" style="fill: #C69639;"/><path d="" transform="translate(0,0)" style="fill: #423213;"/><path d="" transform="translate(0,0)" style="fill: #473413;"/><path d="" transform="translate(0,0)" style="fill: #8E6926;"/><path d="" transform="translate(0,0)" style="fill: #473413;"/><path d="" transform="translate(0,0)" style="fill: #896626;"/><path d="" transform="translate(0,0)" style="fill: #896626;"/><path d="" transform="translate(0,0)" style="fill: #473413;"/><path d="" transform="translate(0,0)" style="fill: #8E6926;"/><path d="" transform="translate(0,0)" style="fill: #473413;"/><path d="" transform="translate(0,0)" style="fill: #423213;"/><path d="" transform="translate(0,0)" style="fill: #C69639;"/><path d="" transform="translate(0,0)" style="fill: #443313;"/><path d="" transform="translate(0,0)" style="fill: #896626;"/><path d="" transform="translate(0,0)" style="fill: #473413;"/><path d="" transform="translate(0,0)" style="fill: #8E6926;"/><path d="" transform="translate(0,0)" style="fill: #8E6926;"/><path d="" transform="translate(0,0)" style="fill: #8E6926;"/><path d="" transform="translate(0,0)" style="fill: #8E6926;"/><path d="" transform="translate(0,0)" style="fill: #473413;"/><path d="" transform="translate(0,0)" style="fill: #896626;"/><path d="" transform="translate(0,0)" style="fill: #443313;"/><path d="" transform="translate(0,0)" style="fill: #896626;"/><path d="" transform="translate(0,0)" style="fill: #947539;"/><path d="" transform="translate(0,0)" style="fill: #947539;"/><path d="" transform="translate(0,0)" style="fill: #896626;"/><path d="" transform="translate(0,0)" style="fill: #443313;"/><path d="" transform="translate(0,0)" style="fill: #8E6926;"/><path d="" transform="translate(0,0)" style="fill: #8E6926;"/><path d="" transform="translate(0,0)" style="fill: #443313;"/><path d="" transform="translate(0,0)" style="fill: #896626;"/><path d="" transform="translate(0,0)" style="fill: #896626;"/><path d="" transform="translate(0,0)" style="fill: #967028;"/><path d="" transform="translate(0,0)" style="fill: #8E6926;"/><path d="" transform="translate(0,0)" style="fill: #8E6926;"/><path d="" transform="translate(0,0)" style="fill: #967028;"/><path d="" transform="translate(0,0)" style="fill: #4F3E18;"/><path d="" transform="translate(0,0)" style="fill: #473413;"/><path d="" transform="translate(0,0)" style="fill: #473413;"/><path d="" transform="translate(0,0)" style="fill: #4F3E18;"/><path d="" transform="translate(0,0)" style="fill: #967028;"/><path d="" transform="translate(0,0)" style="fill: #4F3E18;"/><path d="" transform="translate(0,0)" style="fill: #735C26;"/><path d="" transform="translate(0,0)" style="fill: #735C26;"/><path d="" transform="translate(0,0)" style="fill: #392E13;"/><path d="" transform="translate(0,0)" style="fill: #443313;"/><path d="" transform="translate(0,0)" style="fill: #967028;"/><path d="" transform="translate(0,0)" style="fill: #896626;"/><path d="" transform="translate(0,0)" style="fill: #896626;"/><path d="" transform="translate(0,0)" style="fill: #967028;"/><path d="" transform="translate(0,0)" style="fill: #967028;"/><path d="" transform="translate(0,0)" style="fill: #443313;"/><path d="" transform="translate(0,0)" style="fill: #896626;"/><path d="" transform="translate(0,0)" style="fill: #4F3E18;"/><path d="" transform="translate(0,0)" style="fill: #4F3E18;"/><path d="" transform="translate(0,0)" style="fill: #896626;"/><path d="" transform="translate(0,0)" style="fill: #896626;"/><path d="" transform="translate(0,0)" style="fill: #967028;"/><path d="" transform="translate(0,0)" style="fill: #967028;"/><path d="" transform="translate(0,0)" style="fill: #443313;"/><path d="" transform="translate(0,0)" style="fill: #967028;"/><path d="" transform="translate(0,0)" style="fill: #967028;"/><path d="" transform="translate(0,0)" style="fill: #896626;"/><path d="" transform="translate(0,0)" style="fill: #443313;"/><path d="" transform="translate(0,0)" style="fill: #967028;"/><path d="" transform="translate(0,0)" style="fill: #393821;"/><path d="" transform="translate(0,0)" style="fill: #967028;"/><path d="" transform="translate(0,0)" style="fill: #443313;"/><path d="" transform="translate(0,0)" style="fill: #443313;"/><path d="" transform="translate(0,0)" style="fill: #967028;"/><path d="" transform="translate(0,0)" style="fill: #393821;"/><path d="" transform="translate(0,0)" style="fill: #967028;"/><path d="" transform="translate(0,0)" style="fill: #443313;"/><path d="" transform="translate(0,0)" style="fill: #8E6926;"/><path d="" transform="translate(0,0)" style="fill: #896626;"/><path d="" transform="translate(0,0)" style="fill: #000000;"/><path d="" transform="translate(0,0)" style="fill: #4C3E1B;"/><path d="" transform="translate(0,0)" style="fill: #473413;"/><path d="" transform="translate(0,0)" style="fill: #473413;"/><path d="" transform="translate(0,0)" style="fill: #4C3E1B;"/><path d="" transform="translate(0,0)" style="fill: #000000;"/><path d="" transform="translate(0,0)" style="fill: #896626;"/><path d="" transform="translate(0,0)" style="fill: #8E6926;"/><path d="" transform="translate(0,0)" style="fill: #735C26;"/><path d="" transform="translate(0,0)" style="fill: #8E6926;"/><path d="" transform="translate(0,0)" style="fill: #896626;"/><path d="" transform="translate(0,0)" style="fill: #8E6926;"/><path d="" transform="translate(0,0)" style="fill: #473413;"/><path d="" transform="translate(0,0)" style="fill: #473413;"/><path d="" transform="translate(0,0)" style="fill: #8E6926;"/><path d="" transform="translate(0,0)" style="fill: #473413;"/><path d="" transform="translate(0,0)" style="fill: #8E6926;"/><path d="" transform="translate(0,0)" style="fill: #473413;"/><path d="" transform="translate(0,0)" style="fill: #473413;"/><path d="" transform="translate(0,0)" style="fill: #8E6926;"/><path d="" transform="translate(0,0)" style="fill: #896626;"/><path d="" transform="translate(0,0)" style="fill: #8E6926;"/><path d="" transform="translate(0,0)" style="fill: #735C26;"/><path d="" transform="translate(0,0)" style="fill: #423213;"/><path d="" transform="translate(0,0)" style="fill: #8E6926;"/><path d="" transform="translate(0,0)" style="fill: #473413;"/><path d="" transform="translate(0,0)" style="fill: #473413;"/><path d="" transform="translate(0,0)" style="fill: #8E6926;"/><path d="" transform="translate(0,0)" style="fill: #423213;"/><path d="" transform="translate(0,0)" style="fill: #423213;"/><path d="" transform="translate(0,0)" style="fill: #846426;"/><path d="" transform="translate(0,0)" style="fill: #443313;"/><path d="" transform="translate(0,0)" style="fill: #896626;"/><path d="" transform="translate(0,0)" style="fill: #473413;"/><path d="" transform="translate(0,0)" style="fill: #473413;"/><path d="" transform="translate(0,0)" style="fill: #896626;"/><path d="" transform="translate(0,0)" style="fill: #443313;"/><path d="" transform="translate(0,0)" style="fill: #846426;"/><path d="" transform="translate(0,0)" style="fill: #423213;"/><path d="" transform="translate(0,0)" style="fill: #8E6926;"/><path d="" transform="translate(0,0)" style="fill: #916C28;"/><path d="" transform="translate(0,0)" style="fill: #916C28;"/><path d="" transform="translate(0,0)" style="fill: #8E6926;"/><path d="" transform="translate(0,0)" style="fill: #8E6926;"/><path d="" transform="translate(0,0)" style="fill: #8E6926;"/><path d="" transform="translate(0,0)" style="fill: #8E6926;"/><path d="" transform="translate(0,0)" style="fill: #8E6926;"/><path d="" transform="translate(0,0)" style="fill: #896626;"/><path d="" transform="translate(0,0)" style="fill: #8E6926;"/><path d="" transform="translate(0,0)" style="fill: #4C3A18;"/><path d="" transform="translate(0,0)" style="fill: #473413;"/><path d="" transform="translate(0,0)" style="fill: #473413;"/><path d="" transform="translate(0,0)" style="fill: #4C3A18;"/><path d="" transform="translate(0,0)" style="fill: #8E6926;"/><path d="" transform="translate(0,0)" style="fill: #896626;"/><path d="" transform="translate(0,0)" style="fill: #443313;"/><path d="" transform="translate(0,0)" style="fill: #443313;"/><path d="" transform="translate(0,0)" style="fill: #080C08;"/><path d="" transform="translate(0,0)" style="fill: #473413;"/><path d="" transform="translate(0,0)" style="fill: #473413;"/><path d="" transform="translate(0,0)" style="fill: #967028;"/><path d="" transform="translate(0,0)" style="fill: #967028;"/><path d="" transform="translate(0,0)" style="fill: #967028;"/><path d="" transform="translate(0,0)" style="fill: #967028;"/><path d="" transform="translate(0,0)" style="fill: #4F3E18;"/><path d="" transform="translate(0,0)" style="fill: #443313;"/><path d="" transform="translate(0,0)" style="fill: #473413;"/><path d="" transform="translate(0,0)" style="fill: #473413;"/><path d="" transform="translate(0,0)" style="fill: #473413;"/><path d="" transform="translate(0,0)" style="fill: #473413;"/><path d="" transform="translate(0,0)" style="fill: #443313;"/><path d="" transform="translate(0,0)" style="fill: #443313;"/><path d="" transform="translate(0,0)" style="fill: #4F3E18;"/><path d="" transform="translate(0,0)" style="fill: #443313;"/><path d="" transform="translate(0,0)" style="fill: #443313;"/><path d="" transform="translate(0,0)" style="fill: #8E6926;"/><path d="" transform="translate(0,0)" style="fill: #4F3E18;"/><path d="" transform="translate(0,0)" style="fill: #8E6926;"/><path d="" transform="translate(0,0)" style="fill: #947539;"/><path d="" transform="translate(0,0)" style="fill: #473413;"/><path d="" transform="translate(0,0)" style="fill: #473413;"/><path d="" transform="translate(0,0)" style="fill: #947539;"/><path d="" transform="translate(0,0)" style="fill: #8E6926;"/><path d="" transform="translate(0,0)" style="fill: #4F3E18;"/><path d="" transform="translate(0,0)" style="fill: #8E6926;"/><path d="" transform="translate(0,0)" style="fill: #4F3E18;"/><path d="" transform="translate(0,0)" style="fill: #735C26;"/><path d="" transform="translate(0,0)" style="fill: #312713;"/><path d="" transform="translate(0,0)" style="fill: #8E6926;"/><path d="" transform="translate(0,0)" style="fill: #8E6926;"/><path d="" transform="translate(0,0)" style="fill: #312713;"/><path d="" transform="translate(0,0)" style="fill: #735C26;"/><path d="" transform="translate(0,0)" style="fill: #4F3E18;"/><path d="" transform="translate(0,0)" style="fill: #8E6926;"/><path d="" transform="translate(0,0)" style="fill: #967028;"/><path d="" transform="translate(0,0)" style="fill: #473413;"/><path d="" transform="translate(0,0)" style="fill: #392E13;"/><path d="" transform="translate(0,0)" style="fill: #8E6926;"/><path d="" transform="translate(0,0)" style="fill: #8E6926;"/><path d="" transform="translate(0,0)" style="fill: #392E13;"/><path d="" transform="translate(0,0)" style="fill: #473413;"/><path d="" transform="translate(0,0)" style="fill: #967028;"/><path d="" transform="translate(0,0)" style="fill: #8E6926;"/><path d="" transform="translate(0,0)" style="fill: #524521;"/><path d="" transform="translate(0,0)" style="fill: #524521;"/><path d="" transform="translate(0,0)" style="fill: #8E6926;"/><path d="" transform="translate(0,0)" style="fill: #8E6926;"/><path d="" transform="translate(0,0)" style="fill: #443313;"/><path d="" transform="translate(0,0)" style="fill: #443313;"/><path d="" transform="translate(0,0)" style="fill: #896626;"/><path d="" transform="translate(0,0)" style="fill: #443313;"/><path d="" transform="translate(0,0)" style="fill: #443313;"/><path d="" transform="translate(0,0)" style="fill: #896626;"/><path d="" transform="translate(0,0)" style="fill: #4F3E18;"/><path d="" transform="translate(0,0)" style="fill: #443313;"/><path d="" transform="translate(0,0)" style="fill: #443313;"/><path d="" transform="translate(0,0)" style="fill: #4F3E18;"/><path d="" transform="translate(0,0)" style="fill: #8E6926;"/><path d="" transform="translate(0,0)" style="fill: #8E6926;"/><path d="" transform="translate(0,0)" style="fill: #8E6926;"/><path d="" transform="translate(0,0)" style="fill: #8E6926;"/><path d="" transform="translate(0,0)" style="fill: #4F3E18;"/><path d="" transform="translate(0,0)" style="fill: #473413;"/><path d="" transform="translate(0,0)" style="fill: #473413;"/><path d="" transform="translate(0,0)" style="fill: #4F3E18;"/><path d="" transform="translate(0,0)" style="fill: #8E6926;"/><path d="" transform="translate(0,0)" style="fill: #8E6926;"/><path d="" transform="translate(0,0)" style="fill: #896626;"/><path d="" transform="translate(0,0)" style="fill: #463413;"/><path d="" transform="translate(0,0)" style="fill: #473413;"/><path d="" transform="translate(0,0)" style="fill: #896626;"/><path d="" transform="translate(0,0)" style="fill: #896626;"/><path d="" transform="translate(0,0)" style="fill: #896626;"/><path d="" transform="translate(0,0)" style="fill: #896626;"/><path d="" transform="translate(0,0)" style="fill: #896626;"/><path d="" transform="translate(0,0)" style="fill: #8E6926;"/><path d="" transform="translate(0,0)" style="fill: #8E6926;"/><path d="" transform="translate(0,0)" style="fill: #896626;"/><path d="" transform="translate(0,0)" style="fill: #896626;"/><path d="" transform="translate(0,0)" style="fill: #473413;"/><path d="" transform="translate(0,0)" style="fill: #916C28;"/><path d="" transform="translate(0,0)" style="fill: #916C28;"/><path d="" transform="translate(0,0)" style="fill: #473413;"/><path d="" transform="translate(0,0)" style="fill: #896626;"/><path d="" transform="translate(0,0)" style="fill: #443313;"/><path d="" transform="translate(0,0)" style="fill: #443313;"/><path d="" transform="translate(0,0)" style="fill: #896626;"/><path d="" transform="translate(0,0)" style="fill: #8E6926;"/><path d="" transform="translate(0,0)" style="fill: #443313;"/><path d="" transform="translate(0,0)" style="fill: #473413;"/><path d="" transform="translate(0,0)" style="fill: #473413;"/><path d="" transform="translate(0,0)" style="fill: #443313;"/><path d="" transform="translate(0,0)" style="fill: #8E6926;"/><path d="" transform="translate(0,0)" style="fill: #8E6926;"/><path d="" transform="translate(0,0)" style="fill: #362E16;"/><path d="" transform="translate(0,0)" style="fill: #8E6926;"/><path d="" transform="translate(0,0)" style="fill: #443313;"/><path d="" transform="translate(0,0)" style="fill: #896626;"/><path d="" transform="translate(0,0)" style="fill: #8E6926;"/><path d="" transform="translate(0,0)" style="fill: #8E6926;"/><path d="" transform="translate(0,0)" style="fill: #8E6926;"/><path d="" transform="translate(0,0)" style="fill: #8E6926;"/><path d="" transform="translate(0,0)" style="fill: #312713;"/><path d="" transform="translate(0,0)" style="fill: #8E6926;"/><path d="" transform="translate(0,0)" style="fill: #4F3E18;"/><path d="" transform="translate(0,0)" style="fill: #423213;"/><path d="" transform="translate(0,0)" style="fill: #C69639;"/><path d="" transform="translate(0,0)" style="fill: #423213;"/><path d="" transform="translate(0,0)" style="fill: #423213;"/><path d="" transform="translate(0,0)" style="fill: #C69639;"/><path d="" transform="translate(0,0)" style="fill: #423213;"/><path d="" transform="translate(0,0)" style="fill: #967028;"/><path d="" transform="translate(0,0)" style="fill: #8E6926;"/><path d="" transform="translate(0,0)" style="fill: #312713;"/><path d="" transform="translate(0,0)" style="fill: #473413;"/><path d="" transform="translate(0,0)" style="fill: #473413;"/><path d="" transform="translate(0,0)" style="fill: #8E6926;"/><path d="" transform="translate(0,0)" style="fill: #423213;"/><path d="" transform="translate(0,0)" style="fill: #423213;"/><path d="" transform="translate(0,0)" style="fill: #8E6926;"/></svg>