<?xml version="1.0" encoding="UTF-8"?>
<!-- Generator: visioncortex VTracer -->
<svg id="svg" version="1.1" xmlns="http://www.w3.org/2000/svg" style="display: block;" viewBox="0 0 256 256"><path d="M0,0 L4,0 L4,4 L9,6 L14,10 L16,14 L19,16 L17,16 L20,25 L19,28 L18,39 L31,46 L33,48 L34,53 L34,65 L33,68 L36,76 L40,81 L40,84 L44,84 L44,88 L41,88 L39,93 L31,99 L25,102 L23,102 L24,109 L22,114 L18,116 L-26,116 L-31,113 L-31,109 L-33,108 L-31,102 L-36,100 L-44,96 L-49,90 L-49,88 L-52,88 L-52,84 L-48,84 L-47,80 L-42,72 L-41,66 L-42,63 L-42,53 L-40,47 L-32,42 L-26,40 L-27,31 L-27,19 L-23,11 L-16,5 L-8,2 L-1,2 Z " transform="translate(132,68)" style="fill: #D99B37;"/><path d="M0,0 L4,0 L4,4 L9,6 L14,10 L16,14 L19,16 L17,16 L20,25 L19,28 L18,39 L31,46 L33,48 L34,53 L34,65 L33,68 L36,76 L40,81 L40,84 L44,84 L44,88 L41,88 L39,93 L31,99 L25,102 L23,102 L24,109 L22,114 L18,116 L-26,116 L-31,113 L-31,109 L-33,108 L-31,102 L-36,100 L-44,96 L-49,90 L-49,88 L-52,88 L-52,84 L-48,84 L-47,80 L-42,72 L-41,66 L-42,63 L-42,53 L-40,47 L-32,42 L-26,40 L-27,31 L-27,19 L-23,11 L-16,5 L-8,2 L-1,2 Z M-10,8 L-16,12 L-21,18 L-22,22 L-22,29 L-21,34 L-20,38 L-17,38 L-19,42 L-35,50 L-36,51 L-36,71 L-41,81 L-43,84 L-43,89 L-38,93 L-28,98 L-25,100 L-24,103 L-22,103 L-23,107 L-25,108 L-25,110 L17,110 L17,108 L15,107 L14,103 L16,103 L17,100 L28,94 L34,90 L35,89 L34,82 L29,74 L28,71 L28,51 L20,46 L10,41 L9,38 L13,37 L13,20 L8,12 L2,8 Z " transform="translate(132,68)" style="fill: #060401;"/><path d="M0,0 L31,0 L35,5 L35,13 L34,19 L2,19 L-10,16 L-14,13 L-15,7 L-11,3 Z " transform="translate(46,133)" style="fill: #050401;"/><path d="M0,0 L31,0 L42,3 L45,5 L45,13 L41,16 L29,19 L-3,19 L-4,13 L-4,5 Z " transform="translate(179,133)" style="fill: #060401;"/><path d="M0,0 L11,0 L24,5 L34,11 L38,16 L38,20 L40,20 L40,24 L32,24 L32,28 L28,28 L28,25 L16,23 L3,18 L0,15 L0,13 L-2,12 Z " transform="translate(176,156)" style="fill: #040300;"/><path d="M0,0 L11,0 L13,13 L11,13 L10,17 L-2,22 L-15,25 L-17,24 L-17,28 L-21,28 L-21,24 L-29,24 L-29,20 L-27,20 L-26,15 L-21,10 L-11,4 Z " transform="translate(69,156)" style="fill: #050301;"/><path d="M0,0 L10,0 L14,4 L13,10 L6,16 L4,16 L4,20 L-1,20 L-4,22 L-14,25 L-20,25 L-24,21 L-26,16 L-23,8 L-14,4 L-6,1 Z " transform="translate(200,104)" style="fill: #050300;"/><path d="M0,0 L10,0 L22,3 L32,7 L35,12 L36,17 L32,23 L30,25 L21,24 L14,22 L10,20 L6,20 L6,16 L2,14 L-3,10 L-4,4 Z " transform="translate(46,104)" style="fill: #050300;"/><path d="M0,0 L7,0 L12,1 L12,4 L16,5 L16,23 L-13,23 L-12,18 L-10,14 L-9,5 L-5,1 Z " transform="translate(110,134)" style="fill: #0B0702;"/><path d="M0,0 L7,0 L14,2 L16,5 L17,14 L21,21 L21,23 L-8,23 L-8,5 L-5,4 L-5,1 Z " transform="translate(139,134)" style="fill: #070501;"/><path d="M0,0 L29,0 L31,2 L31,9 L29,11 L2,11 L-9,8 L-11,7 L-10,3 Z " transform="translate(46,137)" style="fill: #DA9B38;"/><path d="M0,0 L29,0 L39,3 L40,7 L32,10 L27,11 L0,11 L-2,9 L-2,2 Z " transform="translate(181,137)" style="fill: #DA9C38;"/><path d="M0,0 L7,0 L13,3 L17,9 L17,17 L15,20 L12,19 L11,15 L-3,15 L-5,20 L-8,20 L-9,18 L-9,8 L-3,1 Z " transform="translate(124,80)" style="fill: #060401;"/><path d="M0,0 L4,2 L14,12 L8,19 L2,25 L-2,23 L-12,13 L-6,6 Z " transform="translate(127,107)" style="fill: #283021;"/><path d="M0,0 L9,1 L23,8 L29,13 L28,17 L20,17 L6,13 L-1,10 L-2,3 Z " transform="translate(181,160)" style="fill: #D49736;"/><path d="M0,0 L6,0 L8,3 L7,10 L-6,15 L-15,17 L-22,17 L-23,13 L-15,7 L-5,2 Z " transform="translate(69,160)" style="fill: #D59836;"/><path d="M0,0 L11,0 L11,4 L2,11 L-12,17 L-17,17 L-19,13 L-19,8 L-15,5 Z " transform="translate(198,108)" style="fill: #D59836;"/><path d="M0,0 L8,0 L20,3 L29,7 L30,8 L29,16 L28,17 L21,16 L9,11 L0,4 Z " transform="translate(47,108)" style="fill: #D69937;"/><path d="M0,0 L4,2 L10,9 L5,9 L5,5 L0,6 L-2,10 L-4,13 L1,18 L1,21 L-4,21 L-12,13 L-6,6 Z " transform="translate(127,107)" style="fill: #020400;"/><path d="M0,0 L16,0 L16,9 L15,7 L1,7 L0,9 Z " transform="translate(120,88)" style="fill: #6A4B1A;"/><path d="M0,0 Z " transform="translate(159,176)" style="fill: #000000;"/><path d="M0,0 Z " transform="translate(227,140)" style="fill: #000000;"/></svg>