<?xml version="1.0" encoding="UTF-8"?>
<!-- Generator: visioncortex VTracer -->
<svg id="svg" version="1.1" xmlns="http://www.w3.org/2000/svg" style="display: block;" viewBox="0 0 128 128"><path d="M0 0 C3.03436 2.49888471 4.20272577 4.40545155 6 8 C6.23046875 10.5078125 6.23046875 10.5078125 6.1875 13.125 C6.18105469 13.99382813 6.17460938 14.86265625 6.16796875 15.7578125 C6 18 6 18 5 20 C5.99 20 6.98 20 8 20 C8 20.66 8 21.32 8 22 C8.721875 21.690625 9.44375 21.38125 10.1875 21.0625 C13.36292622 19.86289454 14.80432496 20.02354374 18 21 C18.33 21.33 18.66 21.66 19 22 C19.14858761 25.78898397 19.12339718 28.64351927 17.875 32.25 C17.91625 33.1575 17.9575 34.065 18 35 C21.17764848 36.74555545 24.39799845 37.6554139 28 38 C29.32 37.34 30.64 36.68 32 36 C33.32 36 34.64 36 36 36 C36.495 37.98 36.495 37.98 37 40 C38.98 40.495 38.98 40.495 41 41 C41 41.99 41 42.98 41 44 C41.99 44 42.98 44 44 44 C44.8125 48 44.8125 48 44 52 C41.796875 52.21484375 41.796875 52.21484375 39.0625 51.9375 C36.36345469 51.63189999 36.36345469 51.63189999 34 52 C33.14386079 55.37104816 32.98467776 57.60867723 33 61 C32.58460951 64.16674159 31.90352639 66.90898868 31 70 C29.02 70.99 29.02 70.99 27 72 C25.9960768 75.12427824 25.48351577 78.21718153 24.90625 81.4453125 C24.6071875 82.28835937 24.308125 83.13140625 24 84 C22.68 84 21.36 84 20 84 C20 85.32 20 86.64 20 88 C18.68 88 17.36 88 16 88 C16 89.32 16 90.64 16 92 C15.24976563 91.84789063 14.49953125 91.69578125 13.7265625 91.5390625 C12.37691406 91.27222656 12.37691406 91.27222656 11 91 C6.59264856 94.07615142 3.82607279 98.73016755 2.125 103.75 C0.47350437 109.79545871 0.47350437 109.79545871 0.1875 116 C0 120 0 120 -1.5 122.4375 C-4.87689629 124.54806018 -8.09082941 124.5439301 -12 125 C-12 125.99 -12 126.98 -12 128 C-13.485 127.505 -13.485 127.505 -15 127 C-15.33 126.01 -15.66 125.02 -16 124 C-15.01 123.505 -15.01 123.505 -14 123 C-14.91052075 119.14061025 -14.91052075 119.14061025 -16 116 C-15.01 116 -14.02 116 -13 116 C-13.26656572 113.06556598 -13.26656572 113.06556598 -14 110 C-14 109.34 -14 108.68 -14 108 C-14.66 108 -15.32 108 -16 108 C-16 106.68 -16 105.36 -16 104 C-17.485 103.505 -17.485 103.505 -19 103 C-18.01 103 -17.02 103 -16 103 C-16.95197206 98.90486359 -16.95197206 98.90486359 -19 95 C-20.32 95 -21.64 95 -23 95 C-23.33 94.01 -23.66 93.02 -24 92 C-23.01 92 -22.02 92 -21 92 C-21.33 90.68 -21.66 89.36 -22 88 C-24.48400985 87.33652369 -24.48400985 87.33652369 -27 87 C-27.33 86.34 -27.66 85.68 -28 85 C-29.32 84.67 -30.64 84.34 -32 84 C-32 83.01 -32 82.02 -32 81 C-30.68 81.33 -29.36 81.66 -28 82 C-29.36740554 78.90054745 -31.14356501 76.85993658 -33.5625 74.5 C-36.07405327 71.92404793 -37.09753459 70.44577703 -38 67 C-38 64.66666667 -38 62.33333333 -38 60 C-38.66 60 -39.32 60 -40 60 C-40.68375731 57.21376428 -41.22402816 54.5117102 -41.6875 51.6875 C-41.90116211 50.50897461 -41.90116211 50.50897461 -42.11914062 49.30664062 C-43.13083521 43.39250562 -43.13083521 43.39250562 -42 40 C-41.34 40 -40.68 40 -40 40 C-40.495 38.515 -40.495 38.515 -41 37 C-40.505 36.505 -40.505 36.505 -40 36 C-37.32901772 36.29677581 -34.66202278 36.63141223 -32 37 C-29.44268165 37 -27.41933542 36.8736489 -25 36 C-25.27162072 33.27816806 -25.27162072 33.27816806 -27 31 C-28.32 31.33 -29.64 31.66 -31 32 C-32.43869404 28.16348255 -32.07360744 24.04840925 -32 20 C-32 18.68 -32 17.36 -32 16 C-30.33985384 15.63557767 -28.67293936 15.30027117 -27 15 C-27.33 14.01 -27.66 13.02 -28 12 C-26.68 12 -25.36 12 -24 12 C-23.67 12.99 -23.34 13.98 -23 15 C-21.68 15 -20.36 15 -19 15 C-19.33 14.01 -19.66 13.02 -20 12 C-20 10.68 -20 9.36 -20 8 C-17.66666667 8 -15.33333333 8 -13 8 C-12.67 6.68 -12.34 5.36 -12 4 C-12 4.99 -12 5.98 -12 7 C-9.88498953 5.37267398 -8.05292648 3.49590074 -6.140625 1.63671875 C-4 0 -4 0 0 0 Z M-16 12 C-16.44654279 14.05010733 -16.44654279 14.05010733 -16.3125 16.5 C-16.30863281 17.3353125 -16.30476563 18.170625 -16.30078125 19.03125 C-16.20152344 19.6809375 -16.10226563 20.330625 -16 21 C-15.34 21 -14.68 21 -14 21 C-13.41112399 18.95772303 -13.41112399 18.95772303 -13.1875 16.5 C-13.07792969 15.6646875 -12.96835937 14.829375 -12.85546875 13.96875 C-12.90316406 13.3190625 -12.95085938 12.669375 -13 12 C-13.99 12 -14.98 12 -16 12 Z M-28 20 C-28 21.32 -28 22.64 -28 24 C-27.34 24 -26.68 24 -26 24 C-25.67 22.68 -25.34 21.36 -25 20 C-25.99 20 -26.98 20 -28 20 Z M32 37 C32 37.99 32 38.98 32 40 C32.66 39.67 33.32 39.34 34 39 C33.34 38.34 32.68 37.68 32 37 Z M-40 50 C-39 52 -39 52 -39 52 Z M31 56 C32 60 32 60 32 60 Z " transform="translate(64,0)" style="fill: #2A1F18;"/><path d="M0 0 C1.32 0 2.64 0 4 0 C7.03436 2.49888471 8.20272577 4.40545155 10 8 C10.23046875 10.5078125 10.23046875 10.5078125 10.1875 13.125 C10.18105469 13.99382813 10.17460938 14.86265625 10.16796875 15.7578125 C10 18 10 18 9 20 C9.99 20 10.98 20 12 20 C12 20.66 12 21.32 12 22 C12.721875 21.690625 13.44375 21.38125 14.1875 21.0625 C17.36292622 19.86289454 18.80432496 20.02354374 22 21 C22.33 21.33 22.66 21.66 23 22 C23.14858761 25.78898397 23.12339718 28.64351927 21.875 32.25 C21.91625 33.1575 21.9575 34.065 22 35 C25.17764848 36.74555545 28.39799845 37.6554139 32 38 C33.32 37.34 34.64 36.68 36 36 C37.32 36 38.64 36 40 36 C40.495 37.98 40.495 37.98 41 40 C42.98 40.495 42.98 40.495 45 41 C45 41.99 45 42.98 45 44 C45.99 44 46.98 44 48 44 C48.8125 48 48.8125 48 48 52 C45.796875 52.21484375 45.796875 52.21484375 43.0625 51.9375 C40.36345469 51.63189999 40.36345469 51.63189999 38 52 C37.14386079 55.37104816 36.98467776 57.60867723 37 61 C36.58460951 64.16674159 35.90352639 66.90898868 35 70 C33.02 70.99 33.02 70.99 31 72 C29.9960768 75.12427824 29.48351577 78.21718153 28.90625 81.4453125 C28.6071875 82.28835937 28.308125 83.13140625 28 84 C26.68 84 25.36 84 24 84 C24 85.32 24 86.64 24 88 C22.68 88 21.36 88 20 88 C20 89.32 20 90.64 20 92 C19.24976563 91.84789063 18.49953125 91.69578125 17.7265625 91.5390625 C16.37691406 91.27222656 16.37691406 91.27222656 15 91 C10.59264856 94.07615142 7.82607279 98.73016755 6.125 103.75 C4.47350437 109.79545871 4.47350437 109.79545871 4.1875 116 C4 120 4 120 2.5 122.4375 C-0.87689629 124.54806018 -4.09082941 124.5439301 -8 125 C-8 125.99 -8 126.98 -8 128 C-8.99 127.67 -9.98 127.34 -11 127 C-11.33 126.01 -11.66 125.02 -12 124 C-11.01 123.505 -11.01 123.505 -10 123 C-10.91052075 119.14061025 -10.91052075 119.14061025 -12 116 C-11.01 116 -10.02 116 -9 116 C-9.26656572 113.06556598 -9.26656572 113.06556598 -10 110 C-10 109.34 -10 108.68 -10 108 C-10.66 108 -11.32 108 -12 108 C-12 106.68 -12 105.36 -12 104 C-12.99 103.67 -13.98 103.34 -15 103 C-14.01 103 -13.02 103 -12 103 C-12.95197206 98.90486359 -12.95197206 98.90486359 -15 95 C-16.32 95 -17.64 95 -19 95 C-19.33 94.01 -19.66 93.02 -20 92 C-19.01 92 -18.02 92 -17 92 C-17.33 90.68 -17.66 89.36 -18 88 C-19.32 87.67 -20.64 87.34 -22 87 C-21.34 87 -20.68 87 -20 87 C-20.33 86.01 -20.66 85.02 -21 84 C-20.67 82.68 -20.34 81.36 -20 80 C-19.01 80 -18.02 80 -17 80 C-11.55173342 87.29412739 -8.82133264 96.4573195 -6 105 C-5.67 105.99 -5.34 106.98 -5 108 C-5.020625 109.216875 -5.04125 110.43375 -5.0625 111.6875 C-5.041875 112.780625 -5.02125 113.87375 -5 115 C-4.34 115 -3.68 115 -3 115 C-2.44765356 111.8034237 -2.44765356 111.8034237 -2.25 108 C-2.15203125 106.700625 -2.0540625 105.40125 -1.953125 104.0625 C-1.96859375 103.051875 -1.9840625 102.04125 -2 101 C-2.66 101 -3.32 101 -4 101 C-5.05305831 98.46664258 -5.98978436 95.96709298 -6.875 93.375 C-9.38694105 86.02524656 -12.96577211 80.38845508 -17.5625 74.1875 C-21.70411203 68.2594845 -24.05583459 62.70170471 -24.375 55.4375 C-24.25125 54.303125 -24.1275 53.16875 -24 52 C-23.01 52 -22.02 52 -21 52 C-20.078125 54.45703125 -20.078125 54.45703125 -19.25 57.8125 C-17.08065923 65.45525441 -13.72649749 72.44731303 -7.90625 77.99609375 C-5.77074159 80.24100321 -5.01611542 82.09681309 -4 85 C-3.34 86.32 -2.68 87.64 -2 89 C0.86921929 87.47572725 1.95987074 85.06242329 3.6875 82.375 C7.51584926 76.78767946 11.81636652 70.72938115 17.84765625 67.453125 C18.55792969 67.30359375 19.26820312 67.1540625 20 67 C18.83756768 71.64972928 17.4112235 72.7600718 14 76 C5.47467038 85.71411338 5.47467038 85.71411338 -0.0625 97.25 C-0.041875 97.8275 -0.02125 98.405 0 99 C3.74852358 95.54758959 6.99228619 91.72270912 10.25 87.8125 C14.40023756 82.84168584 18.67420309 78.02083313 23.125 73.31640625 C27.93226359 67.37743269 29.17263092 60.66004389 30.83984375 53.36328125 C32.06760935 49.80400117 32.94176353 48.97598384 36 47 C33.32186171 45.91114536 33.32186171 45.91114536 30 45 C29.01 44.01 28.02 43.02 27 42 C23.59082614 41.2061671 20.4313146 41.3729828 17 42 C13.12777198 43.88706194 8.97732569 46.04534861 7 50 C3.5 49.6875 3.5 49.6875 0 49 C-0.495 48.505 -0.495 48.505 -1 48 C-1.28868056 44.54041557 -1.44901497 41.08048569 -1.62109375 37.61328125 C-1.8531152 33.95622091 -1.8531152 33.95622091 -3.28515625 30.54296875 C-3.52105469 29.70378906 -3.75695312 28.86460938 -4 28 C-2.68 28 -1.36 28 0 28 C0.69621948 25.68993053 0.69621948 25.68993053 1 23 C1.66 21.68 2.32 20.36 3 19 C3.38884509 16.25176819 3.38884509 16.25176819 3.375 13.375 C3.41753906 11.93253906 3.41753906 11.93253906 3.4609375 10.4609375 C3.30882813 9.64882812 3.15671875 8.83671875 3 8 C1.68 7.34 0.36 6.68 -1 6 C-0.75 3.4375 -0.75 3.4375 0 1 C0 0.67 0 0.34 0 0 Z M36 37 C36 37.99 36 38.98 36 40 C36.66 39.67 37.32 39.34 38 39 C37.34 38.34 36.68 37.68 36 37 Z M35 56 C36 60 36 60 36 60 Z " transform="translate(60,0)" style="fill: #0B0B0B;"/><path d="M0 0 C0.66 0 1.32 0 2 0 C1.79375 0.78375 1.5875 1.5675 1.375 2.375 C1.189375 3.674375 1.189375 3.674375 1 5 C2.32 5.66 3.64 6.32 5 7 C5.9766043 11.77536434 5.70190835 16.56566556 3.5625 20.9375 C2.7890625 21.9584375 2.7890625 21.9584375 2 23 C1.67 24.32 1.34 25.64 1 27 C-2.5625 26.625 -2.5625 26.625 -6 26 C-6 26.66 -6 27.32 -6 28 C-5.34 28 -4.68 28 -4 28 C-1.66236864 33.32937057 -0.24320365 39.19789468 -1 45 C-1.99 45 -2.98 45 -4 45 C-3.67 45.66 -3.34 46.32 -3 47 C-3.3479816 55.23556464 -3.3479816 55.23556464 -5.8125 58.125 C-8 59 -8 59 -12 58 C-10.6696875 57.4121875 -10.6696875 57.4121875 -9.3125 56.8125 C-8.219375 56.214375 -7.12625 55.61625 -6 55 C-4.74670216 52.14710302 -4.74670216 52.14710302 -5 49 C-6.29105212 45.91581994 -7.62028216 44.31462336 -10.1875 42.1875 C-13.99437041 40.58015471 -16.90774387 40.61026132 -21 41 C-22.34275169 41.98731742 -23.67732273 42.98594743 -25 44 C-28.24613262 43.73500958 -30.91360405 43.02879865 -34 42 C-33.278125 43.010625 -32.55625 44.02125 -31.8125 45.0625 C-28.50622024 50.03950623 -28.04449143 54.87523382 -27.45703125 60.73046875 C-27.02095667 63.85007918 -26.47736827 66.2229538 -25 69 C-24.01 69.33 -23.02 69.66 -22 70 C-21.67 70.99 -21.34 71.98 -21 73 C-20.01 73.99 -19.02 74.98 -18 76 C-17.67 76.99 -17.34 77.98 -17 79 C-17.66 79 -18.32 79 -19 79 C-18.979375 80.155 -18.95875 81.31 -18.9375 82.5 C-18.958125 83.655 -18.97875 84.81 -19 86 C-19.99 86 -20.98 86 -22 86 C-22.33 85.34 -22.66 84.68 -23 84 C-24.32 83.67 -25.64 83.34 -27 83 C-27 82.01 -27 81.02 -27 80 C-25.68 80.33 -24.36 80.66 -23 81 C-24.36740554 77.90054745 -26.14356501 75.85993658 -28.5625 73.5 C-31.07405327 70.92404793 -32.09753459 69.44577703 -33 66 C-33 63.66666667 -33 61.33333333 -33 59 C-33.66 59 -34.32 59 -35 59 C-35.68375731 56.21376428 -36.22402816 53.5117102 -36.6875 50.6875 C-36.90116211 49.50897461 -36.90116211 49.50897461 -37.11914062 48.30664062 C-38.13083521 42.39250562 -38.13083521 42.39250562 -37 39 C-36.34 39 -35.68 39 -35 39 C-35.495 37.515 -35.495 37.515 -36 36 C-35.505 35.505 -35.505 35.505 -35 35 C-32.32901772 35.29677581 -29.66202278 35.63141223 -27 36 C-24.44268165 36 -22.41933542 35.8736489 -20 35 C-20.27162072 32.27816806 -20.27162072 32.27816806 -22 30 C-23.32 30.33 -24.64 30.66 -26 31 C-27.43869404 27.16348255 -27.07360744 23.04840925 -27 19 C-27 17.68 -27 16.36 -27 15 C-25.33985384 14.63557767 -23.67293936 14.30027117 -22 14 C-22.33 13.01 -22.66 12.02 -23 11 C-21.68 11 -20.36 11 -19 11 C-18.67 11.99 -18.34 12.98 -18 14 C-16.68 14 -15.36 14 -14 14 C-14.33 13.01 -14.66 12.02 -15 11 C-15 9.68 -15 8.36 -15 7 C-12.66666667 7 -10.33333333 7 -8 7 C-7.67 5.68 -7.34 4.36 -7 3 C-7 3.99 -7 4.98 -7 6 C-5.21106949 4.50922458 -3.42999442 3.00573554 -1.7265625 1.41796875 C-1.15679687 0.95003906 -0.58703125 0.48210937 0 0 Z M-11 11 C-11.44654279 13.05010733 -11.44654279 13.05010733 -11.3125 15.5 C-11.30863281 16.3353125 -11.30476563 17.170625 -11.30078125 18.03125 C-11.20152344 18.6809375 -11.10226563 19.330625 -11 20 C-10.34 20 -9.68 20 -9 20 C-8.41112399 17.95772303 -8.41112399 17.95772303 -8.1875 15.5 C-8.07792969 14.6646875 -7.96835937 13.829375 -7.85546875 12.96875 C-7.90316406 12.3190625 -7.95085938 11.669375 -8 11 C-8.99 11 -9.98 11 -11 11 Z M-23 19 C-23 20.32 -23 21.64 -23 23 C-22.34 23 -21.68 23 -21 23 C-20.67 21.68 -20.34 20.36 -20 19 C-20.99 19 -21.98 19 -23 19 Z M-35 49 C-34 51 -34 51 -34 51 Z " transform="translate(59,1)" style="fill: #171615;"/><path d="M0 0 C0.99 0 1.98 0 3 0 C3.921875 2.45703125 3.921875 2.45703125 4.75 5.8125 C6.91934077 13.45525441 10.27350251 20.44731303 16.09375 25.99609375 C18.22925841 28.24100321 18.98388458 30.09681309 20 33 C20.66 34.32 21.32 35.64 22 37 C24.86921929 35.47572725 25.95987074 33.06242329 27.6875 30.375 C31.51584926 24.78767946 35.81636652 18.72938115 41.84765625 15.453125 C42.55792969 15.30359375 43.26820312 15.1540625 44 15 C42.83756768 19.64972928 41.4112235 20.7600718 38 24 C29.47467038 33.71411338 29.47467038 33.71411338 23.9375 45.25 C23.958125 45.8275 23.97875 46.405 24 47 C27.74852358 43.54758959 30.99228619 39.72270912 34.25 35.8125 C38.40023756 30.84168584 42.67420309 26.02083313 47.125 21.31640625 C50.89120933 16.66356847 52.42772244 11.92719127 53.625 6.125 C54.05122112 4.07638882 54.49959508 2.03176454 55 0 C55.33 0 55.66 0 56 0 C56.29542661 2.84087002 56.51765561 5.65114344 56.6875 8.5 C56.74744141 9.31082031 56.80738281 10.12164062 56.86914062 10.95703125 C56.9925054 12.96804608 57.00634911 14.98521485 57 17 C56.34 17 55.68 17 55 17 C54.505 18.485 54.505 18.485 54 20 C53.34 20 52.68 20 52 20 C51.67 21.32 51.34 22.64 51 24 C49.22265625 26.54296875 49.22265625 26.54296875 47.0625 29.1875 C46.35222656 30.06792969 45.64195313 30.94835937 44.91015625 31.85546875 C43 34 43 34 41 35 C40.401875 36.0725 39.80375 37.145 39.1875 38.25 C37 42 37 42 34.4375 44.375 C30.3349203 48.79316275 29.4344142 54.26234319 28 60 C28.061875 61.32 28.12375 62.64 28.1875 64 C28 68 28 68 26.5 70.4375 C23.12310371 72.54806018 19.90917059 72.5439301 16 73 C16 73.99 16 74.98 16 76 C15.01 75.67 14.02 75.34 13 75 C12.67 74.01 12.34 73.02 12 72 C12.99 71.505 12.99 71.505 14 71 C13.08947925 67.14061025 13.08947925 67.14061025 12 64 C12.99 64 13.98 64 15 64 C14.73343428 61.06556598 14.73343428 61.06556598 14 58 C14 57.34 14 56.68 14 56 C13.34 56 12.68 56 12 56 C12 54.68 12 53.36 12 52 C11.01 51.67 10.02 51.34 9 51 C9.99 51 10.98 51 12 51 C11.04802794 46.90486359 11.04802794 46.90486359 9 43 C7.68 43 6.36 43 5 43 C4.505 41.515 4.505 41.515 4 40 C4.99 40 5.98 40 7 40 C6.67 38.68 6.34 37.36 6 36 C4.68 35.67 3.36 35.34 2 35 C2.66 35 3.32 35 4 35 C3.505 33.515 3.505 33.515 3 32 C3.33 30.68 3.66 29.36 4 28 C4.99 28 5.98 28 7 28 C12.44826658 35.29412739 15.17866736 44.4573195 18 53 C18.33 53.99 18.66 54.98 19 56 C18.979375 57.216875 18.95875 58.43375 18.9375 59.6875 C18.958125 60.780625 18.97875 61.87375 19 63 C19.66 63 20.32 63 21 63 C21.55234644 59.8034237 21.55234644 59.8034237 21.75 56 C21.84796875 54.700625 21.9459375 53.40125 22.046875 52.0625 C22.03140625 51.051875 22.0159375 50.04125 22 49 C21.34 49 20.68 49 20 49 C18.94694169 46.46664258 18.01021564 43.96709298 17.125 41.375 C14.61305895 34.02524656 11.03422789 28.38845508 6.4375 22.1875 C2.29588797 16.2594845 -0.05583459 10.70170471 -0.375 3.4375 C-0.25125 2.303125 -0.1275 1.16875 0 0 Z " transform="translate(36,52)" style="fill: #0B0805;"/><path d="M0 0 C4.09067742 0.37760099 5.8659373 0.9090802 9.0625 3.375 C12.0625 6.375 12.0625 6.375 12.875 9.3125 C13.0625 12.375 13.0625 12.375 11.0625 16.375 C10.0725 17.035 9.0825 17.695 8.0625 18.375 C4.0625 17.375 4.0625 17.375 3.0625 16.375 C2.875 13.3125 2.875 13.3125 3.0625 10.375 C3.7225 10.375 4.3825 10.375 5.0625 10.375 C5.0625 9.385 5.0625 8.395 5.0625 7.375 C1.14633985 6.95813215 1.14633985 6.95813215 -2.9375 7.375 C-3.5975 8.035 -4.2575 8.695 -4.9375 9.375 C-5.59555564 17.16199172 -4.53322298 23.40350518 -0.9375 30.375 C1.24082502 33.43522153 3.54398265 36.36822102 5.87109375 39.31640625 C9.82331447 44.83260736 12.5590895 51.00057652 13.5625 57.7265625 C13.81 59.03753906 13.81 59.03753906 14.0625 60.375 C14.7225 60.375 15.3825 60.375 16.0625 60.375 C16.49107143 69.94642857 16.49107143 69.94642857 15.0625 74.375 C14.4025 74.375 13.7425 74.375 13.0625 74.375 C12.53624139 72.29125926 12.12063978 70.17946711 11.75 68.0625 C10.38264173 61.23945094 8.22067293 55.5431618 5.0625 49.375 C4.16666667 47.58333333 3.27083333 45.79166667 2.375 44 C1.97925781 43.22914062 1.58351563 42.45828125 1.17578125 41.6640625 C0.0625 39.375 0.0625 39.375 -0.89453125 36.6484375 C-1.23871094 35.89820313 -1.58289062 35.14796875 -1.9375 34.375 C-2.9275 34.045 -3.9175 33.715 -4.9375 33.375 C-5.4325 31.89 -5.4325 31.89 -5.9375 30.375 C-6.576875 29.818125 -7.21625 29.26125 -7.875 28.6875 C-11.19366307 24.96657474 -11.549409 20.58413336 -12.39453125 15.7734375 C-12.63236328 14.46246094 -12.63236328 14.46246094 -12.875 13.125 C-13.00777344 12.31546875 -13.14054687 11.5059375 -13.27734375 10.671875 C-14.0300438 8.05301328 -15.26993045 6.50149196 -16.9375 4.375 C-16.9375 3.715 -16.9375 3.055 -16.9375 2.375 C-14.68310003 2.67337647 -12.42883873 2.97289999 -10.17578125 3.28125 C-7.8251785 3.60602701 -7.8251785 3.60602701 -5.875 1.9375 C-3.9375 0.375 -3.9375 0.375 0 0 Z " transform="translate(41.9375,40.625)" style="fill: #D69B37;"/><path d="M0 0 C2.125 1.9375 2.125 1.9375 4 4 C6.66115377 4.37481039 9.3273469 4.71866809 12 5 C11.01 5.66 10.02 6.32 9 7 C4.91757333 10.29377606 4.12892845 13.32506113 3 18.375 C1.26689904 26.09658373 -1.84124489 30.9517181 -7.1875 36.6875 C-12.80045809 42.81914728 -18.12057461 49.19410502 -23.13671875 55.82421875 C-23.75160156 56.54222656 -24.36648437 57.26023438 -25 58 C-25.66 58 -26.32 58 -27 58 C-27.13175366 51.93933144 -24.51050226 48.24400305 -21.046875 43.578125 C-14.49666496 35.32786044 -14.49666496 35.32786044 -11 32 C-10.34 32 -9.68 32 -9 32 C-8.34 30.68 -7.68 29.36 -7 28 C-5.5 25.75 -5.5 25.75 -4 24 C-3.34 24 -2.68 24 -2 24 C-1.1537248 17.90681853 -0.8931388 12.06418634 -2 6 C-4.8808156 4.27755431 -6.52500312 4.56562539 -9.8125 4.9765625 C-10.8953125 5.48316406 -10.8953125 5.48316406 -12 6 C-12 7.32 -12 8.64 -12 10 C-10.68 10.33 -9.36 10.66 -8 11 C-8.0625 13.375 -8.0625 13.375 -9 16 C-9.99 16.99 -10.98 17.98 -12 19 C-16 19 -16 19 -18.25 17.5 C-20 15 -20 15 -20.75 11.125 C-20 7 -20 7 -18.2734375 5.18359375 C-12.19965997 0.60065252 -7.66239382 -0.9515391 0 0 Z " transform="translate(87,41)" style="fill: #CC9335;"/><path d="M0 0 C0.33 0 0.66 0 1 0 C1.33534438 1.65843039 1.61601299 3.3279435 1.875 5 C3.33124004 13.1074357 5.30654524 18.26943844 10.375 24.75 C15.43492542 31.2603275 19.27055357 38.11042938 20.5 46.3515625 C20.7475 47.66253906 20.7475 47.66253906 21 49 C21.66 49 22.32 49 23 49 C23.42857143 58.57142857 23.42857143 58.57142857 22 63 C21.34 63 20.68 63 20 63 C19.47374139 60.91625926 19.05813978 58.80446711 18.6875 56.6875 C17.32014173 49.86445094 15.15817293 44.1681618 12 38 C11.10416667 36.20833333 10.20833333 34.41666667 9.3125 32.625 C8.71888672 31.46871094 8.71888672 31.46871094 8.11328125 30.2890625 C7 28 7 28 6.04296875 25.2734375 C5.69878906 24.52320312 5.35460938 23.77296875 5 23 C4.01 22.67 3.02 22.34 2 22 C1.67 21.01 1.34 20.02 1 19 C0.360625 18.443125 -0.27875 17.88625 -0.9375 17.3125 C-4.51730639 13.29877768 -4.89571312 8.53823146 -5.25 3.3125 C-5.1675 2.549375 -5.085 1.78625 -5 1 C-1.99029126 5.51456311 -1.99029126 5.51456311 -2.0625 9.125 C-2.041875 10.07375 -2.02125 11.0225 -2 12 C-1.34 12 -0.68 12 0 12 C0.20710346 9.25143919 0.20710346 9.25143919 0.0625 6 C0.00927523 4.0005998 -0.02083333 2 0 0 Z " transform="translate(35,52)" style="fill: #C78E32;"/><path d="M0 0 C4.12092899 0.47917779 7.63521433 2.62485717 11 5 C11 5.66 11 6.32 11 7 C11.66 7 12.32 7 13 7 C15.33763136 12.32937057 16.75679635 18.19789468 16 24 C15.01 24 14.02 24 13 24 C13.33 24.66 13.66 25.32 14 26 C13.6520184 34.23556464 13.6520184 34.23556464 11.1875 37.125 C9 38 9 38 5 37 C6.3303125 36.4121875 6.3303125 36.4121875 7.6875 35.8125 C8.780625 35.214375 9.87375 34.61625 11 34 C12.25329784 31.14710302 12.25329784 31.14710302 12 28 C10.6941865 24.88055664 9.41406405 23.32204982 6.75 21.25 C3.51030851 19.77741296 0.517061 19.41377188 -3 19 C-3 18.67 -3 18.34 -3 18 C-0.6504427 18.00932364 1.68506095 18.13470999 4.03125 18.2578125 C4.6809375 18.17273438 5.330625 18.08765625 6 18 C6 17.01 6 16.02 6 15 C5.01 14.67 4.02 14.34 3 14 C0.74461252 10.57515234 -0.26778026 7.54888781 -0.5625 3.5 C-0.376875 2.345 -0.19125 1.19 0 0 Z " transform="translate(42,22)" style="fill: #5D7255;"/><path d="M0 0 C0.99 0 1.98 0 3 0 C9.40023301 8.56861796 14.39066922 21.32994096 15 32 C14.01 32 13.02 32 12 32 C11.78726526 34.19846899 11.78726526 34.19846899 12.0625 36.75 C12.041875 38.1525 12.02125 39.555 12 41 C9.8125 39.625 9.8125 39.625 8 37 C9.485 36.505 9.485 36.505 11 36 C10.74000384 33.02270522 10.74000384 33.02270522 10 30 C10 29.34 10 28.68 10 28 C9.34 28 8.68 28 8 28 C8 26.68 8 25.36 8 24 C7.01 23.67 6.02 23.34 5 23 C5.99 23 6.98 23 8 23 C7.04802794 18.90486359 7.04802794 18.90486359 5 15 C3.68 15 2.36 15 1 15 C0.67 14.01 0.34 13.02 0 12 C0.99 12 1.98 12 3 12 C2.67 10.68 2.34 9.36 2 8 C0.68 7.67 -0.64 7.34 -2 7 C-1.34 7 -0.68 7 0 7 C-0.33 6.01 -0.66 5.02 -1 4 C-0.67 2.68 -0.34 1.36 0 0 Z " transform="translate(40,80)" style="fill: #030200;"/><path d="M0 0 C0.55544331 5.44334443 -0.2546995 9.28151476 -3 14 C-5.44916264 16.36242146 -7.94725837 18.47362919 -11 20 C-11.99 19.67 -12.98 19.34 -14 19 C-14.8213678 15.6190209 -14.63439712 12.40408209 -14 9 C-10.67061788 4.64009484 -5.86509554 0 0 0 Z " transform="translate(76,25)" style="fill: #586C50;"/><path d="M0 0 C-0.20625 0.78375 -0.4125 1.5675 -0.625 2.375 C-0.74875 3.24125 -0.8725 4.1075 -1 5 C0.32 5.66 1.64 6.32 3 7 C3.98774891 11.82985883 3.53929006 16.62481035 1.75 21.1875 C1.1725 21.785625 0.595 22.38375 0 23 C-4 23 -4 23 -7 21 C-7.44444444 13.88888889 -7.44444444 13.88888889 -6 11 C-5.76825521 8.69971838 -5.61890517 6.40119953 -5.4765625 4.09375 C-5.31929687 3.4028125 -5.16203125 2.711875 -5 2 C-2 0 -2 0 0 0 Z " transform="translate(61,1)" style="fill: #586C51;"/><path d="M0 0 C0.33 0 0.66 0 1 0 C1.24 5.52 1.24 5.52 0 8 C-0.99 8 -1.98 8 -3 8 C-2.979375 9.19625 -2.95875 10.3925 -2.9375 11.625 C-2.958125 12.73875 -2.97875 13.8525 -3 15 C-4.32 14.34 -5.64 13.68 -7 13 C-7 13.99 -7 14.98 -7 16 C-9.0109375 15.8453125 -9.0109375 15.8453125 -11.0625 15.6875 C-12.361875 15.790625 -13.66125 15.89375 -15 16 C-15.06006204 19.86484925 -15.06006204 19.86484925 -14 24 C-14.33 25.32 -14.66 26.64 -15 28 C-16.32 27.67 -17.64 27.34 -19 27 C-19.390625 24.63671875 -19.390625 24.63671875 -19.25 21.6875 C-19.21390625 20.72199219 -19.1778125 19.75648437 -19.140625 18.76171875 C-19.09421875 17.85035156 -19.0478125 16.93898438 -19 16 C-19 14.68 -19 13.36 -19 12 C-17.33985384 11.63557767 -15.67293936 11.30027117 -14 11 C-14.33 10.01 -14.66 9.02 -15 8 C-13.68 8 -12.36 8 -11 8 C-10.67 8.99 -10.34 9.98 -10 11 C-8.68 11 -7.36 11 -6 11 C-6.33 10.01 -6.66 9.02 -7 8 C-7 6.68 -7 5.36 -7 4 C-4.66666667 4 -2.33333333 4 0 4 C0 2.68 0 1.36 0 0 Z " transform="translate(51,4)" style="fill: #66666B;"/><path d="M0 0 C2.66989747 0.30638168 5.33650353 0.64221689 8 1 C9.32 1 10.64 1 12 1 C12 1.99 12 2.98 12 4 C12.99 4.33 13.98 4.66 15 5 C13.0625 7.125 13.0625 7.125 10 9 C6.69818088 8.80189085 4.13041807 8.04347269 1 7 C2.32381794 9.33874502 3.65817527 11.67153943 5 14 C4.67 14.66 4.34 15.32 4 16 C1.53125 16.46484375 1.53125 16.46484375 -1 16 C-2.03125 13.62890625 -2.03125 13.62890625 -2.5 10.5625 C-2.76296875 9.04849609 -2.76296875 9.04849609 -3.03125 7.50390625 C-3.0209375 6.67761719 -3.010625 5.85132813 -3 5 C-2.01 4.67 -1.02 4.34 0 4 C-0.33 3.01 -0.66 2.02 -1 1 C-0.67 0.67 -0.34 0.34 0 0 Z " transform="translate(24,36)" style="fill: #141210;"/><path d="M0 0 C0.75152344 0.32226562 1.50304687 0.64453125 2.27734375 0.9765625 C3.64376078 7.0346632 2.6252338 14.29219712 0.27734375 19.9765625 C-0.71265625 20.6365625 -1.70265625 21.2965625 -2.72265625 21.9765625 C-4.40255376 16.93686996 -3.12156363 11.69459795 -2.5859375 6.46875 C-2.63105469 5.31632812 -2.67617187 4.16390625 -2.72265625 2.9765625 C-4.04265625 2.6465625 -5.36265625 2.3165625 -6.72265625 1.9765625 C-2.72265625 -0.0234375 -2.72265625 -0.0234375 0 0 Z " transform="translate(82.72265625,47.0234375)" style="fill: #241918;"/><path d="M0 0 C0.33 0 0.66 0 1 0 C0.87625 1.340625 0.7525 2.68125 0.625 4.0625 C0.74875 5.361875 0.8725 6.66125 1 8 C4.43078589 8.39349043 4.43078589 8.39349043 8 7 C8.99 6.01 9.98 5.02 11 4 C14.57421875 3.671875 14.57421875 3.671875 18.6875 3.75 C20.73517578 3.77320313 20.73517578 3.77320313 22.82421875 3.796875 C23.87222656 3.86390625 24.92023438 3.9309375 26 4 C26 4.33 26 4.66 26 5 C24.48450199 5.28053484 22.96190847 5.52281543 21.4375 5.75 C16.11874484 6.74726659 13.10267487 8.50836181 9 12 C8.67 12.66 8.34 13.32 8 14 C4.5 13.6875 4.5 13.6875 1 13 C0.67 12.67 0.34 12.34 0 12 C-0.09848109 9.98113771 -0.12972809 7.95875731 -0.125 5.9375 C-0.12757812 4.83277344 -0.13015625 3.72804687 -0.1328125 2.58984375 C-0.08898438 1.73519531 -0.04515625 0.88054688 0 0 Z " transform="translate(59,36)" style="fill: #140F0A;"/><path d="M0 0 C4.0625 0.25 4.0625 0.25 8 1 C8 1.99 8 2.98 8 4 C7.01 4.495 7.01 4.495 6 5 C5.60303963 8.68992712 5.49059137 12.36256782 5.34375 16.0703125 C5.2303125 17.03710938 5.116875 18.00390625 5 19 C4.34 18.67 3.68 18.34 3 18 C1.01841873 13.42712014 0 9.93309951 0 5 C-0.99 5 -1.98 5 -3 5 C-1 1 -1 1 0 0 Z " transform="translate(39,47)" style="fill: #281C17;"/><path d="M0 0 C0.33 0 0.66 0 1 0 C1.33662656 1.63722917 1.61675522 3.28609259 1.875 4.9375 C2.52517119 8.78393261 3.3637955 12.33110215 4.6875 16 C6 20 6 20 5 23 C4.01 22.67 3.02 22.34 2 22 C1.67 21.01 1.34 20.02 1 19 C0.360625 18.443125 -0.27875 17.88625 -0.9375 17.3125 C-4.51730639 13.29877768 -4.89571312 8.53823146 -5.25 3.3125 C-5.1675 2.549375 -5.085 1.78625 -5 1 C-1.99029126 5.51456311 -1.99029126 5.51456311 -2.0625 9.125 C-2.041875 10.07375 -2.02125 11.0225 -2 12 C-1.34 12 -0.68 12 0 12 C0.20710346 9.25143919 0.20710346 9.25143919 0.0625 6 C0.00927523 4.0005998 -0.02083333 2 0 0 Z " transform="translate(35,52)" style="fill: #BF8B32;"/><path d="M0 0 C4.78857856 2.80307038 8.96721755 6.2141226 13 10 C12.67 10.66 12.34 11.32 12 12 C11.34 12 10.68 12 10 12 C10.33 12.66 10.66 13.32 11 14 C10.6520184 22.23556464 10.6520184 22.23556464 8.1875 25.125 C6 26 6 26 2 25 C2.886875 24.608125 3.77375 24.21625 4.6875 23.8125 C6.3271875 22.9153125 6.3271875 22.9153125 8 22 C9.25329784 19.14710302 9.25329784 19.14710302 9 16 C7.6941865 12.88055664 6.41406405 11.32204982 3.75 9.25 C0.51030851 7.77741296 -2.482939 7.41377188 -6 7 C-6 6.67 -6 6.34 -6 6 C-3.6504427 6.00932364 -1.31493905 6.13470999 1.03125 6.2578125 C1.6809375 6.17273437 2.330625 6.08765625 3 6 C3 5.01 3 4.02 3 3 C2.01 2.67 1.02 2.34 0 2 C0 1.34 0 0.68 0 0 Z " transform="translate(45,34)" style="fill: #5C4D2B;"/><path d="M0 0 C0.33 0 0.66 0 1 0 C1.29542661 2.84087002 1.51765561 5.65114344 1.6875 8.5 C1.74744141 9.31082031 1.80738281 10.12164062 1.86914062 10.95703125 C1.9925054 12.96804608 2.00634911 14.98521485 2 17 C1.34 17 0.68 17 0 17 C-0.33 17.66 -0.66 18.32 -1 19 C-1 18.01 -1 17.02 -1 16 C-1.66 16 -2.32 16 -3 16 C-3.33 16.99 -3.66 17.98 -4 19 C-4.33 18.34 -4.66 17.68 -5 17 C-4.30410995 14.81291698 -3.59974425 12.62776119 -2.83203125 10.46484375 C-2.04588757 8.13593924 -1.43360662 5.82970086 -0.875 3.4375 C-0.441875 1.7359375 -0.441875 1.7359375 0 0 Z M-6 19 C-6 19.99 -6 20.98 -6 22 C-7.485 22.99 -7.485 22.99 -9 24 C-7 20 -7 20 -6 19 Z " transform="translate(91,52)" style="fill: #100C08;"/><path d="M0 0 C0.99 0 1.98 0 3 0 C4.640625 2.3359375 4.640625 2.3359375 6.25 5.375 C7.06210937 6.87160156 7.06210937 6.87160156 7.890625 8.3984375 C8.25671875 9.25695312 8.6228125 10.11546875 9 11 C8.67 11.66 8.34 12.32 8 13 C6.68 12.67 5.36 12.34 4 12 C4 11.34 4 10.68 4 10 C3.34 10 2.68 10 2 10 C2 9.34 2 8.68 2 8 C0.68 7.67 -0.64 7.34 -2 7 C-1.34 7 -0.68 7 0 7 C-0.33 6.01 -0.66 5.02 -1 4 C-0.67 2.68 -0.34 1.36 0 0 Z " transform="translate(40,80)" style="fill: #0B0803;"/><path d="M0 0 C2.875 -0.1875 2.875 -0.1875 6 0 C6.66 0.66 7.32 1.32 8 2 C7.67 3.32 7.34 4.64 7 6 C6.34 6 5.68 6 5 6 C5 7.32 5 8.64 5 10 C8 11.16666667 8 11.16666667 11 10 C11.39117602 7.28505216 11.24043191 4.82124771 11.015625 2.08984375 C11.01046875 1.40019531 11.0053125 0.71054687 11 0 C11.66 0.33 12.32 0.66 13 1 C13.75 3.8125 13.75 3.8125 14 7 C12 11 12 11 9 13 C5 12 5 12 4 11 C3.8125 7.9375 3.8125 7.9375 4 5 C4.66 5 5.32 5 6 5 C6 4.01 6 3.02 6 2 C3.01349195 1.3355782 3.01349195 1.3355782 0 1 C0 0.67 0 0.34 0 0 Z " transform="translate(41,46)" style="fill: #B78532;"/><path d="M0 0 C0.99 0 1.98 0 3 0 C4.16796875 2.73828125 4.16796875 2.73828125 5.1875 6.3125 C5.70376953 8.07013672 5.70376953 8.07013672 6.23046875 9.86328125 C7 13 7 13 7 16 C6.01 16 5.02 16 4 16 C4 14.68 4 13.36 4 12 C3.01 11.67 2.02 11.34 1 11 C-0.27058865 7.18823405 -0.26181096 3.99261712 0 0 Z " transform="translate(36,52)" style="fill: #050302;"/><path d="M0 0 C0.99 0.33 1.98 0.66 3 1 C2.67 1.99 2.34 2.98 2 4 C3.2684375 4.2165625 3.2684375 4.2165625 4.5625 4.4375 C5.366875 4.623125 6.17125 4.80875 7 5 C5 9 5 9 2 11 C1.67 10.01 1.34 9.02 1 8 C-0.32 7.34 -1.64 6.68 -3 6 C-2.36129 3.61935364 -1.77136391 1.77136391 0 0 Z " transform="translate(71,48)" style="fill: #E1A139;"/><path d="M0 0 C0.99 0 1.98 0 3 0 C5.01363208 5.63816984 5.48335236 10.17254429 4 16 C2.68 15.67 1.36 15.34 0 15 C-0.390625 12.63671875 -0.390625 12.63671875 -0.25 9.6875 C-0.21390625 8.72199219 -0.1778125 7.75648437 -0.140625 6.76171875 C-0.09421875 5.85035156 -0.0478125 4.93898438 0 4 C0 2.68 0 1.36 0 0 Z " transform="translate(32,16)" style="fill: #979797;"/><path d="M0 0 C4 1 4 1 7 4 C7 4.99 7 5.98 7 7 C4.375 7.43359375 4.375 7.43359375 1 7.4375 C-0.11375 7.45683594 -1.2275 7.47617187 -2.375 7.49609375 C-3.24125 7.33238281 -4.1075 7.16867188 -5 7 C-5 5.68 -5 4.36 -5 3 C-3.00041636 2.95919217 -0.99954746 2.95745644 1 3 C0.67 2.01 0.34 1.02 0 0 Z " transform="translate(41,33)" style="fill: #020102;"/><path d="M0 0 C1.32 0.33 2.64 0.66 4 1 C4.88844531 4.69800938 4.82303237 8.29039032 4 12 C1 12.9375 1 12.9375 -2 12 C-2 10.68 -2 9.36 -2 8 C-1.34 7.67 -0.68 7.34 0 7 C-0.04125 5.80375 -0.0825 4.6075 -0.125 3.375 C-0.08375 2.26125 -0.0425 1.1475 0 0 Z " transform="translate(48,44)" style="fill: #E5A138;"/><path d="M0 0 C2.4375 -0.0625 2.4375 -0.0625 5 1 C5.33 1.99 5.66 2.98 6 4 C5.34 4 4.68 4 4 4 C4.020625 5.155 4.04125 6.31 4.0625 7.5 C4.041875 8.655 4.02125 9.81 4 11 C3.01 11 2.02 11 1 11 C0.67 10.34 0.34 9.68 0 9 C-1.32 8.67 -2.64 8.34 -4 8 C-4 7.01 -4 6.02 -4 5 C-2.68 5.33 -1.36 5.66 0 6 C-0.020625 5.01 -0.04125 4.02 -0.0625 3 C-0.041875 2.01 -0.02125 1.02 0 0 Z " transform="translate(36,76)" style="fill: #515251;"/><path d="M0 0 C0.33 0 0.66 0 1 0 C1.32113549 2.4709592 1.5555287 4.95336066 1.75 7.4375 C1.86859375 8.81808594 1.9871875 10.19867188 2.109375 11.62109375 C2.07328125 12.73613281 2.0371875 13.85117187 2 15 C1.01 15.33 0.02 15.66 -1 16 C-1.08781796 13.2682342 -0.9899633 10.77227421 -0.75 8.0625 C-0.69714844 7.29486328 -0.64429687 6.52722656 -0.58984375 5.73632812 C-0.44358887 3.81970895 -0.22777242 1.90864855 0 0 Z M-3 16 C-2.01 16.495 -2.01 16.495 -1 17 C-1.99 17.495 -1.99 17.495 -3 18 C-3 17.34 -3 16.68 -3 16 Z M-4 18 C-4 18.99 -4 19.98 -4 21 C-6.125 22.9375 -6.125 22.9375 -8 24 C-6 20 -6 20 -4 18 Z M-10 24 C-9.34 24.33 -8.68 24.66 -8 25 C-10.75 28.125 -10.75 28.125 -14 31 C-14.66 30.67 -15.32 30.34 -16 30 C-13.25 26.875 -13.25 26.875 -10 24 Z " transform="translate(86,49)" style="fill: #B78531;"/><path d="M0 0 C4 2 4 2 5.2265625 4.16796875 C6.16964085 7.62115966 6.33784157 10.7341435 6.375 14.3125 C6.40335938 15.56675781 6.43171875 16.82101563 6.4609375 18.11328125 C6.30882812 19.06589844 6.15671875 20.01851562 6 21 C4.68 21 3.36 21 2 21 C1.34 19.68 0.68 18.36 0 17 C1.32 17.33 2.64 17.66 4 18 C4.30231634 15.72060136 4.30231634 15.72060136 3.8125 12.875 C3.63654297 11.41707031 3.63654297 11.41707031 3.45703125 9.9296875 C3.30621094 8.96289062 3.15539063 7.99609375 3 7 C2.85949219 6.05382813 2.71898437 5.10765625 2.57421875 4.1328125 C2.38472656 3.42898437 2.19523437 2.72515625 2 2 C1.34 2 0.68 2 0 2 C0 1.34 0 0.68 0 0 Z " transform="translate(53,27)" style="fill: #2C2F26;"/><path d="M0 0 C0.66 0.33 1.32 0.66 2 1 C2.25 3.5625 2.25 3.5625 2 6 C1.34 6 0.68 6 0 6 C0 7.32 0 8.64 0 10 C-1.32 10 -2.64 10 -4 10 C-5 6 -5 6 -4 2 C-2.68 2 -1.36 2 0 2 C0 1.34 0 0.68 0 0 Z " transform="translate(28,50)" style="fill: #48464A;"/><path d="M0 0 C0.77214844 0.30679688 1.54429688 0.61359375 2.33984375 0.9296875 C2.8984375 3.546875 2.8984375 3.546875 2.77734375 6.8046875 C2.75542969 7.87460937 2.73351562 8.94453125 2.7109375 10.046875 C2.33984375 12.9296875 2.33984375 12.9296875 0.33984375 15.9296875 C0.38177674 13.82336139 0.50612213 11.71885048 0.65234375 9.6171875 C0.83129336 6.02957298 0.83129336 6.02957298 0.33984375 2.9296875 C-3.20337178 2.0128853 -3.20337178 2.0128853 -6.66015625 2.9296875 C-6.33015625 2.2696875 -6.00015625 1.6096875 -5.66015625 0.9296875 C-2.66015625 -0.0703125 -2.66015625 -0.0703125 0 0 Z " transform="translate(82.66015625,47.0703125)" style="fill: #0D0F18;"/><path d="M0 0 C4.0625 0.25 4.0625 0.25 8 1 C8 1.99 8 2.98 8 4 C6.845 3.7525 5.69 3.505 4.5 3.25 C2.7675 3.12625 2.7675 3.12625 1 3 C0.49992206 6.45786015 0.49992206 6.45786015 1 10 C0.67 10 0.34 10 0 10 C0.04125 9.175 0.0825 8.35 0.125 7.5 C0.063125 6.2625 0.063125 6.2625 0 5 C-0.99 5 -1.98 5 -3 5 C-1 1 -1 1 0 0 Z " transform="translate(39,47)" style="fill: #161215;"/><path d="M0 0 C-0.20625 0.78375 -0.4125 1.5675 -0.625 2.375 C-0.74875 3.24125 -0.8725 4.1075 -1 5 C0.32 5.66 1.64 6.32 3 7 C2.67 7.99 2.34 8.98 2 10 C2 9.34 2 8.68 2 8 C-0.58411773 8.34001549 -2.66430116 8.83215058 -5 10 C-5.3125 6.1875 -5.3125 6.1875 -5 2 C-2 0 -2 0 0 0 Z " transform="translate(61,1)" style="fill: #3F403B;"/><path d="M0 0 C0.26555653 4.60297978 0.10459109 6.79081782 -2 11 C-3.32 10.67 -4.64 10.34 -6 10 C-5.4375 6.0625 -5.4375 6.0625 -4 2 C-1 0 -1 0 0 0 Z " transform="translate(56,5)" style="fill: #030308;"/><path d="M0 0 C0 1.32 0 2.64 0 4 C-1.32 4 -2.64 4 -4 4 C-4 5.32 -4 6.64 -4 8 C-5.32 8 -6.64 8 -8 8 C-8.625 5.6875 -8.625 5.6875 -8 3 C-3.24137931 0 -3.24137931 0 0 0 Z " transform="translate(84,84)" style="fill: #66370A;"/><path d="M0 0 C0.33 0.99 0.66 1.98 1 3 C1.99 3.33 2.98 3.66 4 4 C1.8125 7.0625 1.8125 7.0625 -1 10 C-1.66 10 -2.32 10 -3 10 C-2.69045734 5.8985598 -2.30341342 3.45512013 0 0 Z " transform="translate(63,89)" style="fill: #C48C32;"/><path d="M0 0 C0.5536325 5.42559849 -0.53912592 9.17668681 -3 14 C-3.33 14 -3.66 14 -4 14 C-4.1875 10.5 -4.1875 10.5 -4 7 C-3.34 7 -2.68 7 -2 7 C-1.67 5.68 -1.34 4.36 -1 3 C-2.32 2.67 -3.64 2.34 -5 2 C-2 0 -2 0 0 0 Z " transform="translate(76,25)" style="fill: #4D5F46;"/><path d="M0 0 C0.99 0 1.98 0 3 0 C3.36328125 2.625 3.36328125 2.625 3.3125 6 C3.30863281 7.11375 3.30476563 8.2275 3.30078125 9.375 C3.20152344 10.24125 3.10226563 11.1075 3 12 C2.34 12 1.68 12 1 12 C0.48046875 9.375 0.48046875 9.375 0.1875 6 C0.07792969 4.88625 -0.03164063 3.7725 -0.14453125 2.625 C-0.09683594 1.75875 -0.04914062 0.8925 0 0 Z " transform="translate(32,52)" style="fill: #E7A239;"/><path d="M0 0 C0.33 0 0.66 0 1 0 C1.68939809 2.32671854 2.35466922 4.66067594 3 7 C3.33 7.66 3.66 8.32 4 9 C3.01 9 2.02 9 1 9 C1 9.66 1 10.32 1 11 C0.01 11 -0.98 11 -2 11 C-2.33 9.68 -2.66 8.36 -3 7 C-2.34 7 -1.68 7 -1 7 C-0.62599214 4.67284 -0.29235267 2.33882138 0 0 Z " transform="translate(41,25)" style="fill: #191B1B;"/><path d="M0 0 C1.32 0 2.64 0 4 0 C4.6796875 2.9140625 4.6796875 2.9140625 4.875 6.625 C4.95492187 7.85476562 5.03484375 9.08453125 5.1171875 10.3515625 C5.07851563 11.22554687 5.03984375 12.09953125 5 13 C2.56076862 10.56076862 2.08691295 8.66933904 1.125 5.375 C0.81820312 4.37210937 0.51140625 3.36921875 0.1953125 2.3359375 C0.13085938 1.56507812 0.06640625 0.79421875 0 0 Z " transform="translate(52,88)" style="fill: #241A0B;"/><path d="M0 0 C2.0390625 0.13671875 2.0390625 0.13671875 4.625 0.6875 C5.48351562 0.85636719 6.34203125 1.02523437 7.2265625 1.19921875 C7.81179687 1.46347656 8.39703125 1.72773437 9 2 C8.01 3.485 8.01 3.485 7 5 C5.68 5.33 4.36 5.66 3 6 C1.25 4.1875 1.25 4.1875 0 2 C0 1.34 0 0.68 0 0 Z " transform="translate(25,43)" style="fill: #B98630;"/><path d="M0 0 C1.96794289 2.95191434 2.52003592 4.65492023 3.1875 8.0625 C3.36667969 8.94035156 3.54585937 9.81820312 3.73046875 10.72265625 C4 13 4 13 3 15 C0.72366702 11.58550053 0.57021113 9.66531104 0.25 5.625 C0.15203125 4.50351562 0.0540625 3.38203125 -0.046875 2.2265625 C-0.03140625 1.49179687 -0.0159375 0.75703125 0 0 Z " transform="translate(30,53)" style="fill: #99702D;"/><path d="M0 0 C1.32 0.33 2.64 0.66 4 1 C4 1.66 4 2.32 4 3 C2.68 3 1.36 3 0 3 C0 2.01 0 1.02 0 0 Z " transform="translate(32,33)" style="fill: #CCCCCC;"/></svg>