<?xml version="1.0" encoding="UTF-8"?>
<!-- Generator: visioncortex VTracer -->
<svg id="svg" version="1.1" xmlns="http://www.w3.org/2000/svg" style="display: block;" viewBox="0 0 128 128"><path d="M0 0 C2.3046875 0.56640625 2.3046875 0.56640625 4.109375 2.4140625 C5.3046875 4.56640625 5.3046875 4.56640625 5.3046875 7.56640625 C5.69269531 7.11910156 6.08070312 6.67179688 6.48046875 6.2109375 C8.3046875 4.56640625 8.3046875 4.56640625 10.78515625 4.640625 C11.67847656 4.84300781 12.57179687 5.04539062 13.4921875 5.25390625 C14.39324219 5.44339844 15.29429688 5.63289062 16.22265625 5.828125 C17.25326172 6.19357422 17.25326172 6.19357422 18.3046875 6.56640625 C18.3046875 7.22640625 18.3046875 7.88640625 18.3046875 8.56640625 C18.9646875 8.56640625 19.6246875 8.56640625 20.3046875 8.56640625 C20.0778125 9.28828125 19.8509375 10.01015625 19.6171875 10.75390625 C18.95519585 13.75341866 18.95519585 13.75341866 21.3671875 16.25390625 C24.13435045 18.77015807 24.13435045 18.77015807 27.5546875 19.31640625 C28.4621875 19.72890625 29.3696875 20.14140625 30.3046875 20.56640625 C30.91304038 22.91035412 31.0544441 25.05391177 31.1015625 27.47265625 C31.10229778 29.78769862 31.10229778 29.78769862 33.3046875 31.56640625 C33.5934375 32.51515625 33.8821875 33.46390625 34.1796875 34.44140625 C35.05797591 37.64439455 35.05797591 37.64439455 37.4296875 39.50390625 C40.08043058 42.41972364 39.3046875 44.75238509 39.3046875 48.56640625 C41.08610497 49.42999248 41.08610497 49.42999248 43.3046875 49.56640625 C45.93943638 51.32290551 48.07452181 53.33624056 50.3046875 55.56640625 C50.9646875 55.89640625 51.6246875 56.22640625 52.3046875 56.56640625 C52.75789304 59.02752245 53.04811702 61.33323934 53.2421875 63.81640625 C53.36303711 64.81994141 53.36303711 64.81994141 53.48632812 65.84375 C53.80282296 69.8214258 53.46471373 71.35953647 50.99609375 74.55078125 C48.3046875 76.56640625 48.3046875 76.56640625 45.3046875 76.56640625 C45.16353516 77.54867187 45.16353516 77.54867187 45.01953125 78.55078125 C44.66568359 79.54851562 44.66568359 79.54851562 44.3046875 80.56640625 C41.43359375 80.95703125 41.43359375 80.95703125 37.8671875 80.81640625 C36.69285156 80.7803125 35.51851563 80.74421875 34.30859375 80.70703125 C33.31730469 80.660625 32.32601562 80.61421875 31.3046875 80.56640625 C30.6446875 80.56640625 29.9846875 80.56640625 29.3046875 80.56640625 C27.9846875 80.56640625 26.6646875 80.56640625 25.3046875 80.56640625 C25.3046875 81.88640625 25.3046875 83.20640625 25.3046875 84.56640625 C23.9846875 84.56640625 22.6646875 84.56640625 21.3046875 84.56640625 C21.33882639 86.68301774 21.38646043 88.80022277 21.5 90.9140625 C21.20279378 94.95012294 19.33926295 97.87407195 17.30078125 101.3046875 C16.12996676 103.9631251 16.54507807 104.86889561 17.3046875 107.56640625 C16.4796875 107.85515625 15.6546875 108.14390625 14.8046875 108.44140625 C13.5671875 108.99828125 13.5671875 108.99828125 12.3046875 109.56640625 C12.59143168 111.57361548 12.92335451 113.57500065 13.3046875 115.56640625 C12.6653125 115.69015625 12.0259375 115.81390625 11.3671875 115.94140625 C10.34625 116.25078125 10.34625 116.25078125 9.3046875 116.56640625 C9.2480793 118.42874515 9.2480793 118.42874515 9.4921875 120.56640625 C9.625 122.765625 9.625 122.765625 9.3046875 124.56640625 C5.8671875 125.37890625 5.8671875 125.37890625 2.3046875 125.56640625 C1.8096875 127.05140625 1.8096875 127.05140625 1.3046875 128.56640625 C-1.55656713 129.22532588 -3.72349328 128.90193423 -6.6953125 128.56640625 C-6.4453125 126.62890625 -6.4453125 126.62890625 -5.6953125 124.56640625 C-6.27667969 124.46457031 -6.85804687 124.36273438 -7.45703125 124.2578125 C-9.6953125 123.56640625 -9.6953125 123.56640625 -11.29296875 121.30859375 C-11.77636719 120.36242187 -12.25976562 119.41625 -12.7578125 118.44140625 C-13.26828125 117.44753906 -13.77875 116.45367187 -14.3046875 115.4296875 C-18.35814334 107.08366747 -18.35814334 107.08366747 -19.1953125 103.31640625 C-19.57987546 101.41538604 -19.57987546 101.41538604 -21.3203125 100.00390625 C-21.7740625 99.52953125 -22.2278125 99.05515625 -22.6953125 98.56640625 C-22.2003125 97.08140625 -22.2003125 97.08140625 -21.6953125 95.56640625 C-22.60031792 91.75569146 -22.60031792 91.75569146 -24.6953125 88.56640625 C-24.52916622 87.1856734 -24.31362741 85.81064897 -24.0703125 84.44140625 C-23.9465625 83.16265625 -23.8228125 81.88390625 -23.6953125 80.56640625 C-25.1803125 81.06140625 -25.1803125 81.06140625 -26.6953125 81.56640625 C-27.1903125 80.57640625 -27.1903125 80.57640625 -27.6953125 79.56640625 C-29.74421122 79.71784659 -31.78633457 79.96433081 -33.8203125 80.25390625 C-41.26846435 80.9317534 -41.26846435 80.9317534 -44.8203125 78.56640625 C-48.93252656 74.81222078 -50.55023328 71.16721663 -50.85546875 65.6953125 C-50.65741911 59.3498021 -49.66440114 55.31770581 -45.265625 50.67578125 C-43.6953125 49.56640625 -43.6953125 49.56640625 -40.6953125 49.56640625 C-39.2103125 49.07140625 -39.2103125 49.07140625 -37.6953125 48.56640625 C-37.7571875 47.30828125 -37.8190625 46.05015625 -37.8828125 44.75390625 C-37.98046875 42.578125 -37.98046875 42.578125 -37.6953125 40.56640625 C-33.0953125 36.56640625 -33.0953125 36.56640625 -29.6953125 36.56640625 C-29.9221875 35.84453125 -30.1490625 35.12265625 -30.3828125 34.37890625 C-30.4859375 33.45078125 -30.5890625 32.52265625 -30.6953125 31.56640625 C-28.5703125 29.12890625 -28.5703125 29.12890625 -25.6953125 26.56640625 C-22.42415431 23.15970283 -20.21632931 20.38581175 -19.6953125 15.56640625 C-18.6953125 12.56640625 -18.6953125 12.56640625 -15.6953125 10.56640625 C-15.2415625 9.80328125 -14.7878125 9.04015625 -14.3203125 8.25390625 C-10.36616255 1.71435057 -7.47714649 0.01136344 0 0 Z M-10.6953125 4.56640625 C-9.6953125 6.56640625 -9.6953125 6.56640625 -9.6953125 6.56640625 Z M5.3046875 120.56640625 C6.3046875 122.56640625 6.3046875 122.56640625 6.3046875 122.56640625 Z M-2.6953125 124.56640625 C-1.6953125 126.56640625 -1.6953125 126.56640625 -1.6953125 126.56640625 Z " transform="translate(62.6953125,-0.56640625)" style="fill: #040402;"/><path d="M0 0 C1 3 1 3 1.4375 6.125 C1.623125 7.07375 1.80875 8.0225 2 9 C2.66 9.33 3.32 9.66 4 10 C5.3125 12.75 5.3125 12.75 6 16 C4.63546907 19.03229096 2.74634058 21.33821257 0.75 24 C-1.27085281 26.81930678 -1.27085281 26.81930678 -0.8125 29.75 C-0.05172659 31.99391452 -0.05172659 31.99391452 1 34 C1.144375 33.01 1.28875 32.02 1.4375 31 C1.623125 30.01 1.80875 29.02 2 28 C2.66 28.66 3.32 29.32 4 30 C4.94042079 27.40030274 5.49480571 24.75374919 6.12109375 22.0625 C6.55615234 21.0415625 6.55615234 21.0415625 7 20 C7.99 20.66 8.98 21.32 10 22 C11.41744763 20.4243434 11.41744763 20.4243434 12 18 C11.68255031 15.46040247 11.12451855 13.31608554 10.1875 10.9375 C10 9 10 9 11.8125 6.5 C12.534375 6.005 13.25625 5.51 14 5 C15.97712172 7.50260258 15.99614727 9.07659603 15.8359375 12.26171875 C15.68382812 13.39222656 15.53171875 14.52273437 15.375 15.6875 C15.00320429 18.73214051 15.00320429 18.73214051 15 21 C16.8721705 18.39713126 16.8721705 18.39713126 17.9921875 15.953125 C18.32476562 15.30859375 18.65734375 14.6640625 19 14 C19.33 14 19.66 14 20 14 C20.3125 17.3125 20.3125 17.3125 20 21 C18.01499363 23.05589945 16.22066262 23.90128251 13.625 25.0625 C13.08875 25.371875 12.5525 25.68125 12 26 C12.66 26.66 13.32 27.32 14 28 C12.3603279 29.36639342 10.68889872 30.6949419 9 32 C6.24518973 35.67308035 6.78679287 39.59371938 7 44 C7.33 44.66 7.66 45.32 8 46 C8.66 46 9.32 46 10 46 C10.3277525 43.0502275 10.23594548 41.41290459 8.75 38.8125 C8.5025 38.214375 8.255 37.61625 8 37 C9.8125 35.6875 9.8125 35.6875 12 35 C12.33 35.33 12.66 35.66 13 36 C12.98710938 37.13824219 12.97421875 38.27648438 12.9609375 39.44921875 C12.97382812 40.29097656 12.98671875 41.13273437 13 42 C13.40388544 40.64342009 13.78321857 39.27878287 14.1171875 37.90332031 C16.00076993 30.1480319 18.11993853 23.98032325 25.1875 19.6640625 C25.785625 19.44492187 26.38375 19.22578125 27 19 C27 22.61554913 26.35158063 24.5690302 24.0625 27.375 C22 29 22 29 20 29 C20 29.99 20 30.98 20 32 C22.79530107 31.10531021 25.35046894 29.83209785 28.0078125 28.58984375 C28.66523437 28.39519531 29.32265625 28.20054688 30 28 C29.06324924 31.30790112 27.88004842 32.06957192 24.875 33.8125 C23.92625 34.534375 22.9775 35.25625 22 36 C22.0825 37.155 22.165 38.31 22.25 39.5 C22.1675 40.655 22.085 41.81 22 43 C19.45796234 44.42426224 16.98002294 45.25588213 14.1875 46.078125 C13.465625 46.38234375 12.74375 46.6865625 12 47 C12 47.99 12 48.98 12 50 C11.34 50 10.68 50 10 50 C9.23769206 51.8817921 9.23769206 51.8817921 9 54 C9.33 54.66 9.66 55.32 10 56 C9 59.625 9 59.625 7 63 C3.5 64 3.5 64 0 63 C-1.21089288 60.8212931 -1.80571085 58.77788563 -2.39453125 56.359375 C-3.29346823 52.85642058 -4.43903568 50.56096432 -7 48 C-6.01 47.505 -6.01 47.505 -5 47 C-6.65071396 45.97388051 -8.31970006 44.97691857 -10 44 C-10.33 43.34 -10.66 42.68 -11 42 C-9.824375 42.20625 -8.64875 42.4125 -7.4375 42.625 C-6.2309375 42.810625 -6.2309375 42.810625 -5 43 C-7.44827195 42.00760469 -9.92087127 41.09839583 -12.40625 40.203125 C-15 39 -15 39 -17 36 C-15.453125 36.5259375 -15.453125 36.5259375 -13.875 37.0625 C-12.92625 37.371875 -11.9775 37.68125 -11 38 C-12.2830709 36.61823134 -13.63113049 35.29682374 -15 34 C-15 33.34 -15 32.68 -15 32 C-15.639375 31.896875 -16.27875 31.79375 -16.9375 31.6875 C-17.618125 31.460625 -18.29875 31.23375 -19 31 C-19.9375 28.625 -19.9375 28.625 -20 26 C-18.6875 24.1875 -18.6875 24.1875 -17 23 C-16.34 23 -15.68 23 -15 23 C-14.15687277 25.77027519 -13.58365712 28.56776739 -12.9765625 31.3984375 C-12.22765574 34.1211925 -12.22765574 34.1211925 -9.9609375 35.4765625 C-9.31382813 35.64929687 -8.66671875 35.82203125 -8 36 C-7.67 35.34 -7.34 34.68 -7 34 C-7.66 33.773125 -8.32 33.54625 -9 33.3125 C-9.66 32.879375 -10.32 32.44625 -11 32 C-10.6875 28.625 -10.6875 28.625 -10 25 C-10.2475 24.0925 -10.495 23.185 -10.75 22.25 C-10.8325 21.8375 -10.915 21.425 -11 21 C-10.195625 21.845625 -9.39125 22.69125 -8.5625 23.5625 C-7.2940625 24.7690625 -7.2940625 24.7690625 -6 26 C-5.14243487 23.94411601 -5.14243487 23.94411601 -6 21 C-7.2375 19.7625 -7.2375 19.7625 -8.5 18.5 C-11 16 -11 16 -11.5 13.125 C-11.335 12.42375 -11.17 11.7225 -11 11 C-10.01 11.33 -9.02 11.66 -8 12 C-8 12.66 -8 13.32 -8 14 C-6.06599083 15.06754834 -6.06599083 15.06754834 -4 15 C-3.58958192 12.20915708 -3.94320566 10.1747518 -4.8125 7.5 C-5 5 -5 5 -2.625 2 C-1.75875 1.34 -0.8925 0.68 0 0 Z " transform="translate(60,7)" style="fill: #D29837;"/><path d="M0 0 C1 3 1 3 1.4375 6.125 C1.623125 7.07375 1.80875 8.0225 2 9 C2.66 9.33 3.32 9.66 4 10 C5.3125 12.75 5.3125 12.75 6 16 C4.63546907 19.03229096 2.74634058 21.33821257 0.75 24 C-1.27085281 26.81930678 -1.27085281 26.81930678 -0.8125 29.75 C-0.05172659 31.99391452 -0.05172659 31.99391452 1 34 C1.144375 33.01 1.28875 32.02 1.4375 31 C1.623125 30.01 1.80875 29.02 2 28 C2.66 28.66 3.32 29.32 4 30 C4.94042079 27.40030274 5.49480571 24.75374919 6.12109375 22.0625 C6.55615234 21.0415625 6.55615234 21.0415625 7 20 C7.99 20.66 8.98 21.32 10 22 C11.41744763 20.4243434 11.41744763 20.4243434 12 18 C11.68255031 15.46040247 11.12451855 13.31608554 10.1875 10.9375 C10 9 10 9 11.8125 6.5 C12.534375 6.005 13.25625 5.51 14 5 C15.97712172 7.50260258 15.99614727 9.07659603 15.8359375 12.26171875 C15.68382813 13.39222656 15.53171875 14.52273437 15.375 15.6875 C15.00320429 18.73214051 15.00320429 18.73214051 15 21 C16.8721705 18.39713126 16.8721705 18.39713126 17.9921875 15.953125 C18.32476562 15.30859375 18.65734375 14.6640625 19 14 C19.33 14 19.66 14 20 14 C20.3125 17.3125 20.3125 17.3125 20 21 C18.01499363 23.05589945 16.22066262 23.90128251 13.625 25.0625 C12.820625 25.5265625 12.820625 25.5265625 12 26 C12.66 26.66 13.32 27.32 14 28 C12.3603279 29.36639342 10.68889872 30.6949419 9 32 C6.58011809 35.77855315 6.93613069 38.83904949 7.22265625 43.171875 C7.14917969 43.77515625 7.07570313 44.3784375 7 45 C6.01 45 5.02 45 4 45 C3.91796875 43.25 3.91796875 43.25 4.1875 41 C4.34805537 38.82295861 4.34805537 38.82295861 4 37 C3.0925 37.020625 2.185 37.04125 1.25 37.0625 C0.1775 37.041875 -0.895 37.02125 -2 37 C-4.92327451 33.08458383 -6.01803919 29.08235158 -5.9375 24.25 C-5.63798415 20.78825892 -5.63798415 20.78825892 -8.5 18.375 C-9.325 17.59125 -10.15 16.8075 -11 16 C-11.5 13.125 -11.5 13.125 -11 11 C-10.01 11.33 -9.02 11.66 -8 12 C-8 12.66 -8 13.32 -8 14 C-6.06599083 15.06754834 -6.06599083 15.06754834 -4 15 C-3.58958192 12.20915708 -3.94320566 10.1747518 -4.8125 7.5 C-5 5 -5 5 -2.625 2 C-1.75875 1.34 -0.8925 0.68 0 0 Z " transform="translate(60,7)" style="fill: #C79335;"/><path d="M0 0 C1.875 1.6875 1.875 1.6875 3.26171875 3.2578125 C5.23178979 5.23231067 7.35091915 6.54504361 9.6875 8.0625 C12.79600775 10.35785506 13.85391828 11.50068789 14.953125 15.2578125 C15.26978828 17.49999283 15.51641415 19.75346738 15.68359375 22.01171875 C15.84021484 22.99591797 15.84021484 22.99591797 16 24 C17.94965783 21.29990783 18 19.62291046 18 16.25 C18.30017991 13.10105389 18.88763266 12.11482346 21.14453125 9.80859375 C23.70584367 7.77229413 26.31069815 5.86309544 29 4 C30.15822266 3.0409375 30.15822266 3.0409375 31.33984375 2.0625 C31.88769531 1.711875 32.43554688 1.36125 33 1 C32.15586851 12.18474227 24.30685668 26.62271209 17 35 C16.34 35 15.68 35 15 35 C7.6474942 25.32913651 1.12291752 12.21419056 0 0 Z " transform="translate(45,85)" style="fill: #D59A37;"/><path d="M0 0 C3.85544798 1.99657127 5.59805092 3.39707638 8 7 C8.28875 6.278125 8.5775 5.55625 8.875 4.8125 C10 2 10 2 12.1875 0.375 C13.0846875 0.189375 13.0846875 0.189375 14 0 C13.64705882 4.35294118 13.64705882 4.35294118 12 6 C12.12381208 11.9429796 14.24823924 15.33229882 17.72265625 20.08203125 C19 22 19 22 19 24 C15.90671547 23.5388452 13.10584291 22.29909865 10.25 21.0625 C9.45078125 20.72347656 8.6515625 20.38445312 7.828125 20.03515625 C7.22484375 19.69355469 6.6215625 19.35195312 6 19 C6 18.34 6 17.68 6 17 C7.30710937 17.06960937 7.30710937 17.06960937 8.640625 17.140625 C9.41921875 17.09421875 10.1978125 17.0478125 11 17 C9.53217582 12.35850192 5.65048011 8.01002753 1.5625 5.4375 C-2.36545955 3.85253386 -4.83117306 3.08285807 -9 4 C-10.33660145 7.35592863 -10.33660145 7.35592863 -10 11 C-7.18490007 13.2773501 -7.18490007 13.2773501 -4 13 C-3.67 12.01 -3.34 11.02 -3 10 C-3.825 10 -4.65 10 -5.5 10 C-6.325 10 -7.15 10 -8 10 C-7.67 9.01 -7.34 8.02 -7 7 C-4.625 6.5625 -4.625 6.5625 -2 7 C-0.125 8.6875 -0.125 8.6875 1 11 C0.875 13.625 0.875 13.625 0 16 C-3.7373856 18.4915904 -5.57331583 18.45793285 -10 18 C-12.75329021 16.20437595 -14.52627461 14.94745078 -16 12 C-16.43023798 8.12785818 -16.31669086 6.47503629 -14.125 3.1875 C-10.0626017 -0.9943806 -5.56438057 -0.63154013 0 0 Z " transform="translate(35,56)" style="fill: #556B4E;"/><path d="M0 0 C1.8125 0.375 1.8125 0.375 4 2 C4.33 2.969375 4.66 3.93875 5 4.9375 C5.33 5.618125 5.66 6.29875 6 7 C8.00917635 4.86678805 8.00917635 4.86678805 10 2 C14.36335856 -0.77498392 18.99336301 -0.68051377 24 0 C26.93423195 1.79646854 28.47205355 2.9441071 30 6 C30.43023798 9.87214182 30.31669086 11.52496371 28.125 14.8125 C25.37054543 17.64796794 24.61171948 17.95468745 20.625 18.25 C17 18 17 18 14.5 16.875 C13 15 13 15 13.125 11.9375 C14 9 14 9 16 7 C18.625 6.6875 18.625 6.6875 21 7 C21 7.99 21 8.98 21 10 C19.68 10 18.36 10 17 10 C17.33 10.99 17.66 11.98 18 13 C21.3095706 12.74343368 21.3095706 12.74343368 24 11 C24.24838381 7.40528996 24.24838381 7.40528996 23 4 C18.84261327 3.05182408 16.60918642 3.17076159 12.83203125 5.1171875 C8.21382472 8.32307195 5.00976087 11.71115561 3 17 C5.33071879 17.41870553 5.33071879 17.41870553 8 17 C8 17.66 8 18.32 8 19 C5.91796875 20.25390625 5.91796875 20.25390625 3.1875 21.5625 C2.29417969 21.99691406 1.40085937 22.43132812 0.48046875 22.87890625 C-2 24 -2 24 -5 25 C-5.12621852 21.08722587 -3.25189845 18.96730514 -0.875 16.125 C1.56397601 13.03407814 2.00729295 12.43028433 1.9375 8.3125 C1.628125 7.219375 1.31875 6.12625 1 5 C0.1875 1.9375 0.1875 1.9375 0 0 Z " transform="translate(78,56)" style="fill: #556C4E;"/><path d="M0 0 C1 3 1 3 1.4375 6.125 C1.623125 7.07375 1.80875 8.0225 2 9 C2.66 9.33 3.32 9.66 4 10 C4 10.99 4 11.98 4 13 C3.360625 13.5775 2.72125 14.155 2.0625 14.75 C-0.64654821 17.70532532 -0.55816133 20.09709177 -1 24 C-1.66 24.33 -2.32 24.66 -3 25 C-2.979375 24.175 -2.95875 23.35 -2.9375 22.5 C-2.958125 21.675 -2.97875 20.85 -3 20 C-3.99 20.33 -4.98 20.66 -6 21 C-9.10129136 18.54781613 -10.81144283 17.08420373 -11.5 13.125 C-11.335 12.42375 -11.17 11.7225 -11 11 C-10.01 11.33 -9.02 11.66 -8 12 C-8 12.66 -8 13.32 -8 14 C-6.06599083 15.06754834 -6.06599083 15.06754834 -4 15 C-3.58958192 12.20915708 -3.94320566 10.1747518 -4.8125 7.5 C-5 5 -5 5 -2.625 2 C-1.75875 1.34 -0.8925 0.68 0 0 Z " transform="translate(60,7)" style="fill: #9B762F;"/><path d="M0 0 C0.859375 1.68359375 0.859375 1.68359375 1 4 C-1.3125 7.25 -1.3125 7.25 -4 10 C-4.66 10 -5.32 10 -6 10 C-6 10.99 -6 11.98 -6 13 C-3.20469893 12.10531021 -0.64953106 10.83209785 2.0078125 9.58984375 C2.66523437 9.39519531 3.32265625 9.20054688 4 9 C2.76340747 13.27100036 -0.47783168 14.65188779 -4 17 C-5.1500831 18.96672915 -5.1500831 18.96672915 -6 21 C-8 23.3125 -8 23.3125 -10 25 C-10.66 24.67 -11.32 24.34 -12 24 C-11.56171875 23.63519531 -11.1234375 23.27039063 -10.671875 22.89453125 C-8.17075818 20.06032177 -8.49997194 17.40399462 -8.25 13.6875 C-7.79166936 8.80039592 -7.23148775 5.22786168 -3.4375 1.8125 C-1.7359375 0.9153125 -1.7359375 0.9153125 0 0 Z " transform="translate(86,26)" style="fill: #0E0C04;"/><path d="M0 0 C-0.03906271 2.1063813 -0.15864763 4.21138184 -0.3125 6.3125 C-0.43044922 8.07013672 -0.43044922 8.07013672 -0.55078125 9.86328125 C-1 13 -1 13 -3 16 C-2.4225 15.401875 -1.845 14.80375 -1.25 14.1875 C1 12 1 12 3 12 C2.93359375 14.39453125 2.93359375 14.39453125 2 17 C-1.19335974 18.63892008 -4.42011717 19.17448168 -8 19 C-10.15923698 15.51200181 -10 13.08860204 -10 9 C-8.68 9 -7.36 9 -6 9 C-5.87109375 12.41015625 -5.87109375 12.41015625 -6 15 C-5.25064827 12.82165195 -4.64399459 10.66488583 -4.0625 8.4375 C-1.82042254 0 -1.82042254 0 0 0 Z " transform="translate(79,34)" style="fill: #CF9937;"/><path d="M0 0 C0.78375 0.144375 1.5675 0.28875 2.375 0.4375 C2.1875 2.875 2.1875 2.875 1.375 6.4375 C1.36430405 7.93760654 1.38676273 9.43821358 1.4375 10.9375 C1.48314875 14.77851594 1.08523798 17.92201081 -0.625 21.4375 C-4.88915257 17.17334743 -3.73786452 8.93251813 -3.7578125 3.1875 C-3.54029844 0.32143239 -2.85993486 0.47665581 0 0 Z " transform="translate(62.625,89.5625)" style="fill: #0B0903;"/><path d="M0 0 C5.23291306 3.88730684 6.86642826 9.03717941 9 15 C9.44988281 15.928125 9.89976563 16.85625 10.36328125 17.8125 C10.67845703 18.8953125 10.67845703 18.8953125 11 20 C7 20 7 20 6 19 C6.0825 18.01 6.165 17.02 6.25 16 C6.1675 15.01 6.085 14.02 6 13 C4.34385343 12.61781233 2.67542976 12.28604898 1 12 C-0.20088605 8.74045214 -0.10763156 7.32289468 1 4 C0.7525 3.175 0.505 2.35 0.25 1.5 C0.1675 1.005 0.085 0.51 0 0 Z " transform="translate(49,28)" style="fill: #C79335;"/><path d="M0 0 C0.84312723 2.77027519 1.41634288 5.56776739 2.0234375 8.3984375 C2.77347248 11.10779291 2.77347248 11.10779291 4.9765625 12.4765625 C5.64429688 12.64929687 6.31203125 12.82203125 7 13 C7.66 12.34 8.32 11.68 9 11 C8.74137733 13.32760406 8.0329853 14.94618188 6.8125 16.9375 C6.214375 17.288125 5.61625 17.63875 5 18 C-0.55555556 15.88888889 -0.55555556 15.88888889 -2 13 C-0.948125 13.37125 0.10375 13.7425 1.1875 14.125 C2.115625 14.41375 3.04375 14.7025 4 15 C2.7169291 13.61823134 1.36886951 12.29682374 0 11 C0 10.34 0 9.68 0 9 C-0.9590625 8.8453125 -0.9590625 8.8453125 -1.9375 8.6875 C-2.618125 8.460625 -3.29875 8.23375 -4 8 C-4.9375 5.625 -4.9375 5.625 -5 3 C-3.40083326 0.79162689 -2.76966516 0 0 0 Z " transform="translate(45,30)" style="fill: #B58732;"/><path d="M0 0 C2.25 -0.62890625 2.25 -0.62890625 5 -0.5625 C6.36125 -0.56443359 6.36125 -0.56443359 7.75 -0.56640625 C8.86375 -0.28603516 8.86375 -0.28603516 10 0 C10.875 1.97265625 10.875 1.97265625 11 4 C9.22662777 5.77337223 6.77717968 5.29594092 4.375 5.375 C3.35148437 5.42398438 2.32796875 5.47296875 1.2734375 5.5234375 C0.52320313 5.35070312 -0.22703125 5.17796875 -1 5 C-1.1484375 2.51171875 -1.1484375 2.51171875 0 0 Z " transform="translate(58,71)" style="fill: #4D583B;"/><path d="M0 0 C1 2 1 2 0.0390625 5.2578125 C-0.42442724 6.54972354 -0.89614208 7.83870611 -1.375 9.125 C-1.60960938 9.78371094 -1.84421875 10.44242188 -2.0859375 11.12109375 C-2.68404612 12.76249411 -3.33738689 14.38356166 -4 16 C-4.33 16 -4.66 16 -5 16 C-4.9175 15.01 -4.835 14.02 -4.75 13 C-4.8325 12.01 -4.915 11.02 -5 10 C-6.6662553 9.9629721 -8.33401319 9.95240038 -10 10 C-8.40960711 8.14454162 -6.80964522 6.62605803 -5 5 C-4.07963312 4.02431052 -3.16267877 3.04538483 -2.25 2.0625 C-1.5075 1.381875 -0.765 0.70125 0 0 Z " transform="translate(77,86)" style="fill: #C49134;"/><path d="M0 0 C0.90650749 2.71952248 1.64484971 5.15879766 2 8 C1.01 9.485 1.01 9.485 0 11 C-2.0625 11 -2.0625 11 -4 10 C-5.0625 7.75 -5.0625 7.75 -5 5 C-2.625 2 -2.625 2 0 0 Z " transform="translate(60,7)" style="fill: #C49136;"/><path d="M0 0 C2.72265625 -0.3359375 2.72265625 -0.3359375 6.0625 -0.375 C7.16722656 -0.40335937 8.27195312 -0.43171875 9.41015625 -0.4609375 C10.26480469 -0.30882813 11.11945313 -0.15671875 12 0 C12 1.32 12 2.64 12 4 C9.41015625 4.4609375 9.41015625 4.4609375 6.0625 4.375 C4.96035156 4.36210938 3.85820313 4.34921875 2.72265625 4.3359375 C1.82417969 4.22507812 0.92570312 4.11421875 0 4 C-0.33 3.34 -0.66 2.68 -1 2 C-0.67 1.34 -0.34 0.68 0 0 Z " transform="translate(57,78)" style="fill: #546A4C;"/><path d="M0 0 C2.5390625 -0.53125 2.5390625 -0.53125 5.625 -0.5 C6.64851563 -0.5103125 7.67203125 -0.520625 8.7265625 -0.53125 C9.47679688 -0.3559375 10.22703125 -0.180625 11 0 C11.1875 2 11.1875 2 10 4 C7.4609375 4.53125 7.4609375 4.53125 4.375 4.5 C3.35148437 4.5103125 2.32796875 4.520625 1.2734375 4.53125 C0.52320313 4.3559375 -0.22703125 4.180625 -1 4 C-1.1875 2 -1.1875 2 0 0 Z " transform="translate(57,84)" style="fill: #587258;"/><path d="M0 0 C3.95665063 0.34911623 6.82557976 1.66095351 10 4 C11.875 6.5625 11.875 6.5625 13 9 C12.67 9.66 12.34 10.32 12 11 C11 10 10 9 9 8 C8.01 8 7.02 8 6 8 C5.34 7.34 4.68 6.68 4 6 C4.66 5.67 5.32 5.34 6 5 C4.34928604 3.97388051 2.68029994 2.97691857 1 2 C0.67 1.34 0.34 0.68 0 0 Z " transform="translate(49,49)" style="fill: #AE8230;"/><path d="M0 0 C3.8364211 -0.45134366 6.42413465 -0.23994389 10 1.25 C12 3 12 3 12.1875 5.375 C11.795625 5.91125 11.40375 6.4475 11 7 C8.25 5.8125 8.25 5.8125 5 4 C4.05125 3.835 3.1025 3.67 2.125 3.5 C1.073125 3.2525 1.073125 3.2525 0 3 C0 2.01 0 1.02 0 0 Z " transform="translate(28,56)" style="fill: #516549;"/><path d="M0 0 C0.99 0 1.98 0 3 0 C4 3 4 3 2.75 5.5 C-0.27826087 9.82608696 -0.27826087 9.82608696 -2 11 C-3.02857906 8.85712696 -3.04067398 7.26844828 -2.6875 4.9375 C-2 3 -2 3 0 0 Z " transform="translate(62,20)" style="fill: #C29034;"/><path d="M0 0 C0.90625 1.61328125 0.90625 1.61328125 2 4 C2.99 4.66 3.98 5.32 5 6 C5.66 6.66 6.32 7.32 7 8 C4 10 4 10 0.6875 10.1875 C-0.199375 9.795625 -1.08625 9.40375 -2 9 C-2.01660004 5.85705897 -1.51971351 2.77910572 0 0 Z " transform="translate(67,27)" style="fill: #BF8D33;"/><path d="M0 0 C0.33 0 0.66 0 1 0 C1.72045764 1.9812585 2.38001259 3.98504093 3 6 C3.268125 6.721875 3.53625 7.44375 3.8125 8.1875 C4 10 4 10 2.6875 11.9375 C2.130625 12.288125 1.57375 12.63875 1 13 C-1.70238949 8.94641576 -1.22937614 6.81689896 -1 2 C-0.67 1.34 -0.34 0.68 0 0 Z " transform="translate(67,41)" style="fill: #100D04;"/><path d="M0 0 C0.33 0 0.66 0 1 0 C1.28875 1.134375 1.5775 2.26875 1.875 3.4375 C2.24625 4.613125 2.6175 5.78875 3 7 C3.99 7.33 4.98 7.66 6 8 C6.5625 10.875 6.5625 10.875 6 13 C3.1875 10.9375 3.1875 10.9375 1.60546875 9.46484375 C-0.14253029 7.79589125 -0.14253029 7.79589125 -3 6 C-3 5.34 -3 4.68 -3 4 C-2.34 3.67 -1.68 3.34 -1 3 C-0.67 2.01 -0.34 1.02 0 0 Z " transform="translate(54,41)" style="fill: #D19936;"/><path d="M0 0 C0.01492831 2.14669143 -0.06522585 4.29424174 -0.1875 6.4375 C-0.27064453 8.22994141 -0.27064453 8.22994141 -0.35546875 10.05859375 C-0.56816406 11.02925781 -0.78085938 11.99992187 -1 13 C-3.125 14.30859375 -3.125 14.30859375 -5 14 C-4.76953125 11.2890625 -4.76953125 11.2890625 -3.8125 7.625 C-3.50957031 6.42101563 -3.20664063 5.21703125 -2.89453125 3.9765625 C-1.69947507 0 -1.69947507 0 0 0 Z " transform="translate(79,34)" style="fill: #BB8B33;"/><path d="M0 0 C1 1.5 1 1.5 1 4 C-0.125 6.25 -0.125 6.25 -2 8 C-4.8125 8.5 -4.8125 8.5 -7 8 C-6.36256375 5.02529751 -4.59123335 3.60120327 -2.4375 1.5 C-1.633125 1.005 -0.82875 0.51 0 0 Z " transform="translate(86,26)" style="fill: #C89436;"/><path d="M0 0 C0.99 0.33 1.98 0.66 3 1 C3 1.66 3 2.32 3 3 C3.99 3.33 4.98 3.66 6 4 C5.9375 6.6875 5.9375 6.6875 5 9 C3 8.75 3 8.75 1 7 C0.0625 3.3125 0.0625 3.3125 0 0 Z " transform="translate(49,18)" style="fill: #C39034;"/><path d="M0 0 C1.32 0 2.64 0 4 0 C4.53125 1.75 4.53125 1.75 4.5 4 C4.5103125 4.7425 4.520625 5.485 4.53125 6.25 C4.3559375 6.8275 4.180625 7.405 4 8 C2.68 8 1.36 8 0 8 C-0.53125 6.25 -0.53125 6.25 -0.5 4 C-0.51546875 2.88625 -0.51546875 2.88625 -0.53125 1.75 C-0.3559375 1.1725 -0.180625 0.595 0 0 Z " transform="translate(52,96)" style="fill: #DE9E39;"/><path d="M0 0 C2.5 0.0625 2.5 0.0625 5 1 C5.33 1.66 5.66 2.32 6 3 C5.01 4.485 5.01 4.485 4 6 C1.3125 6 1.3125 6 -1 5 C-1.125 2.375 -1.125 2.375 0 0 Z " transform="translate(33,44)" style="fill: #556C4E;"/><path d="M0 0 C1.175625 0.185625 1.175625 0.185625 2.375 0.375 C2.4375 2.8125 2.4375 2.8125 1.375 5.375 C-0.625 6.5 -0.625 6.5 -2.625 6.375 C-3.4375 4 -3.4375 4 -3.625 1.375 C-2.625 0.375 -2.625 0.375 0 0 Z " transform="translate(62.625,89.625)" style="fill: #C69436;"/><path d="M0 0 C2.5625 0.1875 2.5625 0.1875 5 1 C5 2.32 5 3.64 5 5 C2.5625 6.0625 2.5625 6.0625 0 6 C-0.875 3.625 -0.875 3.625 -1 1 C-0.67 0.67 -0.34 0.34 0 0 Z " transform="translate(90,44)" style="fill: #566E51;"/><path d="M0 0 C0.99 0 1.98 0 3 0 C3.45134366 3.8364211 3.23994389 6.42413465 1.75 10 C1.1725 10.66 0.595 11.32 0 12 C-2.3125 11.8125 -2.3125 11.8125 -4 11 C-3.34 11 -2.68 11 -2 11 C-0.70290267 7.90137861 0.01081433 5.49745918 -0.0625 2.125 C-0.041875 1.42375 -0.02125 0.7225 0 0 Z " transform="translate(72,20)" style="fill: #CF9937;"/><path d="M0 0 C0.91796875 1.55078125 0.91796875 1.55078125 2 4 C2.8353125 5.2684375 2.8353125 5.2684375 3.6875 6.5625 C4.120625 7.366875 4.55375 8.17125 5 9 C4.67 9.99 4.34 10.98 4 12 C1.9609375 11.5234375 1.9609375 11.5234375 0 10 C-0.4609375 7.4765625 -0.4609375 7.4765625 -0.375 4.625 C-0.36210938 3.66851562 -0.34921875 2.71203125 -0.3359375 1.7265625 C-0.22507813 1.15679687 -0.11421875 0.58703125 0 0 Z " transform="translate(55,37)" style="fill: #100F05;"/><path d="M0 0 C0 0.99 0 1.98 0 3 C-4.22857143 7 -4.22857143 7 -8 7 C-8.125 5.1875 -8.125 5.1875 -7 3 C-4.66876805 1.52002936 -2.68557262 0.83008608 0 0 Z " transform="translate(89,35)" style="fill: #C28F34;"/><path d="M0 0 C0.99 0.33 1.98 0.66 3 1 C3.546875 3.390625 3.546875 3.390625 3.75 6.25 C3.86601563 7.68085937 3.86601563 7.68085937 3.984375 9.140625 C3.98953125 9.75421875 3.9946875 10.3678125 4 11 C3.67 10.01 3.34 9.02 3 8 C2.01 8 1.02 8 0 8 C-0.62352489 5.20636396 -0.2748543 2.88597017 0 0 Z " transform="translate(56,96)" style="fill: #C29034;"/><path d="M0 0 C3.0625 -0.5 3.0625 -0.5 6 0 C6 1.32 6 2.64 6 4 C2.4375 4.5 2.4375 4.5 -1 4 C-1.3125 2 -1.3125 2 0 0 Z " transform="translate(58,72)" style="fill: #576F50;"/><path d="M0 0 C0.25 2.5 0.25 2.5 0 5 C-0.99 5 -1.98 5 -3 5 C-3 4.34 -3 3.68 -3 3 C-4.82028907 2.56574459 -4.82028907 2.56574459 -7 2.4375 C-8.33645776 2.32380828 -9.67178382 2.1867804 -11 2 C-11 1.67 -11 1.34 -11 1 C-9.3611345 0.75907785 -7.71255057 0.58329689 -6.0625 0.4375 C-4.68771484 0.31181641 -4.68771484 0.31181641 -3.28515625 0.18359375 C-1 0 -1 0 0 0 Z " transform="translate(68,87)" style="fill: #15120B;"/><path d="M0 0 C0.66 0 1.32 0 2 0 C2.125 2.375 2.125 2.375 1 5 C-1.75576627 6.31116458 -3.90511812 6.60699913 -7 7 C-7 6.01 -7 5.02 -7 4 C-5.33678518 3.64984951 -3.66965451 3.31802943 -2 3 C-1.34 2.01 -0.68 1.02 0 0 Z " transform="translate(80,46)" style="fill: #C18E33;"/><path d="M0 0 C0.33 0.66 0.66 1.32 1 2 C0.01 3.485 0.01 3.485 -1 5 C-1.165 6.19625 -1.33 7.3925 -1.5 8.625 C-1.7475 10.295625 -1.7475 10.295625 -2 12 C-2.99 12.495 -2.99 12.495 -4 13 C-4.08203125 11.015625 -4.08203125 11.015625 -3.8125 8.25 C-3.73644531 7.34765625 -3.66039062 6.4453125 -3.58203125 5.515625 C-2.9472969 2.77220944 -2.31239805 1.60135059 0 0 Z " transform="translate(61,19)" style="fill: #130F08;"/><path d="M0 0 C0.33 0.66 0.66 1.32 1 2 C1.94875 1.95875 2.8975 1.9175 3.875 1.875 C4.57625 1.91625 5.2775 1.9575 6 2 C3.46962696 4.45129888 1.35244189 5.88251937 -2 7 C-1.71871722 4.39813426 -1.17135645 2.3427129 0 0 Z " transform="translate(75,74)" style="fill: #4F6448;"/><path d="M0 0 C1.32 0 2.64 0 4 0 C4.0234375 1.93359375 4.0234375 1.93359375 3.375 4.4375 C3.17648438 5.26121094 2.97796875 6.08492187 2.7734375 6.93359375 C2 9 2 9 0 10 C-0.08967728 7.66839059 -0.0777346 5.33203812 0 3 C0 2.01 0 1.02 0 0 Z " transform="translate(72,40)" style="fill: #211C0B;"/><path d="M0 0 C1.32 0 2.64 0 4 0 C4.375 3.5 4.375 3.5 4 7 C3.34 7 2.68 7 2 7 C0.39256222 4.41023913 0 3.1068598 0 0 Z " transform="translate(52,104)" style="fill: #CC9636;"/><path d="M0 0 C2.24609375 0.16015625 2.24609375 0.16015625 4 1 C3.01 1.33 2.02 1.66 1 2 C1.32759934 4.33414529 1.66073053 6.66752239 2 9 C1.01 9 0.02 9 -1 9 C-1.21484375 6.99609375 -1.21484375 6.99609375 -0.9375 4.4375 C-0.86402344 3.59058594 -0.79054688 2.74367187 -0.71484375 1.87109375 C-0.47894531 1.25363281 -0.24304688 0.63617188 0 0 Z " transform="translate(79,34)" style="fill: #2C200C;"/><path d="M0 0 C1.5625 1.75 1.5625 1.75 3 4 C2.67 4.66 2.34 5.32 2 6 C1.34 6 0.68 6 0 6 C-0.33 6.66 -0.66 7.32 -1 8 C-2 7 -2 7 -2.1875 4.4375 C-2.125625 3.633125 -2.06375 2.82875 -2 2 C-1.34 2 -0.68 2 0 2 C0 1.34 0 0.68 0 0 Z " transform="translate(70,51)" style="fill: #BE8D33;"/><path d="M0 0 C2.59710905 2.10576409 4.50157589 4.00315177 6 7 C4.16015625 7.890625 4.16015625 7.890625 2 8 C0.52795553 5.31938984 0.35820793 3.07035371 0 0 Z " transform="translate(45,85)" style="fill: #C79335;"/><path d="M0 0 C2.75 0 2.75 0 5 1 C4 3.125 4 3.125 2 5 C1.01 4.67 0.02 4.34 -1 4 C-1 1.875 -1 1.875 0 0 Z " transform="translate(65,36)" style="fill: #D69937;"/><path d="M0 0 C1.32 0 2.64 0 4 0 C3.9375 2.5 3.9375 2.5 3 5 C2.01 5 1.02 5 0 5 C-0.4375 2.5 -0.4375 2.5 0 0 Z " transform="translate(64,64)" style="fill: #D39C3A;"/><path d="M0 0 C3.25045066 1.93270039 4.79113198 3.41025499 6.0625 7 C6.041875 7.66 6.02125 8.32 6 9 C2.86515104 6.62183872 0.84797327 3.87644922 0 0 Z " transform="translate(56,51)" style="fill: #251F0D;"/><path d="M0 0 C2.67523251 2.26365828 4.65126696 4.19996538 6.0625 7.4375 C6.041875 7.953125 6.02125 8.46875 6 9 C3.39634651 8.28175076 2.20930082 7.32441627 0.75 5.0625 C0 3 0 3 0 0 Z " transform="translate(49,28)" style="fill: #67501F;"/><path d="" transform="translate(0,0)" style="fill: #000000;"/><path d="" transform="translate(0,0)" style="fill: #000000;"/><path d="" transform="translate(0,0)" style="fill: #000000;"/></svg>